<?xml version="1.0" standalone="no"?>
<!DOCTYPE svg PUBLIC "-//W3C//DTD SVG 20010904//EN"
 "http://www.w3.org/TR/2001/REC-SVG-20010904/DTD/svg10.dtd">
<svg version="1.0" xmlns="http://www.w3.org/2000/svg"
 width="386.000000pt" height="386.000000pt" viewBox="0 0 386.000000 386.000000"
 preserveAspectRatio="xMidYMid meet">
<metadata>
Created by potrace 1.11, written by Peter Selinger 2001-2013
</metadata>
<g transform="translate(0.000000,386.000000) scale(0.100000,-0.100000)"
fill="#000000" stroke="none">
<path d="M0 1930 l0 -1930 1930 0 1930 0 0 1930 0 1930 -1930 0 -1930 0 0
-1930z m2000 1360 c211 -17 369 -76 515 -194 148 -118 243 -287 248 -441 l2
-50 -115 0 -114 0 -19 69 c-25 97 -62 161 -133 231 -261 258 -846 218 -1031
-71 -41 -63 -51 -92 -63 -171 -24 -171 55 -305 230 -393 87 -44 247 -97 444
-146 394 -99 573 -180 703 -317 88 -93 130 -200 140 -357 29 -483 -385 -800
-1001 -765 -204 11 -408 79 -549 183 -111 83 -209 211 -253 334 -21 59 -44
191 -35 201 4 4 59 6 121 5 l114 -3 12 -55 c18 -89 57 -162 124 -234 140 -150
349 -225 595 -213 140 6 206 18 295 55 135 54 250 155 297 260 20 44 27 78 31
148 9 193 -66 304 -273 404 -98 47 -175 72 -460 145 -426 109 -614 215 -725
410 -69 122 -85 322 -35 469 90 273 371 467 715 495 52 5 97 9 100 9 3 1 57
-3 120 -8z"/>
</g>
</svg>
