<?xml version="1.0" standalone="no"?>
<!DOCTYPE svg PUBLIC "-//W3C//DTD SVG 1.1//EN" "http://www.w3.org/Graphics/SVG/1.1/DTD/svg11.dtd">
<svg version="1.1" xmlns="http://www.w3.org/2000/svg" viewBox="0 0 483.03862251876126 767.4115348580967" width="966.0772450375225" height="1534.8230697161935"><!-- svg-source:excalidraw --><metadata></metadata><defs><style class="style-fonts">
      </style></defs><rect x="0" y="0" width="483.03862251876126" height="767.4115348580967" fill="#ffffff"></rect><g stroke-linecap="round" transform="translate(10 231.41516007059408) rotate(0 90 90)"><path d="M51.91 8.94 C61.2 3.03, 73.66 0.88, 84.94 0.18 C96.21 -0.52, 108.57 1.01, 119.56 4.75 C130.55 8.49, 142.26 14.92, 150.86 22.64 C159.47 30.36, 166.3 40.58, 171.2 51.08 C176.11 61.59, 179.65 74.25, 180.3 85.65 C180.96 97.04, 178.93 108.63, 175.11 119.47 C171.28 130.31, 165.06 141.96, 157.34 150.71 C149.62 159.45, 139.3 167.14, 128.78 171.94 C118.26 176.74, 105.65 179.06, 94.21 179.51 C82.76 179.96, 70.93 178.52, 60.12 174.63 C49.3 170.75, 37.76 163.75, 29.32 156.2 C20.89 148.64, 14.41 139.76, 9.51 129.3 C4.61 118.84, 0.46 104.9, -0.08 93.43 C-0.63 81.95, 2.26 70.95, 6.24 60.45 C10.21 49.95, 14.48 39.65, 23.78 30.43 C33.07 21.21, 53.65 9.75, 62.01 5.13 C70.37 0.51, 73.36 1.46, 73.96 2.7 M102.35 -0.36 C112.88 -0.47, 124.49 6.13, 134.3 12.16 C144.12 18.2, 154.22 26.85, 161.22 35.85 C168.21 44.85, 173.16 55.06, 176.28 66.16 C179.4 77.26, 181.62 90.84, 179.95 102.46 C178.27 114.08, 172.11 126.09, 166.23 135.86 C160.35 145.62, 153.37 154.34, 144.67 161.06 C135.97 167.78, 125.2 173.11, 114.03 176.18 C102.86 179.25, 89.37 180.73, 77.65 179.47 C65.93 178.22, 53.44 174.72, 43.71 168.67 C33.98 162.62, 26.31 152.65, 19.29 143.15 C12.27 133.66, 4.43 122.89, 1.59 111.71 C-1.26 100.54, 0.52 87.33, 2.23 76.09 C3.95 64.86, 6.07 54.17, 11.87 44.3 C17.67 34.43, 27.62 23.73, 37.05 16.88 C46.47 10.02, 57.38 5.68, 68.41 3.16 C79.44 0.64, 97.69 2.04, 103.22 1.78 C108.74 1.51, 102 0.29, 101.55 1.57" stroke="none" stroke-width="0" fill="#ffffff"></path><path d="M97.21 -0.39 C107.95 -1.05, 119.44 3.46, 129.71 8.73 C139.97 13.99, 151.12 22.45, 158.8 31.2 C166.48 39.94, 172.19 50.31, 175.79 61.2 C179.39 72.09, 181.28 85.09, 180.4 96.55 C179.53 108.01, 175.65 119.63, 170.55 129.97 C165.45 140.32, 158.47 151.04, 149.8 158.6 C141.13 166.16, 129.7 171.75, 118.54 175.34 C107.39 178.92, 94.42 180.85, 82.87 180.14 C71.32 179.42, 59.22 176.25, 49.26 171.04 C39.29 165.84, 30.42 157.79, 23.1 148.92 C15.77 140.05, 8.98 128.78, 5.32 117.83 C1.66 106.87, 0.52 94.55, 1.12 83.2 C1.72 71.85, 3.83 60.07, 8.9 49.74 C13.98 39.41, 22.71 28.78, 31.6 21.21 C40.48 13.65, 50.95 7.7, 62.2 4.33 C73.45 0.97, 92.18 1.34, 99.1 1.01 C106.02 0.69, 103.85 0.82, 103.74 2.38 M69.55 1.49 C79.9 -2.28, 94.65 -1.94, 106.28 -0.06 C117.91 1.83, 129.79 6.5, 139.3 12.8 C148.81 19.11, 157.15 28.18, 163.36 37.78 C169.56 47.38, 173.96 58.92, 176.54 70.39 C179.11 81.86, 180.34 95.06, 178.79 106.58 C177.23 118.11, 173.17 130.21, 167.19 139.53 C161.22 148.86, 152.64 156.15, 142.93 162.52 C133.21 168.89, 120.53 175.17, 108.89 177.76 C97.25 180.35, 84.1 179.81, 73.09 178.04 C62.08 176.27, 52.38 173.33, 42.84 167.13 C33.3 160.93, 22.75 150.39, 15.86 140.84 C8.98 131.29, 4.14 120.95, 1.5 109.81 C-1.13 98.67, -2.26 85.31, 0.04 74.01 C2.34 62.71, 9.05 51.46, 15.32 42.02 C21.59 32.58, 28.7 23.9, 37.66 17.34 C46.62 10.78, 63.35 4.89, 69.1 2.64 C74.85 0.39, 71.47 2.63, 72.16 3.84" stroke="#1e1e1e" stroke-width="4" fill="none"></path></g><g stroke-linecap="round"><g transform="translate(146.05424751876126 399.48239179288385) rotate(0 19.3511813038499 101.36438777830426)"><path d="M-1.06 0.39 C4.16 10.17, 24.07 25.89, 30.81 59.48 C37.55 93.06, 37.95 177.92, 39.39 201.88 M0.59 -0.45 C5.79 9.46, 24.03 27.11, 30.43 60.98 C36.83 94.85, 37.37 179.43, 38.99 202.76" stroke="#1e1e1e" stroke-width="4" fill="none"></path></g></g><mask></mask><g stroke-linecap="round"><g transform="translate(174.63237251876126 461.36520429288385) rotate(0 66.748046875 -14.087890625)"><path d="M1.11 0.16 C18.66 -4.8, 83.36 -25.68, 105.29 -28.69 C127.22 -31.69, 128.04 -19.37, 132.66 -17.87 M0.23 -0.8 C17.68 -5.09, 82.18 -24.26, 104.66 -27.42 C127.14 -30.58, 130.39 -21.14, 135.11 -19.75" stroke="#1e1e1e" stroke-width="4" fill="none"></path></g></g><mask></mask><g stroke-linecap="round"><g transform="translate(179.17924751876126 459.79489179288385) rotate(0 42.12890625 -56.32421875007435)"><path d="M0.33 -0.92 C14.36 -13.83, 68.96 -59.38, 83.12 -78.15 C97.28 -96.91, 85.17 -107.68, 85.28 -113.51 M-0.96 1.21 C13.52 -11.44, 70.9 -57.66, 85.23 -76.64 C99.57 -95.61, 85.3 -106.7, 85.05 -112.65" stroke="#1e1e1e" stroke-width="4" fill="none"></path></g></g><mask></mask><g stroke-linecap="round" transform="translate(376.54643501876126 328.28707929288385) rotate(0 18.439453125 18.275390625)"><path d="M14.72 0.54 C18.38 -0.38, 24.14 0.78, 27.57 2.65 C31 4.51, 33.92 8.2, 35.31 11.74 C36.71 15.27, 37.16 20.06, 35.92 23.83 C34.68 27.6, 31.28 32.24, 27.88 34.36 C24.48 36.48, 19.39 37.23, 15.52 36.55 C11.66 35.87, 7.23 33.32, 4.69 30.29 C2.15 27.25, 0.36 22.26, 0.27 18.32 C0.18 14.39, 1.72 9.61, 4.12 6.67 C6.53 3.72, 12.75 1.64, 14.71 0.64 C16.66 -0.36, 15.75 0.53, 15.87 0.69 M19.92 -0.29 C23.62 -0.34, 29.17 2.12, 31.9 4.99 C34.64 7.85, 35.99 13.05, 36.33 16.92 C36.67 20.79, 36.14 25.05, 33.96 28.21 C31.78 31.38, 27.04 34.95, 23.24 35.92 C19.44 36.89, 14.79 35.69, 11.16 34.06 C7.52 32.43, 3.23 29.59, 1.43 26.13 C-0.38 22.67, -0.81 17.09, 0.33 13.32 C1.48 9.56, 4.9 5.74, 8.29 3.54 C11.68 1.35, 18.64 0.54, 20.67 0.15 C22.71 -0.25, 20.7 0.9, 20.5 1.16" stroke="none" stroke-width="0" fill="#ffffff"></path><path d="M22.41 0.6 C26.08 0.95, 30.02 3.35, 32.45 6.35 C34.88 9.35, 37.04 14.59, 36.98 18.62 C36.92 22.65, 34.77 27.65, 32.09 30.52 C29.41 33.39, 24.78 35.21, 20.92 35.83 C17.07 36.46, 12.29 36.16, 8.96 34.26 C5.63 32.36, 2.19 28.13, 0.93 24.43 C-0.33 20.73, -0.01 15.71, 1.4 12.07 C2.82 8.42, 5.96 4.57, 9.4 2.55 C12.83 0.53, 19.81 0.15, 22.03 -0.05 C24.26 -0.25, 22.78 0.99, 22.76 1.34 M21.08 -0.29 C24.74 0.11, 29.74 3.65, 32.49 6.8 C35.25 9.94, 37.52 14.71, 37.61 18.6 C37.7 22.49, 35.68 27.08, 33.03 30.13 C30.38 33.19, 25.53 36.36, 21.69 36.93 C17.85 37.5, 13.53 35.63, 10 33.56 C6.46 31.49, 2.04 28.08, 0.46 24.53 C-1.11 20.98, -0.77 15.85, 0.54 12.28 C1.85 8.7, 4.89 5.08, 8.31 3.07 C11.73 1.06, 18.95 0.54, 21.05 0.24 C23.15 -0.06, 20.88 1.04, 20.91 1.25" stroke="#1e1e1e" stroke-width="4" fill="none"></path></g><g stroke-linecap="round" transform="translate(423.40190376876126 221.78707929288385) rotate(0 18.439453125 18.275390625)"><path d="M15.12 -0.15 C18.82 -1.02, 24.39 0.24, 27.79 2.34 C31.2 4.44, 34.18 8.66, 35.55 12.43 C36.92 16.2, 37.35 21.3, 36.01 24.98 C34.68 28.66, 31.07 32.63, 27.56 34.53 C24.04 36.43, 18.83 37.15, 14.92 36.37 C11.01 35.6, 6.53 32.89, 4.08 29.88 C1.64 26.88, 0.24 22.19, 0.26 18.32 C0.27 14.46, 1.5 9.68, 4.17 6.7 C6.84 3.72, 14.15 1.5, 16.26 0.44 C18.37 -0.62, 16.85 0.05, 16.84 0.34 M21.3 -0.5 C25.08 -0.31, 29.48 2.32, 32.05 5.2 C34.61 8.08, 36.38 12.65, 36.68 16.78 C36.98 20.91, 36.07 26.67, 33.84 29.98 C31.62 33.29, 27.27 35.9, 23.32 36.61 C19.36 37.32, 13.81 36.06, 10.14 34.24 C6.47 32.42, 2.91 29.36, 1.29 25.7 C-0.33 22.05, -0.69 16.03, 0.41 12.3 C1.51 8.58, 4.43 5.5, 7.89 3.36 C11.34 1.23, 18.96 -0.14, 21.15 -0.5 C23.34 -0.86, 21.07 0.72, 21.04 1.19" stroke="none" stroke-width="0" fill="#ffffff"></path><path d="M18.77 0.11 C22.51 -0.09, 27.59 1.66, 30.63 4.34 C33.68 7.02, 36.47 12.24, 37.05 16.18 C37.63 20.12, 36.36 24.72, 34.11 28 C31.86 31.28, 27.26 34.61, 23.56 35.87 C19.86 37.14, 15.51 37.13, 11.9 35.57 C8.3 34.01, 3.81 30.11, 1.94 26.53 C0.06 22.95, -0.18 17.85, 0.64 14.08 C1.45 10.3, 3.56 6.29, 6.83 3.88 C10.1 1.47, 17.95 0.19, 20.28 -0.38 C22.61 -0.95, 20.8 0.18, 20.79 0.47 M16.88 0.37 C20.61 -0.02, 26.2 1.59, 29.44 3.86 C32.69 6.14, 35.29 10.4, 36.35 14.02 C37.41 17.64, 37.55 22.22, 35.81 25.59 C34.07 28.96, 29.59 32.54, 25.92 34.26 C22.26 35.98, 17.52 36.95, 13.83 35.91 C10.14 34.87, 5.95 31.17, 3.76 28.02 C1.58 24.87, 0.4 20.74, 0.73 17 C1.06 13.26, 3.02 8.38, 5.76 5.58 C8.49 2.78, 15.27 1.02, 17.13 0.19 C19 -0.64, 16.97 0.42, 16.96 0.6" stroke="#1e1e1e" stroke-width="4" fill="none"></path></g><g stroke-linecap="round" transform="translate(436.15971626876126 132.79098554288385) rotate(0 18.439453125 18.275390625)"><path d="M14.93 0.65 C18.49 -0.39, 23.53 0.66, 27 2.39 C30.47 4.11, 34.32 7.46, 35.77 11.01 C37.22 14.56, 36.92 19.82, 35.7 23.68 C34.49 27.54, 31.86 32.07, 28.49 34.16 C25.12 36.26, 19.34 36.84, 15.47 36.23 C11.59 35.63, 7.77 33.43, 5.23 30.53 C2.69 27.63, 0.5 22.68, 0.25 18.84 C0 14.99, 1.09 10.57, 3.74 7.47 C6.38 4.36, 13.88 1.32, 16.12 0.2 C18.36 -0.92, 17.12 0.46, 17.18 0.76 M19.99 0.26 C23.66 0.45, 28.06 3.1, 30.8 5.66 C33.54 8.23, 35.99 11.76, 36.44 15.66 C36.89 19.56, 35.55 25.83, 33.51 29.08 C31.47 32.32, 28.01 34.22, 24.2 35.12 C20.38 36.02, 14.47 35.92, 10.63 34.47 C6.79 33.02, 2.75 29.9, 1.18 26.42 C-0.38 22.94, 0.15 17.4, 1.25 13.59 C2.36 9.78, 4.83 5.73, 7.8 3.56 C10.77 1.4, 17.09 1.08, 19.07 0.59 C21.04 0.09, 19.45 0.45, 19.63 0.6" stroke="none" stroke-width="0" fill="#ffffff"></path><path d="M19.25 -0.4 C23.04 -0.55, 28.23 1.73, 31.09 4.39 C33.95 7.05, 35.91 11.69, 36.41 15.57 C36.9 19.45, 36.18 24.34, 34.05 27.67 C31.91 31.01, 27.42 34.38, 23.6 35.57 C19.78 36.77, 14.68 36.25, 11.11 34.83 C7.54 33.41, 3.94 30.45, 2.19 27.06 C0.44 23.67, -0.28 18.37, 0.6 14.48 C1.49 10.6, 4.21 6.16, 7.5 3.76 C10.79 1.35, 18.07 0.54, 20.35 0.05 C22.63 -0.44, 21.17 0.56, 21.18 0.81 M22.84 0.17 C26.48 0.69, 30.47 4.21, 32.87 7.31 C35.26 10.41, 37.42 14.82, 37.23 18.78 C37.05 22.74, 34.55 28.13, 31.75 31.08 C28.96 34.04, 24.41 36.08, 20.47 36.51 C16.54 36.94, 11.51 35.62, 8.17 33.65 C4.83 31.68, 1.46 28.24, 0.44 24.67 C-0.58 21.1, 0.41 15.95, 2.04 12.21 C3.68 8.47, 6.94 4.22, 10.23 2.22 C13.53 0.22, 19.82 0.5, 21.84 0.19 C23.86 -0.12, 22.47 0.11, 22.35 0.36" stroke="#1e1e1e" stroke-width="4" fill="none"></path></g><g stroke-linecap="round" transform="translate(429.39443132006545 74.70101525227119) rotate(0 18.439453125 18.275390625)"><path d="M16.11 0.62 C19.78 -0.06, 25.35 0.92, 28.71 3.04 C32.07 5.16, 35.1 9.64, 36.27 13.33 C37.44 17.01, 37.25 21.55, 35.73 25.17 C34.22 28.79, 30.82 33.16, 27.17 35.06 C23.53 36.96, 17.72 37.5, 13.84 36.56 C9.96 35.62, 6.22 32.6, 3.91 29.42 C1.6 26.25, -0.27 21.35, -0.05 17.49 C0.18 13.62, 2.36 9.21, 5.27 6.25 C8.18 3.29, 15.26 0.78, 17.42 -0.27 C19.58 -1.32, 18.26 -0.45, 18.22 -0.05 M21.53 -0.39 C25.24 -0.19, 30.31 3.09, 32.88 6.09 C35.45 9.1, 36.95 13.61, 36.95 17.63 C36.94 21.65, 35.43 27.24, 32.85 30.24 C30.26 33.24, 25.4 34.91, 21.42 35.64 C17.44 36.37, 12.34 36.48, 8.98 34.6 C5.62 32.72, 2.62 28.14, 1.28 24.37 C-0.06 20.59, -0.43 15.58, 0.93 11.96 C2.29 8.34, 6.04 4.57, 9.43 2.66 C12.82 0.75, 19.28 0.95, 21.27 0.51 C23.26 0.06, 21.32 -0.16, 21.38 -0.03" stroke="none" stroke-width="0" fill="#ffffff"></path><path d="M15.83 -0.11 C19.57 -0.84, 24.98 0.3, 28.36 2.5 C31.74 4.69, 34.85 9.24, 36.13 13.07 C37.41 16.89, 37.52 21.96, 36.04 25.46 C34.57 28.96, 30.89 32.3, 27.3 34.07 C23.7 35.84, 18.29 36.83, 14.46 36.11 C10.64 35.38, 6.69 32.75, 4.34 29.74 C1.99 26.72, 0.26 22.05, 0.36 18.03 C0.46 14.01, 2.28 8.53, 4.93 5.62 C7.59 2.72, 14.22 1.52, 16.28 0.59 C18.33 -0.35, 17.28 -0.15, 17.26 0.01 M14.38 0.13 C18 -0.93, 23.06 0.28, 26.48 2.12 C29.9 3.95, 33.26 7.51, 34.91 11.15 C36.56 14.79, 37.41 20.28, 36.36 23.97 C35.31 27.66, 31.87 31.15, 28.64 33.29 C25.4 35.43, 20.78 37.13, 16.94 36.81 C13.11 36.49, 8.43 34.19, 5.61 31.36 C2.79 28.54, 0.36 23.75, 0 19.86 C-0.36 15.97, 0.99 11.23, 3.44 8.03 C5.89 4.83, 12.9 1.93, 14.72 0.66 C16.53 -0.61, 14.38 0.22, 14.31 0.41" stroke="#1e1e1e" stroke-width="4" fill="none"></path></g><g stroke-linecap="round" transform="translate(232.5576147585116 74.3553049364964) rotate(0 18.439453125 18.275390625)"><path d="M16.14 -0.28 C19.78 -0.92, 25.05 1.14, 28.39 3.34 C31.73 5.54, 35.05 9.23, 36.2 12.92 C37.34 16.6, 36.8 21.81, 35.24 25.45 C33.68 29.09, 30.41 32.94, 26.86 34.73 C23.32 36.52, 17.83 37.22, 13.96 36.2 C10.08 35.18, 5.86 31.9, 3.61 28.62 C1.36 25.34, 0.24 20.4, 0.46 16.51 C0.69 12.63, 2.14 8.09, 4.97 5.32 C7.79 2.55, 15.19 0.74, 17.42 -0.13 C19.65 -1, 18.36 -0.23, 18.35 0.1 M17.74 -0.41 C21.4 -0.72, 26.69 1.07, 29.84 3.62 C32.98 6.16, 35.89 10.94, 36.62 14.84 C37.35 18.74, 36.01 23.63, 34.22 27.02 C32.42 30.4, 29.56 33.77, 25.86 35.17 C22.15 36.57, 15.72 36.67, 11.99 35.42 C8.25 34.17, 5.4 30.94, 3.43 27.66 C1.45 24.38, -0.26 19.5, 0.15 15.74 C0.56 11.98, 2.89 7.69, 5.86 5.11 C8.83 2.53, 15.82 0.94, 17.96 0.27 C20.11 -0.41, 18.62 0.91, 18.72 1.07" stroke="none" stroke-width="0" fill="#ffffff"></path><path d="M19.03 -0.17 C22.84 -0.3, 28.14 2.18, 31.15 4.88 C34.16 7.58, 36.59 12.11, 37.08 16.01 C37.58 19.9, 36.28 24.89, 34.12 28.24 C31.95 31.58, 27.78 34.89, 24.09 36.08 C20.4 37.27, 15.61 36.95, 11.96 35.38 C8.32 33.8, 4.18 30.18, 2.22 26.66 C0.25 23.14, -0.72 18.01, 0.15 14.25 C1.02 10.5, 4.25 6.44, 7.43 4.13 C10.61 1.83, 17.12 1.04, 19.23 0.4 C21.33 -0.23, 19.94 0.04, 20.05 0.32 M19.63 -0.39 C23.44 -0.46, 28.66 2.64, 31.4 5.46 C34.14 8.27, 35.58 12.7, 36.07 16.51 C36.57 20.31, 36.39 25.02, 34.37 28.26 C32.36 31.51, 27.72 34.7, 23.98 35.97 C20.24 37.24, 15.56 37.49, 11.92 35.89 C8.29 34.29, 4.19 30.04, 2.18 26.36 C0.18 22.68, -0.83 17.48, -0.08 13.8 C0.67 10.11, 3.42 6.42, 6.7 4.24 C9.98 2.07, 17.42 1.36, 19.6 0.75 C21.78 0.14, 19.98 0.33, 19.79 0.6" stroke="#1e1e1e" stroke-width="4" fill="none"></path></g><g stroke-linecap="round" transform="translate(334.8027703039006 10) rotate(0 18.439453125 18.275390625)"><path d="M22.75 0.26 C26.5 0.84, 31.08 3.85, 33.4 6.96 C35.71 10.07, 36.89 15.01, 36.63 18.91 C36.37 22.81, 34.42 27.5, 31.84 30.34 C29.27 33.19, 25.14 35.43, 21.18 35.98 C17.22 36.52, 11.44 35.62, 8.08 33.62 C4.73 31.62, 2.13 27.73, 1.04 23.99 C-0.04 20.25, 0.13 14.84, 1.57 11.17 C3.01 7.5, 6.04 3.76, 9.68 2 C13.31 0.23, 20.96 0.75, 23.36 0.58 C25.76 0.4, 24.22 0.68, 24.07 0.95 M16.83 -0.32 C20.43 -0.93, 25.45 0.49, 28.65 2.92 C31.85 5.36, 34.98 10.45, 36.04 14.3 C37.1 18.15, 36.7 22.61, 35.02 26.01 C33.35 29.41, 29.7 33, 25.99 34.69 C22.28 36.39, 16.48 37.11, 12.77 36.18 C9.06 35.25, 5.96 32.44, 3.74 29.11 C1.52 25.78, -0.85 20.07, -0.55 16.17 C-0.25 12.27, 2.46 8.47, 5.51 5.7 C8.57 2.94, 15.78 0.55, 17.81 -0.44 C19.84 -1.42, 17.86 -0.53, 17.71 -0.18" stroke="none" stroke-width="0" fill="#ffffff"></path><path d="M18.5 0.34 C22.31 0.17, 27.5 1.92, 30.56 4.44 C33.61 6.97, 36.29 11.55, 36.84 15.49 C37.39 19.43, 35.99 24.78, 33.85 28.09 C31.7 31.4, 27.67 34.1, 23.96 35.35 C20.25 36.59, 15.21 36.86, 11.58 35.57 C7.94 34.27, 4.06 31.05, 2.14 27.59 C0.22 24.14, -0.71 18.76, 0.06 14.83 C0.83 10.9, 3.5 6.56, 6.77 4.04 C10.03 1.51, 17.47 0.35, 19.65 -0.3 C21.83 -0.94, 19.92 -0.16, 19.84 0.16 M19.03 0.72 C22.74 0.59, 27.71 1.51, 30.63 4.13 C33.54 6.75, 35.97 12.49, 36.52 16.45 C37.08 20.41, 36 24.75, 33.97 27.88 C31.95 31.01, 28.02 34.03, 24.38 35.25 C20.74 36.46, 15.77 36.46, 12.11 35.18 C8.45 33.9, 4.26 30.94, 2.43 27.57 C0.59 24.21, 0.43 18.9, 1.09 14.99 C1.76 11.07, 3.48 6.68, 6.44 4.09 C9.4 1.51, 16.81 0.11, 18.84 -0.55 C20.86 -1.2, 18.52 -0.21, 18.58 0.16" stroke="#1e1e1e" stroke-width="4" fill="none"></path></g><g stroke-linecap="round" transform="translate(209.3684305004017 200.316188144021) rotate(0 18.439453125 18.275390625)"><path d="M18.63 -0.09 C22.31 -0.29, 27.09 2.16, 30.14 4.73 C33.19 7.31, 36.26 11.54, 36.96 15.36 C37.66 19.19, 36.39 24.3, 34.34 27.68 C32.3 31.06, 28.47 34.32, 24.68 35.64 C20.9 36.96, 15.41 37, 11.62 35.6 C7.83 34.21, 3.81 30.65, 1.96 27.27 C0.12 23.89, -0.33 19.23, 0.54 15.34 C1.4 11.44, 4.05 6.39, 7.14 3.91 C10.23 1.43, 17.03 1, 19.1 0.47 C21.18 -0.07, 19.55 0.5, 19.57 0.7 M18.97 -0.64 C22.76 -0.8, 28.06 2.02, 30.91 4.8 C33.75 7.57, 35.45 12.13, 36.06 16 C36.67 19.86, 36.61 24.57, 34.55 27.96 C32.49 31.36, 27.59 35.19, 23.69 36.38 C19.79 37.58, 14.81 36.69, 11.14 35.13 C7.47 33.58, 3.42 30.55, 1.68 27.05 C-0.06 23.55, -0.21 18.1, 0.72 14.16 C1.66 10.21, 4.09 5.7, 7.3 3.38 C10.52 1.06, 18.08 0.71, 20.01 0.24 C21.94 -0.23, 18.97 0.25, 18.9 0.58" stroke="none" stroke-width="0" fill="#ffffff"></path><path d="M14.77 0.7 C18.37 -0.33, 23.65 0.16, 27.09 1.96 C30.53 3.76, 33.92 7.78, 35.4 11.5 C36.88 15.21, 37.24 20.56, 35.97 24.26 C34.7 27.95, 31.24 31.7, 27.78 33.65 C24.32 35.6, 19.11 36.45, 15.21 35.95 C11.32 35.44, 6.92 33.52, 4.39 30.61 C1.86 27.7, 0.07 22.48, 0.02 18.49 C-0.02 14.49, 1.57 9.66, 4.11 6.66 C6.64 3.65, 13.13 1.4, 15.25 0.45 C17.38 -0.51, 16.83 0.66, 16.86 0.91 M17.05 0.51 C20.59 -0.07, 25.8 1.13, 29 3.33 C32.19 5.53, 35.22 9.94, 36.22 13.72 C37.23 17.5, 36.88 22.55, 35.02 26.03 C33.17 29.5, 28.86 32.95, 25.1 34.57 C21.35 36.18, 16.25 36.74, 12.49 35.71 C8.73 34.68, 4.55 31.58, 2.52 28.38 C0.5 25.17, -0.1 20.48, 0.35 16.51 C0.8 12.53, 2.33 7.27, 5.22 4.55 C8.11 1.83, 15.59 0.74, 17.67 0.16 C19.75 -0.43, 17.64 0.73, 17.7 1.04" stroke="#1e1e1e" stroke-width="4" fill="none"></path></g><g stroke-linecap="round" transform="translate(396.68491682754757 281.1645344530857) rotate(0 18.439453125 18.275390625)"><path d="M16.87 0.46 C20.65 -0.17, 25.67 0.86, 28.88 3.05 C32.09 5.24, 35.13 9.89, 36.15 13.59 C37.16 17.28, 36.5 21.77, 34.97 25.23 C33.43 28.69, 30.44 32.58, 26.94 34.33 C23.45 36.08, 17.8 36.65, 13.98 35.73 C10.15 34.81, 6.26 31.88, 4 28.83 C1.75 25.78, 0.18 21.36, 0.44 17.44 C0.7 13.52, 2.74 8.21, 5.56 5.32 C8.38 2.43, 15.32 0.93, 17.35 0.1 C19.37 -0.73, 17.74 0.05, 17.71 0.32 M14.27 0.28 C17.82 -0.5, 23.36 1.05, 26.95 2.98 C30.54 4.91, 34.44 8.24, 35.81 11.86 C37.18 15.48, 36.59 21.04, 35.18 24.71 C33.77 28.37, 30.66 31.85, 27.35 33.85 C24.03 35.84, 19.05 37.35, 15.28 36.67 C11.51 35.99, 7.25 32.76, 4.73 29.76 C2.2 26.76, 0.15 22.45, 0.14 18.69 C0.12 14.93, 2.21 10.16, 4.61 7.19 C7.01 4.23, 12.81 1.91, 14.51 0.91 C16.22 -0.08, 14.64 0.99, 14.84 1.22" stroke="none" stroke-width="0" fill="#ffffff"></path><path d="M19.8 0.17 C23.48 0.26, 28.44 3.03, 31.22 5.69 C34 8.36, 36.1 12.32, 36.48 16.14 C36.86 19.95, 35.78 25.3, 33.5 28.58 C31.23 31.87, 26.57 34.82, 22.85 35.84 C19.13 36.85, 14.7 36.23, 11.18 34.67 C7.66 33.12, 3.48 30, 1.71 26.49 C-0.06 22.99, -0.41 17.47, 0.57 13.67 C1.55 9.87, 4.12 5.95, 7.58 3.71 C11.04 1.47, 18.87 0.74, 21.31 0.22 C23.75 -0.29, 22.22 0.27, 22.21 0.59 M15.48 0.36 C19.16 -0.66, 24.58 -0.04, 27.96 1.83 C31.34 3.69, 34.37 7.74, 35.78 11.55 C37.19 15.36, 37.78 20.9, 36.4 24.7 C35.02 28.5, 31.12 32.48, 27.49 34.36 C23.85 36.24, 18.47 36.62, 14.59 35.99 C10.7 35.37, 6.67 33.61, 4.17 30.59 C1.66 27.58, -0.4 21.91, -0.43 17.91 C-0.47 13.9, 1.38 9.58, 3.94 6.57 C6.49 3.56, 12.98 0.73, 14.91 -0.16 C16.85 -1.06, 15.47 0.89, 15.55 1.21" stroke="#1e1e1e" stroke-width="4" fill="none"></path></g><g stroke-linecap="round" transform="translate(408.57377876876126 20.607391792883845) rotate(0 18.439453125 18.275390625)"><path d="M13.62 0.58 C17.33 -0.5, 23.46 -0.03, 27.1 1.7 C30.74 3.43, 34.04 7.3, 35.48 10.98 C36.92 14.66, 36.86 20.01, 35.72 23.78 C34.58 27.55, 31.79 31.55, 28.63 33.61 C25.48 35.68, 20.64 36.63, 16.77 36.15 C12.91 35.68, 8.29 33.55, 5.46 30.78 C2.64 28, 0.07 23.45, -0.19 19.51 C-0.45 15.57, 1.24 10.27, 3.92 7.14 C6.59 4.01, 13.77 1.87, 15.87 0.72 C17.96 -0.44, 16.42 0.01, 16.48 0.21 M21.39 -0.24 C25.05 0.22, 29.7 3.57, 32.36 6.68 C35.02 9.79, 37.38 14.63, 37.35 18.42 C37.32 22.2, 34.67 26.34, 32.19 29.37 C29.7 32.4, 26.22 35.75, 22.43 36.58 C18.64 37.41, 13.11 36.43, 9.44 34.37 C5.78 32.3, 1.97 27.88, 0.45 24.21 C-1.07 20.54, -1.06 15.94, 0.31 12.37 C1.69 8.8, 5.08 4.87, 8.69 2.81 C12.3 0.76, 19.84 0.39, 21.98 0.02 C24.11 -0.35, 21.71 0.24, 21.5 0.61" stroke="none" stroke-width="0" fill="#ffffff"></path><path d="M19.03 0.46 C22.94 0.51, 28.47 2.75, 31.48 5.34 C34.49 7.94, 36.73 12.24, 37.1 16.03 C37.47 19.82, 35.88 24.83, 33.7 28.07 C31.53 31.31, 27.85 34.37, 24.04 35.49 C20.22 36.61, 14.45 36.22, 10.83 34.8 C7.2 33.37, 4.09 30.33, 2.29 26.94 C0.49 23.56, -0.87 18.3, 0.04 14.49 C0.96 10.68, 4.45 6.49, 7.78 4.07 C11.11 1.65, 17.92 0.55, 20.03 -0.01 C22.14 -0.58, 20.56 0.43, 20.43 0.7 M15.9 -0.13 C19.66 -0.84, 26.05 0.94, 29.49 3.15 C32.93 5.36, 35.6 9.25, 36.53 13.12 C37.45 16.99, 36.63 22.77, 35.04 26.37 C33.46 29.97, 30.5 33.04, 27.03 34.73 C23.56 36.42, 18.04 37.46, 14.22 36.49 C10.41 35.53, 6.46 32.16, 4.13 28.93 C1.8 25.7, 0.14 20.95, 0.25 17.1 C0.36 13.26, 2.02 8.75, 4.78 5.85 C7.53 2.94, 14.72 0.63, 16.78 -0.32 C18.85 -1.28, 17.28 -0.21, 17.16 0.12" stroke="#1e1e1e" stroke-width="4" fill="none"></path></g><g stroke-linecap="round" transform="translate(261.45659126876126 16.626923042883845) rotate(0 18.439453125 18.275390625)"><path d="M19.93 -0.14 C23.67 -0.01, 29.02 2.92, 31.88 5.7 C34.75 8.48, 36.9 12.61, 37.12 16.54 C37.34 20.47, 35.52 26.04, 33.2 29.27 C30.87 32.49, 26.94 35.02, 23.16 35.87 C19.38 36.73, 14.1 36.07, 10.53 34.39 C6.95 32.71, 3.3 29.35, 1.69 25.78 C0.09 22.21, -0.15 16.73, 0.87 12.99 C1.9 9.24, 4.45 5.46, 7.84 3.3 C11.23 1.15, 18.89 0.53, 21.22 0.06 C23.54 -0.42, 21.8 0.11, 21.8 0.46 M13.53 0.35 C17.16 -0.63, 23.71 0.68, 27.22 2.56 C30.73 4.45, 33.08 8.12, 34.58 11.68 C36.09 15.23, 37.31 20.18, 36.27 23.88 C35.22 27.59, 31.63 31.93, 28.32 33.92 C25.01 35.91, 20.2 36.37, 16.4 35.84 C12.61 35.32, 8.37 33.48, 5.56 30.75 C2.75 28.03, -0.08 23.46, -0.46 19.48 C-0.85 15.5, 0.74 10.07, 3.27 6.89 C5.81 3.71, 13 1.33, 14.76 0.42 C16.51 -0.49, 13.97 1.05, 13.82 1.45" stroke="none" stroke-width="0" fill="#ffffff"></path><path d="M22.38 -0.08 C26.01 0.37, 30.21 3.4, 32.64 6.52 C35.08 9.64, 37.04 14.59, 36.99 18.64 C36.94 22.69, 35.03 27.86, 32.34 30.83 C29.65 33.79, 24.81 35.99, 20.87 36.42 C16.93 36.86, 11.99 35.49, 8.68 33.45 C5.38 31.41, 2.26 27.78, 1.04 24.19 C-0.18 20.61, -0.16 15.61, 1.37 11.94 C2.91 8.26, 6.72 4.12, 10.24 2.15 C13.77 0.18, 20.4 0.35, 22.52 0.11 C24.64 -0.13, 23.06 0.4, 22.97 0.71 M15.36 -0.14 C18.92 -1.02, 23.49 -0.06, 26.81 2 C30.13 4.05, 33.78 8.56, 35.29 12.19 C36.79 15.83, 36.98 20.09, 35.83 23.81 C34.67 27.53, 31.8 32.39, 28.36 34.54 C24.92 36.68, 19.2 37.3, 15.18 36.67 C11.17 36.04, 6.88 33.85, 4.26 30.78 C1.64 27.71, -0.6 22.21, -0.55 18.24 C-0.5 14.28, 1.91 9.87, 4.55 7 C7.18 4.12, 13.66 2.15, 15.27 1 C16.88 -0.16, 14.23 -0.14, 14.23 0.09" stroke="#1e1e1e" stroke-width="4" fill="none"></path></g><g stroke-linecap="round" transform="translate(218.97612251876126 154.89254804288385) rotate(0 18.439453125 18.275390625)"><path d="M19.36 -0.42 C23.22 -0.45, 28.41 2.41, 31.38 5.12 C34.36 7.82, 36.72 11.95, 37.22 15.81 C37.71 19.67, 36.61 24.89, 34.35 28.28 C32.09 31.66, 27.47 35.02, 23.68 36.13 C19.89 37.25, 15.14 36.61, 11.61 34.96 C8.08 33.32, 4.34 29.65, 2.52 26.28 C0.71 22.9, -0.04 18.52, 0.72 14.72 C1.47 10.92, 3.9 5.94, 7.06 3.48 C10.22 1.02, 17.62 0.51, 19.69 -0.04 C21.76 -0.58, 19.52 -0.07, 19.5 0.22 M19.97 0.11 C23.82 0.1, 28.64 2.39, 31.52 5.13 C34.39 7.87, 36.8 12.68, 37.22 16.56 C37.63 20.44, 36.26 25.18, 33.99 28.42 C31.73 31.66, 27.46 34.9, 23.62 35.99 C19.78 37.08, 14.53 36.71, 10.95 34.96 C7.36 33.22, 3.82 29.17, 2.11 25.53 C0.41 21.9, -0.25 16.89, 0.72 13.16 C1.69 9.43, 4.77 5.27, 7.93 3.15 C11.09 1.02, 17.6 0.89, 19.66 0.43 C21.72 -0.03, 20.23 0.06, 20.3 0.37" stroke="none" stroke-width="0" fill="#ffffff"></path><path d="M14.21 0.34 C17.76 -0.82, 23.3 0.03, 26.74 1.82 C30.18 3.61, 33.3 7.57, 34.86 11.08 C36.42 14.6, 37.1 19.22, 36.09 22.91 C35.09 26.59, 32.15 30.84, 28.84 33.17 C25.53 35.51, 20.16 37.3, 16.22 36.9 C12.27 36.51, 7.79 33.74, 5.16 30.79 C2.53 27.84, 0.66 23.11, 0.44 19.18 C0.21 15.25, 1.38 10.36, 3.82 7.21 C6.26 4.07, 12.94 1.52, 15.09 0.32 C17.23 -0.88, 16.61 -0.24, 16.7 0.02 M17.9 -0.68 C21.71 -0.83, 27.07 2.24, 30.21 4.92 C33.36 7.59, 36.04 11.53, 36.76 15.37 C37.48 19.21, 36.62 24.53, 34.53 27.94 C32.44 31.35, 28.02 34.67, 24.2 35.86 C20.38 37.04, 15.12 36.54, 11.61 35.06 C8.11 33.59, 5.02 30.33, 3.15 27.02 C1.28 23.71, -0.08 18.97, 0.42 15.22 C0.92 11.46, 3.19 7.13, 6.13 4.47 C9.07 1.81, 15.9 0.01, 18.05 -0.74 C20.2 -1.49, 19.01 -0.44, 19.01 -0.02" stroke="#1e1e1e" stroke-width="4" fill="none"></path></g><g stroke-linecap="round" transform="translate(218.52690376876126 256.71676679288385) rotate(0 18.439453125 18.275390625)"><path d="M14.14 0.42 C17.7 -0.57, 22.92 0.39, 26.41 2.07 C29.9 3.75, 33.41 6.87, 35.08 10.49 C36.76 14.11, 37.47 19.88, 36.46 23.79 C35.45 27.7, 32.39 31.77, 29.02 33.93 C25.65 36.08, 20.3 37.14, 16.26 36.71 C12.22 36.29, 7.45 34.24, 4.79 31.35 C2.13 28.47, 0.46 23.31, 0.29 19.39 C0.12 15.46, 1.32 10.93, 3.76 7.8 C6.2 4.67, 12.92 1.89, 14.91 0.63 C16.9 -0.63, 15.58 -0.03, 15.68 0.23 M13.65 -0.13 C17.28 -1.12, 23.05 0.42, 26.59 2.29 C30.14 4.15, 33.28 7.63, 34.94 11.07 C36.6 14.5, 37.5 19.24, 36.56 22.91 C35.61 26.57, 32.69 30.87, 29.25 33.07 C25.81 35.27, 19.98 36.52, 15.9 36.13 C11.83 35.73, 7.47 33.45, 4.81 30.7 C2.15 27.96, 0.16 23.62, -0.06 19.65 C-0.28 15.67, 1.19 10.08, 3.47 6.85 C5.75 3.62, 11.7 1.36, 13.6 0.27 C15.51 -0.83, 14.68 0.02, 14.91 0.26" stroke="none" stroke-width="0" fill="#ffffff"></path><path d="M14.7 0.13 C18.24 -0.92, 23.68 -0.18, 27.16 1.8 C30.64 3.77, 34.08 8.19, 35.58 11.98 C37.08 15.77, 37.4 20.95, 36.14 24.55 C34.89 28.15, 31.36 31.61, 28.02 33.59 C24.69 35.57, 19.95 37.01, 16.12 36.44 C12.3 35.88, 7.73 33.18, 5.07 30.18 C2.41 27.18, 0.4 22.4, 0.18 18.44 C-0.05 14.48, 1.19 9.4, 3.72 6.42 C6.24 3.44, 13.28 1.6, 15.31 0.56 C17.35 -0.49, 15.78 -0.09, 15.91 0.14 M16.79 0.68 C20.62 0, 25.89 1.15, 29.08 3.31 C32.27 5.47, 34.78 9.99, 35.93 13.64 C37.08 17.29, 37.49 21.69, 35.99 25.22 C34.5 28.74, 30.49 33.07, 26.95 34.78 C23.41 36.49, 18.71 36.45, 14.74 35.47 C10.77 34.48, 5.51 31.89, 3.12 28.86 C0.73 25.84, -0.01 21.3, 0.42 17.31 C0.84 13.33, 3.1 7.73, 5.68 4.93 C8.25 2.12, 14.02 1.33, 15.87 0.48 C17.72 -0.37, 16.6 -0.51, 16.78 -0.16" stroke="#1e1e1e" stroke-width="4" fill="none"></path></g><g stroke-linecap="round" transform="translate(235.59331001876126 351.77145429288385) rotate(0 18.439453125 18.275390625)"><path d="M15 0.23 C18.67 -0.72, 24.31 0.67, 27.66 2.51 C31.02 4.36, 33.82 7.75, 35.13 11.29 C36.44 14.82, 36.66 20.02, 35.52 23.75 C34.38 27.49, 31.61 31.68, 28.29 33.71 C24.96 35.74, 19.48 36.55, 15.56 35.95 C11.64 35.34, 7.32 32.94, 4.76 30.08 C2.2 27.21, 0.33 22.6, 0.2 18.78 C0.07 14.96, 1.35 10.33, 3.97 7.18 C6.59 4.02, 13.83 0.91, 15.9 -0.15 C17.96 -1.21, 16.31 0.52, 16.34 0.82 M20.94 0.74 C24.59 1.21, 29.14 3.65, 31.85 6.36 C34.55 9.07, 36.99 13.21, 37.14 17 C37.3 20.78, 35.35 25.93, 32.77 29.04 C30.19 32.16, 25.56 34.78, 21.67 35.67 C17.79 36.55, 12.81 36.24, 9.46 34.36 C6.12 32.47, 3.14 27.96, 1.6 24.36 C0.06 20.75, -1.06 16.4, 0.23 12.73 C1.51 9.05, 5.91 4.43, 9.3 2.29 C12.7 0.14, 18.52 0.23, 20.59 -0.16 C22.65 -0.55, 21.77 -0.3, 21.7 -0.05" stroke="none" stroke-width="0" fill="#ffffff"></path><path d="M22.06 0.45 C25.69 1.03, 30.19 4.2, 32.64 7.28 C35.09 10.36, 36.85 15.09, 36.76 18.95 C36.68 22.81, 34.88 27.48, 32.13 30.45 C29.38 33.41, 24.16 36.15, 20.27 36.74 C16.39 37.33, 11.97 36.2, 8.8 34 C5.63 31.8, 2.43 27.4, 1.25 23.54 C0.07 19.69, 0.18 14.43, 1.72 10.88 C3.26 7.34, 6.93 3.95, 10.49 2.27 C14.05 0.58, 20.84 0.96, 23.08 0.76 C25.33 0.57, 23.98 0.85, 23.96 1.09 M14.72 -0.07 C18.28 -0.99, 24.15 0.04, 27.57 2.08 C30.98 4.12, 33.78 8.45, 35.2 12.15 C36.61 15.86, 37.35 20.56, 36.08 24.31 C34.81 28.05, 31.18 32.54, 27.59 34.63 C24 36.72, 18.48 37.72, 14.51 36.85 C10.54 35.98, 6.23 32.58, 3.76 29.4 C1.29 26.23, -0.39 21.66, -0.31 17.81 C-0.22 13.96, 1.61 9.24, 4.27 6.29 C6.93 3.34, 13.89 1.14, 15.66 0.11 C17.44 -0.92, 14.95 -0.34, 14.92 0.1" stroke="#1e1e1e" stroke-width="4" fill="none"></path></g><g stroke-linecap="round" transform="translate(304.87846626876126 391.35348554288385) rotate(0 18.439453125 18.275390625)"><path d="M17.17 -0.2 C20.88 -0.79, 25.67 0.74, 28.92 3.12 C32.18 5.49, 35.66 10.29, 36.71 14.06 C37.77 17.82, 37.01 22.2, 35.25 25.7 C33.5 29.2, 29.81 33.32, 26.16 35.06 C22.5 36.79, 17.07 37.11, 13.33 36.1 C9.59 35.08, 5.9 32.23, 3.73 28.98 C1.55 25.72, 0 20.54, 0.26 16.58 C0.51 12.62, 2.32 7.93, 5.25 5.23 C8.18 2.52, 15.8 1.15, 17.83 0.34 C19.87 -0.47, 17.43 0.11, 17.44 0.39 M21.62 0.74 C25.34 1.14, 30.84 3.84, 33.42 6.8 C36 9.76, 37.45 14.51, 37.12 18.5 C36.79 22.5, 34.19 27.76, 31.44 30.77 C28.68 33.79, 24.29 36.13, 20.59 36.59 C16.89 37.06, 12.59 35.8, 9.25 33.58 C5.91 31.36, 1.86 26.93, 0.56 23.26 C-0.75 19.6, -0.04 15.17, 1.39 11.58 C2.83 7.99, 5.58 3.66, 9.15 1.7 C12.73 -0.25, 20.59 0.06, 22.83 -0.14 C25.06 -0.34, 22.66 0.18, 22.56 0.51" stroke="none" stroke-width="0" fill="#ffffff"></path><path d="M13.8 0.17 C17.38 -0.87, 22.89 0.19, 26.51 1.91 C30.14 3.64, 34.03 6.92, 35.55 10.54 C37.07 14.15, 36.74 19.81, 35.65 23.59 C34.56 27.37, 32.26 31.12, 28.98 33.22 C25.71 35.32, 19.92 36.66, 16.01 36.2 C12.09 35.74, 8.24 33.32, 5.5 30.44 C2.76 27.57, -0.15 22.87, -0.42 18.95 C-0.69 15.03, 1.29 10.03, 3.89 6.92 C6.5 3.81, 13.11 1.43, 15.21 0.3 C17.31 -0.84, 16.46 -0.24, 16.49 0.11 M16.64 -0.42 C20.38 -0.95, 25.8 1.17, 29.07 3.63 C32.34 6.1, 35.16 10.6, 36.27 14.36 C37.37 18.13, 37.39 22.83, 35.69 26.23 C33.98 29.64, 29.74 33.18, 26.05 34.8 C22.35 36.41, 17.41 36.93, 13.53 35.92 C9.65 34.91, 4.93 31.92, 2.74 28.74 C0.56 25.56, -0.14 20.84, 0.44 16.84 C1.03 12.83, 3.49 7.41, 6.26 4.69 C9.02 1.98, 15.08 1.35, 17.01 0.54 C18.94 -0.27, 17.74 -0.44, 17.82 -0.16" stroke="#1e1e1e" stroke-width="4" fill="none"></path></g><g stroke-linecap="round"><g transform="translate(186.08315960818618 599.9804502681468) rotate(0 33.36104547224613 78.47358237070557)"><path d="M-0.42 1.17 C8.97 12.16, 46.16 41.18, 57.3 67.05 C68.45 92.92, 64.78 141.56, 66.45 156.4 M1.56 0.74 C10.7 12.37, 45.59 42.02, 56.26 68.13 C66.92 94.25, 63.6 142.66, 65.54 157.43" stroke="#1e1e1e" stroke-width="4" fill="none"></path></g></g><mask></mask><g stroke-linecap="round"><g transform="translate(182.4079930204898 601.6132666826516) rotate(0 -28.523760361522818 76.90724870923486)"><path d="M0.88 0.36 C-6.66 10.45, -36.43 35.72, -46.16 61.31 C-55.89 86.9, -55.66 138.6, -57.49 153.88 M-0.12 -0.5 C-7.76 9.66, -37.53 36.43, -47.26 62.39 C-56.99 88.35, -56.88 140.01, -58.49 155.24" stroke="#1e1e1e" stroke-width="4" fill="none"></path></g></g><mask></mask></svg>