<?xml version="1.0" standalone="no"?>
<!DOCTYPE svg PUBLIC "-//W3C//DTD SVG 1.1//EN" "http://www.w3.org/Graphics/SVG/1.1/DTD/svg11.dtd">
<svg version="1.1" xmlns="http://www.w3.org/2000/svg" viewBox="0 0 693.317376596654 621.5909236643838" width="1386.634753193308" height="1243.1818473287676"><!-- svg-source:excalidraw --><metadata></metadata><defs><style class="style-fonts">
      </style></defs><rect x="0" y="0" width="693.317376596654" height="621.5909236643838" fill="#ffffff"></rect><g stroke-linecap="round" transform="translate(10 85.59454887688116) rotate(0 90 90)"><path d="M51.91 8.94 C61.2 3.03, 73.66 0.88, 84.94 0.18 C96.21 -0.52, 108.57 1.01, 119.56 4.75 C130.55 8.49, 142.26 14.92, 150.86 22.64 C159.47 30.36, 166.3 40.58, 171.2 51.08 C176.11 61.59, 179.65 74.25, 180.3 85.65 C180.96 97.04, 178.93 108.63, 175.11 119.47 C171.28 130.31, 165.06 141.96, 157.34 150.71 C149.62 159.45, 139.3 167.14, 128.78 171.94 C118.26 176.74, 105.65 179.06, 94.21 179.51 C82.76 179.96, 70.93 178.52, 60.12 174.63 C49.3 170.75, 37.76 163.75, 29.32 156.2 C20.89 148.64, 14.41 139.76, 9.51 129.3 C4.61 118.84, 0.46 104.9, -0.08 93.43 C-0.63 81.95, 2.26 70.95, 6.24 60.45 C10.21 49.95, 14.48 39.65, 23.78 30.43 C33.07 21.21, 53.65 9.75, 62.01 5.13 C70.37 0.51, 73.36 1.46, 73.96 2.7 M102.35 -0.36 C112.88 -0.47, 124.49 6.13, 134.3 12.16 C144.12 18.2, 154.22 26.85, 161.22 35.85 C168.21 44.85, 173.16 55.06, 176.28 66.16 C179.4 77.26, 181.62 90.84, 179.95 102.46 C178.27 114.08, 172.11 126.09, 166.23 135.86 C160.35 145.62, 153.37 154.34, 144.67 161.06 C135.97 167.78, 125.2 173.11, 114.03 176.18 C102.86 179.25, 89.37 180.73, 77.65 179.47 C65.93 178.22, 53.44 174.72, 43.71 168.67 C33.98 162.62, 26.31 152.65, 19.29 143.15 C12.27 133.66, 4.43 122.89, 1.59 111.71 C-1.26 100.54, 0.52 87.33, 2.23 76.09 C3.95 64.86, 6.07 54.17, 11.87 44.3 C17.67 34.43, 27.62 23.73, 37.05 16.88 C46.47 10.02, 57.38 5.68, 68.41 3.16 C79.44 0.64, 97.69 2.04, 103.22 1.78 C108.74 1.51, 102 0.29, 101.55 1.57" stroke="none" stroke-width="0" fill="#ffffff"></path><path d="M97.21 -0.39 C107.95 -1.05, 119.44 3.46, 129.71 8.73 C139.97 13.99, 151.12 22.45, 158.8 31.2 C166.48 39.94, 172.19 50.31, 175.79 61.2 C179.39 72.09, 181.28 85.09, 180.4 96.55 C179.53 108.01, 175.65 119.63, 170.55 129.97 C165.45 140.32, 158.47 151.04, 149.8 158.6 C141.13 166.16, 129.7 171.75, 118.54 175.34 C107.39 178.92, 94.42 180.85, 82.87 180.14 C71.32 179.42, 59.22 176.25, 49.26 171.04 C39.29 165.84, 30.42 157.79, 23.1 148.92 C15.77 140.05, 8.98 128.78, 5.32 117.83 C1.66 106.87, 0.52 94.55, 1.12 83.2 C1.72 71.85, 3.83 60.07, 8.9 49.74 C13.98 39.41, 22.71 28.78, 31.6 21.21 C40.48 13.65, 50.95 7.7, 62.2 4.33 C73.45 0.97, 92.18 1.34, 99.1 1.01 C106.02 0.69, 103.85 0.82, 103.74 2.38 M69.55 1.49 C79.9 -2.28, 94.65 -1.94, 106.28 -0.06 C117.91 1.83, 129.79 6.5, 139.3 12.8 C148.81 19.11, 157.15 28.18, 163.36 37.78 C169.56 47.38, 173.96 58.92, 176.54 70.39 C179.11 81.86, 180.34 95.06, 178.79 106.58 C177.23 118.11, 173.17 130.21, 167.19 139.53 C161.22 148.86, 152.64 156.15, 142.93 162.52 C133.21 168.89, 120.53 175.17, 108.89 177.76 C97.25 180.35, 84.1 179.81, 73.09 178.04 C62.08 176.27, 52.38 173.33, 42.84 167.13 C33.3 160.93, 22.75 150.39, 15.86 140.84 C8.98 131.29, 4.14 120.95, 1.5 109.81 C-1.13 98.67, -2.26 85.31, 0.04 74.01 C2.34 62.71, 9.05 51.46, 15.32 42.02 C21.59 32.58, 28.7 23.9, 37.66 17.34 C46.62 10.78, 63.35 4.89, 69.1 2.64 C74.85 0.39, 71.47 2.63, 72.16 3.84" stroke="#1e1e1e" stroke-width="4" fill="none"></path></g><g stroke-linecap="round"><g transform="translate(146.05424751876126 253.66178059917092) rotate(0 19.3511813038499 101.36438777830426)"><path d="M-1.06 0.39 C4.16 10.17, 24.07 25.89, 30.81 59.48 C37.55 93.06, 37.95 177.92, 39.39 201.88 M0.59 -0.45 C5.79 9.46, 24.03 27.11, 30.43 60.98 C36.83 94.85, 37.37 179.43, 38.99 202.76" stroke="#1e1e1e" stroke-width="4" fill="none"></path></g></g><mask></mask><g stroke-linecap="round"><g transform="translate(174.63237251876126 315.5445930991709) rotate(0 66.748046875 -14.087890625)"><path d="M1.11 0.16 C18.66 -4.8, 83.36 -25.68, 105.29 -28.69 C127.22 -31.69, 128.04 -19.37, 132.66 -17.87 M0.23 -0.8 C17.68 -5.09, 82.18 -24.26, 104.66 -27.42 C127.14 -30.58, 130.39 -21.14, 135.11 -19.75" stroke="#1e1e1e" stroke-width="4" fill="none"></path></g></g><mask></mask><g stroke-linecap="round"><g transform="translate(179.17924751876126 313.9742805991709) rotate(0 42.12890625 -56.32421875007435)"><path d="M0.33 -0.92 C14.36 -13.83, 68.96 -59.38, 83.12 -78.15 C97.28 -96.91, 85.17 -107.68, 85.28 -113.51 M-0.96 1.21 C13.52 -11.44, 70.9 -57.66, 85.23 -76.64 C99.57 -95.61, 85.3 -106.7, 85.05 -112.65" stroke="#1e1e1e" stroke-width="4" fill="none"></path></g></g><mask></mask><g stroke-linecap="round" transform="translate(412.59472034665396 562.3085102689361) rotate(0 18.439453125 18.275390625)"><path d="M17.11 0.42 C20.86 -0.15, 26.15 1.07, 29.28 3.26 C32.42 5.45, 34.97 9.85, 35.92 13.58 C36.87 17.3, 36.57 22.03, 34.98 25.6 C33.39 29.18, 29.87 33.22, 26.39 35.03 C22.91 36.84, 17.92 37.45, 14.1 36.44 C10.28 35.43, 5.84 32.16, 3.47 28.94 C1.1 25.72, -0.5 21.08, -0.14 17.12 C0.22 13.16, 2.72 8.04, 5.64 5.17 C8.57 2.31, 15.3 0.72, 17.41 -0.08 C19.53 -0.87, 18.38 0.15, 18.34 0.43 M21.9 0.97 C25.85 1.32, 31 3.25, 33.52 6.3 C36.04 9.35, 37.12 15.2, 37.04 19.26 C36.95 23.31, 35.73 27.77, 33.02 30.65 C30.31 33.53, 24.8 36.03, 20.79 36.54 C16.77 37.05, 12.32 35.72, 8.94 33.72 C5.56 31.72, 1.7 28.1, 0.49 24.52 C-0.72 20.94, 0.21 15.92, 1.66 12.25 C3.11 8.58, 5.81 4.39, 9.19 2.5 C12.57 0.62, 19.75 1.18, 21.95 0.94 C24.15 0.69, 22.31 0.74, 22.39 1.03" stroke="none" stroke-width="0" fill="#ffffff"></path><path d="M19.61 0.43 C23.28 0.38, 27.97 2.06, 30.84 4.7 C33.71 7.34, 36.34 12.26, 36.84 16.29 C37.34 20.33, 36.08 25.61, 33.83 28.91 C31.59 32.22, 27.19 35.16, 23.38 36.14 C19.57 37.12, 14.51 36.45, 10.97 34.79 C7.43 33.13, 3.8 29.71, 2.15 26.18 C0.49 22.66, 0.1 17.46, 1.02 13.64 C1.93 9.83, 4.27 5.54, 7.62 3.28 C10.97 1.02, 18.78 0.59, 21.1 0.09 C23.41 -0.41, 21.58 -0.08, 21.51 0.28 M21.76 0.06 C25.49 0.71, 30.94 4.06, 33.49 7.14 C36.05 10.21, 37.23 14.55, 37.1 18.51 C36.96 22.46, 35.24 27.95, 32.69 30.85 C30.14 33.76, 25.77 35.39, 21.8 35.94 C17.82 36.49, 12.26 36.1, 8.85 34.15 C5.43 32.2, 2.7 27.88, 1.31 24.26 C-0.07 20.63, -0.91 15.95, 0.53 12.4 C1.98 8.84, 6.51 4.88, 9.98 2.9 C13.46 0.92, 19.44 0.79, 21.39 0.53 C23.33 0.26, 21.5 1.06, 21.64 1.3" stroke="#1e1e1e" stroke-width="4" fill="none"></path></g><g stroke-linecap="round" transform="translate(474.29784534665396 559.2616352689361) rotate(0 18.439453125 18.275390625)"><path d="M20.56 0.09 C24.32 0.32, 29.45 3.27, 32.22 6.23 C34.99 9.19, 37.01 14.06, 37.16 17.85 C37.32 21.65, 35.69 25.9, 33.15 29 C30.62 32.1, 25.79 35.51, 21.97 36.45 C18.16 37.39, 13.77 36.47, 10.27 34.65 C6.76 32.83, 2.47 29.23, 0.93 25.51 C-0.61 21.8, -0.26 16.07, 1.03 12.36 C2.31 8.65, 5.25 5.2, 8.63 3.24 C12.02 1.29, 19.02 1.04, 21.32 0.63 C23.62 0.23, 22.41 0.6, 22.43 0.82 M16.66 -0.39 C20.22 -1.13, 24.55 0.09, 27.74 2.28 C30.93 4.48, 34.49 8.94, 35.8 12.79 C37.1 16.65, 37.01 21.86, 35.57 25.42 C34.13 28.99, 30.61 32.33, 27.13 34.19 C23.66 36.05, 18.61 37.42, 14.75 36.58 C10.88 35.73, 6.27 32.26, 3.93 29.11 C1.59 25.97, 0.49 21.69, 0.71 17.71 C0.93 13.74, 2.7 8.13, 5.25 5.26 C7.8 2.38, 14.22 1.25, 16.02 0.48 C17.82 -0.3, 16.07 0.23, 16.07 0.59" stroke="none" stroke-width="0" fill="#ffffff"></path><path d="M20.71 -0.33 C24.38 -0.28, 28.99 2.38, 31.74 5.31 C34.48 8.24, 36.9 13.23, 37.18 17.26 C37.46 21.3, 35.86 26.4, 33.44 29.51 C31.01 32.63, 26.45 35.15, 22.64 35.95 C18.84 36.76, 14.18 35.98, 10.61 34.34 C7.05 32.7, 2.94 29.6, 1.23 26.11 C-0.48 22.62, -0.71 17.19, 0.37 13.41 C1.44 9.63, 4.19 5.63, 7.7 3.42 C11.21 1.21, 18.97 0.57, 21.43 0.13 C23.89 -0.3, 22.47 0.48, 22.46 0.81 M18.11 0.1 C21.71 -0.43, 26.4 1.02, 29.58 3.48 C32.76 5.95, 36.31 10.95, 37.19 14.9 C38.07 18.84, 36.84 23.67, 34.86 27.15 C32.89 30.63, 29.02 34.42, 25.33 35.77 C21.64 37.11, 16.54 36.55, 12.72 35.23 C8.91 33.91, 4.5 31.08, 2.45 27.84 C0.4 24.61, -0.31 19.6, 0.43 15.81 C1.17 12.03, 4 7.87, 6.89 5.12 C9.78 2.38, 15.99 0.08, 17.75 -0.64 C19.51 -1.36, 17.53 0.36, 17.46 0.79" stroke="#1e1e1e" stroke-width="4" fill="none"></path></g><g stroke-linecap="round" transform="translate(538.840814096654 561.0272602689361) rotate(0 18.439453125 18.275390625)"><path d="M22.69 0.28 C26.31 0.88, 30.9 3.98, 33.28 7.1 C35.66 10.21, 37.14 14.98, 36.96 18.98 C36.78 22.98, 34.94 28.19, 32.2 31.09 C29.46 33.99, 24.59 35.93, 20.52 36.38 C16.44 36.83, 11.02 35.99, 7.74 33.78 C4.46 31.58, 1.87 26.9, 0.83 23.13 C-0.22 19.36, -0.02 14.68, 1.48 11.18 C2.98 7.68, 6.17 3.88, 9.84 2.13 C13.51 0.38, 21.22 0.9, 23.49 0.68 C25.76 0.45, 23.66 0.42, 23.47 0.77 M23.46 -0.02 C27.15 0.61, 30.25 4.44, 32.58 7.66 C34.92 10.89, 37.73 15.38, 37.49 19.33 C37.25 23.27, 34.01 28.48, 31.13 31.31 C28.25 34.15, 23.97 35.89, 20.22 36.34 C16.47 36.78, 11.92 36.14, 8.64 33.98 C5.35 31.82, 1.69 27.29, 0.51 23.38 C-0.67 19.48, 0.06 14.09, 1.55 10.55 C3.04 7.02, 5.95 3.88, 9.46 2.17 C12.96 0.46, 20.27 0.61, 22.57 0.31 C24.87 0.01, 23.41 0.04, 23.25 0.38" stroke="none" stroke-width="0" fill="#ffffff"></path><path d="M19.21 0.19 C23.06 -0.04, 28.2 1.76, 31.1 4.36 C34 6.97, 36.06 11.85, 36.62 15.82 C37.18 19.78, 36.46 24.85, 34.47 28.16 C32.48 31.47, 28.54 34.58, 24.67 35.68 C20.8 36.78, 14.96 36.17, 11.28 34.77 C7.59 33.37, 4.35 30.72, 2.56 27.27 C0.76 23.83, -0.25 17.97, 0.52 14.11 C1.3 10.25, 4.13 6.46, 7.2 4.14 C10.26 1.81, 16.75 0.85, 18.9 0.16 C21.05 -0.54, 19.97 -0.27, 20.08 -0.01 M17.83 0.12 C21.51 -0.04, 26.7 2.33, 29.74 4.67 C32.77 7.02, 35.33 10.48, 36.02 14.2 C36.71 17.91, 35.75 23.41, 33.9 26.96 C32.04 30.51, 28.47 34.03, 24.89 35.5 C21.31 36.97, 16.2 37.04, 12.42 35.78 C8.65 34.53, 4.2 31.37, 2.25 27.99 C0.3 24.61, 0.06 19.31, 0.72 15.5 C1.38 11.68, 3.22 7.63, 6.19 5.11 C9.16 2.58, 16.63 1.15, 18.53 0.35 C20.44 -0.46, 17.6 0.04, 17.61 0.27" stroke="#1e1e1e" stroke-width="4" fill="none"></path></g><g stroke-linecap="round" transform="translate(443.34472034665396 528.3163227689361) rotate(0 18.439453125 18.275390625)"><path d="M22.61 0.62 C26.42 1.29, 31.05 4.55, 33.45 7.54 C35.85 10.53, 37.3 14.72, 37.01 18.55 C36.71 22.37, 34.34 27.56, 31.69 30.47 C29.05 33.39, 24.95 35.51, 21.13 36.06 C17.32 36.61, 12.11 35.89, 8.78 33.79 C5.46 31.69, 2.49 27.27, 1.19 23.46 C-0.11 19.66, -0.46 14.48, 0.98 10.96 C2.42 7.44, 6.11 4.05, 9.83 2.35 C13.54 0.65, 20.82 0.88, 23.27 0.76 C25.72 0.63, 24.58 1.33, 24.51 1.6 M21.76 0.57 C25.38 0.95, 29.6 3.69, 32.01 6.65 C34.43 9.61, 36.11 14.38, 36.27 18.32 C36.42 22.27, 35.21 27.21, 32.95 30.31 C30.7 33.41, 26.63 36.27, 22.74 36.9 C18.86 37.53, 13.34 36.07, 9.65 34.09 C5.97 32.11, 2.19 28.51, 0.65 25.02 C-0.89 21.53, -0.88 16.88, 0.41 13.17 C1.7 9.46, 5 4.94, 8.41 2.77 C11.82 0.6, 18.65 0.44, 20.87 0.16 C23.1 -0.12, 21.7 0.81, 21.74 1.08" stroke="none" stroke-width="0" fill="#ffffff"></path><path d="M21.57 0.53 C25.32 0.88, 29.63 3.37, 32.19 6.22 C34.74 9.07, 36.88 13.7, 36.9 17.66 C36.91 21.61, 34.78 26.87, 32.27 29.94 C29.77 33.01, 25.58 35.42, 21.85 36.09 C18.12 36.76, 13.42 35.81, 9.9 33.94 C6.39 32.08, 2.28 28.42, 0.76 24.89 C-0.76 21.35, -0.63 16.38, 0.78 12.73 C2.19 9.07, 5.81 5.01, 9.21 2.95 C12.61 0.89, 19.05 0.78, 21.18 0.35 C23.32 -0.09, 21.95 0, 22 0.33 M15.08 0.54 C18.8 -0.53, 23.76 0.17, 27.11 1.85 C30.46 3.53, 33.6 6.9, 35.17 10.62 C36.73 14.34, 37.75 20.42, 36.49 24.16 C35.23 27.89, 31.11 30.92, 27.61 33.05 C24.11 35.18, 19.38 37.24, 15.47 36.93 C11.57 36.63, 6.72 34.18, 4.2 31.21 C1.68 28.24, 0.48 23.15, 0.36 19.14 C0.24 15.12, 1.13 10.28, 3.49 7.12 C5.85 3.96, 12.74 1.27, 14.52 0.19 C16.3 -0.89, 14.14 0.34, 14.16 0.64" stroke="#1e1e1e" stroke-width="4" fill="none"></path></g><g stroke-linecap="round" transform="translate(503.52050159665396 525.1991352689361) rotate(0 18.439453125 18.275390625)"><path d="M21.29 -0.15 C25.13 0.25, 30.35 3.42, 33.02 6.45 C35.68 9.48, 37.41 14.05, 37.29 18.04 C37.18 22.02, 34.92 27.3, 32.33 30.36 C29.74 33.42, 25.65 35.86, 21.75 36.41 C17.85 36.95, 12.4 35.52, 8.93 33.63 C5.47 31.73, 2.25 28.57, 0.96 25.03 C-0.33 21.49, -0.12 16.09, 1.2 12.39 C2.51 8.68, 5.45 4.74, 8.84 2.8 C12.24 0.86, 19.29 1.12, 21.59 0.76 C23.88 0.39, 22.63 0.4, 22.59 0.62 M13.85 0.19 C17.41 -0.88, 22.65 -0.17, 26.14 1.73 C29.64 3.63, 33.25 7.92, 34.82 11.58 C36.4 15.24, 36.71 20.12, 35.58 23.7 C34.46 27.27, 31.15 31.03, 28.05 33.03 C24.96 35.04, 20.72 36.18, 17.01 35.73 C13.31 35.28, 8.53 33.14, 5.8 30.32 C3.08 27.51, 1.08 22.63, 0.66 18.83 C0.25 15.03, 1.11 10.6, 3.29 7.53 C5.47 4.46, 11.99 1.57, 13.76 0.4 C15.52 -0.78, 13.67 0.17, 13.87 0.47" stroke="none" stroke-width="0" fill="#ffffff"></path><path d="M22.16 0.39 C26 0.99, 30.97 4.34, 33.46 7.41 C35.94 10.47, 37.3 14.86, 37.06 18.78 C36.83 22.69, 34.7 27.98, 32.05 30.91 C29.4 33.83, 24.99 35.82, 21.14 36.33 C17.3 36.83, 12.34 35.99, 8.99 33.92 C5.63 31.85, 2.34 27.57, 1.02 23.89 C-0.3 20.22, -0.43 15.45, 1.07 11.87 C2.57 8.3, 6.43 4.39, 10.02 2.44 C13.61 0.5, 20.35 0.47, 22.59 0.2 C24.84 -0.07, 23.46 0.5, 23.48 0.82 M14.23 1.09 C17.73 0.09, 23.1 0.44, 26.78 2.09 C30.45 3.73, 34.69 7.18, 36.28 10.94 C37.86 14.7, 37.59 20.77, 36.29 24.67 C35 28.56, 31.83 32.48, 28.51 34.31 C25.19 36.14, 20.39 36.31, 16.36 35.63 C12.32 34.94, 6.92 32.98, 4.31 30.21 C1.71 27.44, 0.71 22.79, 0.73 19 C0.75 15.2, 2.02 10.53, 4.44 7.44 C6.86 4.35, 13.58 1.65, 15.26 0.44 C16.94 -0.76, 14.66 -0.01, 14.52 0.23" stroke="#1e1e1e" stroke-width="4" fill="none"></path></g><g stroke-linecap="round" transform="translate(575.618157846654 477.67179151893606) rotate(0 18.439453125 18.275390625)"><path d="M18.01 0.51 C21.75 0.11, 26.39 1.86, 29.46 4.14 C32.52 6.43, 35.58 10.44, 36.4 14.22 C37.22 18.01, 36.21 23.44, 34.36 26.85 C32.5 30.26, 28.86 33.17, 25.28 34.7 C21.69 36.23, 16.53 37.18, 12.83 36.05 C9.14 34.92, 5.16 31.34, 3.1 27.92 C1.05 24.5, -0.03 19.37, 0.48 15.53 C0.98 11.69, 3.13 7.39, 6.15 4.88 C9.18 2.37, 16.23 1.15, 18.6 0.46 C20.98 -0.22, 20.29 0.56, 20.42 0.77 M21.84 0.06 C25.49 0.42, 30.13 3.45, 32.61 6.53 C35.1 9.61, 36.82 14.54, 36.75 18.52 C36.69 22.5, 34.73 27.37, 32.24 30.42 C29.75 33.47, 25.6 36.13, 21.82 36.82 C18.04 37.51, 12.88 36.5, 9.54 34.56 C6.2 32.61, 3.28 28.86, 1.78 25.15 C0.28 21.44, -0.77 16.1, 0.54 12.31 C1.85 8.51, 6.11 4.49, 9.63 2.38 C13.15 0.27, 19.71 -0.1, 21.65 -0.37 C23.59 -0.64, 21.25 0.47, 21.28 0.76" stroke="none" stroke-width="0" fill="#ffffff"></path><path d="M17.11 0.23 C20.83 -0.32, 25.84 1.14, 29.12 3.39 C32.41 5.63, 35.77 9.9, 36.8 13.7 C37.83 17.5, 37.12 22.69, 35.33 26.19 C33.54 29.68, 29.8 33.08, 26.06 34.68 C22.31 36.28, 16.74 36.88, 12.85 35.79 C8.97 34.7, 4.92 31.48, 2.77 28.14 C0.62 24.8, -0.61 19.66, -0.05 15.77 C0.51 11.89, 3.1 7.44, 6.14 4.85 C9.18 2.26, 16.12 1.02, 18.19 0.26 C20.27 -0.51, 18.7 0, 18.61 0.27 M17.13 -0.45 C20.83 -1.19, 25.4 0.31, 28.63 2.65 C31.85 5, 35.25 9.65, 36.46 13.61 C37.68 17.57, 37.7 22.8, 35.92 26.41 C34.13 30.01, 29.32 33.75, 25.76 35.23 C22.19 36.7, 18.14 36.36, 14.51 35.25 C10.89 34.15, 6.33 31.71, 4 28.61 C1.66 25.52, 0.25 20.53, 0.51 16.68 C0.77 12.84, 2.8 8.35, 5.55 5.56 C8.31 2.78, 15.1 0.81, 17.06 -0.03 C19.02 -0.88, 17.25 0.26, 17.34 0.49" stroke="#1e1e1e" stroke-width="4" fill="none"></path></g><g stroke-linecap="round" transform="translate(521.461907846654 485.85147901893606) rotate(0 18.439453125 18.275390625)"><path d="M15.81 0.25 C19.49 -0.58, 25.2 0.25, 28.63 2.4 C32.06 4.55, 35.3 9.37, 36.38 13.17 C37.46 16.96, 36.64 21.55, 35.12 25.18 C33.6 28.81, 30.65 33.09, 27.25 34.95 C23.84 36.8, 18.68 37.27, 14.7 36.29 C10.73 35.3, 5.88 32.24, 3.41 29.05 C0.93 25.86, -0.42 21.02, -0.14 17.14 C0.13 13.27, 2.24 8.57, 5.08 5.8 C7.92 3.03, 14.78 1.45, 16.87 0.52 C18.97 -0.4, 17.69 -0.05, 17.63 0.24 M16.83 -0.2 C20.62 -0.6, 26.31 0.97, 29.56 3.39 C32.81 5.81, 35.31 10.52, 36.32 14.33 C37.32 18.15, 37.17 22.88, 35.59 26.26 C34.01 29.64, 30.4 33.11, 26.84 34.61 C23.28 36.12, 18.26 36.29, 14.25 35.29 C10.25 34.29, 5.27 31.67, 2.83 28.6 C0.39 25.53, -0.74 20.82, -0.36 16.88 C0.02 12.94, 2.32 7.86, 5.11 4.94 C7.9 2.01, 14.34 0.08, 16.38 -0.69 C18.42 -1.45, 17.13 -0.02, 17.37 0.35" stroke="none" stroke-width="0" fill="#ffffff"></path><path d="M19.56 0.38 C23.4 0.36, 28.32 2.54, 31.26 5.23 C34.2 7.92, 36.83 12.63, 37.2 16.5 C37.58 20.37, 35.7 25.25, 33.51 28.46 C31.33 31.66, 27.79 34.69, 24.07 35.73 C20.35 36.76, 14.92 36.18, 11.2 34.66 C7.48 33.15, 3.51 30.15, 1.76 26.66 C0.02 23.17, -0.22 17.62, 0.74 13.72 C1.69 9.83, 4.21 5.53, 7.49 3.27 C10.77 1.02, 18.13 0.64, 20.4 0.18 C22.66 -0.29, 21.18 0.25, 21.07 0.5 M22.59 0.22 C26.39 0.77, 30.56 4.3, 33.03 7.49 C35.5 10.69, 37.7 15.43, 37.41 19.39 C37.12 23.34, 34.21 28.5, 31.31 31.23 C28.42 33.95, 23.92 35.35, 20.04 35.73 C16.17 36.11, 11.31 35.42, 8.07 33.5 C4.83 31.59, 1.63 27.98, 0.6 24.23 C-0.44 20.48, 0.29 14.78, 1.88 11.02 C3.47 7.26, 6.59 3.44, 10.14 1.69 C13.7 -0.06, 21.27 0.76, 23.23 0.5 C25.19 0.25, 22 -0.06, 21.9 0.15" stroke="#1e1e1e" stroke-width="4" fill="none"></path></g><g stroke-linecap="round" transform="translate(557.239251596654 517.3671040189361) rotate(0 18.439453125 18.275390625)"><path d="M20.1 0.19 C23.81 0.3, 28.98 2.27, 31.8 5.1 C34.62 7.94, 36.65 13.18, 37 17.18 C37.35 21.19, 36.18 26.05, 33.91 29.12 C31.63 32.19, 27.21 34.57, 23.35 35.6 C19.49 36.62, 14.39 36.93, 10.75 35.25 C7.1 33.57, 3.13 29.11, 1.48 25.51 C-0.17 21.91, -0.2 17.39, 0.86 13.67 C1.92 9.96, 4.51 5.42, 7.87 3.22 C11.22 1.02, 18.8 0.92, 20.99 0.47 C23.19 0.01, 21.18 0.23, 21.05 0.49 M20.09 0.34 C23.98 0.52, 29.16 2.94, 31.92 5.66 C34.68 8.37, 36.34 12.77, 36.67 16.65 C37 20.54, 36.14 25.86, 33.91 28.97 C31.68 32.08, 27.23 34.28, 23.29 35.3 C19.35 36.32, 13.94 36.54, 10.27 35.07 C6.59 33.59, 2.74 30.1, 1.25 26.46 C-0.24 22.82, 0.15 17.02, 1.33 13.22 C2.52 9.42, 5.14 5.87, 8.38 3.68 C11.61 1.49, 18.72 0.74, 20.73 0.09 C22.74 -0.55, 20.62 -0.43, 20.45 -0.17" stroke="none" stroke-width="0" fill="#ffffff"></path><path d="M14.8 -0.14 C18.35 -1.11, 23.65 0.1, 27.17 2.06 C30.68 4.02, 34.43 7.86, 35.89 11.61 C37.35 15.36, 37.18 20.81, 35.93 24.54 C34.68 28.26, 31.67 32.03, 28.38 33.96 C25.09 35.9, 20.06 36.82, 16.17 36.15 C12.29 35.48, 7.84 32.87, 5.09 29.96 C2.35 27.05, -0.05 22.5, -0.27 18.69 C-0.5 14.88, 1.16 10.21, 3.74 7.1 C6.31 3.99, 13.18 1.22, 15.18 0.04 C17.18 -1.15, 15.6 -0.31, 15.74 0.01 M22.53 0.75 C26.36 1.4, 31.09 3.73, 33.55 6.91 C36.02 10.08, 37.57 15.97, 37.32 19.82 C37.07 23.66, 34.79 27.11, 32.06 29.97 C29.32 32.83, 24.86 36.37, 20.93 37 C17 37.64, 11.95 36.01, 8.47 33.79 C5 31.57, 1.28 27.57, 0.08 23.68 C-1.11 19.79, -0.46 14.13, 1.29 10.47 C3.04 6.82, 6.97 3.29, 10.58 1.73 C14.2 0.17, 20.87 1.23, 22.97 1.09 C25.08 0.94, 23.43 0.64, 23.2 0.85" stroke="#1e1e1e" stroke-width="4" fill="none"></path></g><g stroke-linecap="round" transform="translate(594.395501596654 556.9217915189361) rotate(0 18.439453125 18.275390625)"><path d="M16.37 -0.14 C20.16 -0.74, 25.57 0.99, 28.93 3.2 C32.29 5.41, 35.46 9.4, 36.55 13.1 C37.64 16.79, 37.22 21.71, 35.49 25.36 C33.76 29.02, 29.7 33.29, 26.18 35.01 C22.66 36.73, 18.16 36.64, 14.37 35.68 C10.59 34.72, 5.85 32.4, 3.49 29.27 C1.12 26.15, -0.13 20.95, 0.19 16.93 C0.52 12.91, 2.55 8, 5.44 5.16 C8.32 2.31, 15.45 0.73, 17.51 -0.13 C19.56 -0.99, 17.76 -0.36, 17.77 -0.01 M13.86 0.33 C17.51 -0.54, 23.96 0.75, 27.65 2.51 C31.34 4.27, 34.54 7.43, 35.99 10.88 C37.45 14.32, 37.56 19.38, 36.38 23.17 C35.19 26.96, 32.31 31.45, 28.87 33.62 C25.44 35.79, 19.68 36.77, 15.77 36.19 C11.86 35.62, 8.03 33.17, 5.41 30.19 C2.78 27.21, 0.37 22.12, 0.02 18.3 C-0.34 14.48, 0.89 10.34, 3.29 7.27 C5.68 4.2, 12.53 1.02, 14.38 -0.12 C16.23 -1.26, 14.42 0.02, 14.39 0.42" stroke="none" stroke-width="0" fill="#ffffff"></path><path d="M22.42 0.8 C26.17 1.38, 31.44 4.16, 33.79 7.29 C36.15 10.43, 36.82 15.72, 36.53 19.63 C36.25 23.54, 34.77 27.87, 32.09 30.73 C29.42 33.6, 24.42 36.35, 20.49 36.83 C16.57 37.31, 11.85 35.89, 8.55 33.62 C5.25 31.35, 1.85 26.95, 0.7 23.21 C-0.46 19.46, 0.08 14.7, 1.62 11.14 C3.16 7.58, 6.24 3.55, 9.93 1.86 C13.61 0.16, 21.21 1.02, 23.71 0.97 C26.22 0.93, 25.03 1.35, 24.95 1.58 M20.94 0.15 C24.73 0.44, 30.13 3.03, 32.9 6.15 C35.68 9.28, 37.65 14.87, 37.59 18.9 C37.52 22.92, 35.08 27.34, 32.51 30.3 C29.94 33.27, 26.06 36.02, 22.18 36.68 C18.3 37.34, 12.84 36.38, 9.23 34.28 C5.61 32.18, 1.89 27.83, 0.49 24.11 C-0.9 20.39, -0.64 15.59, 0.87 11.94 C2.37 8.29, 6.18 4.16, 9.54 2.2 C12.91 0.24, 19.05 0.54, 21.05 0.16 C23.05 -0.21, 21.47 -0.39, 21.55 -0.03" stroke="#1e1e1e" stroke-width="4" fill="none"></path></g><g stroke-linecap="round" transform="translate(646.438470346654 555.1092915189361) rotate(0 18.439453125 18.275390625)"><path d="M16.09 0.49 C19.66 -0.19, 24.93 0.77, 28.3 2.88 C31.67 4.99, 35.14 9.41, 36.31 13.14 C37.49 16.88, 36.89 21.71, 35.34 25.27 C33.8 28.83, 30.6 32.65, 27.04 34.49 C23.48 36.33, 17.91 37.26, 13.97 36.32 C10.03 35.37, 5.69 31.99, 3.42 28.82 C1.15 25.64, 0.13 21.08, 0.34 17.27 C0.56 13.45, 1.86 8.86, 4.72 5.93 C7.58 2.99, 15.27 0.57, 17.49 -0.34 C19.72 -1.25, 18.13 0.1, 18.08 0.48 M14.87 0.78 C18.61 -0.32, 23.74 0.32, 27.12 2.15 C30.51 3.97, 33.65 8.14, 35.15 11.71 C36.65 15.27, 37.22 19.93, 36.13 23.53 C35.03 27.14, 31.92 31.22, 28.56 33.35 C25.2 35.47, 19.79 36.82, 15.96 36.29 C12.14 35.75, 8.22 32.85, 5.64 30.13 C3.06 27.41, 0.92 23.74, 0.48 19.98 C0.04 16.22, 0.64 10.85, 3 7.56 C5.35 4.28, 12.78 1.36, 14.62 0.27 C16.47 -0.83, 14 0.58, 14.07 0.98" stroke="none" stroke-width="0" fill="#ffffff"></path><path d="M21.06 -0.33 C24.83 -0.04, 29.81 2.87, 32.43 5.81 C35.04 8.75, 36.58 13.43, 36.77 17.31 C36.95 21.2, 35.91 26.08, 33.53 29.14 C31.14 32.2, 26.47 34.75, 22.47 35.67 C18.48 36.59, 13.09 36.44, 9.56 34.65 C6.03 32.86, 2.78 28.63, 1.3 24.96 C-0.19 21.28, -0.45 16.26, 0.67 12.59 C1.79 8.92, 4.54 4.94, 8 2.94 C11.47 0.93, 19.1 0.96, 21.46 0.54 C23.83 0.11, 22.15 0.14, 22.21 0.39 M21.11 -0.45 C24.94 -0.06, 29.24 3.4, 31.92 6.42 C34.59 9.44, 37.05 13.76, 37.17 17.68 C37.29 21.61, 35.15 26.82, 32.66 29.97 C30.17 33.12, 26.02 35.89, 22.24 36.59 C18.45 37.29, 13.45 36.07, 9.94 34.17 C6.43 32.27, 2.77 28.78, 1.18 25.19 C-0.41 21.6, -0.77 16.24, 0.43 12.64 C1.62 9.04, 4.98 5.7, 8.34 3.57 C11.69 1.44, 18.6 0.34, 20.57 -0.12 C22.53 -0.57, 20.13 0.61, 20.14 0.84" stroke="#1e1e1e" stroke-width="4" fill="none"></path></g><g stroke-linecap="round" transform="translate(605.250970346654 515.7342915189361) rotate(0 18.439453125 18.275390625)"><path d="M17.65 0.32 C21.38 0.09, 26.52 1.62, 29.66 3.99 C32.8 6.36, 35.73 10.74, 36.48 14.53 C37.23 18.31, 36.05 23.19, 34.18 26.72 C32.32 30.25, 28.88 34.27, 25.29 35.71 C21.71 37.15, 16.43 36.69, 12.67 35.37 C8.91 34.06, 4.85 31.19, 2.74 27.81 C0.63 24.42, -0.58 19.01, 0.01 15.05 C0.6 11.09, 3.07 6.61, 6.28 4.05 C9.49 1.48, 17.02 0.3, 19.26 -0.33 C21.5 -0.96, 19.85 -0.09, 19.75 0.28 M21.92 0.65 C25.69 1.08, 30.46 3.29, 32.85 6.34 C35.24 9.4, 36.25 14.94, 36.27 19 C36.29 23.05, 35.38 27.78, 32.98 30.68 C30.59 33.57, 25.89 35.81, 21.89 36.35 C17.89 36.89, 12.39 35.89, 9 33.9 C5.61 31.9, 2.75 28.03, 1.55 24.38 C0.36 20.73, 0.51 15.66, 1.83 12 C3.16 8.33, 6.03 4.32, 9.49 2.37 C12.96 0.43, 20.49 0.62, 22.64 0.33 C24.78 0.03, 22.54 0.3, 22.36 0.6" stroke="none" stroke-width="0" fill="#ffffff"></path><path d="M20.35 0.22 C24.01 0.36, 28.6 3.08, 31.35 5.84 C34.09 8.59, 36.45 12.93, 36.81 16.73 C37.17 20.53, 35.81 25.46, 33.5 28.65 C31.19 31.83, 26.7 34.88, 22.95 35.83 C19.2 36.78, 14.51 35.92, 11.03 34.35 C7.54 32.78, 3.83 29.84, 2.03 26.39 C0.23 22.94, -0.81 17.52, 0.22 13.65 C1.24 9.78, 4.84 5.39, 8.19 3.15 C11.55 0.9, 18.19 0.58, 20.35 0.19 C22.5 -0.21, 21.04 0.57, 21.1 0.78 M14.74 0.81 C18.35 -0.24, 23.9 0.54, 27.45 2.39 C31.01 4.24, 34.62 8.37, 36.1 11.91 C37.57 15.45, 37.55 20.04, 36.32 23.63 C35.09 27.22, 32.2 31.37, 28.72 33.46 C25.24 35.55, 19.3 36.58, 15.43 36.17 C11.57 35.76, 8.13 33.74, 5.52 31 C2.91 28.27, -0.02 23.68, -0.21 19.77 C-0.41 15.85, 1.96 10.72, 4.36 7.5 C6.76 4.27, 12.51 1.51, 14.2 0.43 C15.88 -0.66, 14.34 0.61, 14.48 1.02" stroke="#1e1e1e" stroke-width="4" fill="none"></path></g><g stroke-linecap="round" transform="translate(544.903314096654 441.23038526893606) rotate(0 18.439453125 18.275390625)"><path d="M20.06 0.42 C23.86 0.52, 28.56 2.96, 31.29 5.57 C34.02 8.19, 35.98 12.23, 36.43 16.11 C36.88 20, 36.15 25.54, 34.01 28.88 C31.87 32.22, 27.47 35.19, 23.61 36.15 C19.75 37.12, 14.48 36.27, 10.87 34.65 C7.26 33.03, 3.69 29.87, 1.96 26.42 C0.24 22.97, -0.38 17.76, 0.51 13.96 C1.4 10.16, 3.9 5.9, 7.29 3.64 C10.68 1.37, 18.31 0.87, 20.85 0.39 C23.39 -0.1, 22.54 0.42, 22.53 0.73 M16.5 -0.12 C20.21 -0.59, 26.18 1.76, 29.51 4.15 C32.84 6.53, 35.52 10.38, 36.46 14.2 C37.4 18.02, 36.94 23.55, 35.12 27.05 C33.31 30.56, 29.21 33.64, 25.59 35.23 C21.98 36.81, 17.09 37.74, 13.44 36.55 C9.8 35.35, 5.94 31.44, 3.72 28.05 C1.5 24.66, -0.29 19.91, 0.15 16.21 C0.59 12.51, 3.61 8.55, 6.37 5.87 C9.14 3.18, 15.08 1.04, 16.76 0.08 C18.44 -0.87, 16.45 -0.08, 16.47 0.14" stroke="none" stroke-width="0" fill="#ffffff"></path><path d="M20.5 0.07 C24.2 0.13, 28.8 2.56, 31.58 5.36 C34.37 8.16, 36.81 12.92, 37.2 16.86 C37.59 20.8, 36.27 25.82, 33.93 29.01 C31.58 32.2, 26.96 35.06, 23.14 36.02 C19.33 36.99, 14.55 36.5, 11.02 34.82 C7.49 33.14, 3.71 29.48, 1.96 25.94 C0.2 22.4, -0.53 17.4, 0.48 13.58 C1.5 9.76, 4.66 5.24, 8.03 3.01 C11.4 0.78, 18.54 0.56, 20.7 0.2 C22.87 -0.17, 21.13 0.57, 21.01 0.82 M16.91 0.69 C20.44 -0.11, 24.97 0.36, 28.26 2.32 C31.54 4.27, 35.53 8.49, 36.64 12.42 C37.76 16.35, 36.69 22.28, 34.96 25.89 C33.22 29.5, 29.56 32.38, 26.21 34.08 C22.86 35.77, 18.58 36.79, 14.86 36.05 C11.14 35.31, 6.37 32.77, 3.9 29.65 C1.44 26.52, -0.03 21.31, 0.08 17.31 C0.19 13.31, 1.97 8.39, 4.55 5.63 C7.12 2.88, 13.6 1.72, 15.54 0.78 C17.47 -0.16, 16.1 -0.18, 16.18 -0.01" stroke="#1e1e1e" stroke-width="4" fill="none"></path></g><g stroke-linecap="round" transform="translate(377.5112908526671 134.43975781811605) rotate(0 18.439453125 18.275390625)"><path d="M14.93 0.65 C18.49 -0.39, 23.53 0.66, 27 2.39 C30.47 4.11, 34.32 7.46, 35.77 11.01 C37.22 14.56, 36.92 19.82, 35.7 23.68 C34.49 27.54, 31.86 32.07, 28.49 34.16 C25.12 36.26, 19.34 36.84, 15.47 36.23 C11.59 35.63, 7.77 33.43, 5.23 30.53 C2.69 27.63, 0.5 22.68, 0.25 18.84 C0 14.99, 1.09 10.57, 3.74 7.47 C6.38 4.36, 13.88 1.32, 16.12 0.2 C18.36 -0.92, 17.12 0.46, 17.18 0.76 M19.99 0.26 C23.66 0.45, 28.06 3.1, 30.8 5.66 C33.54 8.23, 35.99 11.76, 36.44 15.66 C36.89 19.56, 35.55 25.83, 33.51 29.08 C31.47 32.32, 28.01 34.22, 24.2 35.12 C20.38 36.02, 14.47 35.92, 10.63 34.47 C6.79 33.02, 2.75 29.9, 1.18 26.42 C-0.38 22.94, 0.15 17.4, 1.25 13.59 C2.36 9.78, 4.83 5.73, 7.8 3.56 C10.77 1.4, 17.09 1.08, 19.07 0.59 C21.04 0.09, 19.45 0.45, 19.63 0.6" stroke="none" stroke-width="0" fill="#ffffff"></path><path d="M19.25 -0.4 C23.04 -0.55, 28.23 1.73, 31.09 4.39 C33.95 7.05, 35.91 11.69, 36.41 15.57 C36.9 19.45, 36.18 24.34, 34.05 27.67 C31.91 31.01, 27.42 34.38, 23.6 35.57 C19.78 36.77, 14.68 36.25, 11.11 34.83 C7.54 33.41, 3.94 30.45, 2.19 27.06 C0.44 23.67, -0.28 18.37, 0.6 14.48 C1.49 10.6, 4.21 6.16, 7.5 3.76 C10.79 1.35, 18.07 0.54, 20.35 0.05 C22.63 -0.44, 21.17 0.56, 21.18 0.81 M22.84 0.17 C26.48 0.69, 30.47 4.21, 32.87 7.31 C35.26 10.41, 37.42 14.82, 37.23 18.78 C37.05 22.74, 34.55 28.13, 31.75 31.08 C28.96 34.04, 24.41 36.08, 20.47 36.51 C16.54 36.94, 11.51 35.62, 8.17 33.65 C4.83 31.68, 1.46 28.24, 0.44 24.67 C-0.58 21.1, 0.41 15.95, 2.04 12.21 C3.68 8.47, 6.94 4.22, 10.23 2.22 C13.53 0.22, 19.82 0.5, 21.84 0.19 C23.86 -0.12, 22.47 0.11, 22.35 0.36" stroke="#1e1e1e" stroke-width="4" fill="none"></path></g><g stroke-linecap="round" transform="translate(323.8836429456669 10) rotate(0 18.439453125 18.275390625)"><path d="M16.14 -0.28 C19.78 -0.92, 25.05 1.14, 28.39 3.34 C31.73 5.54, 35.05 9.23, 36.2 12.92 C37.34 16.6, 36.8 21.81, 35.24 25.45 C33.68 29.09, 30.41 32.94, 26.86 34.73 C23.32 36.52, 17.83 37.22, 13.96 36.2 C10.08 35.18, 5.86 31.9, 3.61 28.62 C1.36 25.34, 0.24 20.4, 0.46 16.51 C0.69 12.63, 2.14 8.09, 4.97 5.32 C7.79 2.55, 15.19 0.74, 17.42 -0.13 C19.65 -1, 18.36 -0.23, 18.35 0.1 M17.74 -0.41 C21.4 -0.72, 26.69 1.07, 29.84 3.62 C32.98 6.16, 35.89 10.94, 36.62 14.84 C37.35 18.74, 36.01 23.63, 34.22 27.02 C32.42 30.4, 29.56 33.77, 25.86 35.17 C22.15 36.57, 15.72 36.67, 11.99 35.42 C8.25 34.17, 5.4 30.94, 3.43 27.66 C1.45 24.38, -0.26 19.5, 0.15 15.74 C0.56 11.98, 2.89 7.69, 5.86 5.11 C8.83 2.53, 15.82 0.94, 17.96 0.27 C20.11 -0.41, 18.62 0.91, 18.72 1.07" stroke="none" stroke-width="0" fill="#ffffff"></path><path d="M19.03 -0.17 C22.84 -0.3, 28.14 2.18, 31.15 4.88 C34.16 7.58, 36.59 12.11, 37.08 16.01 C37.58 19.9, 36.28 24.89, 34.12 28.24 C31.95 31.58, 27.78 34.89, 24.09 36.08 C20.4 37.27, 15.61 36.95, 11.96 35.38 C8.32 33.8, 4.18 30.18, 2.22 26.66 C0.25 23.14, -0.72 18.01, 0.15 14.25 C1.02 10.5, 4.25 6.44, 7.43 4.13 C10.61 1.83, 17.12 1.04, 19.23 0.4 C21.33 -0.23, 19.94 0.04, 20.05 0.32 M19.63 -0.39 C23.44 -0.46, 28.66 2.64, 31.4 5.46 C34.14 8.27, 35.58 12.7, 36.07 16.51 C36.57 20.31, 36.39 25.02, 34.37 28.26 C32.36 31.51, 27.72 34.7, 23.98 35.97 C20.24 37.24, 15.56 37.49, 11.92 35.89 C8.29 34.29, 4.19 30.04, 2.18 26.36 C0.18 22.68, -0.83 17.48, -0.08 13.8 C0.67 10.11, 3.42 6.42, 6.7 4.24 C9.98 2.07, 17.42 1.36, 19.6 0.75 C21.78 0.14, 19.98 0.33, 19.79 0.6" stroke="#1e1e1e" stroke-width="4" fill="none"></path></g><g stroke-linecap="round" transform="translate(238.4027784052223 79.30694038243655) rotate(0 18.439453125 18.275390625)"><path d="M18.63 -0.09 C22.31 -0.29, 27.09 2.16, 30.14 4.73 C33.19 7.31, 36.26 11.54, 36.96 15.36 C37.66 19.19, 36.39 24.3, 34.34 27.68 C32.3 31.06, 28.47 34.32, 24.68 35.64 C20.9 36.96, 15.41 37, 11.62 35.6 C7.83 34.21, 3.81 30.65, 1.96 27.27 C0.12 23.89, -0.33 19.23, 0.54 15.34 C1.4 11.44, 4.05 6.39, 7.14 3.91 C10.23 1.43, 17.03 1, 19.1 0.47 C21.18 -0.07, 19.55 0.5, 19.57 0.7 M18.97 -0.64 C22.76 -0.8, 28.06 2.02, 30.91 4.8 C33.75 7.57, 35.45 12.13, 36.06 16 C36.67 19.86, 36.61 24.57, 34.55 27.96 C32.49 31.36, 27.59 35.19, 23.69 36.38 C19.79 37.58, 14.81 36.69, 11.14 35.13 C7.47 33.58, 3.42 30.55, 1.68 27.05 C-0.06 23.55, -0.21 18.1, 0.72 14.16 C1.66 10.21, 4.09 5.7, 7.3 3.38 C10.52 1.06, 18.08 0.71, 20.01 0.24 C21.94 -0.23, 18.97 0.25, 18.9 0.58" stroke="none" stroke-width="0" fill="#ffffff"></path><path d="M14.77 0.7 C18.37 -0.33, 23.65 0.16, 27.09 1.96 C30.53 3.76, 33.92 7.78, 35.4 11.5 C36.88 15.21, 37.24 20.56, 35.97 24.26 C34.7 27.95, 31.24 31.7, 27.78 33.65 C24.32 35.6, 19.11 36.45, 15.21 35.95 C11.32 35.44, 6.92 33.52, 4.39 30.61 C1.86 27.7, 0.07 22.48, 0.02 18.49 C-0.02 14.49, 1.57 9.66, 4.11 6.66 C6.64 3.65, 13.13 1.4, 15.25 0.45 C17.38 -0.51, 16.83 0.66, 16.86 0.91 M17.05 0.51 C20.59 -0.07, 25.8 1.13, 29 3.33 C32.19 5.53, 35.22 9.94, 36.22 13.72 C37.23 17.5, 36.88 22.55, 35.02 26.03 C33.17 29.5, 28.86 32.95, 25.1 34.57 C21.35 36.18, 16.25 36.74, 12.49 35.71 C8.73 34.68, 4.55 31.58, 2.52 28.38 C0.5 25.17, -0.1 20.48, 0.35 16.51 C0.8 12.53, 2.33 7.27, 5.22 4.55 C8.11 1.83, 15.59 0.74, 17.67 0.16 C19.75 -0.43, 17.64 0.73, 17.7 1.04" stroke="#1e1e1e" stroke-width="4" fill="none"></path></g><g stroke-linecap="round" transform="translate(235.59331001876126 205.95084309917092) rotate(0 18.439453125 18.275390625)"><path d="M15 0.23 C18.67 -0.72, 24.31 0.67, 27.66 2.51 C31.02 4.36, 33.82 7.75, 35.13 11.29 C36.44 14.82, 36.66 20.02, 35.52 23.75 C34.38 27.49, 31.61 31.68, 28.29 33.71 C24.96 35.74, 19.48 36.55, 15.56 35.95 C11.64 35.34, 7.32 32.94, 4.76 30.08 C2.2 27.21, 0.33 22.6, 0.2 18.78 C0.07 14.96, 1.35 10.33, 3.97 7.18 C6.59 4.02, 13.83 0.91, 15.9 -0.15 C17.96 -1.21, 16.31 0.52, 16.34 0.82 M20.94 0.74 C24.59 1.21, 29.14 3.65, 31.85 6.36 C34.55 9.07, 36.99 13.21, 37.14 17 C37.3 20.78, 35.35 25.93, 32.77 29.04 C30.19 32.16, 25.56 34.78, 21.67 35.67 C17.79 36.55, 12.81 36.24, 9.46 34.36 C6.12 32.47, 3.14 27.96, 1.6 24.36 C0.06 20.75, -1.06 16.4, 0.23 12.73 C1.51 9.05, 5.91 4.43, 9.3 2.29 C12.7 0.14, 18.52 0.23, 20.59 -0.16 C22.65 -0.55, 21.77 -0.3, 21.7 -0.05" stroke="none" stroke-width="0" fill="#ffffff"></path><path d="M22.06 0.45 C25.69 1.03, 30.19 4.2, 32.64 7.28 C35.09 10.36, 36.85 15.09, 36.76 18.95 C36.68 22.81, 34.88 27.48, 32.13 30.45 C29.38 33.41, 24.16 36.15, 20.27 36.74 C16.39 37.33, 11.97 36.2, 8.8 34 C5.63 31.8, 2.43 27.4, 1.25 23.54 C0.07 19.69, 0.18 14.43, 1.72 10.88 C3.26 7.34, 6.93 3.95, 10.49 2.27 C14.05 0.58, 20.84 0.96, 23.08 0.76 C25.33 0.57, 23.98 0.85, 23.96 1.09 M14.72 -0.07 C18.28 -0.99, 24.15 0.04, 27.57 2.08 C30.98 4.12, 33.78 8.45, 35.2 12.15 C36.61 15.86, 37.35 20.56, 36.08 24.31 C34.81 28.05, 31.18 32.54, 27.59 34.63 C24 36.72, 18.48 37.72, 14.51 36.85 C10.54 35.98, 6.23 32.58, 3.76 29.4 C1.29 26.23, -0.39 21.66, -0.31 17.81 C-0.22 13.96, 1.61 9.24, 4.27 6.29 C6.93 3.34, 13.89 1.14, 15.66 0.11 C17.44 -0.92, 14.95 -0.34, 14.92 0.1" stroke="#1e1e1e" stroke-width="4" fill="none"></path></g><g stroke-linecap="round" transform="translate(304.87846626876126 245.53287434917092) rotate(0 18.439453125 18.275390625)"><path d="M17.17 -0.2 C20.88 -0.79, 25.67 0.74, 28.92 3.12 C32.18 5.49, 35.66 10.29, 36.71 14.06 C37.77 17.82, 37.01 22.2, 35.25 25.7 C33.5 29.2, 29.81 33.32, 26.16 35.06 C22.5 36.79, 17.07 37.11, 13.33 36.1 C9.59 35.08, 5.9 32.23, 3.73 28.98 C1.55 25.72, 0 20.54, 0.26 16.58 C0.51 12.62, 2.32 7.93, 5.25 5.23 C8.18 2.52, 15.8 1.15, 17.83 0.34 C19.87 -0.47, 17.43 0.11, 17.44 0.39 M21.62 0.74 C25.34 1.14, 30.84 3.84, 33.42 6.8 C36 9.76, 37.45 14.51, 37.12 18.5 C36.79 22.5, 34.19 27.76, 31.44 30.77 C28.68 33.79, 24.29 36.13, 20.59 36.59 C16.89 37.06, 12.59 35.8, 9.25 33.58 C5.91 31.36, 1.86 26.93, 0.56 23.26 C-0.75 19.6, -0.04 15.17, 1.39 11.58 C2.83 7.99, 5.58 3.66, 9.15 1.7 C12.73 -0.25, 20.59 0.06, 22.83 -0.14 C25.06 -0.34, 22.66 0.18, 22.56 0.51" stroke="none" stroke-width="0" fill="#ffffff"></path><path d="M13.8 0.17 C17.38 -0.87, 22.89 0.19, 26.51 1.91 C30.14 3.64, 34.03 6.92, 35.55 10.54 C37.07 14.15, 36.74 19.81, 35.65 23.59 C34.56 27.37, 32.26 31.12, 28.98 33.22 C25.71 35.32, 19.92 36.66, 16.01 36.2 C12.09 35.74, 8.24 33.32, 5.5 30.44 C2.76 27.57, -0.15 22.87, -0.42 18.95 C-0.69 15.03, 1.29 10.03, 3.89 6.92 C6.5 3.81, 13.11 1.43, 15.21 0.3 C17.31 -0.84, 16.46 -0.24, 16.49 0.11 M16.64 -0.42 C20.38 -0.95, 25.8 1.17, 29.07 3.63 C32.34 6.1, 35.16 10.6, 36.27 14.36 C37.37 18.13, 37.39 22.83, 35.69 26.23 C33.98 29.64, 29.74 33.18, 26.05 34.8 C22.35 36.41, 17.41 36.93, 13.53 35.92 C9.65 34.91, 4.93 31.92, 2.74 28.74 C0.56 25.56, -0.14 20.84, 0.44 16.84 C1.03 12.83, 3.49 7.41, 6.26 4.69 C9.02 1.98, 15.08 1.35, 17.01 0.54 C18.94 -0.27, 17.74 -0.44, 17.82 -0.16" stroke="#1e1e1e" stroke-width="4" fill="none"></path></g><g stroke-linecap="round"><g transform="translate(186.08315960818618 454.1598390744339) rotate(0 33.36104547224613 78.47358237070557)"><path d="M-0.42 1.17 C5.25 13.33, 23.82 48.19, 34.97 74.06 C46.11 99.93, 61.06 142.73, 66.45 156.4 M1.56 0.74 C6.98 13.54, 23.26 49.03, 33.93 75.14 C44.59 101.26, 59.88 143.82, 65.54 157.43" stroke="#1e1e1e" stroke-width="4" fill="none"></path></g></g><mask></mask><g stroke-linecap="round"><g transform="translate(182.4079930204898 455.79265548893864) rotate(0 -28.523760361522818 76.90724870923486)"><path d="M0.88 0.36 C-2.62 12.61, -12.21 48.65, -21.94 74.24 C-31.67 99.83, -51.62 140.75, -57.49 153.88 M-0.12 -0.5 C-3.72 11.81, -13.3 49.36, -23.03 75.31 C-32.76 101.27, -52.84 142.17, -58.49 155.24" stroke="#1e1e1e" stroke-width="4" fill="none"></path></g></g><mask></mask></svg>