<svg version="1.1" viewBox="0.0 0.0 746.0 461.0" fill="none" stroke="none" stroke-linecap="square" stroke-miterlimit="10" width="746" height="461" xmlns:xlink="http://www.w3.org/1999/xlink" xmlns="http://www.w3.org/2000/svg"><path fill="#ffffff" d="M0 0L746.0 0L746.0 461.0L0 461.0L0 0Z" fill-rule="nonzero"/><path stroke="#333333" stroke-width="1.0" stroke-linecap="butt" d="M61.5 417.5L652.5 417.5" fill-rule="nonzero"/><path stroke="#cccccc" stroke-width="1.0" stroke-linecap="butt" d="M61.5 320.5L652.5 320.5" fill-rule="nonzero"/><path stroke="#cccccc" stroke-width="1.0" stroke-linecap="butt" d="M61.5 224.5L652.5 224.5" fill-rule="nonzero"/><path stroke="#cccccc" stroke-width="1.0" stroke-linecap="butt" d="M61.5 127.5L652.5 127.5" fill-rule="nonzero"/><path stroke="#cccccc" stroke-width="1.0" stroke-linecap="butt" d="M61.5 30.5L652.5 30.5" fill-rule="nonzero"/><clipPath id="id_0"><path d="M61.05 30.05L652.96 30.05L652.96 417.95L61.05 417.95L61.05 30.05Z" clip-rule="nonzero"/></clipPath><path stroke="#000000" stroke-width="2.0" stroke-linecap="butt" stroke-opacity="0.0" clip-path="url(#id_0)" d="M197.0 418.0L109.0 418.0L109.0 418.0L197.0 418.0Z" fill-rule="nonzero"/><path fill="#38761d" clip-path="url(#id_0)" d="M197.0 418.0L109.0 418.0L109.0 418.0L197.0 418.0Z" fill-rule="nonzero"/><path stroke="#000000" stroke-width="2.0" stroke-linecap="butt" stroke-opacity="0.0" clip-path="url(#id_0)" d="M333.0 418.0L245.0 418.0L245.0 418.0L333.0 418.0Z" fill-rule="nonzero"/><path fill="#38761d" clip-path="url(#id_0)" d="M333.0 418.0L245.0 418.0L245.0 418.0L333.0 418.0Z" fill-rule="nonzero"/><path stroke="#000000" stroke-width="2.0" stroke-linecap="butt" stroke-opacity="0.0" clip-path="url(#id_0)" d="M469.0 418.0L381.0 418.0L381.0 417.0L469.0 417.0Z" fill-rule="nonzero"/><path fill="#38761d" clip-path="url(#id_0)" d="M469.0 418.0L381.0 418.0L381.0 417.0L469.0 417.0Z" fill-rule="nonzero"/><path stroke="#000000" stroke-width="2.0" stroke-linecap="butt" stroke-opacity="0.0" clip-path="url(#id_0)" d="M605.0 418.0L517.0 418.0L517.0 392.0L605.0 392.0Z" fill-rule="nonzero"/><path fill="#38761d" clip-path="url(#id_0)" d="M605.0 418.0L517.0 418.0L517.0 392.0L605.0 392.0Z" fill-rule="nonzero"/><path stroke="#000000" stroke-width="2.0" stroke-linecap="butt" stroke-opacity="0.0" clip-path="url(#id_0)" d="M197.0 418.0L109.0 418.0L109.0 418.0L197.0 418.0Z" fill-rule="nonzero"/><path fill="#6aa84f" clip-path="url(#id_0)" d="M197.0 418.0L109.0 418.0L109.0 418.0L197.0 418.0Z" fill-rule="nonzero"/><path stroke="#000000" stroke-width="2.0" stroke-linecap="butt" stroke-opacity="0.0" clip-path="url(#id_0)" d="M333.0 418.0L245.0 418.0L245.0 399.0L333.0 399.0Z" fill-rule="nonzero"/><path fill="#6aa84f" clip-path="url(#id_0)" d="M333.0 418.0L245.0 418.0L245.0 399.0L333.0 399.0Z" fill-rule="nonzero"/><path stroke="#000000" stroke-width="2.0" stroke-linecap="butt" stroke-opacity="0.0" clip-path="url(#id_0)" d="M469.0 417.0L381.0 417.0L381.0 349.0L469.0 349.0Z" fill-rule="nonzero"/><path fill="#6aa84f" clip-path="url(#id_0)" d="M469.0 417.0L381.0 417.0L381.0 349.0L469.0 349.0Z" fill-rule="nonzero"/><path stroke="#000000" stroke-width="2.0" stroke-linecap="butt" stroke-opacity="0.0" clip-path="url(#id_0)" d="M605.0 392.0L517.0 392.0L517.0 276.0L605.0 276.0Z" fill-rule="nonzero"/><path fill="#6aa84f" clip-path="url(#id_0)" d="M605.0 392.0L517.0 392.0L517.0 276.0L605.0 276.0Z" fill-rule="nonzero"/><path stroke="#000000" stroke-width="2.0" stroke-linecap="butt" stroke-opacity="0.0" clip-path="url(#id_0)" d="M197.0 418.0L109.0 418.0L109.0 320.0L197.0 320.0Z" fill-rule="nonzero"/><path fill="#93c47d" clip-path="url(#id_0)" d="M197.0 418.0L109.0 418.0L109.0 320.0L197.0 320.0Z" fill-rule="nonzero"/><path stroke="#000000" stroke-width="2.0" stroke-linecap="butt" stroke-opacity="0.0" clip-path="url(#id_0)" d="M333.0 399.0L245.0 399.0L245.0 244.0L333.0 244.0Z" fill-rule="nonzero"/><path fill="#93c47d" clip-path="url(#id_0)" d="M333.0 399.0L245.0 399.0L245.0 244.0L333.0 244.0Z" fill-rule="nonzero"/><path stroke="#000000" stroke-width="2.0" stroke-linecap="butt" stroke-opacity="0.0" clip-path="url(#id_0)" d="M469.0 349.0L381.0 349.0L381.0 192.0L469.0 192.0Z" fill-rule="nonzero"/><path fill="#93c47d" clip-path="url(#id_0)" d="M469.0 349.0L381.0 349.0L381.0 192.0L469.0 192.0Z" fill-rule="nonzero"/><path stroke="#000000" stroke-width="2.0" stroke-linecap="butt" stroke-opacity="0.0" clip-path="url(#id_0)" d="M605.0 276.0L517.0 276.0L517.0 135.0L605.0 135.0Z" fill-rule="nonzero"/><path fill="#93c47d" clip-path="url(#id_0)" d="M605.0 276.0L517.0 276.0L517.0 135.0L605.0 135.0Z" fill-rule="nonzero"/><path stroke="#000000" stroke-width="2.0" stroke-linecap="butt" stroke-opacity="0.0" clip-path="url(#id_0)" d="M197.0 320.0L109.0 320.0L109.0 237.0L197.0 237.0Z" fill-rule="nonzero"/><path fill="#b6d7a8" clip-path="url(#id_0)" d="M197.0 320.0L109.0 320.0L109.0 237.0L197.0 237.0Z" fill-rule="nonzero"/><path stroke="#000000" stroke-width="2.0" stroke-linecap="butt" stroke-opacity="0.0" clip-path="url(#id_0)" d="M333.0 244.0L245.0 244.0L245.0 179.0L333.0 179.0Z" fill-rule="nonzero"/><path fill="#b6d7a8" clip-path="url(#id_0)" d="M333.0 244.0L245.0 244.0L245.0 179.0L333.0 179.0Z" fill-rule="nonzero"/><path stroke="#000000" stroke-width="2.0" stroke-linecap="butt" stroke-opacity="0.0" clip-path="url(#id_0)" d="M469.0 192.0L381.0 192.0L381.0 143.0L469.0 143.0Z" fill-rule="nonzero"/><path fill="#b6d7a8" clip-path="url(#id_0)" d="M469.0 192.0L381.0 192.0L381.0 143.0L469.0 143.0Z" fill-rule="nonzero"/><path stroke="#000000" stroke-width="2.0" stroke-linecap="butt" stroke-opacity="0.0" clip-path="url(#id_0)" d="M605.0 135.0L517.0 135.0L517.0 107.0L605.0 107.0Z" fill-rule="nonzero"/><path fill="#b6d7a8" clip-path="url(#id_0)" d="M605.0 135.0L517.0 135.0L517.0 107.0L605.0 107.0Z" fill-rule="nonzero"/><path stroke="#000000" stroke-width="2.0" stroke-linecap="butt" stroke-opacity="0.0" clip-path="url(#id_0)" d="M197.0 237.0L109.0 237.0L109.0 83.0L197.0 83.0Z" fill-rule="nonzero"/><path fill="#3d85c6" clip-path="url(#id_0)" d="M197.0 237.0L109.0 237.0L109.0 83.0L197.0 83.0Z" fill-rule="nonzero"/><path stroke="#000000" stroke-width="2.0" stroke-linecap="butt" stroke-opacity="0.0" clip-path="url(#id_0)" d="M333.0 179.0L245.0 179.0L245.0 68.0L333.0 68.0Z" fill-rule="nonzero"/><path fill="#3d85c6" clip-path="url(#id_0)" d="M333.0 179.0L245.0 179.0L245.0 68.0L333.0 68.0Z" fill-rule="nonzero"/><path stroke="#000000" stroke-width="2.0" stroke-linecap="butt" stroke-opacity="0.0" clip-path="url(#id_0)" d="M469.0 143.0L381.0 143.0L381.0 64.0L469.0 64.0Z" fill-rule="nonzero"/><path fill="#3d85c6" clip-path="url(#id_0)" d="M469.0 143.0L381.0 143.0L381.0 64.0L469.0 64.0Z" fill-rule="nonzero"/><path stroke="#000000" stroke-width="2.0" stroke-linecap="butt" stroke-opacity="0.0" clip-path="url(#id_0)" d="M605.0 107.0L517.0 107.0L517.0 53.0L605.0 53.0Z" fill-rule="nonzero"/><path fill="#3d85c6" clip-path="url(#id_0)" d="M605.0 107.0L517.0 107.0L517.0 53.0L605.0 53.0Z" fill-rule="nonzero"/><path stroke="#000000" stroke-width="2.0" stroke-linecap="butt" stroke-opacity="0.0" clip-path="url(#id_0)" d="M197.0 83.0L109.0 83.0L109.0 51.0L197.0 51.0Z" fill-rule="nonzero"/><path fill="#6fa8dc" clip-path="url(#id_0)" d="M197.0 83.0L109.0 83.0L109.0 51.0L197.0 51.0Z" fill-rule="nonzero"/><path stroke="#000000" stroke-width="2.0" stroke-linecap="butt" stroke-opacity="0.0" clip-path="url(#id_0)" d="M333.0 68.0L245.0 68.0L245.0 47.0L333.0 47.0Z" fill-rule="nonzero"/><path fill="#6fa8dc" clip-path="url(#id_0)" d="M333.0 68.0L245.0 68.0L245.0 47.0L333.0 47.0Z" fill-rule="nonzero"/><path stroke="#000000" stroke-width="2.0" stroke-linecap="butt" stroke-opacity="0.0" clip-path="url(#id_0)" d="M469.0 64.0L381.0 64.0L381.0 47.0L469.0 47.0Z" fill-rule="nonzero"/><path fill="#6fa8dc" clip-path="url(#id_0)" d="M469.0 64.0L381.0 64.0L381.0 47.0L469.0 47.0Z" fill-rule="nonzero"/><path stroke="#000000" stroke-width="2.0" stroke-linecap="butt" stroke-opacity="0.0" clip-path="url(#id_0)" d="M605.0 53.0L517.0 53.0L517.0 40.0L605.0 40.0Z" fill-rule="nonzero"/><path fill="#6fa8dc" clip-path="url(#id_0)" d="M605.0 53.0L517.0 53.0L517.0 40.0L605.0 40.0Z" fill-rule="nonzero"/><path stroke="#000000" stroke-width="2.0" stroke-linecap="butt" stroke-opacity="0.0" clip-path="url(#id_0)" d="M197.0 51.0L109.0 51.0L109.0 32.0C109.0 30.89543 109.89543 30.0 111.0 30.0L195.0 30.0C196.10457 30.0 197.0 30.89543 197.0 32.0Z" fill-rule="nonzero"/><path fill="#9fc5e8" clip-path="url(#id_0)" d="M197.0 51.0L109.0 51.0L109.0 32.0C109.0 30.89543 109.89543 30.0 111.0 30.0L195.0 30.0C196.10457 30.0 197.0 30.89543 197.0 32.0Z" fill-rule="nonzero"/><path stroke="#000000" stroke-width="2.0" stroke-linecap="butt" stroke-opacity="0.0" clip-path="url(#id_0)" d="M333.0 47.0L245.0 47.0L245.0 32.0C245.0 30.89543 245.89543 30.0 247.0 30.0L331.0 30.0C332.10458 30.0 333.0 30.89543 333.0 32.0Z" fill-rule="nonzero"/><path fill="#9fc5e8" clip-path="url(#id_0)" d="M333.0 47.0L245.0 47.0L245.0 32.0C245.0 30.89543 245.89543 30.0 247.0 30.0L331.0 30.0C332.10458 30.0 333.0 30.89543 333.0 32.0Z" fill-rule="nonzero"/><path stroke="#000000" stroke-width="2.0" stroke-linecap="butt" stroke-opacity="0.0" clip-path="url(#id_0)" d="M469.0 47.0L381.0 47.0L381.0 32.0C381.0 30.89543 381.89542 30.0 383.0 30.0L467.0 30.0C468.10458 30.0 469.0 30.89543 469.0 32.0Z" fill-rule="nonzero"/><path fill="#9fc5e8" clip-path="url(#id_0)" d="M469.0 47.0L381.0 47.0L381.0 32.0C381.0 30.89543 381.89542 30.0 383.0 30.0L467.0 30.0C468.10458 30.0 469.0 30.89543 469.0 32.0Z" fill-rule="nonzero"/><path stroke="#000000" stroke-width="2.0" stroke-linecap="butt" stroke-opacity="0.0" clip-path="url(#id_0)" d="M605.0 40.0L517.0 40.0L517.0 32.0C517.0 30.89543 517.89545 30.0 519.0 30.0L603.0 30.0C604.10455 30.0 605.0 30.89543 605.0 32.0Z" fill-rule="nonzero"/><path fill="#9fc5e8" clip-path="url(#id_0)" d="M605.0 40.0L517.0 40.0L517.0 32.0C517.0 30.89543 517.89545 30.0 519.0 30.0L603.0 30.0C604.10455 30.0 605.0 30.89543 605.0 32.0Z" fill-rule="nonzero"/><path fill="#000000" d="M37.55 417.71564Q37.55 416.1844 37.8625 415.2625Q38.175 414.325 38.784374 413.825Q39.409374 413.325 40.346874 413.325Q41.034374 413.325 41.55 413.60626Q42.08125 413.8875 42.425 414.41876Q42.76875 414.9344 42.95625 415.6844Q43.14375 416.4344 43.14375 417.71564Q43.14375 419.23126 42.83125 420.15314Q42.534374 421.075 41.909374 421.59064Q41.3 422.09064 40.346874 422.09064Q39.1125 422.09064 38.39375 421.2Q37.55 420.1375 37.55 417.71564ZM38.628124 417.71564Q38.628124 419.825 39.128124 420.52814Q39.628124 421.23126 40.346874 421.23126Q41.08125 421.23126 41.565624 420.52814Q42.065624 419.825 42.065624 417.71564Q42.065624 415.59064 41.565624 414.90314Q41.08125 414.2 40.33125 414.2Q39.6125 414.2 39.175 414.8094Q38.628124 415.59064 38.628124 417.71564ZM44.753124 415.41876Q44.753124 414.4969 45.20625 413.85626Q45.675 413.21564 46.55 413.21564Q47.3625 413.21564 47.89375 413.79376Q48.425 414.3719 48.425 415.48126Q48.425 416.575 47.878124 417.16876Q47.346874 417.7469 46.565624 417.7469Q45.784374 417.7469 45.26875 417.16876Q44.753124 416.59064 44.753124 415.41876ZM46.58125 413.9344Q46.190624 413.9344 45.925 414.27814Q45.675 414.6219 45.675 415.52814Q45.675 416.35626 45.925 416.7Q46.190624 417.02814 46.58125 417.02814Q46.9875 417.02814 47.2375 416.6844Q47.503124 416.34064 47.503124 415.45Q47.503124 414.60626 47.2375 414.27814Q46.971874 413.9344 46.58125 413.9344ZM46.58125 422.2625L51.284374 413.21564L52.14375 413.21564L47.45625 422.2625L46.58125 422.2625ZM50.3 419.9344Q50.3 419.0125 50.753124 418.3719Q51.221874 417.73126 52.1125 417.73126Q52.925 417.73126 53.45625 418.3094Q53.9875 418.8719 53.9875 419.9969Q53.9875 421.09064 53.440624 421.6844Q52.909374 422.2625 52.1125 422.2625Q51.346874 422.2625 50.815624 421.6844Q50.3 421.10626 50.3 419.9344ZM52.14375 418.45Q51.7375 418.45 51.471874 418.79376Q51.221874 419.1375 51.221874 420.04376Q51.221874 420.85626 51.4875 421.2Q51.753124 421.54376 52.14375 421.54376Q52.534374 421.54376 52.8 421.2Q53.065624 420.85626 53.065624 419.95Q53.065624 419.1219 52.8 418.79376Q52.534374 418.45 52.14375 418.45Z" fill-rule="nonzero"/><path fill="#000000" d="M36.096874 323.95938L36.096874 324.975L30.409374 324.975Q30.409374 324.6 30.534374 324.24063Q30.753124 323.6625 31.221874 323.1Q31.70625 322.5375 32.6125 321.80313Q34.01875 320.64688 34.503124 319.975Q35.003124 319.30313 35.003124 318.70938Q35.003124 318.08438 34.55 317.6625Q34.096874 317.225 33.378124 317.225Q32.6125 317.225 32.159374 317.67813Q31.70625 318.13126 31.690624 318.94376L30.6125 318.83438Q30.721874 317.61563 31.440624 316.99063Q32.175 316.35 33.409374 316.35Q34.64375 316.35 35.3625 317.0375Q36.08125 317.725 36.08125 318.74063Q36.08125 319.25626 35.8625 319.75626Q35.659374 320.24063 35.159374 320.80313Q34.675 321.35 33.55 322.30313Q32.596874 323.1 32.315624 323.39688Q32.05 323.67813 31.878124 323.95938L36.096874 323.95938ZM37.55 322.725L38.659374 322.63126Q38.784374 323.44376 39.221874 323.85Q39.675 324.25626 40.315624 324.25626Q41.065624 324.25626 41.596874 323.67813Q42.128124 323.1 42.128124 322.1625Q42.128124 321.25626 41.6125 320.74063Q41.1125 320.20938 40.284374 320.20938Q39.784374 320.20938 39.3625 320.44376Q38.95625 320.67813 38.721874 321.0375L37.7375 320.9125L38.565624 316.50626L42.846874 316.50626L42.846874 317.50626L39.409374 317.50626L38.95625 319.81876Q39.721874 319.27188 40.565624 319.27188Q41.690624 319.27188 42.45625 320.05313Q43.2375 320.83438 43.2375 322.06876Q43.2375 323.225 42.565624 324.08438Q41.7375 325.11563 40.315624 325.11563Q39.14375 325.11563 38.39375 324.45938Q37.659374 323.80313 37.55 322.725ZM44.753124 318.44376Q44.753124 317.52188 45.20625 316.88126Q45.675 316.24063 46.55 316.24063Q47.3625 316.24063 47.89375 316.81876Q48.425 317.39688 48.425 318.50626Q48.425 319.6 47.878124 320.19376Q47.346874 320.77188 46.565624 320.77188Q45.784374 320.77188 45.26875 320.19376Q44.753124 319.61563 44.753124 318.44376ZM46.58125 316.95938Q46.190624 316.95938 45.925 317.30313Q45.675 317.64688 45.675 318.55313Q45.675 319.38126 45.925 319.725Q46.190624 320.05313 46.58125 320.05313Q46.9875 320.05313 47.2375 319.70938Q47.503124 319.36563 47.503124 318.475Q47.503124 317.63126 47.2375 317.30313Q46.971874 316.95938 46.58125 316.95938ZM46.58125 325.2875L51.284374 316.24063L52.14375 316.24063L47.45625 325.2875L46.58125 325.2875ZM50.3 322.95938Q50.3 322.0375 50.753124 321.39688Q51.221874 320.75626 52.1125 320.75626Q52.925 320.75626 53.45625 321.33438Q53.9875 321.89688 53.9875 323.02188Q53.9875 324.11563 53.440624 324.70938Q52.909374 325.2875 52.1125 325.2875Q51.346874 325.2875 50.815624 324.70938Q50.3 324.13126 50.3 322.95938ZM52.14375 321.475Q51.7375 321.475 51.471874 321.81876Q51.221874 322.1625 51.221874 323.06876Q51.221874 323.88126 51.4875 324.225Q51.753124 324.56876 52.14375 324.56876Q52.534374 324.56876 52.8 324.225Q53.065624 323.88126 53.065624 322.975Q53.065624 322.14688 52.8 321.81876Q52.534374 321.475 52.14375 321.475Z" fill-rule="nonzero"/><path fill="#000000" d="M30.55 225.75L31.659374 225.65625Q31.784374 226.46875 32.221874 226.875Q32.675 227.28125 33.315624 227.28125Q34.065624 227.28125 34.596874 226.70312Q35.128124 226.125 35.128124 225.1875Q35.128124 224.28125 34.6125 223.76562Q34.1125 223.23438 33.284374 223.23438Q32.784374 223.23438 32.3625 223.46875Q31.95625 223.70312 31.721874 224.0625L30.7375 223.9375L31.565624 219.53125L35.846874 219.53125L35.846874 220.53125L32.409374 220.53125L31.95625 222.84375Q32.721874 222.29688 33.565624 222.29688Q34.690624 222.29688 35.45625 223.07812Q36.2375 223.85938 36.2375 225.09375Q36.2375 226.25 35.565624 227.10938Q34.7375 228.14062 33.315624 228.14062Q32.14375 228.14062 31.39375 227.48438Q30.659374 226.82812 30.55 225.75ZM37.55 223.76562Q37.55 222.23438 37.8625 221.3125Q38.175 220.375 38.784374 219.875Q39.409374 219.375 40.346874 219.375Q41.034374 219.375 41.55 219.65625Q42.08125 219.9375 42.425 220.46875Q42.76875 220.98438 42.95625 221.73438Q43.14375 222.48438 43.14375 223.76562Q43.14375 225.28125 42.83125 226.20312Q42.534374 227.125 41.909374 227.64062Q41.3 228.14062 40.346874 228.14062Q39.1125 228.14062 38.39375 227.25Q37.55 226.1875 37.55 223.76562ZM38.628124 223.76562Q38.628124 225.875 39.128124 226.57812Q39.628124 227.28125 40.346874 227.28125Q41.08125 227.28125 41.565624 226.57812Q42.065624 225.875 42.065624 223.76562Q42.065624 221.64062 41.565624 220.95312Q41.08125 220.25 40.33125 220.25Q39.6125 220.25 39.175 220.85938Q38.628124 221.64062 38.628124 223.76562ZM44.753124 221.46875Q44.753124 220.54688 45.20625 219.90625Q45.675 219.26562 46.55 219.26562Q47.3625 219.26562 47.89375 219.84375Q48.425 220.42188 48.425 221.53125Q48.425 222.625 47.878124 223.21875Q47.346874 223.79688 46.565624 223.79688Q45.784374 223.79688 45.26875 223.21875Q44.753124 222.64062 44.753124 221.46875ZM46.58125 219.98438Q46.190624 219.98438 45.925 220.32812Q45.675 220.67188 45.675 221.57812Q45.675 222.40625 45.925 222.75Q46.190624 223.07812 46.58125 223.07812Q46.9875 223.07812 47.2375 222.73438Q47.503124 222.39062 47.503124 221.5Q47.503124 220.65625 47.2375 220.32812Q46.971874 219.98438 46.58125 219.98438ZM46.58125 228.3125L51.284374 219.26562L52.14375 219.26562L47.45625 228.3125L46.58125 228.3125ZM50.3 225.98438Q50.3 225.0625 50.753124 224.42188Q51.221874 223.78125 52.1125 223.78125Q52.925 223.78125 53.45625 224.35938Q53.9875 224.92188 53.9875 226.04688Q53.9875 227.14062 53.440624 227.73438Q52.909374 228.3125 52.1125 228.3125Q51.346874 228.3125 50.815624 227.73438Q50.3 227.15625 50.3 225.98438ZM52.14375 224.5Q51.7375 224.5 51.471874 224.84375Q51.221874 225.1875 51.221874 226.09375Q51.221874 226.90625 51.4875 227.25Q51.753124 227.59375 52.14375 227.59375Q52.534374 227.59375 52.8 227.25Q53.065624 226.90625 53.065624 226.0Q53.065624 225.17188 52.8 224.84375Q52.534374 224.5 52.14375 224.5Z" fill-rule="nonzero"/><path fill="#000000" d="M30.6125 123.556244L30.6125 122.54062L36.175 122.54062L36.175 123.368744Q35.3625 124.243744 34.55 125.69687Q33.753124 127.13437 33.315624 128.66562Q32.9875 129.74374 32.909374 131.025L31.815624 131.025Q31.83125 130.00937 32.20625 128.57187Q32.596874 127.13437 33.3 125.806244Q34.01875 124.47812 34.83125 123.556244L30.6125 123.556244ZM37.55 128.775L38.659374 128.68124Q38.784374 129.49374 39.221874 129.9Q39.675 130.30624 40.315624 130.30624Q41.065624 130.30624 41.596874 129.72812Q42.128124 129.15 42.128124 128.2125Q42.128124 127.306244 41.6125 126.79062Q41.1125 126.25937 40.284374 126.25937Q39.784374 126.25937 39.3625 126.493744Q38.95625 126.72812 38.721874 127.087494L37.7375 126.962494L38.565624 122.556244L42.846874 122.556244L42.846874 123.556244L39.409374 123.556244L38.95625 125.868744Q39.721874 125.32187 40.565624 125.32187Q41.690624 125.32187 42.45625 126.10312Q43.2375 126.88437 43.2375 128.11874Q43.2375 129.275 42.565624 130.13437Q41.7375 131.16562 40.315624 131.16562Q39.14375 131.16562 38.39375 130.50937Q37.659374 129.85312 37.55 128.775ZM44.753124 124.493744Q44.753124 123.57187 45.20625 122.931244Q45.675 122.29062 46.55 122.29062Q47.3625 122.29062 47.89375 122.868744Q48.425 123.44687 48.425 124.556244Q48.425 125.649994 47.878124 126.243744Q47.346874 126.82187 46.565624 126.82187Q45.784374 126.82187 45.26875 126.243744Q44.753124 125.66562 44.753124 124.493744ZM46.58125 123.00937Q46.190624 123.00937 45.925 123.35312Q45.675 123.69687 45.675 124.60312Q45.675 125.431244 45.925 125.774994Q46.190624 126.10312 46.58125 126.10312Q46.9875 126.10312 47.2375 125.75937Q47.503124 125.41562 47.503124 124.524994Q47.503124 123.681244 47.2375 123.35312Q46.971874 123.00937 46.58125 123.00937ZM46.58125 131.3375L51.284374 122.29062L52.14375 122.29062L47.45625 131.3375L46.58125 131.3375ZM50.3 129.00937Q50.3 128.0875 50.753124 127.44687Q51.221874 126.806244 52.1125 126.806244Q52.925 126.806244 53.45625 127.38437Q53.9875 127.94687 53.9875 129.07187Q53.9875 130.16562 53.440624 130.75937Q52.909374 131.3375 52.1125 131.3375Q51.346874 131.3375 50.815624 130.75937Q50.3 130.18124 50.3 129.00937ZM52.14375 127.524994Q51.7375 127.524994 51.471874 127.868744Q51.221874 128.2125 51.221874 129.11874Q51.221874 129.93124 51.4875 130.275Q51.753124 130.61874 52.14375 130.61874Q52.534374 130.61874 52.8 130.275Q53.065624 129.93124 53.065624 129.025Q53.065624 128.19687 52.8 127.868744Q52.534374 127.524994 52.14375 127.524994Z" fill-rule="nonzero"/><path fill="#000000" d="M27.51875 34.05L26.471874 34.05L26.471874 27.33125Q26.08125 27.690624 25.45625 28.065624Q24.846874 28.425 24.3625 28.596874L24.3625 27.58125Q25.2375 27.159374 25.89375 26.58125Q26.565624 25.9875 26.846874 25.425L27.51875 25.425L27.51875 34.05ZM30.55 29.815624Q30.55 28.284374 30.8625 27.3625Q31.175 26.425 31.784374 25.925Q32.409374 25.425 33.346874 25.425Q34.034374 25.425 34.55 25.70625Q35.08125 25.9875 35.425 26.51875Q35.76875 27.034374 35.95625 27.784374Q36.14375 28.534374 36.14375 29.815624Q36.14375 31.33125 35.83125 32.253124Q35.534374 33.175 34.909374 33.690624Q34.3 34.190624 33.346874 34.190624Q32.1125 34.190624 31.39375 33.3Q30.55 32.2375 30.55 29.815624ZM31.628124 29.815624Q31.628124 31.925 32.128124 32.628124Q32.628124 33.33125 33.346874 33.33125Q34.08125 33.33125 34.565624 32.628124Q35.065624 31.925 35.065624 29.815624Q35.065624 27.690624 34.565624 27.003124Q34.08125 26.3 33.33125 26.3Q32.6125 26.3 32.175 26.909374Q31.628124 27.690624 31.628124 29.815624ZM37.55 29.815624Q37.55 28.284374 37.8625 27.3625Q38.175 26.425 38.784374 25.925Q39.409374 25.425 40.346874 25.425Q41.034374 25.425 41.55 25.70625Q42.08125 25.9875 42.425 26.51875Q42.76875 27.034374 42.95625 27.784374Q43.14375 28.534374 43.14375 29.815624Q43.14375 31.33125 42.83125 32.253124Q42.534374 33.175 41.909374 33.690624Q41.3 34.190624 40.346874 34.190624Q39.1125 34.190624 38.39375 33.3Q37.55 32.2375 37.55 29.815624ZM38.628124 29.815624Q38.628124 31.925 39.128124 32.628124Q39.628124 33.33125 40.346874 33.33125Q41.08125 33.33125 41.565624 32.628124Q42.065624 31.925 42.065624 29.815624Q42.065624 27.690624 41.565624 27.003124Q41.08125 26.3 40.33125 26.3Q39.6125 26.3 39.175 26.909374Q38.628124 27.690624 38.628124 29.815624ZM44.753124 27.51875Q44.753124 26.596874 45.20625 25.95625Q45.675 25.315624 46.55 25.315624Q47.3625 25.315624 47.89375 25.89375Q48.425 26.471874 48.425 27.58125Q48.425 28.675 47.878124 29.26875Q47.346874 29.846874 46.565624 29.846874Q45.784374 29.846874 45.26875 29.26875Q44.753124 28.690624 44.753124 27.51875ZM46.58125 26.034374Q46.190624 26.034374 45.925 26.378124Q45.675 26.721874 45.675 27.628124Q45.675 28.45625 45.925 28.8Q46.190624 29.128124 46.58125 29.128124Q46.9875 29.128124 47.2375 28.784374Q47.503124 28.440624 47.503124 27.55Q47.503124 26.70625 47.2375 26.378124Q46.971874 26.034374 46.58125 26.034374ZM46.58125 34.3625L51.284374 25.315624L52.14375 25.315624L47.45625 34.3625L46.58125 34.3625ZM50.3 32.034374Q50.3 31.1125 50.753124 30.471874Q51.221874 29.83125 52.1125 29.83125Q52.925 29.83125 53.45625 30.409374Q53.9875 30.971874 53.9875 32.096874Q53.9875 33.190624 53.440624 33.784374Q52.909374 34.3625 52.1125 34.3625Q51.346874 34.3625 50.815624 33.784374Q50.3 33.20625 50.3 32.034374ZM52.14375 30.55Q51.7375 30.55 51.471874 30.89375Q51.221874 31.2375 51.221874 32.14375Q51.221874 32.95625 51.4875 33.3Q51.753124 33.64375 52.14375 33.64375Q52.534374 33.64375 52.8 33.3Q53.065624 32.95625 53.065624 32.05Q53.065624 31.221874 52.8 30.89375Q52.534374 30.55 52.14375 30.55Z" fill-rule="nonzero"/><path fill="#000000" d="M125.74185 432.5125L126.7731 432.3719Q126.80435 433.35626 127.13248 433.71564Q127.4606 434.075 128.05435 434.075Q128.47623 434.075 128.78873 433.8875Q129.10123 433.6844 129.2106 433.35626Q129.3356 433.0125 129.3356 432.27814L129.3356 426.35626L130.4606 426.35626L130.4606 432.21564Q130.4606 433.29376 130.19498 433.8875Q129.94498 434.48126 129.38248 434.79376Q128.81998 435.09064 128.05435 435.09064Q126.92935 435.09064 126.31998 434.45Q125.72623 433.79376 125.74185 432.5125ZM136.2731 434.95L136.2731 434.02814Q135.53873 435.09064 134.28873 435.09064Q133.74185 435.09064 133.25748 434.8875Q132.78873 434.66876 132.55435 434.35626Q132.31998 434.02814 132.22623 433.5594Q132.16373 433.2625 132.16373 432.575L132.16373 428.73126L133.22623 428.73126L133.22623 432.1844Q133.22623 432.9969 133.28873 433.29376Q133.38248 433.7 133.69498 433.95Q134.0231 434.1844 134.50748 434.1844Q134.97623 434.1844 135.38248 433.95Q135.80435 433.7 135.97623 433.27814Q136.16373 432.85626 136.16373 432.0594L136.16373 428.73126L137.2106 428.73126L137.2106 434.95L136.2731 434.95ZM139.16373 434.95L139.16373 426.35626L140.22623 426.35626L140.22623 434.95L139.16373 434.95ZM142.1481 437.34064L142.0231 436.35626Q142.36685 436.45 142.63248 436.45Q142.97623 436.45 143.17935 436.325Q143.3981 436.21564 143.53873 436.0125Q143.63248 435.84064 143.86685 435.21564Q143.88248 435.1375 143.9606 434.96564L141.5856 428.73126L142.72623 428.73126L144.0231 432.325Q144.2731 433.0125 144.47623 433.77814Q144.66373 433.04376 144.91373 432.35626L146.24185 428.73126L147.28873 428.73126L144.92935 435.0594Q144.53873 436.075 144.3356 436.46564Q144.05435 436.9969 143.67935 437.23126Q143.31998 437.48126 142.81998 437.48126Q142.5231 437.48126 142.1481 437.34064ZM147.4606 434.95L147.4606 433.7469L148.66373 433.7469L148.66373 434.95Q148.66373 435.60626 148.42935 436.0125Q148.19498 436.4344 147.69498 436.65314L147.3981 436.2Q147.72623 436.0594 147.88248 435.7625Q148.03873 435.48126 148.06998 434.95L147.4606 434.95ZM158.44498 433.9344L158.44498 434.95L152.75748 434.95Q152.75748 434.575 152.88248 434.21564Q153.10123 433.6375 153.56998 433.075Q154.05435 432.5125 154.9606 431.77814Q156.36685 430.6219 156.85123 429.95Q157.35123 429.27814 157.35123 428.6844Q157.35123 428.0594 156.8981 427.6375Q156.44498 427.2 155.72623 427.2Q154.9606 427.2 154.50748 427.65314Q154.05435 428.10626 154.03873 428.91876L152.9606 428.8094Q153.06998 427.59064 153.78873 426.96564Q154.5231 426.325 155.75748 426.325Q156.99185 426.325 157.7106 427.0125Q158.42935 427.7 158.42935 428.71564Q158.42935 429.23126 158.2106 429.73126Q158.00748 430.21564 157.50748 430.77814Q157.0231 431.325 155.8981 432.27814Q154.94498 433.075 154.66373 433.3719Q154.3981 433.65314 154.22623 433.9344L158.44498 433.9344ZM159.8981 430.71564Q159.8981 429.1844 160.2106 428.2625Q160.5231 427.325 161.13248 426.825Q161.75748 426.325 162.69498 426.325Q163.38248 426.325 163.8981 426.60626Q164.42935 426.8875 164.7731 427.41876Q165.11685 427.9344 165.30435 428.6844Q165.49185 429.4344 165.49185 430.71564Q165.49185 432.23126 165.17935 433.15314Q164.88248 434.075 164.25748 434.59064Q163.6481 435.09064 162.69498 435.09064Q161.4606 435.09064 160.74185 434.2Q159.8981 433.1375 159.8981 430.71564ZM160.97623 430.71564Q160.97623 432.825 161.47623 433.52814Q161.97623 434.23126 162.69498 434.23126Q163.42935 434.23126 163.91373 433.52814Q164.41373 432.825 164.41373 430.71564Q164.41373 428.59064 163.91373 427.90314Q163.42935 427.2 162.67935 427.2Q161.9606 427.2 161.5231 427.8094Q160.97623 428.59064 160.97623 430.71564ZM172.44498 433.9344L172.44498 434.95L166.75748 434.95Q166.75748 434.575 166.88248 434.21564Q167.10123 433.6375 167.56998 433.075Q168.05435 432.5125 168.9606 431.77814Q170.36685 430.6219 170.85123 429.95Q171.35123 429.27814 171.35123 428.6844Q171.35123 428.0594 170.8981 427.6375Q170.44498 427.2 169.72623 427.2Q168.9606 427.2 168.50748 427.65314Q168.05435 428.10626 168.03873 428.91876L166.9606 428.8094Q167.06998 427.59064 167.78873 426.96564Q168.5231 426.325 169.75748 426.325Q170.99185 426.325 171.7106 427.0125Q172.42935 427.7 172.42935 428.71564Q172.42935 429.23126 172.2106 429.73126Q172.00748 430.21564 171.50748 430.77814Q171.0231 431.325 169.8981 432.27814Q168.94498 433.075 168.66373 433.3719Q168.3981 433.65314 168.22623 433.9344L172.44498 433.9344ZM179.44498 433.9344L179.44498 434.95L173.75748 434.95Q173.75748 434.575 173.88248 434.21564Q174.10123 433.6375 174.56998 433.075Q175.05435 432.5125 175.9606 431.77814Q177.36685 430.6219 177.85123 429.95Q178.35123 429.27814 178.35123 428.6844Q178.35123 428.0594 177.8981 427.6375Q177.44498 427.2 176.72623 427.2Q175.9606 427.2 175.50748 427.65314Q175.05435 428.10626 175.03873 428.91876L173.9606 428.8094Q174.06998 427.59064 174.78873 426.96564Q175.5231 426.325 176.75748 426.325Q177.99185 426.325 178.7106 427.0125Q179.42935 427.7 179.42935 428.71564Q179.42935 429.23126 179.2106 429.73126Q179.00748 430.21564 178.50748 430.77814Q178.0231 431.325 176.8981 432.27814Q175.94498 433.075 175.66373 433.3719Q175.3981 433.65314 175.22623 433.9344L179.44498 433.9344Z" fill-rule="nonzero"/><path fill="#000000" d="M250.81311 432.5125L251.84436 432.3719Q251.87561 433.35626 252.20374 433.71564Q252.53186 434.075 253.12561 434.075Q253.54749 434.075 253.85999 433.8875Q254.17249 433.6844 254.28186 433.35626Q254.40686 433.0125 254.40686 432.27814L254.40686 426.35626L255.53186 426.35626L255.53186 432.21564Q255.53186 433.29376 255.26624 433.8875Q255.01624 434.48126 254.45374 434.79376Q253.89124 435.09064 253.12561 435.09064Q252.00061 435.09064 251.39124 434.45Q250.79749 433.79376 250.81311 432.5125ZM261.32874 434.1844Q260.735 434.6844 260.1881 434.8875Q259.65686 435.09064 259.03186 435.09064Q258.0006 435.09064 257.45374 434.59064Q256.90686 434.09064 256.90686 433.3094Q256.90686 432.85626 257.11 432.48126Q257.3131 432.09064 257.65686 431.8719Q258.0006 431.6375 258.4225 431.52814Q258.71936 431.4344 259.36 431.35626Q260.6256 431.21564 261.235 430.9969Q261.235 430.77814 261.235 430.73126Q261.235 430.075 260.9381 429.8094Q260.53186 429.46564 259.735 429.46564Q259.0006 429.46564 258.64124 429.73126Q258.28186 429.98126 258.11 430.6375L257.07874 430.4969Q257.21936 429.84064 257.5475 429.4344Q257.8756 429.02814 258.485 428.8094Q259.09436 428.59064 259.89124 428.59064Q260.6881 428.59064 261.1881 428.77814Q261.6881 428.96564 261.9225 429.2469Q262.15686 429.52814 262.2506 429.96564Q262.2975 430.23126 262.2975 430.9344L262.2975 432.34064Q262.2975 433.8094 262.36 434.2Q262.4381 434.59064 262.64124 434.95L261.53186 434.95Q261.3756 434.6219 261.32874 434.1844ZM261.235 431.825Q260.65686 432.0594 259.51624 432.23126Q258.86 432.325 258.59436 432.45Q258.32874 432.5594 258.1725 432.77814Q258.03186 432.9969 258.03186 433.27814Q258.03186 433.7 258.34436 433.98126Q258.6725 434.2625 259.28186 434.2625Q259.89124 434.2625 260.36 433.9969Q260.84436 433.73126 261.0631 433.2625Q261.235 432.90314 261.235 432.21564L261.235 431.825ZM264.26624 434.95L264.26624 428.73126L265.20374 428.73126L265.20374 429.60626Q265.89124 428.59064 267.1881 428.59064Q267.7506 428.59064 268.21936 428.79376Q268.70374 428.9969 268.9381 429.325Q269.1725 429.65314 269.26624 430.09064Q269.3131 430.3875 269.3131 431.1219L269.3131 434.95L268.26624 434.95L268.26624 431.16876Q268.26624 430.5125 268.14124 430.2Q268.01624 429.8875 267.70374 429.7Q267.39124 429.4969 266.96936 429.4969Q266.2975 429.4969 265.7975 429.9344Q265.3131 430.35626 265.3131 431.54376L265.3131 434.95L264.26624 434.95ZM275.34436 434.95L275.34436 434.02814Q274.61 435.09064 273.36 435.09064Q272.8131 435.09064 272.32874 434.8875Q271.86 434.66876 271.6256 434.35626Q271.39124 434.02814 271.2975 433.5594Q271.235 433.2625 271.235 432.575L271.235 428.73126L272.2975 428.73126L272.2975 432.1844Q272.2975 432.9969 272.36 433.29376Q272.45374 433.7 272.76624 433.95Q273.09436 434.1844 273.57874 434.1844Q274.0475 434.1844 274.45374 433.95Q274.8756 433.7 275.0475 433.27814Q275.235 432.85626 275.235 432.0594L275.235 428.73126L276.28186 428.73126L276.28186 434.95L275.34436 434.95ZM282.32874 434.1844Q281.735 434.6844 281.1881 434.8875Q280.65686 435.09064 280.03186 435.09064Q279.0006 435.09064 278.45374 434.59064Q277.90686 434.09064 277.90686 433.3094Q277.90686 432.85626 278.11 432.48126Q278.3131 432.09064 278.65686 431.8719Q279.0006 431.6375 279.4225 431.52814Q279.71936 431.4344 280.36 431.35626Q281.6256 431.21564 282.235 430.9969Q282.235 430.77814 282.235 430.73126Q282.235 430.075 281.9381 429.8094Q281.53186 429.46564 280.735 429.46564Q280.0006 429.46564 279.64124 429.73126Q279.28186 429.98126 279.11 430.6375L278.07874 430.4969Q278.21936 429.84064 278.5475 429.4344Q278.8756 429.02814 279.485 428.8094Q280.09436 428.59064 280.89124 428.59064Q281.6881 428.59064 282.1881 428.77814Q282.6881 428.96564 282.9225 429.2469Q283.15686 429.52814 283.2506 429.96564Q283.2975 430.23126 283.2975 430.9344L283.2975 432.34064Q283.2975 433.8094 283.36 434.2Q283.4381 434.59064 283.64124 434.95L282.53186 434.95Q282.3756 434.6219 282.32874 434.1844ZM282.235 431.825Q281.65686 432.0594 280.51624 432.23126Q279.86 432.325 279.59436 432.45Q279.32874 432.5594 279.1725 432.77814Q279.03186 432.9969 279.03186 433.27814Q279.03186 433.7 279.34436 433.98126Q279.6725 434.2625 280.28186 434.2625Q280.89124 434.2625 281.36 433.9969Q281.84436 433.73126 282.0631 433.2625Q282.235 432.90314 282.235 432.21564L282.235 431.825ZM285.2506 434.95L285.2506 428.73126L286.20374 428.73126L286.20374 429.66876Q286.5631 429.0125 286.86 428.8094Q287.1725 428.59064 287.5475 428.59064Q288.07874 428.59064 288.6256 428.91876L288.26624 429.90314Q287.8756 429.66876 287.5006 429.66876Q287.14124 429.66876 286.86 429.8875Q286.59436 430.09064 286.485 430.46564Q286.2975 431.02814 286.2975 431.6844L286.2975 434.95L285.2506 434.95ZM289.21936 437.34064L289.09436 436.35626Q289.4381 436.45 289.70374 436.45Q290.0475 436.45 290.2506 436.325Q290.46936 436.21564 290.61 436.0125Q290.70374 435.84064 290.9381 435.21564Q290.95374 435.1375 291.03186 434.96564L288.65686 428.73126L289.7975 428.73126L291.09436 432.325Q291.34436 433.0125 291.5475 433.77814Q291.735 433.04376 291.985 432.35626L293.3131 428.73126L294.36 428.73126L292.0006 435.0594Q291.61 436.075 291.40686 436.46564Q291.1256 436.9969 290.7506 437.23126Q290.39124 437.48126 289.89124 437.48126Q289.59436 437.48126 289.21936 437.34064ZM294.53186 434.95L294.53186 433.7469L295.735 433.7469L295.735 434.95Q295.735 435.60626 295.5006 436.0125Q295.26624 436.4344 294.76624 436.65314L294.46936 436.2Q294.7975 436.0594 294.95374 435.7625Q295.11 435.48126 295.14124 434.95L294.53186 434.95ZM305.51624 433.9344L305.51624 434.95L299.82874 434.95Q299.82874 434.575 299.95374 434.21564Q300.1725 433.6375 300.64124 433.075Q301.1256 432.5125 302.03186 431.77814Q303.4381 430.6219 303.9225 429.95Q304.4225 429.27814 304.4225 428.6844Q304.4225 428.0594 303.96936 427.6375Q303.51624 427.2 302.7975 427.2Q302.03186 427.2 301.57874 427.65314Q301.1256 428.10626 301.11 428.91876L300.03186 428.8094Q300.14124 427.59064 300.86 426.96564Q301.59436 426.325 302.82874 426.325Q304.0631 426.325 304.78186 427.0125Q305.5006 427.7 305.5006 428.71564Q305.5006 429.23126 305.28186 429.73126Q305.07874 430.21564 304.57874 430.77814Q304.09436 431.325 302.96936 432.27814Q302.01624 433.075 301.735 433.3719Q301.46936 433.65314 301.2975 433.9344L305.51624 433.9344ZM306.96936 430.71564Q306.96936 429.1844 307.28186 428.2625Q307.59436 427.325 308.20374 426.825Q308.82874 426.325 309.76624 426.325Q310.45374 426.325 310.96936 426.60626Q311.5006 426.8875 311.84436 427.41876Q312.1881 427.9344 312.3756 428.6844Q312.5631 429.4344 312.5631 430.71564Q312.5631 432.23126 312.2506 433.15314Q311.95374 434.075 311.32874 434.59064Q310.71936 435.09064 309.76624 435.09064Q308.53186 435.09064 307.8131 434.2Q306.96936 433.1375 306.96936 430.71564ZM308.0475 430.71564Q308.0475 432.825 308.5475 433.52814Q309.0475 434.23126 309.76624 434.23126Q310.5006 434.23126 310.985 433.52814Q311.485 432.825 311.485 430.71564Q311.485 428.59064 310.985 427.90314Q310.5006 427.2 309.7506 427.2Q309.03186 427.2 308.59436 427.8094Q308.0475 428.59064 308.0475 430.71564ZM319.51624 433.9344L319.51624 434.95L313.82874 434.95Q313.82874 434.575 313.95374 434.21564Q314.1725 433.6375 314.64124 433.075Q315.1256 432.5125 316.03186 431.77814Q317.4381 430.6219 317.9225 429.95Q318.4225 429.27814 318.4225 428.6844Q318.4225 428.0594 317.96936 427.6375Q317.51624 427.2 316.7975 427.2Q316.03186 427.2 315.57874 427.65314Q315.1256 428.10626 315.11 428.91876L314.03186 428.8094Q314.14124 427.59064 314.86 426.96564Q315.59436 426.325 316.82874 426.325Q318.0631 426.325 318.78186 427.0125Q319.5006 427.7 319.5006 428.71564Q319.5006 429.23126 319.28186 429.73126Q319.07874 430.21564 318.57874 430.77814Q318.09436 431.325 316.96936 432.27814Q316.01624 433.075 315.735 433.3719Q315.46936 433.65314 315.2975 433.9344L319.51624 433.9344ZM320.96936 432.6844L322.03186 432.54376Q322.20374 433.4344 322.64124 433.84064Q323.07874 434.23126 323.70374 434.23126Q324.45374 434.23126 324.96936 433.71564Q325.485 433.2 325.485 432.4344Q325.485 431.71564 325.0006 431.2469Q324.53186 430.7625 323.7975 430.7625Q323.5006 430.7625 323.0475 430.8875L323.1725 429.95Q323.28186 429.96564 323.34436 429.96564Q324.01624 429.96564 324.5475 429.6219Q325.09436 429.2625 325.09436 428.52814Q325.09436 427.95 324.70374 427.575Q324.3131 427.1844 323.6881 427.1844Q323.07874 427.1844 322.65686 427.575Q322.2506 427.96564 322.14124 428.73126L321.07874 428.54376Q321.26624 427.4969 321.95374 426.91876Q322.64124 426.325 323.65686 426.325Q324.36 426.325 324.95374 426.6375Q325.5475 426.9344 325.86 427.45Q326.1725 427.96564 326.1725 428.5594Q326.1725 429.10626 325.8756 429.575Q325.57874 430.02814 325.0006 430.29376Q325.7506 430.46564 326.1725 431.02814Q326.59436 431.575 326.59436 432.41876Q326.59436 433.54376 325.76624 434.325Q324.95374 435.10626 323.70374 435.10626Q322.57874 435.10626 321.82874 434.4344Q321.07874 433.7469 320.96936 432.6844Z" fill-rule="nonzero"/><path fill="#000000" d="M397.88437 432.5125L398.91562 432.3719Q398.94687 433.35626 399.275 433.71564Q399.60312 434.075 400.19687 434.075Q400.61874 434.075 400.93124 433.8875Q401.24374 433.6844 401.35312 433.35626Q401.47812 433.0125 401.47812 432.27814L401.47812 426.35626L402.60312 426.35626L402.60312 432.21564Q402.60312 433.29376 402.3375 433.8875Q402.0875 434.48126 401.525 434.79376Q400.9625 435.09064 400.19687 435.09064Q399.07187 435.09064 398.4625 434.45Q397.86874 433.79376 397.88437 432.5125ZM408.41562 434.95L408.41562 434.02814Q407.68124 435.09064 406.43124 435.09064Q405.88437 435.09064 405.4 434.8875Q404.93124 434.66876 404.69687 434.35626Q404.4625 434.02814 404.36874 433.5594Q404.30624 433.2625 404.30624 432.575L404.30624 428.73126L405.36874 428.73126L405.36874 432.1844Q405.36874 432.9969 405.43124 433.29376Q405.525 433.7 405.8375 433.95Q406.16562 434.1844 406.65 434.1844Q407.11874 434.1844 407.525 433.95Q407.94687 433.7 408.11874 433.27814Q408.30624 432.85626 408.30624 432.0594L408.30624 428.73126L409.35312 428.73126L409.35312 434.95L408.41562 434.95ZM411.30624 434.95L411.30624 426.35626L412.36874 426.35626L412.36874 434.95L411.30624 434.95ZM414.29062 437.34064L414.16562 436.35626Q414.50937 436.45 414.775 436.45Q415.11874 436.45 415.32187 436.325Q415.54062 436.21564 415.68124 436.0125Q415.775 435.84064 416.00937 435.21564Q416.025 435.1375 416.10312 434.96564L413.72812 428.73126L414.86874 428.73126L416.16562 432.325Q416.41562 433.0125 416.61874 433.77814Q416.80624 433.04376 417.05624 432.35626L418.38437 428.73126L419.43124 428.73126L417.07187 435.0594Q416.68124 436.075 416.47812 436.46564Q416.19687 436.9969 415.82187 437.23126Q415.4625 437.48126 414.9625 437.48126Q414.66562 437.48126 414.29062 437.34064ZM419.60312 434.95L419.60312 433.7469L420.80624 433.7469L420.80624 434.95Q420.80624 435.60626 420.57187 436.0125Q420.3375 436.4344 419.8375 436.65314L419.54062 436.2Q419.86874 436.0594 420.025 435.7625Q420.18124 435.48126 420.2125 434.95L419.60312 434.95ZM430.5875 433.9344L430.5875 434.95L424.9 434.95Q424.9 434.575 425.025 434.21564Q425.24374 433.6375 425.7125 433.075Q426.19687 432.5125 427.10312 431.77814Q428.50937 430.6219 428.99374 429.95Q429.49374 429.27814 429.49374 428.6844Q429.49374 428.0594 429.04062 427.6375Q428.5875 427.2 427.86874 427.2Q427.10312 427.2 426.65 427.65314Q426.19687 428.10626 426.18124 428.91876L425.10312 428.8094Q425.2125 427.59064 425.93124 426.96564Q426.66562 426.325 427.9 426.325Q429.13437 426.325 429.85312 427.0125Q430.57187 427.7 430.57187 428.71564Q430.57187 429.23126 430.35312 429.73126Q430.15 430.21564 429.65 430.77814Q429.16562 431.325 428.04062 432.27814Q427.0875 433.075 426.80624 433.3719Q426.54062 433.65314 426.36874 433.9344L430.5875 433.9344ZM432.04062 430.71564Q432.04062 429.1844 432.35312 428.2625Q432.66562 427.325 433.275 426.825Q433.9 426.325 434.8375 426.325Q435.525 426.325 436.04062 426.60626Q436.57187 426.8875 436.91562 427.41876Q437.25937 427.9344 437.44687 428.6844Q437.63437 429.4344 437.63437 430.71564Q437.63437 432.23126 437.32187 433.15314Q437.025 434.075 436.4 434.59064Q435.79062 435.09064 434.8375 435.09064Q433.60312 435.09064 432.88437 434.2Q432.04062 433.1375 432.04062 430.71564ZM433.11874 430.71564Q433.11874 432.825 433.61874 433.52814Q434.11874 434.23126 434.8375 434.23126Q435.57187 434.23126 436.05624 433.52814Q436.55624 432.825 436.55624 430.71564Q436.55624 428.59064 436.05624 427.90314Q435.57187 427.2 434.82187 427.2Q434.10312 427.2 433.66562 427.8094Q433.11874 428.59064 433.11874 430.71564ZM444.5875 433.9344L444.5875 434.95L438.9 434.95Q438.9 434.575 439.025 434.21564Q439.24374 433.6375 439.7125 433.075Q440.19687 432.5125 441.10312 431.77814Q442.50937 430.6219 442.99374 429.95Q443.49374 429.27814 443.49374 428.6844Q443.49374 428.0594 443.04062 427.6375Q442.5875 427.2 441.86874 427.2Q441.10312 427.2 440.65 427.65314Q440.19687 428.10626 440.18124 428.91876L439.10312 428.8094Q439.2125 427.59064 439.93124 426.96564Q440.66562 426.325 441.9 426.325Q443.13437 426.325 443.85312 427.0125Q444.57187 427.7 444.57187 428.71564Q444.57187 429.23126 444.35312 429.73126Q444.15 430.21564 443.65 430.77814Q443.16562 431.325 442.04062 432.27814Q441.0875 433.075 440.80624 433.3719Q440.54062 433.65314 440.36874 433.9344L444.5875 433.9344ZM446.04062 432.6844L447.10312 432.54376Q447.275 433.4344 447.7125 433.84064Q448.15 434.23126 448.775 434.23126Q449.525 434.23126 450.04062 433.71564Q450.55624 433.2 450.55624 432.4344Q450.55624 431.71564 450.07187 431.2469Q449.60312 430.7625 448.86874 430.7625Q448.57187 430.7625 448.11874 430.8875L448.24374 429.95Q448.35312 429.96564 448.41562 429.96564Q449.0875 429.96564 449.61874 429.6219Q450.16562 429.2625 450.16562 428.52814Q450.16562 427.95 449.775 427.575Q449.38437 427.1844 448.75937 427.1844Q448.15 427.1844 447.72812 427.575Q447.32187 427.96564 447.2125 428.73126L446.15 428.54376Q446.3375 427.4969 447.025 426.91876Q447.7125 426.325 448.72812 426.325Q449.43124 426.325 450.025 426.6375Q450.61874 426.9344 450.93124 427.45Q451.24374 427.96564 451.24374 428.5594Q451.24374 429.10626 450.94687 429.575Q450.65 430.02814 450.07187 430.29376Q450.82187 430.46564 451.24374 431.02814Q451.66562 431.575 451.66562 432.41876Q451.66562 433.54376 450.8375 434.325Q450.025 435.10626 448.775 435.10626Q447.65 435.10626 446.9 434.4344Q446.15 433.7469 446.04062 432.6844Z" fill-rule="nonzero"/><path fill="#000000" d="M522.9556 432.5125L523.9869 432.3719Q524.0181 433.35626 524.34625 433.71564Q524.6744 434.075 525.2681 434.075Q525.69 434.075 526.0025 433.8875Q526.315 433.6844 526.4244 433.35626Q526.5494 433.0125 526.5494 432.27814L526.5494 426.35626L527.6744 426.35626L527.6744 432.21564Q527.6744 433.29376 527.40875 433.8875Q527.15875 434.48126 526.59625 434.79376Q526.03375 435.09064 525.2681 435.09064Q524.1431 435.09064 523.53375 434.45Q522.94 433.79376 522.9556 432.5125ZM533.47125 434.1844Q532.8775 434.6844 532.3306 434.8875Q531.7994 435.09064 531.1744 435.09064Q530.1431 435.09064 529.59625 434.59064Q529.0494 434.09064 529.0494 433.3094Q529.0494 432.85626 529.2525 432.48126Q529.4556 432.09064 529.7994 431.8719Q530.1431 431.6375 530.565 431.52814Q530.8619 431.4344 531.5025 431.35626Q532.7681 431.21564 533.3775 430.9969Q533.3775 430.77814 533.3775 430.73126Q533.3775 430.075 533.0806 429.8094Q532.6744 429.46564 531.8775 429.46564Q531.1431 429.46564 530.78375 429.73126Q530.4244 429.98126 530.2525 430.6375L529.22125 430.4969Q529.3619 429.84064 529.69 429.4344Q530.0181 429.02814 530.6275 428.8094Q531.2369 428.59064 532.03375 428.59064Q532.8306 428.59064 533.3306 428.77814Q533.8306 428.96564 534.065 429.2469Q534.2994 429.52814 534.3931 429.96564Q534.44 430.23126 534.44 430.9344L534.44 432.34064Q534.44 433.8094 534.5025 434.2Q534.5806 434.59064 534.78375 434.95L533.6744 434.95Q533.5181 434.6219 533.47125 434.1844ZM533.3775 431.825Q532.7994 432.0594 531.65875 432.23126Q531.0025 432.325 530.7369 432.45Q530.47125 432.5594 530.315 432.77814Q530.1744 432.9969 530.1744 433.27814Q530.1744 433.7 530.4869 433.98126Q530.815 434.2625 531.4244 434.2625Q532.03375 434.2625 532.5025 433.9969Q532.9869 433.73126 533.2056 433.2625Q533.3775 432.90314 533.3775 432.21564L533.3775 431.825ZM536.40875 434.95L536.40875 428.73126L537.34625 428.73126L537.34625 429.60626Q538.03375 428.59064 539.3306 428.59064Q539.8931 428.59064 540.3619 428.79376Q540.84625 428.9969 541.0806 429.325Q541.315 429.65314 541.40875 430.09064Q541.4556 430.3875 541.4556 431.1219L541.4556 434.95L540.40875 434.95L540.40875 431.16876Q540.40875 430.5125 540.28375 430.2Q540.15875 429.8875 539.84625 429.7Q539.53375 429.4969 539.1119 429.4969Q538.44 429.4969 537.94 429.9344Q537.4556 430.35626 537.4556 431.54376L537.4556 434.95L536.40875 434.95ZM547.4869 434.95L547.4869 434.02814Q546.7525 435.09064 545.5025 435.09064Q544.9556 435.09064 544.47125 434.8875Q544.0025 434.66876 543.7681 434.35626Q543.53375 434.02814 543.44 433.5594Q543.3775 433.2625 543.3775 432.575L543.3775 428.73126L544.44 428.73126L544.44 432.1844Q544.44 432.9969 544.5025 433.29376Q544.59625 433.7 544.90875 433.95Q545.2369 434.1844 545.72125 434.1844Q546.19 434.1844 546.59625 433.95Q547.0181 433.7 547.19 433.27814Q547.3775 432.85626 547.3775 432.0594L547.3775 428.73126L548.4244 428.73126L548.4244 434.95L547.4869 434.95ZM554.47125 434.1844Q553.8775 434.6844 553.3306 434.8875Q552.7994 435.09064 552.1744 435.09064Q551.1431 435.09064 550.59625 434.59064Q550.0494 434.09064 550.0494 433.3094Q550.0494 432.85626 550.2525 432.48126Q550.4556 432.09064 550.7994 431.8719Q551.1431 431.6375 551.565 431.52814Q551.8619 431.4344 552.5025 431.35626Q553.7681 431.21564 554.3775 430.9969Q554.3775 430.77814 554.3775 430.73126Q554.3775 430.075 554.0806 429.8094Q553.6744 429.46564 552.8775 429.46564Q552.1431 429.46564 551.78375 429.73126Q551.4244 429.98126 551.2525 430.6375L550.22125 430.4969Q550.3619 429.84064 550.69 429.4344Q551.0181 429.02814 551.6275 428.8094Q552.2369 428.59064 553.03375 428.59064Q553.8306 428.59064 554.3306 428.77814Q554.8306 428.96564 555.065 429.2469Q555.2994 429.52814 555.3931 429.96564Q555.44 430.23126 555.44 430.9344L555.44 432.34064Q555.44 433.8094 555.5025 434.2Q555.5806 434.59064 555.78375 434.95L554.6744 434.95Q554.5181 434.6219 554.47125 434.1844ZM554.3775 431.825Q553.7994 432.0594 552.65875 432.23126Q552.0025 432.325 551.7369 432.45Q551.47125 432.5594 551.315 432.77814Q551.1744 432.9969 551.1744 433.27814Q551.1744 433.7 551.4869 433.98126Q551.815 434.2625 552.4244 434.2625Q553.03375 434.2625 553.5025 433.9969Q553.9869 433.73126 554.2056 433.2625Q554.3775 432.90314 554.3775 432.21564L554.3775 431.825ZM557.3931 434.95L557.3931 428.73126L558.34625 428.73126L558.34625 429.66876Q558.7056 429.0125 559.0025 428.8094Q559.315 428.59064 559.69 428.59064Q560.22125 428.59064 560.7681 428.91876L560.40875 429.90314Q560.0181 429.66876 559.6431 429.66876Q559.28375 429.66876 559.0025 429.8875Q558.7369 430.09064 558.6275 430.46564Q558.44 431.02814 558.44 431.6844L558.44 434.95L557.3931 434.95ZM561.3619 437.34064L561.2369 436.35626Q561.5806 436.45 561.84625 436.45Q562.19 436.45 562.3931 436.325Q562.6119 436.21564 562.7525 436.0125Q562.84625 435.84064 563.0806 435.21564Q563.09625 435.1375 563.1744 434.96564L560.7994 428.73126L561.94 428.73126L563.2369 432.325Q563.4869 433.0125 563.69 433.77814Q563.8775 433.04376 564.1275 432.35626L565.4556 428.73126L566.5025 428.73126L564.1431 435.0594Q563.7525 436.075 563.5494 436.46564Q563.2681 436.9969 562.8931 437.23126Q562.53375 437.48126 562.03375 437.48126Q561.7369 437.48126 561.3619 437.34064ZM566.6744 434.95L566.6744 433.7469L567.8775 433.7469L567.8775 434.95Q567.8775 435.60626 567.6431 436.0125Q567.40875 436.4344 566.90875 436.65314L566.6119 436.2Q566.94 436.0594 567.09625 435.7625Q567.2525 435.48126 567.28375 434.95L566.6744 434.95ZM577.65875 433.9344L577.65875 434.95L571.97125 434.95Q571.97125 434.575 572.09625 434.21564Q572.315 433.6375 572.78375 433.075Q573.2681 432.5125 574.1744 431.77814Q575.5806 430.6219 576.065 429.95Q576.565 429.27814 576.565 428.6844Q576.565 428.0594 576.1119 427.6375Q575.65875 427.2 574.94 427.2Q574.1744 427.2 573.72125 427.65314Q573.2681 428.10626 573.2525 428.91876L572.1744 428.8094Q572.28375 427.59064 573.0025 426.96564Q573.7369 426.325 574.97125 426.325Q576.2056 426.325 576.9244 427.0125Q577.6431 427.7 577.6431 428.71564Q577.6431 429.23126 577.4244 429.73126Q577.22125 430.21564 576.72125 430.77814Q576.2369 431.325 575.1119 432.27814Q574.15875 433.075 573.8775 433.3719Q573.6119 433.65314 573.44 433.9344L577.65875 433.9344ZM579.1119 430.71564Q579.1119 429.1844 579.4244 428.2625Q579.7369 427.325 580.34625 426.825Q580.97125 426.325 581.90875 426.325Q582.59625 426.325 583.1119 426.60626Q583.6431 426.8875 583.9869 427.41876Q584.3306 427.9344 584.5181 428.6844Q584.7056 429.4344 584.7056 430.71564Q584.7056 432.23126 584.3931 433.15314Q584.09625 434.075 583.47125 434.59064Q582.8619 435.09064 581.90875 435.09064Q580.6744 435.09064 579.9556 434.2Q579.1119 433.1375 579.1119 430.71564ZM580.19 430.71564Q580.19 432.825 580.69 433.52814Q581.19 434.23126 581.90875 434.23126Q582.6431 434.23126 583.1275 433.52814Q583.6275 432.825 583.6275 430.71564Q583.6275 428.59064 583.1275 427.90314Q582.6431 427.2 581.8931 427.2Q581.1744 427.2 580.7369 427.8094Q580.19 428.59064 580.19 430.71564ZM591.65875 433.9344L591.65875 434.95L585.97125 434.95Q585.97125 434.575 586.09625 434.21564Q586.315 433.6375 586.78375 433.075Q587.2681 432.5125 588.1744 431.77814Q589.5806 430.6219 590.065 429.95Q590.565 429.27814 590.565 428.6844Q590.565 428.0594 590.1119 427.6375Q589.65875 427.2 588.94 427.2Q588.1744 427.2 587.72125 427.65314Q587.2681 428.10626 587.2525 428.91876L586.1744 428.8094Q586.28375 427.59064 587.0025 426.96564Q587.7369 426.325 588.97125 426.325Q590.2056 426.325 590.9244 427.0125Q591.6431 427.7 591.6431 428.71564Q591.6431 429.23126 591.4244 429.73126Q591.22125 430.21564 590.72125 430.77814Q590.2369 431.325 589.1119 432.27814Q588.15875 433.075 587.8775 433.3719Q587.6119 433.65314 587.44 433.9344L591.65875 433.9344ZM596.4869 434.95L596.4869 432.8875L592.7681 432.8875L592.7681 431.91876L596.69 426.35626L597.5494 426.35626L597.5494 431.91876L598.7056 431.91876L598.7056 432.8875L597.5494 432.8875L597.5494 434.95L596.4869 434.95ZM596.4869 431.91876L596.4869 428.0594L593.7994 431.91876L596.4869 431.91876Z" fill-rule="nonzero"/><path fill="#9fc5e8" d="M680.62 25.05C680.62 24.497715 681.0677 24.05 681.62 24.05L691.62 24.05C692.1723 24.05 692.62 24.497715 692.62 25.05L692.62 35.05C692.62 35.602283 692.1723 36.05 691.62 36.05L681.62 36.05C681.0677 36.05 680.62 35.602283 680.62 35.05Z" fill-rule="nonzero"/><path fill="#1a1a1a" d="M701.1825 26.58125L701.1825 25.565624L706.745 25.565624L706.745 26.39375Q705.9325 27.26875 705.12 28.721874Q704.3231 30.159374 703.8856 31.690624Q703.5575 32.76875 703.4794 34.05L702.3856 34.05Q702.40125 33.034374 702.77625 31.596874Q703.1669 30.159374 703.87 28.83125Q704.58875 27.503124 705.40125 26.58125L701.1825 26.58125ZM708.71375 34.05L708.71375 32.846874L709.9169 32.846874L709.9169 34.05L708.71375 34.05ZM716.6669 33.034374L716.6669 34.05L710.9794 34.05Q710.9794 33.675 711.1044 33.315624Q711.3231 32.7375 711.7919 32.175Q712.27625 31.6125 713.1825 30.878124Q714.58875 29.721874 715.0731 29.05Q715.5731 28.378124 715.5731 27.784374Q715.5731 27.159374 715.12 26.7375Q714.6669 26.3 713.9481 26.3Q713.1825 26.3 712.7294 26.753124Q712.27625 27.20625 712.2606 28.01875L711.1825 27.909374Q711.2919 26.690624 712.0106 26.065624Q712.745 25.425 713.9794 25.425Q715.21375 25.425 715.9325 26.1125Q716.65125 26.8 716.65125 27.815624Q716.65125 28.33125 716.4325 28.83125Q716.2294 29.315624 715.7294 29.878124Q715.245 30.425 714.12 31.378124Q713.1669 32.175 712.8856 32.471874Q712.62 32.753124 712.4481 33.034374L716.6669 33.034374Z" fill-rule="nonzero"/><path fill="#6fa8dc" d="M680.62 49.05C680.62 48.497715 681.0677 48.05 681.62 48.05L691.62 48.05C692.1723 48.05 692.62 48.497715 692.62 49.05L692.62 59.05C692.62 59.602283 692.1723 60.05 691.62 60.05L681.62 60.05C681.0677 60.05 680.62 59.602283 680.62 59.05Z" fill-rule="nonzero"/><path fill="#1a1a1a" d="M701.1825 50.58125L701.1825 49.565624L706.745 49.565624L706.745 50.39375Q705.9325 51.26875 705.12 52.721874Q704.3231 54.159374 703.8856 55.690624Q703.5575 56.76875 703.4794 58.05L702.3856 58.05Q702.40125 57.034374 702.77625 55.596874Q703.1669 54.159374 703.87 52.83125Q704.58875 51.503124 705.40125 50.58125L701.1825 50.58125ZM708.71375 58.05L708.71375 56.846874L709.9169 56.846874L709.9169 58.05L708.71375 58.05ZM711.12 55.784374L712.1825 55.64375Q712.3544 56.534374 712.7919 56.940624Q713.2294 57.33125 713.8544 57.33125Q714.6044 57.33125 715.12 56.815624Q715.6356 56.3 715.6356 55.534374Q715.6356 54.815624 715.15125 54.346874Q714.6825 53.8625 713.9481 53.8625Q713.65125 53.8625 713.1981 53.9875L713.3231 53.05Q713.4325 53.065624 713.495 53.065624Q714.1669 53.065624 714.6981 52.721874Q715.245 52.3625 715.245 51.628124Q715.245 51.05 714.8544 50.675Q714.46375 50.284374 713.83875 50.284374Q713.2294 50.284374 712.8075 50.675Q712.40125 51.065624 712.2919 51.83125L711.2294 51.64375Q711.4169 50.596874 712.1044 50.01875Q712.7919 49.425 713.8075 49.425Q714.5106 49.425 715.1044 49.7375Q715.6981 50.034374 716.0106 50.55Q716.3231 51.065624 716.3231 51.659374Q716.3231 52.20625 716.02625 52.675Q715.7294 53.128124 715.15125 53.39375Q715.90125 53.565624 716.3231 54.128124Q716.745 54.675 716.745 55.51875Q716.745 56.64375 715.9169 57.425Q715.1044 58.20625 713.8544 58.20625Q712.7294 58.20625 711.9794 57.534374Q711.2294 56.846874 711.12 55.784374Z" fill-rule="nonzero"/><path fill="#3d85c6" d="M680.62 73.05C680.62 72.49772 681.0677 72.05 681.62 72.05L691.62 72.05C692.1723 72.05 692.62 72.49772 692.62 73.05L692.62 83.05C692.62 83.60229 692.1723 84.05 691.62 84.05L681.62 84.05C681.0677 84.05 680.62 83.60229 680.62 83.05Z" fill-rule="nonzero"/><path fill="#1a1a1a" d="M701.1825 74.58125L701.1825 73.56563L706.745 73.56563L706.745 74.39375Q705.9325 75.26875 705.12 76.72188Q704.3231 78.15938 703.8856 79.69063Q703.5575 80.76875 703.4794 82.05L702.3856 82.05Q702.40125 81.03438 702.77625 79.59688Q703.1669 78.15938 703.87 76.83125Q704.58875 75.50313 705.40125 74.58125L701.1825 74.58125ZM708.71375 82.05L708.71375 80.84688L709.9169 80.84688L709.9169 82.05L708.71375 82.05ZM714.495 82.05L714.495 79.9875L710.77625 79.9875L710.77625 79.01875L714.6981 73.45625L715.5575 73.45625L715.5575 79.01875L716.71375 79.01875L716.71375 79.9875L715.5575 79.9875L715.5575 82.05L714.495 82.05ZM714.495 79.01875L714.495 75.15938L711.8075 79.01875L714.495 79.01875Z" fill-rule="nonzero"/><path fill="#b6d7a8" d="M680.62 97.05C680.62 96.49772 681.0677 96.05 681.62 96.05L691.62 96.05C692.1723 96.05 692.62 96.49772 692.62 97.05L692.62 107.05C692.62 107.60229 692.1723 108.05 691.62 108.05L681.62 108.05C681.0677 108.05 680.62 107.60229 680.62 107.05Z" fill-rule="nonzero"/><path fill="#1a1a1a" d="M702.745 101.39375Q702.08875 101.14375 701.7606 100.70625Q701.4481 100.25313 701.4481 99.64375Q701.4481 98.70625 702.12 98.06563Q702.8075 97.425 703.9169 97.425Q705.0419 97.425 705.7294 98.08125Q706.4169 98.7375 706.4169 99.675Q706.4169 100.26875 706.1044 100.70625Q705.7919 101.14375 705.15125 101.39375Q705.9481 101.64375 706.3544 102.22188Q706.7606 102.8 706.7606 103.59688Q706.7606 104.69063 705.9794 105.44063Q705.21375 106.19063 703.9325 106.19063Q702.6669 106.19063 701.8856 105.44063Q701.1044 104.69063 701.1044 103.56563Q701.1044 102.72188 701.52625 102.15938Q701.96375 101.59688 702.745 101.39375ZM702.52625 99.59688Q702.52625 100.20625 702.9169 100.59688Q703.3231 100.9875 703.9481 100.9875Q704.5575 100.9875 704.9481 100.6125Q705.33875 100.22188 705.33875 99.65938Q705.33875 99.08125 704.9325 98.69063Q704.52625 98.28438 703.9325 98.28438Q703.3231 98.28438 702.9169 98.675Q702.52625 99.06563 702.52625 99.59688ZM702.1981 103.56563Q702.1981 104.01875 702.40125 104.44063Q702.62 104.8625 703.0419 105.09688Q703.46375 105.33125 703.9481 105.33125Q704.6981 105.33125 705.1825 104.84688Q705.6825 104.3625 705.6825 103.6125Q705.6825 102.84688 705.1825 102.34688Q704.6825 101.84688 703.9169 101.84688Q703.1669 101.84688 702.6825 102.34688Q702.1981 102.83125 702.1981 103.56563ZM708.71375 106.05L708.71375 104.84688L709.9169 104.84688L709.9169 106.05L708.71375 106.05ZM711.12 101.81563Q711.12 100.28438 711.4325 99.3625Q711.745 98.425 712.3544 97.925Q712.9794 97.425 713.9169 97.425Q714.6044 97.425 715.12 97.70625Q715.65125 97.9875 715.995 98.51875Q716.33875 99.03438 716.52625 99.78438Q716.71375 100.53438 716.71375 101.81563Q716.71375 103.33125 716.40125 104.25313Q716.1044 105.175 715.4794 105.69063Q714.87 106.19063 713.9169 106.19063Q712.6825 106.19063 711.96375 105.3Q711.12 104.2375 711.12 101.81563ZM712.1981 101.81563Q712.1981 103.925 712.6981 104.62813Q713.1981 105.33125 713.9169 105.33125Q714.65125 105.33125 715.1356 104.62813Q715.6356 103.925 715.6356 101.81563Q715.6356 99.69063 715.1356 99.00313Q714.65125 98.3 713.90125 98.3Q713.1825 98.3 712.745 98.90938Q712.1981 99.69063 712.1981 101.81563Z" fill-rule="nonzero"/><path fill="#93c47d" d="M680.62 121.05C680.62 120.49772 681.0677 120.05 681.62 120.05L691.62 120.05C692.1723 120.05 692.62 120.49772 692.62 121.05L692.62 131.05C692.62 131.60228 692.1723 132.05 691.62 132.05L681.62 132.05C681.0677 132.05 680.62 131.60228 680.62 131.05Z" fill-rule="nonzero"/><path fill="#1a1a1a" d="M702.745 125.39375Q702.08875 125.14375 701.7606 124.70625Q701.4481 124.25313 701.4481 123.64375Q701.4481 122.70625 702.12 122.06563Q702.8075 121.425 703.9169 121.425Q705.0419 121.425 705.7294 122.08125Q706.4169 122.7375 706.4169 123.675Q706.4169 124.26875 706.1044 124.70625Q705.7919 125.14375 705.15125 125.39375Q705.9481 125.64375 706.3544 126.22188Q706.7606 126.8 706.7606 127.59688Q706.7606 128.69063 705.9794 129.44063Q705.21375 130.19063 703.9325 130.19063Q702.6669 130.19063 701.8856 129.44063Q701.1044 128.69063 701.1044 127.56563Q701.1044 126.72188 701.52625 126.15938Q701.96375 125.59688 702.745 125.39375ZM702.52625 123.59688Q702.52625 124.20625 702.9169 124.59688Q703.3231 124.9875 703.9481 124.9875Q704.5575 124.9875 704.9481 124.6125Q705.33875 124.22188 705.33875 123.65938Q705.33875 123.08125 704.9325 122.69063Q704.52625 122.28438 703.9325 122.28438Q703.3231 122.28438 702.9169 122.675Q702.52625 123.06563 702.52625 123.59688ZM702.1981 127.56563Q702.1981 128.01875 702.40125 128.44063Q702.62 128.8625 703.0419 129.09688Q703.46375 129.33125 703.9481 129.33125Q704.6981 129.33125 705.1825 128.84688Q705.6825 128.3625 705.6825 127.6125Q705.6825 126.84688 705.1825 126.34688Q704.6825 125.84688 703.9169 125.84688Q703.1669 125.84688 702.6825 126.34688Q702.1981 126.83125 702.1981 127.56563ZM708.71375 130.05L708.71375 128.84688L709.9169 128.84688L709.9169 130.05L708.71375 130.05ZM715.08875 130.05L714.0419 130.05L714.0419 123.33125Q713.65125 123.69063 713.02625 124.06563Q712.4169 124.425 711.9325 124.59688L711.9325 123.58125Q712.8075 123.15938 713.46375 122.58125Q714.1356 121.9875 714.4169 121.425L715.08875 121.425L715.08875 130.05Z" fill-rule="nonzero"/><path fill="#6aa84f" d="M680.62 145.05C680.62 144.49771 681.0677 144.05 681.62 144.05L691.62 144.05C692.1723 144.05 692.62 144.49771 692.62 145.05L692.62 155.05C692.62 155.60228 692.1723 156.05 691.62 156.05L681.62 156.05C681.0677 156.05 680.62 155.60228 680.62 155.05Z" fill-rule="nonzero"/><path fill="#1a1a1a" d="M702.745 149.39375Q702.08875 149.14375 701.7606 148.70625Q701.4481 148.25313 701.4481 147.64375Q701.4481 146.70625 702.12 146.06563Q702.8075 145.425 703.9169 145.425Q705.0419 145.425 705.7294 146.08125Q706.4169 146.7375 706.4169 147.675Q706.4169 148.26875 706.1044 148.70625Q705.7919 149.14375 705.15125 149.39375Q705.9481 149.64375 706.3544 150.22188Q706.7606 150.8 706.7606 151.59688Q706.7606 152.69063 705.9794 153.44063Q705.21375 154.19063 703.9325 154.19063Q702.6669 154.19063 701.8856 153.44063Q701.1044 152.69063 701.1044 151.56563Q701.1044 150.72188 701.52625 150.15938Q701.96375 149.59688 702.745 149.39375ZM702.52625 147.59688Q702.52625 148.20625 702.9169 148.59688Q703.3231 148.9875 703.9481 148.9875Q704.5575 148.9875 704.9481 148.6125Q705.33875 148.22188 705.33875 147.65938Q705.33875 147.08125 704.9325 146.69063Q704.52625 146.28438 703.9325 146.28438Q703.3231 146.28438 702.9169 146.675Q702.52625 147.06563 702.52625 147.59688ZM702.1981 151.56563Q702.1981 152.01875 702.40125 152.44063Q702.62 152.8625 703.0419 153.09688Q703.46375 153.33125 703.9481 153.33125Q704.6981 153.33125 705.1825 152.84688Q705.6825 152.3625 705.6825 151.6125Q705.6825 150.84688 705.1825 150.34688Q704.6825 149.84688 703.9169 149.84688Q703.1669 149.84688 702.6825 150.34688Q702.1981 150.83125 702.1981 151.56563ZM708.71375 154.05L708.71375 152.84688L709.9169 152.84688L709.9169 154.05L708.71375 154.05ZM716.6669 153.03438L716.6669 154.05L710.9794 154.05Q710.9794 153.675 711.1044 153.31563Q711.3231 152.7375 711.7919 152.175Q712.27625 151.6125 713.1825 150.87813Q714.58875 149.72188 715.0731 149.05Q715.5731 148.37813 715.5731 147.78438Q715.5731 147.15938 715.12 146.7375Q714.6669 146.3 713.9481 146.3Q713.1825 146.3 712.7294 146.75313Q712.27625 147.20625 712.2606 148.01875L711.1825 147.90938Q711.2919 146.69063 712.0106 146.06563Q712.745 145.425 713.9794 145.425Q715.21375 145.425 715.9325 146.1125Q716.65125 146.8 716.65125 147.81563Q716.65125 148.33125 716.4325 148.83125Q716.2294 149.31563 715.7294 149.87813Q715.245 150.425 714.12 151.37813Q713.1669 152.175 712.8856 152.47188Q712.62 152.75313 712.4481 153.03438L716.6669 153.03438Z" fill-rule="nonzero"/><path fill="#38761d" d="M680.62 169.05C680.62 168.49771 681.0677 168.05 681.62 168.05L691.62 168.05C692.1723 168.05 692.62 168.49771 692.62 169.05L692.62 179.05C692.62 179.60228 692.1723 180.05 691.62 180.05L681.62 180.05C681.0677 180.05 680.62 179.60228 680.62 179.05Z" fill-rule="nonzero"/><path fill="#1a1a1a" d="M702.745 173.39375Q702.08875 173.14375 701.7606 172.70625Q701.4481 172.25313 701.4481 171.64375Q701.4481 170.70625 702.12 170.06563Q702.8075 169.425 703.9169 169.425Q705.0419 169.425 705.7294 170.08125Q706.4169 170.7375 706.4169 171.675Q706.4169 172.26875 706.1044 172.70625Q705.7919 173.14375 705.15125 173.39375Q705.9481 173.64375 706.3544 174.22188Q706.7606 174.8 706.7606 175.59688Q706.7606 176.69063 705.9794 177.44063Q705.21375 178.19063 703.9325 178.19063Q702.6669 178.19063 701.8856 177.44063Q701.1044 176.69063 701.1044 175.56563Q701.1044 174.72188 701.52625 174.15938Q701.96375 173.59688 702.745 173.39375ZM702.52625 171.59688Q702.52625 172.20625 702.9169 172.59688Q703.3231 172.9875 703.9481 172.9875Q704.5575 172.9875 704.9481 172.6125Q705.33875 172.22188 705.33875 171.65938Q705.33875 171.08125 704.9325 170.69063Q704.52625 170.28438 703.9325 170.28438Q703.3231 170.28438 702.9169 170.675Q702.52625 171.06563 702.52625 171.59688ZM702.1981 175.56563Q702.1981 176.01875 702.40125 176.44063Q702.62 176.8625 703.0419 177.09688Q703.46375 177.33125 703.9481 177.33125Q704.6981 177.33125 705.1825 176.84688Q705.6825 176.3625 705.6825 175.6125Q705.6825 174.84688 705.1825 174.34688Q704.6825 173.84688 703.9169 173.84688Q703.1669 173.84688 702.6825 174.34688Q702.1981 174.83125 702.1981 175.56563ZM708.71375 178.05L708.71375 176.84688L709.9169 176.84688L709.9169 178.05L708.71375 178.05ZM711.12 175.78438L712.1825 175.64375Q712.3544 176.53438 712.7919 176.94063Q713.2294 177.33125 713.8544 177.33125Q714.6044 177.33125 715.12 176.81563Q715.6356 176.3 715.6356 175.53438Q715.6356 174.81563 715.15125 174.34688Q714.6825 173.8625 713.9481 173.8625Q713.65125 173.8625 713.1981 173.9875L713.3231 173.05Q713.4325 173.06563 713.495 173.06563Q714.1669 173.06563 714.6981 172.72188Q715.245 172.3625 715.245 171.62813Q715.245 171.05 714.8544 170.675Q714.46375 170.28438 713.83875 170.28438Q713.2294 170.28438 712.8075 170.675Q712.40125 171.06563 712.2919 171.83125L711.2294 171.64375Q711.4169 170.59688 712.1044 170.01875Q712.7919 169.425 713.8075 169.425Q714.5106 169.425 715.1044 169.7375Q715.6981 170.03438 716.0106 170.55Q716.3231 171.06563 716.3231 171.65938Q716.3231 172.20625 716.02625 172.675Q715.7294 173.12813 715.15125 173.39375Q715.90125 173.56563 716.3231 174.12813Q716.745 174.675 716.745 175.51875Q716.745 176.64375 715.9169 177.425Q715.1044 178.20625 713.8544 178.20625Q712.7294 178.20625 711.9794 177.53438Q711.2294 176.84688 711.12 175.78438Z" fill-rule="nonzero"/></svg>