<?xml version="1.0" standalone="no"?>
<!DOCTYPE svg PUBLIC "-//W3C//DTD SVG 20010904//EN"
 "http://www.w3.org/TR/2001/REC-SVG-20010904/DTD/svg10.dtd">
<svg version="1.0" xmlns="http://www.w3.org/2000/svg"
 width="260.000000pt" height="260.000000pt" viewBox="0 0 260.000000 260.000000"
 preserveAspectRatio="xMidYMid meet">
<metadata>
Created by potrace 1.11, written by Peter Selinger 2001-2013
</metadata>
<g transform="translate(0.000000,260.000000) scale(0.100000,-0.100000)"
fill="#000000" stroke="none">
<path d="M0 1300 l0 -1300 1300 0 1300 0 0 1300 0 1300 -1300 0 -1300 0 0
-1300z m1535 675 c181 -60 275 -169 299 -348 l5 -38 -141 3 -140 3 -14 40
c-52 153 -338 184 -431 46 -38 -56 -26 -127 27 -168 31 -24 128 -55 245 -78
280 -56 401 -128 455 -271 31 -84 26 -224 -12 -306 -79 -171 -259 -262 -518
-263 -145 0 -241 20 -334 69 -124 64 -211 186 -211 296 l0 55 120 3 c137 3
165 -1 165 -26 0 -29 37 -80 77 -106 21 -14 67 -33 103 -42 117 -30 265 8 309
79 30 49 28 107 -5 147 -39 45 -83 64 -239 100 -209 48 -244 58 -318 97 -108
57 -164 135 -187 262 -12 67 4 171 36 233 61 117 199 209 357 238 95 17 262 5
352 -25z"/>
</g>
</svg>
