<?xml version="1.0" standalone="no"?>
<!DOCTYPE svg PUBLIC "-//W3C//DTD SVG 1.1//EN" "http://www.w3.org/Graphics/SVG/1.1/DTD/svg11.dtd">
<svg version="1.1" xmlns="http://www.w3.org/2000/svg" viewBox="0 0 236.53028590108988 562.0211889826146" width="473.06057180217977" height="1124.0423779652292"><!-- svg-source:excalidraw --><metadata></metadata><defs><style class="style-fonts">
      </style></defs><g stroke-linecap="round" transform="translate(46.53028590108988 10) rotate(0 90 90)"><path d="M87.92 0.08 C98.99 -1.6, 112.51 1.54, 123.21 5.61 C133.92 9.68, 144.06 16.59, 152.16 24.49 C160.25 32.39, 167.28 42.45, 171.77 53.01 C176.26 63.57, 178.73 76.37, 179.09 87.86 C179.46 99.35, 178.05 111.03, 173.95 121.94 C169.85 132.86, 162.59 144.79, 154.5 153.35 C146.41 161.91, 136.03 168.69, 125.42 173.29 C114.81 177.89, 102.07 180.98, 90.83 180.95 C79.58 180.92, 68.48 177.52, 57.94 173.11 C47.41 168.7, 35.97 162.21, 27.64 154.47 C19.32 146.72, 12.45 137.07, 8 126.66 C3.55 116.25, 1.25 103.45, 0.94 91.99 C0.63 80.53, 2.27 68.5, 6.13 57.89 C10 47.28, 16.35 36.62, 24.15 28.31 C31.95 20.01, 41.4 12.72, 52.94 8.06 C64.49 3.4, 85.52 1.14, 93.42 0.34 C101.31 -0.47, 100.3 1.67, 100.33 3.23 M121.99 4.7 C132.89 6.87, 143 14.93, 151.36 22.89 C159.71 30.85, 167.43 42.1, 172.11 52.47 C176.79 62.84, 178.96 73.81, 179.42 85.09 C179.89 96.37, 178.72 109.39, 174.9 120.16 C171.08 130.93, 164.37 141.12, 156.5 149.69 C148.62 158.26, 138.3 166.48, 127.65 171.59 C116.99 176.7, 104.03 179.94, 92.55 180.36 C81.08 180.79, 69.34 178.06, 58.79 174.14 C48.23 170.23, 37.77 164.78, 29.22 156.87 C20.66 148.96, 12.5 137.41, 7.44 126.69 C2.37 115.98, -0.65 103.84, -1.17 92.57 C-1.7 81.31, -0.05 69.91, 4.27 59.13 C8.59 48.34, 16.68 36.23, 24.74 27.85 C32.79 19.47, 42.42 13.3, 52.6 8.85 C62.78 4.4, 74.62 1.84, 85.83 1.15 C97.04 0.46, 114.25 3.94, 119.86 4.71 C125.46 5.48, 119.59 4.38, 119.48 5.75" stroke="#ffffff" stroke-width="4" fill="none"></path></g><g stroke-linecap="round"><g transform="translate(136.94941022077 193.62282238862053) rotate(0 -4.66091896220405 101.37166885122497)"><path d="M-0.29 -0.05 C-0.31 9.85, 0.39 25.56, -1.18 59.37 C-2.74 93.18, -8.4 179.03, -9.67 202.81 M1.76 -1.12 C2.21 8.97, 3.16 26.6, 1.1 60.81 C-0.96 95.03, -9.05 180.5, -10.62 204.17" stroke="#ffffff" stroke-width="4" fill="none"></path></g></g><mask></mask><g stroke-linecap="round"><g transform="translate(137.43834539788804 255.698630676437) rotate(0 20.030348732617313 40.57163197010004)"><path d="M-0.05 -0.83 C2.85 7.58, 10.68 36.42, 17.38 50.16 C24.07 63.91, 36.46 76.54, 40.13 81.66 M-1.53 1.35 C1.19 9.96, 9.51 38.48, 16.33 51.52 C23.16 64.56, 35.58 74.53, 39.4 79.59" stroke="#ffffff" stroke-width="4" fill="none"></path></g></g><mask></mask><g stroke-linecap="round"><g transform="translate(134.45514474923584 253.8647866105789) rotate(0 -62.24027531813317 -71.18713989402681)"><path d="M-0.83 -0.18 C-9.29 -3.64, -30.54 3.04, -51.06 -20.77 C-71.58 -44.59, -111.68 -122.67, -123.96 -143.06 M0.93 -1.32 C-7.69 -4.56, -31.29 4.26, -52.19 -19.2 C-73.09 -42.66, -112.38 -121.57, -124.46 -142.11" stroke="#ffffff" stroke-width="4" fill="none"></path></g></g><mask></mask><g stroke-linecap="round"><g transform="translate(125.98755830846312 394.1354430097249) rotate(0 -33.36104547224659 78.47358237070557)"><path d="M-0.18 -0.35 C-6.02 12.37, -23.88 49.28, -35.08 75.45 C-46.29 101.63, -62.01 143.25, -67.41 156.7 M-1.74 -1.57 C-7.72 10.85, -24.86 47.03, -35.99 73.6 C-47.13 100.18, -63.27 144.02, -68.54 157.89" stroke="#ffffff" stroke-width="4" fill="none"></path></g></g><mask></mask><g stroke-linecap="round"><g transform="translate(129.6627248961595 395.76825942422965) rotate(0 28.523760361522363 76.90724870923486)"><path d="M-0.35 0.07 C3.49 12.5, 12.65 48.93, 22.18 74.43 C31.7 99.93, 51.12 140.02, 56.8 153.07 M1.67 -0.94 C5.47 11.66, 12.46 49.78, 21.5 75.6 C30.54 101.43, 50.14 141.06, 55.9 154" stroke="#ffffff" stroke-width="4" fill="none"></path></g></g><mask></mask></svg>