<svg version="1.1" viewBox="0.0 0.0 870.0 538.0" fill="none" stroke="none" stroke-linecap="square" stroke-miterlimit="10" width="870" height="538" xmlns:xlink="http://www.w3.org/1999/xlink" xmlns="http://www.w3.org/2000/svg"><path fill="#ffffff" d="M0 0L870.0 0L870.0 538.0L0 538.0L0 0Z" fill-rule="nonzero"/><path stroke="#333333" stroke-width="1.0" stroke-linecap="butt" d="M53.5 491.5L816.5 491.5" fill-rule="nonzero"/><path stroke="#cccccc" stroke-width="1.0" stroke-linecap="butt" d="M53.5 384.5L816.5 384.5" fill-rule="nonzero"/><path stroke="#cccccc" stroke-width="1.0" stroke-linecap="butt" d="M53.5 278.5L816.5 278.5" fill-rule="nonzero"/><path stroke="#cccccc" stroke-width="1.0" stroke-linecap="butt" d="M53.5 172.5L816.5 172.5" fill-rule="nonzero"/><path stroke="#cccccc" stroke-width="1.0" stroke-linecap="butt" d="M53.5 65.5L816.5 65.5" fill-rule="nonzero"/><clipPath id="id_0"><path d="M53.9 65.833336L816.1 65.833336L816.1 491.1L53.9 491.1L53.9 65.833336Z" clip-rule="nonzero"/></clipPath><path stroke="#000000" stroke-width="0.0" stroke-linecap="butt" stroke-opacity="0.0" clip-path="url(#id_0)" d="M206.0 491.0L133.0 491.0L133.0 218.0C133.0 216.89543 133.89543 216.0 135.0 216.0L204.0 216.0C205.10457 216.0 206.0 216.89543 206.0 218.0Z" fill-rule="nonzero"/><path fill="#4285f4" clip-path="url(#id_0)" d="M206.0 491.0L133.0 491.0L133.0 218.0C133.0 216.89543 133.89543 216.0 135.0 216.0L204.0 216.0C205.10457 216.0 206.0 216.89543 206.0 218.0Z" fill-rule="nonzero"/><path stroke="#000000" stroke-width="0.0" stroke-linecap="butt" stroke-opacity="0.0" clip-path="url(#id_0)" d="M434.0 491.0L361.0 491.0L361.0 154.0C361.0 152.89543 361.89542 152.0 363.0 152.0L432.0 152.0C433.10458 152.0 434.0 152.89543 434.0 154.0Z" fill-rule="nonzero"/><path fill="#4285f4" clip-path="url(#id_0)" d="M434.0 491.0L361.0 491.0L361.0 154.0C361.0 152.89543 361.89542 152.0 363.0 152.0L432.0 152.0C433.10458 152.0 434.0 152.89543 434.0 154.0Z" fill-rule="nonzero"/><path stroke="#000000" stroke-width="0.0" stroke-linecap="butt" stroke-opacity="0.0" clip-path="url(#id_0)" d="M662.0 491.0L589.0 491.0L589.0 127.0C589.0 125.89543 589.89545 125.0 591.0 125.0L660.0 125.0C661.10455 125.0 662.0 125.89543 662.0 127.0Z" fill-rule="nonzero"/><path fill="#4285f4" clip-path="url(#id_0)" d="M662.0 491.0L589.0 491.0L589.0 127.0C589.0 125.89543 589.89545 125.0 591.0 125.0L660.0 125.0C661.10455 125.0 662.0 125.89543 662.0 127.0Z" fill-rule="nonzero"/><path stroke="#000000" stroke-width="0.0" stroke-linecap="butt" stroke-opacity="0.0" clip-path="url(#id_0)" d="M280.0 491.0L207.0 491.0L207.0 83.0C207.0 81.89543 207.89543 81.0 209.0 81.0L278.0 81.0C279.10458 81.0 280.0 81.89543 280.0 83.0Z" fill-rule="nonzero"/><path fill="#ea4335" clip-path="url(#id_0)" d="M280.0 491.0L207.0 491.0L207.0 83.0C207.0 81.89543 207.89543 81.0 209.0 81.0L278.0 81.0C279.10458 81.0 280.0 81.89543 280.0 83.0Z" fill-rule="nonzero"/><path stroke="#000000" stroke-width="0.0" stroke-linecap="butt" stroke-opacity="0.0" clip-path="url(#id_0)" d="M508.0 491.0L435.0 491.0L435.0 160.0C435.0 158.89543 435.89542 158.0 437.0 158.0L506.0 158.0C507.10458 158.0 508.0 158.89543 508.0 160.0Z" fill-rule="nonzero"/><path fill="#ea4335" clip-path="url(#id_0)" d="M508.0 491.0L435.0 491.0L435.0 160.0C435.0 158.89543 435.89542 158.0 437.0 158.0L506.0 158.0C507.10458 158.0 508.0 158.89543 508.0 160.0Z" fill-rule="nonzero"/><path stroke="#000000" stroke-width="0.0" stroke-linecap="butt" stroke-opacity="0.0" clip-path="url(#id_0)" d="M736.0 491.0L663.0 491.0L663.0 184.0C663.0 182.89543 663.89545 182.0 665.0 182.0L734.0 182.0C735.10455 182.0 736.0 182.89543 736.0 184.0Z" fill-rule="nonzero"/><path fill="#ea4335" clip-path="url(#id_0)" d="M736.0 491.0L663.0 491.0L663.0 184.0C663.0 182.89543 663.89545 182.0 665.0 182.0L734.0 182.0C735.10455 182.0 736.0 182.89543 736.0 184.0Z" fill-rule="nonzero"/><path fill="#000000" d="M41.4 490.86563Q41.4 489.33438 41.7125 488.4125Q42.025 487.475 42.634377 486.975Q43.259377 486.475 44.196877 486.475Q44.884377 486.475 45.4 486.75626Q45.93125 487.0375 46.275 487.56876Q46.61875 488.08438 46.80625 488.83438Q46.99375 489.58438 46.99375 490.86563Q46.99375 492.38126 46.68125 493.30313Q46.384377 494.225 45.759377 494.74063Q45.15 495.24063 44.196877 495.24063Q42.9625 495.24063 42.24375 494.35Q41.4 493.2875 41.4 490.86563ZM42.478127 490.86563Q42.478127 492.975 42.978127 493.67813Q43.478127 494.38126 44.196877 494.38126Q44.93125 494.38126 45.415627 493.67813Q45.915627 492.975 45.915627 490.86563Q45.915627 488.74063 45.415627 488.05313Q44.93125 487.35 44.18125 487.35Q43.4625 487.35 43.025 487.95938Q42.478127 488.74063 42.478127 490.86563Z" fill-rule="nonzero"/><path fill="#000000" d="M39.946877 387.7677L39.946877 388.78333L34.259377 388.78333Q34.259377 388.40833 34.384377 388.04895Q34.603127 387.47083 35.071877 386.90833Q35.55625 386.34583 36.4625 385.61145Q37.86875 384.4552 38.353127 383.78333Q38.853127 383.11145 38.853127 382.5177Q38.853127 381.8927 38.4 381.47083Q37.946877 381.03333 37.228127 381.03333Q36.4625 381.03333 36.009377 381.48645Q35.55625 381.93958 35.540627 382.75208L34.4625 382.6427Q34.571877 381.42395 35.290627 380.79895Q36.025 380.15833 37.259377 380.15833Q38.49375 380.15833 39.2125 380.84583Q39.93125 381.53333 39.93125 382.54895Q39.93125 383.06458 39.7125 383.56458Q39.509377 384.04895 39.009377 384.61145Q38.525 385.15833 37.4 386.11145Q36.446877 386.90833 36.165627 387.2052Q35.9 387.48645 35.728127 387.7677L39.946877 387.7677ZM41.4 386.53333L42.509377 386.43958Q42.634377 387.25208 43.071877 387.65833Q43.525 388.06458 44.165627 388.06458Q44.915627 388.06458 45.446877 387.48645Q45.978127 386.90833 45.978127 385.97083Q45.978127 385.06458 45.4625 384.54895Q44.9625 384.0177 44.134377 384.0177Q43.634377 384.0177 43.2125 384.25208Q42.80625 384.48645 42.571877 384.84583L41.5875 384.72083L42.415627 380.31458L46.696877 380.31458L46.696877 381.31458L43.259377 381.31458L42.80625 383.62708Q43.571877 383.0802 44.415627 383.0802Q45.540627 383.0802 46.30625 383.86145Q47.0875 384.6427 47.0875 385.87708Q47.0875 387.03333 46.415627 387.8927Q45.5875 388.92395 44.165627 388.92395Q42.99375 388.92395 42.24375 388.2677Q41.509377 387.61145 41.4 386.53333Z" fill-rule="nonzero"/><path fill="#000000" d="M34.4 280.21667L35.509377 280.12292Q35.634377 280.93542 36.071877 281.34167Q36.525 281.74792 37.165627 281.74792Q37.915627 281.74792 38.446877 281.1698Q38.978127 280.59167 38.978127 279.65417Q38.978127 278.74792 38.4625 278.2323Q37.9625 277.70105 37.134377 277.70105Q36.634377 277.70105 36.2125 277.93542Q35.80625 278.1698 35.571877 278.52917L34.5875 278.40417L35.415627 273.99792L39.696877 273.99792L39.696877 274.99792L36.259377 274.99792L35.80625 277.31042Q36.571877 276.76355 37.415627 276.76355Q38.540627 276.76355 39.30625 277.5448Q40.0875 278.32605 40.0875 279.56042Q40.0875 280.71667 39.415627 281.57605Q38.5875 282.6073 37.165627 282.6073Q35.99375 282.6073 35.24375 281.95105Q34.509377 281.2948 34.4 280.21667ZM41.4 278.2323Q41.4 276.70105 41.7125 275.77917Q42.025 274.84167 42.634377 274.34167Q43.259377 273.84167 44.196877 273.84167Q44.884377 273.84167 45.4 274.12292Q45.93125 274.40417 46.275 274.93542Q46.61875 275.45105 46.80625 276.20105Q46.99375 276.95105 46.99375 278.2323Q46.99375 279.74792 46.68125 280.6698Q46.384377 281.59167 45.759377 282.1073Q45.15 282.6073 44.196877 282.6073Q42.9625 282.6073 42.24375 281.71667Q41.4 280.65417 41.4 278.2323ZM42.478127 278.2323Q42.478127 280.34167 42.978127 281.0448Q43.478127 281.74792 44.196877 281.74792Q44.93125 281.74792 45.415627 281.0448Q45.915627 280.34167 45.915627 278.2323Q45.915627 276.1073 45.415627 275.4198Q44.93125 274.71667 44.18125 274.71667Q43.4625 274.71667 43.025 275.32605Q42.478127 276.1073 42.478127 278.2323Z" fill-rule="nonzero"/><path fill="#000000" d="M34.4625 168.68124L34.4625 167.66562L40.025 167.66562L40.025 168.49374Q39.2125 169.36874 38.4 170.82187Q37.603127 172.25937 37.165627 173.79062Q36.8375 174.86874 36.759377 176.15L35.665627 176.15Q35.68125 175.13437 36.05625 173.69687Q36.446877 172.25937 37.15 170.93124Q37.86875 169.60312 38.68125 168.68124L34.4625 168.68124ZM41.4 173.9L42.509377 173.80624Q42.634377 174.61874 43.071877 175.025Q43.525 175.43124 44.165627 175.43124Q44.915627 175.43124 45.446877 174.85312Q45.978127 174.275 45.978127 173.3375Q45.978127 172.43124 45.4625 171.91562Q44.9625 171.38437 44.134377 171.38437Q43.634377 171.38437 43.2125 171.61874Q42.80625 171.85312 42.571877 172.2125L41.5875 172.0875L42.415627 167.68124L46.696877 167.68124L46.696877 168.68124L43.259377 168.68124L42.80625 170.99374Q43.571877 170.44687 44.415627 170.44687Q45.540627 170.44687 46.30625 171.22812Q47.0875 172.00937 47.0875 173.24374Q47.0875 174.4 46.415627 175.25937Q45.5875 176.29062 44.165627 176.29062Q42.99375 176.29062 42.24375 175.63437Q41.509377 174.97812 41.4 173.9Z" fill-rule="nonzero"/><path fill="#000000" d="M31.36875 69.833336L30.321875 69.833336L30.321875 63.114586Q29.93125 63.47396 29.30625 63.84896Q28.696875 64.208336 28.2125 64.38021L28.2125 63.364586Q29.0875 62.94271 29.74375 62.364586Q30.415625 61.770836 30.696875 61.208336L31.36875 61.208336L31.36875 69.833336ZM34.4 65.59896Q34.4 64.06771 34.7125 63.145836Q35.025 62.208336 35.634377 61.708336Q36.259377 61.208336 37.196877 61.208336Q37.884377 61.208336 38.4 61.489586Q38.93125 61.770836 39.275 62.302086Q39.61875 62.81771 39.80625 63.56771Q39.99375 64.31771 39.99375 65.59896Q39.99375 67.114586 39.68125 68.03646Q39.384377 68.958336 38.759377 69.47396Q38.15 69.97396 37.196877 69.97396Q35.9625 69.97396 35.24375 69.083336Q34.4 68.020836 34.4 65.59896ZM35.478127 65.59896Q35.478127 67.708336 35.978127 68.41146Q36.478127 69.114586 37.196877 69.114586Q37.93125 69.114586 38.415627 68.41146Q38.915627 67.708336 38.915627 65.59896Q38.915627 63.47396 38.415627 62.78646Q37.93125 62.083336 37.18125 62.083336Q36.4625 62.083336 36.025 62.69271Q35.478127 63.47396 35.478127 65.59896ZM41.4 65.59896Q41.4 64.06771 41.7125 63.145836Q42.025 62.208336 42.634377 61.708336Q43.259377 61.208336 44.196877 61.208336Q44.884377 61.208336 45.4 61.489586Q45.93125 61.770836 46.275 62.302086Q46.61875 62.81771 46.80625 63.56771Q46.99375 64.31771 46.99375 65.59896Q46.99375 67.114586 46.68125 68.03646Q46.384377 68.958336 45.759377 69.47396Q45.15 69.97396 44.196877 69.97396Q42.9625 69.97396 42.24375 69.083336Q41.4 68.020836 41.4 65.59896ZM42.478127 65.59896Q42.478127 67.708336 42.978127 68.41146Q43.478127 69.114586 44.196877 69.114586Q44.93125 69.114586 45.415627 68.41146Q45.915627 67.708336 45.915627 65.59896Q45.915627 63.47396 45.415627 62.78646Q44.93125 62.083336 44.18125 62.083336Q43.4625 62.083336 43.025 62.69271Q42.478127 63.47396 42.478127 65.59896Z" fill-rule="nonzero"/><path fill="#000000" d="M822.6 490.86563Q822.6 489.33438 822.9125 488.4125Q823.225 487.475 823.83435 486.975Q824.45935 486.475 825.39685 486.475Q826.08435 486.475 826.6 486.75626Q827.1312 487.0375 827.475 487.56876Q827.8187 488.08438 828.0062 488.83438Q828.1937 489.58438 828.1937 490.86563Q828.1937 492.38126 827.8812 493.30313Q827.58435 494.225 826.95935 494.74063Q826.35 495.24063 825.39685 495.24063Q824.1625 495.24063 823.4437 494.35Q822.6 493.2875 822.6 490.86563ZM823.6781 490.86563Q823.6781 492.975 824.1781 493.67813Q824.6781 494.38126 825.39685 494.38126Q826.1312 494.38126 826.6156 493.67813Q827.1156 492.975 827.1156 490.86563Q827.1156 488.74063 826.6156 488.05313Q826.1312 487.35 825.3812 487.35Q824.6625 487.35 824.225 487.95938Q823.6781 488.74063 823.6781 490.86563Z" fill-rule="nonzero"/><path fill="#000000" d="M828.14685 387.7677L828.14685 388.78333L822.45935 388.78333Q822.45935 388.40833 822.58435 388.04895Q822.8031 387.47083 823.27185 386.90833Q823.7562 386.34583 824.6625 385.61145Q826.0687 384.4552 826.5531 383.78333Q827.0531 383.11145 827.0531 382.5177Q827.0531 381.8927 826.6 381.47083Q826.14685 381.03333 825.4281 381.03333Q824.6625 381.03333 824.20935 381.48645Q823.7562 381.93958 823.7406 382.75208L822.6625 382.6427Q822.77185 381.42395 823.4906 380.79895Q824.225 380.15833 825.45935 380.15833Q826.6937 380.15833 827.4125 380.84583Q828.1312 381.53333 828.1312 382.54895Q828.1312 383.06458 827.9125 383.56458Q827.70935 384.04895 827.20935 384.61145Q826.725 385.15833 825.6 386.11145Q824.64685 386.90833 824.3656 387.2052Q824.1 387.48645 823.9281 387.7677L828.14685 387.7677ZM829.6 384.54895Q829.6 383.0177 829.9125 382.09583Q830.225 381.15833 830.83435 380.65833Q831.45935 380.15833 832.39685 380.15833Q833.08435 380.15833 833.6 380.43958Q834.1312 380.72083 834.475 381.25208Q834.8187 381.7677 835.0062 382.5177Q835.1937 383.2677 835.1937 384.54895Q835.1937 386.06458 834.8812 386.98645Q834.58435 387.90833 833.95935 388.42395Q833.35 388.92395 832.39685 388.92395Q831.1625 388.92395 830.4437 388.03333Q829.6 386.97083 829.6 384.54895ZM830.6781 384.54895Q830.6781 386.65833 831.1781 387.36145Q831.6781 388.06458 832.39685 388.06458Q833.1312 388.06458 833.6156 387.36145Q834.1156 386.65833 834.1156 384.54895Q834.1156 382.42395 833.6156 381.73645Q833.1312 381.03333 832.3812 381.03333Q831.6625 381.03333 831.225 381.6427Q830.6781 382.42395 830.6781 384.54895ZM836.6 384.54895Q836.6 383.0177 836.9125 382.09583Q837.225 381.15833 837.83435 380.65833Q838.45935 380.15833 839.39685 380.15833Q840.08435 380.15833 840.6 380.43958Q841.1312 380.72083 841.475 381.25208Q841.8187 381.7677 842.0062 382.5177Q842.1937 383.2677 842.1937 384.54895Q842.1937 386.06458 841.8812 386.98645Q841.58435 387.90833 840.95935 388.42395Q840.35 388.92395 839.39685 388.92395Q838.1625 388.92395 837.4437 388.03333Q836.6 386.97083 836.6 384.54895ZM837.6781 384.54895Q837.6781 386.65833 838.1781 387.36145Q838.6781 388.06458 839.39685 388.06458Q840.1312 388.06458 840.6156 387.36145Q841.1156 386.65833 841.1156 384.54895Q841.1156 382.42395 840.6156 381.73645Q840.1312 381.03333 839.3812 381.03333Q838.6625 381.03333 838.225 381.6427Q837.6781 382.42395 837.6781 384.54895Z" fill-rule="nonzero"/><path fill="#000000" d="M825.975 282.46667L825.975 280.40417L822.2562 280.40417L822.2562 279.43542L826.1781 273.87292L827.0375 273.87292L827.0375 279.43542L828.1937 279.43542L828.1937 280.40417L827.0375 280.40417L827.0375 282.46667L825.975 282.46667ZM825.975 279.43542L825.975 275.57605L823.2875 279.43542L825.975 279.43542ZM829.6 278.2323Q829.6 276.70105 829.9125 275.77917Q830.225 274.84167 830.83435 274.34167Q831.45935 273.84167 832.39685 273.84167Q833.08435 273.84167 833.6 274.12292Q834.1312 274.40417 834.475 274.93542Q834.8187 275.45105 835.0062 276.20105Q835.1937 276.95105 835.1937 278.2323Q835.1937 279.74792 834.8812 280.6698Q834.58435 281.59167 833.95935 282.1073Q833.35 282.6073 832.39685 282.6073Q831.1625 282.6073 830.4437 281.71667Q829.6 280.65417 829.6 278.2323ZM830.6781 278.2323Q830.6781 280.34167 831.1781 281.0448Q831.6781 281.74792 832.39685 281.74792Q833.1312 281.74792 833.6156 281.0448Q834.1156 280.34167 834.1156 278.2323Q834.1156 276.1073 833.6156 275.4198Q833.1312 274.71667 832.3812 274.71667Q831.6625 274.71667 831.225 275.32605Q830.6781 276.1073 830.6781 278.2323ZM836.6 278.2323Q836.6 276.70105 836.9125 275.77917Q837.225 274.84167 837.83435 274.34167Q838.45935 273.84167 839.39685 273.84167Q840.08435 273.84167 840.6 274.12292Q841.1312 274.40417 841.475 274.93542Q841.8187 275.45105 842.0062 276.20105Q842.1937 276.95105 842.1937 278.2323Q842.1937 279.74792 841.8812 280.6698Q841.58435 281.59167 840.95935 282.1073Q840.35 282.6073 839.39685 282.6073Q838.1625 282.6073 837.4437 281.71667Q836.6 280.65417 836.6 278.2323ZM837.6781 278.2323Q837.6781 280.34167 838.1781 281.0448Q838.6781 281.74792 839.39685 281.74792Q840.1312 281.74792 840.6156 281.0448Q841.1156 280.34167 841.1156 278.2323Q841.1156 276.1073 840.6156 275.4198Q840.1312 274.71667 839.3812 274.71667Q838.6625 274.71667 838.225 275.32605Q837.6781 276.1073 837.6781 278.2323Z" fill-rule="nonzero"/><path fill="#000000" d="M828.0687 169.66562L827.02185 169.74374Q826.8812 169.11874 826.6312 168.8375Q826.1937 168.38437 825.5687 168.38437Q825.0687 168.38437 824.6781 168.66562Q824.1937 169.04062 823.89685 169.74374Q823.6156 170.43124 823.6 171.7125Q823.975 171.13437 824.52185 170.85312Q825.08435 170.57187 825.6937 170.57187Q826.7406 170.57187 827.475 171.35312Q828.225 172.13437 828.225 173.35312Q828.225 174.16562 827.8656 174.86874Q827.52185 175.55624 826.9125 175.93124Q826.3031 176.29062 825.5375 176.29062Q824.20935 176.29062 823.3812 175.32187Q822.5531 174.35312 822.5531 172.13437Q822.5531 169.63437 823.475 168.50937Q824.27185 167.525 825.6312 167.525Q826.64685 167.525 827.2875 168.10312Q827.9437 168.66562 828.0687 169.66562ZM823.77185 173.36874Q823.77185 173.91562 823.9906 174.41562Q824.225 174.9 824.6312 175.16562Q825.0531 175.43124 825.52185 175.43124Q826.1781 175.43124 826.6625 174.9Q827.14685 174.35312 827.14685 173.43124Q827.14685 172.54062 826.6625 172.025Q826.1937 171.50937 825.475 171.50937Q824.7562 171.50937 824.2562 172.025Q823.77185 172.54062 823.77185 173.36874ZM829.6 171.91562Q829.6 170.38437 829.9125 169.4625Q830.225 168.525 830.83435 168.025Q831.45935 167.525 832.39685 167.525Q833.08435 167.525 833.6 167.80624Q834.1312 168.0875 834.475 168.61874Q834.8187 169.13437 835.0062 169.88437Q835.1937 170.63437 835.1937 171.91562Q835.1937 173.43124 834.8812 174.35312Q834.58435 175.275 833.95935 175.79062Q833.35 176.29062 832.39685 176.29062Q831.1625 176.29062 830.4437 175.4Q829.6 174.3375 829.6 171.91562ZM830.6781 171.91562Q830.6781 174.025 831.1781 174.72812Q831.6781 175.43124 832.39685 175.43124Q833.1312 175.43124 833.6156 174.72812Q834.1156 174.025 834.1156 171.91562Q834.1156 169.79062 833.6156 169.10312Q833.1312 168.4 832.3812 168.4Q831.6625 168.4 831.225 169.00937Q830.6781 169.79062 830.6781 171.91562ZM836.6 171.91562Q836.6 170.38437 836.9125 169.4625Q837.225 168.525 837.83435 168.025Q838.45935 167.525 839.39685 167.525Q840.08435 167.525 840.6 167.80624Q841.1312 168.0875 841.475 168.61874Q841.8187 169.13437 842.0062 169.88437Q842.1937 170.63437 842.1937 171.91562Q842.1937 173.43124 841.8812 174.35312Q841.58435 175.275 840.95935 175.79062Q840.35 176.29062 839.39685 176.29062Q838.1625 176.29062 837.4437 175.4Q836.6 174.3375 836.6 171.91562ZM837.6781 171.91562Q837.6781 174.025 838.1781 174.72812Q838.6781 175.43124 839.39685 175.43124Q840.1312 175.43124 840.6156 174.72812Q841.1156 174.025 841.1156 171.91562Q841.1156 169.79062 840.6156 169.10312Q840.1312 168.4 839.3812 168.4Q838.6625 168.4 838.225 169.00937Q837.6781 169.79062 837.6781 171.91562Z" fill-rule="nonzero"/><path fill="#000000" d="M824.225 65.177086Q823.5687 64.927086 823.2406 64.489586Q822.9281 64.03646 822.9281 63.427086Q822.9281 62.489586 823.6 61.84896Q824.2875 61.208336 825.39685 61.208336Q826.52185 61.208336 827.20935 61.864586Q827.89685 62.520836 827.89685 63.458336Q827.89685 64.052086 827.58435 64.489586Q827.27185 64.927086 826.6312 65.177086Q827.4281 65.427086 827.83435 66.00521Q828.2406 66.583336 828.2406 67.38021Q828.2406 68.47396 827.45935 69.22396Q826.6937 69.97396 825.4125 69.97396Q824.14685 69.97396 823.3656 69.22396Q822.58435 68.47396 822.58435 67.34896Q822.58435 66.50521 823.0062 65.94271Q823.4437 65.38021 824.225 65.177086ZM824.0062 63.38021Q824.0062 63.989586 824.39685 64.38021Q824.8031 64.770836 825.4281 64.770836Q826.0375 64.770836 826.4281 64.395836Q826.8187 64.00521 826.8187 63.44271Q826.8187 62.864586 826.4125 62.47396Q826.0062 62.06771 825.4125 62.06771Q824.8031 62.06771 824.39685 62.458336Q824.0062 62.84896 824.0062 63.38021ZM823.6781 67.34896Q823.6781 67.802086 823.8812 68.22396Q824.1 68.645836 824.52185 68.88021Q824.9437 69.114586 825.4281 69.114586Q826.1781 69.114586 826.6625 68.63021Q827.1625 68.145836 827.1625 67.395836Q827.1625 66.63021 826.6625 66.13021Q826.1625 65.63021 825.39685 65.63021Q824.64685 65.63021 824.1625 66.13021Q823.6781 66.614586 823.6781 67.34896ZM829.6 65.59896Q829.6 64.06771 829.9125 63.145836Q830.225 62.208336 830.83435 61.708336Q831.45935 61.208336 832.39685 61.208336Q833.08435 61.208336 833.6 61.489586Q834.1312 61.770836 834.475 62.302086Q834.8187 62.81771 835.0062 63.56771Q835.1937 64.31771 835.1937 65.59896Q835.1937 67.114586 834.8812 68.03646Q834.58435 68.958336 833.95935 69.47396Q833.35 69.97396 832.39685 69.97396Q831.1625 69.97396 830.4437 69.083336Q829.6 68.020836 829.6 65.59896ZM830.6781 65.59896Q830.6781 67.708336 831.1781 68.41146Q831.6781 69.114586 832.39685 69.114586Q833.1312 69.114586 833.6156 68.41146Q834.1156 67.708336 834.1156 65.59896Q834.1156 63.47396 833.6156 62.78646Q833.1312 62.083336 832.3812 62.083336Q831.6625 62.083336 831.225 62.69271Q830.6781 63.47396 830.6781 65.59896ZM836.6 65.59896Q836.6 64.06771 836.9125 63.145836Q837.225 62.208336 837.83435 61.708336Q838.45935 61.208336 839.39685 61.208336Q840.08435 61.208336 840.6 61.489586Q841.1312 61.770836 841.475 62.302086Q841.8187 62.81771 842.0062 63.56771Q842.1937 64.31771 842.1937 65.59896Q842.1937 67.114586 841.8812 68.03646Q841.58435 68.958336 840.95935 69.47396Q840.35 69.97396 839.39685 69.97396Q838.1625 69.97396 837.4437 69.083336Q836.6 68.020836 836.6 65.59896ZM837.6781 65.59896Q837.6781 67.708336 838.1781 68.41146Q838.6781 69.114586 839.39685 69.114586Q840.1312 69.114586 840.6156 68.41146Q841.1156 67.708336 841.1156 65.59896Q841.1156 63.47396 840.6156 62.78646Q840.1312 62.083336 839.3812 62.083336Q838.6625 62.083336 838.225 62.69271Q837.6781 63.47396 837.6781 65.59896Z" fill-rule="nonzero"/><path fill="#000000" d="M169.39949 508.1L169.39949 499.50626L170.55574 499.50626L175.07137 506.25626L175.07137 499.50626L176.16512 499.50626L176.16512 508.1L174.99324 508.1L170.47762 501.35L170.47762 508.1L169.39949 508.1ZM177.88387 504.99063Q177.88387 503.25626 178.83699 502.42813Q179.63387 501.74063 180.79012 501.74063Q182.07137 501.74063 182.88387 502.58438Q183.71199 503.4125 183.71199 504.89688Q183.71199 506.1 183.35262 506.7875Q182.99324 507.475 182.29012 507.86563Q181.60262 508.24063 180.79012 508.24063Q179.49324 508.24063 178.68074 507.4125Q177.88387 506.56876 177.88387 504.99063ZM178.96199 504.99063Q178.96199 506.17813 179.47762 506.77188Q180.00887 507.36563 180.79012 507.36563Q181.58699 507.36563 182.10262 506.77188Q182.61824 506.17813 182.61824 504.95938Q182.61824 503.80313 182.08699 503.20938Q181.57137 502.61563 180.79012 502.61563Q180.00887 502.61563 179.47762 503.20938Q178.96199 503.7875 178.96199 504.99063ZM188.27449 510.49063L188.27449 501.88126L189.22762 501.88126L189.22762 502.67813Q189.57137 502.20938 189.99324 501.975Q190.43074 501.74063 191.04012 501.74063Q191.83699 501.74063 192.44637 502.14688Q193.05574 502.55313 193.35262 503.30313Q193.66512 504.05313 193.66512 504.94376Q193.66512 505.89688 193.32137 506.6625Q192.99324 507.42813 192.33699 507.83438Q191.68074 508.24063 190.96199 508.24063Q190.43074 508.24063 190.00887 508.02188Q189.58699 507.7875 189.32137 507.45938L189.32137 510.49063L188.27449 510.49063ZM189.22762 505.02188Q189.22762 506.225 189.71199 506.80313Q190.19637 507.36563 190.88387 507.36563Q191.58699 507.36563 192.08699 506.77188Q192.58699 506.17813 192.58699 504.92813Q192.58699 503.74063 192.10262 503.1625Q191.61824 502.56876 190.93074 502.56876Q190.25887 502.56876 189.74324 503.19376Q189.22762 503.81876 189.22762 505.02188ZM195.25887 508.1L195.25887 501.88126L196.21199 501.88126L196.21199 502.81876Q196.57137 502.1625 196.86824 501.95938Q197.18074 501.74063 197.55574 501.74063Q198.08699 501.74063 198.63387 502.06876L198.27449 503.05313Q197.88387 502.81876 197.50887 502.81876Q197.14949 502.81876 196.86824 503.0375Q196.60262 503.24063 196.49324 503.61563Q196.30574 504.17813 196.30574 504.83438L196.30574 508.1L195.25887 508.1ZM203.52449 506.1L204.61824 506.225Q204.36824 507.17813 203.66512 507.70938Q202.96199 508.24063 201.88387 508.24063Q200.52449 508.24063 199.71199 507.39688Q198.91512 506.55313 198.91512 505.0375Q198.91512 503.475 199.72762 502.61563Q200.54012 501.74063 201.82137 501.74063Q203.07137 501.74063 203.85262 502.58438Q204.64949 503.42813 204.64949 504.975Q204.64949 505.06876 204.64949 505.25626L200.00887 505.25626Q200.07137 506.2875 200.58699 506.83438Q201.10262 507.36563 201.88387 507.36563Q202.46199 507.36563 202.86824 507.06876Q203.29012 506.75626 203.52449 506.1ZM200.07137 504.39688L203.54012 504.39688Q203.47762 503.6 203.14949 503.20938Q202.63387 502.6 201.83699 502.6Q201.10262 502.6 200.60262 503.08438Q200.11824 503.56876 200.07137 504.39688ZM206.24324 508.1L206.24324 499.50626L207.30574 499.50626L207.30574 508.1L206.24324 508.1ZM208.88387 504.99063Q208.88387 503.25626 209.83699 502.42813Q210.63387 501.74063 211.79012 501.74063Q213.07137 501.74063 213.88387 502.58438Q214.71199 503.4125 214.71199 504.89688Q214.71199 506.1 214.35262 506.7875Q213.99324 507.475 213.29012 507.86563Q212.60262 508.24063 211.79012 508.24063Q210.49324 508.24063 209.68074 507.4125Q208.88387 506.56876 208.88387 504.99063ZM209.96199 504.99063Q209.96199 506.17813 210.47762 506.77188Q211.00887 507.36563 211.79012 507.36563Q212.58699 507.36563 213.10262 506.77188Q213.61824 506.17813 213.61824 504.95938Q213.61824 503.80313 213.08699 503.20938Q212.57137 502.61563 211.79012 502.61563Q211.00887 502.61563 210.47762 503.20938Q209.96199 503.7875 209.96199 504.99063ZM220.33699 507.33438Q219.74324 507.83438 219.19637 508.0375Q218.66512 508.24063 218.04012 508.24063Q217.00887 508.24063 216.46199 507.74063Q215.91512 507.24063 215.91512 506.45938Q215.91512 506.00626 216.11824 505.63126Q216.32137 505.24063 216.66512 505.02188Q217.00887 504.7875 217.43074 504.67813Q217.72762 504.58438 218.36824 504.50626Q219.63387 504.36563 220.24324 504.14688Q220.24324 503.92813 220.24324 503.88126Q220.24324 503.225 219.94637 502.95938Q219.54012 502.61563 218.74324 502.61563Q218.00887 502.61563 217.64949 502.88126Q217.29012 503.13126 217.11824 503.7875L216.08699 503.64688Q216.22762 502.99063 216.55574 502.58438Q216.88387 502.17813 217.49324 501.95938Q218.10262 501.74063 218.89949 501.74063Q219.69637 501.74063 220.19637 501.92813Q220.69637 502.11563 220.93074 502.39688Q221.16512 502.67813 221.25887 503.11563Q221.30574 503.38126 221.30574 504.08438L221.30574 505.49063Q221.30574 506.95938 221.36824 507.35Q221.44637 507.74063 221.64949 508.1L220.54012 508.1Q220.38387 507.77188 220.33699 507.33438ZM220.24324 504.975Q219.66512 505.20938 218.52449 505.38126Q217.86824 505.475 217.60262 505.6Q217.33699 505.70938 217.18074 505.92813Q217.04012 506.14688 217.04012 506.42813Q217.04012 506.85 217.35262 507.13126Q217.68074 507.4125 218.29012 507.4125Q218.89949 507.4125 219.36824 507.14688Q219.85262 506.88126 220.07137 506.4125Q220.24324 506.05313 220.24324 505.36563L220.24324 504.975ZM227.30574 508.1L227.30574 507.31876Q226.71199 508.24063 225.57137 508.24063Q224.82137 508.24063 224.19637 507.83438Q223.57137 507.4125 223.22762 506.67813Q222.88387 505.94376 222.88387 504.99063Q222.88387 504.06876 223.19637 503.30313Q223.50887 502.5375 224.13387 502.14688Q224.75887 501.74063 225.52449 501.74063Q226.08699 501.74063 226.52449 501.975Q226.96199 502.20938 227.24324 502.58438L227.24324 499.50626L228.29012 499.50626L228.29012 508.1L227.30574 508.1ZM223.97762 504.99063Q223.97762 506.19376 224.47762 506.7875Q224.97762 507.36563 225.66512 507.36563Q226.35262 507.36563 226.83699 506.80313Q227.32137 506.24063 227.32137 505.08438Q227.32137 503.80313 226.82137 503.20938Q226.33699 502.61563 225.61824 502.61563Q224.91512 502.61563 224.44637 503.19376Q223.97762 503.75626 223.97762 504.99063ZM230.27449 500.725L230.27449 499.50626L231.33699 499.50626L231.33699 500.725L230.27449 500.725ZM230.27449 508.1L230.27449 501.88126L231.33699 501.88126L231.33699 508.1L230.27449 508.1ZM233.27449 508.1L233.27449 501.88126L234.21199 501.88126L234.21199 502.75626Q234.89949 501.74063 236.19637 501.74063Q236.75887 501.74063 237.22762 501.94376Q237.71199 502.14688 237.94637 502.475Q238.18074 502.80313 238.27449 503.24063Q238.32137 503.5375 238.32137 504.27188L238.32137 508.1L237.27449 508.1L237.27449 504.31876Q237.27449 503.6625 237.14949 503.35Q237.02449 503.0375 236.71199 502.85Q236.39949 502.64688 235.97762 502.64688Q235.30574 502.64688 234.80574 503.08438Q234.32137 503.50626 234.32137 504.69376L234.32137 508.1L233.27449 508.1ZM240.07137 508.61563L241.10262 508.77188Q241.16512 509.24063 241.46199 509.45938Q241.85262 509.75626 242.52449 509.75626Q243.25887 509.75626 243.64949 509.45938Q244.05574 509.1625 244.19637 508.64688Q244.29012 508.31876 244.27449 507.2875Q243.58699 508.1 242.55574 508.1Q241.27449 508.1 240.57137 507.17813Q239.86824 506.24063 239.86824 504.95938Q239.86824 504.06876 240.18074 503.31876Q240.50887 502.55313 241.11824 502.14688Q241.72762 501.74063 242.55574 501.74063Q243.66512 501.74063 244.38387 502.63126L244.38387 501.88126L245.35262 501.88126L245.35262 507.25626Q245.35262 508.70938 245.05574 509.31876Q244.75887 509.92813 244.11824 510.27188Q243.47762 510.63126 242.54012 510.63126Q241.43074 510.63126 240.74324 510.13126Q240.05574 509.63126 240.07137 508.61563ZM240.94637 504.88126Q240.94637 506.1 241.43074 506.6625Q241.91512 507.225 242.64949 507.225Q243.38387 507.225 243.86824 506.6625Q244.36824 506.1 244.36824 504.9125Q244.36824 503.77188 243.85262 503.19376Q243.35262 502.61563 242.63387 502.61563Q241.93074 502.61563 241.43074 503.19376Q240.94637 503.75626 240.94637 504.88126Z" fill-rule="nonzero"/><path fill="#000000" d="M388.92188 508.1L388.92188 499.50626L390.07812 499.50626L394.59375 506.25626L394.59375 499.50626L395.6875 499.50626L395.6875 508.1L394.51562 508.1L390.0 501.35L390.0 508.1L388.92188 508.1ZM401.85938 507.33438Q401.26562 507.83438 400.71875 508.0375Q400.1875 508.24063 399.5625 508.24063Q398.53125 508.24063 397.98438 507.74063Q397.4375 507.24063 397.4375 506.45938Q397.4375 506.00626 397.64062 505.63126Q397.84375 505.24063 398.1875 505.02188Q398.53125 504.7875 398.95312 504.67813Q399.25 504.58438 399.89062 504.50626Q401.15625 504.36563 401.76562 504.14688Q401.76562 503.92813 401.76562 503.88126Q401.76562 503.225 401.46875 502.95938Q401.0625 502.61563 400.26562 502.61563Q399.53125 502.61563 399.17188 502.88126Q398.8125 503.13126 398.64062 503.7875L397.60938 503.64688Q397.75 502.99063 398.07812 502.58438Q398.40625 502.17813 399.01562 501.95938Q399.625 501.74063 400.42188 501.74063Q401.21875 501.74063 401.71875 501.92813Q402.21875 502.11563 402.45312 502.39688Q402.6875 502.67813 402.78125 503.11563Q402.82812 503.38126 402.82812 504.08438L402.82812 505.49063Q402.82812 506.95938 402.89062 507.35Q402.96875 507.74063 403.17188 508.1L402.0625 508.1Q401.90625 507.77188 401.85938 507.33438ZM401.76562 504.975Q401.1875 505.20938 400.04688 505.38126Q399.39062 505.475 399.125 505.6Q398.85938 505.70938 398.70312 505.92813Q398.5625 506.14688 398.5625 506.42813Q398.5625 506.85 398.875 507.13126Q399.20312 507.4125 399.8125 507.4125Q400.42188 507.4125 400.89062 507.14688Q401.375 506.88126 401.59375 506.4125Q401.76562 506.05313 401.76562 505.36563L401.76562 504.975ZM404.79688 500.725L404.79688 499.50626L405.85938 499.50626L405.85938 500.725L404.79688 500.725ZM404.79688 508.1L404.79688 501.88126L405.85938 501.88126L405.85938 508.1L404.79688 508.1ZM409.51562 508.1L407.15625 501.88126L408.26562 501.88126L409.60938 505.6Q409.8125 506.20938 410.0 506.85Q410.14062 506.36563 410.39062 505.67813L411.78125 501.88126L412.85938 501.88126L410.5 508.1L409.51562 508.1ZM418.04688 506.1L419.14062 506.225Q418.89062 507.17813 418.1875 507.70938Q417.48438 508.24063 416.40625 508.24063Q415.04688 508.24063 414.23438 507.39688Q413.4375 506.55313 413.4375 505.0375Q413.4375 503.475 414.25 502.61563Q415.0625 501.74063 416.34375 501.74063Q417.59375 501.74063 418.375 502.58438Q419.17188 503.42813 419.17188 504.975Q419.17188 505.06876 419.17188 505.25626L414.53125 505.25626Q414.59375 506.2875 415.10938 506.83438Q415.625 507.36563 416.40625 507.36563Q416.98438 507.36563 417.39062 507.06876Q417.8125 506.75626 418.04688 506.1ZM414.59375 504.39688L418.0625 504.39688Q418.0 503.6 417.67188 503.20938Q417.15625 502.6 416.35938 502.6Q415.625 502.6 415.125 503.08438Q414.64062 503.56876 414.59375 504.39688ZM423.79688 510.49063L423.79688 501.88126L424.75 501.88126L424.75 502.67813Q425.09375 502.20938 425.51562 501.975Q425.95312 501.74063 426.5625 501.74063Q427.35938 501.74063 427.96875 502.14688Q428.57812 502.55313 428.875 503.30313Q429.1875 504.05313 429.1875 504.94376Q429.1875 505.89688 428.84375 506.6625Q428.51562 507.42813 427.85938 507.83438Q427.20312 508.24063 426.48438 508.24063Q425.95312 508.24063 425.53125 508.02188Q425.10938 507.7875 424.84375 507.45938L424.84375 510.49063L423.79688 510.49063ZM424.75 505.02188Q424.75 506.225 425.23438 506.80313Q425.71875 507.36563 426.40625 507.36563Q427.10938 507.36563 427.60938 506.77188Q428.10938 506.17813 428.10938 504.92813Q428.10938 503.74063 427.625 503.1625Q427.14062 502.56876 426.45312 502.56876Q425.78125 502.56876 425.26562 503.19376Q424.75 503.81876 424.75 505.02188ZM430.78125 508.1L430.78125 501.88126L431.73438 501.88126L431.73438 502.81876Q432.09375 502.1625 432.39062 501.95938Q432.70312 501.74063 433.07812 501.74063Q433.60938 501.74063 434.15625 502.06876L433.79688 503.05313Q433.40625 502.81876 433.03125 502.81876Q432.67188 502.81876 432.39062 503.0375Q432.125 503.24063 432.01562 503.61563Q431.82812 504.17813 431.82812 504.83438L431.82812 508.1L430.78125 508.1ZM439.04688 506.1L440.14062 506.225Q439.89062 507.17813 439.1875 507.70938Q438.48438 508.24063 437.40625 508.24063Q436.04688 508.24063 435.23438 507.39688Q434.4375 506.55313 434.4375 505.0375Q434.4375 503.475 435.25 502.61563Q436.0625 501.74063 437.34375 501.74063Q438.59375 501.74063 439.375 502.58438Q440.17188 503.42813 440.17188 504.975Q440.17188 505.06876 440.17188 505.25626L435.53125 505.25626Q435.59375 506.2875 436.10938 506.83438Q436.625 507.36563 437.40625 507.36563Q437.98438 507.36563 438.39062 507.06876Q438.8125 506.75626 439.04688 506.1ZM435.59375 504.39688L439.0625 504.39688Q439.0 503.6 438.67188 503.20938Q438.15625 502.6 437.35938 502.6Q436.625 502.6 436.125 503.08438Q435.64062 503.56876 435.59375 504.39688ZM441.76562 508.1L441.76562 499.50626L442.82812 499.50626L442.82812 508.1L441.76562 508.1ZM444.40625 504.99063Q444.40625 503.25626 445.35938 502.42813Q446.15625 501.74063 447.3125 501.74063Q448.59375 501.74063 449.40625 502.58438Q450.23438 503.4125 450.23438 504.89688Q450.23438 506.1 449.875 506.7875Q449.51562 507.475 448.8125 507.86563Q448.125 508.24063 447.3125 508.24063Q446.01562 508.24063 445.20312 507.4125Q444.40625 506.56876 444.40625 504.99063ZM445.48438 504.99063Q445.48438 506.17813 446.0 506.77188Q446.53125 507.36563 447.3125 507.36563Q448.10938 507.36563 448.625 506.77188Q449.14062 506.17813 449.14062 504.95938Q449.14062 503.80313 448.60938 503.20938Q448.09375 502.61563 447.3125 502.61563Q446.53125 502.61563 446.0 503.20938Q445.48438 503.7875 445.48438 504.99063ZM455.85938 507.33438Q455.26562 507.83438 454.71875 508.0375Q454.1875 508.24063 453.5625 508.24063Q452.53125 508.24063 451.98438 507.74063Q451.4375 507.24063 451.4375 506.45938Q451.4375 506.00626 451.64062 505.63126Q451.84375 505.24063 452.1875 505.02188Q452.53125 504.7875 452.95312 504.67813Q453.25 504.58438 453.89062 504.50626Q455.15625 504.36563 455.76562 504.14688Q455.76562 503.92813 455.76562 503.88126Q455.76562 503.225 455.46875 502.95938Q455.0625 502.61563 454.26562 502.61563Q453.53125 502.61563 453.17188 502.88126Q452.8125 503.13126 452.64062 503.7875L451.60938 503.64688Q451.75 502.99063 452.07812 502.58438Q452.40625 502.17813 453.01562 501.95938Q453.625 501.74063 454.42188 501.74063Q455.21875 501.74063 455.71875 501.92813Q456.21875 502.11563 456.45312 502.39688Q456.6875 502.67813 456.78125 503.11563Q456.82812 503.38126 456.82812 504.08438L456.82812 505.49063Q456.82812 506.95938 456.89062 507.35Q456.96875 507.74063 457.17188 508.1L456.0625 508.1Q455.90625 507.77188 455.85938 507.33438ZM455.76562 504.975Q455.1875 505.20938 454.04688 505.38126Q453.39062 505.475 453.125 505.6Q452.85938 505.70938 452.70312 505.92813Q452.5625 506.14688 452.5625 506.42813Q452.5625 506.85 452.875 507.13126Q453.20312 507.4125 453.8125 507.4125Q454.42188 507.4125 454.89062 507.14688Q455.375 506.88126 455.59375 506.4125Q455.76562 506.05313 455.76562 505.36563L455.76562 504.975ZM462.82812 508.1L462.82812 507.31876Q462.23438 508.24063 461.09375 508.24063Q460.34375 508.24063 459.71875 507.83438Q459.09375 507.4125 458.75 506.67813Q458.40625 505.94376 458.40625 504.99063Q458.40625 504.06876 458.71875 503.30313Q459.03125 502.5375 459.65625 502.14688Q460.28125 501.74063 461.04688 501.74063Q461.60938 501.74063 462.04688 501.975Q462.48438 502.20938 462.76562 502.58438L462.76562 499.50626L463.8125 499.50626L463.8125 508.1L462.82812 508.1ZM459.5 504.99063Q459.5 506.19376 460.0 506.7875Q460.5 507.36563 461.1875 507.36563Q461.875 507.36563 462.35938 506.80313Q462.84375 506.24063 462.84375 505.08438Q462.84375 503.80313 462.34375 503.20938Q461.85938 502.61563 461.14062 502.61563Q460.4375 502.61563 459.96875 503.19376Q459.5 503.75626 459.5 504.99063ZM465.79688 500.725L465.79688 499.50626L466.85938 499.50626L466.85938 500.725L465.79688 500.725ZM465.79688 508.1L465.79688 501.88126L466.85938 501.88126L466.85938 508.1L465.79688 508.1ZM468.79688 508.1L468.79688 501.88126L469.73438 501.88126L469.73438 502.75626Q470.42188 501.74063 471.71875 501.74063Q472.28125 501.74063 472.75 501.94376Q473.23438 502.14688 473.46875 502.475Q473.70312 502.80313 473.79688 503.24063Q473.84375 503.5375 473.84375 504.27188L473.84375 508.1L472.79688 508.1L472.79688 504.31876Q472.79688 503.6625 472.67188 503.35Q472.54688 503.0375 472.23438 502.85Q471.92188 502.64688 471.5 502.64688Q470.82812 502.64688 470.32812 503.08438Q469.84375 503.50626 469.84375 504.69376L469.84375 508.1L468.79688 508.1ZM475.59375 508.61563L476.625 508.77188Q476.6875 509.24063 476.98438 509.45938Q477.375 509.75626 478.04688 509.75626Q478.78125 509.75626 479.17188 509.45938Q479.57812 509.1625 479.71875 508.64688Q479.8125 508.31876 479.79688 507.2875Q479.10938 508.1 478.07812 508.1Q476.79688 508.1 476.09375 507.17813Q475.39062 506.24063 475.39062 504.95938Q475.39062 504.06876 475.70312 503.31876Q476.03125 502.55313 476.64062 502.14688Q477.25 501.74063 478.07812 501.74063Q479.1875 501.74063 479.90625 502.63126L479.90625 501.88126L480.875 501.88126L480.875 507.25626Q480.875 508.70938 480.57812 509.31876Q480.28125 509.92813 479.64062 510.27188Q479.0 510.63126 478.0625 510.63126Q476.95312 510.63126 476.26562 510.13126Q475.57812 509.63126 475.59375 508.61563ZM476.46875 504.88126Q476.46875 506.1 476.95312 506.6625Q477.4375 507.225 478.17188 507.225Q478.90625 507.225 479.39062 506.6625Q479.89062 506.1 479.89062 504.9125Q479.89062 503.77188 479.375 503.19376Q478.875 502.61563 478.15625 502.61563Q477.45312 502.61563 476.95312 503.19376Q476.46875 503.75626 476.46875 504.88126Z" fill-rule="nonzero"/><path fill="#000000" d="M604.6005 503.9125Q604.6005 501.77188 605.74115 500.56876Q606.8974 499.35 608.7099 499.35Q609.913 499.35 610.86615 499.92813Q611.8193 500.49063 612.3193 501.50626Q612.8193 502.52188 612.8193 503.81876Q612.8193 505.11563 612.288 506.14688Q611.7568 507.17813 610.788 507.70938Q609.8349 508.24063 608.7099 508.24063Q607.49115 508.24063 606.538 507.6625Q605.5849 507.06876 605.0849 506.06876Q604.6005 505.05313 604.6005 503.9125ZM605.7724 503.92813Q605.7724 505.49063 606.6005 506.38126Q607.4443 507.27188 608.7099 507.27188Q609.99115 507.27188 610.8193 506.38126Q611.6474 505.475 611.6474 503.80313Q611.6474 502.75626 611.288 501.975Q610.9443 501.19376 610.2568 500.77188Q609.5693 500.33438 608.7255 500.33438Q607.5224 500.33438 606.6474 501.1625Q605.7724 501.99063 605.7724 503.92813ZM613.8193 510.49063L613.8193 501.88126L614.7724 501.88126L614.7724 502.67813Q615.11615 502.20938 615.538 501.975Q615.9755 501.74063 616.5849 501.74063Q617.3818 501.74063 617.99115 502.14688Q618.6005 502.55313 618.8974 503.30313Q619.2099 504.05313 619.2099 504.94376Q619.2099 505.89688 618.86615 506.6625Q618.538 507.42813 617.8818 507.83438Q617.2255 508.24063 616.5068 508.24063Q615.9755 508.24063 615.55365 508.02188Q615.1318 507.7875 614.86615 507.45938L614.86615 510.49063L613.8193 510.49063ZM614.7724 505.02188Q614.7724 506.225 615.2568 506.80313Q615.74115 507.36563 616.42865 507.36563Q617.1318 507.36563 617.6318 506.77188Q618.1318 506.17813 618.1318 504.92813Q618.1318 503.74063 617.6474 503.1625Q617.163 502.56876 616.4755 502.56876Q615.80365 502.56876 615.288 503.19376Q614.7724 503.81876 614.7724 505.02188ZM623.11615 507.1625L623.2724 508.08438Q622.8193 508.17813 622.4755 508.17813Q621.8974 508.17813 621.5849 508.00626Q621.2724 507.81876 621.1318 507.52188Q621.0068 507.225 621.0068 506.27188L621.0068 502.69376L620.24115 502.69376L620.24115 501.88126L621.0068 501.88126L621.0068 500.33438L622.05365 499.70938L622.05365 501.88126L623.11615 501.88126L623.11615 502.69376L622.05365 502.69376L622.05365 506.33438Q622.05365 506.7875 622.1005 506.9125Q622.163 507.0375 622.288 507.11563Q622.413 507.19376 622.6474 507.19376Q622.8349 507.19376 623.11615 507.1625ZM623.8193 500.725L623.8193 499.50626L624.8818 499.50626L624.8818 500.725L623.8193 500.725ZM623.8193 508.1L623.8193 501.88126L624.8818 501.88126L624.8818 508.1L623.8193 508.1ZM626.8193 508.1L626.8193 501.88126L627.7568 501.88126L627.7568 502.75626Q628.05365 502.2875 628.538 502.02188Q629.0224 501.74063 629.6474 501.74063Q630.3349 501.74063 630.7724 502.02188Q631.2255 502.30313 631.3974 502.81876Q632.1474 501.74063 633.3193 501.74063Q634.2568 501.74063 634.74115 502.25626Q635.24115 502.75626 635.24115 503.83438L635.24115 508.1L634.1943 508.1L634.1943 504.17813Q634.1943 503.55313 634.0849 503.27188Q633.99115 502.99063 633.7255 502.81876Q633.4599 502.64688 633.0849 502.64688Q632.42865 502.64688 631.99115 503.08438Q631.5693 503.52188 631.5693 504.49063L631.5693 508.1L630.5068 508.1L630.5068 504.05313Q630.5068 503.35 630.24115 503.00626Q629.99115 502.64688 629.413 502.64688Q628.9599 502.64688 628.5849 502.88126Q628.2099 503.11563 628.038 503.56876Q627.86615 504.02188 627.86615 504.86563L627.86615 508.1L626.8193 508.1ZM636.8193 500.725L636.8193 499.50626L637.8818 499.50626L637.8818 500.725L636.8193 500.725ZM636.8193 508.1L636.8193 501.88126L637.8818 501.88126L637.8818 508.1L636.8193 508.1ZM639.3974 506.24063L640.42865 506.08438Q640.5224 506.70938 640.913 507.0375Q641.3193 507.36563 642.05365 507.36563Q642.7724 507.36563 643.11615 507.08438Q643.4755 506.7875 643.4755 506.38126Q643.4755 506.02188 643.163 505.81876Q642.9443 505.67813 642.0849 505.45938Q640.92865 505.1625 640.4755 504.95938Q640.038 504.74063 639.80365 504.36563Q639.5693 503.99063 639.5693 503.52188Q639.5693 503.11563 639.7568 502.75626Q639.9443 502.39688 640.2724 502.1625Q640.5224 501.99063 640.9443 501.86563Q641.36615 501.74063 641.86615 501.74063Q642.5849 501.74063 643.1318 501.95938Q643.6943 502.1625 643.9599 502.52188Q644.2255 502.88126 644.3193 503.475L643.288 503.61563Q643.2255 503.14688 642.8818 502.88126Q642.55365 502.6 641.92865 502.6Q641.2099 502.6 640.8974 502.85Q640.5849 503.08438 640.5849 503.4125Q640.5849 503.61563 640.7099 503.77188Q640.8505 503.94376 641.11615 504.05313Q641.2724 504.11563 642.05365 504.31876Q643.17865 504.63126 643.61615 504.81876Q644.05365 505.00626 644.30365 505.36563Q644.55365 505.725 644.55365 506.27188Q644.55365 506.80313 644.24115 507.27188Q643.9443 507.725 643.36615 507.99063Q642.788 508.24063 642.05365 508.24063Q640.8349 508.24063 640.1943 507.74063Q639.5693 507.225 639.3974 506.24063ZM650.0693 506.1L651.163 506.225Q650.913 507.17813 650.2099 507.70938Q649.5068 508.24063 648.42865 508.24063Q647.0693 508.24063 646.2568 507.39688Q645.4599 506.55313 645.4599 505.0375Q645.4599 503.475 646.2724 502.61563Q647.0849 501.74063 648.36615 501.74063Q649.61615 501.74063 650.3974 502.58438Q651.1943 503.42813 651.1943 504.975Q651.1943 505.06876 651.1943 505.25626L646.55365 505.25626Q646.61615 506.2875 647.1318 506.83438Q647.6474 507.36563 648.42865 507.36563Q649.0068 507.36563 649.413 507.06876Q649.8349 506.75626 650.0693 506.1ZM646.61615 504.39688L650.0849 504.39688Q650.0224 503.6 649.6943 503.20938Q649.17865 502.6 648.3818 502.6Q647.6474 502.6 647.1474 503.08438Q646.663 503.56876 646.61615 504.39688ZM656.8505 508.1L656.8505 507.31876Q656.2568 508.24063 655.11615 508.24063Q654.36615 508.24063 653.74115 507.83438Q653.11615 507.4125 652.7724 506.67813Q652.42865 505.94376 652.42865 504.99063Q652.42865 504.06876 652.74115 503.30313Q653.05365 502.5375 653.67865 502.14688Q654.30365 501.74063 655.0693 501.74063Q655.6318 501.74063 656.0693 501.975Q656.5068 502.20938 656.788 502.58438L656.788 499.50626L657.8349 499.50626L657.8349 508.1L656.8505 508.1ZM653.5224 504.99063Q653.5224 506.19376 654.0224 506.7875Q654.5224 507.36563 655.2099 507.36563Q655.8974 507.36563 656.3818 506.80313Q656.86615 506.24063 656.86615 505.08438Q656.86615 503.80313 656.36615 503.20938Q655.8818 502.61563 655.163 502.61563Q654.4599 502.61563 653.99115 503.19376Q653.5224 503.75626 653.5224 504.99063ZM662.8193 510.49063L662.8193 501.88126L663.7724 501.88126L663.7724 502.67813Q664.11615 502.20938 664.538 501.975Q664.9755 501.74063 665.5849 501.74063Q666.3818 501.74063 666.99115 502.14688Q667.6005 502.55313 667.8974 503.30313Q668.2099 504.05313 668.2099 504.94376Q668.2099 505.89688 667.86615 506.6625Q667.538 507.42813 666.8818 507.83438Q666.2255 508.24063 665.5068 508.24063Q664.9755 508.24063 664.55365 508.02188Q664.1318 507.7875 663.86615 507.45938L663.86615 510.49063L662.8193 510.49063ZM663.7724 505.02188Q663.7724 506.225 664.2568 506.80313Q664.74115 507.36563 665.42865 507.36563Q666.1318 507.36563 666.6318 506.77188Q667.1318 506.17813 667.1318 504.92813Q667.1318 503.74063 666.6474 503.1625Q666.163 502.56876 665.4755 502.56876Q664.80365 502.56876 664.288 503.19376Q663.7724 503.81876 663.7724 505.02188ZM669.80365 508.1L669.80365 501.88126L670.7568 501.88126L670.7568 502.81876Q671.11615 502.1625 671.413 501.95938Q671.7255 501.74063 672.1005 501.74063Q672.6318 501.74063 673.17865 502.06876L672.8193 503.05313Q672.42865 502.81876 672.05365 502.81876Q671.6943 502.81876 671.413 503.0375Q671.1474 503.24063 671.038 503.61563Q670.8505 504.17813 670.8505 504.83438L670.8505 508.1L669.80365 508.1ZM678.0693 506.1L679.163 506.225Q678.913 507.17813 678.2099 507.70938Q677.5068 508.24063 676.42865 508.24063Q675.0693 508.24063 674.2568 507.39688Q673.4599 506.55313 673.4599 505.0375Q673.4599 503.475 674.2724 502.61563Q675.0849 501.74063 676.36615 501.74063Q677.61615 501.74063 678.3974 502.58438Q679.1943 503.42813 679.1943 504.975Q679.1943 505.06876 679.1943 505.25626L674.55365 505.25626Q674.61615 506.2875 675.1318 506.83438Q675.6474 507.36563 676.42865 507.36563Q677.0068 507.36563 677.413 507.06876Q677.8349 506.75626 678.0693 506.1ZM674.61615 504.39688L678.0849 504.39688Q678.0224 503.6 677.6943 503.20938Q677.17865 502.6 676.3818 502.6Q675.6474 502.6 675.1474 503.08438Q674.663 503.56876 674.61615 504.39688ZM680.788 508.1L680.788 499.50626L681.8505 499.50626L681.8505 508.1L680.788 508.1ZM683.42865 504.99063Q683.42865 503.25626 684.3818 502.42813Q685.17865 501.74063 686.3349 501.74063Q687.61615 501.74063 688.42865 502.58438Q689.2568 503.4125 689.2568 504.89688Q689.2568 506.1 688.8974 506.7875Q688.538 507.475 687.8349 507.86563Q687.1474 508.24063 686.3349 508.24063Q685.038 508.24063 684.2255 507.4125Q683.42865 506.56876 683.42865 504.99063ZM684.5068 504.99063Q684.5068 506.17813 685.0224 506.77188Q685.55365 507.36563 686.3349 507.36563Q687.1318 507.36563 687.6474 506.77188Q688.163 506.17813 688.163 504.95938Q688.163 503.80313 687.6318 503.20938Q687.11615 502.61563 686.3349 502.61563Q685.55365 502.61563 685.0224 503.20938Q684.5068 503.7875 684.5068 504.99063ZM694.8818 507.33438Q694.288 507.83438 693.74115 508.0375Q693.2099 508.24063 692.5849 508.24063Q691.55365 508.24063 691.0068 507.74063Q690.4599 507.24063 690.4599 506.45938Q690.4599 506.00626 690.663 505.63126Q690.86615 505.24063 691.2099 505.02188Q691.55365 504.7875 691.9755 504.67813Q692.2724 504.58438 692.913 504.50626Q694.17865 504.36563 694.788 504.14688Q694.788 503.92813 694.788 503.88126Q694.788 503.225 694.49115 502.95938Q694.0849 502.61563 693.288 502.61563Q692.55365 502.61563 692.1943 502.88126Q691.8349 503.13126 691.663 503.7875L690.6318 503.64688Q690.7724 502.99063 691.1005 502.58438Q691.42865 502.17813 692.038 501.95938Q692.6474 501.74063 693.4443 501.74063Q694.24115 501.74063 694.74115 501.92813Q695.24115 502.11563 695.4755 502.39688Q695.7099 502.67813 695.80365 503.11563Q695.8505 503.38126 695.8505 504.08438L695.8505 505.49063Q695.8505 506.95938 695.913 507.35Q695.99115 507.74063 696.1943 508.1L695.0849 508.1Q694.92865 507.77188 694.8818 507.33438ZM694.788 504.975Q694.2099 505.20938 693.0693 505.38126Q692.413 505.475 692.1474 505.6Q691.8818 505.70938 691.7255 505.92813Q691.5849 506.14688 691.5849 506.42813Q691.5849 506.85 691.8974 507.13126Q692.2255 507.4125 692.8349 507.4125Q693.4443 507.4125 693.913 507.14688Q694.3974 506.88126 694.61615 506.4125Q694.788 506.05313 694.788 505.36563L694.788 504.975ZM701.8505 508.1L701.8505 507.31876Q701.2568 508.24063 700.11615 508.24063Q699.36615 508.24063 698.74115 507.83438Q698.11615 507.4125 697.7724 506.67813Q697.42865 505.94376 697.42865 504.99063Q697.42865 504.06876 697.74115 503.30313Q698.05365 502.5375 698.67865 502.14688Q699.30365 501.74063 700.0693 501.74063Q700.6318 501.74063 701.0693 501.975Q701.5068 502.20938 701.788 502.58438L701.788 499.50626L702.8349 499.50626L702.8349 508.1L701.8505 508.1ZM698.5224 504.99063Q698.5224 506.19376 699.0224 506.7875Q699.5224 507.36563 700.2099 507.36563Q700.8974 507.36563 701.3818 506.80313Q701.86615 506.24063 701.86615 505.08438Q701.86615 503.80313 701.36615 503.20938Q700.8818 502.61563 700.163 502.61563Q699.4599 502.61563 698.99115 503.19376Q698.5224 503.75626 698.5224 504.99063ZM704.8193 500.725L704.8193 499.50626L705.8818 499.50626L705.8818 500.725L704.8193 500.725ZM704.8193 508.1L704.8193 501.88126L705.8818 501.88126L705.8818 508.1L704.8193 508.1ZM707.8193 508.1L707.8193 501.88126L708.7568 501.88126L708.7568 502.75626Q709.4443 501.74063 710.74115 501.74063Q711.30365 501.74063 711.7724 501.94376Q712.2568 502.14688 712.49115 502.475Q712.7255 502.80313 712.8193 503.24063Q712.86615 503.5375 712.86615 504.27188L712.86615 508.1L711.8193 508.1L711.8193 504.31876Q711.8193 503.6625 711.6943 503.35Q711.5693 503.0375 711.2568 502.85Q710.9443 502.64688 710.5224 502.64688Q709.8505 502.64688 709.3505 503.08438Q708.86615 503.50626 708.86615 504.69376L708.86615 508.1L707.8193 508.1ZM714.61615 508.61563L715.6474 508.77188Q715.7099 509.24063 716.0068 509.45938Q716.3974 509.75626 717.0693 509.75626Q717.80365 509.75626 718.1943 509.45938Q718.6005 509.1625 718.74115 508.64688Q718.8349 508.31876 718.8193 507.2875Q718.1318 508.1 717.1005 508.1Q715.8193 508.1 715.11615 507.17813Q714.413 506.24063 714.413 504.95938Q714.413 504.06876 714.7255 503.31876Q715.05365 502.55313 715.663 502.14688Q716.2724 501.74063 717.1005 501.74063Q718.2099 501.74063 718.92865 502.63126L718.92865 501.88126L719.8974 501.88126L719.8974 507.25626Q719.8974 508.70938 719.6005 509.31876Q719.30365 509.92813 718.663 510.27188Q718.0224 510.63126 717.0849 510.63126Q715.9755 510.63126 715.288 510.13126Q714.6005 509.63126 714.61615 508.61563ZM715.49115 504.88126Q715.49115 506.1 715.9755 506.6625Q716.4599 507.225 717.1943 507.225Q717.92865 507.225 718.413 506.6625Q718.913 506.1 718.913 504.9125Q718.913 503.77188 718.3974 503.19376Q717.8974 502.61563 717.17865 502.61563Q716.4755 502.61563 715.9755 503.19376Q715.49115 503.75626 715.49115 504.88126Z" fill-rule="nonzero"/><path fill="#4285f4" d="M344.5 28.9C344.5 28.347715 344.94772 27.9 345.5 27.9L355.5 27.9C356.05228 27.9 356.5 28.347715 356.5 28.9L356.5 38.9C356.5 39.452286 356.05228 39.9 355.5 39.9L345.5 39.9C344.94772 39.9 344.5 39.452286 344.5 38.9Z" fill-rule="nonzero"/><path fill="#1a1a1a" d="M365.28125 37.9L365.28125 31.681252L366.23438 31.681252L366.23438 32.61875Q366.59375 31.962502 366.89062 31.759377Q367.20312 31.540627 367.57812 31.540627Q368.10938 31.540627 368.65625 31.868752L368.29688 32.853127Q367.90625 32.61875 367.53125 32.61875Q367.17188 32.61875 366.89062 32.8375Q366.625 33.040627 366.51562 33.415627Q366.32812 33.978127 366.32812 34.634377L366.32812 37.9L365.28125 37.9ZM373.54688 35.9L374.64062 36.025Q374.39062 36.978127 373.6875 37.509377Q372.98438 38.040627 371.90625 38.040627Q370.54688 38.040627 369.73438 37.196877Q368.9375 36.353127 368.9375 34.8375Q368.9375 33.275 369.75 32.415627Q370.5625 31.540627 371.84375 31.540627Q373.09375 31.540627 373.875 32.384377Q374.67188 33.228127 374.67188 34.775Q374.67188 34.86875 374.67188 35.05625L370.03125 35.05625Q370.09375 36.0875 370.60938 36.634377Q371.125 37.165627 371.90625 37.165627Q372.48438 37.165627 372.89062 36.86875Q373.3125 36.55625 373.54688 35.9ZM370.09375 34.196877L373.5625 34.196877Q373.5 33.4 373.17188 33.009377Q372.65625 32.4 371.85938 32.4Q371.125 32.4 370.625 32.884377Q370.14062 33.36875 370.09375 34.196877ZM380.26562 40.290627L380.26562 37.24375Q380.01562 37.5875 379.5625 37.821877Q379.125 38.040627 378.625 38.040627Q377.51562 38.040627 376.71875 37.165627Q375.92188 36.275 375.92188 34.728127Q375.92188 33.790627 376.25 33.05625Q376.57812 32.30625 377.1875 31.931252Q377.8125 31.540627 378.54688 31.540627Q379.70312 31.540627 380.35938 32.509377L380.35938 31.681252L381.3125 31.681252L381.3125 40.290627L380.26562 40.290627ZM377.0 34.775Q377.0 35.978127 377.5 36.571877Q378.01562 37.165627 378.71875 37.165627Q379.39062 37.165627 379.875 36.603127Q380.35938 36.025 380.35938 34.86875Q380.35938 33.61875 379.84375 32.99375Q379.34375 32.36875 378.64062 32.36875Q377.96875 32.36875 377.48438 32.9625Q377.0 33.540627 377.0 34.775ZM382.5 38.040627L384.98438 29.165627L385.82812 29.165627L383.34375 38.040627L382.5 38.040627ZM385.875 36.040627L386.90625 35.884377Q387.0 36.509377 387.39062 36.8375Q387.79688 37.165627 388.53125 37.165627Q389.25 37.165627 389.59375 36.884377Q389.95312 36.5875 389.95312 36.18125Q389.95312 35.821877 389.64062 35.61875Q389.42188 35.478127 388.5625 35.259377Q387.40625 34.9625 386.95312 34.759377Q386.51562 34.540627 386.28125 34.165627Q386.04688 33.790627 386.04688 33.321877Q386.04688 32.915627 386.23438 32.55625Q386.42188 32.196877 386.75 31.962502Q387.0 31.790627 387.42188 31.665627Q387.84375 31.540627 388.34375 31.540627Q389.0625 31.540627 389.60938 31.759377Q390.17188 31.962502 390.4375 32.321877Q390.70312 32.68125 390.79688 33.275L389.76562 33.415627Q389.70312 32.946877 389.35938 32.68125Q389.03125 32.4 388.40625 32.4Q387.6875 32.4 387.375 32.65Q387.0625 32.884377 387.0625 33.2125Q387.0625 33.415627 387.1875 33.571877Q387.32812 33.74375 387.59375 33.853127Q387.75 33.915627 388.53125 34.11875Q389.65625 34.43125 390.09375 34.61875Q390.53125 34.80625 390.78125 35.165627Q391.03125 35.525 391.03125 36.071877Q391.03125 36.603127 390.71875 37.071877Q390.42188 37.525 389.84375 37.790627Q389.26562 38.040627 388.53125 38.040627Q387.3125 38.040627 386.67188 37.540627Q386.04688 37.025 385.875 36.040627ZM397.3125 40.43125Q396.4375 39.321877 395.82812 37.853127Q395.23438 36.36875 395.23438 34.790627Q395.23438 33.4 395.67188 32.11875Q396.20312 30.634377 397.3125 29.165627L398.0625 29.165627Q397.35938 30.384377 397.125 30.900002Q396.76562 31.712502 396.5625 32.5875Q396.3125 33.68125 396.3125 34.790627Q396.3125 37.61875 398.0625 40.43125L397.3125 40.43125ZM399.10938 38.040627L399.60938 35.55625L398.625 35.55625L398.625 34.68125L399.79688 34.68125L400.21875 32.55625L398.625 32.55625L398.625 31.681252L400.40625 31.681252L400.90625 29.165627L401.78125 29.165627L401.28125 31.681252L403.125 31.681252L403.64062 29.165627L404.51562 29.165627L404.01562 31.681252L405.01562 31.681252L405.01562 32.55625L403.82812 32.55625L403.39062 34.68125L405.01562 34.68125L405.01562 35.55625L403.21875 35.55625L402.70312 38.040627L401.82812 38.040627L402.32812 35.55625L400.5 35.55625L399.98438 38.040627L399.10938 38.040627ZM400.67188 34.68125L402.51562 34.68125L402.95312 32.55625L401.10938 32.55625L400.67188 34.68125ZM405.5 38.040627L407.98438 29.165627L408.82812 29.165627L406.34375 38.040627L405.5 38.040627ZM408.875 36.040627L409.90625 35.884377Q410.0 36.509377 410.39062 36.8375Q410.79688 37.165627 411.53125 37.165627Q412.25 37.165627 412.59375 36.884377Q412.95312 36.5875 412.95312 36.18125Q412.95312 35.821877 412.64062 35.61875Q412.42188 35.478127 411.5625 35.259377Q410.40625 34.9625 409.95312 34.759377Q409.51562 34.540627 409.28125 34.165627Q409.04688 33.790627 409.04688 33.321877Q409.04688 32.915627 409.23438 32.55625Q409.42188 32.196877 409.75 31.962502Q410.0 31.790627 410.42188 31.665627Q410.84375 31.540627 411.34375 31.540627Q412.0625 31.540627 412.60938 31.759377Q413.17188 31.962502 413.4375 32.321877Q413.70312 32.68125 413.79688 33.275L412.76562 33.415627Q412.70312 32.946877 412.35938 32.68125Q412.03125 32.4 411.40625 32.4Q410.6875 32.4 410.375 32.65Q410.0625 32.884377 410.0625 33.2125Q410.0625 33.415627 410.1875 33.571877Q410.32812 33.74375 410.59375 33.853127Q410.75 33.915627 411.53125 34.11875Q412.65625 34.43125 413.09375 34.61875Q413.53125 34.80625 413.78125 35.165627Q414.03125 35.525 414.03125 36.071877Q414.03125 36.603127 413.71875 37.071877Q413.42188 37.525 412.84375 37.790627Q412.26562 38.040627 411.53125 38.040627Q410.3125 38.040627 409.67188 37.540627Q409.04688 37.025 408.875 36.040627ZM415.98438 40.43125L415.23438 40.43125Q416.98438 37.61875 416.98438 34.790627Q416.98438 33.696877 416.73438 32.603127Q416.53125 31.728127 416.17188 30.915627Q415.9375 30.400002 415.23438 29.165627L415.98438 29.165627Q417.07812 30.634377 417.60938 32.11875Q418.0625 33.4 418.0625 34.790627Q418.0625 36.36875 417.45312 37.853127Q416.84375 39.321877 415.98438 40.43125Z" fill-rule="nonzero"/><path fill="#ea4335" d="M434.5 28.9C434.5 28.347715 434.94772 27.9 435.5 27.9L445.5 27.9C446.05228 27.9 446.5 28.347715 446.5 28.9L446.5 38.9C446.5 39.452286 446.05228 39.9 445.5 39.9L435.5 39.9C434.94772 39.9 434.5 39.452286 434.5 38.9Z" fill-rule="nonzero"/><path fill="#1a1a1a" d="M457.59375 36.9625L457.75 37.884377Q457.29688 37.978127 456.95312 37.978127Q456.375 37.978127 456.0625 37.80625Q455.75 37.61875 455.60938 37.321877Q455.48438 37.025 455.48438 36.071877L455.48438 32.49375L454.71875 32.49375L454.71875 31.681252L455.48438 31.681252L455.48438 30.134377L456.53125 29.509377L456.53125 31.681252L457.59375 31.681252L457.59375 32.49375L456.53125 32.49375L456.53125 36.134377Q456.53125 36.5875 456.57812 36.7125Q456.64062 36.8375 456.76562 36.915627Q456.89062 36.99375 457.125 36.99375Q457.3125 36.99375 457.59375 36.9625ZM458.29688 30.525002L458.29688 29.306252L459.35938 29.306252L459.35938 30.525002L458.29688 30.525002ZM458.29688 37.9L458.29688 31.681252L459.35938 31.681252L459.35938 37.9L458.29688 37.9ZM461.29688 37.9L461.29688 31.681252L462.23438 31.681252L462.23438 32.55625Q462.53125 32.0875 463.01562 31.821877Q463.5 31.540627 464.125 31.540627Q464.8125 31.540627 465.25 31.821877Q465.70312 32.103127 465.875 32.61875Q466.625 31.540627 467.79688 31.540627Q468.73438 31.540627 469.21875 32.05625Q469.71875 32.55625 469.71875 33.634377L469.71875 37.9L468.67188 37.9L468.67188 33.978127Q468.67188 33.353127 468.5625 33.071877Q468.46875 32.790627 468.20312 32.61875Q467.9375 32.446877 467.5625 32.446877Q466.90625 32.446877 466.46875 32.884377Q466.04688 33.321877 466.04688 34.290627L466.04688 37.9L464.98438 37.9L464.98438 33.853127Q464.98438 33.15 464.71875 32.80625Q464.46875 32.446877 463.89062 32.446877Q463.4375 32.446877 463.0625 32.68125Q462.6875 32.915627 462.51562 33.36875Q462.34375 33.821877 462.34375 34.665627L462.34375 37.9L461.29688 37.9ZM475.54688 35.9L476.64062 36.025Q476.39062 36.978127 475.6875 37.509377Q474.98438 38.040627 473.90625 38.040627Q472.54688 38.040627 471.73438 37.196877Q470.9375 36.353127 470.9375 34.8375Q470.9375 33.275 471.75 32.415627Q472.5625 31.540627 473.84375 31.540627Q475.09375 31.540627 475.875 32.384377Q476.67188 33.228127 476.67188 34.775Q476.67188 34.86875 476.67188 35.05625L472.03125 35.05625Q472.09375 36.0875 472.60938 36.634377Q473.125 37.165627 473.90625 37.165627Q474.48438 37.165627 474.89062 36.86875Q475.3125 36.55625 475.54688 35.9ZM472.09375 34.196877L475.5625 34.196877Q475.5 33.4 475.17188 33.009377Q474.65625 32.4 473.85938 32.4Q473.125 32.4 472.625 32.884377Q472.14062 33.36875 472.09375 34.196877ZM477.5 38.040627L479.98438 29.165627L480.82812 29.165627L478.34375 38.040627L477.5 38.040627ZM481.28125 37.9L481.28125 31.681252L482.23438 31.681252L482.23438 32.61875Q482.59375 31.962502 482.89062 31.759377Q483.20312 31.540627 483.57812 31.540627Q484.10938 31.540627 484.65625 31.868752L484.29688 32.853127Q483.90625 32.61875 483.53125 32.61875Q483.17188 32.61875 482.89062 32.8375Q482.625 33.040627 482.51562 33.415627Q482.32812 33.978127 482.32812 34.634377L482.32812 37.9L481.28125 37.9ZM489.54688 35.9L490.64062 36.025Q490.39062 36.978127 489.6875 37.509377Q488.98438 38.040627 487.90625 38.040627Q486.54688 38.040627 485.73438 37.196877Q484.9375 36.353127 484.9375 34.8375Q484.9375 33.275 485.75 32.415627Q486.5625 31.540627 487.84375 31.540627Q489.09375 31.540627 489.875 32.384377Q490.67188 33.228127 490.67188 34.775Q490.67188 34.86875 490.67188 35.05625L486.03125 35.05625Q486.09375 36.0875 486.60938 36.634377Q487.125 37.165627 487.90625 37.165627Q488.48438 37.165627 488.89062 36.86875Q489.3125 36.55625 489.54688 35.9ZM486.09375 34.196877L489.5625 34.196877Q489.5 33.4 489.17188 33.009377Q488.65625 32.4 487.85938 32.4Q487.125 32.4 486.625 32.884377Q486.14062 33.36875 486.09375 34.196877ZM496.26562 40.290627L496.26562 37.24375Q496.01562 37.5875 495.5625 37.821877Q495.125 38.040627 494.625 38.040627Q493.51562 38.040627 492.71875 37.165627Q491.92188 36.275 491.92188 34.728127Q491.92188 33.790627 492.25 33.05625Q492.57812 32.30625 493.1875 31.931252Q493.8125 31.540627 494.54688 31.540627Q495.70312 31.540627 496.35938 32.509377L496.35938 31.681252L497.3125 31.681252L497.3125 40.290627L496.26562 40.290627ZM493.0 34.775Q493.0 35.978127 493.5 36.571877Q494.01562 37.165627 494.71875 37.165627Q495.39062 37.165627 495.875 36.603127Q496.35938 36.025 496.35938 34.86875Q496.35938 33.61875 495.84375 32.99375Q495.34375 32.36875 494.64062 32.36875Q493.96875 32.36875 493.48438 32.9625Q493.0 33.540627 493.0 34.775ZM504.3125 40.43125Q503.4375 39.321877 502.82812 37.853127Q502.23438 36.36875 502.23438 34.790627Q502.23438 33.4 502.67188 32.11875Q503.20312 30.634377 504.3125 29.165627L505.0625 29.165627Q504.35938 30.384377 504.125 30.900002Q503.76562 31.712502 503.5625 32.5875Q503.3125 33.68125 503.3125 34.790627Q503.3125 37.61875 505.0625 40.43125L504.3125 40.43125ZM506.29688 37.9L506.29688 31.681252L507.23438 31.681252L507.23438 32.55625Q507.53125 32.0875 508.01562 31.821877Q508.5 31.540627 509.125 31.540627Q509.8125 31.540627 510.25 31.821877Q510.70312 32.103127 510.875 32.61875Q511.625 31.540627 512.7969 31.540627Q513.7344 31.540627 514.21875 32.05625Q514.71875 32.55625 514.71875 33.634377L514.71875 37.9L513.6719 37.9L513.6719 33.978127Q513.6719 33.353127 513.5625 33.071877Q513.46875 32.790627 513.2031 32.61875Q512.9375 32.446877 512.5625 32.446877Q511.90625 32.446877 511.46875 32.884377Q511.04688 33.321877 511.04688 34.290627L511.04688 37.9L509.98438 37.9L509.98438 33.853127Q509.98438 33.15 509.71875 32.80625Q509.46875 32.446877 508.89062 32.446877Q508.4375 32.446877 508.0625 32.68125Q507.6875 32.915627 507.51562 33.36875Q507.34375 33.821877 507.34375 34.665627L507.34375 37.9L506.29688 37.9ZM515.875 36.040627L516.90625 35.884377Q517.0 36.509377 517.3906 36.8375Q517.7969 37.165627 518.53125 37.165627Q519.25 37.165627 519.59375 36.884377Q519.9531 36.5875 519.9531 36.18125Q519.9531 35.821877 519.6406 35.61875Q519.4219 35.478127 518.5625 35.259377Q517.40625 34.9625 516.9531 34.759377Q516.5156 34.540627 516.28125 34.165627Q516.0469 33.790627 516.0469 33.321877Q516.0469 32.915627 516.2344 32.55625Q516.4219 32.196877 516.75 31.962502Q517.0 31.790627 517.4219 31.665627Q517.84375 31.540627 518.34375 31.540627Q519.0625 31.540627 519.6094 31.759377Q520.1719 31.962502 520.4375 32.321877Q520.7031 32.68125 520.7969 33.275L519.7656 33.415627Q519.7031 32.946877 519.3594 32.68125Q519.03125 32.4 518.40625 32.4Q517.6875 32.4 517.375 32.65Q517.0625 32.884377 517.0625 33.2125Q517.0625 33.415627 517.1875 33.571877Q517.3281 33.74375 517.59375 33.853127Q517.75 33.915627 518.53125 34.11875Q519.65625 34.43125 520.09375 34.61875Q520.53125 34.80625 520.78125 35.165627Q521.03125 35.525 521.03125 36.071877Q521.03125 36.603127 520.71875 37.071877Q520.4219 37.525 519.84375 37.790627Q519.2656 38.040627 518.53125 38.040627Q517.3125 38.040627 516.6719 37.540627Q516.0469 37.025 515.875 36.040627ZM522.9844 40.43125L522.2344 40.43125Q523.9844 37.61875 523.9844 34.790627Q523.9844 33.696877 523.7344 32.603127Q523.53125 31.728127 523.1719 30.915627Q522.9375 30.400002 522.2344 29.165627L522.9844 29.165627Q524.0781 30.634377 524.6094 32.11875Q525.0625 33.4 525.0625 34.790627Q525.0625 36.36875 524.4531 37.853127Q523.84375 39.321877 522.9844 40.43125Z" fill-rule="nonzero"/></svg>