<svg version="1.1" viewBox="0.0 0.0 729.0 475.0" fill="none" stroke="none" stroke-linecap="square" stroke-miterlimit="10" width="729" height="475" xmlns:xlink="http://www.w3.org/1999/xlink" xmlns="http://www.w3.org/2000/svg"><path fill="#ffffff" d="M0 0L729.0 0L729.0 475.0L0 475.0L0 0Z" fill-rule="nonzero"/><path stroke="#333333" stroke-width="1.0" stroke-linecap="butt" d="M82.5 431.5L705.5 431.5" fill-rule="nonzero"/><path stroke="#cccccc" stroke-width="1.0" stroke-linecap="butt" d="M82.5 331.5L705.5 331.5" fill-rule="nonzero"/><path stroke="#cccccc" stroke-width="1.0" stroke-linecap="butt" d="M82.5 231.5L705.5 231.5" fill-rule="nonzero"/><path stroke="#cccccc" stroke-width="1.0" stroke-linecap="butt" d="M82.5 130.5L705.5 130.5" fill-rule="nonzero"/><path stroke="#cccccc" stroke-width="1.0" stroke-linecap="butt" d="M82.5 30.5L705.5 30.5" fill-rule="nonzero"/><clipPath id="id_0"><path d="M82.75 30.75L705.25 30.75L705.25 431.25L82.75 431.25L82.75 30.75Z" clip-rule="nonzero"/></clipPath><path stroke="#000000" stroke-width="0.0" stroke-linecap="butt" stroke-opacity="0.0" clip-path="url(#id_0)" d="M269.0 431.0L148.0 431.0L148.0 174.0C148.0 172.89543 148.89543 172.0 150.0 172.0L267.0 172.0C268.10458 172.0 269.0 172.89543 269.0 174.0Z" fill-rule="nonzero"/><path fill="#4285f4" clip-path="url(#id_0)" d="M269.0 431.0L148.0 431.0L148.0 174.0C148.0 172.89543 148.89543 172.0 150.0 172.0L267.0 172.0C268.10458 172.0 269.0 172.89543 269.0 174.0Z" fill-rule="nonzero"/><path stroke="#000000" stroke-width="0.0" stroke-linecap="butt" stroke-opacity="0.0" clip-path="url(#id_0)" d="M455.0 431.0L334.0 431.0L334.0 114.0C334.0 112.89543 334.89542 112.0 336.0 112.0L453.0 112.0C454.10458 112.0 455.0 112.89543 455.0 114.0Z" fill-rule="nonzero"/><path fill="#4285f4" clip-path="url(#id_0)" d="M455.0 431.0L334.0 431.0L334.0 114.0C334.0 112.89543 334.89542 112.0 336.0 112.0L453.0 112.0C454.10458 112.0 455.0 112.89543 455.0 114.0Z" fill-rule="nonzero"/><path stroke="#000000" stroke-width="0.0" stroke-linecap="butt" stroke-opacity="0.0" clip-path="url(#id_0)" d="M641.0 431.0L520.0 431.0L520.0 88.0C520.0 86.89543 520.89545 86.0 522.0 86.0L639.0 86.0C640.10455 86.0 641.0 86.89543 641.0 88.0Z" fill-rule="nonzero"/><path fill="#4285f4" clip-path="url(#id_0)" d="M641.0 431.0L520.0 431.0L520.0 88.0C520.0 86.89543 520.89545 86.0 522.0 86.0L639.0 86.0C640.10455 86.0 641.0 86.89543 641.0 88.0Z" fill-rule="nonzero"/><path fill="#000000" d="M34.75 263.71875L28.53125 263.71875L28.53125 262.76562L29.46875 262.76562Q28.8125 262.40625 28.609375 262.10938Q28.390625 261.79688 28.390625 261.42188Q28.390625 260.89062 28.71875 260.34375L29.703125 260.70312Q29.46875 261.09375 29.46875 261.46875Q29.46875 261.82812 29.6875 262.10938Q29.890625 262.375 30.265625 262.48438Q30.828125 262.67188 31.484375 262.67188L34.75 262.67188L34.75 263.71875ZM32.75 255.45312L32.875 254.35938Q33.828125 254.60938 34.359375 255.3125Q34.890625 256.01562 34.890625 257.09375Q34.890625 258.45312 34.046875 259.26562Q33.203125 260.0625 31.6875 260.0625Q30.125 260.0625 29.265625 259.25Q28.390625 258.4375 28.390625 257.15625Q28.390625 255.90625 29.234375 255.125Q30.078125 254.32812 31.625 254.32812Q31.71875 254.32812 31.90625 254.32812L31.90625 258.96875Q32.9375 258.90625 33.484375 258.39062Q34.015625 257.875 34.015625 257.09375Q34.015625 256.51562 33.71875 256.10938Q33.40625 255.6875 32.75 255.45312ZM31.046875 258.90625L31.046875 255.4375Q30.25 255.5 29.859375 255.82812Q29.25 256.34375 29.25 257.14062Q29.25 257.875 29.734375 258.375Q30.21875 258.85938 31.046875 258.90625ZM37.140625 248.73438L34.09375 248.73438Q34.4375 248.98438 34.671875 249.4375Q34.890625 249.875 34.890625 250.375Q34.890625 251.48438 34.015625 252.28125Q33.125 253.07812 31.578125 253.07812Q30.640625 253.07812 29.90625 252.75Q29.15625 252.42188 28.78125 251.8125Q28.390625 251.1875 28.390625 250.45312Q28.390625 249.29688 29.359375 248.64062L28.53125 248.64062L28.53125 247.6875L37.140625 247.6875L37.140625 248.73438ZM31.625 252.0Q32.828125 252.0 33.421875 251.5Q34.015625 250.98438 34.015625 250.28125Q34.015625 249.60938 33.453125 249.125Q32.875 248.64062 31.71875 248.64062Q30.46875 248.64062 29.84375 249.15625Q29.21875 249.65625 29.21875 250.35938Q29.21875 251.03125 29.8125 251.51562Q30.390625 252.0 31.625 252.0ZM34.890625 246.5L26.015625 244.01562L26.015625 243.17188L34.890625 245.65625L34.890625 246.5ZM32.890625 243.125L32.734375 242.09375Q33.359375 242.0 33.6875 241.60938Q34.015625 241.20312 34.015625 240.46875Q34.015625 239.75 33.734375 239.40625Q33.4375 239.04688 33.03125 239.04688Q32.671875 239.04688 32.46875 239.35938Q32.328125 239.57812 32.109375 240.4375Q31.8125 241.59375 31.609375 242.04688Q31.390625 242.48438 31.015625 242.71875Q30.640625 242.95312 30.171875 242.95312Q29.765625 242.95312 29.40625 242.76562Q29.046875 242.57812 28.8125 242.25Q28.640625 242.0 28.515625 241.57812Q28.390625 241.15625 28.390625 240.65625Q28.390625 239.9375 28.609375 239.39062Q28.8125 238.82812 29.171875 238.5625Q29.53125 238.29688 30.125 238.20312L30.265625 239.23438Q29.796875 239.29688 29.53125 239.64062Q29.25 239.96875 29.25 240.59375Q29.25 241.3125 29.5 241.625Q29.734375 241.9375 30.0625 241.9375Q30.265625 241.9375 30.421875 241.8125Q30.59375 241.67188 30.703125 241.40625Q30.765625 241.25 30.96875 240.46875Q31.28125 239.34375 31.46875 238.90625Q31.65625 238.46875 32.015625 238.21875Q32.375 237.96875 32.921875 237.96875Q33.453125 237.96875 33.921875 238.28125Q34.375 238.57812 34.640625 239.15625Q34.890625 239.73438 34.890625 240.46875Q34.890625 241.6875 34.390625 242.32812Q33.875 242.95312 32.890625 243.125ZM37.28125 231.6875Q36.171875 232.5625 34.703125 233.17188Q33.21875 233.76562 31.640625 233.76562Q30.25 233.76562 28.96875 233.32812Q27.484375 232.79688 26.015625 231.6875L26.015625 230.9375Q27.234375 231.64062 27.75 231.875Q28.5625 232.23438 29.4375 232.4375Q30.53125 232.6875 31.640625 232.6875Q34.46875 232.6875 37.28125 230.9375L37.28125 231.6875ZM34.890625 229.89062L32.40625 229.39062L32.40625 230.375L31.53125 230.375L31.53125 229.20312L29.40625 228.78125L29.40625 230.375L28.53125 230.375L28.53125 228.59375L26.015625 228.09375L26.015625 227.21875L28.53125 227.71875L28.53125 225.875L26.015625 225.35938L26.015625 224.48438L28.53125 224.98438L28.53125 223.98438L29.40625 223.98438L29.40625 225.17188L31.53125 225.60938L31.53125 223.98438L32.40625 223.98438L32.40625 225.78125L34.890625 226.29688L34.890625 227.17188L32.40625 226.67188L32.40625 228.5L34.890625 229.01562L34.890625 229.89062ZM31.53125 228.32812L31.53125 226.48438L29.40625 226.04688L29.40625 227.89062L31.53125 228.32812ZM34.890625 223.5L26.015625 221.01562L26.015625 220.17188L34.890625 222.65625L34.890625 223.5ZM32.890625 220.125L32.734375 219.09375Q33.359375 219.0 33.6875 218.60938Q34.015625 218.20312 34.015625 217.46875Q34.015625 216.75 33.734375 216.40625Q33.4375 216.04688 33.03125 216.04688Q32.671875 216.04688 32.46875 216.35938Q32.328125 216.57812 32.109375 217.4375Q31.8125 218.59375 31.609375 219.04688Q31.390625 219.48438 31.015625 219.71875Q30.640625 219.95312 30.171875 219.95312Q29.765625 219.95312 29.40625 219.76562Q29.046875 219.57812 28.8125 219.25Q28.640625 219.0 28.515625 218.57812Q28.390625 218.15625 28.390625 217.65625Q28.390625 216.9375 28.609375 216.39062Q28.8125 215.82812 29.171875 215.5625Q29.53125 215.29688 30.125 215.20312L30.265625 216.23438Q29.796875 216.29688 29.53125 216.64062Q29.25 216.96875 29.25 217.59375Q29.25 218.3125 29.5 218.625Q29.734375 218.9375 30.0625 218.9375Q30.265625 218.9375 30.421875 218.8125Q30.59375 218.67188 30.703125 218.40625Q30.765625 218.25 30.96875 217.46875Q31.28125 216.34375 31.46875 215.90625Q31.65625 215.46875 32.015625 215.21875Q32.375 214.96875 32.921875 214.96875Q33.453125 214.96875 33.921875 215.28125Q34.375 215.57812 34.640625 216.15625Q34.890625 216.73438 34.890625 217.46875Q34.890625 218.6875 34.390625 219.32812Q33.875 219.95312 32.890625 220.125ZM37.28125 213.01562L37.28125 213.76562Q34.46875 212.01562 31.640625 212.01562Q30.546875 212.01562 29.453125 212.26562Q28.578125 212.46875 27.765625 212.82812Q27.25 213.0625 26.015625 213.76562L26.015625 213.01562Q27.484375 211.92188 28.96875 211.39062Q30.25 210.9375 31.640625 210.9375Q33.21875 210.9375 34.703125 211.54688Q36.171875 212.15625 37.28125 213.01562Z" fill-rule="nonzero"/><path fill="#000000" d="M70.25 431.01562Q70.25 429.48438 70.5625 428.5625Q70.875 427.625 71.484375 427.125Q72.109375 426.625 73.046875 426.625Q73.734375 426.625 74.25 426.90625Q74.78125 427.1875 75.125 427.71875Q75.46875 428.23438 75.65625 428.98438Q75.84375 429.73438 75.84375 431.01562Q75.84375 432.53125 75.53125 433.45312Q75.234375 434.375 74.609375 434.89062Q74.0 435.39062 73.046875 435.39062Q71.8125 435.39062 71.09375 434.5Q70.25 433.4375 70.25 431.01562ZM71.328125 431.01562Q71.328125 433.125 71.828125 433.82812Q72.328125 434.53125 73.046875 434.53125Q73.78125 434.53125 74.265625 433.82812Q74.765625 433.125 74.765625 431.01562Q74.765625 428.89062 74.265625 428.20312Q73.78125 427.5 73.03125 427.5Q72.3125 427.5 71.875 428.10938Q71.328125 428.89062 71.328125 431.01562Z" fill-rule="nonzero"/><path fill="#000000" d="M68.796875 334.10938L68.796875 335.125L63.109375 335.125Q63.109375 334.75 63.234375 334.39062Q63.453125 333.8125 63.921875 333.25Q64.40625 332.6875 65.3125 331.95312Q66.71875 330.79688 67.203125 330.125Q67.703125 329.45312 67.703125 328.85938Q67.703125 328.23438 67.25 327.8125Q66.796875 327.375 66.078125 327.375Q65.3125 327.375 64.859375 327.82812Q64.40625 328.28125 64.390625 329.09375L63.3125 328.98438Q63.421875 327.76562 64.140625 327.14062Q64.875 326.5 66.109375 326.5Q67.34375 326.5 68.0625 327.1875Q68.78125 327.875 68.78125 328.89062Q68.78125 329.40625 68.5625 329.90625Q68.359375 330.39062 67.859375 330.95312Q67.375 331.5 66.25 332.45312Q65.296875 333.25 65.015625 333.54688Q64.75 333.82812 64.578125 334.10938L68.796875 334.10938ZM70.25 332.875L71.359375 332.78125Q71.484375 333.59375 71.921875 334.0Q72.375 334.40625 73.015625 334.40625Q73.765625 334.40625 74.296875 333.82812Q74.828125 333.25 74.828125 332.3125Q74.828125 331.40625 74.3125 330.89062Q73.8125 330.35938 72.984375 330.35938Q72.484375 330.35938 72.0625 330.59375Q71.65625 330.82812 71.421875 331.1875L70.4375 331.0625L71.265625 326.65625L75.546875 326.65625L75.546875 327.65625L72.109375 327.65625L71.65625 329.96875Q72.421875 329.42188 73.265625 329.42188Q74.390625 329.42188 75.15625 330.20312Q75.9375 330.98438 75.9375 332.21875Q75.9375 333.375 75.265625 334.23438Q74.4375 335.26562 73.015625 335.26562Q71.84375 335.26562 71.09375 334.60938Q70.359375 333.95312 70.25 332.875Z" fill-rule="nonzero"/><path fill="#000000" d="M63.25 232.75L64.359375 232.65625Q64.484375 233.46875 64.921875 233.875Q65.375 234.28125 66.015625 234.28125Q66.765625 234.28125 67.296875 233.70312Q67.828125 233.125 67.828125 232.1875Q67.828125 231.28125 67.3125 230.76562Q66.8125 230.23438 65.984375 230.23438Q65.484375 230.23438 65.0625 230.46875Q64.65625 230.70312 64.421875 231.0625L63.4375 230.9375L64.265625 226.53125L68.546875 226.53125L68.546875 227.53125L65.109375 227.53125L64.65625 229.84375Q65.421875 229.29688 66.265625 229.29688Q67.390625 229.29688 68.15625 230.07812Q68.9375 230.85938 68.9375 232.09375Q68.9375 233.25 68.265625 234.10938Q67.4375 235.14062 66.015625 235.14062Q64.84375 235.14062 64.09375 234.48438Q63.359375 233.82812 63.25 232.75ZM70.25 230.76562Q70.25 229.23438 70.5625 228.3125Q70.875 227.375 71.484375 226.875Q72.109375 226.375 73.046875 226.375Q73.734375 226.375 74.25 226.65625Q74.78125 226.9375 75.125 227.46875Q75.46875 227.98438 75.65625 228.73438Q75.84375 229.48438 75.84375 230.76562Q75.84375 232.28125 75.53125 233.20312Q75.234375 234.125 74.609375 234.64062Q74.0 235.14062 73.046875 235.14062Q71.8125 235.14062 71.09375 234.25Q70.25 233.1875 70.25 230.76562ZM71.328125 230.76562Q71.328125 232.875 71.828125 233.57812Q72.328125 234.28125 73.046875 234.28125Q73.78125 234.28125 74.265625 233.57812Q74.765625 232.875 74.765625 230.76562Q74.765625 228.64062 74.265625 227.95312Q73.78125 227.25 73.03125 227.25Q72.3125 227.25 71.875 227.85938Q71.328125 228.64062 71.328125 230.76562Z" fill-rule="nonzero"/><path fill="#000000" d="M63.3125 127.40625L63.3125 126.390625L68.875 126.390625L68.875 127.21875Q68.0625 128.09375 67.25 129.54688Q66.453125 130.98438 66.015625 132.51562Q65.6875 133.59375 65.609375 134.875L64.515625 134.875Q64.53125 133.85938 64.90625 132.42188Q65.296875 130.98438 66.0 129.65625Q66.71875 128.32812 67.53125 127.40625L63.3125 127.40625ZM70.25 132.625L71.359375 132.53125Q71.484375 133.34375 71.921875 133.75Q72.375 134.15625 73.015625 134.15625Q73.765625 134.15625 74.296875 133.57812Q74.828125 133.0 74.828125 132.0625Q74.828125 131.15625 74.3125 130.64062Q73.8125 130.10938 72.984375 130.10938Q72.484375 130.10938 72.0625 130.34375Q71.65625 130.57812 71.421875 130.9375L70.4375 130.8125L71.265625 126.40625L75.546875 126.40625L75.546875 127.40625L72.109375 127.40625L71.65625 129.71875Q72.421875 129.17188 73.265625 129.17188Q74.390625 129.17188 75.15625 129.95312Q75.9375 130.73438 75.9375 131.96875Q75.9375 133.125 75.265625 133.98438Q74.4375 135.01562 73.015625 135.01562Q71.84375 135.01562 71.09375 134.35938Q70.359375 133.70312 70.25 132.625Z" fill-rule="nonzero"/><path fill="#000000" d="M60.21875 34.75L59.171875 34.75L59.171875 28.03125Q58.78125 28.390625 58.15625 28.765625Q57.546875 29.125 57.0625 29.296875L57.0625 28.28125Q57.9375 27.859375 58.59375 27.28125Q59.265625 26.6875 59.546875 26.125L60.21875 26.125L60.21875 34.75ZM63.25 30.515625Q63.25 28.984375 63.5625 28.0625Q63.875 27.125 64.484375 26.625Q65.109375 26.125 66.046875 26.125Q66.734375 26.125 67.25 26.40625Q67.78125 26.6875 68.125 27.21875Q68.46875 27.734375 68.65625 28.484375Q68.84375 29.234375 68.84375 30.515625Q68.84375 32.03125 68.53125 32.953125Q68.234375 33.875 67.609375 34.390625Q67.0 34.890625 66.046875 34.890625Q64.8125 34.890625 64.09375 34.0Q63.25 32.9375 63.25 30.515625ZM64.328125 30.515625Q64.328125 32.625 64.828125 33.328125Q65.328125 34.03125 66.046875 34.03125Q66.78125 34.03125 67.265625 33.328125Q67.765625 32.625 67.765625 30.515625Q67.765625 28.390625 67.265625 27.703125Q66.78125 27.0 66.03125 27.0Q65.3125 27.0 64.875 27.609375Q64.328125 28.390625 64.328125 30.515625ZM70.25 30.515625Q70.25 28.984375 70.5625 28.0625Q70.875 27.125 71.484375 26.625Q72.109375 26.125 73.046875 26.125Q73.734375 26.125 74.25 26.40625Q74.78125 26.6875 75.125 27.21875Q75.46875 27.734375 75.65625 28.484375Q75.84375 29.234375 75.84375 30.515625Q75.84375 32.03125 75.53125 32.953125Q75.234375 33.875 74.609375 34.390625Q74.0 34.890625 73.046875 34.890625Q71.8125 34.890625 71.09375 34.0Q70.25 32.9375 70.25 30.515625ZM71.328125 30.515625Q71.328125 32.625 71.828125 33.328125Q72.328125 34.03125 73.046875 34.03125Q73.78125 34.03125 74.265625 33.328125Q74.765625 32.625 74.765625 30.515625Q74.765625 28.390625 74.265625 27.703125Q73.78125 27.0 73.03125 27.0Q72.3125 27.0 71.875 27.609375Q71.328125 28.390625 71.328125 30.515625Z" fill-rule="nonzero"/><path fill="#000000" d="M170.10098 448.25L170.10098 439.65625L171.25723 439.65625L175.77286 446.40625L175.77286 439.65625L176.86661 439.65625L176.86661 448.25L175.69473 448.25L171.17911 441.5L171.17911 448.25L170.10098 448.25ZM178.58536 445.14062Q178.58536 443.40625 179.53848 442.57812Q180.33536 441.89062 181.49161 441.89062Q182.77286 441.89062 183.58536 442.73438Q184.41348 443.5625 184.41348 445.04688Q184.41348 446.25 184.05411 446.9375Q183.69473 447.625 182.99161 448.01562Q182.30411 448.39062 181.49161 448.39062Q180.19473 448.39062 179.38223 447.5625Q178.58536 446.71875 178.58536 445.14062ZM179.66348 445.14062Q179.66348 446.32812 180.17911 446.92188Q180.71036 447.51562 181.49161 447.51562Q182.28848 447.51562 182.80411 446.92188Q183.31973 446.32812 183.31973 445.10938Q183.31973 443.95312 182.78848 443.35938Q182.27286 442.76562 181.49161 442.76562Q180.71036 442.76562 180.17911 443.35938Q179.66348 443.9375 179.66348 445.14062ZM188.97598 450.64062L188.97598 442.03125L189.92911 442.03125L189.92911 442.82812Q190.27286 442.35938 190.69473 442.125Q191.13223 441.89062 191.74161 441.89062Q192.53848 441.89062 193.14786 442.29688Q193.75723 442.70312 194.05411 443.45312Q194.36661 444.20312 194.36661 445.09375Q194.36661 446.04688 194.02286 446.8125Q193.69473 447.57812 193.03848 447.98438Q192.38223 448.39062 191.66348 448.39062Q191.13223 448.39062 190.71036 448.17188Q190.28848 447.9375 190.02286 447.60938L190.02286 450.64062L188.97598 450.64062ZM189.92911 445.17188Q189.92911 446.375 190.41348 446.95312Q190.89786 447.51562 191.58536 447.51562Q192.28848 447.51562 192.78848 446.92188Q193.28848 446.32812 193.28848 445.07812Q193.28848 443.89062 192.80411 443.3125Q192.31973 442.71875 191.63223 442.71875Q190.96036 442.71875 190.44473 443.34375Q189.92911 443.96875 189.92911 445.17188ZM195.96036 448.25L195.96036 442.03125L196.91348 442.03125L196.91348 442.96875Q197.27286 442.3125 197.56973 442.10938Q197.88223 441.89062 198.25723 441.89062Q198.78848 441.89062 199.33536 442.21875L198.97598 443.20312Q198.58536 442.96875 198.21036 442.96875Q197.85098 442.96875 197.56973 443.1875Q197.30411 443.39062 197.19473 443.76562Q197.00723 444.32812 197.00723 444.98438L197.00723 448.25L195.96036 448.25ZM204.22598 446.25L205.31973 446.375Q205.06973 447.32812 204.36661 447.85938Q203.66348 448.39062 202.58536 448.39062Q201.22598 448.39062 200.41348 447.54688Q199.61661 446.70312 199.61661 445.1875Q199.61661 443.625 200.42911 442.76562Q201.24161 441.89062 202.52286 441.89062Q203.77286 441.89062 204.55411 442.73438Q205.35098 443.57812 205.35098 445.125Q205.35098 445.21875 205.35098 445.40625L200.71036 445.40625Q200.77286 446.4375 201.28848 446.98438Q201.80411 447.51562 202.58536 447.51562Q203.16348 447.51562 203.56973 447.21875Q203.99161 446.90625 204.22598 446.25ZM200.77286 444.54688L204.24161 444.54688Q204.17911 443.75 203.85098 443.35938Q203.33536 442.75 202.53848 442.75Q201.80411 442.75 201.30411 443.23438Q200.81973 443.71875 200.77286 444.54688ZM206.94473 448.25L206.94473 439.65625L208.00723 439.65625L208.00723 448.25L206.94473 448.25ZM209.58536 445.14062Q209.58536 443.40625 210.53848 442.57812Q211.33536 441.89062 212.49161 441.89062Q213.77286 441.89062 214.58536 442.73438Q215.41348 443.5625 215.41348 445.04688Q215.41348 446.25 215.05411 446.9375Q214.69473 447.625 213.99161 448.01562Q213.30411 448.39062 212.49161 448.39062Q211.19473 448.39062 210.38223 447.5625Q209.58536 446.71875 209.58536 445.14062ZM210.66348 445.14062Q210.66348 446.32812 211.17911 446.92188Q211.71036 447.51562 212.49161 447.51562Q213.28848 447.51562 213.80411 446.92188Q214.31973 446.32812 214.31973 445.10938Q214.31973 443.95312 213.78848 443.35938Q213.27286 442.76562 212.49161 442.76562Q211.71036 442.76562 211.17911 443.35938Q210.66348 443.9375 210.66348 445.14062ZM221.03848 447.48438Q220.44473 447.98438 219.89786 448.1875Q219.36661 448.39062 218.74161 448.39062Q217.71036 448.39062 217.16348 447.89062Q216.61661 447.39062 216.61661 446.60938Q216.61661 446.15625 216.81973 445.78125Q217.02286 445.39062 217.36661 445.17188Q217.71036 444.9375 218.13223 444.82812Q218.42911 444.73438 219.06973 444.65625Q220.33536 444.51562 220.94473 444.29688Q220.94473 444.07812 220.94473 444.03125Q220.94473 443.375 220.64786 443.10938Q220.24161 442.76562 219.44473 442.76562Q218.71036 442.76562 218.35098 443.03125Q217.99161 443.28125 217.81973 443.9375L216.78848 443.79688Q216.92911 443.14062 217.25723 442.73438Q217.58536 442.32812 218.19473 442.10938Q218.80411 441.89062 219.60098 441.89062Q220.39786 441.89062 220.89786 442.07812Q221.39786 442.26562 221.63223 442.54688Q221.86661 442.82812 221.96036 443.26562Q222.00723 443.53125 222.00723 444.23438L222.00723 445.64062Q222.00723 447.10938 222.06973 447.5Q222.14786 447.89062 222.35098 448.25L221.24161 448.25Q221.08536 447.92188 221.03848 447.48438ZM220.94473 445.125Q220.36661 445.35938 219.22598 445.53125Q218.56973 445.625 218.30411 445.75Q218.03848 445.85938 217.88223 446.07812Q217.74161 446.29688 217.74161 446.57812Q217.74161 447.0 218.05411 447.28125Q218.38223 447.5625 218.99161 447.5625Q219.60098 447.5625 220.06973 447.29688Q220.55411 447.03125 220.77286 446.5625Q220.94473 446.20312 220.94473 445.51562L220.94473 445.125ZM228.00723 448.25L228.00723 447.46875Q227.41348 448.39062 226.27286 448.39062Q225.52286 448.39062 224.89786 447.98438Q224.27286 447.5625 223.92911 446.82812Q223.58536 446.09375 223.58536 445.14062Q223.58536 444.21875 223.89786 443.45312Q224.21036 442.6875 224.83536 442.29688Q225.46036 441.89062 226.22598 441.89062Q226.78848 441.89062 227.22598 442.125Q227.66348 442.35938 227.94473 442.73438L227.94473 439.65625L228.99161 439.65625L228.99161 448.25L228.00723 448.25ZM224.67911 445.14062Q224.67911 446.34375 225.17911 446.9375Q225.67911 447.51562 226.36661 447.51562Q227.05411 447.51562 227.53848 446.95312Q228.02286 446.39062 228.02286 445.23438Q228.02286 443.95312 227.52286 443.35938Q227.03848 442.76562 226.31973 442.76562Q225.61661 442.76562 225.14786 443.34375Q224.67911 443.90625 224.67911 445.14062ZM230.97598 440.875L230.97598 439.65625L232.03848 439.65625L232.03848 440.875L230.97598 440.875ZM230.97598 448.25L230.97598 442.03125L232.03848 442.03125L232.03848 448.25L230.97598 448.25ZM233.97598 448.25L233.97598 442.03125L234.91348 442.03125L234.91348 442.90625Q235.60098 441.89062 236.89786 441.89062Q237.46036 441.89062 237.92911 442.09375Q238.41348 442.29688 238.64786 442.625Q238.88223 442.95312 238.97598 443.39062Q239.02286 443.6875 239.02286 444.42188L239.02286 448.25L237.97598 448.25L237.97598 444.46875Q237.97598 443.8125 237.85098 443.5Q237.72598 443.1875 237.41348 443.0Q237.10098 442.79688 236.67911 442.79688Q236.00723 442.79688 235.50723 443.23438Q235.02286 443.65625 235.02286 444.84375L235.02286 448.25L233.97598 448.25ZM240.77286 448.76562L241.80411 448.92188Q241.86661 449.39062 242.16348 449.60938Q242.55411 449.90625 243.22598 449.90625Q243.96036 449.90625 244.35098 449.60938Q244.75723 449.3125 244.89786 448.79688Q244.99161 448.46875 244.97598 447.4375Q244.28848 448.25 243.25723 448.25Q241.97598 448.25 241.27286 447.32812Q240.56973 446.39062 240.56973 445.10938Q240.56973 444.21875 240.88223 443.46875Q241.21036 442.70312 241.81973 442.29688Q242.42911 441.89062 243.25723 441.89062Q244.36661 441.89062 245.08536 442.78125L245.08536 442.03125L246.05411 442.03125L246.05411 447.40625Q246.05411 448.85938 245.75723 449.46875Q245.46036 450.07812 244.81973 450.42188Q244.17911 450.78125 243.24161 450.78125Q242.13223 450.78125 241.44473 450.28125Q240.75723 449.78125 240.77286 448.76562ZM241.64786 445.03125Q241.64786 446.25 242.13223 446.8125Q242.61661 447.375 243.35098 447.375Q244.08536 447.375 244.56973 446.8125Q245.06973 446.25 245.06973 445.0625Q245.06973 443.92188 244.55411 443.34375Q244.05411 442.76562 243.33536 442.76562Q242.63223 442.76562 242.13223 443.34375Q241.64786 443.90625 241.64786 445.03125Z" fill-rule="nonzero"/><path fill="#000000" d="M347.92188 448.25L347.92188 439.65625L349.07812 439.65625L353.59375 446.40625L353.59375 439.65625L354.6875 439.65625L354.6875 448.25L353.51562 448.25L349.0 441.5L349.0 448.25L347.92188 448.25ZM360.85938 447.48438Q360.26562 447.98438 359.71875 448.1875Q359.1875 448.39062 358.5625 448.39062Q357.53125 448.39062 356.98438 447.89062Q356.4375 447.39062 356.4375 446.60938Q356.4375 446.15625 356.64062 445.78125Q356.84375 445.39062 357.1875 445.17188Q357.53125 444.9375 357.95312 444.82812Q358.25 444.73438 358.89062 444.65625Q360.15625 444.51562 360.76562 444.29688Q360.76562 444.07812 360.76562 444.03125Q360.76562 443.375 360.46875 443.10938Q360.0625 442.76562 359.26562 442.76562Q358.53125 442.76562 358.17188 443.03125Q357.8125 443.28125 357.64062 443.9375L356.60938 443.79688Q356.75 443.14062 357.07812 442.73438Q357.40625 442.32812 358.01562 442.10938Q358.625 441.89062 359.42188 441.89062Q360.21875 441.89062 360.71875 442.07812Q361.21875 442.26562 361.45312 442.54688Q361.6875 442.82812 361.78125 443.26562Q361.82812 443.53125 361.82812 444.23438L361.82812 445.64062Q361.82812 447.10938 361.89062 447.5Q361.96875 447.89062 362.17188 448.25L361.0625 448.25Q360.90625 447.92188 360.85938 447.48438ZM360.76562 445.125Q360.1875 445.35938 359.04688 445.53125Q358.39062 445.625 358.125 445.75Q357.85938 445.85938 357.70312 446.07812Q357.5625 446.29688 357.5625 446.57812Q357.5625 447.0 357.875 447.28125Q358.20312 447.5625 358.8125 447.5625Q359.42188 447.5625 359.89062 447.29688Q360.375 447.03125 360.59375 446.5625Q360.76562 446.20312 360.76562 445.51562L360.76562 445.125ZM363.79688 440.875L363.79688 439.65625L364.85938 439.65625L364.85938 440.875L363.79688 440.875ZM363.79688 448.25L363.79688 442.03125L364.85938 442.03125L364.85938 448.25L363.79688 448.25ZM368.51562 448.25L366.15625 442.03125L367.26562 442.03125L368.60938 445.75Q368.8125 446.35938 369.0 447.0Q369.14062 446.51562 369.39062 445.82812L370.78125 442.03125L371.85938 442.03125L369.5 448.25L368.51562 448.25ZM377.04688 446.25L378.14062 446.375Q377.89062 447.32812 377.1875 447.85938Q376.48438 448.39062 375.40625 448.39062Q374.04688 448.39062 373.23438 447.54688Q372.4375 446.70312 372.4375 445.1875Q372.4375 443.625 373.25 442.76562Q374.0625 441.89062 375.34375 441.89062Q376.59375 441.89062 377.375 442.73438Q378.17188 443.57812 378.17188 445.125Q378.17188 445.21875 378.17188 445.40625L373.53125 445.40625Q373.59375 446.4375 374.10938 446.98438Q374.625 447.51562 375.40625 447.51562Q375.98438 447.51562 376.39062 447.21875Q376.8125 446.90625 377.04688 446.25ZM373.59375 444.54688L377.0625 444.54688Q377.0 443.75 376.67188 443.35938Q376.15625 442.75 375.35938 442.75Q374.625 442.75 374.125 443.23438Q373.64062 443.71875 373.59375 444.54688ZM382.79688 450.64062L382.79688 442.03125L383.75 442.03125L383.75 442.82812Q384.09375 442.35938 384.51562 442.125Q384.95312 441.89062 385.5625 441.89062Q386.35938 441.89062 386.96875 442.29688Q387.57812 442.70312 387.875 443.45312Q388.1875 444.20312 388.1875 445.09375Q388.1875 446.04688 387.84375 446.8125Q387.51562 447.57812 386.85938 447.98438Q386.20312 448.39062 385.48438 448.39062Q384.95312 448.39062 384.53125 448.17188Q384.10938 447.9375 383.84375 447.60938L383.84375 450.64062L382.79688 450.64062ZM383.75 445.17188Q383.75 446.375 384.23438 446.95312Q384.71875 447.51562 385.40625 447.51562Q386.10938 447.51562 386.60938 446.92188Q387.10938 446.32812 387.10938 445.07812Q387.10938 443.89062 386.625 443.3125Q386.14062 442.71875 385.45312 442.71875Q384.78125 442.71875 384.26562 443.34375Q383.75 443.96875 383.75 445.17188ZM389.78125 448.25L389.78125 442.03125L390.73438 442.03125L390.73438 442.96875Q391.09375 442.3125 391.39062 442.10938Q391.70312 441.89062 392.07812 441.89062Q392.60938 441.89062 393.15625 442.21875L392.79688 443.20312Q392.40625 442.96875 392.03125 442.96875Q391.67188 442.96875 391.39062 443.1875Q391.125 443.39062 391.01562 443.76562Q390.82812 444.32812 390.82812 444.98438L390.82812 448.25L389.78125 448.25ZM398.04688 446.25L399.14062 446.375Q398.89062 447.32812 398.1875 447.85938Q397.48438 448.39062 396.40625 448.39062Q395.04688 448.39062 394.23438 447.54688Q393.4375 446.70312 393.4375 445.1875Q393.4375 443.625 394.25 442.76562Q395.0625 441.89062 396.34375 441.89062Q397.59375 441.89062 398.375 442.73438Q399.17188 443.57812 399.17188 445.125Q399.17188 445.21875 399.17188 445.40625L394.53125 445.40625Q394.59375 446.4375 395.10938 446.98438Q395.625 447.51562 396.40625 447.51562Q396.98438 447.51562 397.39062 447.21875Q397.8125 446.90625 398.04688 446.25ZM394.59375 444.54688L398.0625 444.54688Q398.0 443.75 397.67188 443.35938Q397.15625 442.75 396.35938 442.75Q395.625 442.75 395.125 443.23438Q394.64062 443.71875 394.59375 444.54688ZM400.76562 448.25L400.76562 439.65625L401.82812 439.65625L401.82812 448.25L400.76562 448.25ZM403.40625 445.14062Q403.40625 443.40625 404.35938 442.57812Q405.15625 441.89062 406.3125 441.89062Q407.59375 441.89062 408.40625 442.73438Q409.23438 443.5625 409.23438 445.04688Q409.23438 446.25 408.875 446.9375Q408.51562 447.625 407.8125 448.01562Q407.125 448.39062 406.3125 448.39062Q405.01562 448.39062 404.20312 447.5625Q403.40625 446.71875 403.40625 445.14062ZM404.48438 445.14062Q404.48438 446.32812 405.0 446.92188Q405.53125 447.51562 406.3125 447.51562Q407.10938 447.51562 407.625 446.92188Q408.14062 446.32812 408.14062 445.10938Q408.14062 443.95312 407.60938 443.35938Q407.09375 442.76562 406.3125 442.76562Q405.53125 442.76562 405.0 443.35938Q404.48438 443.9375 404.48438 445.14062ZM414.85938 447.48438Q414.26562 447.98438 413.71875 448.1875Q413.1875 448.39062 412.5625 448.39062Q411.53125 448.39062 410.98438 447.89062Q410.4375 447.39062 410.4375 446.60938Q410.4375 446.15625 410.64062 445.78125Q410.84375 445.39062 411.1875 445.17188Q411.53125 444.9375 411.95312 444.82812Q412.25 444.73438 412.89062 444.65625Q414.15625 444.51562 414.76562 444.29688Q414.76562 444.07812 414.76562 444.03125Q414.76562 443.375 414.46875 443.10938Q414.0625 442.76562 413.26562 442.76562Q412.53125 442.76562 412.17188 443.03125Q411.8125 443.28125 411.64062 443.9375L410.60938 443.79688Q410.75 443.14062 411.07812 442.73438Q411.40625 442.32812 412.01562 442.10938Q412.625 441.89062 413.42188 441.89062Q414.21875 441.89062 414.71875 442.07812Q415.21875 442.26562 415.45312 442.54688Q415.6875 442.82812 415.78125 443.26562Q415.82812 443.53125 415.82812 444.23438L415.82812 445.64062Q415.82812 447.10938 415.89062 447.5Q415.96875 447.89062 416.17188 448.25L415.0625 448.25Q414.90625 447.92188 414.85938 447.48438ZM414.76562 445.125Q414.1875 445.35938 413.04688 445.53125Q412.39062 445.625 412.125 445.75Q411.85938 445.85938 411.70312 446.07812Q411.5625 446.29688 411.5625 446.57812Q411.5625 447.0 411.875 447.28125Q412.20312 447.5625 412.8125 447.5625Q413.42188 447.5625 413.89062 447.29688Q414.375 447.03125 414.59375 446.5625Q414.76562 446.20312 414.76562 445.51562L414.76562 445.125ZM421.82812 448.25L421.82812 447.46875Q421.23438 448.39062 420.09375 448.39062Q419.34375 448.39062 418.71875 447.98438Q418.09375 447.5625 417.75 446.82812Q417.40625 446.09375 417.40625 445.14062Q417.40625 444.21875 417.71875 443.45312Q418.03125 442.6875 418.65625 442.29688Q419.28125 441.89062 420.04688 441.89062Q420.60938 441.89062 421.04688 442.125Q421.48438 442.35938 421.76562 442.73438L421.76562 439.65625L422.8125 439.65625L422.8125 448.25L421.82812 448.25ZM418.5 445.14062Q418.5 446.34375 419.0 446.9375Q419.5 447.51562 420.1875 447.51562Q420.875 447.51562 421.35938 446.95312Q421.84375 446.39062 421.84375 445.23438Q421.84375 443.95312 421.34375 443.35938Q420.85938 442.76562 420.14062 442.76562Q419.4375 442.76562 418.96875 443.34375Q418.5 443.90625 418.5 445.14062ZM424.79688 440.875L424.79688 439.65625L425.85938 439.65625L425.85938 440.875L424.79688 440.875ZM424.79688 448.25L424.79688 442.03125L425.85938 442.03125L425.85938 448.25L424.79688 448.25ZM427.79688 448.25L427.79688 442.03125L428.73438 442.03125L428.73438 442.90625Q429.42188 441.89062 430.71875 441.89062Q431.28125 441.89062 431.75 442.09375Q432.23438 442.29688 432.46875 442.625Q432.70312 442.95312 432.79688 443.39062Q432.84375 443.6875 432.84375 444.42188L432.84375 448.25L431.79688 448.25L431.79688 444.46875Q431.79688 443.8125 431.67188 443.5Q431.54688 443.1875 431.23438 443.0Q430.92188 442.79688 430.5 442.79688Q429.82812 442.79688 429.32812 443.23438Q428.84375 443.65625 428.84375 444.84375L428.84375 448.25L427.79688 448.25ZM434.59375 448.76562L435.625 448.92188Q435.6875 449.39062 435.98438 449.60938Q436.375 449.90625 437.04688 449.90625Q437.78125 449.90625 438.17188 449.60938Q438.57812 449.3125 438.71875 448.79688Q438.8125 448.46875 438.79688 447.4375Q438.10938 448.25 437.07812 448.25Q435.79688 448.25 435.09375 447.32812Q434.39062 446.39062 434.39062 445.10938Q434.39062 444.21875 434.70312 443.46875Q435.03125 442.70312 435.64062 442.29688Q436.25 441.89062 437.07812 441.89062Q438.1875 441.89062 438.90625 442.78125L438.90625 442.03125L439.875 442.03125L439.875 447.40625Q439.875 448.85938 439.57812 449.46875Q439.28125 450.07812 438.64062 450.42188Q438.0 450.78125 437.0625 450.78125Q435.95312 450.78125 435.26562 450.28125Q434.57812 449.78125 434.59375 448.76562ZM435.46875 445.03125Q435.46875 446.25 435.95312 446.8125Q436.4375 447.375 437.17188 447.375Q437.90625 447.375 438.39062 446.8125Q438.89062 446.25 438.89062 445.0625Q438.89062 443.92188 438.375 443.34375Q437.875 442.76562 437.15625 442.76562Q436.45312 442.76562 435.95312 443.34375Q435.46875 443.90625 435.46875 445.03125Z" fill-rule="nonzero"/><path fill="#000000" d="M521.89905 444.0625Q521.89905 441.92188 523.0397 440.71875Q524.1959 439.5 526.0084 439.5Q527.21155 439.5 528.1647 440.07812Q529.1178 440.64062 529.6178 441.65625Q530.1178 442.67188 530.1178 443.96875Q530.1178 445.26562 529.58655 446.29688Q529.0553 447.32812 528.08655 447.85938Q527.1334 448.39062 526.0084 448.39062Q524.7897 448.39062 523.83655 447.8125Q522.8834 447.21875 522.3834 446.21875Q521.89905 445.20312 521.89905 444.0625ZM523.0709 444.07812Q523.0709 445.64062 523.89905 446.53125Q524.7428 447.42188 526.0084 447.42188Q527.2897 447.42188 528.1178 446.53125Q528.9459 445.625 528.9459 443.95312Q528.9459 442.90625 528.58655 442.125Q528.2428 441.34375 527.5553 440.92188Q526.8678 440.48438 526.02405 440.48438Q524.8209 440.48438 523.9459 441.3125Q523.0709 442.14062 523.0709 444.07812ZM531.1178 450.64062L531.1178 442.03125L532.0709 442.03125L532.0709 442.82812Q532.4147 442.35938 532.83655 442.125Q533.27405 441.89062 533.8834 441.89062Q534.6803 441.89062 535.2897 442.29688Q535.89905 442.70312 536.1959 443.45312Q536.5084 444.20312 536.5084 445.09375Q536.5084 446.04688 536.1647 446.8125Q535.83655 447.57812 535.1803 447.98438Q534.52405 448.39062 533.8053 448.39062Q533.27405 448.39062 532.8522 448.17188Q532.4303 447.9375 532.1647 447.60938L532.1647 450.64062L531.1178 450.64062ZM532.0709 445.17188Q532.0709 446.375 532.5553 446.95312Q533.0397 447.51562 533.7272 447.51562Q534.4303 447.51562 534.9303 446.92188Q535.4303 446.32812 535.4303 445.07812Q535.4303 443.89062 534.9459 443.3125Q534.46155 442.71875 533.77405 442.71875Q533.1022 442.71875 532.58655 443.34375Q532.0709 443.96875 532.0709 445.17188ZM540.4147 447.3125L540.5709 448.23438Q540.1178 448.32812 539.77405 448.32812Q539.1959 448.32812 538.8834 448.15625Q538.5709 447.96875 538.4303 447.67188Q538.3053 447.375 538.3053 446.42188L538.3053 442.84375L537.5397 442.84375L537.5397 442.03125L538.3053 442.03125L538.3053 440.48438L539.3522 439.85938L539.3522 442.03125L540.4147 442.03125L540.4147 442.84375L539.3522 442.84375L539.3522 446.48438Q539.3522 446.9375 539.39905 447.0625Q539.46155 447.1875 539.58655 447.26562Q539.71155 447.34375 539.9459 447.34375Q540.1334 447.34375 540.4147 447.3125ZM541.1178 440.875L541.1178 439.65625L542.1803 439.65625L542.1803 440.875L541.1178 440.875ZM541.1178 448.25L541.1178 442.03125L542.1803 442.03125L542.1803 448.25L541.1178 448.25ZM544.1178 448.25L544.1178 442.03125L545.0553 442.03125L545.0553 442.90625Q545.3522 442.4375 545.83655 442.17188Q546.3209 441.89062 546.9459 441.89062Q547.6334 441.89062 548.0709 442.17188Q548.52405 442.45312 548.6959 442.96875Q549.4459 441.89062 550.6178 441.89062Q551.5553 441.89062 552.0397 442.40625Q552.5397 442.90625 552.5397 443.98438L552.5397 448.25L551.4928 448.25L551.4928 444.32812Q551.4928 443.70312 551.3834 443.42188Q551.2897 443.14062 551.02405 442.96875Q550.7584 442.79688 550.3834 442.79688Q549.7272 442.79688 549.2897 443.23438Q548.8678 443.67188 548.8678 444.64062L548.8678 448.25L547.8053 448.25L547.8053 444.20312Q547.8053 443.5 547.5397 443.15625Q547.2897 442.79688 546.71155 442.79688Q546.2584 442.79688 545.8834 443.03125Q545.5084 443.26562 545.33655 443.71875Q545.1647 444.17188 545.1647 445.01562L545.1647 448.25L544.1178 448.25ZM554.1178 440.875L554.1178 439.65625L555.1803 439.65625L555.1803 440.875L554.1178 440.875ZM554.1178 448.25L554.1178 442.03125L555.1803 442.03125L555.1803 448.25L554.1178 448.25ZM556.6959 446.39062L557.7272 446.23438Q557.8209 446.85938 558.21155 447.1875Q558.6178 447.51562 559.3522 447.51562Q560.0709 447.51562 560.4147 447.23438Q560.77405 446.9375 560.77405 446.53125Q560.77405 446.17188 560.46155 445.96875Q560.2428 445.82812 559.3834 445.60938Q558.2272 445.3125 557.77405 445.10938Q557.33655 444.89062 557.1022 444.51562Q556.8678 444.14062 556.8678 443.67188Q556.8678 443.26562 557.0553 442.90625Q557.2428 442.54688 557.5709 442.3125Q557.8209 442.14062 558.2428 442.01562Q558.6647 441.89062 559.1647 441.89062Q559.8834 441.89062 560.4303 442.10938Q560.9928 442.3125 561.2584 442.67188Q561.52405 443.03125 561.6178 443.625L560.58655 443.76562Q560.52405 443.29688 560.1803 443.03125Q559.8522 442.75 559.2272 442.75Q558.5084 442.75 558.1959 443.0Q557.8834 443.23438 557.8834 443.5625Q557.8834 443.76562 558.0084 443.92188Q558.14905 444.09375 558.4147 444.20312Q558.5709 444.26562 559.3522 444.46875Q560.4772 444.78125 560.9147 444.96875Q561.3522 445.15625 561.6022 445.51562Q561.8522 445.875 561.8522 446.42188Q561.8522 446.95312 561.5397 447.42188Q561.2428 447.875 560.6647 448.14062Q560.08655 448.39062 559.3522 448.39062Q558.1334 448.39062 557.4928 447.89062Q556.8678 447.375 556.6959 446.39062ZM567.3678 446.25L568.46155 446.375Q568.21155 447.32812 567.5084 447.85938Q566.8053 448.39062 565.7272 448.39062Q564.3678 448.39062 563.5553 447.54688Q562.7584 446.70312 562.7584 445.1875Q562.7584 443.625 563.5709 442.76562Q564.3834 441.89062 565.6647 441.89062Q566.9147 441.89062 567.6959 442.73438Q568.4928 443.57812 568.4928 445.125Q568.4928 445.21875 568.4928 445.40625L563.8522 445.40625Q563.9147 446.4375 564.4303 446.98438Q564.9459 447.51562 565.7272 447.51562Q566.3053 447.51562 566.71155 447.21875Q567.1334 446.90625 567.3678 446.25ZM563.9147 444.54688L567.3834 444.54688Q567.3209 443.75 566.9928 443.35938Q566.4772 442.75 565.6803 442.75Q564.9459 442.75 564.4459 443.23438Q563.96155 443.71875 563.9147 444.54688ZM574.14905 448.25L574.14905 447.46875Q573.5553 448.39062 572.4147 448.39062Q571.6647 448.39062 571.0397 447.98438Q570.4147 447.5625 570.0709 446.82812Q569.7272 446.09375 569.7272 445.14062Q569.7272 444.21875 570.0397 443.45312Q570.3522 442.6875 570.9772 442.29688Q571.6022 441.89062 572.3678 441.89062Q572.9303 441.89062 573.3678 442.125Q573.8053 442.35938 574.08655 442.73438L574.08655 439.65625L575.1334 439.65625L575.1334 448.25L574.14905 448.25ZM570.8209 445.14062Q570.8209 446.34375 571.3209 446.9375Q571.8209 447.51562 572.5084 447.51562Q573.1959 447.51562 573.6803 446.95312Q574.1647 446.39062 574.1647 445.23438Q574.1647 443.95312 573.6647 443.35938Q573.1803 442.76562 572.46155 442.76562Q571.7584 442.76562 571.2897 443.34375Q570.8209 443.90625 570.8209 445.14062ZM580.1178 450.64062L580.1178 442.03125L581.0709 442.03125L581.0709 442.82812Q581.4147 442.35938 581.83655 442.125Q582.27405 441.89062 582.8834 441.89062Q583.6803 441.89062 584.2897 442.29688Q584.89905 442.70312 585.1959 443.45312Q585.5084 444.20312 585.5084 445.09375Q585.5084 446.04688 585.1647 446.8125Q584.83655 447.57812 584.1803 447.98438Q583.52405 448.39062 582.8053 448.39062Q582.27405 448.39062 581.8522 448.17188Q581.4303 447.9375 581.1647 447.60938L581.1647 450.64062L580.1178 450.64062ZM581.0709 445.17188Q581.0709 446.375 581.5553 446.95312Q582.0397 447.51562 582.7272 447.51562Q583.4303 447.51562 583.9303 446.92188Q584.4303 446.32812 584.4303 445.07812Q584.4303 443.89062 583.9459 443.3125Q583.46155 442.71875 582.77405 442.71875Q582.1022 442.71875 581.58655 443.34375Q581.0709 443.96875 581.0709 445.17188ZM587.1022 448.25L587.1022 442.03125L588.0553 442.03125L588.0553 442.96875Q588.4147 442.3125 588.71155 442.10938Q589.02405 441.89062 589.39905 441.89062Q589.9303 441.89062 590.4772 442.21875L590.1178 443.20312Q589.7272 442.96875 589.3522 442.96875Q588.9928 442.96875 588.71155 443.1875Q588.4459 443.39062 588.33655 443.76562Q588.14905 444.32812 588.14905 444.98438L588.14905 448.25L587.1022 448.25ZM595.3678 446.25L596.46155 446.375Q596.21155 447.32812 595.5084 447.85938Q594.8053 448.39062 593.7272 448.39062Q592.3678 448.39062 591.5553 447.54688Q590.7584 446.70312 590.7584 445.1875Q590.7584 443.625 591.5709 442.76562Q592.3834 441.89062 593.6647 441.89062Q594.9147 441.89062 595.6959 442.73438Q596.4928 443.57812 596.4928 445.125Q596.4928 445.21875 596.4928 445.40625L591.8522 445.40625Q591.9147 446.4375 592.4303 446.98438Q592.9459 447.51562 593.7272 447.51562Q594.3053 447.51562 594.71155 447.21875Q595.1334 446.90625 595.3678 446.25ZM591.9147 444.54688L595.3834 444.54688Q595.3209 443.75 594.9928 443.35938Q594.4772 442.75 593.6803 442.75Q592.9459 442.75 592.4459 443.23438Q591.96155 443.71875 591.9147 444.54688ZM598.08655 448.25L598.08655 439.65625L599.14905 439.65625L599.14905 448.25L598.08655 448.25ZM600.7272 445.14062Q600.7272 443.40625 601.6803 442.57812Q602.4772 441.89062 603.6334 441.89062Q604.9147 441.89062 605.7272 442.73438Q606.5553 443.5625 606.5553 445.04688Q606.5553 446.25 606.1959 446.9375Q605.83655 447.625 605.1334 448.01562Q604.4459 448.39062 603.6334 448.39062Q602.33655 448.39062 601.52405 447.5625Q600.7272 446.71875 600.7272 445.14062ZM601.8053 445.14062Q601.8053 446.32812 602.3209 446.92188Q602.8522 447.51562 603.6334 447.51562Q604.4303 447.51562 604.9459 446.92188Q605.46155 446.32812 605.46155 445.10938Q605.46155 443.95312 604.9303 443.35938Q604.4147 442.76562 603.6334 442.76562Q602.8522 442.76562 602.3209 443.35938Q601.8053 443.9375 601.8053 445.14062ZM612.1803 447.48438Q611.58655 447.98438 611.0397 448.1875Q610.5084 448.39062 609.8834 448.39062Q608.8522 448.39062 608.3053 447.89062Q607.7584 447.39062 607.7584 446.60938Q607.7584 446.15625 607.96155 445.78125Q608.1647 445.39062 608.5084 445.17188Q608.8522 444.9375 609.27405 444.82812Q609.5709 444.73438 610.21155 444.65625Q611.4772 444.51562 612.08655 444.29688Q612.08655 444.07812 612.08655 444.03125Q612.08655 443.375 611.7897 443.10938Q611.3834 442.76562 610.58655 442.76562Q609.8522 442.76562 609.4928 443.03125Q609.1334 443.28125 608.96155 443.9375L607.9303 443.79688Q608.0709 443.14062 608.39905 442.73438Q608.7272 442.32812 609.33655 442.10938Q609.9459 441.89062 610.7428 441.89062Q611.5397 441.89062 612.0397 442.07812Q612.5397 442.26562 612.77405 442.54688Q613.0084 442.82812 613.1022 443.26562Q613.14905 443.53125 613.14905 444.23438L613.14905 445.64062Q613.14905 447.10938 613.21155 447.5Q613.2897 447.89062 613.4928 448.25L612.3834 448.25Q612.2272 447.92188 612.1803 447.48438ZM612.08655 445.125Q611.5084 445.35938 610.3678 445.53125Q609.71155 445.625 609.4459 445.75Q609.1803 445.85938 609.02405 446.07812Q608.8834 446.29688 608.8834 446.57812Q608.8834 447.0 609.1959 447.28125Q609.52405 447.5625 610.1334 447.5625Q610.7428 447.5625 611.21155 447.29688Q611.6959 447.03125 611.9147 446.5625Q612.08655 446.20312 612.08655 445.51562L612.08655 445.125ZM619.14905 448.25L619.14905 447.46875Q618.5553 448.39062 617.4147 448.39062Q616.6647 448.39062 616.0397 447.98438Q615.4147 447.5625 615.0709 446.82812Q614.7272 446.09375 614.7272 445.14062Q614.7272 444.21875 615.0397 443.45312Q615.3522 442.6875 615.9772 442.29688Q616.6022 441.89062 617.3678 441.89062Q617.9303 441.89062 618.3678 442.125Q618.8053 442.35938 619.08655 442.73438L619.08655 439.65625L620.1334 439.65625L620.1334 448.25L619.14905 448.25ZM615.8209 445.14062Q615.8209 446.34375 616.3209 446.9375Q616.8209 447.51562 617.5084 447.51562Q618.1959 447.51562 618.6803 446.95312Q619.1647 446.39062 619.1647 445.23438Q619.1647 443.95312 618.6647 443.35938Q618.1803 442.76562 617.46155 442.76562Q616.7584 442.76562 616.2897 443.34375Q615.8209 443.90625 615.8209 445.14062ZM622.1178 440.875L622.1178 439.65625L623.1803 439.65625L623.1803 440.875L622.1178 440.875ZM622.1178 448.25L622.1178 442.03125L623.1803 442.03125L623.1803 448.25L622.1178 448.25ZM625.1178 448.25L625.1178 442.03125L626.0553 442.03125L626.0553 442.90625Q626.7428 441.89062 628.0397 441.89062Q628.6022 441.89062 629.0709 442.09375Q629.5553 442.29688 629.7897 442.625Q630.02405 442.95312 630.1178 443.39062Q630.1647 443.6875 630.1647 444.42188L630.1647 448.25L629.1178 448.25L629.1178 444.46875Q629.1178 443.8125 628.9928 443.5Q628.8678 443.1875 628.5553 443.0Q628.2428 442.79688 627.8209 442.79688Q627.14905 442.79688 626.64905 443.23438Q626.1647 443.65625 626.1647 444.84375L626.1647 448.25L625.1178 448.25ZM631.9147 448.76562L632.9459 448.92188Q633.0084 449.39062 633.3053 449.60938Q633.6959 449.90625 634.3678 449.90625Q635.1022 449.90625 635.4928 449.60938Q635.89905 449.3125 636.0397 448.79688Q636.1334 448.46875 636.1178 447.4375Q635.4303 448.25 634.39905 448.25Q633.1178 448.25 632.4147 447.32812Q631.71155 446.39062 631.71155 445.10938Q631.71155 444.21875 632.02405 443.46875Q632.3522 442.70312 632.96155 442.29688Q633.5709 441.89062 634.39905 441.89062Q635.5084 441.89062 636.2272 442.78125L636.2272 442.03125L637.1959 442.03125L637.1959 447.40625Q637.1959 448.85938 636.89905 449.46875Q636.6022 450.07812 635.96155 450.42188Q635.3209 450.78125 634.3834 450.78125Q633.27405 450.78125 632.58655 450.28125Q631.89905 449.78125 631.9147 448.76562ZM632.7897 445.03125Q632.7897 446.25 633.27405 446.8125Q633.7584 447.375 634.4928 447.375Q635.2272 447.375 635.71155 446.8125Q636.21155 446.25 636.21155 445.0625Q636.21155 443.92188 635.6959 443.34375Q635.1959 442.76562 634.4772 442.76562Q633.77405 442.76562 633.27405 443.34375Q632.7897 443.90625 632.7897 445.03125Z" fill-rule="nonzero"/></svg>