<svg version="1.1" viewBox="0.0 0.0 804.0 498.0" fill="none" stroke="none" stroke-linecap="square" stroke-miterlimit="10" width="804" height="498" xmlns:xlink="http://www.w3.org/1999/xlink" xmlns="http://www.w3.org/2000/svg"><path fill="#ffffff" d="M0 0L804.0 0L804.0 498.0L0 498.0L0 0Z" fill-rule="nonzero"/><path stroke="#333333" stroke-width="1.0" stroke-linecap="butt" d="M62.5 453.5L703.5 453.5" fill-rule="nonzero"/><path stroke="#cccccc" stroke-width="1.0" stroke-linecap="butt" d="M62.5 347.5L703.5 347.5" fill-rule="nonzero"/><path stroke="#cccccc" stroke-width="1.0" stroke-linecap="butt" d="M62.5 242.5L703.5 242.5" fill-rule="nonzero"/><path stroke="#cccccc" stroke-width="1.0" stroke-linecap="butt" d="M62.5 137.5L703.5 137.5" fill-rule="nonzero"/><path stroke="#cccccc" stroke-width="1.0" stroke-linecap="butt" d="M62.5 31.5L703.5 31.5" fill-rule="nonzero"/><clipPath id="id_0"><path d="M62.9 31.9L703.68 31.9L703.68 453.1L62.9 453.1L62.9 31.9Z" clip-rule="nonzero"/></clipPath><path stroke="#000000" stroke-width="2.0" stroke-linecap="butt" stroke-opacity="0.0" clip-path="url(#id_0)" d="M210.0 453.0L114.0 453.0L114.0 453.0L210.0 453.0Z" fill-rule="nonzero"/><path fill="#38761d" clip-path="url(#id_0)" d="M210.0 453.0L114.0 453.0L114.0 453.0L210.0 453.0Z" fill-rule="nonzero"/><path stroke="#000000" stroke-width="2.0" stroke-linecap="butt" stroke-opacity="0.0" clip-path="url(#id_0)" d="M358.0 453.0L262.0 453.0L262.0 453.0L358.0 453.0Z" fill-rule="nonzero"/><path fill="#38761d" clip-path="url(#id_0)" d="M358.0 453.0L262.0 453.0L262.0 453.0L358.0 453.0Z" fill-rule="nonzero"/><path stroke="#000000" stroke-width="2.0" stroke-linecap="butt" stroke-opacity="0.0" clip-path="url(#id_0)" d="M505.0 453.0L409.0 453.0L409.0 453.0L505.0 453.0Z" fill-rule="nonzero"/><path fill="#38761d" clip-path="url(#id_0)" d="M505.0 453.0L409.0 453.0L409.0 453.0L505.0 453.0Z" fill-rule="nonzero"/><path stroke="#000000" stroke-width="2.0" stroke-linecap="butt" stroke-opacity="0.0" clip-path="url(#id_0)" d="M652.0 453.0L556.0 453.0L556.0 453.0L652.0 453.0Z" fill-rule="nonzero"/><path fill="#38761d" clip-path="url(#id_0)" d="M652.0 453.0L556.0 453.0L556.0 453.0L652.0 453.0Z" fill-rule="nonzero"/><path stroke="#000000" stroke-width="2.0" stroke-linecap="butt" stroke-opacity="0.0" clip-path="url(#id_0)" d="M210.0 453.0L114.0 453.0L114.0 453.0L210.0 453.0Z" fill-rule="nonzero"/><path fill="#6aa84f" clip-path="url(#id_0)" d="M210.0 453.0L114.0 453.0L114.0 453.0L210.0 453.0Z" fill-rule="nonzero"/><path stroke="#000000" stroke-width="2.0" stroke-linecap="butt" stroke-opacity="0.0" clip-path="url(#id_0)" d="M358.0 453.0L262.0 453.0L262.0 453.0L358.0 453.0Z" fill-rule="nonzero"/><path fill="#6aa84f" clip-path="url(#id_0)" d="M358.0 453.0L262.0 453.0L262.0 453.0L358.0 453.0Z" fill-rule="nonzero"/><path stroke="#000000" stroke-width="2.0" stroke-linecap="butt" stroke-opacity="0.0" clip-path="url(#id_0)" d="M505.0 453.0L409.0 453.0L409.0 396.0L505.0 396.0Z" fill-rule="nonzero"/><path fill="#6aa84f" clip-path="url(#id_0)" d="M505.0 453.0L409.0 453.0L409.0 396.0L505.0 396.0Z" fill-rule="nonzero"/><path stroke="#000000" stroke-width="2.0" stroke-linecap="butt" stroke-opacity="0.0" clip-path="url(#id_0)" d="M652.0 453.0L556.0 453.0L556.0 397.0L652.0 397.0Z" fill-rule="nonzero"/><path fill="#6aa84f" clip-path="url(#id_0)" d="M652.0 453.0L556.0 453.0L556.0 397.0L652.0 397.0Z" fill-rule="nonzero"/><path stroke="#000000" stroke-width="2.0" stroke-linecap="butt" stroke-opacity="0.0" clip-path="url(#id_0)" d="M210.0 453.0L114.0 453.0L114.0 399.0L210.0 399.0Z" fill-rule="nonzero"/><path fill="#93c47d" clip-path="url(#id_0)" d="M210.0 453.0L114.0 453.0L114.0 399.0L210.0 399.0Z" fill-rule="nonzero"/><path stroke="#000000" stroke-width="2.0" stroke-linecap="butt" stroke-opacity="0.0" clip-path="url(#id_0)" d="M358.0 453.0L262.0 453.0L262.0 380.0L358.0 380.0Z" fill-rule="nonzero"/><path fill="#93c47d" clip-path="url(#id_0)" d="M358.0 453.0L262.0 453.0L262.0 380.0L358.0 380.0Z" fill-rule="nonzero"/><path stroke="#000000" stroke-width="2.0" stroke-linecap="butt" stroke-opacity="0.0" clip-path="url(#id_0)" d="M505.0 396.0L409.0 396.0L409.0 353.0L505.0 353.0Z" fill-rule="nonzero"/><path fill="#93c47d" clip-path="url(#id_0)" d="M505.0 396.0L409.0 396.0L409.0 353.0L505.0 353.0Z" fill-rule="nonzero"/><path stroke="#000000" stroke-width="2.0" stroke-linecap="butt" stroke-opacity="0.0" clip-path="url(#id_0)" d="M652.0 397.0L556.0 397.0L556.0 353.0L652.0 353.0Z" fill-rule="nonzero"/><path fill="#93c47d" clip-path="url(#id_0)" d="M652.0 397.0L556.0 397.0L556.0 353.0L652.0 353.0Z" fill-rule="nonzero"/><path stroke="#000000" stroke-width="2.0" stroke-linecap="butt" stroke-opacity="0.0" clip-path="url(#id_0)" d="M210.0 399.0L114.0 399.0L114.0 373.0L210.0 373.0Z" fill-rule="nonzero"/><path fill="#0b5394" clip-path="url(#id_0)" d="M210.0 399.0L114.0 399.0L114.0 373.0L210.0 373.0Z" fill-rule="nonzero"/><path stroke="#000000" stroke-width="2.0" stroke-linecap="butt" stroke-opacity="0.0" clip-path="url(#id_0)" d="M358.0 380.0L262.0 380.0L262.0 349.0L358.0 349.0Z" fill-rule="nonzero"/><path fill="#0b5394" clip-path="url(#id_0)" d="M358.0 380.0L262.0 380.0L262.0 349.0L358.0 349.0Z" fill-rule="nonzero"/><path stroke="#000000" stroke-width="2.0" stroke-linecap="butt" stroke-opacity="0.0" clip-path="url(#id_0)" d="M505.0 353.0L409.0 353.0L409.0 314.0L505.0 314.0Z" fill-rule="nonzero"/><path fill="#0b5394" clip-path="url(#id_0)" d="M505.0 353.0L409.0 353.0L409.0 314.0L505.0 314.0Z" fill-rule="nonzero"/><path stroke="#000000" stroke-width="2.0" stroke-linecap="butt" stroke-opacity="0.0" clip-path="url(#id_0)" d="M652.0 353.0L556.0 353.0L556.0 311.0L652.0 311.0Z" fill-rule="nonzero"/><path fill="#0b5394" clip-path="url(#id_0)" d="M652.0 353.0L556.0 353.0L556.0 311.0L652.0 311.0Z" fill-rule="nonzero"/><path stroke="#000000" stroke-width="2.0" stroke-linecap="butt" stroke-opacity="0.0" clip-path="url(#id_0)" d="M210.0 373.0L114.0 373.0L114.0 312.0L210.0 312.0Z" fill-rule="nonzero"/><path fill="#3d85c6" clip-path="url(#id_0)" d="M210.0 373.0L114.0 373.0L114.0 312.0L210.0 312.0Z" fill-rule="nonzero"/><path stroke="#000000" stroke-width="2.0" stroke-linecap="butt" stroke-opacity="0.0" clip-path="url(#id_0)" d="M358.0 349.0L262.0 349.0L262.0 296.0L358.0 296.0Z" fill-rule="nonzero"/><path fill="#3d85c6" clip-path="url(#id_0)" d="M358.0 349.0L262.0 349.0L262.0 296.0L358.0 296.0Z" fill-rule="nonzero"/><path stroke="#000000" stroke-width="2.0" stroke-linecap="butt" stroke-opacity="0.0" clip-path="url(#id_0)" d="M505.0 314.0L409.0 314.0L409.0 267.0L505.0 267.0Z" fill-rule="nonzero"/><path fill="#3d85c6" clip-path="url(#id_0)" d="M505.0 314.0L409.0 314.0L409.0 267.0L505.0 267.0Z" fill-rule="nonzero"/><path stroke="#000000" stroke-width="2.0" stroke-linecap="butt" stroke-opacity="0.0" clip-path="url(#id_0)" d="M652.0 311.0L556.0 311.0L556.0 265.0L652.0 265.0Z" fill-rule="nonzero"/><path fill="#3d85c6" clip-path="url(#id_0)" d="M652.0 311.0L556.0 311.0L556.0 265.0L652.0 265.0Z" fill-rule="nonzero"/><path stroke="#000000" stroke-width="2.0" stroke-linecap="butt" stroke-opacity="0.0" clip-path="url(#id_0)" d="M210.0 312.0L114.0 312.0L114.0 247.0L210.0 247.0Z" fill-rule="nonzero"/><path fill="#6fa8dc" clip-path="url(#id_0)" d="M210.0 312.0L114.0 312.0L114.0 247.0L210.0 247.0Z" fill-rule="nonzero"/><path stroke="#000000" stroke-width="2.0" stroke-linecap="butt" stroke-opacity="0.0" clip-path="url(#id_0)" d="M358.0 296.0L262.0 296.0L262.0 235.0L358.0 235.0Z" fill-rule="nonzero"/><path fill="#6fa8dc" clip-path="url(#id_0)" d="M358.0 296.0L262.0 296.0L262.0 235.0L358.0 235.0Z" fill-rule="nonzero"/><path stroke="#000000" stroke-width="2.0" stroke-linecap="butt" stroke-opacity="0.0" clip-path="url(#id_0)" d="M505.0 267.0L409.0 267.0L409.0 208.0L505.0 208.0Z" fill-rule="nonzero"/><path fill="#6fa8dc" clip-path="url(#id_0)" d="M505.0 267.0L409.0 267.0L409.0 208.0L505.0 208.0Z" fill-rule="nonzero"/><path stroke="#000000" stroke-width="2.0" stroke-linecap="butt" stroke-opacity="0.0" clip-path="url(#id_0)" d="M652.0 265.0L556.0 265.0L556.0 203.0L652.0 203.0Z" fill-rule="nonzero"/><path fill="#6fa8dc" clip-path="url(#id_0)" d="M652.0 265.0L556.0 265.0L556.0 203.0L652.0 203.0Z" fill-rule="nonzero"/><path stroke="#000000" stroke-width="2.0" stroke-linecap="butt" stroke-opacity="0.0" clip-path="url(#id_0)" d="M210.0 247.0L114.0 247.0L114.0 163.0L210.0 163.0Z" fill-rule="nonzero"/><path fill="#9fc5e8" clip-path="url(#id_0)" d="M210.0 247.0L114.0 247.0L114.0 163.0L210.0 163.0Z" fill-rule="nonzero"/><path stroke="#000000" stroke-width="2.0" stroke-linecap="butt" stroke-opacity="0.0" clip-path="url(#id_0)" d="M358.0 235.0L262.0 235.0L262.0 149.0L358.0 149.0Z" fill-rule="nonzero"/><path fill="#9fc5e8" clip-path="url(#id_0)" d="M358.0 235.0L262.0 235.0L262.0 149.0L358.0 149.0Z" fill-rule="nonzero"/><path stroke="#000000" stroke-width="2.0" stroke-linecap="butt" stroke-opacity="0.0" clip-path="url(#id_0)" d="M505.0 208.0L409.0 208.0L409.0 138.0L505.0 138.0Z" fill-rule="nonzero"/><path fill="#9fc5e8" clip-path="url(#id_0)" d="M505.0 208.0L409.0 208.0L409.0 138.0L505.0 138.0Z" fill-rule="nonzero"/><path stroke="#000000" stroke-width="2.0" stroke-linecap="butt" stroke-opacity="0.0" clip-path="url(#id_0)" d="M652.0 203.0L556.0 203.0L556.0 135.0L652.0 135.0Z" fill-rule="nonzero"/><path fill="#9fc5e8" clip-path="url(#id_0)" d="M652.0 203.0L556.0 203.0L556.0 135.0L652.0 135.0Z" fill-rule="nonzero"/><path stroke="#000000" stroke-width="2.0" stroke-linecap="butt" stroke-opacity="0.0" clip-path="url(#id_0)" d="M210.0 163.0L114.0 163.0L114.0 149.0L210.0 149.0Z" fill-rule="nonzero"/><path fill="#cfe2f3" clip-path="url(#id_0)" d="M210.0 163.0L114.0 163.0L114.0 149.0L210.0 149.0Z" fill-rule="nonzero"/><path stroke="#000000" stroke-width="2.0" stroke-linecap="butt" stroke-opacity="0.0" clip-path="url(#id_0)" d="M358.0 149.0L262.0 149.0L262.0 135.0L358.0 135.0Z" fill-rule="nonzero"/><path fill="#cfe2f3" clip-path="url(#id_0)" d="M358.0 149.0L262.0 149.0L262.0 135.0L358.0 135.0Z" fill-rule="nonzero"/><path stroke="#000000" stroke-width="2.0" stroke-linecap="butt" stroke-opacity="0.0" clip-path="url(#id_0)" d="M505.0 138.0L409.0 138.0L409.0 125.0L505.0 125.0Z" fill-rule="nonzero"/><path fill="#cfe2f3" clip-path="url(#id_0)" d="M505.0 138.0L409.0 138.0L409.0 125.0L505.0 125.0Z" fill-rule="nonzero"/><path stroke="#000000" stroke-width="2.0" stroke-linecap="butt" stroke-opacity="0.0" clip-path="url(#id_0)" d="M652.0 135.0L556.0 135.0L556.0 122.0L652.0 122.0Z" fill-rule="nonzero"/><path fill="#cfe2f3" clip-path="url(#id_0)" d="M652.0 135.0L556.0 135.0L556.0 122.0L652.0 122.0Z" fill-rule="nonzero"/><path stroke="#000000" stroke-width="2.0" stroke-linecap="butt" stroke-opacity="0.0" clip-path="url(#id_0)" d="M210.0 149.0L114.0 149.0L114.0 121.0L210.0 121.0Z" fill-rule="nonzero"/><path fill="#990000" clip-path="url(#id_0)" d="M210.0 149.0L114.0 149.0L114.0 121.0L210.0 121.0Z" fill-rule="nonzero"/><path stroke="#000000" stroke-width="2.0" stroke-linecap="butt" stroke-opacity="0.0" clip-path="url(#id_0)" d="M358.0 135.0L262.0 135.0L262.0 113.0L358.0 113.0Z" fill-rule="nonzero"/><path fill="#990000" clip-path="url(#id_0)" d="M358.0 135.0L262.0 135.0L262.0 113.0L358.0 113.0Z" fill-rule="nonzero"/><path stroke="#000000" stroke-width="2.0" stroke-linecap="butt" stroke-opacity="0.0" clip-path="url(#id_0)" d="M505.0 125.0L409.0 125.0L409.0 106.0L505.0 106.0Z" fill-rule="nonzero"/><path fill="#990000" clip-path="url(#id_0)" d="M505.0 125.0L409.0 125.0L409.0 106.0L505.0 106.0Z" fill-rule="nonzero"/><path stroke="#000000" stroke-width="2.0" stroke-linecap="butt" stroke-opacity="0.0" clip-path="url(#id_0)" d="M652.0 122.0L556.0 122.0L556.0 103.0L652.0 103.0Z" fill-rule="nonzero"/><path fill="#990000" clip-path="url(#id_0)" d="M652.0 122.0L556.0 122.0L556.0 103.0L652.0 103.0Z" fill-rule="nonzero"/><path stroke="#000000" stroke-width="2.0" stroke-linecap="butt" stroke-opacity="0.0" clip-path="url(#id_0)" d="M210.0 121.0L114.0 121.0L114.0 101.0L210.0 101.0Z" fill-rule="nonzero"/><path fill="#cc0000" clip-path="url(#id_0)" d="M210.0 121.0L114.0 121.0L114.0 101.0L210.0 101.0Z" fill-rule="nonzero"/><path stroke="#000000" stroke-width="2.0" stroke-linecap="butt" stroke-opacity="0.0" clip-path="url(#id_0)" d="M358.0 113.0L262.0 113.0L262.0 94.0L358.0 94.0Z" fill-rule="nonzero"/><path fill="#cc0000" clip-path="url(#id_0)" d="M358.0 113.0L262.0 113.0L262.0 94.0L358.0 94.0Z" fill-rule="nonzero"/><path stroke="#000000" stroke-width="2.0" stroke-linecap="butt" stroke-opacity="0.0" clip-path="url(#id_0)" d="M505.0 106.0L409.0 106.0L409.0 90.0L505.0 90.0Z" fill-rule="nonzero"/><path fill="#cc0000" clip-path="url(#id_0)" d="M505.0 106.0L409.0 106.0L409.0 90.0L505.0 90.0Z" fill-rule="nonzero"/><path stroke="#000000" stroke-width="2.0" stroke-linecap="butt" stroke-opacity="0.0" clip-path="url(#id_0)" d="M652.0 103.0L556.0 103.0L556.0 87.0L652.0 87.0Z" fill-rule="nonzero"/><path fill="#cc0000" clip-path="url(#id_0)" d="M652.0 103.0L556.0 103.0L556.0 87.0L652.0 87.0Z" fill-rule="nonzero"/><path stroke="#000000" stroke-width="2.0" stroke-linecap="butt" stroke-opacity="0.0" clip-path="url(#id_0)" d="M210.0 101.0L114.0 101.0L114.0 82.0L210.0 82.0Z" fill-rule="nonzero"/><path fill="#e06666" clip-path="url(#id_0)" d="M210.0 101.0L114.0 101.0L114.0 82.0L210.0 82.0Z" fill-rule="nonzero"/><path stroke="#000000" stroke-width="2.0" stroke-linecap="butt" stroke-opacity="0.0" clip-path="url(#id_0)" d="M358.0 94.0L262.0 94.0L262.0 74.0L358.0 74.0Z" fill-rule="nonzero"/><path fill="#e06666" clip-path="url(#id_0)" d="M358.0 94.0L262.0 94.0L262.0 74.0L358.0 74.0Z" fill-rule="nonzero"/><path stroke="#000000" stroke-width="2.0" stroke-linecap="butt" stroke-opacity="0.0" clip-path="url(#id_0)" d="M505.0 90.0L409.0 90.0L409.0 72.0L505.0 72.0Z" fill-rule="nonzero"/><path fill="#e06666" clip-path="url(#id_0)" d="M505.0 90.0L409.0 90.0L409.0 72.0L505.0 72.0Z" fill-rule="nonzero"/><path stroke="#000000" stroke-width="2.0" stroke-linecap="butt" stroke-opacity="0.0" clip-path="url(#id_0)" d="M652.0 87.0L556.0 87.0L556.0 70.0L652.0 70.0Z" fill-rule="nonzero"/><path fill="#e06666" clip-path="url(#id_0)" d="M652.0 87.0L556.0 87.0L556.0 70.0L652.0 70.0Z" fill-rule="nonzero"/><path stroke="#000000" stroke-width="2.0" stroke-linecap="butt" stroke-opacity="0.0" clip-path="url(#id_0)" d="M210.0 82.0L114.0 82.0L114.0 37.0L210.0 37.0Z" fill-rule="nonzero"/><path fill="#ea9999" clip-path="url(#id_0)" d="M210.0 82.0L114.0 82.0L114.0 37.0L210.0 37.0Z" fill-rule="nonzero"/><path stroke="#000000" stroke-width="2.0" stroke-linecap="butt" stroke-opacity="0.0" clip-path="url(#id_0)" d="M358.0 74.0L262.0 74.0L262.0 36.0L358.0 36.0Z" fill-rule="nonzero"/><path fill="#ea9999" clip-path="url(#id_0)" d="M358.0 74.0L262.0 74.0L262.0 36.0L358.0 36.0Z" fill-rule="nonzero"/><path stroke="#000000" stroke-width="2.0" stroke-linecap="butt" stroke-opacity="0.0" clip-path="url(#id_0)" d="M505.0 72.0L409.0 72.0L409.0 36.0L505.0 36.0Z" fill-rule="nonzero"/><path fill="#ea9999" clip-path="url(#id_0)" d="M505.0 72.0L409.0 72.0L409.0 36.0L505.0 36.0Z" fill-rule="nonzero"/><path stroke="#000000" stroke-width="2.0" stroke-linecap="butt" stroke-opacity="0.0" clip-path="url(#id_0)" d="M652.0 70.0L556.0 70.0L556.0 36.0L652.0 36.0Z" fill-rule="nonzero"/><path fill="#ea9999" clip-path="url(#id_0)" d="M652.0 70.0L556.0 70.0L556.0 36.0L652.0 36.0Z" fill-rule="nonzero"/><path stroke="#000000" stroke-width="2.0" stroke-linecap="butt" stroke-opacity="0.0" clip-path="url(#id_0)" d="M210.0 37.0L114.0 37.0L114.0 34.0C114.0 32.89543 114.89543 32.0 116.0 32.0L208.0 32.0C209.10457 32.0 210.0 32.89543 210.0 34.0Z" fill-rule="nonzero"/><path fill="#f4cccc" clip-path="url(#id_0)" d="M210.0 37.0L114.0 37.0L114.0 34.0C114.0 32.89543 114.89543 32.0 116.0 32.0L208.0 32.0C209.10457 32.0 210.0 32.89543 210.0 34.0Z" fill-rule="nonzero"/><path stroke="#000000" stroke-width="2.0" stroke-linecap="butt" stroke-opacity="0.0" clip-path="url(#id_0)" d="M358.0 36.0L262.0 36.0L262.0 34.0C262.0 32.89543 262.89542 32.0 264.0 32.0L356.0 32.0C357.10458 32.0 358.0 32.89543 358.0 34.0Z" fill-rule="nonzero"/><path fill="#f4cccc" clip-path="url(#id_0)" d="M358.0 36.0L262.0 36.0L262.0 34.0C262.0 32.89543 262.89542 32.0 264.0 32.0L356.0 32.0C357.10458 32.0 358.0 32.89543 358.0 34.0Z" fill-rule="nonzero"/><path stroke="#000000" stroke-width="2.0" stroke-linecap="butt" stroke-opacity="0.0" clip-path="url(#id_0)" d="M505.0 36.0L409.0 36.0L409.0 34.0C409.0 32.89543 409.89542 32.0 411.0 32.0L503.0 32.0C504.10458 32.0 505.0 32.89543 505.0 34.0Z" fill-rule="nonzero"/><path fill="#f4cccc" clip-path="url(#id_0)" d="M505.0 36.0L409.0 36.0L409.0 34.0C409.0 32.89543 409.89542 32.0 411.0 32.0L503.0 32.0C504.10458 32.0 505.0 32.89543 505.0 34.0Z" fill-rule="nonzero"/><path stroke="#000000" stroke-width="2.0" stroke-linecap="butt" stroke-opacity="0.0" clip-path="url(#id_0)" d="M652.0 36.0L556.0 36.0L556.0 34.0C556.0 32.89543 556.89545 32.0 558.0 32.0L650.0 32.0C651.10455 32.0 652.0 32.89543 652.0 34.0Z" fill-rule="nonzero"/><path fill="#f4cccc" clip-path="url(#id_0)" d="M652.0 36.0L556.0 36.0L556.0 34.0C556.0 32.89543 556.89545 32.0 558.0 32.0L650.0 32.0C651.10455 32.0 652.0 32.89543 652.0 34.0Z" fill-rule="nonzero"/><path fill="#000000" d="M39.4 452.86563Q39.4 451.33438 39.7125 450.4125Q40.025 449.475 40.634377 448.975Q41.259377 448.475 42.196877 448.475Q42.884377 448.475 43.4 448.75626Q43.93125 449.0375 44.275 449.56876Q44.61875 450.08438 44.80625 450.83438Q44.99375 451.58438 44.99375 452.86563Q44.99375 454.38126 44.68125 455.30313Q44.384377 456.225 43.759377 456.74063Q43.15 457.24063 42.196877 457.24063Q40.9625 457.24063 40.24375 456.35Q39.4 455.2875 39.4 452.86563ZM40.478127 452.86563Q40.478127 454.975 40.978127 455.67813Q41.478127 456.38126 42.196877 456.38126Q42.93125 456.38126 43.415627 455.67813Q43.915627 454.975 43.915627 452.86563Q43.915627 450.74063 43.415627 450.05313Q42.93125 449.35 42.18125 449.35Q41.4625 449.35 41.025 449.95938Q40.478127 450.74063 40.478127 452.86563ZM46.603127 450.56876Q46.603127 449.64688 47.05625 449.00626Q47.525 448.36563 48.4 448.36563Q49.2125 448.36563 49.74375 448.94376Q50.275 449.52188 50.275 450.63126Q50.275 451.725 49.728127 452.31876Q49.196877 452.89688 48.415627 452.89688Q47.634377 452.89688 47.11875 452.31876Q46.603127 451.74063 46.603127 450.56876ZM48.43125 449.08438Q48.040627 449.08438 47.775 449.42813Q47.525 449.77188 47.525 450.67813Q47.525 451.50626 47.775 451.85Q48.040627 452.17813 48.43125 452.17813Q48.8375 452.17813 49.0875 451.83438Q49.353127 451.49063 49.353127 450.6Q49.353127 449.75626 49.0875 449.42813Q48.821877 449.08438 48.43125 449.08438ZM48.43125 457.4125L53.134377 448.36563L53.99375 448.36563L49.30625 457.4125L48.43125 457.4125ZM52.15 455.08438Q52.15 454.1625 52.603127 453.52188Q53.071877 452.88126 53.9625 452.88126Q54.775 452.88126 55.30625 453.45938Q55.8375 454.02188 55.8375 455.14688Q55.8375 456.24063 55.290627 456.83438Q54.759377 457.4125 53.9625 457.4125Q53.196877 457.4125 52.665627 456.83438Q52.15 456.25626 52.15 455.08438ZM53.99375 453.6Q53.5875 453.6 53.321877 453.94376Q53.071877 454.2875 53.071877 455.19376Q53.071877 456.00626 53.3375 456.35Q53.603127 456.69376 53.99375 456.69376Q54.384377 456.69376 54.65 456.35Q54.915627 456.00626 54.915627 455.1Q54.915627 454.27188 54.65 453.94376Q54.384377 453.6 53.99375 453.6Z" fill-rule="nonzero"/><path fill="#000000" d="M37.946877 350.78436L37.946877 351.8L32.259377 351.8Q32.259377 351.425 32.384377 351.0656Q32.603127 350.4875 33.071877 349.925Q33.55625 349.3625 34.4625 348.6281Q35.86875 347.47186 36.353127 346.8Q36.853127 346.1281 36.853127 345.53436Q36.853127 344.90936 36.4 344.4875Q35.946877 344.05 35.228127 344.05Q34.4625 344.05 34.009377 344.5031Q33.55625 344.95624 33.540627 345.76874L32.4625 345.65936Q32.571877 344.4406 33.290627 343.8156Q34.025 343.175 35.259377 343.175Q36.49375 343.175 37.2125 343.8625Q37.93125 344.55 37.93125 345.5656Q37.93125 346.08124 37.7125 346.58124Q37.509377 347.0656 37.009377 347.6281Q36.525 348.175 35.4 349.1281Q34.446877 349.925 34.165627 350.22186Q33.9 350.5031 33.728127 350.78436L37.946877 350.78436ZM39.4 349.55L40.509377 349.45624Q40.634377 350.26874 41.071877 350.675Q41.525 351.08124 42.165627 351.08124Q42.915627 351.08124 43.446877 350.5031Q43.978127 349.925 43.978127 348.9875Q43.978127 348.08124 43.4625 347.5656Q42.9625 347.03436 42.134377 347.03436Q41.634377 347.03436 41.2125 347.26874Q40.80625 347.5031 40.571877 347.8625L39.5875 347.7375L40.415627 343.33124L44.696877 343.33124L44.696877 344.33124L41.259377 344.33124L40.80625 346.64374Q41.571877 346.09686 42.415627 346.09686Q43.540627 346.09686 44.30625 346.8781Q45.0875 347.65936 45.0875 348.89374Q45.0875 350.05 44.415627 350.90936Q43.5875 351.9406 42.165627 351.9406Q40.99375 351.9406 40.24375 351.28436Q39.509377 350.6281 39.4 349.55ZM46.603127 345.26874Q46.603127 344.34686 47.05625 343.70624Q47.525 343.0656 48.4 343.0656Q49.2125 343.0656 49.74375 343.64374Q50.275 344.22186 50.275 345.33124Q50.275 346.425 49.728127 347.01874Q49.196877 347.59686 48.415627 347.59686Q47.634377 347.59686 47.11875 347.01874Q46.603127 346.4406 46.603127 345.26874ZM48.43125 343.78436Q48.040627 343.78436 47.775 344.1281Q47.525 344.47186 47.525 345.3781Q47.525 346.20624 47.775 346.55Q48.040627 346.8781 48.43125 346.8781Q48.8375 346.8781 49.0875 346.53436Q49.353127 346.1906 49.353127 345.3Q49.353127 344.45624 49.0875 344.1281Q48.821877 343.78436 48.43125 343.78436ZM48.43125 352.1125L53.134377 343.0656L53.99375 343.0656L49.30625 352.1125L48.43125 352.1125ZM52.15 349.78436Q52.15 348.8625 52.603127 348.22186Q53.071877 347.58124 53.9625 347.58124Q54.775 347.58124 55.30625 348.15936Q55.8375 348.72186 55.8375 349.84686Q55.8375 350.9406 55.290627 351.53436Q54.759377 352.1125 53.9625 352.1125Q53.196877 352.1125 52.665627 351.53436Q52.15 350.95624 52.15 349.78436ZM53.99375 348.3Q53.5875 348.3 53.321877 348.64374Q53.071877 348.9875 53.071877 349.89374Q53.071877 350.70624 53.3375 351.05Q53.603127 351.39374 53.99375 351.39374Q54.384377 351.39374 54.65 351.05Q54.915627 350.70624 54.915627 349.8Q54.915627 348.97186 54.65 348.64374Q54.384377 348.3 53.99375 348.3Z" fill-rule="nonzero"/><path fill="#000000" d="M32.4 244.25L33.509377 244.15625Q33.634377 244.96875 34.071877 245.375Q34.525 245.78125 35.165627 245.78125Q35.915627 245.78125 36.446877 245.20312Q36.978127 244.625 36.978127 243.6875Q36.978127 242.78125 36.4625 242.26562Q35.9625 241.73438 35.134377 241.73438Q34.634377 241.73438 34.2125 241.96875Q33.80625 242.20312 33.571877 242.5625L32.5875 242.4375L33.415627 238.03125L37.696877 238.03125L37.696877 239.03125L34.259377 239.03125L33.80625 241.34375Q34.571877 240.79688 35.415627 240.79688Q36.540627 240.79688 37.30625 241.57812Q38.0875 242.35938 38.0875 243.59375Q38.0875 244.75 37.415627 245.60938Q36.5875 246.64062 35.165627 246.64062Q33.99375 246.64062 33.24375 245.98438Q32.509377 245.32812 32.4 244.25ZM39.4 242.26562Q39.4 240.73438 39.7125 239.8125Q40.025 238.875 40.634377 238.375Q41.259377 237.875 42.196877 237.875Q42.884377 237.875 43.4 238.15625Q43.93125 238.4375 44.275 238.96875Q44.61875 239.48438 44.80625 240.23438Q44.99375 240.98438 44.99375 242.26562Q44.99375 243.78125 44.68125 244.70312Q44.384377 245.625 43.759377 246.14062Q43.15 246.64062 42.196877 246.64062Q40.9625 246.64062 40.24375 245.75Q39.4 244.6875 39.4 242.26562ZM40.478127 242.26562Q40.478127 244.375 40.978127 245.07812Q41.478127 245.78125 42.196877 245.78125Q42.93125 245.78125 43.415627 245.07812Q43.915627 244.375 43.915627 242.26562Q43.915627 240.14062 43.415627 239.45312Q42.93125 238.75 42.18125 238.75Q41.4625 238.75 41.025 239.35938Q40.478127 240.14062 40.478127 242.26562ZM46.603127 239.96875Q46.603127 239.04688 47.05625 238.40625Q47.525 237.76562 48.4 237.76562Q49.2125 237.76562 49.74375 238.34375Q50.275 238.92188 50.275 240.03125Q50.275 241.125 49.728127 241.71875Q49.196877 242.29688 48.415627 242.29688Q47.634377 242.29688 47.11875 241.71875Q46.603127 241.14062 46.603127 239.96875ZM48.43125 238.48438Q48.040627 238.48438 47.775 238.82812Q47.525 239.17188 47.525 240.07812Q47.525 240.90625 47.775 241.25Q48.040627 241.57812 48.43125 241.57812Q48.8375 241.57812 49.0875 241.23438Q49.353127 240.89062 49.353127 240.0Q49.353127 239.15625 49.0875 238.82812Q48.821877 238.48438 48.43125 238.48438ZM48.43125 246.8125L53.134377 237.76562L53.99375 237.76562L49.30625 246.8125L48.43125 246.8125ZM52.15 244.48438Q52.15 243.5625 52.603127 242.92188Q53.071877 242.28125 53.9625 242.28125Q54.775 242.28125 55.30625 242.85938Q55.8375 243.42188 55.8375 244.54688Q55.8375 245.64062 55.290627 246.23438Q54.759377 246.8125 53.9625 246.8125Q53.196877 246.8125 52.665627 246.23438Q52.15 245.65625 52.15 244.48438ZM53.99375 243.0Q53.5875 243.0 53.321877 243.34375Q53.071877 243.6875 53.071877 244.59375Q53.071877 245.40625 53.3375 245.75Q53.603127 246.09375 53.99375 246.09375Q54.384377 246.09375 54.65 245.75Q54.915627 245.40625 54.915627 244.5Q54.915627 243.67188 54.65 243.34375Q54.384377 243.0 53.99375 243.0Z" fill-rule="nonzero"/><path fill="#000000" d="M32.4625 133.73125L32.4625 132.71562L38.025 132.71562L38.025 133.54375Q37.2125 134.41875 36.4 135.87187Q35.603127 137.30937 35.165627 138.84062Q34.8375 139.91875 34.759377 141.2L33.665627 141.2Q33.68125 140.18437 34.05625 138.74687Q34.446877 137.30937 35.15 135.98125Q35.86875 134.65312 36.68125 133.73125L32.4625 133.73125ZM39.4 138.95L40.509377 138.85625Q40.634377 139.66875 41.071877 140.075Q41.525 140.48125 42.165627 140.48125Q42.915627 140.48125 43.446877 139.90312Q43.978127 139.325 43.978127 138.3875Q43.978127 137.48125 43.4625 136.96562Q42.9625 136.43437 42.134377 136.43437Q41.634377 136.43437 41.2125 136.66875Q40.80625 136.90312 40.571877 137.2625L39.5875 137.1375L40.415627 132.73125L44.696877 132.73125L44.696877 133.73125L41.259377 133.73125L40.80625 136.04375Q41.571877 135.49687 42.415627 135.49687Q43.540627 135.49687 44.30625 136.27812Q45.0875 137.05937 45.0875 138.29375Q45.0875 139.45 44.415627 140.30937Q43.5875 141.34062 42.165627 141.34062Q40.99375 141.34062 40.24375 140.68437Q39.509377 140.02812 39.4 138.95ZM46.603127 134.66875Q46.603127 133.74687 47.05625 133.10625Q47.525 132.46562 48.4 132.46562Q49.2125 132.46562 49.74375 133.04375Q50.275 133.62187 50.275 134.73125Q50.275 135.825 49.728127 136.41875Q49.196877 136.99687 48.415627 136.99687Q47.634377 136.99687 47.11875 136.41875Q46.603127 135.84062 46.603127 134.66875ZM48.43125 133.18437Q48.040627 133.18437 47.775 133.52812Q47.525 133.87187 47.525 134.77812Q47.525 135.60625 47.775 135.95Q48.040627 136.27812 48.43125 136.27812Q48.8375 136.27812 49.0875 135.93437Q49.353127 135.59062 49.353127 134.7Q49.353127 133.85625 49.0875 133.52812Q48.821877 133.18437 48.43125 133.18437ZM48.43125 141.5125L53.134377 132.46562L53.99375 132.46562L49.30625 141.5125L48.43125 141.5125ZM52.15 139.18437Q52.15 138.2625 52.603127 137.62187Q53.071877 136.98125 53.9625 136.98125Q54.775 136.98125 55.30625 137.55937Q55.8375 138.12187 55.8375 139.24687Q55.8375 140.34062 55.290627 140.93437Q54.759377 141.5125 53.9625 141.5125Q53.196877 141.5125 52.665627 140.93437Q52.15 140.35625 52.15 139.18437ZM53.99375 137.7Q53.5875 137.7 53.321877 138.04375Q53.071877 138.3875 53.071877 139.29375Q53.071877 140.10625 53.3375 140.45Q53.603127 140.79375 53.99375 140.79375Q54.384377 140.79375 54.65 140.45Q54.915627 140.10625 54.915627 139.2Q54.915627 138.37187 54.65 138.04375Q54.384377 137.7 53.99375 137.7Z" fill-rule="nonzero"/><path fill="#000000" d="M29.36875 35.9L28.321875 35.9L28.321875 29.181252Q27.93125 29.540627 27.30625 29.915627Q26.696875 30.275002 26.2125 30.446877L26.2125 29.431252Q27.0875 29.009377 27.74375 28.431252Q28.415625 27.837502 28.696875 27.275002L29.36875 27.275002L29.36875 35.9ZM32.4 31.665627Q32.4 30.134377 32.7125 29.212502Q33.025 28.275002 33.634377 27.775002Q34.259377 27.275002 35.196877 27.275002Q35.884377 27.275002 36.4 27.556252Q36.93125 27.837502 37.275 28.368752Q37.61875 28.884377 37.80625 29.634377Q37.99375 30.384377 37.99375 31.665627Q37.99375 33.18125 37.68125 34.103127Q37.384377 35.025 36.759377 35.540627Q36.15 36.040627 35.196877 36.040627Q33.9625 36.040627 33.24375 35.15Q32.4 34.0875 32.4 31.665627ZM33.478127 31.665627Q33.478127 33.775 33.978127 34.478127Q34.478127 35.18125 35.196877 35.18125Q35.93125 35.18125 36.415627 34.478127Q36.915627 33.775 36.915627 31.665627Q36.915627 29.540627 36.415627 28.853127Q35.93125 28.150002 35.18125 28.150002Q34.4625 28.150002 34.025 28.759377Q33.478127 29.540627 33.478127 31.665627ZM39.4 31.665627Q39.4 30.134377 39.7125 29.212502Q40.025 28.275002 40.634377 27.775002Q41.259377 27.275002 42.196877 27.275002Q42.884377 27.275002 43.4 27.556252Q43.93125 27.837502 44.275 28.368752Q44.61875 28.884377 44.80625 29.634377Q44.99375 30.384377 44.99375 31.665627Q44.99375 33.18125 44.68125 34.103127Q44.384377 35.025 43.759377 35.540627Q43.15 36.040627 42.196877 36.040627Q40.9625 36.040627 40.24375 35.15Q39.4 34.0875 39.4 31.665627ZM40.478127 31.665627Q40.478127 33.775 40.978127 34.478127Q41.478127 35.18125 42.196877 35.18125Q42.93125 35.18125 43.415627 34.478127Q43.915627 33.775 43.915627 31.665627Q43.915627 29.540627 43.415627 28.853127Q42.93125 28.150002 42.18125 28.150002Q41.4625 28.150002 41.025 28.759377Q40.478127 29.540627 40.478127 31.665627ZM46.603127 29.368752Q46.603127 28.446877 47.05625 27.806252Q47.525 27.165627 48.4 27.165627Q49.2125 27.165627 49.74375 27.743752Q50.275 28.321877 50.275 29.431252Q50.275 30.525002 49.728127 31.118752Q49.196877 31.696877 48.415627 31.696877Q47.634377 31.696877 47.11875 31.118752Q46.603127 30.540627 46.603127 29.368752ZM48.43125 27.884377Q48.040627 27.884377 47.775 28.228127Q47.525 28.571877 47.525 29.478127Q47.525 30.306252 47.775 30.650002Q48.040627 30.978127 48.43125 30.978127Q48.8375 30.978127 49.0875 30.634377Q49.353127 30.290627 49.353127 29.400002Q49.353127 28.556252 49.0875 28.228127Q48.821877 27.884377 48.43125 27.884377ZM48.43125 36.2125L53.134377 27.165627L53.99375 27.165627L49.30625 36.2125L48.43125 36.2125ZM52.15 33.884377Q52.15 32.9625 52.603127 32.321877Q53.071877 31.681252 53.9625 31.681252Q54.775 31.681252 55.30625 32.259377Q55.8375 32.821877 55.8375 33.946877Q55.8375 35.040627 55.290627 35.634377Q54.759377 36.2125 53.9625 36.2125Q53.196877 36.2125 52.665627 35.634377Q52.15 35.05625 52.15 33.884377ZM53.99375 32.4Q53.5875 32.4 53.321877 32.74375Q53.071877 33.0875 53.071877 33.99375Q53.071877 34.80625 53.3375 35.15Q53.603127 35.49375 53.99375 35.49375Q54.384377 35.49375 54.65 35.15Q54.915627 34.80625 54.915627 33.9Q54.915627 33.071877 54.65 32.74375Q54.384377 32.4 53.99375 32.4Z" fill-rule="nonzero"/><path fill="#000000" d="M135.17513 467.6625L136.20638 467.52188Q136.23763 468.50626 136.56575 468.86563Q136.89388 469.225 137.48763 469.225Q137.9095 469.225 138.222 469.0375Q138.5345 468.83438 138.64388 468.50626Q138.76888 468.1625 138.76888 467.42813L138.76888 461.50626L139.89388 461.50626L139.89388 467.36563Q139.89388 468.44376 139.62825 469.0375Q139.37825 469.63126 138.81575 469.94376Q138.25325 470.24063 137.48763 470.24063Q136.36263 470.24063 135.75325 469.6Q135.1595 468.94376 135.17513 467.6625ZM145.70638 470.1L145.70638 469.17813Q144.972 470.24063 143.722 470.24063Q143.17513 470.24063 142.69075 470.0375Q142.222 469.81876 141.98763 469.50626Q141.75325 469.17813 141.6595 468.70938Q141.597 468.4125 141.597 467.725L141.597 463.88126L142.6595 463.88126L142.6595 467.33438Q142.6595 468.14688 142.722 468.44376Q142.81575 468.85 143.12825 469.1Q143.45638 469.33438 143.94075 469.33438Q144.4095 469.33438 144.81575 469.1Q145.23763 468.85 145.4095 468.42813Q145.597 468.00626 145.597 467.20938L145.597 463.88126L146.64388 463.88126L146.64388 470.1L145.70638 470.1ZM148.597 470.1L148.597 461.50626L149.6595 461.50626L149.6595 470.1L148.597 470.1ZM151.58138 472.49063L151.45638 471.50626Q151.80013 471.6 152.06575 471.6Q152.4095 471.6 152.61263 471.475Q152.83138 471.36563 152.972 471.1625Q153.06575 470.99063 153.30013 470.36563Q153.31575 470.2875 153.39388 470.11563L151.01888 463.88126L152.1595 463.88126L153.45638 467.475Q153.70638 468.1625 153.9095 468.92813Q154.097 468.19376 154.347 467.50626L155.67513 463.88126L156.722 463.88126L154.36263 470.20938Q153.972 471.225 153.76888 471.61563Q153.48763 472.14688 153.11263 472.38126Q152.75325 472.63126 152.25325 472.63126Q151.95638 472.63126 151.58138 472.49063ZM156.89388 470.1L156.89388 468.89688L158.097 468.89688L158.097 470.1Q158.097 470.75626 157.86263 471.1625Q157.62825 471.58438 157.12825 471.80313L156.83138 471.35Q157.1595 471.20938 157.31575 470.9125Q157.472 470.63126 157.50325 470.1L156.89388 470.1ZM167.87825 469.08438L167.87825 470.1L162.19075 470.1Q162.19075 469.725 162.31575 469.36563Q162.5345 468.7875 163.00325 468.225Q163.48763 467.6625 164.39388 466.92813Q165.80013 465.77188 166.2845 465.1Q166.7845 464.42813 166.7845 463.83438Q166.7845 463.20938 166.33138 462.7875Q165.87825 462.35 165.1595 462.35Q164.39388 462.35 163.94075 462.80313Q163.48763 463.25626 163.472 464.06876L162.39388 463.95938Q162.50325 462.74063 163.222 462.11563Q163.95638 461.475 165.19075 461.475Q166.42513 461.475 167.14388 462.1625Q167.86263 462.85 167.86263 463.86563Q167.86263 464.38126 167.64388 464.88126Q167.44075 465.36563 166.94075 465.92813Q166.45638 466.475 165.33138 467.42813Q164.37825 468.225 164.097 468.52188Q163.83138 468.80313 163.6595 469.08438L167.87825 469.08438ZM169.33138 465.86563Q169.33138 464.33438 169.64388 463.4125Q169.95638 462.475 170.56575 461.975Q171.19075 461.475 172.12825 461.475Q172.81575 461.475 173.33138 461.75626Q173.86263 462.0375 174.20638 462.56876Q174.55013 463.08438 174.73763 463.83438Q174.92513 464.58438 174.92513 465.86563Q174.92513 467.38126 174.61263 468.30313Q174.31575 469.225 173.69075 469.74063Q173.08138 470.24063 172.12825 470.24063Q170.89388 470.24063 170.17513 469.35Q169.33138 468.2875 169.33138 465.86563ZM170.4095 465.86563Q170.4095 467.975 170.9095 468.67813Q171.4095 469.38126 172.12825 469.38126Q172.86263 469.38126 173.347 468.67813Q173.847 467.975 173.847 465.86563Q173.847 463.74063 173.347 463.05313Q172.86263 462.35 172.11263 462.35Q171.39388 462.35 170.95638 462.95938Q170.4095 463.74063 170.4095 465.86563ZM181.87825 469.08438L181.87825 470.1L176.19075 470.1Q176.19075 469.725 176.31575 469.36563Q176.5345 468.7875 177.00325 468.225Q177.48763 467.6625 178.39388 466.92813Q179.80013 465.77188 180.2845 465.1Q180.7845 464.42813 180.7845 463.83438Q180.7845 463.20938 180.33138 462.7875Q179.87825 462.35 179.1595 462.35Q178.39388 462.35 177.94075 462.80313Q177.48763 463.25626 177.472 464.06876L176.39388 463.95938Q176.50325 462.74063 177.222 462.11563Q177.95638 461.475 179.19075 461.475Q180.42513 461.475 181.14388 462.1625Q181.86263 462.85 181.86263 463.86563Q181.86263 464.38126 181.64388 464.88126Q181.44075 465.36563 180.94075 465.92813Q180.45638 466.475 179.33138 467.42813Q178.37825 468.225 178.097 468.52188Q177.83138 468.80313 177.6595 469.08438L181.87825 469.08438ZM187.30013 470.1L186.25325 470.1L186.25325 463.38126Q185.86263 463.74063 185.23763 464.11563Q184.62825 464.475 184.14388 464.64688L184.14388 463.63126Q185.01888 463.20938 185.67513 462.63126Q186.347 462.0375 186.62825 461.475L187.30013 461.475L187.30013 470.1Z" fill-rule="nonzero"/><path fill="#000000" d="M271.48087 467.6625L272.51212 467.52188Q272.54337 468.50626 272.8715 468.86563Q273.19962 469.225 273.79337 469.225Q274.21524 469.225 274.52774 469.0375Q274.84024 468.83438 274.94962 468.50626Q275.07462 468.1625 275.07462 467.42813L275.07462 461.50626L276.19962 461.50626L276.19962 467.36563Q276.19962 468.44376 275.934 469.0375Q275.684 469.63126 275.1215 469.94376Q274.559 470.24063 273.79337 470.24063Q272.66837 470.24063 272.059 469.6Q271.46524 468.94376 271.48087 467.6625ZM281.9965 469.33438Q281.40274 469.83438 280.85587 470.0375Q280.32462 470.24063 279.69962 470.24063Q278.66837 470.24063 278.1215 469.74063Q277.57462 469.24063 277.57462 468.45938Q277.57462 468.00626 277.77774 467.63126Q277.98087 467.24063 278.32462 467.02188Q278.66837 466.7875 279.09024 466.67813Q279.38712 466.58438 280.02774 466.50626Q281.29337 466.36563 281.90274 466.14688Q281.90274 465.92813 281.90274 465.88126Q281.90274 465.225 281.60587 464.95938Q281.19962 464.61563 280.40274 464.61563Q279.66837 464.61563 279.309 464.88126Q278.94962 465.13126 278.77774 465.7875L277.7465 465.64688Q277.88712 464.99063 278.21524 464.58438Q278.54337 464.17813 279.15274 463.95938Q279.76212 463.74063 280.559 463.74063Q281.35587 463.74063 281.85587 463.92813Q282.35587 464.11563 282.59024 464.39688Q282.82462 464.67813 282.91837 465.11563Q282.96524 465.38126 282.96524 466.08438L282.96524 467.49063Q282.96524 468.95938 283.02774 469.35Q283.10587 469.74063 283.309 470.1L282.19962 470.1Q282.04337 469.77188 281.9965 469.33438ZM281.90274 466.975Q281.32462 467.20938 280.184 467.38126Q279.52774 467.475 279.26212 467.6Q278.9965 467.70938 278.84024 467.92813Q278.69962 468.14688 278.69962 468.42813Q278.69962 468.85 279.01212 469.13126Q279.34024 469.4125 279.94962 469.4125Q280.559 469.4125 281.02774 469.14688Q281.51212 468.88126 281.73087 468.4125Q281.90274 468.05313 281.90274 467.36563L281.90274 466.975ZM284.934 470.1L284.934 463.88126L285.8715 463.88126L285.8715 464.75626Q286.559 463.74063 287.85587 463.74063Q288.41837 463.74063 288.88712 463.94376Q289.3715 464.14688 289.60587 464.475Q289.84024 464.80313 289.934 465.24063Q289.98087 465.5375 289.98087 466.27188L289.98087 470.1L288.934 470.1L288.934 466.31876Q288.934 465.6625 288.809 465.35Q288.684 465.0375 288.3715 464.85Q288.059 464.64688 287.63712 464.64688Q286.96524 464.64688 286.46524 465.08438Q285.98087 465.50626 285.98087 466.69376L285.98087 470.1L284.934 470.1ZM296.01212 470.1L296.01212 469.17813Q295.27774 470.24063 294.02774 470.24063Q293.48087 470.24063 292.9965 470.0375Q292.52774 469.81876 292.29337 469.50626Q292.059 469.17813 291.96524 468.70938Q291.90274 468.4125 291.90274 467.725L291.90274 463.88126L292.96524 463.88126L292.96524 467.33438Q292.96524 468.14688 293.02774 468.44376Q293.1215 468.85 293.434 469.1Q293.76212 469.33438 294.2465 469.33438Q294.71524 469.33438 295.1215 469.1Q295.54337 468.85 295.71524 468.42813Q295.90274 468.00626 295.90274 467.20938L295.90274 463.88126L296.94962 463.88126L296.94962 470.1L296.01212 470.1ZM302.9965 469.33438Q302.40274 469.83438 301.85587 470.0375Q301.32462 470.24063 300.69962 470.24063Q299.66837 470.24063 299.1215 469.74063Q298.57462 469.24063 298.57462 468.45938Q298.57462 468.00626 298.77774 467.63126Q298.98087 467.24063 299.32462 467.02188Q299.66837 466.7875 300.09024 466.67813Q300.38712 466.58438 301.02774 466.50626Q302.29337 466.36563 302.90274 466.14688Q302.90274 465.92813 302.90274 465.88126Q302.90274 465.225 302.60587 464.95938Q302.19962 464.61563 301.40274 464.61563Q300.66837 464.61563 300.309 464.88126Q299.94962 465.13126 299.77774 465.7875L298.7465 465.64688Q298.88712 464.99063 299.21524 464.58438Q299.54337 464.17813 300.15274 463.95938Q300.76212 463.74063 301.559 463.74063Q302.35587 463.74063 302.85587 463.92813Q303.35587 464.11563 303.59024 464.39688Q303.82462 464.67813 303.91837 465.11563Q303.96524 465.38126 303.96524 466.08438L303.96524 467.49063Q303.96524 468.95938 304.02774 469.35Q304.10587 469.74063 304.309 470.1L303.19962 470.1Q303.04337 469.77188 302.9965 469.33438ZM302.90274 466.975Q302.32462 467.20938 301.184 467.38126Q300.52774 467.475 300.26212 467.6Q299.9965 467.70938 299.84024 467.92813Q299.69962 468.14688 299.69962 468.42813Q299.69962 468.85 300.01212 469.13126Q300.34024 469.4125 300.94962 469.4125Q301.559 469.4125 302.02774 469.14688Q302.51212 468.88126 302.73087 468.4125Q302.90274 468.05313 302.90274 467.36563L302.90274 466.975ZM305.91837 470.1L305.91837 463.88126L306.8715 463.88126L306.8715 464.81876Q307.23087 464.1625 307.52774 463.95938Q307.84024 463.74063 308.21524 463.74063Q308.7465 463.74063 309.29337 464.06876L308.934 465.05313Q308.54337 464.81876 308.16837 464.81876Q307.809 464.81876 307.52774 465.0375Q307.26212 465.24063 307.15274 465.61563Q306.96524 466.17813 306.96524 466.83438L306.96524 470.1L305.91837 470.1ZM309.88712 472.49063L309.76212 471.50626Q310.10587 471.6 310.3715 471.6Q310.71524 471.6 310.91837 471.475Q311.13712 471.36563 311.27774 471.1625Q311.3715 470.99063 311.60587 470.36563Q311.6215 470.2875 311.69962 470.11563L309.32462 463.88126L310.46524 463.88126L311.76212 467.475Q312.01212 468.1625 312.21524 468.92813Q312.40274 468.19376 312.65274 467.50626L313.98087 463.88126L315.02774 463.88126L312.66837 470.20938Q312.27774 471.225 312.07462 471.61563Q311.79337 472.14688 311.41837 472.38126Q311.059 472.63126 310.559 472.63126Q310.26212 472.63126 309.88712 472.49063ZM315.19962 470.1L315.19962 468.89688L316.40274 468.89688L316.40274 470.1Q316.40274 470.75626 316.16837 471.1625Q315.934 471.58438 315.434 471.80313L315.13712 471.35Q315.46524 471.20938 315.6215 470.9125Q315.77774 470.63126 315.809 470.1L315.19962 470.1ZM326.184 469.08438L326.184 470.1L320.4965 470.1Q320.4965 469.725 320.6215 469.36563Q320.84024 468.7875 321.309 468.225Q321.79337 467.6625 322.69962 466.92813Q324.10587 465.77188 324.59024 465.1Q325.09024 464.42813 325.09024 463.83438Q325.09024 463.20938 324.63712 462.7875Q324.184 462.35 323.46524 462.35Q322.69962 462.35 322.2465 462.80313Q321.79337 463.25626 321.77774 464.06876L320.69962 463.95938Q320.809 462.74063 321.52774 462.11563Q322.26212 461.475 323.4965 461.475Q324.73087 461.475 325.44962 462.1625Q326.16837 462.85 326.16837 463.86563Q326.16837 464.38126 325.94962 464.88126Q325.7465 465.36563 325.2465 465.92813Q324.76212 466.475 323.63712 467.42813Q322.684 468.225 322.40274 468.52188Q322.13712 468.80313 321.96524 469.08438L326.184 469.08438ZM327.63712 465.86563Q327.63712 464.33438 327.94962 463.4125Q328.26212 462.475 328.8715 461.975Q329.4965 461.475 330.434 461.475Q331.1215 461.475 331.63712 461.75626Q332.16837 462.0375 332.51212 462.56876Q332.85587 463.08438 333.04337 463.83438Q333.23087 464.58438 333.23087 465.86563Q333.23087 467.38126 332.91837 468.30313Q332.6215 469.225 331.9965 469.74063Q331.38712 470.24063 330.434 470.24063Q329.19962 470.24063 328.48087 469.35Q327.63712 468.2875 327.63712 465.86563ZM328.71524 465.86563Q328.71524 467.975 329.21524 468.67813Q329.71524 469.38126 330.434 469.38126Q331.16837 469.38126 331.65274 468.67813Q332.15274 467.975 332.15274 465.86563Q332.15274 463.74063 331.65274 463.05313Q331.16837 462.35 330.41837 462.35Q329.69962 462.35 329.26212 462.95938Q328.71524 463.74063 328.71524 465.86563ZM340.184 469.08438L340.184 470.1L334.4965 470.1Q334.4965 469.725 334.6215 469.36563Q334.84024 468.7875 335.309 468.225Q335.79337 467.6625 336.69962 466.92813Q338.10587 465.77188 338.59024 465.1Q339.09024 464.42813 339.09024 463.83438Q339.09024 463.20938 338.63712 462.7875Q338.184 462.35 337.46524 462.35Q336.69962 462.35 336.2465 462.80313Q335.79337 463.25626 335.77774 464.06876L334.69962 463.95938Q334.809 462.74063 335.52774 462.11563Q336.26212 461.475 337.4965 461.475Q338.73087 461.475 339.44962 462.1625Q340.16837 462.85 340.16837 463.86563Q340.16837 464.38126 339.94962 464.88126Q339.7465 465.36563 339.2465 465.92813Q338.76212 466.475 337.63712 467.42813Q336.684 468.225 336.40274 468.52188Q336.13712 468.80313 335.96524 469.08438L340.184 469.08438ZM347.184 469.08438L347.184 470.1L341.4965 470.1Q341.4965 469.725 341.6215 469.36563Q341.84024 468.7875 342.309 468.225Q342.79337 467.6625 343.69962 466.92813Q345.10587 465.77188 345.59024 465.1Q346.09024 464.42813 346.09024 463.83438Q346.09024 463.20938 345.63712 462.7875Q345.184 462.35 344.46524 462.35Q343.69962 462.35 343.2465 462.80313Q342.79337 463.25626 342.77774 464.06876L341.69962 463.95938Q341.809 462.74063 342.52774 462.11563Q343.26212 461.475 344.4965 461.475Q345.73087 461.475 346.44962 462.1625Q347.16837 462.85 347.16837 463.86563Q347.16837 464.38126 346.94962 464.88126Q346.7465 465.36563 346.2465 465.92813Q345.76212 466.475 344.63712 467.42813Q343.684 468.225 343.40274 468.52188Q343.13712 468.80313 342.96524 469.08438L347.184 469.08438Z" fill-rule="nonzero"/><path fill="#000000" d="M429.78662 467.6625L430.81787 467.52188Q430.84912 468.50626 431.17725 468.86563Q431.50537 469.225 432.09912 469.225Q432.521 469.225 432.8335 469.0375Q433.146 468.83438 433.25537 468.50626Q433.38037 468.1625 433.38037 467.42813L433.38037 461.50626L434.50537 461.50626L434.50537 467.36563Q434.50537 468.44376 434.23975 469.0375Q433.98975 469.63126 433.42725 469.94376Q432.86475 470.24063 432.09912 470.24063Q430.97412 470.24063 430.36475 469.6Q429.771 468.94376 429.78662 467.6625ZM440.31787 470.1L440.31787 469.17813Q439.5835 470.24063 438.3335 470.24063Q437.78662 470.24063 437.30225 470.0375Q436.8335 469.81876 436.59912 469.50626Q436.36475 469.17813 436.271 468.70938Q436.2085 468.4125 436.2085 467.725L436.2085 463.88126L437.271 463.88126L437.271 467.33438Q437.271 468.14688 437.3335 468.44376Q437.42725 468.85 437.73975 469.1Q438.06787 469.33438 438.55225 469.33438Q439.021 469.33438 439.42725 469.1Q439.84912 468.85 440.021 468.42813Q440.2085 468.00626 440.2085 467.20938L440.2085 463.88126L441.25537 463.88126L441.25537 470.1L440.31787 470.1ZM443.2085 470.1L443.2085 461.50626L444.271 461.50626L444.271 470.1L443.2085 470.1ZM446.19287 472.49063L446.06787 471.50626Q446.41162 471.6 446.67725 471.6Q447.021 471.6 447.22412 471.475Q447.44287 471.36563 447.5835 471.1625Q447.67725 470.99063 447.91162 470.36563Q447.92725 470.2875 448.00537 470.11563L445.63037 463.88126L446.771 463.88126L448.06787 467.475Q448.31787 468.1625 448.521 468.92813Q448.7085 468.19376 448.9585 467.50626L450.28662 463.88126L451.3335 463.88126L448.97412 470.20938Q448.5835 471.225 448.38037 471.61563Q448.09912 472.14688 447.72412 472.38126Q447.36475 472.63126 446.86475 472.63126Q446.56787 472.63126 446.19287 472.49063ZM451.50537 470.1L451.50537 468.89688L452.7085 468.89688L452.7085 470.1Q452.7085 470.75626 452.47412 471.1625Q452.23975 471.58438 451.73975 471.80313L451.44287 471.35Q451.771 471.20938 451.92725 470.9125Q452.0835 470.63126 452.11475 470.1L451.50537 470.1ZM462.48975 469.08438L462.48975 470.1L456.80225 470.1Q456.80225 469.725 456.92725 469.36563Q457.146 468.7875 457.61475 468.225Q458.09912 467.6625 459.00537 466.92813Q460.41162 465.77188 460.896 465.1Q461.396 464.42813 461.396 463.83438Q461.396 463.20938 460.94287 462.7875Q460.48975 462.35 459.771 462.35Q459.00537 462.35 458.55225 462.80313Q458.09912 463.25626 458.0835 464.06876L457.00537 463.95938Q457.11475 462.74063 457.8335 462.11563Q458.56787 461.475 459.80225 461.475Q461.03662 461.475 461.75537 462.1625Q462.47412 462.85 462.47412 463.86563Q462.47412 464.38126 462.25537 464.88126Q462.05225 465.36563 461.55225 465.92813Q461.06787 466.475 459.94287 467.42813Q458.98975 468.225 458.7085 468.52188Q458.44287 468.80313 458.271 469.08438L462.48975 469.08438ZM463.94287 465.86563Q463.94287 464.33438 464.25537 463.4125Q464.56787 462.475 465.17725 461.975Q465.80225 461.475 466.73975 461.475Q467.42725 461.475 467.94287 461.75626Q468.47412 462.0375 468.81787 462.56876Q469.16162 463.08438 469.34912 463.83438Q469.53662 464.58438 469.53662 465.86563Q469.53662 467.38126 469.22412 468.30313Q468.92725 469.225 468.30225 469.74063Q467.69287 470.24063 466.73975 470.24063Q465.50537 470.24063 464.78662 469.35Q463.94287 468.2875 463.94287 465.86563ZM465.021 465.86563Q465.021 467.975 465.521 468.67813Q466.021 469.38126 466.73975 469.38126Q467.47412 469.38126 467.9585 468.67813Q468.4585 467.975 468.4585 465.86563Q468.4585 463.74063 467.9585 463.05313Q467.47412 462.35 466.72412 462.35Q466.00537 462.35 465.56787 462.95938Q465.021 463.74063 465.021 465.86563ZM476.48975 469.08438L476.48975 470.1L470.80225 470.1Q470.80225 469.725 470.92725 469.36563Q471.146 468.7875 471.61475 468.225Q472.09912 467.6625 473.00537 466.92813Q474.41162 465.77188 474.896 465.1Q475.396 464.42813 475.396 463.83438Q475.396 463.20938 474.94287 462.7875Q474.48975 462.35 473.771 462.35Q473.00537 462.35 472.55225 462.80313Q472.09912 463.25626 472.0835 464.06876L471.00537 463.95938Q471.11475 462.74063 471.8335 462.11563Q472.56787 461.475 473.80225 461.475Q475.03662 461.475 475.75537 462.1625Q476.47412 462.85 476.47412 463.86563Q476.47412 464.38126 476.25537 464.88126Q476.05225 465.36563 475.55225 465.92813Q475.06787 466.475 473.94287 467.42813Q472.98975 468.225 472.7085 468.52188Q472.44287 468.80313 472.271 469.08438L476.48975 469.08438ZM483.48975 469.08438L483.48975 470.1L477.80225 470.1Q477.80225 469.725 477.92725 469.36563Q478.146 468.7875 478.61475 468.225Q479.09912 467.6625 480.00537 466.92813Q481.41162 465.77188 481.896 465.1Q482.396 464.42813 482.396 463.83438Q482.396 463.20938 481.94287 462.7875Q481.48975 462.35 480.771 462.35Q480.00537 462.35 479.55225 462.80313Q479.09912 463.25626 479.0835 464.06876L478.00537 463.95938Q478.11475 462.74063 478.8335 462.11563Q479.56787 461.475 480.80225 461.475Q482.03662 461.475 482.75537 462.1625Q483.47412 462.85 483.47412 463.86563Q483.47412 464.38126 483.25537 464.88126Q483.05225 465.36563 482.55225 465.92813Q482.06787 466.475 480.94287 467.42813Q479.98975 468.225 479.7085 468.52188Q479.44287 468.80313 479.271 469.08438L483.48975 469.08438Z" fill-rule="nonzero"/><path fill="#000000" d="M566.09235 467.6625L567.1236 467.52188Q567.15485 468.50626 567.483 468.86563Q567.8111 469.225 568.40485 469.225Q568.8267 469.225 569.1392 469.0375Q569.4517 468.83438 569.5611 468.50626Q569.6861 468.1625 569.6861 467.42813L569.6861 461.50626L570.8111 461.50626L570.8111 467.36563Q570.8111 468.44376 570.5455 469.0375Q570.2955 469.63126 569.733 469.94376Q569.1705 470.24063 568.40485 470.24063Q567.27985 470.24063 566.6705 469.6Q566.0767 468.94376 566.09235 467.6625ZM576.608 469.33438Q576.0142 469.83438 575.46735 470.0375Q574.9361 470.24063 574.3111 470.24063Q573.27985 470.24063 572.733 469.74063Q572.1861 469.24063 572.1861 468.45938Q572.1861 468.00626 572.3892 467.63126Q572.59235 467.24063 572.9361 467.02188Q573.27985 466.7875 573.7017 466.67813Q573.9986 466.58438 574.6392 466.50626Q575.90485 466.36563 576.5142 466.14688Q576.5142 465.92813 576.5142 465.88126Q576.5142 465.225 576.21735 464.95938Q575.8111 464.61563 575.0142 464.61563Q574.27985 464.61563 573.9205 464.88126Q573.5611 465.13126 573.3892 465.7875L572.358 465.64688Q572.4986 464.99063 572.8267 464.58438Q573.15485 464.17813 573.7642 463.95938Q574.3736 463.74063 575.1705 463.74063Q575.96735 463.74063 576.46735 463.92813Q576.96735 464.11563 577.2017 464.39688Q577.4361 464.67813 577.52985 465.11563Q577.5767 465.38126 577.5767 466.08438L577.5767 467.49063Q577.5767 468.95938 577.6392 469.35Q577.71735 469.74063 577.9205 470.1L576.8111 470.1Q576.65485 469.77188 576.608 469.33438ZM576.5142 466.975Q575.9361 467.20938 574.7955 467.38126Q574.1392 467.475 573.8736 467.6Q573.608 467.70938 573.4517 467.92813Q573.3111 468.14688 573.3111 468.42813Q573.3111 468.85 573.6236 469.13126Q573.9517 469.4125 574.5611 469.4125Q575.1705 469.4125 575.6392 469.14688Q576.1236 468.88126 576.34235 468.4125Q576.5142 468.05313 576.5142 467.36563L576.5142 466.975ZM579.5455 470.1L579.5455 463.88126L580.483 463.88126L580.483 464.75626Q581.1705 463.74063 582.46735 463.74063Q583.02985 463.74063 583.4986 463.94376Q583.983 464.14688 584.21735 464.475Q584.4517 464.80313 584.5455 465.24063Q584.59235 465.5375 584.59235 466.27188L584.59235 470.1L583.5455 470.1L583.5455 466.31876Q583.5455 465.6625 583.4205 465.35Q583.2955 465.0375 582.983 464.85Q582.6705 464.64688 582.2486 464.64688Q581.5767 464.64688 581.0767 465.08438Q580.59235 465.50626 580.59235 466.69376L580.59235 470.1L579.5455 470.1ZM590.6236 470.1L590.6236 469.17813Q589.8892 470.24063 588.6392 470.24063Q588.09235 470.24063 587.608 470.0375Q587.1392 469.81876 586.90485 469.50626Q586.6705 469.17813 586.5767 468.70938Q586.5142 468.4125 586.5142 467.725L586.5142 463.88126L587.5767 463.88126L587.5767 467.33438Q587.5767 468.14688 587.6392 468.44376Q587.733 468.85 588.0455 469.1Q588.3736 469.33438 588.858 469.33438Q589.3267 469.33438 589.733 469.1Q590.15485 468.85 590.3267 468.42813Q590.5142 468.00626 590.5142 467.20938L590.5142 463.88126L591.5611 463.88126L591.5611 470.1L590.6236 470.1ZM597.608 469.33438Q597.0142 469.83438 596.46735 470.0375Q595.9361 470.24063 595.3111 470.24063Q594.27985 470.24063 593.733 469.74063Q593.1861 469.24063 593.1861 468.45938Q593.1861 468.00626 593.3892 467.63126Q593.59235 467.24063 593.9361 467.02188Q594.27985 466.7875 594.7017 466.67813Q594.9986 466.58438 595.6392 466.50626Q596.90485 466.36563 597.5142 466.14688Q597.5142 465.92813 597.5142 465.88126Q597.5142 465.225 597.21735 464.95938Q596.8111 464.61563 596.0142 464.61563Q595.27985 464.61563 594.9205 464.88126Q594.5611 465.13126 594.3892 465.7875L593.358 465.64688Q593.4986 464.99063 593.8267 464.58438Q594.15485 464.17813 594.7642 463.95938Q595.3736 463.74063 596.1705 463.74063Q596.96735 463.74063 597.46735 463.92813Q597.96735 464.11563 598.2017 464.39688Q598.4361 464.67813 598.52985 465.11563Q598.5767 465.38126 598.5767 466.08438L598.5767 467.49063Q598.5767 468.95938 598.6392 469.35Q598.71735 469.74063 598.9205 470.1L597.8111 470.1Q597.65485 469.77188 597.608 469.33438ZM597.5142 466.975Q596.9361 467.20938 595.7955 467.38126Q595.1392 467.475 594.8736 467.6Q594.608 467.70938 594.4517 467.92813Q594.3111 468.14688 594.3111 468.42813Q594.3111 468.85 594.6236 469.13126Q594.9517 469.4125 595.5611 469.4125Q596.1705 469.4125 596.6392 469.14688Q597.1236 468.88126 597.34235 468.4125Q597.5142 468.05313 597.5142 467.36563L597.5142 466.975ZM600.52985 470.1L600.52985 463.88126L601.483 463.88126L601.483 464.81876Q601.84235 464.1625 602.1392 463.95938Q602.4517 463.74063 602.8267 463.74063Q603.358 463.74063 603.90485 464.06876L603.5455 465.05313Q603.15485 464.81876 602.77985 464.81876Q602.4205 464.81876 602.1392 465.0375Q601.8736 465.24063 601.7642 465.61563Q601.5767 466.17813 601.5767 466.83438L601.5767 470.1L600.52985 470.1ZM604.4986 472.49063L604.3736 471.50626Q604.71735 471.6 604.983 471.6Q605.3267 471.6 605.52985 471.475Q605.7486 471.36563 605.8892 471.1625Q605.983 470.99063 606.21735 470.36563Q606.233 470.2875 606.3111 470.11563L603.9361 463.88126L605.0767 463.88126L606.3736 467.475Q606.6236 468.1625 606.8267 468.92813Q607.0142 468.19376 607.2642 467.50626L608.59235 463.88126L609.6392 463.88126L607.27985 470.20938Q606.8892 471.225 606.6861 471.61563Q606.40485 472.14688 606.02985 472.38126Q605.6705 472.63126 605.1705 472.63126Q604.8736 472.63126 604.4986 472.49063ZM609.8111 470.1L609.8111 468.89688L611.0142 468.89688L611.0142 470.1Q611.0142 470.75626 610.77985 471.1625Q610.5455 471.58438 610.0455 471.80313L609.7486 471.35Q610.0767 471.20938 610.233 470.9125Q610.3892 470.63126 610.4205 470.1L609.8111 470.1ZM620.7955 469.08438L620.7955 470.1L615.108 470.1Q615.108 469.725 615.233 469.36563Q615.4517 468.7875 615.9205 468.225Q616.40485 467.6625 617.3111 466.92813Q618.71735 465.77188 619.2017 465.1Q619.7017 464.42813 619.7017 463.83438Q619.7017 463.20938 619.2486 462.7875Q618.7955 462.35 618.0767 462.35Q617.3111 462.35 616.858 462.80313Q616.40485 463.25626 616.3892 464.06876L615.3111 463.95938Q615.4205 462.74063 616.1392 462.11563Q616.8736 461.475 618.108 461.475Q619.34235 461.475 620.0611 462.1625Q620.77985 462.85 620.77985 463.86563Q620.77985 464.38126 620.5611 464.88126Q620.358 465.36563 619.858 465.92813Q619.3736 466.475 618.2486 467.42813Q617.2955 468.225 617.0142 468.52188Q616.7486 468.80313 616.5767 469.08438L620.7955 469.08438ZM622.2486 465.86563Q622.2486 464.33438 622.5611 463.4125Q622.8736 462.475 623.483 461.975Q624.108 461.475 625.0455 461.475Q625.733 461.475 626.2486 461.75626Q626.77985 462.0375 627.1236 462.56876Q627.46735 463.08438 627.65485 463.83438Q627.84235 464.58438 627.84235 465.86563Q627.84235 467.38126 627.52985 468.30313Q627.233 469.225 626.608 469.74063Q625.9986 470.24063 625.0455 470.24063Q623.8111 470.24063 623.09235 469.35Q622.2486 468.2875 622.2486 465.86563ZM623.3267 465.86563Q623.3267 467.975 623.8267 468.67813Q624.3267 469.38126 625.0455 469.38126Q625.77985 469.38126 626.2642 468.67813Q626.7642 467.975 626.7642 465.86563Q626.7642 463.74063 626.2642 463.05313Q625.77985 462.35 625.02985 462.35Q624.3111 462.35 623.8736 462.95938Q623.3267 463.74063 623.3267 465.86563ZM634.7955 469.08438L634.7955 470.1L629.108 470.1Q629.108 469.725 629.233 469.36563Q629.4517 468.7875 629.9205 468.225Q630.40485 467.6625 631.3111 466.92813Q632.71735 465.77188 633.2017 465.1Q633.7017 464.42813 633.7017 463.83438Q633.7017 463.20938 633.2486 462.7875Q632.7955 462.35 632.0767 462.35Q631.3111 462.35 630.858 462.80313Q630.40485 463.25626 630.3892 464.06876L629.3111 463.95938Q629.4205 462.74063 630.1392 462.11563Q630.8736 461.475 632.108 461.475Q633.34235 461.475 634.0611 462.1625Q634.77985 462.85 634.77985 463.86563Q634.77985 464.38126 634.5611 464.88126Q634.358 465.36563 633.858 465.92813Q633.3736 466.475 632.2486 467.42813Q631.2955 468.225 631.0142 468.52188Q630.7486 468.80313 630.5767 469.08438L634.7955 469.08438ZM636.2486 467.83438L637.3111 467.69376Q637.483 468.58438 637.9205 468.99063Q638.358 469.38126 638.983 469.38126Q639.733 469.38126 640.2486 468.86563Q640.7642 468.35 640.7642 467.58438Q640.7642 466.86563 640.27985 466.39688Q639.8111 465.9125 639.0767 465.9125Q638.77985 465.9125 638.3267 466.0375L638.4517 465.1Q638.5611 465.11563 638.6236 465.11563Q639.2955 465.11563 639.8267 464.77188Q640.3736 464.4125 640.3736 463.67813Q640.3736 463.1 639.983 462.725Q639.59235 462.33438 638.96735 462.33438Q638.358 462.33438 637.9361 462.725Q637.52985 463.11563 637.4205 463.88126L636.358 463.69376Q636.5455 462.64688 637.233 462.06876Q637.9205 461.475 638.9361 461.475Q639.6392 461.475 640.233 461.7875Q640.8267 462.08438 641.1392 462.6Q641.4517 463.11563 641.4517 463.70938Q641.4517 464.25626 641.15485 464.725Q640.858 465.17813 640.27985 465.44376Q641.02985 465.61563 641.4517 466.17813Q641.8736 466.725 641.8736 467.56876Q641.8736 468.69376 641.0455 469.475Q640.233 470.25626 638.983 470.25626Q637.858 470.25626 637.108 469.58438Q636.358 468.89688 636.2486 467.83438Z" fill-rule="nonzero"/><path fill="#f4cccc" d="M733.56 26.9C733.56 26.347715 734.0077 25.9 734.56 25.9L744.56 25.9C745.1123 25.9 745.56 26.347715 745.56 26.9L745.56 36.9C745.56 37.452286 745.1123 37.9 744.56 37.9L734.56 37.9C734.0077 37.9 733.56 37.452286 733.56 36.9Z" fill-rule="nonzero"/><path fill="#1a1a1a" d="M754.06 33.65L755.1694 33.55625Q755.2944 34.36875 755.7319 34.775Q756.185 35.18125 756.8256 35.18125Q757.5756 35.18125 758.1069 34.603127Q758.6381 34.025 758.6381 33.0875Q758.6381 32.18125 758.1225 31.665627Q757.6225 31.134377 756.7944 31.134377Q756.2944 31.134377 755.8725 31.368752Q755.46625 31.603127 755.2319 31.962502L754.2475 31.837502L755.0756 27.431252L759.3569 27.431252L759.3569 28.431252L755.9194 28.431252L755.46625 30.743752Q756.2319 30.196877 757.0756 30.196877Q758.2006 30.196877 758.96625 30.978127Q759.7475 31.759377 759.7475 32.99375Q759.7475 34.15 759.0756 35.009377Q758.2475 36.040627 756.8256 36.040627Q755.65375 36.040627 754.90375 35.384377Q754.1694 34.728127 754.06 33.65ZM761.65375 35.9L761.65375 34.696877L762.8569 34.696877L762.8569 35.9L761.65375 35.9ZM769.6069 34.884377L769.6069 35.9L763.9194 35.9Q763.9194 35.525 764.0444 35.165627Q764.2631 34.5875 764.7319 34.025Q765.21625 33.4625 766.1225 32.728127Q767.52875 31.571877 768.0131 30.900002Q768.5131 30.228127 768.5131 29.634377Q768.5131 29.009377 768.06 28.587502Q767.6069 28.150002 766.8881 28.150002Q766.1225 28.150002 765.6694 28.603127Q765.21625 29.056252 765.2006 29.868752L764.1225 29.759377Q764.2319 28.540627 764.9506 27.915627Q765.685 27.275002 766.9194 27.275002Q768.15375 27.275002 768.8725 27.962502Q769.59125 28.650002 769.59125 29.665627Q769.59125 30.181252 769.3725 30.681252Q769.1694 31.165627 768.6694 31.728127Q768.185 32.275 767.06 33.228127Q766.1069 34.025 765.8256 34.321877Q765.56 34.603127 765.3881 34.884377L769.6069 34.884377Z" fill-rule="nonzero"/><path fill="#ea9999" d="M733.56 50.9C733.56 50.347713 734.0077 49.9 734.56 49.9L744.56 49.9C745.1123 49.9 745.56 50.347713 745.56 50.9L745.56 60.9C745.56 61.452286 745.1123 61.9 744.56 61.9L734.56 61.9C734.0077 61.9 733.56 61.452286 733.56 60.9Z" fill-rule="nonzero"/><path fill="#1a1a1a" d="M754.06 57.65L755.1694 57.55625Q755.2944 58.36875 755.7319 58.775Q756.185 59.18125 756.8256 59.18125Q757.5756 59.18125 758.1069 58.603127Q758.6381 58.025 758.6381 57.0875Q758.6381 56.18125 758.1225 55.665627Q757.6225 55.134377 756.7944 55.134377Q756.2944 55.134377 755.8725 55.36875Q755.46625 55.603127 755.2319 55.9625L754.2475 55.8375L755.0756 51.43125L759.3569 51.43125L759.3569 52.43125L755.9194 52.43125L755.46625 54.74375Q756.2319 54.196877 757.0756 54.196877Q758.2006 54.196877 758.96625 54.978127Q759.7475 55.759377 759.7475 56.99375Q759.7475 58.15 759.0756 59.009377Q758.2475 60.040627 756.8256 60.040627Q755.65375 60.040627 754.90375 59.384377Q754.1694 58.728127 754.06 57.65ZM761.65375 59.9L761.65375 58.696877L762.8569 58.696877L762.8569 59.9L761.65375 59.9ZM764.06 57.634377L765.1225 57.49375Q765.2944 58.384377 765.7319 58.790627Q766.1694 59.18125 766.7944 59.18125Q767.5444 59.18125 768.06 58.665627Q768.5756 58.15 768.5756 57.384377Q768.5756 56.665627 768.09125 56.196877Q767.6225 55.7125 766.8881 55.7125Q766.59125 55.7125 766.1381 55.8375L766.2631 54.9Q766.3725 54.915627 766.435 54.915627Q767.1069 54.915627 767.6381 54.571877Q768.185 54.2125 768.185 53.478127Q768.185 52.9 767.7944 52.525Q767.40375 52.134377 766.77875 52.134377Q766.1694 52.134377 765.7475 52.525Q765.34125 52.915627 765.2319 53.68125L764.1694 53.49375Q764.3569 52.446877 765.0444 51.86875Q765.7319 51.275 766.7475 51.275Q767.4506 51.275 768.0444 51.5875Q768.6381 51.884377 768.9506 52.4Q769.2631 52.915627 769.2631 53.509377Q769.2631 54.05625 768.96625 54.525Q768.6694 54.978127 768.09125 55.24375Q768.84125 55.415627 769.2631 55.978127Q769.685 56.525 769.685 57.36875Q769.685 58.49375 768.8569 59.275Q768.0444 60.05625 766.7944 60.05625Q765.6694 60.05625 764.9194 59.384377Q764.1694 58.696877 764.06 57.634377Z" fill-rule="nonzero"/><path fill="#e06666" d="M733.56 74.9C733.56 74.34772 734.0077 73.9 734.56 73.9L744.56 73.9C745.1123 73.9 745.56 74.34772 745.56 74.9L745.56 84.9C745.56 85.452286 745.1123 85.9 744.56 85.9L734.56 85.9C734.0077 85.9 733.56 85.452286 733.56 84.9Z" fill-rule="nonzero"/><path fill="#1a1a1a" d="M754.06 81.65L755.1694 81.55625Q755.2944 82.36875 755.7319 82.775Q756.185 83.18125 756.8256 83.18125Q757.5756 83.18125 758.1069 82.60313Q758.6381 82.025 758.6381 81.0875Q758.6381 80.18125 758.1225 79.66563Q757.6225 79.13438 756.7944 79.13438Q756.2944 79.13438 755.8725 79.36875Q755.46625 79.60313 755.2319 79.9625L754.2475 79.8375L755.0756 75.43125L759.3569 75.43125L759.3569 76.43125L755.9194 76.43125L755.46625 78.74375Q756.2319 78.19688 757.0756 78.19688Q758.2006 78.19688 758.96625 78.97813Q759.7475 79.75938 759.7475 80.99375Q759.7475 82.15 759.0756 83.00938Q758.2475 84.04063 756.8256 84.04063Q755.65375 84.04063 754.90375 83.38438Q754.1694 82.72813 754.06 81.65ZM761.65375 83.9L761.65375 82.69688L762.8569 82.69688L762.8569 83.9L761.65375 83.9ZM767.435 83.9L767.435 81.8375L763.71625 81.8375L763.71625 80.86875L767.6381 75.30625L768.4975 75.30625L768.4975 80.86875L769.65375 80.86875L769.65375 81.8375L768.4975 81.8375L768.4975 83.9L767.435 83.9ZM767.435 80.86875L767.435 77.00938L764.7475 80.86875L767.435 80.86875Z" fill-rule="nonzero"/><path fill="#cc0000" d="M733.56 98.9C733.56 98.34772 734.0077 97.9 734.56 97.9L744.56 97.9C745.1123 97.9 745.56 98.34772 745.56 98.9L745.56 108.9C745.56 109.452286 745.1123 109.9 744.56 109.9L734.56 109.9C734.0077 109.9 733.56 109.452286 733.56 108.9Z" fill-rule="nonzero"/><path fill="#1a1a1a" d="M754.06 105.65L755.1694 105.55625Q755.2944 106.36875 755.7319 106.775Q756.185 107.18125 756.8256 107.18125Q757.5756 107.18125 758.1069 106.60313Q758.6381 106.025 758.6381 105.0875Q758.6381 104.18125 758.1225 103.66563Q757.6225 103.13438 756.7944 103.13438Q756.2944 103.13438 755.8725 103.36875Q755.46625 103.60313 755.2319 103.9625L754.2475 103.8375L755.0756 99.43125L759.3569 99.43125L759.3569 100.43125L755.9194 100.43125L755.46625 102.74375Q756.2319 102.19688 757.0756 102.19688Q758.2006 102.19688 758.96625 102.97813Q759.7475 103.75938 759.7475 104.99375Q759.7475 106.15 759.0756 107.00938Q758.2475 108.04063 756.8256 108.04063Q755.65375 108.04063 754.90375 107.38438Q754.1694 106.72813 754.06 105.65ZM761.65375 107.9L761.65375 106.69688L762.8569 106.69688L762.8569 107.9L761.65375 107.9ZM764.06 105.65L765.1694 105.55625Q765.2944 106.36875 765.7319 106.775Q766.185 107.18125 766.8256 107.18125Q767.5756 107.18125 768.1069 106.60313Q768.6381 106.025 768.6381 105.0875Q768.6381 104.18125 768.1225 103.66563Q767.6225 103.13438 766.7944 103.13438Q766.2944 103.13438 765.8725 103.36875Q765.46625 103.60313 765.2319 103.9625L764.2475 103.8375L765.0756 99.43125L769.3569 99.43125L769.3569 100.43125L765.9194 100.43125L765.46625 102.74375Q766.2319 102.19688 767.0756 102.19688Q768.2006 102.19688 768.96625 102.97813Q769.7475 103.75938 769.7475 104.99375Q769.7475 106.15 769.0756 107.00938Q768.2475 108.04063 766.8256 108.04063Q765.65375 108.04063 764.90375 107.38438Q764.1694 106.72813 764.06 105.65Z" fill-rule="nonzero"/><path fill="#990000" d="M733.56 122.9C733.56 122.34772 734.0077 121.9 734.56 121.9L744.56 121.9C745.1123 121.9 745.56 122.34772 745.56 122.9L745.56 132.9C745.56 133.45229 745.1123 133.9 744.56 133.9L734.56 133.9C734.0077 133.9 733.56 133.45229 733.56 132.9Z" fill-rule="nonzero"/><path fill="#1a1a1a" d="M754.06 129.65L755.1694 129.55624Q755.2944 130.36874 755.7319 130.775Q756.185 131.18124 756.8256 131.18124Q757.5756 131.18124 758.1069 130.60312Q758.6381 130.025 758.6381 129.0875Q758.6381 128.18124 758.1225 127.66562Q757.6225 127.13437 756.7944 127.13437Q756.2944 127.13437 755.8725 127.368744Q755.46625 127.60312 755.2319 127.962494L754.2475 127.837494L755.0756 123.431244L759.3569 123.431244L759.3569 124.431244L755.9194 124.431244L755.46625 126.743744Q756.2319 126.19687 757.0756 126.19687Q758.2006 126.19687 758.96625 126.97812Q759.7475 127.75937 759.7475 128.99374Q759.7475 130.15 759.0756 131.00937Q758.2475 132.04062 756.8256 132.04062Q755.65375 132.04062 754.90375 131.38437Q754.1694 130.72812 754.06 129.65ZM761.65375 131.9L761.65375 130.69687L762.8569 130.69687L762.8569 131.9L761.65375 131.9ZM769.52875 125.41562L768.4819 125.493744Q768.34125 124.868744 768.09125 124.587494Q767.65375 124.13437 767.02875 124.13437Q766.52875 124.13437 766.1381 124.41562Q765.65375 124.79062 765.3569 125.493744Q765.0756 126.181244 765.06 127.462494Q765.435 126.88437 765.9819 126.60312Q766.5444 126.32187 767.15375 126.32187Q768.2006 126.32187 768.935 127.10312Q769.685 127.88437 769.685 129.10312Q769.685 129.91562 769.3256 130.61874Q768.9819 131.30624 768.3725 131.68124Q767.7631 132.04062 766.9975 132.04062Q765.6694 132.04062 764.84125 131.07187Q764.0131 130.10312 764.0131 127.88437Q764.0131 125.38437 764.935 124.25937Q765.7319 123.274994 767.09125 123.274994Q768.1069 123.274994 768.7475 123.85312Q769.40375 124.41562 769.52875 125.41562ZM765.2319 129.11874Q765.2319 129.66562 765.4506 130.16562Q765.685 130.65 766.09125 130.91562Q766.5131 131.18124 766.9819 131.18124Q767.6381 131.18124 768.1225 130.65Q768.6069 130.10312 768.6069 129.18124Q768.6069 128.29062 768.1225 127.774994Q767.65375 127.25937 766.935 127.25937Q766.21625 127.25937 765.71625 127.774994Q765.2319 128.29062 765.2319 129.11874Z" fill-rule="nonzero"/><path fill="#cfe2f3" d="M733.56 146.9C733.56 146.34772 734.0077 145.9 734.56 145.9L744.56 145.9C745.1123 145.9 745.56 146.34772 745.56 146.9L745.56 156.9C745.56 157.45229 745.1123 157.9 744.56 157.9L734.56 157.9C734.0077 157.9 733.56 157.45229 733.56 156.9Z" fill-rule="nonzero"/><path fill="#1a1a1a" d="M754.1225 148.43124L754.1225 147.41562L759.685 147.41562L759.685 148.24374Q758.8725 149.11874 758.06 150.57187Q757.2631 152.00937 756.8256 153.54062Q756.4975 154.61874 756.4194 155.9L755.3256 155.9Q755.34125 154.88437 755.71625 153.44687Q756.1069 152.00937 756.81 150.68124Q757.52875 149.35312 758.34125 148.43124L754.1225 148.43124ZM761.65375 155.9L761.65375 154.69687L762.8569 154.69687L762.8569 155.9L761.65375 155.9ZM764.06 151.66562Q764.06 150.13437 764.3725 149.2125Q764.685 148.275 765.2944 147.775Q765.9194 147.275 766.8569 147.275Q767.5444 147.275 768.06 147.55624Q768.59125 147.8375 768.935 148.36874Q769.27875 148.88437 769.46625 149.63437Q769.65375 150.38437 769.65375 151.66562Q769.65375 153.18124 769.34125 154.10312Q769.0444 155.025 768.4194 155.54062Q767.81 156.04062 766.8569 156.04062Q765.6225 156.04062 764.90375 155.15Q764.06 154.0875 764.06 151.66562ZM765.1381 151.66562Q765.1381 153.775 765.6381 154.47812Q766.1381 155.18124 766.8569 155.18124Q767.59125 155.18124 768.0756 154.47812Q768.5756 153.775 768.5756 151.66562Q768.5756 149.54062 768.0756 148.85312Q767.59125 148.15 766.84125 148.15Q766.1225 148.15 765.685 148.75937Q765.1381 149.54062 765.1381 151.66562Z" fill-rule="nonzero"/><path fill="#9fc5e8" d="M733.56 170.9C733.56 170.34772 734.0077 169.9 734.56 169.9L744.56 169.9C745.1123 169.9 745.56 170.34772 745.56 170.9L745.56 180.9C745.56 181.45229 745.1123 181.9 744.56 181.9L734.56 181.9C734.0077 181.9 733.56 181.45229 733.56 180.9Z" fill-rule="nonzero"/><path fill="#1a1a1a" d="M754.1225 172.43124L754.1225 171.41562L759.685 171.41562L759.685 172.24374Q758.8725 173.11874 758.06 174.57187Q757.2631 176.00937 756.8256 177.54062Q756.4975 178.61874 756.4194 179.9L755.3256 179.9Q755.34125 178.88437 755.71625 177.44687Q756.1069 176.00937 756.81 174.68124Q757.52875 173.35312 758.34125 172.43124L754.1225 172.43124ZM761.65375 179.9L761.65375 178.69687L762.8569 178.69687L762.8569 179.9L761.65375 179.9ZM768.02875 179.9L766.9819 179.9L766.9819 173.18124Q766.59125 173.54062 765.96625 173.91562Q765.3569 174.275 764.8725 174.44687L764.8725 173.43124Q765.7475 173.00937 766.40375 172.43124Q767.0756 171.8375 767.3569 171.275L768.02875 171.275L768.02875 179.9Z" fill-rule="nonzero"/><path fill="#6fa8dc" d="M733.56 194.9C733.56 194.34772 734.0077 193.9 734.56 193.9L744.56 193.9C745.1123 193.9 745.56 194.34772 745.56 194.9L745.56 204.9C745.56 205.45229 745.1123 205.9 744.56 205.9L734.56 205.9C734.0077 205.9 733.56 205.45229 733.56 204.9Z" fill-rule="nonzero"/><path fill="#1a1a1a" d="M754.1225 196.43124L754.1225 195.41562L759.685 195.41562L759.685 196.24374Q758.8725 197.11874 758.06 198.57187Q757.2631 200.00937 756.8256 201.54062Q756.4975 202.61874 756.4194 203.9L755.3256 203.9Q755.34125 202.88437 755.71625 201.44687Q756.1069 200.00937 756.81 198.68124Q757.52875 197.35312 758.34125 196.43124L754.1225 196.43124ZM761.65375 203.9L761.65375 202.69687L762.8569 202.69687L762.8569 203.9L761.65375 203.9ZM769.6069 202.88437L769.6069 203.9L763.9194 203.9Q763.9194 203.525 764.0444 203.16562Q764.2631 202.5875 764.7319 202.025Q765.21625 201.4625 766.1225 200.72812Q767.52875 199.57187 768.0131 198.9Q768.5131 198.22812 768.5131 197.63437Q768.5131 197.00937 768.06 196.5875Q767.6069 196.15 766.8881 196.15Q766.1225 196.15 765.6694 196.60312Q765.21625 197.05624 765.2006 197.86874L764.1225 197.75937Q764.2319 196.54062 764.9506 195.91562Q765.685 195.275 766.9194 195.275Q768.15375 195.275 768.8725 195.9625Q769.59125 196.65 769.59125 197.66562Q769.59125 198.18124 769.3725 198.68124Q769.1694 199.16562 768.6694 199.72812Q768.185 200.275 767.06 201.22812Q766.1069 202.025 765.8256 202.32187Q765.56 202.60312 765.3881 202.88437L769.6069 202.88437Z" fill-rule="nonzero"/><path fill="#3d85c6" d="M733.56 218.9C733.56 218.34772 734.0077 217.9 734.56 217.9L744.56 217.9C745.1123 217.9 745.56 218.34772 745.56 218.9L745.56 228.9C745.56 229.45229 745.1123 229.9 744.56 229.9L734.56 229.9C734.0077 229.9 733.56 229.45229 733.56 228.9Z" fill-rule="nonzero"/><path fill="#1a1a1a" d="M754.1225 220.43124L754.1225 219.41562L759.685 219.41562L759.685 220.24374Q758.8725 221.11874 758.06 222.57187Q757.2631 224.00937 756.8256 225.54062Q756.4975 226.61874 756.4194 227.9L755.3256 227.9Q755.34125 226.88437 755.71625 225.44687Q756.1069 224.00937 756.81 222.68124Q757.52875 221.35312 758.34125 220.43124L754.1225 220.43124ZM761.65375 227.9L761.65375 226.69687L762.8569 226.69687L762.8569 227.9L761.65375 227.9ZM764.06 225.63437L765.1225 225.49374Q765.2944 226.38437 765.7319 226.79062Q766.1694 227.18124 766.7944 227.18124Q767.5444 227.18124 768.06 226.66562Q768.5756 226.15 768.5756 225.38437Q768.5756 224.66562 768.09125 224.19687Q767.6225 223.7125 766.8881 223.7125Q766.59125 223.7125 766.1381 223.8375L766.2631 222.9Q766.3725 222.91562 766.435 222.91562Q767.1069 222.91562 767.6381 222.57187Q768.185 222.2125 768.185 221.47812Q768.185 220.9 767.7944 220.525Q767.40375 220.13437 766.77875 220.13437Q766.1694 220.13437 765.7475 220.525Q765.34125 220.91562 765.2319 221.68124L764.1694 221.49374Q764.3569 220.44687 765.0444 219.86874Q765.7319 219.275 766.7475 219.275Q767.4506 219.275 768.0444 219.5875Q768.6381 219.88437 768.9506 220.4Q769.2631 220.91562 769.2631 221.50937Q769.2631 222.05624 768.96625 222.525Q768.6694 222.97812 768.09125 223.24374Q768.84125 223.41562 769.2631 223.97812Q769.685 224.525 769.685 225.36874Q769.685 226.49374 768.8569 227.275Q768.0444 228.05624 766.7944 228.05624Q765.6694 228.05624 764.9194 227.38437Q764.1694 226.69687 764.06 225.63437Z" fill-rule="nonzero"/><path fill="#0b5394" d="M733.56 242.9C733.56 242.34772 734.0077 241.9 734.56 241.9L744.56 241.9C745.1123 241.9 745.56 242.34772 745.56 242.9L745.56 252.9C745.56 253.45229 745.1123 253.9 744.56 253.9L734.56 253.9C734.0077 253.9 733.56 253.45229 733.56 252.9Z" fill-rule="nonzero"/><path fill="#1a1a1a" d="M754.1225 244.43124L754.1225 243.41562L759.685 243.41562L759.685 244.24374Q758.8725 245.11874 758.06 246.57187Q757.2631 248.00937 756.8256 249.54062Q756.4975 250.61874 756.4194 251.9L755.3256 251.9Q755.34125 250.88437 755.71625 249.44687Q756.1069 248.00937 756.81 246.68124Q757.52875 245.35312 758.34125 244.43124L754.1225 244.43124ZM761.65375 251.9L761.65375 250.69687L762.8569 250.69687L762.8569 251.9L761.65375 251.9ZM767.435 251.9L767.435 249.8375L763.71625 249.8375L763.71625 248.86874L767.6381 243.30624L768.4975 243.30624L768.4975 248.86874L769.65375 248.86874L769.65375 249.8375L768.4975 249.8375L768.4975 251.9L767.435 251.9ZM767.435 248.86874L767.435 245.00937L764.7475 248.86874L767.435 248.86874Z" fill-rule="nonzero"/><path fill="#93c47d" d="M733.56 266.9C733.56 266.34772 734.0077 265.9 734.56 265.9L744.56 265.9C745.1123 265.9 745.56 266.34772 745.56 266.9L745.56 276.9C745.56 277.45227 745.1123 277.9 744.56 277.9L734.56 277.9C734.0077 277.9 733.56 277.45227 733.56 276.9Z" fill-rule="nonzero"/><path fill="#1a1a1a" d="M755.685 271.24374Q755.02875 270.99374 754.7006 270.55624Q754.3881 270.10312 754.3881 269.49374Q754.3881 268.55624 755.06 267.91562Q755.7475 267.275 756.8569 267.275Q757.9819 267.275 758.6694 267.93124Q759.3569 268.5875 759.3569 269.525Q759.3569 270.11874 759.0444 270.55624Q758.7319 270.99374 758.09125 271.24374Q758.8881 271.49374 759.2944 272.07187Q759.7006 272.65 759.7006 273.44687Q759.7006 274.54062 758.9194 275.29062Q758.15375 276.04062 756.8725 276.04062Q755.6069 276.04062 754.8256 275.29062Q754.0444 274.54062 754.0444 273.41562Q754.0444 272.57187 754.46625 272.00937Q754.90375 271.44687 755.685 271.24374ZM755.46625 269.44687Q755.46625 270.05624 755.8569 270.44687Q756.2631 270.8375 756.8881 270.8375Q757.4975 270.8375 757.8881 270.4625Q758.27875 270.07187 758.27875 269.50937Q758.27875 268.93124 757.8725 268.54062Q757.46625 268.13437 756.8725 268.13437Q756.2631 268.13437 755.8569 268.525Q755.46625 268.91562 755.46625 269.44687ZM755.1381 273.41562Q755.1381 273.86874 755.34125 274.29062Q755.56 274.7125 755.9819 274.94687Q756.40375 275.18124 756.8881 275.18124Q757.6381 275.18124 758.1225 274.69687Q758.6225 274.2125 758.6225 273.4625Q758.6225 272.69687 758.1225 272.19687Q757.6225 271.69687 756.8569 271.69687Q756.1069 271.69687 755.6225 272.19687Q755.1381 272.68124 755.1381 273.41562ZM761.65375 275.9L761.65375 274.69687L762.8569 274.69687L762.8569 275.9L761.65375 275.9ZM764.06 271.66562Q764.06 270.13437 764.3725 269.2125Q764.685 268.275 765.2944 267.775Q765.9194 267.275 766.8569 267.275Q767.5444 267.275 768.06 267.55624Q768.59125 267.8375 768.935 268.36874Q769.27875 268.88437 769.46625 269.63437Q769.65375 270.38437 769.65375 271.66562Q769.65375 273.18124 769.34125 274.10312Q769.0444 275.025 768.4194 275.54062Q767.81 276.04062 766.8569 276.04062Q765.6225 276.04062 764.90375 275.15Q764.06 274.0875 764.06 271.66562ZM765.1381 271.66562Q765.1381 273.775 765.6381 274.47812Q766.1381 275.18124 766.8569 275.18124Q767.59125 275.18124 768.0756 274.47812Q768.5756 273.775 768.5756 271.66562Q768.5756 269.54062 768.0756 268.85312Q767.59125 268.15 766.84125 268.15Q766.1225 268.15 765.685 268.75937Q765.1381 269.54062 765.1381 271.66562Z" fill-rule="nonzero"/><path fill="#6aa84f" d="M733.56 290.9C733.56 290.34772 734.0077 289.9 734.56 289.9L744.56 289.9C745.1123 289.9 745.56 290.34772 745.56 290.9L745.56 300.9C745.56 301.45227 745.1123 301.9 744.56 301.9L734.56 301.9C734.0077 301.9 733.56 301.45227 733.56 300.9Z" fill-rule="nonzero"/><path fill="#1a1a1a" d="M755.685 295.24374Q755.02875 294.99374 754.7006 294.55624Q754.3881 294.10312 754.3881 293.49374Q754.3881 292.55624 755.06 291.91562Q755.7475 291.275 756.8569 291.275Q757.9819 291.275 758.6694 291.93124Q759.3569 292.5875 759.3569 293.525Q759.3569 294.11874 759.0444 294.55624Q758.7319 294.99374 758.09125 295.24374Q758.8881 295.49374 759.2944 296.07187Q759.7006 296.65 759.7006 297.44687Q759.7006 298.54062 758.9194 299.29062Q758.15375 300.04062 756.8725 300.04062Q755.6069 300.04062 754.8256 299.29062Q754.0444 298.54062 754.0444 297.41562Q754.0444 296.57187 754.46625 296.00937Q754.90375 295.44687 755.685 295.24374ZM755.46625 293.44687Q755.46625 294.05624 755.8569 294.44687Q756.2631 294.8375 756.8881 294.8375Q757.4975 294.8375 757.8881 294.4625Q758.27875 294.07187 758.27875 293.50937Q758.27875 292.93124 757.8725 292.54062Q757.46625 292.13437 756.8725 292.13437Q756.2631 292.13437 755.8569 292.525Q755.46625 292.91562 755.46625 293.44687ZM755.1381 297.41562Q755.1381 297.86874 755.34125 298.29062Q755.56 298.7125 755.9819 298.94687Q756.40375 299.18124 756.8881 299.18124Q757.6381 299.18124 758.1225 298.69687Q758.6225 298.2125 758.6225 297.4625Q758.6225 296.69687 758.1225 296.19687Q757.6225 295.69687 756.8569 295.69687Q756.1069 295.69687 755.6225 296.19687Q755.1381 296.68124 755.1381 297.41562ZM761.65375 299.9L761.65375 298.69687L762.8569 298.69687L762.8569 299.9L761.65375 299.9ZM768.02875 299.9L766.9819 299.9L766.9819 293.18124Q766.59125 293.54062 765.96625 293.91562Q765.3569 294.275 764.8725 294.44687L764.8725 293.43124Q765.7475 293.00937 766.40375 292.43124Q767.0756 291.8375 767.3569 291.275L768.02875 291.275L768.02875 299.9Z" fill-rule="nonzero"/><path fill="#38761d" d="M733.56 314.9C733.56 314.34772 734.0077 313.9 734.56 313.9L744.56 313.9C745.1123 313.9 745.56 314.34772 745.56 314.9L745.56 324.9C745.56 325.45227 745.1123 325.9 744.56 325.9L734.56 325.9C734.0077 325.9 733.56 325.45227 733.56 324.9Z" fill-rule="nonzero"/><path fill="#1a1a1a" d="M755.685 319.24374Q755.02875 318.99374 754.7006 318.55624Q754.3881 318.10312 754.3881 317.49374Q754.3881 316.55624 755.06 315.91562Q755.7475 315.275 756.8569 315.275Q757.9819 315.275 758.6694 315.93124Q759.3569 316.5875 759.3569 317.525Q759.3569 318.11874 759.0444 318.55624Q758.7319 318.99374 758.09125 319.24374Q758.8881 319.49374 759.2944 320.07187Q759.7006 320.65 759.7006 321.44687Q759.7006 322.54062 758.9194 323.29062Q758.15375 324.04062 756.8725 324.04062Q755.6069 324.04062 754.8256 323.29062Q754.0444 322.54062 754.0444 321.41562Q754.0444 320.57187 754.46625 320.00937Q754.90375 319.44687 755.685 319.24374ZM755.46625 317.44687Q755.46625 318.05624 755.8569 318.44687Q756.2631 318.8375 756.8881 318.8375Q757.4975 318.8375 757.8881 318.4625Q758.27875 318.07187 758.27875 317.50937Q758.27875 316.93124 757.8725 316.54062Q757.46625 316.13437 756.8725 316.13437Q756.2631 316.13437 755.8569 316.525Q755.46625 316.91562 755.46625 317.44687ZM755.1381 321.41562Q755.1381 321.86874 755.34125 322.29062Q755.56 322.7125 755.9819 322.94687Q756.40375 323.18124 756.8881 323.18124Q757.6381 323.18124 758.1225 322.69687Q758.6225 322.2125 758.6225 321.4625Q758.6225 320.69687 758.1225 320.19687Q757.6225 319.69687 756.8569 319.69687Q756.1069 319.69687 755.6225 320.19687Q755.1381 320.68124 755.1381 321.41562ZM761.65375 323.9L761.65375 322.69687L762.8569 322.69687L762.8569 323.9L761.65375 323.9ZM769.6069 322.88437L769.6069 323.9L763.9194 323.9Q763.9194 323.525 764.0444 323.16562Q764.2631 322.5875 764.7319 322.025Q765.21625 321.4625 766.1225 320.72812Q767.52875 319.57187 768.0131 318.9Q768.5131 318.22812 768.5131 317.63437Q768.5131 317.00937 768.06 316.5875Q767.6069 316.15 766.8881 316.15Q766.1225 316.15 765.6694 316.60312Q765.21625 317.05624 765.2006 317.86874L764.1225 317.75937Q764.2319 316.54062 764.9506 315.91562Q765.685 315.275 766.9194 315.275Q768.15375 315.275 768.8725 315.9625Q769.59125 316.65 769.59125 317.66562Q769.59125 318.18124 769.3725 318.68124Q769.1694 319.16562 768.6694 319.72812Q768.185 320.275 767.06 321.22812Q766.1069 322.025 765.8256 322.32187Q765.56 322.60312 765.3881 322.88437L769.6069 322.88437Z" fill-rule="nonzero"/></svg>