<svg version="1.1" viewBox="0.0 0.0 1071.0 662.0" fill="none" stroke="none" stroke-linecap="square" stroke-miterlimit="10" width="1071" height="662" xmlns:xlink="http://www.w3.org/1999/xlink" xmlns="http://www.w3.org/2000/svg"><path fill="#ffffff" d="M0 0L1071.0 0L1071.0 662.0L0 662.0L0 0Z" fill-rule="nonzero"/><path stroke="#333333" stroke-width="1.0" stroke-linecap="butt" d="M81.5 608.5L1037.5 608.5" fill-rule="nonzero"/><path stroke="#cccccc" stroke-width="1.0" stroke-linecap="butt" d="M81.5 502.5L1037.5 502.5" fill-rule="nonzero"/><path stroke="#cccccc" stroke-width="1.0" stroke-linecap="butt" d="M81.5 395.5L1037.5 395.5" fill-rule="nonzero"/><path stroke="#cccccc" stroke-width="1.0" stroke-linecap="butt" d="M81.5 289.5L1037.5 289.5" fill-rule="nonzero"/><path stroke="#cccccc" stroke-width="1.0" stroke-linecap="butt" d="M81.5 182.5L1037.5 182.5" fill-rule="nonzero"/><path stroke="#cccccc" stroke-width="1.0" stroke-linecap="butt" d="M81.5 76.5L1037.5 76.5" fill-rule="nonzero"/><clipPath id="id_0"><path d="M81.1 76.166664L1037.9 76.166664L1037.9 608.9L81.1 608.9L81.1 76.166664Z" clip-rule="nonzero"/></clipPath><path stroke="#000000" stroke-width="2.0" stroke-linecap="butt" stroke-opacity="0.0" clip-path="url(#id_0)" d="M168.0 609.0L128.0 609.0L128.0 558.0C128.0 556.89545 128.89543 556.0 130.0 556.0L166.0 556.0C167.10457 556.0 168.0 556.89545 168.0 558.0Z" fill-rule="nonzero"/><path fill="#4285f4" clip-path="url(#id_0)" d="M168.0 609.0L128.0 609.0L128.0 558.0C128.0 556.89545 128.89543 556.0 130.0 556.0L166.0 556.0C167.10457 556.0 168.0 556.89545 168.0 558.0Z" fill-rule="nonzero"/><path stroke="#000000" stroke-width="2.0" stroke-linecap="butt" stroke-opacity="0.0" clip-path="url(#id_0)" d="M298.0 609.0L258.0 609.0L258.0 568.0C258.0 566.89545 258.89542 566.0 260.0 566.0L296.0 566.0C297.10458 566.0 298.0 566.89545 298.0 568.0Z" fill-rule="nonzero"/><path fill="#4285f4" clip-path="url(#id_0)" d="M298.0 609.0L258.0 609.0L258.0 568.0C258.0 566.89545 258.89542 566.0 260.0 566.0L296.0 566.0C297.10458 566.0 298.0 566.89545 298.0 568.0Z" fill-rule="nonzero"/><path stroke="#000000" stroke-width="2.0" stroke-linecap="butt" stroke-opacity="0.0" clip-path="url(#id_0)" d="M428.0 609.0L388.0 609.0L388.0 488.0C388.0 486.89542 388.89542 486.0 390.0 486.0L426.0 486.0C427.10458 486.0 428.0 486.89542 428.0 488.0Z" fill-rule="nonzero"/><path fill="#4285f4" clip-path="url(#id_0)" d="M428.0 609.0L388.0 609.0L388.0 488.0C388.0 486.89542 388.89542 486.0 390.0 486.0L426.0 486.0C427.10458 486.0 428.0 486.89542 428.0 488.0Z" fill-rule="nonzero"/><path stroke="#000000" stroke-width="2.0" stroke-linecap="butt" stroke-opacity="0.0" clip-path="url(#id_0)" d="M559.0 609.0L519.0 609.0L519.0 318.0C519.0 316.89542 519.89545 316.0 521.0 316.0L557.0 316.0C558.10455 316.0 559.0 316.89542 559.0 318.0Z" fill-rule="nonzero"/><path fill="#4285f4" clip-path="url(#id_0)" d="M559.0 609.0L519.0 609.0L519.0 318.0C519.0 316.89542 519.89545 316.0 521.0 316.0L557.0 316.0C558.10455 316.0 559.0 316.89542 559.0 318.0Z" fill-rule="nonzero"/><path stroke="#000000" stroke-width="2.0" stroke-linecap="butt" stroke-opacity="0.0" clip-path="url(#id_0)" d="M689.0 609.0L649.0 609.0L649.0 291.0C649.0 289.89542 649.89545 289.0 651.0 289.0L687.0 289.0C688.10455 289.0 689.0 289.89542 689.0 291.0Z" fill-rule="nonzero"/><path fill="#4285f4" clip-path="url(#id_0)" d="M689.0 609.0L649.0 609.0L649.0 291.0C649.0 289.89542 649.89545 289.0 651.0 289.0L687.0 289.0C688.10455 289.0 689.0 289.89542 689.0 291.0Z" fill-rule="nonzero"/><path stroke="#000000" stroke-width="2.0" stroke-linecap="butt" stroke-opacity="0.0" clip-path="url(#id_0)" d="M819.0 609.0L779.0 609.0L779.0 397.0C779.0 395.89542 779.89545 395.0 781.0 395.0L817.0 395.0C818.10455 395.0 819.0 395.89542 819.0 397.0Z" fill-rule="nonzero"/><path fill="#4285f4" clip-path="url(#id_0)" d="M819.0 609.0L779.0 609.0L779.0 397.0C779.0 395.89542 779.89545 395.0 781.0 395.0L817.0 395.0C818.10455 395.0 819.0 395.89542 819.0 397.0Z" fill-rule="nonzero"/><path stroke="#000000" stroke-width="2.0" stroke-linecap="butt" stroke-opacity="0.0" clip-path="url(#id_0)" d="M949.0 609.0L909.0 609.0L909.0 609.0L949.0 609.0Z" fill-rule="nonzero"/><path fill="#4285f4" clip-path="url(#id_0)" d="M949.0 609.0L909.0 609.0L909.0 609.0L949.0 609.0Z" fill-rule="nonzero"/><path stroke="#000000" stroke-width="2.0" stroke-linecap="butt" stroke-opacity="0.0" clip-path="url(#id_0)" d="M210.0 609.0L170.0 609.0L170.0 599.0C170.0 597.89545 170.89543 597.0 172.0 597.0L208.0 597.0C209.10457 597.0 210.0 597.89545 210.0 599.0Z" fill-rule="nonzero"/><path fill="#ea4335" clip-path="url(#id_0)" d="M210.0 609.0L170.0 609.0L170.0 599.0C170.0 597.89545 170.89543 597.0 172.0 597.0L208.0 597.0C209.10457 597.0 210.0 597.89545 210.0 599.0Z" fill-rule="nonzero"/><path stroke="#000000" stroke-width="2.0" stroke-linecap="butt" stroke-opacity="0.0" clip-path="url(#id_0)" d="M340.0 609.0L300.0 609.0L300.0 597.0C300.0 595.89545 300.89542 595.0 302.0 595.0L338.0 595.0C339.10458 595.0 340.0 595.89545 340.0 597.0Z" fill-rule="nonzero"/><path fill="#ea4335" clip-path="url(#id_0)" d="M340.0 609.0L300.0 609.0L300.0 597.0C300.0 595.89545 300.89542 595.0 302.0 595.0L338.0 595.0C339.10458 595.0 340.0 595.89545 340.0 597.0Z" fill-rule="nonzero"/><path stroke="#000000" stroke-width="2.0" stroke-linecap="butt" stroke-opacity="0.0" clip-path="url(#id_0)" d="M470.0 609.0L430.0 609.0L430.0 570.0C430.0 568.89545 430.89542 568.0 432.0 568.0L468.0 568.0C469.10458 568.0 470.0 568.89545 470.0 570.0Z" fill-rule="nonzero"/><path fill="#ea4335" clip-path="url(#id_0)" d="M470.0 609.0L430.0 609.0L430.0 570.0C430.0 568.89545 430.89542 568.0 432.0 568.0L468.0 568.0C469.10458 568.0 470.0 568.89545 470.0 570.0Z" fill-rule="nonzero"/><path stroke="#000000" stroke-width="2.0" stroke-linecap="butt" stroke-opacity="0.0" clip-path="url(#id_0)" d="M601.0 609.0L561.0 609.0L561.0 500.0C561.0 498.89542 561.89545 498.0 563.0 498.0L599.0 498.0C600.10455 498.0 601.0 498.89542 601.0 500.0Z" fill-rule="nonzero"/><path fill="#ea4335" clip-path="url(#id_0)" d="M601.0 609.0L561.0 609.0L561.0 500.0C561.0 498.89542 561.89545 498.0 563.0 498.0L599.0 498.0C600.10455 498.0 601.0 498.89542 601.0 500.0Z" fill-rule="nonzero"/><path stroke="#000000" stroke-width="2.0" stroke-linecap="butt" stroke-opacity="0.0" clip-path="url(#id_0)" d="M731.0 609.0L691.0 609.0L691.0 406.0C691.0 404.89542 691.89545 404.0 693.0 404.0L729.0 404.0C730.10455 404.0 731.0 404.89542 731.0 406.0Z" fill-rule="nonzero"/><path fill="#ea4335" clip-path="url(#id_0)" d="M731.0 609.0L691.0 609.0L691.0 406.0C691.0 404.89542 691.89545 404.0 693.0 404.0L729.0 404.0C730.10455 404.0 731.0 404.89542 731.0 406.0Z" fill-rule="nonzero"/><path stroke="#000000" stroke-width="2.0" stroke-linecap="butt" stroke-opacity="0.0" clip-path="url(#id_0)" d="M861.0 609.0L821.0 609.0L821.0 112.0C821.0 110.89543 821.89545 110.0 823.0 110.0L859.0 110.0C860.10455 110.0 861.0 110.89543 861.0 112.0Z" fill-rule="nonzero"/><path fill="#ea4335" clip-path="url(#id_0)" d="M861.0 609.0L821.0 609.0L821.0 112.0C821.0 110.89543 821.89545 110.0 823.0 110.0L859.0 110.0C860.10455 110.0 861.0 110.89543 861.0 112.0Z" fill-rule="nonzero"/><path stroke="#000000" stroke-width="2.0" stroke-linecap="butt" stroke-opacity="0.0" clip-path="url(#id_0)" d="M991.0 609.0L951.0 609.0L951.0 454.0C951.0 452.89542 951.89545 452.0 953.0 452.0L989.0 452.0C990.10455 452.0 991.0 452.89542 991.0 454.0Z" fill-rule="nonzero"/><path fill="#ea4335" clip-path="url(#id_0)" d="M991.0 609.0L951.0 609.0L951.0 454.0C951.0 452.89542 951.89545 452.0 953.0 452.0L989.0 452.0C990.10455 452.0 991.0 452.89542 991.0 454.0Z" fill-rule="nonzero"/><path fill="#000000" d="M40.6 608.66565Q40.6 607.1344 40.9125 606.2125Q41.225 605.275 41.834373 604.775Q42.459373 604.275 43.396873 604.275Q44.084373 604.275 44.6 604.5563Q45.13125 604.8375 45.475 605.3688Q45.81875 605.8844 46.00625 606.6344Q46.19375 607.3844 46.19375 608.66565Q46.19375 610.1813 45.88125 611.10315Q45.584373 612.025 44.959373 612.54065Q44.35 613.04065 43.396873 613.04065Q42.1625 613.04065 41.44375 612.15Q40.6 611.0875 40.6 608.66565ZM41.678123 608.66565Q41.678123 610.775 42.178123 611.47815Q42.678123 612.1813 43.396873 612.1813Q44.13125 612.1813 44.615623 611.47815Q45.115623 610.775 45.115623 608.66565Q45.115623 606.54065 44.615623 605.85315Q44.13125 605.15 43.38125 605.15Q42.6625 605.15 42.225 605.7594Q41.678123 606.54065 41.678123 608.66565ZM48.19375 612.9L48.19375 611.6969L49.396873 611.6969L49.396873 612.9L48.19375 612.9ZM50.6 608.66565Q50.6 607.1344 50.9125 606.2125Q51.225 605.275 51.834373 604.775Q52.459373 604.275 53.396873 604.275Q54.084373 604.275 54.6 604.5563Q55.13125 604.8375 55.475 605.3688Q55.81875 605.8844 56.00625 606.6344Q56.19375 607.3844 56.19375 608.66565Q56.19375 610.1813 55.88125 611.10315Q55.584373 612.025 54.959373 612.54065Q54.35 613.04065 53.396873 613.04065Q52.1625 613.04065 51.44375 612.15Q50.6 611.0875 50.6 608.66565ZM51.678123 608.66565Q51.678123 610.775 52.178123 611.47815Q52.678123 612.1813 53.396873 612.1813Q54.13125 612.1813 54.615623 611.47815Q55.115623 610.775 55.115623 608.66565Q55.115623 606.54065 54.615623 605.85315Q54.13125 605.15 53.38125 605.15Q52.6625 605.15 52.225 605.7594Q51.678123 606.54065 51.678123 608.66565ZM57.6 608.66565Q57.6 607.1344 57.9125 606.2125Q58.225 605.275 58.834373 604.775Q59.459373 604.275 60.396873 604.275Q61.084373 604.275 61.6 604.5563Q62.13125 604.8375 62.475 605.3688Q62.81875 605.8844 63.00625 606.6344Q63.19375 607.3844 63.19375 608.66565Q63.19375 610.1813 62.88125 611.10315Q62.584373 612.025 61.959373 612.54065Q61.35 613.04065 60.396873 613.04065Q59.1625 613.04065 58.44375 612.15Q57.6 611.0875 57.6 608.66565ZM58.678123 608.66565Q58.678123 610.775 59.178123 611.47815Q59.678123 612.1813 60.396873 612.1813Q61.13125 612.1813 61.615623 611.47815Q62.115623 610.775 62.115623 608.66565Q62.115623 606.54065 61.615623 605.85315Q61.13125 605.15 60.38125 605.15Q59.6625 605.15 59.225 605.7594Q58.678123 606.54065 58.678123 608.66565ZM64.80312 606.3688Q64.80312 605.4469 65.25625 604.8063Q65.725 604.16565 66.6 604.16565Q67.4125 604.16565 67.94375 604.7438Q68.475 605.3219 68.475 606.4313Q68.475 607.525 67.92812 608.1188Q67.39687 608.6969 66.61562 608.6969Q65.83437 608.6969 65.31875 608.1188Q64.80312 607.54065 64.80312 606.3688ZM66.63125 604.8844Q66.24062 604.8844 65.975 605.22815Q65.725 605.5719 65.725 606.47815Q65.725 607.3063 65.975 607.65Q66.24062 607.97815 66.63125 607.97815Q67.0375 607.97815 67.2875 607.6344Q67.55312 607.29065 67.55312 606.4Q67.55312 605.5563 67.2875 605.22815Q67.02187 604.8844 66.63125 604.8844ZM66.63125 613.2125L71.33437 604.16565L72.19375 604.16565L67.50625 613.2125L66.63125 613.2125ZM70.35 610.8844Q70.35 609.9625 70.80312 609.3219Q71.27187 608.6813 72.1625 608.6813Q72.975 608.6813 73.50625 609.2594Q74.0375 609.8219 74.0375 610.9469Q74.0375 612.04065 73.49062 612.6344Q72.95937 613.2125 72.1625 613.2125Q71.39687 613.2125 70.86562 612.6344Q70.35 612.0563 70.35 610.8844ZM72.19375 609.4Q71.7875 609.4 71.52187 609.7438Q71.27187 610.0875 71.27187 610.9938Q71.27187 611.8063 71.5375 612.15Q71.80312 612.4938 72.19375 612.4938Q72.58437 612.4938 72.85 612.15Q73.11562 611.8063 73.11562 610.9Q73.11562 610.0719 72.85 609.7438Q72.58437 609.4 72.19375 609.4Z" fill-rule="nonzero"/><path fill="#000000" d="M37.56875 506.35333L36.521873 506.35333L36.521873 499.63458Q36.13125 499.99396 35.50625 500.36896Q34.896873 500.72833 34.4125 500.9002L34.4125 499.88458Q35.2875 499.4627 35.94375 498.88458Q36.615623 498.29083 36.896873 497.72833L37.56875 497.72833L37.56875 506.35333ZM40.6 502.11896Q40.6 500.5877 40.9125 499.66583Q41.225 498.72833 41.834373 498.22833Q42.459373 497.72833 43.396873 497.72833Q44.084373 497.72833 44.6 498.00958Q45.13125 498.29083 45.475 498.82208Q45.81875 499.3377 46.00625 500.0877Q46.19375 500.8377 46.19375 502.11896Q46.19375 503.63458 45.88125 504.55646Q45.584373 505.47833 44.959373 505.99396Q44.35 506.49396 43.396873 506.49396Q42.1625 506.49396 41.44375 505.60333Q40.6 504.54083 40.6 502.11896ZM41.678123 502.11896Q41.678123 504.22833 42.178123 504.93146Q42.678123 505.63458 43.396873 505.63458Q44.13125 505.63458 44.615623 504.93146Q45.115623 504.22833 45.115623 502.11896Q45.115623 499.99396 44.615623 499.30646Q44.13125 498.60333 43.38125 498.60333Q42.6625 498.60333 42.225 499.2127Q41.678123 499.99396 41.678123 502.11896ZM48.19375 506.35333L48.19375 505.1502L49.396873 505.1502L49.396873 506.35333L48.19375 506.35333ZM50.6 502.11896Q50.6 500.5877 50.9125 499.66583Q51.225 498.72833 51.834373 498.22833Q52.459373 497.72833 53.396873 497.72833Q54.084373 497.72833 54.6 498.00958Q55.13125 498.29083 55.475 498.82208Q55.81875 499.3377 56.00625 500.0877Q56.19375 500.8377 56.19375 502.11896Q56.19375 503.63458 55.88125 504.55646Q55.584373 505.47833 54.959373 505.99396Q54.35 506.49396 53.396873 506.49396Q52.1625 506.49396 51.44375 505.60333Q50.6 504.54083 50.6 502.11896ZM51.678123 502.11896Q51.678123 504.22833 52.178123 504.93146Q52.678123 505.63458 53.396873 505.63458Q54.13125 505.63458 54.615623 504.93146Q55.115623 504.22833 55.115623 502.11896Q55.115623 499.99396 54.615623 499.30646Q54.13125 498.60333 53.38125 498.60333Q52.6625 498.60333 52.225 499.2127Q51.678123 499.99396 51.678123 502.11896ZM57.6 502.11896Q57.6 500.5877 57.9125 499.66583Q58.225 498.72833 58.834373 498.22833Q59.459373 497.72833 60.396873 497.72833Q61.084373 497.72833 61.6 498.00958Q62.13125 498.29083 62.475 498.82208Q62.81875 499.3377 63.00625 500.0877Q63.19375 500.8377 63.19375 502.11896Q63.19375 503.63458 62.88125 504.55646Q62.584373 505.47833 61.959373 505.99396Q61.35 506.49396 60.396873 506.49396Q59.1625 506.49396 58.44375 505.60333Q57.6 504.54083 57.6 502.11896ZM58.678123 502.11896Q58.678123 504.22833 59.178123 504.93146Q59.678123 505.63458 60.396873 505.63458Q61.13125 505.63458 61.615623 504.93146Q62.115623 504.22833 62.115623 502.11896Q62.115623 499.99396 61.615623 499.30646Q61.13125 498.60333 60.38125 498.60333Q59.6625 498.60333 59.225 499.2127Q58.678123 499.99396 58.678123 502.11896ZM64.80312 499.82208Q64.80312 498.9002 65.25625 498.25958Q65.725 497.61896 66.6 497.61896Q67.4125 497.61896 67.94375 498.19708Q68.475 498.7752 68.475 499.88458Q68.475 500.97833 67.92812 501.57208Q67.39687 502.1502 66.61562 502.1502Q65.83437 502.1502 65.31875 501.57208Q64.80312 500.99396 64.80312 499.82208ZM66.63125 498.3377Q66.24062 498.3377 65.975 498.68146Q65.725 499.0252 65.725 499.93146Q65.725 500.75958 65.975 501.10333Q66.24062 501.43146 66.63125 501.43146Q67.0375 501.43146 67.2875 501.0877Q67.55312 500.74396 67.55312 499.85333Q67.55312 499.00958 67.2875 498.68146Q67.02187 498.3377 66.63125 498.3377ZM66.63125 506.66583L71.33437 497.61896L72.19375 497.61896L67.50625 506.66583L66.63125 506.66583ZM70.35 504.3377Q70.35 503.41583 70.80312 502.7752Q71.27187 502.13458 72.1625 502.13458Q72.975 502.13458 73.50625 502.7127Q74.0375 503.2752 74.0375 504.4002Q74.0375 505.49396 73.49062 506.0877Q72.95937 506.66583 72.1625 506.66583Q71.39687 506.66583 70.86562 506.0877Q70.35 505.50958 70.35 504.3377ZM72.19375 502.85333Q71.7875 502.85333 71.52187 503.19708Q71.27187 503.54083 71.27187 504.44708Q71.27187 505.25958 71.5375 505.60333Q71.80312 505.94708 72.19375 505.94708Q72.58437 505.94708 72.85 505.60333Q73.11562 505.25958 73.11562 504.35333Q73.11562 503.5252 72.85 503.19708Q72.58437 502.85333 72.19375 502.85333Z" fill-rule="nonzero"/><path fill="#000000" d="M39.146873 398.79105L39.146873 399.80667L33.459373 399.80667Q33.459373 399.43167 33.584373 399.0723Q33.803123 398.49417 34.271873 397.93167Q34.75625 397.36917 35.6625 396.6348Q37.06875 395.47855 37.553123 394.80667Q38.053123 394.1348 38.053123 393.54105Q38.053123 392.91605 37.6 392.49417Q37.146873 392.05667 36.428123 392.05667Q35.6625 392.05667 35.209373 392.5098Q34.75625 392.96292 34.740623 393.77542L33.6625 393.66605Q33.771873 392.4473 34.490623 391.8223Q35.225 391.18167 36.459373 391.18167Q37.69375 391.18167 38.4125 391.86917Q39.13125 392.55667 39.13125 393.5723Q39.13125 394.08792 38.9125 394.58792Q38.709373 395.0723 38.209373 395.6348Q37.725 396.18167 36.6 397.1348Q35.646873 397.93167 35.365623 398.22855Q35.1 398.5098 34.928123 398.79105L39.146873 398.79105ZM40.6 395.5723Q40.6 394.04105 40.9125 393.11917Q41.225 392.18167 41.834373 391.68167Q42.459373 391.18167 43.396873 391.18167Q44.084373 391.18167 44.6 391.46292Q45.13125 391.74417 45.475 392.27542Q45.81875 392.79105 46.00625 393.54105Q46.19375 394.29105 46.19375 395.5723Q46.19375 397.08792 45.88125 398.0098Q45.584373 398.93167 44.959373 399.4473Q44.35 399.9473 43.396873 399.9473Q42.1625 399.9473 41.44375 399.05667Q40.6 397.99417 40.6 395.5723ZM41.678123 395.5723Q41.678123 397.68167 42.178123 398.3848Q42.678123 399.08792 43.396873 399.08792Q44.13125 399.08792 44.615623 398.3848Q45.115623 397.68167 45.115623 395.5723Q45.115623 393.4473 44.615623 392.7598Q44.13125 392.05667 43.38125 392.05667Q42.6625 392.05667 42.225 392.66605Q41.678123 393.4473 41.678123 395.5723ZM48.19375 399.80667L48.19375 398.60355L49.396873 398.60355L49.396873 399.80667L48.19375 399.80667ZM50.6 395.5723Q50.6 394.04105 50.9125 393.11917Q51.225 392.18167 51.834373 391.68167Q52.459373 391.18167 53.396873 391.18167Q54.084373 391.18167 54.6 391.46292Q55.13125 391.74417 55.475 392.27542Q55.81875 392.79105 56.00625 393.54105Q56.19375 394.29105 56.19375 395.5723Q56.19375 397.08792 55.88125 398.0098Q55.584373 398.93167 54.959373 399.4473Q54.35 399.9473 53.396873 399.9473Q52.1625 399.9473 51.44375 399.05667Q50.6 397.99417 50.6 395.5723ZM51.678123 395.5723Q51.678123 397.68167 52.178123 398.3848Q52.678123 399.08792 53.396873 399.08792Q54.13125 399.08792 54.615623 398.3848Q55.115623 397.68167 55.115623 395.5723Q55.115623 393.4473 54.615623 392.7598Q54.13125 392.05667 53.38125 392.05667Q52.6625 392.05667 52.225 392.66605Q51.678123 393.4473 51.678123 395.5723ZM57.6 395.5723Q57.6 394.04105 57.9125 393.11917Q58.225 392.18167 58.834373 391.68167Q59.459373 391.18167 60.396873 391.18167Q61.084373 391.18167 61.6 391.46292Q62.13125 391.74417 62.475 392.27542Q62.81875 392.79105 63.00625 393.54105Q63.19375 394.29105 63.19375 395.5723Q63.19375 397.08792 62.88125 398.0098Q62.584373 398.93167 61.959373 399.4473Q61.35 399.9473 60.396873 399.9473Q59.1625 399.9473 58.44375 399.05667Q57.6 397.99417 57.6 395.5723ZM58.678123 395.5723Q58.678123 397.68167 59.178123 398.3848Q59.678123 399.08792 60.396873 399.08792Q61.13125 399.08792 61.615623 398.3848Q62.115623 397.68167 62.115623 395.5723Q62.115623 393.4473 61.615623 392.7598Q61.13125 392.05667 60.38125 392.05667Q59.6625 392.05667 59.225 392.66605Q58.678123 393.4473 58.678123 395.5723ZM64.80312 393.27542Q64.80312 392.35355 65.25625 391.71292Q65.725 391.0723 66.6 391.0723Q67.4125 391.0723 67.94375 391.65042Q68.475 392.22855 68.475 393.33792Q68.475 394.43167 67.92812 395.02542Q67.39687 395.60355 66.61562 395.60355Q65.83437 395.60355 65.31875 395.02542Q64.80312 394.4473 64.80312 393.27542ZM66.63125 391.79105Q66.24062 391.79105 65.975 392.1348Q65.725 392.47855 65.725 393.3848Q65.725 394.21292 65.975 394.55667Q66.24062 394.8848 66.63125 394.8848Q67.0375 394.8848 67.2875 394.54105Q67.55312 394.1973 67.55312 393.30667Q67.55312 392.46292 67.2875 392.1348Q67.02187 391.79105 66.63125 391.79105ZM66.63125 400.11917L71.33437 391.0723L72.19375 391.0723L67.50625 400.11917L66.63125 400.11917ZM70.35 397.79105Q70.35 396.86917 70.80312 396.22855Q71.27187 395.58792 72.1625 395.58792Q72.975 395.58792 73.50625 396.16605Q74.0375 396.72855 74.0375 397.85355Q74.0375 398.9473 73.49062 399.54105Q72.95937 400.11917 72.1625 400.11917Q71.39687 400.11917 70.86562 399.54105Q70.35 398.96292 70.35 397.79105ZM72.19375 396.30667Q71.7875 396.30667 71.52187 396.65042Q71.27187 396.99417 71.27187 397.90042Q71.27187 398.71292 71.5375 399.05667Q71.80312 399.40042 72.19375 399.40042Q72.58437 399.40042 72.85 399.05667Q73.11562 398.71292 73.11562 397.80667Q73.11562 396.97855 72.85 396.65042Q72.58437 396.30667 72.19375 396.30667Z" fill-rule="nonzero"/><path fill="#000000" d="M33.6 290.9944L34.6625 290.85376Q34.834373 291.7444 35.271873 292.15063Q35.709373 292.54126 36.334373 292.54126Q37.084373 292.54126 37.6 292.02563Q38.115623 291.51 38.115623 290.7444Q38.115623 290.02563 37.63125 289.5569Q37.1625 289.0725 36.428123 289.0725Q36.13125 289.0725 35.678123 289.1975L35.803123 288.26Q35.9125 288.27563 35.975 288.27563Q36.646873 288.27563 37.178123 287.9319Q37.725 287.5725 37.725 286.83813Q37.725 286.26 37.334373 285.885Q36.94375 285.4944 36.31875 285.4944Q35.709373 285.4944 35.2875 285.885Q34.88125 286.27563 34.771873 287.04126L33.709373 286.85376Q33.896873 285.8069 34.584373 285.22876Q35.271873 284.635 36.2875 284.635Q36.990623 284.635 37.584373 284.9475Q38.178123 285.2444 38.490623 285.76Q38.803123 286.27563 38.803123 286.8694Q38.803123 287.41626 38.50625 287.885Q38.209373 288.33813 37.63125 288.60376Q38.38125 288.77563 38.803123 289.33813Q39.225 289.885 39.225 290.72876Q39.225 291.85376 38.396873 292.635Q37.584373 293.41626 36.334373 293.41626Q35.209373 293.41626 34.459373 292.7444Q33.709373 292.0569 33.6 290.9944ZM40.6 289.02563Q40.6 287.4944 40.9125 286.5725Q41.225 285.635 41.834373 285.135Q42.459373 284.635 43.396873 284.635Q44.084373 284.635 44.6 284.91626Q45.13125 285.1975 45.475 285.72876Q45.81875 286.2444 46.00625 286.9944Q46.19375 287.7444 46.19375 289.02563Q46.19375 290.54126 45.88125 291.46313Q45.584373 292.385 44.959373 292.90063Q44.35 293.40063 43.396873 293.40063Q42.1625 293.40063 41.44375 292.51Q40.6 291.4475 40.6 289.02563ZM41.678123 289.02563Q41.678123 291.135 42.178123 291.83813Q42.678123 292.54126 43.396873 292.54126Q44.13125 292.54126 44.615623 291.83813Q45.115623 291.135 45.115623 289.02563Q45.115623 286.90063 44.615623 286.21313Q44.13125 285.51 43.38125 285.51Q42.6625 285.51 42.225 286.1194Q41.678123 286.90063 41.678123 289.02563ZM48.19375 293.26L48.19375 292.0569L49.396873 292.0569L49.396873 293.26L48.19375 293.26ZM50.6 289.02563Q50.6 287.4944 50.9125 286.5725Q51.225 285.635 51.834373 285.135Q52.459373 284.635 53.396873 284.635Q54.084373 284.635 54.6 284.91626Q55.13125 285.1975 55.475 285.72876Q55.81875 286.2444 56.00625 286.9944Q56.19375 287.7444 56.19375 289.02563Q56.19375 290.54126 55.88125 291.46313Q55.584373 292.385 54.959373 292.90063Q54.35 293.40063 53.396873 293.40063Q52.1625 293.40063 51.44375 292.51Q50.6 291.4475 50.6 289.02563ZM51.678123 289.02563Q51.678123 291.135 52.178123 291.83813Q52.678123 292.54126 53.396873 292.54126Q54.13125 292.54126 54.615623 291.83813Q55.115623 291.135 55.115623 289.02563Q55.115623 286.90063 54.615623 286.21313Q54.13125 285.51 53.38125 285.51Q52.6625 285.51 52.225 286.1194Q51.678123 286.90063 51.678123 289.02563ZM57.6 289.02563Q57.6 287.4944 57.9125 286.5725Q58.225 285.635 58.834373 285.135Q59.459373 284.635 60.396873 284.635Q61.084373 284.635 61.6 284.91626Q62.13125 285.1975 62.475 285.72876Q62.81875 286.2444 63.00625 286.9944Q63.19375 287.7444 63.19375 289.02563Q63.19375 290.54126 62.88125 291.46313Q62.584373 292.385 61.959373 292.90063Q61.35 293.40063 60.396873 293.40063Q59.1625 293.40063 58.44375 292.51Q57.6 291.4475 57.6 289.02563ZM58.678123 289.02563Q58.678123 291.135 59.178123 291.83813Q59.678123 292.54126 60.396873 292.54126Q61.13125 292.54126 61.615623 291.83813Q62.115623 291.135 62.115623 289.02563Q62.115623 286.90063 61.615623 286.21313Q61.13125 285.51 60.38125 285.51Q59.6625 285.51 59.225 286.1194Q58.678123 286.90063 58.678123 289.02563ZM64.80312 286.72876Q64.80312 285.8069 65.25625 285.16626Q65.725 284.52563 66.6 284.52563Q67.4125 284.52563 67.94375 285.10376Q68.475 285.6819 68.475 286.79126Q68.475 287.885 67.92812 288.47876Q67.39687 289.0569 66.61562 289.0569Q65.83437 289.0569 65.31875 288.47876Q64.80312 287.90063 64.80312 286.72876ZM66.63125 285.2444Q66.24062 285.2444 65.975 285.58813Q65.725 285.9319 65.725 286.83813Q65.725 287.66626 65.975 288.01Q66.24062 288.33813 66.63125 288.33813Q67.0375 288.33813 67.2875 287.9944Q67.55312 287.65063 67.55312 286.76Q67.55312 285.91626 67.2875 285.58813Q67.02187 285.2444 66.63125 285.2444ZM66.63125 293.5725L71.33437 284.52563L72.19375 284.52563L67.50625 293.5725L66.63125 293.5725ZM70.35 291.2444Q70.35 290.3225 70.80312 289.6819Q71.27187 289.04126 72.1625 289.04126Q72.975 289.04126 73.50625 289.6194Q74.0375 290.1819 74.0375 291.3069Q74.0375 292.40063 73.49062 292.9944Q72.95937 293.5725 72.1625 293.5725Q71.39687 293.5725 70.86562 292.9944Q70.35 292.41626 70.35 291.2444ZM72.19375 289.76Q71.7875 289.76 71.52187 290.10376Q71.27187 290.4475 71.27187 291.35376Q71.27187 292.16626 71.5375 292.51Q71.80312 292.85376 72.19375 292.85376Q72.58437 292.85376 72.85 292.51Q73.11562 292.16626 73.11562 291.26Q73.11562 290.4319 72.85 290.10376Q72.58437 289.76 72.19375 289.76Z" fill-rule="nonzero"/><path fill="#000000" d="M36.975 186.71333L36.975 184.65083L33.25625 184.65083L33.25625 183.68208L37.178123 178.11958L38.0375 178.11958L38.0375 183.68208L39.19375 183.68208L39.19375 184.65083L38.0375 184.65083L38.0375 186.71333L36.975 186.71333ZM36.975 183.68208L36.975 179.82271L34.2875 183.68208L36.975 183.68208ZM40.6 182.47896Q40.6 180.94771 40.9125 180.02583Q41.225 179.08833 41.834373 178.58833Q42.459373 178.08833 43.396873 178.08833Q44.084373 178.08833 44.6 178.36958Q45.13125 178.65083 45.475 179.18208Q45.81875 179.69771 46.00625 180.44771Q46.19375 181.19771 46.19375 182.47896Q46.19375 183.99458 45.88125 184.91646Q45.584373 185.83833 44.959373 186.35396Q44.35 186.85396 43.396873 186.85396Q42.1625 186.85396 41.44375 185.96333Q40.6 184.90083 40.6 182.47896ZM41.678123 182.47896Q41.678123 184.58833 42.178123 185.29146Q42.678123 185.99458 43.396873 185.99458Q44.13125 185.99458 44.615623 185.29146Q45.115623 184.58833 45.115623 182.47896Q45.115623 180.35396 44.615623 179.66646Q44.13125 178.96333 43.38125 178.96333Q42.6625 178.96333 42.225 179.57271Q41.678123 180.35396 41.678123 182.47896ZM48.19375 186.71333L48.19375 185.51021L49.396873 185.51021L49.396873 186.71333L48.19375 186.71333ZM50.6 182.47896Q50.6 180.94771 50.9125 180.02583Q51.225 179.08833 51.834373 178.58833Q52.459373 178.08833 53.396873 178.08833Q54.084373 178.08833 54.6 178.36958Q55.13125 178.65083 55.475 179.18208Q55.81875 179.69771 56.00625 180.44771Q56.19375 181.19771 56.19375 182.47896Q56.19375 183.99458 55.88125 184.91646Q55.584373 185.83833 54.959373 186.35396Q54.35 186.85396 53.396873 186.85396Q52.1625 186.85396 51.44375 185.96333Q50.6 184.90083 50.6 182.47896ZM51.678123 182.47896Q51.678123 184.58833 52.178123 185.29146Q52.678123 185.99458 53.396873 185.99458Q54.13125 185.99458 54.615623 185.29146Q55.115623 184.58833 55.115623 182.47896Q55.115623 180.35396 54.615623 179.66646Q54.13125 178.96333 53.38125 178.96333Q52.6625 178.96333 52.225 179.57271Q51.678123 180.35396 51.678123 182.47896ZM57.6 182.47896Q57.6 180.94771 57.9125 180.02583Q58.225 179.08833 58.834373 178.58833Q59.459373 178.08833 60.396873 178.08833Q61.084373 178.08833 61.6 178.36958Q62.13125 178.65083 62.475 179.18208Q62.81875 179.69771 63.00625 180.44771Q63.19375 181.19771 63.19375 182.47896Q63.19375 183.99458 62.88125 184.91646Q62.584373 185.83833 61.959373 186.35396Q61.35 186.85396 60.396873 186.85396Q59.1625 186.85396 58.44375 185.96333Q57.6 184.90083 57.6 182.47896ZM58.678123 182.47896Q58.678123 184.58833 59.178123 185.29146Q59.678123 185.99458 60.396873 185.99458Q61.13125 185.99458 61.615623 185.29146Q62.115623 184.58833 62.115623 182.47896Q62.115623 180.35396 61.615623 179.66646Q61.13125 178.96333 60.38125 178.96333Q59.6625 178.96333 59.225 179.57271Q58.678123 180.35396 58.678123 182.47896ZM64.80312 180.18208Q64.80312 179.26021 65.25625 178.61958Q65.725 177.97896 66.6 177.97896Q67.4125 177.97896 67.94375 178.55708Q68.475 179.13521 68.475 180.24458Q68.475 181.33833 67.92812 181.93208Q67.39687 182.51021 66.61562 182.51021Q65.83437 182.51021 65.31875 181.93208Q64.80312 181.35396 64.80312 180.18208ZM66.63125 178.69771Q66.24062 178.69771 65.975 179.04146Q65.725 179.38521 65.725 180.29146Q65.725 181.11958 65.975 181.46333Q66.24062 181.79146 66.63125 181.79146Q67.0375 181.79146 67.2875 181.44771Q67.55312 181.10396 67.55312 180.21333Q67.55312 179.36958 67.2875 179.04146Q67.02187 178.69771 66.63125 178.69771ZM66.63125 187.02583L71.33437 177.97896L72.19375 177.97896L67.50625 187.02583L66.63125 187.02583ZM70.35 184.69771Q70.35 183.77583 70.80312 183.13521Q71.27187 182.49458 72.1625 182.49458Q72.975 182.49458 73.50625 183.07271Q74.0375 183.63521 74.0375 184.76021Q74.0375 185.85396 73.49062 186.44771Q72.95937 187.02583 72.1625 187.02583Q71.39687 187.02583 70.86562 186.44771Q70.35 185.86958 70.35 184.69771ZM72.19375 183.21333Q71.7875 183.21333 71.52187 183.55708Q71.27187 183.90083 71.27187 184.80708Q71.27187 185.61958 71.5375 185.96333Q71.80312 186.30708 72.19375 186.30708Q72.58437 186.30708 72.85 185.96333Q73.11562 185.61958 73.11562 184.71333Q73.11562 183.88521 72.85 183.55708Q72.58437 183.21333 72.19375 183.21333Z" fill-rule="nonzero"/><path fill="#000000" d="M33.6 77.916664L34.709373 77.822914Q34.834373 78.635414 35.271873 79.041664Q35.725 79.447914 36.365623 79.447914Q37.115623 79.447914 37.646873 78.86979Q38.178123 78.291664 38.178123 77.354164Q38.178123 76.447914 37.6625 75.93229Q37.1625 75.40104 36.334373 75.40104Q35.834373 75.40104 35.4125 75.635414Q35.00625 75.86979 34.771873 76.229164L33.7875 76.104164L34.615623 71.697914L38.896873 71.697914L38.896873 72.697914L35.459373 72.697914L35.00625 75.010414Q35.771873 74.46354 36.615623 74.46354Q37.740623 74.46354 38.50625 75.24479Q39.2875 76.02604 39.2875 77.260414Q39.2875 78.416664 38.615623 79.27604Q37.7875 80.30729 36.365623 80.30729Q35.19375 80.30729 34.44375 79.65104Q33.709373 78.99479 33.6 77.916664ZM40.6 75.93229Q40.6 74.40104 40.9125 73.479164Q41.225 72.541664 41.834373 72.041664Q42.459373 71.541664 43.396873 71.541664Q44.084373 71.541664 44.6 71.822914Q45.13125 72.104164 45.475 72.635414Q45.81875 73.15104 46.00625 73.90104Q46.19375 74.65104 46.19375 75.93229Q46.19375 77.447914 45.88125 78.36979Q45.584373 79.291664 44.959373 79.80729Q44.35 80.30729 43.396873 80.30729Q42.1625 80.30729 41.44375 79.416664Q40.6 78.354164 40.6 75.93229ZM41.678123 75.93229Q41.678123 78.041664 42.178123 78.74479Q42.678123 79.447914 43.396873 79.447914Q44.13125 79.447914 44.615623 78.74479Q45.115623 78.041664 45.115623 75.93229Q45.115623 73.80729 44.615623 73.11979Q44.13125 72.416664 43.38125 72.416664Q42.6625 72.416664 42.225 73.02604Q41.678123 73.80729 41.678123 75.93229ZM48.19375 80.166664L48.19375 78.96354L49.396873 78.96354L49.396873 80.166664L48.19375 80.166664ZM50.6 75.93229Q50.6 74.40104 50.9125 73.479164Q51.225 72.541664 51.834373 72.041664Q52.459373 71.541664 53.396873 71.541664Q54.084373 71.541664 54.6 71.822914Q55.13125 72.104164 55.475 72.635414Q55.81875 73.15104 56.00625 73.90104Q56.19375 74.65104 56.19375 75.93229Q56.19375 77.447914 55.88125 78.36979Q55.584373 79.291664 54.959373 79.80729Q54.35 80.30729 53.396873 80.30729Q52.1625 80.30729 51.44375 79.416664Q50.6 78.354164 50.6 75.93229ZM51.678123 75.93229Q51.678123 78.041664 52.178123 78.74479Q52.678123 79.447914 53.396873 79.447914Q54.13125 79.447914 54.615623 78.74479Q55.115623 78.041664 55.115623 75.93229Q55.115623 73.80729 54.615623 73.11979Q54.13125 72.416664 53.38125 72.416664Q52.6625 72.416664 52.225 73.02604Q51.678123 73.80729 51.678123 75.93229ZM57.6 75.93229Q57.6 74.40104 57.9125 73.479164Q58.225 72.541664 58.834373 72.041664Q59.459373 71.541664 60.396873 71.541664Q61.084373 71.541664 61.6 71.822914Q62.13125 72.104164 62.475 72.635414Q62.81875 73.15104 63.00625 73.90104Q63.19375 74.65104 63.19375 75.93229Q63.19375 77.447914 62.88125 78.36979Q62.584373 79.291664 61.959373 79.80729Q61.35 80.30729 60.396873 80.30729Q59.1625 80.30729 58.44375 79.416664Q57.6 78.354164 57.6 75.93229ZM58.678123 75.93229Q58.678123 78.041664 59.178123 78.74479Q59.678123 79.447914 60.396873 79.447914Q61.13125 79.447914 61.615623 78.74479Q62.115623 78.041664 62.115623 75.93229Q62.115623 73.80729 61.615623 73.11979Q61.13125 72.416664 60.38125 72.416664Q59.6625 72.416664 59.225 73.02604Q58.678123 73.80729 58.678123 75.93229ZM64.80312 73.635414Q64.80312 72.71354 65.25625 72.072914Q65.725 71.43229 66.6 71.43229Q67.4125 71.43229 67.94375 72.010414Q68.475 72.58854 68.475 73.697914Q68.475 74.791664 67.92812 75.385414Q67.39687 75.96354 66.61562 75.96354Q65.83437 75.96354 65.31875 75.385414Q64.80312 74.80729 64.80312 73.635414ZM66.63125 72.15104Q66.24062 72.15104 65.975 72.49479Q65.725 72.83854 65.725 73.74479Q65.725 74.572914 65.975 74.916664Q66.24062 75.24479 66.63125 75.24479Q67.0375 75.24479 67.2875 74.90104Q67.55312 74.55729 67.55312 73.666664Q67.55312 72.822914 67.2875 72.49479Q67.02187 72.15104 66.63125 72.15104ZM66.63125 80.479164L71.33437 71.43229L72.19375 71.43229L67.50625 80.479164L66.63125 80.479164ZM70.35 78.15104Q70.35 77.229164 70.80312 76.58854Q71.27187 75.947914 72.1625 75.947914Q72.975 75.947914 73.50625 76.52604Q74.0375 77.08854 74.0375 78.21354Q74.0375 79.30729 73.49062 79.90104Q72.95937 80.479164 72.1625 80.479164Q71.39687 80.479164 70.86562 79.90104Q70.35 79.322914 70.35 78.15104ZM72.19375 76.666664Q71.7875 76.666664 71.52187 77.010414Q71.27187 77.354164 71.27187 78.260414Q71.27187 79.072914 71.5375 79.416664Q71.80312 79.760414 72.19375 79.760414Q72.58437 79.760414 72.85 79.416664Q73.11562 79.072914 73.11562 78.166664Q73.11562 77.33854 72.85 77.010414Q72.58437 76.666664 72.19375 76.666664Z" fill-rule="nonzero"/><path fill="#000000" d="M160.96939 623.65L162.07877 623.5563Q162.20377 624.3688 162.64127 624.775Q163.09439 625.1813 163.73502 625.1813Q164.48502 625.1813 165.01627 624.60315Q165.54752 624.025 165.54752 623.0875Q165.54752 622.1813 165.03189 621.66565Q164.53189 621.1344 163.70377 621.1344Q163.20377 621.1344 162.78189 621.3688Q162.37564 621.60315 162.14127 621.9625L161.15689 621.8375L161.98502 617.4313L166.26627 617.4313L166.26627 618.4313L162.82877 618.4313L162.37564 620.7438Q163.14127 620.1969 163.98502 620.1969Q165.11002 620.1969 165.87564 620.97815Q166.65689 621.7594 166.65689 622.9938Q166.65689 624.15 165.98502 625.0094Q165.15689 626.04065 163.73502 626.04065Q162.56314 626.04065 161.81314 625.3844Q161.07877 624.72815 160.96939 623.65ZM168.56314 625.9L168.56314 624.6969L169.76627 624.6969L169.76627 625.9L168.56314 625.9ZM176.43814 619.41565L175.39127 619.4938Q175.25064 618.8688 175.00064 618.5875Q174.56314 618.1344 173.93814 618.1344Q173.43814 618.1344 173.04752 618.41565Q172.56314 618.79065 172.26627 619.4938Q171.98502 620.1813 171.96939 621.4625Q172.34439 620.8844 172.89127 620.60315Q173.45377 620.3219 174.06314 620.3219Q175.11002 620.3219 175.84439 621.10315Q176.59439 621.8844 176.59439 623.10315Q176.59439 623.91565 176.23502 624.6188Q175.89127 625.3063 175.28189 625.6813Q174.67252 626.04065 173.90689 626.04065Q172.57877 626.04065 171.75064 625.0719Q170.92252 624.10315 170.92252 621.8844Q170.92252 619.3844 171.84439 618.2594Q172.64127 617.275 174.00064 617.275Q175.01627 617.275 175.65689 617.85315Q176.31314 618.41565 176.43814 619.41565ZM172.14127 623.1188Q172.14127 623.66565 172.36002 624.16565Q172.59439 624.65 173.00064 624.91565Q173.42252 625.1813 173.89127 625.1813Q174.54752 625.1813 175.03189 624.65Q175.51627 624.10315 175.51627 623.1813Q175.51627 622.29065 175.03189 621.775Q174.56314 621.2594 173.84439 621.2594Q173.12564 621.2594 172.62564 621.775Q172.14127 622.29065 172.14127 623.1188Z" fill-rule="nonzero"/><path fill="#000000" d="M291.20877 618.4313L291.20877 617.41565L296.77127 617.41565L296.77127 618.2438Q295.95877 619.1188 295.14627 620.5719Q294.3494 622.0094 293.9119 623.54065Q293.58377 624.6188 293.50565 625.9L292.4119 625.9Q292.42752 624.8844 292.80252 623.4469Q293.19315 622.0094 293.89627 620.6813Q294.61502 619.35315 295.42752 618.4313L291.20877 618.4313ZM298.74002 625.9L298.74002 624.6969L299.94315 624.6969L299.94315 625.9L298.74002 625.9ZM301.14627 621.66565Q301.14627 620.1344 301.45877 619.2125Q301.77127 618.275 302.38065 617.775Q303.00565 617.275 303.94315 617.275Q304.63065 617.275 305.14627 617.5563Q305.67752 617.8375 306.02127 618.3688Q306.36502 618.8844 306.55252 619.6344Q306.74002 620.3844 306.74002 621.66565Q306.74002 623.1813 306.42752 624.10315Q306.13065 625.025 305.50565 625.54065Q304.89627 626.04065 303.94315 626.04065Q302.70877 626.04065 301.99002 625.15Q301.14627 624.0875 301.14627 621.66565ZM302.2244 621.66565Q302.2244 623.775 302.7244 624.47815Q303.2244 625.1813 303.94315 625.1813Q304.67752 625.1813 305.1619 624.47815Q305.6619 623.775 305.6619 621.66565Q305.6619 619.54065 305.1619 618.85315Q304.67752 618.15 303.92752 618.15Q303.20877 618.15 302.77127 618.7594Q302.2244 619.54065 302.2244 621.66565Z" fill-rule="nonzero"/><path fill="#000000" d="M421.38562 618.4313L421.38562 617.41565L426.94812 617.41565L426.94812 618.2438Q426.13562 619.1188 425.32312 620.5719Q424.52625 622.0094 424.08875 623.54065Q423.76062 624.6188 423.6825 625.9L422.58875 625.9Q422.60437 624.8844 422.97937 623.4469Q423.37 622.0094 424.07312 620.6813Q424.79187 619.35315 425.60437 618.4313L421.38562 618.4313ZM428.91687 625.9L428.91687 624.6969L430.12 624.6969L430.12 625.9L428.91687 625.9ZM435.29187 625.9L434.245 625.9L434.245 619.1813Q433.85437 619.54065 433.22937 619.91565Q432.62 620.275 432.13562 620.4469L432.13562 619.4313Q433.01062 619.0094 433.66687 618.4313Q434.33875 617.8375 434.62 617.275L435.29187 617.275L435.29187 625.9Z" fill-rule="nonzero"/><path fill="#000000" d="M551.5625 618.4313L551.5625 617.41565L557.125 617.41565L557.125 618.2438Q556.3125 619.1188 555.5 620.5719Q554.7031 622.0094 554.2656 623.54065Q553.9375 624.6188 553.8594 625.9L552.7656 625.9Q552.78125 624.8844 553.15625 623.4469Q553.5469 622.0094 554.25 620.6813Q554.96875 619.35315 555.78125 618.4313L551.5625 618.4313ZM559.09375 625.9L559.09375 624.6969L560.2969 624.6969L560.2969 625.9L559.09375 625.9ZM567.0469 624.8844L567.0469 625.9L561.3594 625.9Q561.3594 625.525 561.4844 625.16565Q561.7031 624.5875 562.1719 624.025Q562.65625 623.4625 563.5625 622.72815Q564.96875 621.5719 565.4531 620.9Q565.9531 620.22815 565.9531 619.6344Q565.9531 619.0094 565.5 618.5875Q565.0469 618.15 564.3281 618.15Q563.5625 618.15 563.1094 618.60315Q562.65625 619.0563 562.6406 619.8688L561.5625 619.7594Q561.6719 618.54065 562.3906 617.91565Q563.125 617.275 564.3594 617.275Q565.59375 617.275 566.3125 617.9625Q567.03125 618.65 567.03125 619.66565Q567.03125 620.1813 566.8125 620.6813Q566.6094 621.16565 566.1094 621.72815Q565.625 622.275 564.5 623.22815Q563.5469 624.025 563.2656 624.3219Q563.0 624.60315 562.8281 624.8844L567.0469 624.8844Z" fill-rule="nonzero"/><path fill="#000000" d="M681.7394 618.4313L681.7394 617.41565L687.3019 617.41565L687.3019 618.2438Q686.4894 619.1188 685.6769 620.5719Q684.88 622.0094 684.4425 623.54065Q684.1144 624.6188 684.03625 625.9L682.9425 625.9Q682.9581 624.8844 683.3331 623.4469Q683.72375 622.0094 684.4269 620.6813Q685.1456 619.35315 685.9581 618.4313L681.7394 618.4313ZM689.2706 625.9L689.2706 624.6969L690.47375 624.6969L690.47375 625.9L689.2706 625.9ZM691.6769 623.6344L692.7394 623.4938Q692.91125 624.3844 693.34875 624.79065Q693.78625 625.1813 694.41125 625.1813Q695.16125 625.1813 695.6769 624.66565Q696.1925 624.15 696.1925 623.3844Q696.1925 622.66565 695.7081 622.1969Q695.2394 621.7125 694.505 621.7125Q694.2081 621.7125 693.755 621.8375L693.88 620.9Q693.9894 620.91565 694.0519 620.91565Q694.72375 620.91565 695.255 620.5719Q695.8019 620.2125 695.8019 619.47815Q695.8019 618.9 695.41125 618.525Q695.0206 618.1344 694.3956 618.1344Q693.78625 618.1344 693.3644 618.525Q692.9581 618.91565 692.84875 619.6813L691.78625 619.4938Q691.97375 618.4469 692.66125 617.8688Q693.34875 617.275 694.3644 617.275Q695.0675 617.275 695.66125 617.5875Q696.255 617.8844 696.5675 618.4Q696.88 618.91565 696.88 619.5094Q696.88 620.0563 696.5831 620.525Q696.28625 620.97815 695.7081 621.2438Q696.4581 621.41565 696.88 621.97815Q697.3019 622.525 697.3019 623.3688Q697.3019 624.4938 696.47375 625.275Q695.66125 626.0563 694.41125 626.0563Q693.28625 626.0563 692.53625 625.3844Q691.78625 624.6969 691.6769 623.6344Z" fill-rule="nonzero"/><path fill="#000000" d="M811.91626 618.4313L811.91626 617.41565L817.47876 617.41565L817.47876 618.2438Q816.66626 619.1188 815.85376 620.5719Q815.0569 622.0094 814.6194 623.54065Q814.29126 624.6188 814.21313 625.9L813.1194 625.9Q813.135 624.8844 813.51 623.4469Q813.90063 622.0094 814.60376 620.6813Q815.3225 619.35315 816.135 618.4313L811.91626 618.4313ZM819.4475 625.9L819.4475 624.6969L820.65063 624.6969L820.65063 625.9L819.4475 625.9ZM825.22876 625.9L825.22876 623.8375L821.51 623.8375L821.51 622.8688L825.4319 617.3063L826.29126 617.3063L826.29126 622.8688L827.4475 622.8688L827.4475 623.8375L826.29126 623.8375L826.29126 625.9L825.22876 625.9ZM825.22876 622.8688L825.22876 619.0094L822.54126 622.8688L825.22876 622.8688Z" fill-rule="nonzero"/><path fill="#000000" d="M943.65564 621.2438Q942.9994 620.9938 942.67126 620.5563Q942.35876 620.10315 942.35876 619.4938Q942.35876 618.5563 943.03064 617.91565Q943.71814 617.275 944.8275 617.275Q945.9525 617.275 946.64 617.9313Q947.3275 618.5875 947.3275 619.525Q947.3275 620.1188 947.015 620.5563Q946.7025 620.9938 946.0619 621.2438Q946.85876 621.4938 947.265 622.0719Q947.67126 622.65 947.67126 623.4469Q947.67126 624.54065 946.89 625.29065Q946.1244 626.04065 944.84314 626.04065Q943.5775 626.04065 942.79626 625.29065Q942.015 624.54065 942.015 623.41565Q942.015 622.5719 942.4369 622.0094Q942.8744 621.4469 943.65564 621.2438ZM943.4369 619.4469Q943.4369 620.0563 943.8275 620.4469Q944.23376 620.8375 944.85876 620.8375Q945.46814 620.8375 945.85876 620.4625Q946.2494 620.0719 946.2494 619.5094Q946.2494 618.9313 945.84314 618.54065Q945.4369 618.1344 944.84314 618.1344Q944.23376 618.1344 943.8275 618.525Q943.4369 618.91565 943.4369 619.4469ZM943.10876 623.41565Q943.10876 623.8688 943.3119 624.29065Q943.53064 624.7125 943.9525 624.9469Q944.3744 625.1813 944.85876 625.1813Q945.60876 625.1813 946.09314 624.6969Q946.59314 624.2125 946.59314 623.4625Q946.59314 622.6969 946.09314 622.1969Q945.59314 621.6969 944.8275 621.6969Q944.0775 621.6969 943.59314 622.1969Q943.10876 622.6813 943.10876 623.41565ZM949.6244 625.9L949.6244 624.6969L950.8275 624.6969L950.8275 625.9L949.6244 625.9ZM952.03064 621.66565Q952.03064 620.1344 952.34314 619.2125Q952.65564 618.275 953.265 617.775Q953.89 617.275 954.8275 617.275Q955.515 617.275 956.03064 617.5563Q956.5619 617.8375 956.90564 618.3688Q957.2494 618.8844 957.4369 619.6344Q957.6244 620.3844 957.6244 621.66565Q957.6244 623.1813 957.3119 624.10315Q957.015 625.025 956.39 625.54065Q955.78064 626.04065 954.8275 626.04065Q953.59314 626.04065 952.8744 625.15Q952.03064 624.0875 952.03064 621.66565ZM953.10876 621.66565Q953.10876 623.775 953.60876 624.47815Q954.10876 625.1813 954.8275 625.1813Q955.5619 625.1813 956.04626 624.47815Q956.54626 623.775 956.54626 621.66565Q956.54626 619.54065 956.04626 618.85315Q955.5619 618.15 954.8119 618.15Q954.09314 618.15 953.65564 618.7594Q953.10876 619.54065 953.10876 621.66565Z" fill-rule="nonzero"/><path fill="#4285f4" d="M443.5 35.1C443.5 34.547714 443.94772 34.1 444.5 34.1L454.5 34.1C455.05228 34.1 455.5 34.547714 455.5 35.1L455.5 45.1C455.5 45.652287 455.05228 46.1 454.5 46.1L444.5 46.1C443.94772 46.1 443.5 45.652287 443.5 45.1Z" fill-rule="nonzero"/><path fill="#1a1a1a" d="M469.57812 42.56875L469.57812 44.1L463.79688 44.1Q463.89062 43.225 464.35938 42.459373Q464.82812 41.678123 466.21875 40.396873Q467.32812 39.365623 467.57812 38.990623Q467.92188 38.475 467.92188 37.975Q467.92188 37.428123 467.625 37.13125Q467.32812 36.834373 466.8125 36.834373Q466.29688 36.834373 465.98438 37.146873Q465.6875 37.459373 465.64062 38.178123L464.0 38.021873Q464.14062 36.6625 464.90625 36.06875Q465.6875 35.475 466.84375 35.475Q468.125 35.475 468.84375 36.1625Q469.57812 36.85 469.57812 37.865623Q469.57812 38.44375 469.35938 38.975Q469.15625 39.490623 468.70312 40.06875Q468.40625 40.44375 467.625 41.1625Q466.84375 41.88125 466.64062 42.115623Q466.4375 42.35 466.29688 42.56875L469.57812 42.56875ZM473.79688 35.475Q475.04688 35.475 475.75 36.365623Q476.57812 37.4125 476.57812 39.865623Q476.57812 42.303123 475.73438 43.365623Q475.04688 44.240623 473.79688 44.240623Q472.54688 44.240623 471.76562 43.2875Q471.0 42.31875 471.0 39.85Q471.0 37.4125 471.84375 36.35Q472.54688 35.475 473.79688 35.475ZM473.79688 36.834373Q473.5 36.834373 473.26562 37.0375Q473.03125 37.225 472.89062 37.709373Q472.73438 38.35 472.73438 39.865623Q472.73438 41.38125 472.875 41.94375Q473.03125 42.50625 473.26562 42.69375Q473.5 42.88125 473.79688 42.88125Q474.09375 42.88125 474.32812 42.69375Q474.5625 42.50625 474.6875 42.00625Q474.85938 41.38125 474.85938 39.865623Q474.85938 38.35 474.70312 37.7875Q474.5625 37.225 474.32812 37.0375Q474.09375 36.834373 473.79688 36.834373ZM483.57812 42.56875L483.57812 44.1L477.79688 44.1Q477.89062 43.225 478.35938 42.459373Q478.82812 41.678123 480.21875 40.396873Q481.32812 39.365623 481.57812 38.990623Q481.92188 38.475 481.92188 37.975Q481.92188 37.428123 481.625 37.13125Q481.32812 36.834373 480.8125 36.834373Q480.29688 36.834373 479.98438 37.146873Q479.6875 37.459373 479.64062 38.178123L478.0 38.021873Q478.14062 36.6625 478.90625 36.06875Q479.6875 35.475 480.84375 35.475Q482.125 35.475 482.84375 36.1625Q483.57812 36.85 483.57812 37.865623Q483.57812 38.44375 483.35938 38.975Q483.15625 39.490623 482.70312 40.06875Q482.40625 40.44375 481.625 41.1625Q480.84375 41.88125 480.64062 42.115623Q480.4375 42.35 480.29688 42.56875L483.57812 42.56875ZM487.79688 35.475Q489.04688 35.475 489.75 36.365623Q490.57812 37.4125 490.57812 39.865623Q490.57812 42.303123 489.73438 43.365623Q489.04688 44.240623 487.79688 44.240623Q486.54688 44.240623 485.76562 43.2875Q485.0 42.31875 485.0 39.85Q485.0 37.4125 485.84375 36.35Q486.54688 35.475 487.79688 35.475ZM487.79688 36.834373Q487.5 36.834373 487.26562 37.0375Q487.03125 37.225 486.89062 37.709373Q486.73438 38.35 486.73438 39.865623Q486.73438 41.38125 486.875 41.94375Q487.03125 42.50625 487.26562 42.69375Q487.5 42.88125 487.79688 42.88125Q488.09375 42.88125 488.32812 42.69375Q488.5625 42.50625 488.6875 42.00625Q488.85938 41.38125 488.85938 39.865623Q488.85938 38.35 488.70312 37.7875Q488.5625 37.225 488.32812 37.0375Q488.09375 36.834373 487.79688 36.834373ZM492.17188 41.803123L492.17188 40.1625L495.40625 40.1625L495.40625 41.803123L492.17188 41.803123ZM498.79688 35.475Q500.04688 35.475 500.75 36.365623Q501.57812 37.4125 501.57812 39.865623Q501.57812 42.303123 500.73438 43.365623Q500.04688 44.240623 498.79688 44.240623Q497.54688 44.240623 496.76562 43.2875Q496.0 42.31875 496.0 39.85Q496.0 37.4125 496.84375 36.35Q497.54688 35.475 498.79688 35.475ZM498.79688 36.834373Q498.5 36.834373 498.26562 37.0375Q498.03125 37.225 497.89062 37.709373Q497.73438 38.35 497.73438 39.865623Q497.73438 41.38125 497.875 41.94375Q498.03125 42.50625 498.26562 42.69375Q498.5 42.88125 498.79688 42.88125Q499.09375 42.88125 499.32812 42.69375Q499.5625 42.50625 499.6875 42.00625Q499.85938 41.38125 499.85938 39.865623Q499.85938 38.35 499.70312 37.7875Q499.5625 37.225 499.32812 37.0375Q499.09375 36.834373 498.79688 36.834373ZM503.03125 41.896873L504.67188 41.725Q504.75 42.271873 505.09375 42.6Q505.4375 42.928123 505.89062 42.928123Q506.40625 42.928123 506.76562 42.50625Q507.125 42.084373 507.125 41.240623Q507.125 40.459373 506.76562 40.06875Q506.40625 39.6625 505.84375 39.6625Q505.125 39.6625 504.5625 40.2875L503.23438 40.1L504.07812 35.63125L508.4375 35.63125L508.4375 37.1625L505.32812 37.1625L505.0625 38.63125Q505.625 38.35 506.1875 38.35Q507.28125 38.35 508.04688 39.146873Q508.8125 39.94375 508.8125 41.209373Q508.8125 42.271873 508.20312 43.115623Q507.35938 44.240623 505.875 44.240623Q504.6875 44.240623 503.9375 43.615623Q503.1875 42.975 503.03125 41.896873ZM510.17188 41.803123L510.17188 40.1625L513.40625 40.1625L513.40625 41.803123L510.17188 41.803123ZM516.7969 35.475Q518.0469 35.475 518.75 36.365623Q519.5781 37.4125 519.5781 39.865623Q519.5781 42.303123 518.7344 43.365623Q518.0469 44.240623 516.7969 44.240623Q515.5469 44.240623 514.7656 43.2875Q514.0 42.31875 514.0 39.85Q514.0 37.4125 514.84375 36.35Q515.5469 35.475 516.7969 35.475ZM516.7969 36.834373Q516.5 36.834373 516.2656 37.0375Q516.03125 37.225 515.8906 37.709373Q515.7344 38.35 515.7344 39.865623Q515.7344 41.38125 515.875 41.94375Q516.03125 42.50625 516.2656 42.69375Q516.5 42.88125 516.7969 42.88125Q517.09375 42.88125 517.3281 42.69375Q517.5625 42.50625 517.6875 42.00625Q517.8594 41.38125 517.8594 39.865623Q517.8594 38.35 517.7031 37.7875Q517.5625 37.225 517.3281 37.0375Q517.09375 36.834373 516.7969 36.834373ZM525.21875 44.1L523.5781 44.1L523.5781 37.896873Q522.6719 38.740623 521.4531 39.146873L521.4531 37.646873Q522.09375 37.44375 522.84375 36.85Q523.6094 36.25625 523.8906 35.475L525.21875 35.475L525.21875 44.1Z" fill-rule="nonzero"/><path fill="#ea4335" d="M543.5 35.1C543.5 34.547714 543.9477 34.1 544.5 34.1L554.5 34.1C555.0523 34.1 555.5 34.547714 555.5 35.1L555.5 45.1C555.5 45.652287 555.0523 46.1 554.5 46.1L544.5 46.1C543.9477 46.1 543.5 45.652287 543.5 45.1Z" fill-rule="nonzero"/><path fill="#1a1a1a" d="M569.5781 42.56875L569.5781 44.1L563.7969 44.1Q563.8906 43.225 564.3594 42.459373Q564.8281 41.678123 566.21875 40.396873Q567.3281 39.365623 567.5781 38.990623Q567.9219 38.475 567.9219 37.975Q567.9219 37.428123 567.625 37.13125Q567.3281 36.834373 566.8125 36.834373Q566.2969 36.834373 565.9844 37.146873Q565.6875 37.459373 565.6406 38.178123L564.0 38.021873Q564.1406 36.6625 564.90625 36.06875Q565.6875 35.475 566.84375 35.475Q568.125 35.475 568.84375 36.1625Q569.5781 36.85 569.5781 37.865623Q569.5781 38.44375 569.3594 38.975Q569.15625 39.490623 568.7031 40.06875Q568.40625 40.44375 567.625 41.1625Q566.84375 41.88125 566.6406 42.115623Q566.4375 42.35 566.2969 42.56875L569.5781 42.56875ZM573.7969 35.475Q575.0469 35.475 575.75 36.365623Q576.5781 37.4125 576.5781 39.865623Q576.5781 42.303123 575.7344 43.365623Q575.0469 44.240623 573.7969 44.240623Q572.5469 44.240623 571.7656 43.2875Q571.0 42.31875 571.0 39.85Q571.0 37.4125 571.84375 36.35Q572.5469 35.475 573.7969 35.475ZM573.7969 36.834373Q573.5 36.834373 573.2656 37.0375Q573.03125 37.225 572.8906 37.709373Q572.7344 38.35 572.7344 39.865623Q572.7344 41.38125 572.875 41.94375Q573.03125 42.50625 573.2656 42.69375Q573.5 42.88125 573.7969 42.88125Q574.09375 42.88125 574.3281 42.69375Q574.5625 42.50625 574.6875 42.00625Q574.8594 41.38125 574.8594 39.865623Q574.8594 38.35 574.7031 37.7875Q574.5625 37.225 574.3281 37.0375Q574.09375 36.834373 573.7969 36.834373ZM583.5781 42.56875L583.5781 44.1L577.7969 44.1Q577.8906 43.225 578.3594 42.459373Q578.8281 41.678123 580.21875 40.396873Q581.3281 39.365623 581.5781 38.990623Q581.9219 38.475 581.9219 37.975Q581.9219 37.428123 581.625 37.13125Q581.3281 36.834373 580.8125 36.834373Q580.2969 36.834373 579.9844 37.146873Q579.6875 37.459373 579.6406 38.178123L578.0 38.021873Q578.1406 36.6625 578.90625 36.06875Q579.6875 35.475 580.84375 35.475Q582.125 35.475 582.84375 36.1625Q583.5781 36.85 583.5781 37.865623Q583.5781 38.44375 583.3594 38.975Q583.15625 39.490623 582.7031 40.06875Q582.40625 40.44375 581.625 41.1625Q580.84375 41.88125 580.6406 42.115623Q580.4375 42.35 580.2969 42.56875L583.5781 42.56875ZM589.21875 44.1L587.5781 44.1L587.5781 37.896873Q586.6719 38.740623 585.4531 39.146873L585.4531 37.646873Q586.09375 37.44375 586.84375 36.85Q587.6094 36.25625 587.8906 35.475L589.21875 35.475L589.21875 44.1ZM592.1719 41.803123L592.1719 40.1625L595.40625 40.1625L595.40625 41.803123L592.1719 41.803123ZM598.7969 35.475Q600.0469 35.475 600.75 36.365623Q601.5781 37.4125 601.5781 39.865623Q601.5781 42.303123 600.7344 43.365623Q600.0469 44.240623 598.7969 44.240623Q597.5469 44.240623 596.7656 43.2875Q596.0 42.31875 596.0 39.85Q596.0 37.4125 596.84375 36.35Q597.5469 35.475 598.7969 35.475ZM598.7969 36.834373Q598.5 36.834373 598.2656 37.0375Q598.03125 37.225 597.8906 37.709373Q597.7344 38.35 597.7344 39.865623Q597.7344 41.38125 597.875 41.94375Q598.03125 42.50625 598.2656 42.69375Q598.5 42.88125 598.7969 42.88125Q599.09375 42.88125 599.3281 42.69375Q599.5625 42.50625 599.6875 42.00625Q599.8594 41.38125 599.8594 39.865623Q599.8594 38.35 599.7031 37.7875Q599.5625 37.225 599.3281 37.0375Q599.09375 36.834373 598.7969 36.834373ZM603.0156 37.1625L603.0156 35.63125L608.6406 35.63125L608.6406 36.81875Q607.9375 37.50625 607.21875 38.7875Q606.5 40.06875 606.125 41.521873Q605.75 42.959373 605.75 44.1L604.1719 44.1Q604.2031 42.31875 604.8906 40.475Q605.59375 38.615623 606.75 37.1625L603.0156 37.1625ZM610.1719 41.803123L610.1719 40.1625L613.40625 40.1625L613.40625 41.803123L610.1719 41.803123ZM616.7969 35.475Q618.0469 35.475 618.75 36.365623Q619.5781 37.4125 619.5781 39.865623Q619.5781 42.303123 618.7344 43.365623Q618.0469 44.240623 616.7969 44.240623Q615.5469 44.240623 614.7656 43.2875Q614.0 42.31875 614.0 39.85Q614.0 37.4125 614.84375 36.35Q615.5469 35.475 616.7969 35.475ZM616.7969 36.834373Q616.5 36.834373 616.2656 37.0375Q616.03125 37.225 615.8906 37.709373Q615.7344 38.35 615.7344 39.865623Q615.7344 41.38125 615.875 41.94375Q616.03125 42.50625 616.2656 42.69375Q616.5 42.88125 616.7969 42.88125Q617.09375 42.88125 617.3281 42.69375Q617.5625 42.50625 617.6875 42.00625Q617.8594 41.38125 617.8594 39.865623Q617.8594 38.35 617.7031 37.7875Q617.5625 37.225 617.3281 37.0375Q617.09375 36.834373 616.7969 36.834373ZM625.21875 44.1L623.5781 44.1L623.5781 37.896873Q622.6719 38.740623 621.4531 39.146873L621.4531 37.646873Q622.09375 37.44375 622.84375 36.85Q623.6094 36.25625 623.8906 35.475L625.21875 35.475L625.21875 44.1Z" fill-rule="nonzero"/></svg>