<svg version="1.1" viewBox="0.0 0.0 1260.0 655.0" fill="none" stroke="none" stroke-linecap="square" stroke-miterlimit="10" width="1260" height="655" xmlns:xlink="http://www.w3.org/1999/xlink" xmlns="http://www.w3.org/2000/svg"><path fill="#ffffff" d="M0 0L1260.0 0L1260.0 655.0L0 655.0L0 0Z" fill-rule="nonzero"/><path stroke="#cccccc" stroke-width="1.0" stroke-linecap="butt" d="M106.5 39.5L106.5 602.5" fill-rule="nonzero"/><path stroke="#cccccc" stroke-width="1.0" stroke-linecap="butt" d="M408.5 39.5L408.5 602.5" fill-rule="nonzero"/><path stroke="#cccccc" stroke-width="1.0" stroke-linecap="butt" d="M710.5 39.5L710.5 602.5" fill-rule="nonzero"/><path stroke="#cccccc" stroke-width="1.0" stroke-linecap="butt" d="M1013.5 39.5L1013.5 602.5" fill-rule="nonzero"/><clipPath id="id_0"><path d="M80.75 39.75L1227.25 39.75L1227.25 602.25L80.75 602.25L80.75 39.75Z" clip-rule="nonzero"/></clipPath><path stroke="#4285f4" stroke-width="4.0" stroke-linecap="butt" clip-path="url(#id_0)" d="M80.75 252.75L231.87767 463.03125L383.00534 509.4375L458.36212 579.46875L534.54706 587.25L609.4898 593.0625L685.6747 595.125L1227.25 601.3125" fill-rule="nonzero"/><path stroke="#ea4335" stroke-width="4.0" stroke-linecap="butt" clip-path="url(#id_0)" d="M80.75 130.59375L231.87767 334.03125L383.00534 453.5625L458.36212 530.625L534.54706 551.625L609.4898 573.09375L685.6747 588.09375L760.61743 592.5L836.80237 593.4375L1227.25 600.375" fill-rule="nonzero"/><path stroke="#fbbc04" stroke-width="4.0" stroke-linecap="butt" clip-path="url(#id_0)" d="M80.75 485.90625L231.87767 144.09375L383.00534 127.125L458.36212 325.125L534.54706 424.78125L609.4898 502.78125L685.6747 544.96875L760.61743 569.4375L836.80237 579.9375L911.7451 588.0L1227.25 598.5" fill-rule="nonzero"/><path stroke="#34a853" stroke-width="4.0" stroke-linecap="butt" clip-path="url(#id_0)" d="M231.87767 530.34375L383.00534 395.15625L458.36212 230.34375L534.54706 251.0625L609.4898 307.5L685.6747 384.0L760.61743 447.75L836.80237 493.125L911.7451 530.25L987.93005 537.46875L1063.2869 555.46875L1139.4717 576.84375L1227.25 591.9375" fill-rule="nonzero"/><path stroke="#ff6d01" stroke-width="4.0" stroke-linecap="butt" clip-path="url(#id_0)" d="M383.00534 591.28125L458.36212 412.5L534.54706 274.03125L609.4898 263.625L685.6747 313.875L760.61743 386.4375L836.80237 420.375L911.7451 513.84375L987.93005 545.625L1063.2869 564.75L1139.4717 576.9375L1214.4146 582.84375L1227.25 590.0625" fill-rule="nonzero"/><path stroke="#46bdc6" stroke-width="4.0" stroke-linecap="butt" clip-path="url(#id_0)" d="M534.54706 589.5L609.4898 436.875L685.6747 258.84375L760.61743 273.9375L836.80237 305.0625L911.7451 362.34375L987.93005 459.09375L1063.2869 493.96875L1139.4717 532.40625L1214.4146 553.40625L1227.25 566.625" fill-rule="nonzero"/><path stroke="#7baaf7" stroke-width="4.0" stroke-linecap="butt" clip-path="url(#id_0)" d="M760.61743 413.0625L836.80237 296.34375L911.7451 236.8125L987.93005 305.4375L1063.2869 344.53125L1139.4717 459.0L1214.4146 481.40625L1227.25 504.75" fill-rule="nonzero"/><path stroke="#f07b72" stroke-width="4.0" stroke-linecap="butt" clip-path="url(#id_0)" d="M911.7451 458.34375L987.93005 271.875L1063.2869 320.53125L1139.4717 348.65625L1214.4146 402.5625L1227.25 422.25" fill-rule="nonzero"/><path stroke="#fcd04f" stroke-width="4.0" stroke-linecap="butt" clip-path="url(#id_0)" d="M987.93005 574.875L1063.2869 414.1875L1139.4717 202.78125L1214.4146 171.75L1227.25 163.5" fill-rule="nonzero"/><path stroke="#71c287" stroke-width="4.0" stroke-linecap="butt" clip-path="url(#id_0)" d="M1214.4146 513.75L1227.25 464.4375" fill-rule="nonzero"/><path fill="#000000" fill-opacity="0.0" clip-path="url(#id_0)" d="M83.75 252.75C83.75 254.40686 82.40685 255.75 80.75 255.75C79.09315 255.75 77.75 254.40686 77.75 252.75C77.75 251.09314 79.09315 249.75 80.75 249.75C82.40685 249.75 83.75 251.09314 83.75 252.75Z" fill-rule="nonzero"/><path fill="#000000" fill-opacity="0.0" clip-path="url(#id_0)" d="M234.87767 463.03125C234.87767 464.6881 233.53452 466.03125 231.87767 466.03125C230.22081 466.03125 228.87767 464.6881 228.87767 463.03125C228.87767 461.3744 230.22081 460.03125 231.87767 460.03125C233.53452 460.03125 234.87767 461.3744 234.87767 463.03125Z" fill-rule="nonzero"/><path fill="#000000" fill-opacity="0.0" clip-path="url(#id_0)" d="M386.00534 509.4375C386.00534 511.09436 384.66217 512.4375 383.00534 512.4375C381.34848 512.4375 380.00534 511.09436 380.00534 509.4375C380.00534 507.78064 381.34848 506.4375 383.00534 506.4375C384.66217 506.4375 386.00534 507.78064 386.00534 509.4375Z" fill-rule="nonzero"/><path fill="#000000" fill-opacity="0.0" clip-path="url(#id_0)" d="M461.36212 579.46875C461.36212 581.1256 460.01898 582.46875 458.36212 582.46875C456.7053 582.46875 455.36212 581.1256 455.36212 579.46875C455.36212 577.8119 456.7053 576.46875 458.36212 576.46875C460.01898 576.46875 461.36212 577.8119 461.36212 579.46875Z" fill-rule="nonzero"/><path fill="#000000" fill-opacity="0.0" clip-path="url(#id_0)" d="M537.54706 587.25C537.54706 588.90686 536.2039 590.25 534.54706 590.25C532.8902 590.25 531.54706 588.90686 531.54706 587.25C531.54706 585.59314 532.8902 584.25 534.54706 584.25C536.2039 584.25 537.54706 585.59314 537.54706 587.25Z" fill-rule="nonzero"/><path fill="#000000" fill-opacity="0.0" clip-path="url(#id_0)" d="M612.4898 593.0625C612.4898 594.71936 611.14667 596.0625 609.4898 596.0625C607.83295 596.0625 606.4898 594.71936 606.4898 593.0625C606.4898 591.40564 607.83295 590.0625 609.4898 590.0625C611.14667 590.0625 612.4898 591.40564 612.4898 593.0625Z" fill-rule="nonzero"/><path fill="#000000" fill-opacity="0.0" clip-path="url(#id_0)" d="M688.6747 595.125C688.6747 596.78186 687.33154 598.125 685.6747 598.125C684.0178 598.125 682.6747 596.78186 682.6747 595.125C682.6747 593.46814 684.0178 592.125 685.6747 592.125C687.33154 592.125 688.6747 593.46814 688.6747 595.125Z" fill-rule="nonzero"/><path fill="#000000" fill-opacity="0.0" clip-path="url(#id_0)" d="M1230.25 601.3125C1230.25 602.96936 1228.9069 604.3125 1227.25 604.3125C1225.5931 604.3125 1224.25 602.96936 1224.25 601.3125C1224.25 599.65564 1225.5931 598.3125 1227.25 598.3125C1228.9069 598.3125 1230.25 599.65564 1230.25 601.3125Z" fill-rule="nonzero"/><path fill="#000000" fill-opacity="0.0" clip-path="url(#id_0)" d="M83.75 130.59375C83.75 132.25061 82.40685 133.59375 80.75 133.59375C79.09315 133.59375 77.75 132.25061 77.75 130.59375C77.75 128.93689 79.09315 127.59375 80.75 127.59375C82.40685 127.59375 83.75 128.93689 83.75 130.59375Z" fill-rule="nonzero"/><path fill="#000000" fill-opacity="0.0" clip-path="url(#id_0)" d="M234.87767 334.03125C234.87767 335.6881 233.53452 337.03125 231.87767 337.03125C230.22081 337.03125 228.87767 335.6881 228.87767 334.03125C228.87767 332.3744 230.22081 331.03125 231.87767 331.03125C233.53452 331.03125 234.87767 332.3744 234.87767 334.03125Z" fill-rule="nonzero"/><path fill="#000000" fill-opacity="0.0" clip-path="url(#id_0)" d="M386.00534 453.5625C386.00534 455.21936 384.66217 456.5625 383.00534 456.5625C381.34848 456.5625 380.00534 455.21936 380.00534 453.5625C380.00534 451.90564 381.34848 450.5625 383.00534 450.5625C384.66217 450.5625 386.00534 451.90564 386.00534 453.5625Z" fill-rule="nonzero"/><path fill="#000000" fill-opacity="0.0" clip-path="url(#id_0)" d="M461.36212 530.625C461.36212 532.28186 460.01898 533.625 458.36212 533.625C456.7053 533.625 455.36212 532.28186 455.36212 530.625C455.36212 528.96814 456.7053 527.625 458.36212 527.625C460.01898 527.625 461.36212 528.96814 461.36212 530.625Z" fill-rule="nonzero"/><path fill="#000000" fill-opacity="0.0" clip-path="url(#id_0)" d="M537.54706 551.625C537.54706 553.28186 536.2039 554.625 534.54706 554.625C532.8902 554.625 531.54706 553.28186 531.54706 551.625C531.54706 549.96814 532.8902 548.625 534.54706 548.625C536.2039 548.625 537.54706 549.96814 537.54706 551.625Z" fill-rule="nonzero"/><path fill="#000000" fill-opacity="0.0" clip-path="url(#id_0)" d="M612.4898 573.09375C612.4898 574.7506 611.14667 576.09375 609.4898 576.09375C607.83295 576.09375 606.4898 574.7506 606.4898 573.09375C606.4898 571.4369 607.83295 570.09375 609.4898 570.09375C611.14667 570.09375 612.4898 571.4369 612.4898 573.09375Z" fill-rule="nonzero"/><path fill="#000000" fill-opacity="0.0" clip-path="url(#id_0)" d="M688.6747 588.09375C688.6747 589.7506 687.33154 591.09375 685.6747 591.09375C684.0178 591.09375 682.6747 589.7506 682.6747 588.09375C682.6747 586.4369 684.0178 585.09375 685.6747 585.09375C687.33154 585.09375 688.6747 586.4369 688.6747 588.09375Z" fill-rule="nonzero"/><path fill="#000000" fill-opacity="0.0" clip-path="url(#id_0)" d="M763.61743 592.5C763.61743 594.15686 762.2743 595.5 760.61743 595.5C758.96063 595.5 757.61743 594.15686 757.61743 592.5C757.61743 590.84314 758.96063 589.5 760.61743 589.5C762.2743 589.5 763.61743 590.84314 763.61743 592.5Z" fill-rule="nonzero"/><path fill="#000000" fill-opacity="0.0" clip-path="url(#id_0)" d="M839.80237 593.4375C839.80237 595.09436 838.4592 596.4375 836.80237 596.4375C835.1455 596.4375 833.80237 595.09436 833.80237 593.4375C833.80237 591.78064 835.1455 590.4375 836.80237 590.4375C838.4592 590.4375 839.80237 591.78064 839.80237 593.4375Z" fill-rule="nonzero"/><path fill="#000000" fill-opacity="0.0" clip-path="url(#id_0)" d="M1230.25 600.375C1230.25 602.03186 1228.9069 603.375 1227.25 603.375C1225.5931 603.375 1224.25 602.03186 1224.25 600.375C1224.25 598.71814 1225.5931 597.375 1227.25 597.375C1228.9069 597.375 1230.25 598.71814 1230.25 600.375Z" fill-rule="nonzero"/><path fill="#000000" fill-opacity="0.0" clip-path="url(#id_0)" d="M83.75 485.90625C83.75 487.5631 82.40685 488.90625 80.75 488.90625C79.09315 488.90625 77.75 487.5631 77.75 485.90625C77.75 484.2494 79.09315 482.90625 80.75 482.90625C82.40685 482.90625 83.75 484.2494 83.75 485.90625Z" fill-rule="nonzero"/><path fill="#000000" fill-opacity="0.0" clip-path="url(#id_0)" d="M234.87767 144.09375C234.87767 145.75061 233.53452 147.09375 231.87767 147.09375C230.22081 147.09375 228.87767 145.75061 228.87767 144.09375C228.87767 142.43689 230.22081 141.09375 231.87767 141.09375C233.53452 141.09375 234.87767 142.43689 234.87767 144.09375Z" fill-rule="nonzero"/><path fill="#000000" fill-opacity="0.0" clip-path="url(#id_0)" d="M386.00534 127.125C386.00534 128.78186 384.66217 130.125 383.00534 130.125C381.34848 130.125 380.00534 128.78186 380.00534 127.125C380.00534 125.46815 381.34848 124.125 383.00534 124.125C384.66217 124.125 386.00534 125.46815 386.00534 127.125Z" fill-rule="nonzero"/><path fill="#000000" fill-opacity="0.0" clip-path="url(#id_0)" d="M461.36212 325.125C461.36212 326.78186 460.01898 328.125 458.36212 328.125C456.7053 328.125 455.36212 326.78186 455.36212 325.125C455.36212 323.46814 456.7053 322.125 458.36212 322.125C460.01898 322.125 461.36212 323.46814 461.36212 325.125Z" fill-rule="nonzero"/><path fill="#000000" fill-opacity="0.0" clip-path="url(#id_0)" d="M537.54706 424.78125C537.54706 426.4381 536.2039 427.78125 534.54706 427.78125C532.8902 427.78125 531.54706 426.4381 531.54706 424.78125C531.54706 423.1244 532.8902 421.78125 534.54706 421.78125C536.2039 421.78125 537.54706 423.1244 537.54706 424.78125Z" fill-rule="nonzero"/><path fill="#000000" fill-opacity="0.0" clip-path="url(#id_0)" d="M612.4898 502.78125C612.4898 504.4381 611.14667 505.78125 609.4898 505.78125C607.83295 505.78125 606.4898 504.4381 606.4898 502.78125C606.4898 501.1244 607.83295 499.78125 609.4898 499.78125C611.14667 499.78125 612.4898 501.1244 612.4898 502.78125Z" fill-rule="nonzero"/><path fill="#000000" fill-opacity="0.0" clip-path="url(#id_0)" d="M688.6747 544.96875C688.6747 546.6256 687.33154 547.96875 685.6747 547.96875C684.0178 547.96875 682.6747 546.6256 682.6747 544.96875C682.6747 543.3119 684.0178 541.96875 685.6747 541.96875C687.33154 541.96875 688.6747 543.3119 688.6747 544.96875Z" fill-rule="nonzero"/><path fill="#000000" fill-opacity="0.0" clip-path="url(#id_0)" d="M763.61743 569.4375C763.61743 571.09436 762.2743 572.4375 760.61743 572.4375C758.96063 572.4375 757.61743 571.09436 757.61743 569.4375C757.61743 567.78064 758.96063 566.4375 760.61743 566.4375C762.2743 566.4375 763.61743 567.78064 763.61743 569.4375Z" fill-rule="nonzero"/><path fill="#000000" fill-opacity="0.0" clip-path="url(#id_0)" d="M839.80237 579.9375C839.80237 581.59436 838.4592 582.9375 836.80237 582.9375C835.1455 582.9375 833.80237 581.59436 833.80237 579.9375C833.80237 578.28064 835.1455 576.9375 836.80237 576.9375C838.4592 576.9375 839.80237 578.28064 839.80237 579.9375Z" fill-rule="nonzero"/><path fill="#000000" fill-opacity="0.0" clip-path="url(#id_0)" d="M914.7451 588.0C914.7451 589.65686 913.402 591.0 911.7451 591.0C910.08826 591.0 908.7451 589.65686 908.7451 588.0C908.7451 586.34314 910.08826 585.0 911.7451 585.0C913.402 585.0 914.7451 586.34314 914.7451 588.0Z" fill-rule="nonzero"/><path fill="#000000" fill-opacity="0.0" clip-path="url(#id_0)" d="M1230.25 598.5C1230.25 600.15686 1228.9069 601.5 1227.25 601.5C1225.5931 601.5 1224.25 600.15686 1224.25 598.5C1224.25 596.84314 1225.5931 595.5 1227.25 595.5C1228.9069 595.5 1230.25 596.84314 1230.25 598.5Z" fill-rule="nonzero"/><path fill="#000000" fill-opacity="0.0" clip-path="url(#id_0)" d="M234.87767 530.34375C234.87767 532.0006 233.53452 533.34375 231.87767 533.34375C230.22081 533.34375 228.87767 532.0006 228.87767 530.34375C228.87767 528.6869 230.22081 527.34375 231.87767 527.34375C233.53452 527.34375 234.87767 528.6869 234.87767 530.34375Z" fill-rule="nonzero"/><path fill="#000000" fill-opacity="0.0" clip-path="url(#id_0)" d="M386.00534 395.15625C386.00534 396.8131 384.66217 398.15625 383.00534 398.15625C381.34848 398.15625 380.00534 396.8131 380.00534 395.15625C380.00534 393.4994 381.34848 392.15625 383.00534 392.15625C384.66217 392.15625 386.00534 393.4994 386.00534 395.15625Z" fill-rule="nonzero"/><path fill="#000000" fill-opacity="0.0" clip-path="url(#id_0)" d="M461.36212 230.34375C461.36212 232.00061 460.01898 233.34375 458.36212 233.34375C456.7053 233.34375 455.36212 232.00061 455.36212 230.34375C455.36212 228.68689 456.7053 227.34375 458.36212 227.34375C460.01898 227.34375 461.36212 228.68689 461.36212 230.34375Z" fill-rule="nonzero"/><path fill="#000000" fill-opacity="0.0" clip-path="url(#id_0)" d="M537.54706 251.0625C537.54706 252.71936 536.2039 254.0625 534.54706 254.0625C532.8902 254.0625 531.54706 252.71936 531.54706 251.0625C531.54706 249.40564 532.8902 248.0625 534.54706 248.0625C536.2039 248.0625 537.54706 249.40564 537.54706 251.0625Z" fill-rule="nonzero"/><path fill="#000000" fill-opacity="0.0" clip-path="url(#id_0)" d="M612.4898 307.5C612.4898 309.15686 611.14667 310.5 609.4898 310.5C607.83295 310.5 606.4898 309.15686 606.4898 307.5C606.4898 305.84314 607.83295 304.5 609.4898 304.5C611.14667 304.5 612.4898 305.84314 612.4898 307.5Z" fill-rule="nonzero"/><path fill="#000000" fill-opacity="0.0" clip-path="url(#id_0)" d="M688.6747 384.0C688.6747 385.65686 687.33154 387.0 685.6747 387.0C684.0178 387.0 682.6747 385.65686 682.6747 384.0C682.6747 382.34314 684.0178 381.0 685.6747 381.0C687.33154 381.0 688.6747 382.34314 688.6747 384.0Z" fill-rule="nonzero"/><path fill="#000000" fill-opacity="0.0" clip-path="url(#id_0)" d="M763.61743 447.75C763.61743 449.40686 762.2743 450.75 760.61743 450.75C758.96063 450.75 757.61743 449.40686 757.61743 447.75C757.61743 446.09314 758.96063 444.75 760.61743 444.75C762.2743 444.75 763.61743 446.09314 763.61743 447.75Z" fill-rule="nonzero"/><path fill="#000000" fill-opacity="0.0" clip-path="url(#id_0)" d="M839.80237 493.125C839.80237 494.78186 838.4592 496.125 836.80237 496.125C835.1455 496.125 833.80237 494.78186 833.80237 493.125C833.80237 491.46814 835.1455 490.125 836.80237 490.125C838.4592 490.125 839.80237 491.46814 839.80237 493.125Z" fill-rule="nonzero"/><path fill="#000000" fill-opacity="0.0" clip-path="url(#id_0)" d="M914.7451 530.25C914.7451 531.90686 913.402 533.25 911.7451 533.25C910.08826 533.25 908.7451 531.90686 908.7451 530.25C908.7451 528.59314 910.08826 527.25 911.7451 527.25C913.402 527.25 914.7451 528.59314 914.7451 530.25Z" fill-rule="nonzero"/><path fill="#000000" fill-opacity="0.0" clip-path="url(#id_0)" d="M990.93005 537.46875C990.93005 539.1256 989.58685 540.46875 987.93005 540.46875C986.2732 540.46875 984.93005 539.1256 984.93005 537.46875C984.93005 535.8119 986.2732 534.46875 987.93005 534.46875C989.58685 534.46875 990.93005 535.8119 990.93005 537.46875Z" fill-rule="nonzero"/><path fill="#000000" fill-opacity="0.0" clip-path="url(#id_0)" d="M1066.2869 555.46875C1066.2869 557.1256 1064.9437 558.46875 1063.2869 558.46875C1061.63 558.46875 1060.2869 557.1256 1060.2869 555.46875C1060.2869 553.8119 1061.63 552.46875 1063.2869 552.46875C1064.9437 552.46875 1066.2869 553.8119 1066.2869 555.46875Z" fill-rule="nonzero"/><path fill="#000000" fill-opacity="0.0" clip-path="url(#id_0)" d="M1142.4717 576.84375C1142.4717 578.5006 1141.1285 579.84375 1139.4717 579.84375C1137.815 579.84375 1136.4717 578.5006 1136.4717 576.84375C1136.4717 575.1869 1137.815 573.84375 1139.4717 573.84375C1141.1285 573.84375 1142.4717 575.1869 1142.4717 576.84375Z" fill-rule="nonzero"/><path fill="#000000" fill-opacity="0.0" clip-path="url(#id_0)" d="M1230.25 591.9375C1230.25 593.59436 1228.9069 594.9375 1227.25 594.9375C1225.5931 594.9375 1224.25 593.59436 1224.25 591.9375C1224.25 590.28064 1225.5931 588.9375 1227.25 588.9375C1228.9069 588.9375 1230.25 590.28064 1230.25 591.9375Z" fill-rule="nonzero"/><path fill="#000000" fill-opacity="0.0" clip-path="url(#id_0)" d="M386.00534 591.28125C386.00534 592.9381 384.66217 594.28125 383.00534 594.28125C381.34848 594.28125 380.00534 592.9381 380.00534 591.28125C380.00534 589.6244 381.34848 588.28125 383.00534 588.28125C384.66217 588.28125 386.00534 589.6244 386.00534 591.28125Z" fill-rule="nonzero"/><path fill="#000000" fill-opacity="0.0" clip-path="url(#id_0)" d="M461.36212 412.5C461.36212 414.15686 460.01898 415.5 458.36212 415.5C456.7053 415.5 455.36212 414.15686 455.36212 412.5C455.36212 410.84314 456.7053 409.5 458.36212 409.5C460.01898 409.5 461.36212 410.84314 461.36212 412.5Z" fill-rule="nonzero"/><path fill="#000000" fill-opacity="0.0" clip-path="url(#id_0)" d="M537.54706 274.03125C537.54706 275.6881 536.2039 277.03125 534.54706 277.03125C532.8902 277.03125 531.54706 275.6881 531.54706 274.03125C531.54706 272.3744 532.8902 271.03125 534.54706 271.03125C536.2039 271.03125 537.54706 272.3744 537.54706 274.03125Z" fill-rule="nonzero"/><path fill="#000000" fill-opacity="0.0" clip-path="url(#id_0)" d="M612.4898 263.625C612.4898 265.28186 611.14667 266.625 609.4898 266.625C607.83295 266.625 606.4898 265.28186 606.4898 263.625C606.4898 261.96814 607.83295 260.625 609.4898 260.625C611.14667 260.625 612.4898 261.96814 612.4898 263.625Z" fill-rule="nonzero"/><path fill="#000000" fill-opacity="0.0" clip-path="url(#id_0)" d="M688.6747 313.875C688.6747 315.53186 687.33154 316.875 685.6747 316.875C684.0178 316.875 682.6747 315.53186 682.6747 313.875C682.6747 312.21814 684.0178 310.875 685.6747 310.875C687.33154 310.875 688.6747 312.21814 688.6747 313.875Z" fill-rule="nonzero"/><path fill="#000000" fill-opacity="0.0" clip-path="url(#id_0)" d="M763.61743 386.4375C763.61743 388.09436 762.2743 389.4375 760.61743 389.4375C758.96063 389.4375 757.61743 388.09436 757.61743 386.4375C757.61743 384.78064 758.96063 383.4375 760.61743 383.4375C762.2743 383.4375 763.61743 384.78064 763.61743 386.4375Z" fill-rule="nonzero"/><path fill="#000000" fill-opacity="0.0" clip-path="url(#id_0)" d="M839.80237 420.375C839.80237 422.03186 838.4592 423.375 836.80237 423.375C835.1455 423.375 833.80237 422.03186 833.80237 420.375C833.80237 418.71814 835.1455 417.375 836.80237 417.375C838.4592 417.375 839.80237 418.71814 839.80237 420.375Z" fill-rule="nonzero"/><path fill="#000000" fill-opacity="0.0" clip-path="url(#id_0)" d="M914.7451 513.84375C914.7451 515.5006 913.402 516.84375 911.7451 516.84375C910.08826 516.84375 908.7451 515.5006 908.7451 513.84375C908.7451 512.1869 910.08826 510.84375 911.7451 510.84375C913.402 510.84375 914.7451 512.1869 914.7451 513.84375Z" fill-rule="nonzero"/><path fill="#000000" fill-opacity="0.0" clip-path="url(#id_0)" d="M990.93005 545.625C990.93005 547.28186 989.58685 548.625 987.93005 548.625C986.2732 548.625 984.93005 547.28186 984.93005 545.625C984.93005 543.96814 986.2732 542.625 987.93005 542.625C989.58685 542.625 990.93005 543.96814 990.93005 545.625Z" fill-rule="nonzero"/><path fill="#000000" fill-opacity="0.0" clip-path="url(#id_0)" d="M1066.2869 564.75C1066.2869 566.40686 1064.9437 567.75 1063.2869 567.75C1061.63 567.75 1060.2869 566.40686 1060.2869 564.75C1060.2869 563.09314 1061.63 561.75 1063.2869 561.75C1064.9437 561.75 1066.2869 563.09314 1066.2869 564.75Z" fill-rule="nonzero"/><path fill="#000000" fill-opacity="0.0" clip-path="url(#id_0)" d="M1142.4717 576.9375C1142.4717 578.59436 1141.1285 579.9375 1139.4717 579.9375C1137.815 579.9375 1136.4717 578.59436 1136.4717 576.9375C1136.4717 575.28064 1137.815 573.9375 1139.4717 573.9375C1141.1285 573.9375 1142.4717 575.28064 1142.4717 576.9375Z" fill-rule="nonzero"/><path fill="#000000" fill-opacity="0.0" clip-path="url(#id_0)" d="M1217.4146 582.84375C1217.4146 584.5006 1216.0714 585.84375 1214.4146 585.84375C1212.7577 585.84375 1211.4146 584.5006 1211.4146 582.84375C1211.4146 581.1869 1212.7577 579.84375 1214.4146 579.84375C1216.0714 579.84375 1217.4146 581.1869 1217.4146 582.84375Z" fill-rule="nonzero"/><path fill="#000000" fill-opacity="0.0" clip-path="url(#id_0)" d="M1230.25 590.0625C1230.25 591.71936 1228.9069 593.0625 1227.25 593.0625C1225.5931 593.0625 1224.25 591.71936 1224.25 590.0625C1224.25 588.40564 1225.5931 587.0625 1227.25 587.0625C1228.9069 587.0625 1230.25 588.40564 1230.25 590.0625Z" fill-rule="nonzero"/><path fill="#000000" fill-opacity="0.0" clip-path="url(#id_0)" d="M537.54706 589.5C537.54706 591.15686 536.2039 592.5 534.54706 592.5C532.8902 592.5 531.54706 591.15686 531.54706 589.5C531.54706 587.84314 532.8902 586.5 534.54706 586.5C536.2039 586.5 537.54706 587.84314 537.54706 589.5Z" fill-rule="nonzero"/><path fill="#000000" fill-opacity="0.0" clip-path="url(#id_0)" d="M612.4898 436.875C612.4898 438.53186 611.14667 439.875 609.4898 439.875C607.83295 439.875 606.4898 438.53186 606.4898 436.875C606.4898 435.21814 607.83295 433.875 609.4898 433.875C611.14667 433.875 612.4898 435.21814 612.4898 436.875Z" fill-rule="nonzero"/><path fill="#000000" fill-opacity="0.0" clip-path="url(#id_0)" d="M688.6747 258.84375C688.6747 260.5006 687.33154 261.84375 685.6747 261.84375C684.0178 261.84375 682.6747 260.5006 682.6747 258.84375C682.6747 257.1869 684.0178 255.84375 685.6747 255.84375C687.33154 255.84375 688.6747 257.1869 688.6747 258.84375Z" fill-rule="nonzero"/><path fill="#000000" fill-opacity="0.0" clip-path="url(#id_0)" d="M763.61743 273.9375C763.61743 275.59436 762.2743 276.9375 760.61743 276.9375C758.96063 276.9375 757.61743 275.59436 757.61743 273.9375C757.61743 272.28064 758.96063 270.9375 760.61743 270.9375C762.2743 270.9375 763.61743 272.28064 763.61743 273.9375Z" fill-rule="nonzero"/><path fill="#000000" fill-opacity="0.0" clip-path="url(#id_0)" d="M839.80237 305.0625C839.80237 306.71936 838.4592 308.0625 836.80237 308.0625C835.1455 308.0625 833.80237 306.71936 833.80237 305.0625C833.80237 303.40564 835.1455 302.0625 836.80237 302.0625C838.4592 302.0625 839.80237 303.40564 839.80237 305.0625Z" fill-rule="nonzero"/><path fill="#000000" fill-opacity="0.0" clip-path="url(#id_0)" d="M914.7451 362.34375C914.7451 364.0006 913.402 365.34375 911.7451 365.34375C910.08826 365.34375 908.7451 364.0006 908.7451 362.34375C908.7451 360.6869 910.08826 359.34375 911.7451 359.34375C913.402 359.34375 914.7451 360.6869 914.7451 362.34375Z" fill-rule="nonzero"/><path fill="#000000" fill-opacity="0.0" clip-path="url(#id_0)" d="M990.93005 459.09375C990.93005 460.7506 989.58685 462.09375 987.93005 462.09375C986.2732 462.09375 984.93005 460.7506 984.93005 459.09375C984.93005 457.4369 986.2732 456.09375 987.93005 456.09375C989.58685 456.09375 990.93005 457.4369 990.93005 459.09375Z" fill-rule="nonzero"/><path fill="#000000" fill-opacity="0.0" clip-path="url(#id_0)" d="M1066.2869 493.96875C1066.2869 495.6256 1064.9437 496.96875 1063.2869 496.96875C1061.63 496.96875 1060.2869 495.6256 1060.2869 493.96875C1060.2869 492.3119 1061.63 490.96875 1063.2869 490.96875C1064.9437 490.96875 1066.2869 492.3119 1066.2869 493.96875Z" fill-rule="nonzero"/><path fill="#000000" fill-opacity="0.0" clip-path="url(#id_0)" d="M1142.4717 532.40625C1142.4717 534.0631 1141.1285 535.40625 1139.4717 535.40625C1137.815 535.40625 1136.4717 534.0631 1136.4717 532.40625C1136.4717 530.7494 1137.815 529.40625 1139.4717 529.40625C1141.1285 529.40625 1142.4717 530.7494 1142.4717 532.40625Z" fill-rule="nonzero"/><path fill="#000000" fill-opacity="0.0" clip-path="url(#id_0)" d="M1217.4146 553.40625C1217.4146 555.0631 1216.0714 556.40625 1214.4146 556.40625C1212.7577 556.40625 1211.4146 555.0631 1211.4146 553.40625C1211.4146 551.7494 1212.7577 550.40625 1214.4146 550.40625C1216.0714 550.40625 1217.4146 551.7494 1217.4146 553.40625Z" fill-rule="nonzero"/><path fill="#000000" fill-opacity="0.0" clip-path="url(#id_0)" d="M1230.25 566.625C1230.25 568.28186 1228.9069 569.625 1227.25 569.625C1225.5931 569.625 1224.25 568.28186 1224.25 566.625C1224.25 564.96814 1225.5931 563.625 1227.25 563.625C1228.9069 563.625 1230.25 564.96814 1230.25 566.625Z" fill-rule="nonzero"/><path fill="#000000" fill-opacity="0.0" clip-path="url(#id_0)" d="M763.61743 413.0625C763.61743 414.71936 762.2743 416.0625 760.61743 416.0625C758.96063 416.0625 757.61743 414.71936 757.61743 413.0625C757.61743 411.40564 758.96063 410.0625 760.61743 410.0625C762.2743 410.0625 763.61743 411.40564 763.61743 413.0625Z" fill-rule="nonzero"/><path fill="#000000" fill-opacity="0.0" clip-path="url(#id_0)" d="M839.80237 296.34375C839.80237 298.0006 838.4592 299.34375 836.80237 299.34375C835.1455 299.34375 833.80237 298.0006 833.80237 296.34375C833.80237 294.6869 835.1455 293.34375 836.80237 293.34375C838.4592 293.34375 839.80237 294.6869 839.80237 296.34375Z" fill-rule="nonzero"/><path fill="#000000" fill-opacity="0.0" clip-path="url(#id_0)" d="M914.7451 236.8125C914.7451 238.46936 913.402 239.8125 911.7451 239.8125C910.08826 239.8125 908.7451 238.46936 908.7451 236.8125C908.7451 235.15564 910.08826 233.8125 911.7451 233.8125C913.402 233.8125 914.7451 235.15564 914.7451 236.8125Z" fill-rule="nonzero"/><path fill="#000000" fill-opacity="0.0" clip-path="url(#id_0)" d="M990.93005 305.4375C990.93005 307.09436 989.58685 308.4375 987.93005 308.4375C986.2732 308.4375 984.93005 307.09436 984.93005 305.4375C984.93005 303.78064 986.2732 302.4375 987.93005 302.4375C989.58685 302.4375 990.93005 303.78064 990.93005 305.4375Z" fill-rule="nonzero"/><path fill="#000000" fill-opacity="0.0" clip-path="url(#id_0)" d="M1066.2869 344.53125C1066.2869 346.1881 1064.9437 347.53125 1063.2869 347.53125C1061.63 347.53125 1060.2869 346.1881 1060.2869 344.53125C1060.2869 342.8744 1061.63 341.53125 1063.2869 341.53125C1064.9437 341.53125 1066.2869 342.8744 1066.2869 344.53125Z" fill-rule="nonzero"/><path fill="#000000" fill-opacity="0.0" clip-path="url(#id_0)" d="M1142.4717 459.0C1142.4717 460.65686 1141.1285 462.0 1139.4717 462.0C1137.815 462.0 1136.4717 460.65686 1136.4717 459.0C1136.4717 457.34314 1137.815 456.0 1139.4717 456.0C1141.1285 456.0 1142.4717 457.34314 1142.4717 459.0Z" fill-rule="nonzero"/><path fill="#000000" fill-opacity="0.0" clip-path="url(#id_0)" d="M1217.4146 481.40625C1217.4146 483.0631 1216.0714 484.40625 1214.4146 484.40625C1212.7577 484.40625 1211.4146 483.0631 1211.4146 481.40625C1211.4146 479.7494 1212.7577 478.40625 1214.4146 478.40625C1216.0714 478.40625 1217.4146 479.7494 1217.4146 481.40625Z" fill-rule="nonzero"/><path fill="#000000" fill-opacity="0.0" clip-path="url(#id_0)" d="M1230.25 504.75C1230.25 506.40686 1228.9069 507.75 1227.25 507.75C1225.5931 507.75 1224.25 506.40686 1224.25 504.75C1224.25 503.09314 1225.5931 501.75 1227.25 501.75C1228.9069 501.75 1230.25 503.09314 1230.25 504.75Z" fill-rule="nonzero"/><path fill="#000000" fill-opacity="0.0" clip-path="url(#id_0)" d="M914.7451 458.34375C914.7451 460.0006 913.402 461.34375 911.7451 461.34375C910.08826 461.34375 908.7451 460.0006 908.7451 458.34375C908.7451 456.6869 910.08826 455.34375 911.7451 455.34375C913.402 455.34375 914.7451 456.6869 914.7451 458.34375Z" fill-rule="nonzero"/><path fill="#000000" fill-opacity="0.0" clip-path="url(#id_0)" d="M990.93005 271.875C990.93005 273.53186 989.58685 274.875 987.93005 274.875C986.2732 274.875 984.93005 273.53186 984.93005 271.875C984.93005 270.21814 986.2732 268.875 987.93005 268.875C989.58685 268.875 990.93005 270.21814 990.93005 271.875Z" fill-rule="nonzero"/><path fill="#000000" fill-opacity="0.0" clip-path="url(#id_0)" d="M1066.2869 320.53125C1066.2869 322.1881 1064.9437 323.53125 1063.2869 323.53125C1061.63 323.53125 1060.2869 322.1881 1060.2869 320.53125C1060.2869 318.8744 1061.63 317.53125 1063.2869 317.53125C1064.9437 317.53125 1066.2869 318.8744 1066.2869 320.53125Z" fill-rule="nonzero"/><path fill="#000000" fill-opacity="0.0" clip-path="url(#id_0)" d="M1142.4717 348.65625C1142.4717 350.3131 1141.1285 351.65625 1139.4717 351.65625C1137.815 351.65625 1136.4717 350.3131 1136.4717 348.65625C1136.4717 346.9994 1137.815 345.65625 1139.4717 345.65625C1141.1285 345.65625 1142.4717 346.9994 1142.4717 348.65625Z" fill-rule="nonzero"/><path fill="#000000" fill-opacity="0.0" clip-path="url(#id_0)" d="M1217.4146 402.5625C1217.4146 404.21936 1216.0714 405.5625 1214.4146 405.5625C1212.7577 405.5625 1211.4146 404.21936 1211.4146 402.5625C1211.4146 400.90564 1212.7577 399.5625 1214.4146 399.5625C1216.0714 399.5625 1217.4146 400.90564 1217.4146 402.5625Z" fill-rule="nonzero"/><path fill="#000000" fill-opacity="0.0" clip-path="url(#id_0)" d="M1230.25 422.25C1230.25 423.90686 1228.9069 425.25 1227.25 425.25C1225.5931 425.25 1224.25 423.90686 1224.25 422.25C1224.25 420.59314 1225.5931 419.25 1227.25 419.25C1228.9069 419.25 1230.25 420.59314 1230.25 422.25Z" fill-rule="nonzero"/><path fill="#000000" fill-opacity="0.0" clip-path="url(#id_0)" d="M990.93005 574.875C990.93005 576.53186 989.58685 577.875 987.93005 577.875C986.2732 577.875 984.93005 576.53186 984.93005 574.875C984.93005 573.21814 986.2732 571.875 987.93005 571.875C989.58685 571.875 990.93005 573.21814 990.93005 574.875Z" fill-rule="nonzero"/><path fill="#000000" fill-opacity="0.0" clip-path="url(#id_0)" d="M1066.2869 414.1875C1066.2869 415.84436 1064.9437 417.1875 1063.2869 417.1875C1061.63 417.1875 1060.2869 415.84436 1060.2869 414.1875C1060.2869 412.53064 1061.63 411.1875 1063.2869 411.1875C1064.9437 411.1875 1066.2869 412.53064 1066.2869 414.1875Z" fill-rule="nonzero"/><path fill="#000000" fill-opacity="0.0" clip-path="url(#id_0)" d="M1142.4717 202.78125C1142.4717 204.43811 1141.1285 205.78125 1139.4717 205.78125C1137.815 205.78125 1136.4717 204.43811 1136.4717 202.78125C1136.4717 201.12439 1137.815 199.78125 1139.4717 199.78125C1141.1285 199.78125 1142.4717 201.12439 1142.4717 202.78125Z" fill-rule="nonzero"/><path fill="#000000" fill-opacity="0.0" clip-path="url(#id_0)" d="M1217.4146 171.75C1217.4146 173.40686 1216.0714 174.75 1214.4146 174.75C1212.7577 174.75 1211.4146 173.40686 1211.4146 171.75C1211.4146 170.09314 1212.7577 168.75 1214.4146 168.75C1216.0714 168.75 1217.4146 170.09314 1217.4146 171.75Z" fill-rule="nonzero"/><path fill="#000000" fill-opacity="0.0" clip-path="url(#id_0)" d="M1230.25 163.5C1230.25 165.15686 1228.9069 166.5 1227.25 166.5C1225.5931 166.5 1224.25 165.15686 1224.25 163.5C1224.25 161.84314 1225.5931 160.5 1227.25 160.5C1228.9069 160.5 1230.25 161.84314 1230.25 163.5Z" fill-rule="nonzero"/><path fill="#000000" fill-opacity="0.0" clip-path="url(#id_0)" d="M1217.4146 513.75C1217.4146 515.40686 1216.0714 516.75 1214.4146 516.75C1212.7577 516.75 1211.4146 515.40686 1211.4146 513.75C1211.4146 512.09314 1212.7577 510.75 1214.4146 510.75C1216.0714 510.75 1217.4146 512.09314 1217.4146 513.75Z" fill-rule="nonzero"/><path fill="#000000" fill-opacity="0.0" clip-path="url(#id_0)" d="M1230.25 464.4375C1230.25 466.09436 1228.9069 467.4375 1227.25 467.4375C1225.5931 467.4375 1224.25 466.09436 1224.25 464.4375C1224.25 462.78064 1225.5931 461.4375 1227.25 461.4375C1228.9069 461.4375 1230.25 462.78064 1230.25 464.4375Z" fill-rule="nonzero"/><path fill="#000000" d="M40.25 602.0156Q40.25 600.4844 40.5625 599.5625Q40.875 598.625 41.484375 598.125Q42.109375 597.625 43.046875 597.625Q43.734375 597.625 44.25 597.90625Q44.78125 598.1875 45.125 598.71875Q45.46875 599.2344 45.65625 599.9844Q45.84375 600.7344 45.84375 602.0156Q45.84375 603.53125 45.53125 604.4531Q45.234375 605.375 44.609375 605.8906Q44.0 606.3906 43.046875 606.3906Q41.8125 606.3906 41.09375 605.5Q40.25 604.4375 40.25 602.0156ZM41.328125 602.0156Q41.328125 604.125 41.828125 604.8281Q42.328125 605.53125 43.046875 605.53125Q43.78125 605.53125 44.265625 604.8281Q44.765625 604.125 44.765625 602.0156Q44.765625 599.8906 44.265625 599.2031Q43.78125 598.5 43.03125 598.5Q42.3125 598.5 41.875 599.1094Q41.328125 599.8906 41.328125 602.0156ZM47.84375 606.25L47.84375 605.0469L49.046875 605.0469L49.046875 606.25L47.84375 606.25ZM50.25 602.0156Q50.25 600.4844 50.5625 599.5625Q50.875 598.625 51.484375 598.125Q52.109375 597.625 53.046875 597.625Q53.734375 597.625 54.25 597.90625Q54.78125 598.1875 55.125 598.71875Q55.46875 599.2344 55.65625 599.9844Q55.84375 600.7344 55.84375 602.0156Q55.84375 603.53125 55.53125 604.4531Q55.234375 605.375 54.609375 605.8906Q54.0 606.3906 53.046875 606.3906Q51.8125 606.3906 51.09375 605.5Q50.25 604.4375 50.25 602.0156ZM51.328125 602.0156Q51.328125 604.125 51.828125 604.8281Q52.328125 605.53125 53.046875 605.53125Q53.78125 605.53125 54.265625 604.8281Q54.765625 604.125 54.765625 602.0156Q54.765625 599.8906 54.265625 599.2031Q53.78125 598.5 53.03125 598.5Q52.3125 598.5 51.875 599.1094Q51.328125 599.8906 51.328125 602.0156ZM57.25 602.0156Q57.25 600.4844 57.5625 599.5625Q57.875 598.625 58.484375 598.125Q59.109375 597.625 60.046875 597.625Q60.734375 597.625 61.25 597.90625Q61.78125 598.1875 62.125 598.71875Q62.46875 599.2344 62.65625 599.9844Q62.84375 600.7344 62.84375 602.0156Q62.84375 603.53125 62.53125 604.4531Q62.234375 605.375 61.609375 605.8906Q61.0 606.3906 60.046875 606.3906Q58.8125 606.3906 58.09375 605.5Q57.25 604.4375 57.25 602.0156ZM58.328125 602.0156Q58.328125 604.125 58.828125 604.8281Q59.328125 605.53125 60.046875 605.53125Q60.78125 605.53125 61.265625 604.8281Q61.765625 604.125 61.765625 602.0156Q61.765625 599.8906 61.265625 599.2031Q60.78125 598.5 60.03125 598.5Q59.3125 598.5 58.875 599.1094Q58.328125 599.8906 58.328125 602.0156ZM64.453125 599.71875Q64.453125 598.7969 64.90625 598.15625Q65.375 597.5156 66.25 597.5156Q67.0625 597.5156 67.59375 598.09375Q68.125 598.6719 68.125 599.78125Q68.125 600.875 67.578125 601.46875Q67.046875 602.0469 66.265625 602.0469Q65.484375 602.0469 64.96875 601.46875Q64.453125 600.8906 64.453125 599.71875ZM66.28125 598.2344Q65.890625 598.2344 65.625 598.5781Q65.375 598.9219 65.375 599.8281Q65.375 600.65625 65.625 601.0Q65.890625 601.3281 66.28125 601.3281Q66.6875 601.3281 66.9375 600.9844Q67.203125 600.6406 67.203125 599.75Q67.203125 598.90625 66.9375 598.5781Q66.671875 598.2344 66.28125 598.2344ZM66.28125 606.5625L70.984375 597.5156L71.84375 597.5156L67.15625 606.5625L66.28125 606.5625ZM70.0 604.2344Q70.0 603.3125 70.453125 602.6719Q70.921875 602.03125 71.8125 602.03125Q72.625 602.03125 73.15625 602.6094Q73.6875 603.1719 73.6875 604.2969Q73.6875 605.3906 73.140625 605.9844Q72.609375 606.5625 71.8125 606.5625Q71.046875 606.5625 70.515625 605.9844Q70.0 605.40625 70.0 604.2344ZM71.84375 602.75Q71.4375 602.75 71.171875 603.09375Q70.921875 603.4375 70.921875 604.34375Q70.921875 605.15625 71.1875 605.5Q71.453125 605.84375 71.84375 605.84375Q72.234375 605.84375 72.5 605.5Q72.765625 605.15625 72.765625 604.25Q72.765625 603.4219 72.5 603.09375Q72.234375 602.75 71.84375 602.75Z" fill-rule="nonzero"/><path fill="#000000" d="M38.796875 417.73438L38.796875 418.75L33.109375 418.75Q33.109375 418.375 33.234375 418.01562Q33.453125 417.4375 33.921875 416.875Q34.40625 416.3125 35.3125 415.57812Q36.71875 414.42188 37.203125 413.75Q37.703125 413.07812 37.703125 412.48438Q37.703125 411.85938 37.25 411.4375Q36.796875 411.0 36.078125 411.0Q35.3125 411.0 34.859375 411.45312Q34.40625 411.90625 34.390625 412.71875L33.3125 412.60938Q33.421875 411.39062 34.140625 410.76562Q34.875 410.125 36.109375 410.125Q37.34375 410.125 38.0625 410.8125Q38.78125 411.5 38.78125 412.51562Q38.78125 413.03125 38.5625 413.53125Q38.359375 414.01562 37.859375 414.57812Q37.375 415.125 36.25 416.07812Q35.296875 416.875 35.015625 417.17188Q34.75 417.45312 34.578125 417.73438L38.796875 417.73438ZM40.25 414.51562Q40.25 412.98438 40.5625 412.0625Q40.875 411.125 41.484375 410.625Q42.109375 410.125 43.046875 410.125Q43.734375 410.125 44.25 410.40625Q44.78125 410.6875 45.125 411.21875Q45.46875 411.73438 45.65625 412.48438Q45.84375 413.23438 45.84375 414.51562Q45.84375 416.03125 45.53125 416.95312Q45.234375 417.875 44.609375 418.39062Q44.0 418.89062 43.046875 418.89062Q41.8125 418.89062 41.09375 418.0Q40.25 416.9375 40.25 414.51562ZM41.328125 414.51562Q41.328125 416.625 41.828125 417.32812Q42.328125 418.03125 43.046875 418.03125Q43.78125 418.03125 44.265625 417.32812Q44.765625 416.625 44.765625 414.51562Q44.765625 412.39062 44.265625 411.70312Q43.78125 411.0 43.03125 411.0Q42.3125 411.0 41.875 411.60938Q41.328125 412.39062 41.328125 414.51562ZM47.84375 418.75L47.84375 417.54688L49.046875 417.54688L49.046875 418.75L47.84375 418.75ZM50.25 414.51562Q50.25 412.98438 50.5625 412.0625Q50.875 411.125 51.484375 410.625Q52.109375 410.125 53.046875 410.125Q53.734375 410.125 54.25 410.40625Q54.78125 410.6875 55.125 411.21875Q55.46875 411.73438 55.65625 412.48438Q55.84375 413.23438 55.84375 414.51562Q55.84375 416.03125 55.53125 416.95312Q55.234375 417.875 54.609375 418.39062Q54.0 418.89062 53.046875 418.89062Q51.8125 418.89062 51.09375 418.0Q50.25 416.9375 50.25 414.51562ZM51.328125 414.51562Q51.328125 416.625 51.828125 417.32812Q52.328125 418.03125 53.046875 418.03125Q53.78125 418.03125 54.265625 417.32812Q54.765625 416.625 54.765625 414.51562Q54.765625 412.39062 54.265625 411.70312Q53.78125 411.0 53.03125 411.0Q52.3125 411.0 51.875 411.60938Q51.328125 412.39062 51.328125 414.51562ZM57.25 414.51562Q57.25 412.98438 57.5625 412.0625Q57.875 411.125 58.484375 410.625Q59.109375 410.125 60.046875 410.125Q60.734375 410.125 61.25 410.40625Q61.78125 410.6875 62.125 411.21875Q62.46875 411.73438 62.65625 412.48438Q62.84375 413.23438 62.84375 414.51562Q62.84375 416.03125 62.53125 416.95312Q62.234375 417.875 61.609375 418.39062Q61.0 418.89062 60.046875 418.89062Q58.8125 418.89062 58.09375 418.0Q57.25 416.9375 57.25 414.51562ZM58.328125 414.51562Q58.328125 416.625 58.828125 417.32812Q59.328125 418.03125 60.046875 418.03125Q60.78125 418.03125 61.265625 417.32812Q61.765625 416.625 61.765625 414.51562Q61.765625 412.39062 61.265625 411.70312Q60.78125 411.0 60.03125 411.0Q59.3125 411.0 58.875 411.60938Q58.328125 412.39062 58.328125 414.51562ZM64.453125 412.21875Q64.453125 411.29688 64.90625 410.65625Q65.375 410.01562 66.25 410.01562Q67.0625 410.01562 67.59375 410.59375Q68.125 411.17188 68.125 412.28125Q68.125 413.375 67.578125 413.96875Q67.046875 414.54688 66.265625 414.54688Q65.484375 414.54688 64.96875 413.96875Q64.453125 413.39062 64.453125 412.21875ZM66.28125 410.73438Q65.890625 410.73438 65.625 411.07812Q65.375 411.42188 65.375 412.32812Q65.375 413.15625 65.625 413.5Q65.890625 413.82812 66.28125 413.82812Q66.6875 413.82812 66.9375 413.48438Q67.203125 413.14062 67.203125 412.25Q67.203125 411.40625 66.9375 411.07812Q66.671875 410.73438 66.28125 410.73438ZM66.28125 419.0625L70.984375 410.01562L71.84375 410.01562L67.15625 419.0625L66.28125 419.0625ZM70.0 416.73438Q70.0 415.8125 70.453125 415.17188Q70.921875 414.53125 71.8125 414.53125Q72.625 414.53125 73.15625 415.10938Q73.6875 415.67188 73.6875 416.79688Q73.6875 417.89062 73.140625 418.48438Q72.609375 419.0625 71.8125 419.0625Q71.046875 419.0625 70.515625 418.48438Q70.0 417.90625 70.0 416.73438ZM71.84375 415.25Q71.4375 415.25 71.171875 415.59375Q70.921875 415.9375 70.921875 416.84375Q70.921875 417.65625 71.1875 418.0Q71.453125 418.34375 71.84375 418.34375Q72.234375 418.34375 72.5 418.0Q72.765625 417.65625 72.765625 416.75Q72.765625 415.92188 72.5 415.59375Q72.234375 415.25 71.84375 415.25Z" fill-rule="nonzero"/><path fill="#000000" d="M36.625 231.25L36.625 229.1875L32.90625 229.1875L32.90625 228.21875L36.828125 222.65625L37.6875 222.65625L37.6875 228.21875L38.84375 228.21875L38.84375 229.1875L37.6875 229.1875L37.6875 231.25L36.625 231.25ZM36.625 228.21875L36.625 224.35938L33.9375 228.21875L36.625 228.21875ZM40.25 227.01562Q40.25 225.48438 40.5625 224.5625Q40.875 223.625 41.484375 223.125Q42.109375 222.625 43.046875 222.625Q43.734375 222.625 44.25 222.90625Q44.78125 223.1875 45.125 223.71875Q45.46875 224.23438 45.65625 224.98438Q45.84375 225.73438 45.84375 227.01562Q45.84375 228.53125 45.53125 229.45312Q45.234375 230.375 44.609375 230.89062Q44.0 231.39062 43.046875 231.39062Q41.8125 231.39062 41.09375 230.5Q40.25 229.4375 40.25 227.01562ZM41.328125 227.01562Q41.328125 229.125 41.828125 229.82812Q42.328125 230.53125 43.046875 230.53125Q43.78125 230.53125 44.265625 229.82812Q44.765625 229.125 44.765625 227.01562Q44.765625 224.89062 44.265625 224.20312Q43.78125 223.5 43.03125 223.5Q42.3125 223.5 41.875 224.10938Q41.328125 224.89062 41.328125 227.01562ZM47.84375 231.25L47.84375 230.04688L49.046875 230.04688L49.046875 231.25L47.84375 231.25ZM50.25 227.01562Q50.25 225.48438 50.5625 224.5625Q50.875 223.625 51.484375 223.125Q52.109375 222.625 53.046875 222.625Q53.734375 222.625 54.25 222.90625Q54.78125 223.1875 55.125 223.71875Q55.46875 224.23438 55.65625 224.98438Q55.84375 225.73438 55.84375 227.01562Q55.84375 228.53125 55.53125 229.45312Q55.234375 230.375 54.609375 230.89062Q54.0 231.39062 53.046875 231.39062Q51.8125 231.39062 51.09375 230.5Q50.25 229.4375 50.25 227.01562ZM51.328125 227.01562Q51.328125 229.125 51.828125 229.82812Q52.328125 230.53125 53.046875 230.53125Q53.78125 230.53125 54.265625 229.82812Q54.765625 229.125 54.765625 227.01562Q54.765625 224.89062 54.265625 224.20312Q53.78125 223.5 53.03125 223.5Q52.3125 223.5 51.875 224.10938Q51.328125 224.89062 51.328125 227.01562ZM57.25 227.01562Q57.25 225.48438 57.5625 224.5625Q57.875 223.625 58.484375 223.125Q59.109375 222.625 60.046875 222.625Q60.734375 222.625 61.25 222.90625Q61.78125 223.1875 62.125 223.71875Q62.46875 224.23438 62.65625 224.98438Q62.84375 225.73438 62.84375 227.01562Q62.84375 228.53125 62.53125 229.45312Q62.234375 230.375 61.609375 230.89062Q61.0 231.39062 60.046875 231.39062Q58.8125 231.39062 58.09375 230.5Q57.25 229.4375 57.25 227.01562ZM58.328125 227.01562Q58.328125 229.125 58.828125 229.82812Q59.328125 230.53125 60.046875 230.53125Q60.78125 230.53125 61.265625 229.82812Q61.765625 229.125 61.765625 227.01562Q61.765625 224.89062 61.265625 224.20312Q60.78125 223.5 60.03125 223.5Q59.3125 223.5 58.875 224.10938Q58.328125 224.89062 58.328125 227.01562ZM64.453125 224.71875Q64.453125 223.79688 64.90625 223.15625Q65.375 222.51562 66.25 222.51562Q67.0625 222.51562 67.59375 223.09375Q68.125 223.67188 68.125 224.78125Q68.125 225.875 67.578125 226.46875Q67.046875 227.04688 66.265625 227.04688Q65.484375 227.04688 64.96875 226.46875Q64.453125 225.89062 64.453125 224.71875ZM66.28125 223.23438Q65.890625 223.23438 65.625 223.57812Q65.375 223.92188 65.375 224.82812Q65.375 225.65625 65.625 226.0Q65.890625 226.32812 66.28125 226.32812Q66.6875 226.32812 66.9375 225.98438Q67.203125 225.64062 67.203125 224.75Q67.203125 223.90625 66.9375 223.57812Q66.671875 223.23438 66.28125 223.23438ZM66.28125 231.5625L70.984375 222.51562L71.84375 222.51562L67.15625 231.5625L66.28125 231.5625ZM70.0 229.23438Q70.0 228.3125 70.453125 227.67188Q70.921875 227.03125 71.8125 227.03125Q72.625 227.03125 73.15625 227.60938Q73.6875 228.17188 73.6875 229.29688Q73.6875 230.39062 73.140625 230.98438Q72.609375 231.5625 71.8125 231.5625Q71.046875 231.5625 70.515625 230.98438Q70.0 230.40625 70.0 229.23438ZM71.84375 227.75Q71.4375 227.75 71.171875 228.09375Q70.921875 228.4375 70.921875 229.34375Q70.921875 230.15625 71.1875 230.5Q71.453125 230.84375 71.84375 230.84375Q72.234375 230.84375 72.5 230.5Q72.765625 230.15625 72.765625 229.25Q72.765625 228.42188 72.5 228.09375Q72.234375 227.75 71.84375 227.75Z" fill-rule="nonzero"/><path fill="#000000" d="M38.71875 37.265625L37.671875 37.34375Q37.53125 36.71875 37.28125 36.4375Q36.84375 35.984375 36.21875 35.984375Q35.71875 35.984375 35.328125 36.265625Q34.84375 36.640625 34.546875 37.34375Q34.265625 38.03125 34.25 39.3125Q34.625 38.734375 35.171875 38.453125Q35.734375 38.171875 36.34375 38.171875Q37.390625 38.171875 38.125 38.953125Q38.875 39.734375 38.875 40.953125Q38.875 41.765625 38.515625 42.46875Q38.171875 43.15625 37.5625 43.53125Q36.953125 43.890625 36.1875 43.890625Q34.859375 43.890625 34.03125 42.921875Q33.203125 41.953125 33.203125 39.734375Q33.203125 37.234375 34.125 36.109375Q34.921875 35.125 36.28125 35.125Q37.296875 35.125 37.9375 35.703125Q38.59375 36.265625 38.71875 37.265625ZM34.421875 40.96875Q34.421875 41.515625 34.640625 42.015625Q34.875 42.5 35.28125 42.765625Q35.703125 43.03125 36.171875 43.03125Q36.828125 43.03125 37.3125 42.5Q37.796875 41.953125 37.796875 41.03125Q37.796875 40.140625 37.3125 39.625Q36.84375 39.109375 36.125 39.109375Q35.40625 39.109375 34.90625 39.625Q34.421875 40.140625 34.421875 40.96875ZM40.25 39.515625Q40.25 37.984375 40.5625 37.0625Q40.875 36.125 41.484375 35.625Q42.109375 35.125 43.046875 35.125Q43.734375 35.125 44.25 35.40625Q44.78125 35.6875 45.125 36.21875Q45.46875 36.734375 45.65625 37.484375Q45.84375 38.234375 45.84375 39.515625Q45.84375 41.03125 45.53125 41.953125Q45.234375 42.875 44.609375 43.390625Q44.0 43.890625 43.046875 43.890625Q41.8125 43.890625 41.09375 43.0Q40.25 41.9375 40.25 39.515625ZM41.328125 39.515625Q41.328125 41.625 41.828125 42.328125Q42.328125 43.03125 43.046875 43.03125Q43.78125 43.03125 44.265625 42.328125Q44.765625 41.625 44.765625 39.515625Q44.765625 37.390625 44.265625 36.703125Q43.78125 36.0 43.03125 36.0Q42.3125 36.0 41.875 36.609375Q41.328125 37.390625 41.328125 39.515625ZM47.84375 43.75L47.84375 42.546875L49.046875 42.546875L49.046875 43.75L47.84375 43.75ZM50.25 39.515625Q50.25 37.984375 50.5625 37.0625Q50.875 36.125 51.484375 35.625Q52.109375 35.125 53.046875 35.125Q53.734375 35.125 54.25 35.40625Q54.78125 35.6875 55.125 36.21875Q55.46875 36.734375 55.65625 37.484375Q55.84375 38.234375 55.84375 39.515625Q55.84375 41.03125 55.53125 41.953125Q55.234375 42.875 54.609375 43.390625Q54.0 43.890625 53.046875 43.890625Q51.8125 43.890625 51.09375 43.0Q50.25 41.9375 50.25 39.515625ZM51.328125 39.515625Q51.328125 41.625 51.828125 42.328125Q52.328125 43.03125 53.046875 43.03125Q53.78125 43.03125 54.265625 42.328125Q54.765625 41.625 54.765625 39.515625Q54.765625 37.390625 54.265625 36.703125Q53.78125 36.0 53.03125 36.0Q52.3125 36.0 51.875 36.609375Q51.328125 37.390625 51.328125 39.515625ZM57.25 39.515625Q57.25 37.984375 57.5625 37.0625Q57.875 36.125 58.484375 35.625Q59.109375 35.125 60.046875 35.125Q60.734375 35.125 61.25 35.40625Q61.78125 35.6875 62.125 36.21875Q62.46875 36.734375 62.65625 37.484375Q62.84375 38.234375 62.84375 39.515625Q62.84375 41.03125 62.53125 41.953125Q62.234375 42.875 61.609375 43.390625Q61.0 43.890625 60.046875 43.890625Q58.8125 43.890625 58.09375 43.0Q57.25 41.9375 57.25 39.515625ZM58.328125 39.515625Q58.328125 41.625 58.828125 42.328125Q59.328125 43.03125 60.046875 43.03125Q60.78125 43.03125 61.265625 42.328125Q61.765625 41.625 61.765625 39.515625Q61.765625 37.390625 61.265625 36.703125Q60.78125 36.0 60.03125 36.0Q59.3125 36.0 58.875 36.609375Q58.328125 37.390625 58.328125 39.515625ZM64.453125 37.21875Q64.453125 36.296875 64.90625 35.65625Q65.375 35.015625 66.25 35.015625Q67.0625 35.015625 67.59375 35.59375Q68.125 36.171875 68.125 37.28125Q68.125 38.375 67.578125 38.96875Q67.046875 39.546875 66.265625 39.546875Q65.484375 39.546875 64.96875 38.96875Q64.453125 38.390625 64.453125 37.21875ZM66.28125 35.734375Q65.890625 35.734375 65.625 36.078125Q65.375 36.421875 65.375 37.328125Q65.375 38.15625 65.625 38.5Q65.890625 38.828125 66.28125 38.828125Q66.6875 38.828125 66.9375 38.484375Q67.203125 38.140625 67.203125 37.25Q67.203125 36.40625 66.9375 36.078125Q66.671875 35.734375 66.28125 35.734375ZM66.28125 44.0625L70.984375 35.015625L71.84375 35.015625L67.15625 44.0625L66.28125 44.0625ZM70.0 41.734375Q70.0 40.8125 70.453125 40.171875Q70.921875 39.53125 71.8125 39.53125Q72.625 39.53125 73.15625 40.109375Q73.6875 40.671875 73.6875 41.796875Q73.6875 42.890625 73.140625 43.484375Q72.609375 44.0625 71.8125 44.0625Q71.046875 44.0625 70.515625 43.484375Q70.0 42.90625 70.0 41.734375ZM71.84375 40.25Q71.4375 40.25 71.171875 40.59375Q70.921875 40.9375 70.921875 41.84375Q70.921875 42.65625 71.1875 43.0Q71.453125 43.34375 71.84375 43.34375Q72.234375 43.34375 72.5 43.0Q72.765625 42.65625 72.765625 41.75Q72.765625 40.921875 72.5 40.59375Q72.234375 40.25 71.84375 40.25Z" fill-rule="nonzero"/><path fill="#000000" d="M80.053825 618.2344L80.053825 619.25L74.366325 619.25Q74.366325 618.875 74.491325 618.5156Q74.710075 617.9375 75.178825 617.375Q75.6632 616.8125 76.56945 616.0781Q77.9757 614.9219 78.460075 614.25Q78.960075 613.5781 78.960075 612.9844Q78.960075 612.3594 78.50695 611.9375Q78.053825 611.5 77.335075 611.5Q76.56945 611.5 76.116325 611.9531Q75.6632 612.40625 75.647575 613.21875L74.56945 613.1094Q74.678825 611.8906 75.397575 611.2656Q76.13195 610.625 77.366325 610.625Q78.6007 610.625 79.31945 611.3125Q80.0382 612.0 80.0382 613.0156Q80.0382 613.53125 79.81945 614.03125Q79.616325 614.5156 79.116325 615.0781Q78.63195 615.625 77.50695 616.5781Q76.553825 617.375 76.272575 617.6719Q76.00695 617.9531 75.835075 618.2344L80.053825 618.2344ZM81.50695 615.0156Q81.50695 613.4844 81.81945 612.5625Q82.13195 611.625 82.741325 611.125Q83.366325 610.625 84.303825 610.625Q84.991325 610.625 85.50695 610.90625Q86.0382 611.1875 86.38195 611.71875Q86.7257 612.2344 86.9132 612.9844Q87.1007 613.7344 87.1007 615.0156Q87.1007 616.53125 86.7882 617.4531Q86.491325 618.375 85.866325 618.8906Q85.25695 619.3906 84.303825 619.3906Q83.06945 619.3906 82.3507 618.5Q81.50695 617.4375 81.50695 615.0156ZM82.585075 615.0156Q82.585075 617.125 83.085075 617.8281Q83.585075 618.53125 84.303825 618.53125Q85.0382 618.53125 85.522575 617.8281Q86.022575 617.125 86.022575 615.0156Q86.022575 612.8906 85.522575 612.2031Q85.0382 611.5 84.2882 611.5Q83.56945 611.5 83.13195 612.1094Q82.585075 612.8906 82.585075 615.0156ZM92.4757 619.25L91.428825 619.25L91.428825 612.53125Q91.0382 612.8906 90.4132 613.2656Q89.803825 613.625 89.31945 613.7969L89.31945 612.78125Q90.19445 612.3594 90.8507 611.78125Q91.522575 611.1875 91.803825 610.625L92.4757 610.625L92.4757 619.25ZM98.88195 619.25L98.88195 617.1875L95.1632 617.1875L95.1632 616.21875L99.085075 610.65625L99.94445 610.65625L99.94445 616.21875L101.1007 616.21875L101.1007 617.1875L99.94445 617.1875L99.94445 619.25L98.88195 619.25ZM98.88195 616.21875L98.88195 612.3594L96.19445 616.21875L98.88195 616.21875ZM102.38195 616.6719L102.38195 615.6094L105.63195 615.6094L105.63195 616.6719L102.38195 616.6719ZM106.50695 615.0156Q106.50695 613.4844 106.81945 612.5625Q107.13195 611.625 107.741325 611.125Q108.366325 610.625 109.303825 610.625Q109.991325 610.625 110.50695 610.90625Q111.0382 611.1875 111.38195 611.71875Q111.7257 612.2344 111.9132 612.9844Q112.1007 613.7344 112.1007 615.0156Q112.1007 616.53125 111.7882 617.4531Q111.491325 618.375 110.866325 618.8906Q110.25695 619.3906 109.303825 619.3906Q108.06945 619.3906 107.3507 618.5Q106.50695 617.4375 106.50695 615.0156ZM107.585075 615.0156Q107.585075 617.125 108.085075 617.8281Q108.585075 618.53125 109.303825 618.53125Q110.0382 618.53125 110.522575 617.8281Q111.022575 617.125 111.022575 615.0156Q111.022575 612.8906 110.522575 612.2031Q110.0382 611.5 109.2882 611.5Q108.56945 611.5 108.13195 612.1094Q107.585075 612.8906 107.585075 615.0156ZM117.4757 619.25L116.428825 619.25L116.428825 612.53125Q116.0382 612.8906 115.4132 613.2656Q114.803825 613.625 114.31945 613.7969L114.31945 612.78125Q115.19445 612.3594 115.8507 611.78125Q116.522575 611.1875 116.803825 610.625L117.4757 610.625L117.4757 619.25ZM120.38195 616.6719L120.38195 615.6094L123.63195 615.6094L123.63195 616.6719L120.38195 616.6719ZM124.50695 615.0156Q124.50695 613.4844 124.81945 612.5625Q125.13195 611.625 125.741325 611.125Q126.366325 610.625 127.303825 610.625Q127.991325 610.625 128.50696 610.90625Q129.03821 611.1875 129.38196 611.71875Q129.72571 612.2344 129.91321 612.9844Q130.10071 613.7344 130.10071 615.0156Q130.10071 616.53125 129.78821 617.4531Q129.49133 618.375 128.86633 618.8906Q128.25696 619.3906 127.303825 619.3906Q126.06945 619.3906 125.3507 618.5Q124.50695 617.4375 124.50695 615.0156ZM125.585075 615.0156Q125.585075 617.125 126.085075 617.8281Q126.585075 618.53125 127.303825 618.53125Q128.03821 618.53125 128.52258 617.8281Q129.02258 617.125 129.02258 615.0156Q129.02258 612.8906 128.52258 612.2031Q128.03821 611.5 127.2882 611.5Q126.56945 611.5 126.13195 612.1094Q125.585075 612.8906 125.585075 615.0156ZM135.47571 619.25L134.42883 619.25L134.42883 612.53125Q134.03821 612.8906 133.41321 613.2656Q132.80383 613.625 132.31946 613.7969L132.31946 612.78125Q133.19446 612.3594 133.85071 611.78125Q134.52258 611.1875 134.80383 610.625L135.47571 610.625L135.47571 619.25Z" fill-rule="nonzero"/><path fill="#000000" d="M382.30914 618.2344L382.30914 619.25L376.62164 619.25Q376.62164 618.875 376.74664 618.5156Q376.9654 617.9375 377.43414 617.375Q377.91852 616.8125 378.82477 616.0781Q380.23102 614.9219 380.7154 614.25Q381.2154 613.5781 381.2154 612.9844Q381.2154 612.3594 380.76227 611.9375Q380.30914 611.5 379.5904 611.5Q378.82477 611.5 378.37164 611.9531Q377.91852 612.40625 377.9029 613.21875L376.82477 613.1094Q376.93414 611.8906 377.6529 611.2656Q378.38727 610.625 379.62164 610.625Q380.85602 610.625 381.57477 611.3125Q382.29352 612.0 382.29352 613.0156Q382.29352 613.53125 382.07477 614.03125Q381.87164 614.5156 381.37164 615.0781Q380.88727 615.625 379.76227 616.5781Q378.80914 617.375 378.5279 617.6719Q378.26227 617.9531 378.0904 618.2344L382.30914 618.2344ZM383.76227 615.0156Q383.76227 613.4844 384.07477 612.5625Q384.38727 611.625 384.99664 611.125Q385.62164 610.625 386.55914 610.625Q387.24664 610.625 387.76227 610.90625Q388.29352 611.1875 388.63727 611.71875Q388.98102 612.2344 389.16852 612.9844Q389.35602 613.7344 389.35602 615.0156Q389.35602 616.53125 389.04352 617.4531Q388.74664 618.375 388.12164 618.8906Q387.51227 619.3906 386.55914 619.3906Q385.32477 619.3906 384.60602 618.5Q383.76227 617.4375 383.76227 615.0156ZM384.8404 615.0156Q384.8404 617.125 385.3404 617.8281Q385.8404 618.53125 386.55914 618.53125Q387.29352 618.53125 387.7779 617.8281Q388.2779 617.125 388.2779 615.0156Q388.2779 612.8906 387.7779 612.2031Q387.29352 611.5 386.54352 611.5Q385.82477 611.5 385.38727 612.1094Q384.8404 612.8906 384.8404 615.0156ZM394.73102 619.25L393.68414 619.25L393.68414 612.53125Q393.29352 612.8906 392.66852 613.2656Q392.05914 613.625 391.57477 613.7969L391.57477 612.78125Q392.44977 612.3594 393.10602 611.78125Q393.7779 611.1875 394.05914 610.625L394.73102 610.625L394.73102 619.25ZM403.23102 612.7656L402.18414 612.84375Q402.04352 612.21875 401.79352 611.9375Q401.35602 611.4844 400.73102 611.4844Q400.23102 611.4844 399.8404 611.7656Q399.35602 612.1406 399.05914 612.84375Q398.7779 613.53125 398.76227 614.8125Q399.13727 614.2344 399.68414 613.9531Q400.24664 613.6719 400.85602 613.6719Q401.9029 613.6719 402.63727 614.4531Q403.38727 615.2344 403.38727 616.4531Q403.38727 617.2656 403.0279 617.96875Q402.68414 618.65625 402.07477 619.03125Q401.4654 619.3906 400.69977 619.3906Q399.37164 619.3906 398.54352 618.4219Q397.7154 617.4531 397.7154 615.2344Q397.7154 612.7344 398.63727 611.6094Q399.43414 610.625 400.79352 610.625Q401.80914 610.625 402.44977 611.2031Q403.10602 611.7656 403.23102 612.7656ZM398.93414 616.46875Q398.93414 617.0156 399.1529 617.5156Q399.38727 618.0 399.79352 618.2656Q400.2154 618.53125 400.68414 618.53125Q401.3404 618.53125 401.82477 618.0Q402.30914 617.4531 402.30914 616.53125Q402.30914 615.6406 401.82477 615.125Q401.35602 614.6094 400.63727 614.6094Q399.91852 614.6094 399.41852 615.125Q398.93414 615.6406 398.93414 616.46875ZM404.63727 616.6719L404.63727 615.6094L407.88727 615.6094L407.88727 616.6719L404.63727 616.6719ZM408.76227 615.0156Q408.76227 613.4844 409.07477 612.5625Q409.38727 611.625 409.99664 611.125Q410.62164 610.625 411.55914 610.625Q412.24664 610.625 412.76227 610.90625Q413.29352 611.1875 413.63727 611.71875Q413.98102 612.2344 414.16852 612.9844Q414.35602 613.7344 414.35602 615.0156Q414.35602 616.53125 414.04352 617.4531Q413.74664 618.375 413.12164 618.8906Q412.51227 619.3906 411.55914 619.3906Q410.32477 619.3906 409.60602 618.5Q408.76227 617.4375 408.76227 615.0156ZM409.8404 615.0156Q409.8404 617.125 410.3404 617.8281Q410.8404 618.53125 411.55914 618.53125Q412.29352 618.53125 412.7779 617.8281Q413.2779 617.125 413.2779 615.0156Q413.2779 612.8906 412.7779 612.2031Q412.29352 611.5 411.54352 611.5Q410.82477 611.5 410.38727 612.1094Q409.8404 612.8906 409.8404 615.0156ZM419.73102 619.25L418.68414 619.25L418.68414 612.53125Q418.29352 612.8906 417.66852 613.2656Q417.05914 613.625 416.57477 613.7969L416.57477 612.78125Q417.44977 612.3594 418.10602 611.78125Q418.7779 611.1875 419.05914 610.625L419.73102 610.625L419.73102 619.25ZM422.63727 616.6719L422.63727 615.6094L425.88727 615.6094L425.88727 616.6719L422.63727 616.6719ZM426.76227 615.0156Q426.76227 613.4844 427.07477 612.5625Q427.38727 611.625 427.99664 611.125Q428.62164 610.625 429.55914 610.625Q430.24664 610.625 430.76227 610.90625Q431.29352 611.1875 431.63727 611.71875Q431.98102 612.2344 432.16852 612.9844Q432.35602 613.7344 432.35602 615.0156Q432.35602 616.53125 432.04352 617.4531Q431.74664 618.375 431.12164 618.8906Q430.51227 619.3906 429.55914 619.3906Q428.32477 619.3906 427.60602 618.5Q426.76227 617.4375 426.76227 615.0156ZM427.8404 615.0156Q427.8404 617.125 428.3404 617.8281Q428.8404 618.53125 429.55914 618.53125Q430.29352 618.53125 430.7779 617.8281Q431.2779 617.125 431.2779 615.0156Q431.2779 612.8906 430.7779 612.2031Q430.29352 611.5 429.54352 611.5Q428.82477 611.5 428.38727 612.1094Q427.8404 612.8906 427.8404 615.0156ZM437.73102 619.25L436.68414 619.25L436.68414 612.53125Q436.29352 612.8906 435.66852 613.2656Q435.05914 613.625 434.57477 613.7969L434.57477 612.78125Q435.44977 612.3594 436.10602 611.78125Q436.7779 611.1875 437.05914 610.625L437.73102 610.625L437.73102 619.25Z" fill-rule="nonzero"/><path fill="#000000" d="M684.9785 618.2344L684.9785 619.25L679.291 619.25Q679.291 618.875 679.416 618.5156Q679.63477 617.9375 680.1035 617.375Q680.5879 616.8125 681.49414 616.0781Q682.9004 614.9219 683.38477 614.25Q683.88477 613.5781 683.88477 612.9844Q683.88477 612.3594 683.43164 611.9375Q682.9785 611.5 682.25977 611.5Q681.49414 611.5 681.041 611.9531Q680.5879 612.40625 680.57227 613.21875L679.49414 613.1094Q679.6035 611.8906 680.32227 611.2656Q681.05664 610.625 682.291 610.625Q683.5254 610.625 684.24414 611.3125Q684.9629 612.0 684.9629 613.0156Q684.9629 613.53125 684.74414 614.03125Q684.541 614.5156 684.041 615.0781Q683.55664 615.625 682.43164 616.5781Q681.4785 617.375 681.19727 617.6719Q680.93164 617.9531 680.75977 618.2344L684.9785 618.2344ZM686.43164 615.0156Q686.43164 613.4844 686.74414 612.5625Q687.05664 611.625 687.666 611.125Q688.291 610.625 689.2285 610.625Q689.916 610.625 690.43164 610.90625Q690.9629 611.1875 691.30664 611.71875Q691.6504 612.2344 691.8379 612.9844Q692.0254 613.7344 692.0254 615.0156Q692.0254 616.53125 691.7129 617.4531Q691.416 618.375 690.791 618.8906Q690.18164 619.3906 689.2285 619.3906Q687.99414 619.3906 687.2754 618.5Q686.43164 617.4375 686.43164 615.0156ZM687.50977 615.0156Q687.50977 617.125 688.00977 617.8281Q688.50977 618.53125 689.2285 618.53125Q689.9629 618.53125 690.44727 617.8281Q690.94727 617.125 690.94727 615.0156Q690.94727 612.8906 690.44727 612.2031Q689.9629 611.5 689.2129 611.5Q688.49414 611.5 688.05664 612.1094Q687.50977 612.8906 687.50977 615.0156ZM697.4004 619.25L696.3535 619.25L696.3535 612.53125Q695.9629 612.8906 695.3379 613.2656Q694.7285 613.625 694.24414 613.7969L694.24414 612.78125Q695.11914 612.3594 695.7754 611.78125Q696.44727 611.1875 696.7285 610.625L697.4004 610.625L697.4004 619.25ZM702.05664 614.59375Q701.4004 614.34375 701.07227 613.90625Q700.75977 613.4531 700.75977 612.84375Q700.75977 611.90625 701.43164 611.2656Q702.11914 610.625 703.2285 610.625Q704.3535 610.625 705.041 611.28125Q705.7285 611.9375 705.7285 612.875Q705.7285 613.46875 705.416 613.90625Q705.1035 614.34375 704.4629 614.59375Q705.25977 614.84375 705.666 615.4219Q706.07227 616.0 706.07227 616.7969Q706.07227 617.8906 705.291 618.6406Q704.5254 619.3906 703.24414 619.3906Q701.9785 619.3906 701.19727 618.6406Q700.416 617.8906 700.416 616.7656Q700.416 615.9219 700.8379 615.3594Q701.2754 614.7969 702.05664 614.59375ZM701.8379 612.7969Q701.8379 613.40625 702.2285 613.7969Q702.63477 614.1875 703.25977 614.1875Q703.86914 614.1875 704.25977 613.8125Q704.6504 613.4219 704.6504 612.8594Q704.6504 612.28125 704.24414 611.8906Q703.8379 611.4844 703.24414 611.4844Q702.63477 611.4844 702.2285 611.875Q701.8379 612.2656 701.8379 612.7969ZM701.50977 616.7656Q701.50977 617.21875 701.7129 617.6406Q701.93164 618.0625 702.3535 618.2969Q702.7754 618.53125 703.25977 618.53125Q704.00977 618.53125 704.49414 618.0469Q704.99414 617.5625 704.99414 616.8125Q704.99414 616.0469 704.49414 615.5469Q703.99414 615.0469 703.2285 615.0469Q702.4785 615.0469 701.99414 615.5469Q701.50977 616.03125 701.50977 616.7656ZM707.30664 616.6719L707.30664 615.6094L710.55664 615.6094L710.55664 616.6719L707.30664 616.6719ZM711.43164 615.0156Q711.43164 613.4844 711.74414 612.5625Q712.05664 611.625 712.666 611.125Q713.291 610.625 714.2285 610.625Q714.916 610.625 715.43164 610.90625Q715.9629 611.1875 716.30664 611.71875Q716.6504 612.2344 716.8379 612.9844Q717.0254 613.7344 717.0254 615.0156Q717.0254 616.53125 716.7129 617.4531Q716.416 618.375 715.791 618.8906Q715.18164 619.3906 714.2285 619.3906Q712.99414 619.3906 712.2754 618.5Q711.43164 617.4375 711.43164 615.0156ZM712.50977 615.0156Q712.50977 617.125 713.00977 617.8281Q713.50977 618.53125 714.2285 618.53125Q714.9629 618.53125 715.44727 617.8281Q715.94727 617.125 715.94727 615.0156Q715.94727 612.8906 715.44727 612.2031Q714.9629 611.5 714.2129 611.5Q713.49414 611.5 713.05664 612.1094Q712.50977 612.8906 712.50977 615.0156ZM722.4004 619.25L721.3535 619.25L721.3535 612.53125Q720.9629 612.8906 720.3379 613.2656Q719.7285 613.625 719.24414 613.7969L719.24414 612.78125Q720.11914 612.3594 720.7754 611.78125Q721.44727 611.1875 721.7285 610.625L722.4004 610.625L722.4004 619.25ZM725.30664 616.6719L725.30664 615.6094L728.55664 615.6094L728.55664 616.6719L725.30664 616.6719ZM729.43164 615.0156Q729.43164 613.4844 729.74414 612.5625Q730.05664 611.625 730.666 611.125Q731.291 610.625 732.2285 610.625Q732.916 610.625 733.43164 610.90625Q733.9629 611.1875 734.30664 611.71875Q734.6504 612.2344 734.8379 612.9844Q735.0254 613.7344 735.0254 615.0156Q735.0254 616.53125 734.7129 617.4531Q734.416 618.375 733.791 618.8906Q733.18164 619.3906 732.2285 619.3906Q730.99414 619.3906 730.2754 618.5Q729.43164 617.4375 729.43164 615.0156ZM730.50977 615.0156Q730.50977 617.125 731.00977 617.8281Q731.50977 618.53125 732.2285 618.53125Q732.9629 618.53125 733.44727 617.8281Q733.94727 617.125 733.94727 615.0156Q733.94727 612.8906 733.44727 612.2031Q732.9629 611.5 732.2129 611.5Q731.49414 611.5 731.05664 612.1094Q730.50977 612.8906 730.50977 615.0156ZM740.4004 619.25L739.3535 619.25L739.3535 612.53125Q738.9629 612.8906 738.3379 613.2656Q737.7285 613.625 737.24414 613.7969L737.24414 612.78125Q738.11914 612.3594 738.7754 611.78125Q739.44727 611.1875 739.7285 610.625L740.4004 610.625L740.4004 619.25Z" fill-rule="nonzero"/><path fill="#000000" d="M987.2338 618.2344L987.2338 619.25L981.5463 619.25Q981.5463 618.875 981.6713 618.5156Q981.8901 617.9375 982.3588 617.375Q982.8432 616.8125 983.74945 616.0781Q985.1557 614.9219 985.6401 614.25Q986.1401 613.5781 986.1401 612.9844Q986.1401 612.3594 985.68695 611.9375Q985.2338 611.5 984.5151 611.5Q983.74945 611.5 983.2963 611.9531Q982.8432 612.40625 982.8276 613.21875L981.74945 613.1094Q981.8588 611.8906 982.5776 611.2656Q983.31195 610.625 984.5463 610.625Q985.7807 610.625 986.49945 611.3125Q987.2182 612.0 987.2182 613.0156Q987.2182 613.53125 986.99945 614.03125Q986.7963 614.5156 986.2963 615.0781Q985.81195 615.625 984.68695 616.5781Q983.7338 617.375 983.4526 617.6719Q983.18695 617.9531 983.0151 618.2344L987.2338 618.2344ZM988.68695 615.0156Q988.68695 613.4844 988.99945 612.5625Q989.31195 611.625 989.9213 611.125Q990.5463 610.625 991.4838 610.625Q992.1713 610.625 992.68695 610.90625Q993.2182 611.1875 993.56195 611.71875Q993.9057 612.2344 994.0932 612.9844Q994.2807 613.7344 994.2807 615.0156Q994.2807 616.53125 993.9682 617.4531Q993.6713 618.375 993.0463 618.8906Q992.43695 619.3906 991.4838 619.3906Q990.24945 619.3906 989.5307 618.5Q988.68695 617.4375 988.68695 615.0156ZM989.7651 615.0156Q989.7651 617.125 990.2651 617.8281Q990.7651 618.53125 991.4838 618.53125Q992.2182 618.53125 992.7026 617.8281Q993.2026 617.125 993.2026 615.0156Q993.2026 612.8906 992.7026 612.2031Q992.2182 611.5 991.4682 611.5Q990.74945 611.5 990.31195 612.1094Q989.7651 612.8906 989.7651 615.0156ZM1001.2338 618.2344L1001.2338 619.25L995.5463 619.25Q995.5463 618.875 995.6713 618.5156Q995.8901 617.9375 996.3588 617.375Q996.8432 616.8125 997.74945 616.0781Q999.1557 614.9219 999.6401 614.25Q1000.1401 613.5781 1000.1401 612.9844Q1000.1401 612.3594 999.68695 611.9375Q999.2338 611.5 998.5151 611.5Q997.74945 611.5 997.2963 611.9531Q996.8432 612.40625 996.8276 613.21875L995.74945 613.1094Q995.8588 611.8906 996.5776 611.2656Q997.31195 610.625 998.5463 610.625Q999.7807 610.625 1000.49945 611.3125Q1001.2182 612.0 1001.2182 613.0156Q1001.2182 613.53125 1000.99945 614.03125Q1000.7963 614.5156 1000.2963 615.0781Q999.81195 615.625 998.68695 616.5781Q997.7338 617.375 997.4526 617.6719Q997.18695 617.9531 997.0151 618.2344L1001.2338 618.2344ZM1002.68695 615.0156Q1002.68695 613.4844 1002.99945 612.5625Q1003.31195 611.625 1003.9213 611.125Q1004.5463 610.625 1005.4838 610.625Q1006.1713 610.625 1006.68695 610.90625Q1007.2182 611.1875 1007.56195 611.71875Q1007.9057 612.2344 1008.0932 612.9844Q1008.2807 613.7344 1008.2807 615.0156Q1008.2807 616.53125 1007.9682 617.4531Q1007.6713 618.375 1007.0463 618.8906Q1006.43695 619.3906 1005.4838 619.3906Q1004.24945 619.3906 1003.5307 618.5Q1002.68695 617.4375 1002.68695 615.0156ZM1003.7651 615.0156Q1003.7651 617.125 1004.2651 617.8281Q1004.7651 618.53125 1005.4838 618.53125Q1006.2182 618.53125 1006.7026 617.8281Q1007.2026 617.125 1007.2026 615.0156Q1007.2026 612.8906 1006.7026 612.2031Q1006.2182 611.5 1005.4682 611.5Q1004.74945 611.5 1004.31195 612.1094Q1003.7651 612.8906 1003.7651 615.0156ZM1009.56195 616.6719L1009.56195 615.6094L1012.81195 615.6094L1012.81195 616.6719L1009.56195 616.6719ZM1013.68695 615.0156Q1013.68695 613.4844 1013.99945 612.5625Q1014.31195 611.625 1014.9213 611.125Q1015.5463 610.625 1016.4838 610.625Q1017.1713 610.625 1017.68695 610.90625Q1018.2182 611.1875 1018.56195 611.71875Q1018.9057 612.2344 1019.0932 612.9844Q1019.2807 613.7344 1019.2807 615.0156Q1019.2807 616.53125 1018.9682 617.4531Q1018.6713 618.375 1018.0463 618.8906Q1017.43695 619.3906 1016.4838 619.3906Q1015.24945 619.3906 1014.5307 618.5Q1013.68695 617.4375 1013.68695 615.0156ZM1014.7651 615.0156Q1014.7651 617.125 1015.2651 617.8281Q1015.7651 618.53125 1016.4838 618.53125Q1017.2182 618.53125 1017.7026 617.8281Q1018.2026 617.125 1018.2026 615.0156Q1018.2026 612.8906 1017.7026 612.2031Q1017.2182 611.5 1016.4682 611.5Q1015.74945 611.5 1015.31195 612.1094Q1014.7651 612.8906 1014.7651 615.0156ZM1024.6558 619.25L1023.6088 619.25L1023.6088 612.53125Q1023.2182 612.8906 1022.5932 613.2656Q1021.9838 613.625 1021.49945 613.7969L1021.49945 612.78125Q1022.37445 612.3594 1023.0307 611.78125Q1023.7026 611.1875 1023.9838 610.625L1024.6558 610.625L1024.6558 619.25ZM1027.562 616.6719L1027.562 615.6094L1030.812 615.6094L1030.812 616.6719L1027.562 616.6719ZM1031.687 615.0156Q1031.687 613.4844 1031.9995 612.5625Q1032.312 611.625 1032.9214 611.125Q1033.5464 610.625 1034.4839 610.625Q1035.1714 610.625 1035.687 610.90625Q1036.2183 611.1875 1036.562 611.71875Q1036.9058 612.2344 1037.0933 612.9844Q1037.2808 613.7344 1037.2808 615.0156Q1037.2808 616.53125 1036.9683 617.4531Q1036.6714 618.375 1036.0464 618.8906Q1035.437 619.3906 1034.4839 619.3906Q1033.2495 619.3906 1032.5308 618.5Q1031.687 617.4375 1031.687 615.0156ZM1032.7651 615.0156Q1032.7651 617.125 1033.2651 617.8281Q1033.7651 618.53125 1034.4839 618.53125Q1035.2183 618.53125 1035.7026 617.8281Q1036.2026 617.125 1036.2026 615.0156Q1036.2026 612.8906 1035.7026 612.2031Q1035.2183 611.5 1034.4683 611.5Q1033.7495 611.5 1033.312 612.1094Q1032.7651 612.8906 1032.7651 615.0156ZM1042.6558 619.25L1041.6089 619.25L1041.6089 612.53125Q1041.2183 612.8906 1040.5933 613.2656Q1039.9839 613.625 1039.4995 613.7969L1039.4995 612.78125Q1040.3745 612.3594 1041.0308 611.78125Q1041.7026 611.1875 1041.9839 610.625L1042.6558 610.625L1042.6558 619.25Z" fill-rule="nonzero"/><path stroke="#4285f4" stroke-width="4.0" stroke-linecap="butt" d="M373.0 53.75L385.0 53.75" fill-rule="nonzero"/><path stroke="#ffffff" stroke-width="3.0" stroke-linejoin="round" stroke-linecap="round" d="M393.53125 55.546875L395.17188 55.375Q395.25 55.921875 395.59375 56.25Q395.9375 56.578125 396.39062 56.578125Q396.90625 56.578125 397.26562 56.15625Q397.625 55.734375 397.625 54.890625Q397.625 54.109375 397.26562 53.71875Q396.90625 53.3125 396.34375 53.3125Q395.625 53.3125 395.0625 53.9375L393.73438 53.75L394.57812 49.28125L398.9375 49.28125L398.9375 50.8125L395.82812 50.8125L395.5625 52.28125Q396.125 52.0 396.6875 52.0Q397.78125 52.0 398.54688 52.796875Q399.3125 53.59375 399.3125 54.859375Q399.3125 55.921875 398.70312 56.765625Q397.85938 57.890625 396.375 57.890625Q395.1875 57.890625 394.4375 57.265625Q393.6875 56.625 393.53125 55.546875ZM400.85938 57.75L400.85938 56.109375L402.51562 56.109375L402.51562 57.75L400.85938 57.75ZM403.45312 55.46875L405.04688 55.28125Q405.125 55.890625 405.45312 56.21875Q405.79688 56.53125 406.26562 56.53125Q406.78125 56.53125 407.125 56.140625Q407.46875 55.75 407.46875 55.09375Q407.46875 54.484375 407.125 54.125Q406.79688 53.75 406.32812 53.75Q406.0 53.75 405.5625 53.875L405.75 52.53125Q406.42188 52.546875 406.76562 52.25Q407.125 51.9375 407.125 51.421875Q407.125 51.0 406.85938 50.75Q406.60938 50.484375 406.17188 50.484375Q405.75 50.484375 405.45312 50.78125Q405.15625 51.0625 405.09375 51.625L403.57812 51.375Q403.73438 50.59375 404.04688 50.125Q404.375 49.65625 404.9375 49.390625Q405.51562 49.125 406.21875 49.125Q407.4375 49.125 408.17188 49.890625Q408.76562 50.53125 408.76562 51.328125Q408.76562 52.453125 407.53125 53.125Q408.28125 53.296875 408.71875 53.84375Q409.15625 54.390625 409.15625 55.171875Q409.15625 56.296875 408.32812 57.09375Q407.5 57.890625 406.28125 57.890625Q405.10938 57.890625 404.34375 57.21875Q403.57812 56.546875 403.45312 55.46875Z" fill-rule="nonzero"/><path fill="#1a1a1a" d="M393.53125 55.546875L395.17188 55.375Q395.25 55.921875 395.59375 56.25Q395.9375 56.578125 396.39062 56.578125Q396.90625 56.578125 397.26562 56.15625Q397.625 55.734375 397.625 54.890625Q397.625 54.109375 397.26562 53.71875Q396.90625 53.3125 396.34375 53.3125Q395.625 53.3125 395.0625 53.9375L393.73438 53.75L394.57812 49.28125L398.9375 49.28125L398.9375 50.8125L395.82812 50.8125L395.5625 52.28125Q396.125 52.0 396.6875 52.0Q397.78125 52.0 398.54688 52.796875Q399.3125 53.59375 399.3125 54.859375Q399.3125 55.921875 398.70312 56.765625Q397.85938 57.890625 396.375 57.890625Q395.1875 57.890625 394.4375 57.265625Q393.6875 56.625 393.53125 55.546875ZM400.85938 57.75L400.85938 56.109375L402.51562 56.109375L402.51562 57.75L400.85938 57.75ZM403.45312 55.46875L405.04688 55.28125Q405.125 55.890625 405.45312 56.21875Q405.79688 56.53125 406.26562 56.53125Q406.78125 56.53125 407.125 56.140625Q407.46875 55.75 407.46875 55.09375Q407.46875 54.484375 407.125 54.125Q406.79688 53.75 406.32812 53.75Q406.0 53.75 405.5625 53.875L405.75 52.53125Q406.42188 52.546875 406.76562 52.25Q407.125 51.9375 407.125 51.421875Q407.125 51.0 406.85938 50.75Q406.60938 50.484375 406.17188 50.484375Q405.75 50.484375 405.45312 50.78125Q405.15625 51.0625 405.09375 51.625L403.57812 51.375Q403.73438 50.59375 404.04688 50.125Q404.375 49.65625 404.9375 49.390625Q405.51562 49.125 406.21875 49.125Q407.4375 49.125 408.17188 49.890625Q408.76562 50.53125 408.76562 51.328125Q408.76562 52.453125 407.53125 53.125Q408.28125 53.296875 408.71875 53.84375Q409.15625 54.390625 409.15625 55.171875Q409.15625 56.296875 408.32812 57.09375Q407.5 57.890625 406.28125 57.890625Q405.10938 57.890625 404.34375 57.21875Q403.57812 56.546875 403.45312 55.46875Z" fill-rule="nonzero"/><path stroke="#ea4335" stroke-width="4.0" stroke-linecap="butt" d="M426.0 53.75L438.0 53.75" fill-rule="nonzero"/><path stroke="#ffffff" stroke-width="3.0" stroke-linejoin="round" stroke-linecap="round" d="M446.53125 55.546875L448.17188 55.375Q448.25 55.921875 448.59375 56.25Q448.9375 56.578125 449.39062 56.578125Q449.90625 56.578125 450.26562 56.15625Q450.625 55.734375 450.625 54.890625Q450.625 54.109375 450.26562 53.71875Q449.90625 53.3125 449.34375 53.3125Q448.625 53.3125 448.0625 53.9375L446.73438 53.75L447.57812 49.28125L451.9375 49.28125L451.9375 50.8125L448.82812 50.8125L448.5625 52.28125Q449.125 52.0 449.6875 52.0Q450.78125 52.0 451.54688 52.796875Q452.3125 53.59375 452.3125 54.859375Q452.3125 55.921875 451.70312 56.765625Q450.85938 57.890625 449.375 57.890625Q448.1875 57.890625 447.4375 57.265625Q446.6875 56.625 446.53125 55.546875ZM453.85938 57.75L453.85938 56.109375L455.51562 56.109375L455.51562 57.75L453.85938 57.75ZM459.73438 57.75L459.73438 56.015625L456.21875 56.015625L456.21875 54.578125L459.95312 49.125L461.32812 49.125L461.32812 54.578125L462.40625 54.578125L462.40625 56.015625L461.32812 56.015625L461.32812 57.75L459.73438 57.75ZM459.73438 54.578125L459.73438 51.640625L457.76562 54.578125L459.73438 54.578125Z" fill-rule="nonzero"/><path fill="#1a1a1a" d="M446.53125 55.546875L448.17188 55.375Q448.25 55.921875 448.59375 56.25Q448.9375 56.578125 449.39062 56.578125Q449.90625 56.578125 450.26562 56.15625Q450.625 55.734375 450.625 54.890625Q450.625 54.109375 450.26562 53.71875Q449.90625 53.3125 449.34375 53.3125Q448.625 53.3125 448.0625 53.9375L446.73438 53.75L447.57812 49.28125L451.9375 49.28125L451.9375 50.8125L448.82812 50.8125L448.5625 52.28125Q449.125 52.0 449.6875 52.0Q450.78125 52.0 451.54688 52.796875Q452.3125 53.59375 452.3125 54.859375Q452.3125 55.921875 451.70312 56.765625Q450.85938 57.890625 449.375 57.890625Q448.1875 57.890625 447.4375 57.265625Q446.6875 56.625 446.53125 55.546875ZM453.85938 57.75L453.85938 56.109375L455.51562 56.109375L455.51562 57.75L453.85938 57.75ZM459.73438 57.75L459.73438 56.015625L456.21875 56.015625L456.21875 54.578125L459.95312 49.125L461.32812 49.125L461.32812 54.578125L462.40625 54.578125L462.40625 56.015625L461.32812 56.015625L461.32812 57.75L459.73438 57.75ZM459.73438 54.578125L459.73438 51.640625L457.76562 54.578125L459.73438 54.578125Z" fill-rule="nonzero"/><path stroke="#fbbc04" stroke-width="4.0" stroke-linecap="butt" d="M479.0 53.75L491.0 53.75" fill-rule="nonzero"/><path stroke="#ffffff" stroke-width="3.0" stroke-linejoin="round" stroke-linecap="round" d="M499.53125 55.546875L501.17188 55.375Q501.25 55.921875 501.59375 56.25Q501.9375 56.578125 502.39062 56.578125Q502.90625 56.578125 503.26562 56.15625Q503.625 55.734375 503.625 54.890625Q503.625 54.109375 503.26562 53.71875Q502.90625 53.3125 502.34375 53.3125Q501.625 53.3125 501.0625 53.9375L499.73438 53.75L500.57812 49.28125L504.9375 49.28125L504.9375 50.8125L501.82812 50.8125L501.5625 52.28125Q502.125 52.0 502.6875 52.0Q503.78125 52.0 504.54688 52.796875Q505.3125 53.59375 505.3125 54.859375Q505.3125 55.921875 504.70312 56.765625Q503.85938 57.890625 502.375 57.890625Q501.1875 57.890625 500.4375 57.265625Q499.6875 56.625 499.53125 55.546875ZM506.85938 57.75L506.85938 56.109375L508.51562 56.109375L508.51562 57.75L506.85938 57.75ZM509.53125 55.546875L511.17188 55.375Q511.25 55.921875 511.59375 56.25Q511.9375 56.578125 512.3906 56.578125Q512.90625 56.578125 513.2656 56.15625Q513.625 55.734375 513.625 54.890625Q513.625 54.109375 513.2656 53.71875Q512.90625 53.3125 512.34375 53.3125Q511.625 53.3125 511.0625 53.9375L509.73438 53.75L510.57812 49.28125L514.9375 49.28125L514.9375 50.8125L511.82812 50.8125L511.5625 52.28125Q512.125 52.0 512.6875 52.0Q513.78125 52.0 514.5469 52.796875Q515.3125 53.59375 515.3125 54.859375Q515.3125 55.921875 514.7031 56.765625Q513.8594 57.890625 512.375 57.890625Q511.1875 57.890625 510.4375 57.265625Q509.6875 56.625 509.53125 55.546875Z" fill-rule="nonzero"/><path fill="#1a1a1a" d="M499.53125 55.546875L501.17188 55.375Q501.25 55.921875 501.59375 56.25Q501.9375 56.578125 502.39062 56.578125Q502.90625 56.578125 503.26562 56.15625Q503.625 55.734375 503.625 54.890625Q503.625 54.109375 503.26562 53.71875Q502.90625 53.3125 502.34375 53.3125Q501.625 53.3125 501.0625 53.9375L499.73438 53.75L500.57812 49.28125L504.9375 49.28125L504.9375 50.8125L501.82812 50.8125L501.5625 52.28125Q502.125 52.0 502.6875 52.0Q503.78125 52.0 504.54688 52.796875Q505.3125 53.59375 505.3125 54.859375Q505.3125 55.921875 504.70312 56.765625Q503.85938 57.890625 502.375 57.890625Q501.1875 57.890625 500.4375 57.265625Q499.6875 56.625 499.53125 55.546875ZM506.85938 57.75L506.85938 56.109375L508.51562 56.109375L508.51562 57.75L506.85938 57.75ZM509.53125 55.546875L511.17188 55.375Q511.25 55.921875 511.59375 56.25Q511.9375 56.578125 512.3906 56.578125Q512.90625 56.578125 513.2656 56.15625Q513.625 55.734375 513.625 54.890625Q513.625 54.109375 513.2656 53.71875Q512.90625 53.3125 512.34375 53.3125Q511.625 53.3125 511.0625 53.9375L509.73438 53.75L510.57812 49.28125L514.9375 49.28125L514.9375 50.8125L511.82812 50.8125L511.5625 52.28125Q512.125 52.0 512.6875 52.0Q513.78125 52.0 514.5469 52.796875Q515.3125 53.59375 515.3125 54.859375Q515.3125 55.921875 514.7031 56.765625Q513.8594 57.890625 512.375 57.890625Q511.1875 57.890625 510.4375 57.265625Q509.6875 56.625 509.53125 55.546875Z" fill-rule="nonzero"/><path stroke="#34a853" stroke-width="4.0" stroke-linecap="butt" d="M532.0 53.75L544.0 53.75" fill-rule="nonzero"/><path stroke="#ffffff" stroke-width="3.0" stroke-linejoin="round" stroke-linecap="round" d="M552.53125 55.546875L554.1719 55.375Q554.25 55.921875 554.59375 56.25Q554.9375 56.578125 555.3906 56.578125Q555.90625 56.578125 556.2656 56.15625Q556.625 55.734375 556.625 54.890625Q556.625 54.109375 556.2656 53.71875Q555.90625 53.3125 555.34375 53.3125Q554.625 53.3125 554.0625 53.9375L552.7344 53.75L553.5781 49.28125L557.9375 49.28125L557.9375 50.8125L554.8281 50.8125L554.5625 52.28125Q555.125 52.0 555.6875 52.0Q556.78125 52.0 557.5469 52.796875Q558.3125 53.59375 558.3125 54.859375Q558.3125 55.921875 557.7031 56.765625Q556.8594 57.890625 555.375 57.890625Q554.1875 57.890625 553.4375 57.265625Q552.6875 56.625 552.53125 55.546875ZM559.8594 57.75L559.8594 56.109375L561.5156 56.109375L561.5156 57.75L559.8594 57.75ZM568.09375 51.265625L566.5 51.4375Q566.4375 50.953125 566.1875 50.71875Q565.9375 50.484375 565.5469 50.484375Q565.03125 50.484375 564.6719 50.953125Q564.3125 51.421875 564.21875 52.890625Q564.8281 52.171875 565.75 52.171875Q566.78125 52.171875 567.5156 52.953125Q568.25 53.734375 568.25 54.984375Q568.25 56.296875 567.46875 57.09375Q566.7031 57.890625 565.4844 57.890625Q564.1875 57.890625 563.34375 56.890625Q562.5156 55.875 562.5156 53.578125Q562.5156 51.203125 563.375 50.171875Q564.25 49.125 565.65625 49.125Q566.625 49.125 567.2656 49.671875Q567.90625 50.21875 568.09375 51.265625ZM564.3594 54.859375Q564.3594 55.65625 564.71875 56.09375Q565.09375 56.53125 565.5625 56.53125Q566.03125 56.53125 566.3281 56.171875Q566.6406 55.8125 566.6406 55.0Q566.6406 54.15625 566.3125 53.78125Q565.9844 53.390625 565.4844 53.390625Q565.0156 53.390625 564.6875 53.765625Q564.3594 54.125 564.3594 54.859375Z" fill-rule="nonzero"/><path fill="#1a1a1a" d="M552.53125 55.546875L554.1719 55.375Q554.25 55.921875 554.59375 56.25Q554.9375 56.578125 555.3906 56.578125Q555.90625 56.578125 556.2656 56.15625Q556.625 55.734375 556.625 54.890625Q556.625 54.109375 556.2656 53.71875Q555.90625 53.3125 555.34375 53.3125Q554.625 53.3125 554.0625 53.9375L552.7344 53.75L553.5781 49.28125L557.9375 49.28125L557.9375 50.8125L554.8281 50.8125L554.5625 52.28125Q555.125 52.0 555.6875 52.0Q556.78125 52.0 557.5469 52.796875Q558.3125 53.59375 558.3125 54.859375Q558.3125 55.921875 557.7031 56.765625Q556.8594 57.890625 555.375 57.890625Q554.1875 57.890625 553.4375 57.265625Q552.6875 56.625 552.53125 55.546875ZM559.8594 57.75L559.8594 56.109375L561.5156 56.109375L561.5156 57.75L559.8594 57.75ZM568.09375 51.265625L566.5 51.4375Q566.4375 50.953125 566.1875 50.71875Q565.9375 50.484375 565.5469 50.484375Q565.03125 50.484375 564.6719 50.953125Q564.3125 51.421875 564.21875 52.890625Q564.8281 52.171875 565.75 52.171875Q566.78125 52.171875 567.5156 52.953125Q568.25 53.734375 568.25 54.984375Q568.25 56.296875 567.46875 57.09375Q566.7031 57.890625 565.4844 57.890625Q564.1875 57.890625 563.34375 56.890625Q562.5156 55.875 562.5156 53.578125Q562.5156 51.203125 563.375 50.171875Q564.25 49.125 565.65625 49.125Q566.625 49.125 567.2656 49.671875Q567.90625 50.21875 568.09375 51.265625ZM564.3594 54.859375Q564.3594 55.65625 564.71875 56.09375Q565.09375 56.53125 565.5625 56.53125Q566.03125 56.53125 566.3281 56.171875Q566.6406 55.8125 566.6406 55.0Q566.6406 54.15625 566.3125 53.78125Q565.9844 53.390625 565.4844 53.390625Q565.0156 53.390625 564.6875 53.765625Q564.3594 54.125 564.3594 54.859375Z" fill-rule="nonzero"/><path stroke="#ff6d01" stroke-width="4.0" stroke-linecap="butt" d="M585.0 53.75L597.0 53.75" fill-rule="nonzero"/><path stroke="#ffffff" stroke-width="3.0" stroke-linejoin="round" stroke-linecap="round" d="M605.5156 50.8125L605.5156 49.28125L611.1406 49.28125L611.1406 50.46875Q610.4375 51.15625 609.71875 52.4375Q609.0 53.71875 608.625 55.171875Q608.25 56.609375 608.25 57.75L606.6719 57.75Q606.7031 55.96875 607.3906 54.125Q608.09375 52.265625 609.25 50.8125L605.5156 50.8125ZM612.8594 57.75L612.8594 56.109375L614.5156 56.109375L614.5156 57.75L612.8594 57.75ZM618.2969 49.125Q619.5469 49.125 620.25 50.015625Q621.0781 51.0625 621.0781 53.515625Q621.0781 55.953125 620.2344 57.015625Q619.5469 57.890625 618.2969 57.890625Q617.0469 57.890625 616.2656 56.9375Q615.5 55.96875 615.5 53.5Q615.5 51.0625 616.34375 50.0Q617.0469 49.125 618.2969 49.125ZM618.2969 50.484375Q618.0 50.484375 617.7656 50.6875Q617.53125 50.875 617.3906 51.359375Q617.2344 52.0 617.2344 53.515625Q617.2344 55.03125 617.375 55.59375Q617.53125 56.15625 617.7656 56.34375Q618.0 56.53125 618.2969 56.53125Q618.59375 56.53125 618.8281 56.34375Q619.0625 56.15625 619.1875 55.65625Q619.3594 55.03125 619.3594 53.515625Q619.3594 52.0 619.2031 51.4375Q619.0625 50.875 618.8281 50.6875Q618.59375 50.484375 618.2969 50.484375Z" fill-rule="nonzero"/><path fill="#1a1a1a" d="M605.5156 50.8125L605.5156 49.28125L611.1406 49.28125L611.1406 50.46875Q610.4375 51.15625 609.71875 52.4375Q609.0 53.71875 608.625 55.171875Q608.25 56.609375 608.25 57.75L606.6719 57.75Q606.7031 55.96875 607.3906 54.125Q608.09375 52.265625 609.25 50.8125L605.5156 50.8125ZM612.8594 57.75L612.8594 56.109375L614.5156 56.109375L614.5156 57.75L612.8594 57.75ZM618.2969 49.125Q619.5469 49.125 620.25 50.015625Q621.0781 51.0625 621.0781 53.515625Q621.0781 55.953125 620.2344 57.015625Q619.5469 57.890625 618.2969 57.890625Q617.0469 57.890625 616.2656 56.9375Q615.5 55.96875 615.5 53.5Q615.5 51.0625 616.34375 50.0Q617.0469 49.125 618.2969 49.125ZM618.2969 50.484375Q618.0 50.484375 617.7656 50.6875Q617.53125 50.875 617.3906 51.359375Q617.2344 52.0 617.2344 53.515625Q617.2344 55.03125 617.375 55.59375Q617.53125 56.15625 617.7656 56.34375Q618.0 56.53125 618.2969 56.53125Q618.59375 56.53125 618.8281 56.34375Q619.0625 56.15625 619.1875 55.65625Q619.3594 55.03125 619.3594 53.515625Q619.3594 52.0 619.2031 51.4375Q619.0625 50.875 618.8281 50.6875Q618.59375 50.484375 618.2969 50.484375Z" fill-rule="nonzero"/><path stroke="#46bdc6" stroke-width="4.0" stroke-linecap="butt" d="M638.0 53.75L650.0 53.75" fill-rule="nonzero"/><path stroke="#ffffff" stroke-width="3.0" stroke-linejoin="round" stroke-linecap="round" d="M658.5156 50.8125L658.5156 49.28125L664.1406 49.28125L664.1406 50.46875Q663.4375 51.15625 662.71875 52.4375Q662.0 53.71875 661.625 55.171875Q661.25 56.609375 661.25 57.75L659.6719 57.75Q659.7031 55.96875 660.3906 54.125Q661.09375 52.265625 662.25 50.8125L658.5156 50.8125ZM665.8594 57.75L665.8594 56.109375L667.5156 56.109375L667.5156 57.75L665.8594 57.75ZM672.71875 57.75L671.0781 57.75L671.0781 51.546875Q670.1719 52.390625 668.9531 52.796875L668.9531 51.296875Q669.59375 51.09375 670.34375 50.5Q671.1094 49.90625 671.3906 49.125L672.71875 49.125L672.71875 57.75Z" fill-rule="nonzero"/><path fill="#1a1a1a" d="M658.5156 50.8125L658.5156 49.28125L664.1406 49.28125L664.1406 50.46875Q663.4375 51.15625 662.71875 52.4375Q662.0 53.71875 661.625 55.171875Q661.25 56.609375 661.25 57.75L659.6719 57.75Q659.7031 55.96875 660.3906 54.125Q661.09375 52.265625 662.25 50.8125L658.5156 50.8125ZM665.8594 57.75L665.8594 56.109375L667.5156 56.109375L667.5156 57.75L665.8594 57.75ZM672.71875 57.75L671.0781 57.75L671.0781 51.546875Q670.1719 52.390625 668.9531 52.796875L668.9531 51.296875Q669.59375 51.09375 670.34375 50.5Q671.1094 49.90625 671.3906 49.125L672.71875 49.125L672.71875 57.75Z" fill-rule="nonzero"/><path stroke="#7baaf7" stroke-width="4.0" stroke-linecap="butt" d="M691.0 53.75L703.0 53.75" fill-rule="nonzero"/><path stroke="#ffffff" stroke-width="3.0" stroke-linejoin="round" stroke-linecap="round" d="M711.5156 50.8125L711.5156 49.28125L717.1406 49.28125L717.1406 50.46875Q716.4375 51.15625 715.71875 52.4375Q715.0 53.71875 714.625 55.171875Q714.25 56.609375 714.25 57.75L712.6719 57.75Q712.7031 55.96875 713.3906 54.125Q714.09375 52.265625 715.25 50.8125L711.5156 50.8125ZM718.8594 57.75L718.8594 56.109375L720.5156 56.109375L720.5156 57.75L718.8594 57.75ZM727.0781 56.21875L727.0781 57.75L721.2969 57.75Q721.3906 56.875 721.8594 56.109375Q722.3281 55.328125 723.71875 54.046875Q724.8281 53.015625 725.0781 52.640625Q725.4219 52.125 725.4219 51.625Q725.4219 51.078125 725.125 50.78125Q724.8281 50.484375 724.3125 50.484375Q723.7969 50.484375 723.4844 50.796875Q723.1875 51.109375 723.1406 51.828125L721.5 51.671875Q721.6406 50.3125 722.40625 49.71875Q723.1875 49.125 724.34375 49.125Q725.625 49.125 726.34375 49.8125Q727.0781 50.5 727.0781 51.515625Q727.0781 52.09375 726.8594 52.625Q726.65625 53.140625 726.2031 53.71875Q725.90625 54.09375 725.125 54.8125Q724.34375 55.53125 724.1406 55.765625Q723.9375 56.0 723.7969 56.21875L727.0781 56.21875Z" fill-rule="nonzero"/><path fill="#1a1a1a" d="M711.5156 50.8125L711.5156 49.28125L717.1406 49.28125L717.1406 50.46875Q716.4375 51.15625 715.71875 52.4375Q715.0 53.71875 714.625 55.171875Q714.25 56.609375 714.25 57.75L712.6719 57.75Q712.7031 55.96875 713.3906 54.125Q714.09375 52.265625 715.25 50.8125L711.5156 50.8125ZM718.8594 57.75L718.8594 56.109375L720.5156 56.109375L720.5156 57.75L718.8594 57.75ZM727.0781 56.21875L727.0781 57.75L721.2969 57.75Q721.3906 56.875 721.8594 56.109375Q722.3281 55.328125 723.71875 54.046875Q724.8281 53.015625 725.0781 52.640625Q725.4219 52.125 725.4219 51.625Q725.4219 51.078125 725.125 50.78125Q724.8281 50.484375 724.3125 50.484375Q723.7969 50.484375 723.4844 50.796875Q723.1875 51.109375 723.1406 51.828125L721.5 51.671875Q721.6406 50.3125 722.40625 49.71875Q723.1875 49.125 724.34375 49.125Q725.625 49.125 726.34375 49.8125Q727.0781 50.5 727.0781 51.515625Q727.0781 52.09375 726.8594 52.625Q726.65625 53.140625 726.2031 53.71875Q725.90625 54.09375 725.125 54.8125Q724.34375 55.53125 724.1406 55.765625Q723.9375 56.0 723.7969 56.21875L727.0781 56.21875Z" fill-rule="nonzero"/><path stroke="#f07b72" stroke-width="4.0" stroke-linecap="butt" d="M744.0 53.75L756.0 53.75" fill-rule="nonzero"/><path stroke="#ffffff" stroke-width="3.0" stroke-linejoin="round" stroke-linecap="round" d="M764.5156 50.8125L764.5156 49.28125L770.1406 49.28125L770.1406 50.46875Q769.4375 51.15625 768.71875 52.4375Q768.0 53.71875 767.625 55.171875Q767.25 56.609375 767.25 57.75L765.6719 57.75Q765.7031 55.96875 766.3906 54.125Q767.09375 52.265625 768.25 50.8125L764.5156 50.8125ZM771.8594 57.75L771.8594 56.109375L773.5156 56.109375L773.5156 57.75L771.8594 57.75ZM774.4531 55.46875L776.0469 55.28125Q776.125 55.890625 776.4531 56.21875Q776.7969 56.53125 777.2656 56.53125Q777.78125 56.53125 778.125 56.140625Q778.46875 55.75 778.46875 55.09375Q778.46875 54.484375 778.125 54.125Q777.7969 53.75 777.3281 53.75Q777.0 53.75 776.5625 53.875L776.75 52.53125Q777.4219 52.546875 777.7656 52.25Q778.125 51.9375 778.125 51.421875Q778.125 51.0 777.8594 50.75Q777.6094 50.484375 777.1719 50.484375Q776.75 50.484375 776.4531 50.78125Q776.15625 51.0625 776.09375 51.625L774.5781 51.375Q774.7344 50.59375 775.0469 50.125Q775.375 49.65625 775.9375 49.390625Q776.5156 49.125 777.21875 49.125Q778.4375 49.125 779.1719 49.890625Q779.7656 50.53125 779.7656 51.328125Q779.7656 52.453125 778.53125 53.125Q779.28125 53.296875 779.71875 53.84375Q780.15625 54.390625 780.15625 55.171875Q780.15625 56.296875 779.3281 57.09375Q778.5 57.890625 777.28125 57.890625Q776.1094 57.890625 775.34375 57.21875Q774.5781 56.546875 774.4531 55.46875Z" fill-rule="nonzero"/><path fill="#1a1a1a" d="M764.5156 50.8125L764.5156 49.28125L770.1406 49.28125L770.1406 50.46875Q769.4375 51.15625 768.71875 52.4375Q768.0 53.71875 767.625 55.171875Q767.25 56.609375 767.25 57.75L765.6719 57.75Q765.7031 55.96875 766.3906 54.125Q767.09375 52.265625 768.25 50.8125L764.5156 50.8125ZM771.8594 57.75L771.8594 56.109375L773.5156 56.109375L773.5156 57.75L771.8594 57.75ZM774.4531 55.46875L776.0469 55.28125Q776.125 55.890625 776.4531 56.21875Q776.7969 56.53125 777.2656 56.53125Q777.78125 56.53125 778.125 56.140625Q778.46875 55.75 778.46875 55.09375Q778.46875 54.484375 778.125 54.125Q777.7969 53.75 777.3281 53.75Q777.0 53.75 776.5625 53.875L776.75 52.53125Q777.4219 52.546875 777.7656 52.25Q778.125 51.9375 778.125 51.421875Q778.125 51.0 777.8594 50.75Q777.6094 50.484375 777.1719 50.484375Q776.75 50.484375 776.4531 50.78125Q776.15625 51.0625 776.09375 51.625L774.5781 51.375Q774.7344 50.59375 775.0469 50.125Q775.375 49.65625 775.9375 49.390625Q776.5156 49.125 777.21875 49.125Q778.4375 49.125 779.1719 49.890625Q779.7656 50.53125 779.7656 51.328125Q779.7656 52.453125 778.53125 53.125Q779.28125 53.296875 779.71875 53.84375Q780.15625 54.390625 780.15625 55.171875Q780.15625 56.296875 779.3281 57.09375Q778.5 57.890625 777.28125 57.890625Q776.1094 57.890625 775.34375 57.21875Q774.5781 56.546875 774.4531 55.46875Z" fill-rule="nonzero"/><path stroke="#fcd04f" stroke-width="4.0" stroke-linecap="butt" d="M797.0 53.75L809.0 53.75" fill-rule="nonzero"/><path stroke="#ffffff" stroke-width="3.0" stroke-linejoin="round" stroke-linecap="round" d="M817.5156 50.8125L817.5156 49.28125L823.1406 49.28125L823.1406 50.46875Q822.4375 51.15625 821.71875 52.4375Q821.0 53.71875 820.625 55.171875Q820.25 56.609375 820.25 57.75L818.6719 57.75Q818.7031 55.96875 819.3906 54.125Q820.09375 52.265625 821.25 50.8125L817.5156 50.8125ZM824.8594 57.75L824.8594 56.109375L826.5156 56.109375L826.5156 57.75L824.8594 57.75ZM830.7344 57.75L830.7344 56.015625L827.21875 56.015625L827.21875 54.578125L830.9531 49.125L832.3281 49.125L832.3281 54.578125L833.40625 54.578125L833.40625 56.015625L832.3281 56.015625L832.3281 57.75L830.7344 57.75ZM830.7344 54.578125L830.7344 51.640625L828.7656 54.578125L830.7344 54.578125Z" fill-rule="nonzero"/><path fill="#1a1a1a" d="M817.5156 50.8125L817.5156 49.28125L823.1406 49.28125L823.1406 50.46875Q822.4375 51.15625 821.71875 52.4375Q821.0 53.71875 820.625 55.171875Q820.25 56.609375 820.25 57.75L818.6719 57.75Q818.7031 55.96875 819.3906 54.125Q820.09375 52.265625 821.25 50.8125L817.5156 50.8125ZM824.8594 57.75L824.8594 56.109375L826.5156 56.109375L826.5156 57.75L824.8594 57.75ZM830.7344 57.75L830.7344 56.015625L827.21875 56.015625L827.21875 54.578125L830.9531 49.125L832.3281 49.125L832.3281 54.578125L833.40625 54.578125L833.40625 56.015625L832.3281 56.015625L832.3281 57.75L830.7344 57.75ZM830.7344 54.578125L830.7344 51.640625L828.7656 54.578125L830.7344 54.578125Z" fill-rule="nonzero"/><path stroke="#71c287" stroke-width="4.0" stroke-linecap="butt" d="M850.0 53.75L862.0 53.75" fill-rule="nonzero"/><path stroke="#ffffff" stroke-width="3.0" stroke-linejoin="round" stroke-linecap="round" d="M871.9219 53.109375Q871.28125 52.84375 870.9844 52.375Q870.7031 51.90625 870.7031 51.34375Q870.7031 50.375 871.375 49.75Q872.0469 49.125 873.28125 49.125Q874.5 49.125 875.1719 49.75Q875.8594 50.375 875.8594 51.34375Q875.8594 51.9375 875.5469 52.40625Q875.2344 52.875 874.6719 53.109375Q875.3906 53.40625 875.7656 53.953125Q876.1406 54.5 876.1406 55.21875Q876.1406 56.40625 875.375 57.15625Q874.625 57.90625 873.3594 57.90625Q872.1875 57.90625 871.40625 57.28125Q870.4844 56.5625 870.4844 55.296875Q870.4844 54.59375 870.8281 54.015625Q871.1719 53.4375 871.9219 53.109375ZM872.2656 51.453125Q872.2656 51.953125 872.53125 52.234375Q872.8125 52.5 873.28125 52.5Q873.75 52.5 874.03125 52.21875Q874.3125 51.9375 874.3125 51.453125Q874.3125 50.984375 874.03125 50.71875Q873.75 50.4375 873.2969 50.4375Q872.8281 50.4375 872.5469 50.71875Q872.2656 51.0 872.2656 51.453125ZM872.1094 55.140625Q872.1094 55.8125 872.4531 56.203125Q872.8125 56.578125 873.3281 56.578125Q873.84375 56.578125 874.1719 56.21875Q874.5 55.84375 874.5 55.15625Q874.5 54.546875 874.15625 54.1875Q873.8281 53.8125 873.3125 53.8125Q872.7031 53.8125 872.40625 54.234375Q872.1094 54.65625 872.1094 55.140625ZM877.8594 57.75L877.8594 56.109375L879.5156 56.109375L879.5156 57.75L877.8594 57.75ZM883.2969 49.125Q884.5469 49.125 885.25 50.015625Q886.0781 51.0625 886.0781 53.515625Q886.0781 55.953125 885.2344 57.015625Q884.5469 57.890625 883.2969 57.890625Q882.0469 57.890625 881.2656 56.9375Q880.5 55.96875 880.5 53.5Q880.5 51.0625 881.34375 50.0Q882.0469 49.125 883.2969 49.125ZM883.2969 50.484375Q883.0 50.484375 882.7656 50.6875Q882.53125 50.875 882.3906 51.359375Q882.2344 52.0 882.2344 53.515625Q882.2344 55.03125 882.375 55.59375Q882.53125 56.15625 882.7656 56.34375Q883.0 56.53125 883.2969 56.53125Q883.59375 56.53125 883.8281 56.34375Q884.0625 56.15625 884.1875 55.65625Q884.3594 55.03125 884.3594 53.515625Q884.3594 52.0 884.2031 51.4375Q884.0625 50.875 883.8281 50.6875Q883.59375 50.484375 883.2969 50.484375Z" fill-rule="nonzero"/><path fill="#1a1a1a" d="M871.9219 53.109375Q871.28125 52.84375 870.9844 52.375Q870.7031 51.90625 870.7031 51.34375Q870.7031 50.375 871.375 49.75Q872.0469 49.125 873.28125 49.125Q874.5 49.125 875.1719 49.75Q875.8594 50.375 875.8594 51.34375Q875.8594 51.9375 875.5469 52.40625Q875.2344 52.875 874.6719 53.109375Q875.3906 53.40625 875.7656 53.953125Q876.1406 54.5 876.1406 55.21875Q876.1406 56.40625 875.375 57.15625Q874.625 57.90625 873.3594 57.90625Q872.1875 57.90625 871.40625 57.28125Q870.4844 56.5625 870.4844 55.296875Q870.4844 54.59375 870.8281 54.015625Q871.1719 53.4375 871.9219 53.109375ZM872.2656 51.453125Q872.2656 51.953125 872.53125 52.234375Q872.8125 52.5 873.28125 52.5Q873.75 52.5 874.03125 52.21875Q874.3125 51.9375 874.3125 51.453125Q874.3125 50.984375 874.03125 50.71875Q873.75 50.4375 873.2969 50.4375Q872.8281 50.4375 872.5469 50.71875Q872.2656 51.0 872.2656 51.453125ZM872.1094 55.140625Q872.1094 55.8125 872.4531 56.203125Q872.8125 56.578125 873.3281 56.578125Q873.84375 56.578125 874.1719 56.21875Q874.5 55.84375 874.5 55.15625Q874.5 54.546875 874.15625 54.1875Q873.8281 53.8125 873.3125 53.8125Q872.7031 53.8125 872.40625 54.234375Q872.1094 54.65625 872.1094 55.140625ZM877.8594 57.75L877.8594 56.109375L879.5156 56.109375L879.5156 57.75L877.8594 57.75ZM883.2969 49.125Q884.5469 49.125 885.25 50.015625Q886.0781 51.0625 886.0781 53.515625Q886.0781 55.953125 885.2344 57.015625Q884.5469 57.890625 883.2969 57.890625Q882.0469 57.890625 881.2656 56.9375Q880.5 55.96875 880.5 53.5Q880.5 51.0625 881.34375 50.0Q882.0469 49.125 883.2969 49.125ZM883.2969 50.484375Q883.0 50.484375 882.7656 50.6875Q882.53125 50.875 882.3906 51.359375Q882.2344 52.0 882.2344 53.515625Q882.2344 55.03125 882.375 55.59375Q882.53125 56.15625 882.7656 56.34375Q883.0 56.53125 883.2969 56.53125Q883.59375 56.53125 883.8281 56.34375Q884.0625 56.15625 884.1875 55.65625Q884.3594 55.03125 884.3594 53.515625Q884.3594 52.0 884.2031 51.4375Q884.0625 50.875 883.8281 50.6875Q883.59375 50.484375 883.2969 50.484375Z" fill-rule="nonzero"/></svg>