<svg version="1.1" viewBox="0.0 0.0 906.0 646.0" fill="none" stroke="none" stroke-linecap="square" stroke-miterlimit="10" width="906" height="646" xmlns:xlink="http://www.w3.org/1999/xlink" xmlns="http://www.w3.org/2000/svg"><path fill="#ffffff" d="M0 0L906.0 0L906.0 646.0L0 646.0L0 0Z" fill-rule="nonzero"/><path stroke="#333333" stroke-width="1.0" stroke-linecap="butt" d="M70.5 593.5L789.5 593.5" fill-rule="nonzero"/><path stroke="#cccccc" stroke-width="1.0" stroke-linecap="butt" d="M70.5 455.5L789.5 455.5" fill-rule="nonzero"/><path stroke="#cccccc" stroke-width="1.0" stroke-linecap="butt" d="M70.5 316.5L789.5 316.5" fill-rule="nonzero"/><path stroke="#cccccc" stroke-width="1.0" stroke-linecap="butt" d="M70.5 177.5L789.5 177.5" fill-rule="nonzero"/><path stroke="#cccccc" stroke-width="1.0" stroke-linecap="butt" d="M70.5 39.5L789.5 39.5" fill-rule="nonzero"/><clipPath id="id_0"><path d="M70.3 39.3L789.56 39.3L789.56 593.7L70.3 593.7L70.3 39.3Z" clip-rule="nonzero"/></clipPath><path stroke="#000000" stroke-width="2.0" stroke-linecap="butt" stroke-opacity="0.0" clip-path="url(#id_0)" d="M285.0 594.0L145.0 594.0L145.0 594.0L285.0 594.0Z" fill-rule="nonzero"/><path fill="#b6d7a8" clip-path="url(#id_0)" d="M285.0 594.0L145.0 594.0L145.0 594.0L285.0 594.0Z" fill-rule="nonzero"/><path stroke="#000000" stroke-width="2.0" stroke-linecap="butt" stroke-opacity="0.0" clip-path="url(#id_0)" d="M500.0 594.0L360.0 594.0L360.0 594.0L500.0 594.0Z" fill-rule="nonzero"/><path fill="#b6d7a8" clip-path="url(#id_0)" d="M500.0 594.0L360.0 594.0L360.0 594.0L500.0 594.0Z" fill-rule="nonzero"/><path stroke="#000000" stroke-width="2.0" stroke-linecap="butt" stroke-opacity="0.0" clip-path="url(#id_0)" d="M715.0 594.0L575.0 594.0L575.0 519.0L715.0 519.0Z" fill-rule="nonzero"/><path fill="#b6d7a8" clip-path="url(#id_0)" d="M715.0 594.0L575.0 594.0L575.0 519.0L715.0 519.0Z" fill-rule="nonzero"/><path stroke="#000000" stroke-width="2.0" stroke-linecap="butt" stroke-opacity="0.0" clip-path="url(#id_0)" d="M285.0 594.0L145.0 594.0L145.0 523.0L285.0 523.0Z" fill-rule="nonzero"/><path fill="#34a853" clip-path="url(#id_0)" d="M285.0 594.0L145.0 594.0L145.0 523.0L285.0 523.0Z" fill-rule="nonzero"/><path stroke="#000000" stroke-width="2.0" stroke-linecap="butt" stroke-opacity="0.0" clip-path="url(#id_0)" d="M500.0 594.0L360.0 594.0L360.0 498.0L500.0 498.0Z" fill-rule="nonzero"/><path fill="#34a853" clip-path="url(#id_0)" d="M500.0 594.0L360.0 594.0L360.0 498.0L500.0 498.0Z" fill-rule="nonzero"/><path stroke="#000000" stroke-width="2.0" stroke-linecap="butt" stroke-opacity="0.0" clip-path="url(#id_0)" d="M715.0 519.0L575.0 519.0L575.0 463.0L715.0 463.0Z" fill-rule="nonzero"/><path fill="#34a853" clip-path="url(#id_0)" d="M715.0 519.0L575.0 519.0L575.0 463.0L715.0 463.0Z" fill-rule="nonzero"/><path stroke="#000000" stroke-width="2.0" stroke-linecap="butt" stroke-opacity="0.0" clip-path="url(#id_0)" d="M285.0 523.0L145.0 523.0L145.0 489.0L285.0 489.0Z" fill-rule="nonzero"/><path fill="#ff9900" clip-path="url(#id_0)" d="M285.0 523.0L145.0 523.0L145.0 489.0L285.0 489.0Z" fill-rule="nonzero"/><path stroke="#000000" stroke-width="2.0" stroke-linecap="butt" stroke-opacity="0.0" clip-path="url(#id_0)" d="M500.0 498.0L360.0 498.0L360.0 457.0L500.0 457.0Z" fill-rule="nonzero"/><path fill="#ff9900" clip-path="url(#id_0)" d="M500.0 498.0L360.0 498.0L360.0 457.0L500.0 457.0Z" fill-rule="nonzero"/><path stroke="#000000" stroke-width="2.0" stroke-linecap="butt" stroke-opacity="0.0" clip-path="url(#id_0)" d="M715.0 463.0L575.0 463.0L575.0 411.0L715.0 411.0Z" fill-rule="nonzero"/><path fill="#ff9900" clip-path="url(#id_0)" d="M715.0 463.0L575.0 463.0L575.0 411.0L715.0 411.0Z" fill-rule="nonzero"/><path stroke="#000000" stroke-width="2.0" stroke-linecap="butt" stroke-opacity="0.0" clip-path="url(#id_0)" d="M285.0 489.0L145.0 489.0L145.0 409.0L285.0 409.0Z" fill-rule="nonzero"/><path fill="#e06666" clip-path="url(#id_0)" d="M285.0 489.0L145.0 489.0L145.0 409.0L285.0 409.0Z" fill-rule="nonzero"/><path stroke="#000000" stroke-width="2.0" stroke-linecap="butt" stroke-opacity="0.0" clip-path="url(#id_0)" d="M500.0 457.0L360.0 457.0L360.0 387.0L500.0 387.0Z" fill-rule="nonzero"/><path fill="#e06666" clip-path="url(#id_0)" d="M500.0 457.0L360.0 457.0L360.0 387.0L500.0 387.0Z" fill-rule="nonzero"/><path stroke="#000000" stroke-width="2.0" stroke-linecap="butt" stroke-opacity="0.0" clip-path="url(#id_0)" d="M715.0 411.0L575.0 411.0L575.0 349.0L715.0 349.0Z" fill-rule="nonzero"/><path fill="#e06666" clip-path="url(#id_0)" d="M715.0 411.0L575.0 411.0L575.0 349.0L715.0 349.0Z" fill-rule="nonzero"/><path stroke="#000000" stroke-width="2.0" stroke-linecap="butt" stroke-opacity="0.0" clip-path="url(#id_0)" d="M285.0 409.0L145.0 409.0L145.0 323.0L285.0 323.0Z" fill-rule="nonzero"/><path fill="#cc0000" clip-path="url(#id_0)" d="M285.0 409.0L145.0 409.0L145.0 323.0L285.0 323.0Z" fill-rule="nonzero"/><path stroke="#000000" stroke-width="2.0" stroke-linecap="butt" stroke-opacity="0.0" clip-path="url(#id_0)" d="M500.0 387.0L360.0 387.0L360.0 308.0L500.0 308.0Z" fill-rule="nonzero"/><path fill="#cc0000" clip-path="url(#id_0)" d="M500.0 387.0L360.0 387.0L360.0 308.0L500.0 308.0Z" fill-rule="nonzero"/><path stroke="#000000" stroke-width="2.0" stroke-linecap="butt" stroke-opacity="0.0" clip-path="url(#id_0)" d="M715.0 349.0L575.0 349.0L575.0 271.0L715.0 271.0Z" fill-rule="nonzero"/><path fill="#cc0000" clip-path="url(#id_0)" d="M715.0 349.0L575.0 349.0L575.0 271.0L715.0 271.0Z" fill-rule="nonzero"/><path stroke="#000000" stroke-width="2.0" stroke-linecap="butt" stroke-opacity="0.0" clip-path="url(#id_0)" d="M285.0 323.0L145.0 323.0L145.0 213.0L285.0 213.0Z" fill-rule="nonzero"/><path fill="#f6b26b" clip-path="url(#id_0)" d="M285.0 323.0L145.0 323.0L145.0 213.0L285.0 213.0Z" fill-rule="nonzero"/><path stroke="#000000" stroke-width="2.0" stroke-linecap="butt" stroke-opacity="0.0" clip-path="url(#id_0)" d="M500.0 308.0L360.0 308.0L360.0 194.0L500.0 194.0Z" fill-rule="nonzero"/><path fill="#f6b26b" clip-path="url(#id_0)" d="M500.0 308.0L360.0 308.0L360.0 194.0L500.0 194.0Z" fill-rule="nonzero"/><path stroke="#000000" stroke-width="2.0" stroke-linecap="butt" stroke-opacity="0.0" clip-path="url(#id_0)" d="M715.0 271.0L575.0 271.0L575.0 179.0L715.0 179.0Z" fill-rule="nonzero"/><path fill="#f6b26b" clip-path="url(#id_0)" d="M715.0 271.0L575.0 271.0L575.0 179.0L715.0 179.0Z" fill-rule="nonzero"/><path stroke="#000000" stroke-width="2.0" stroke-linecap="butt" stroke-opacity="0.0" clip-path="url(#id_0)" d="M285.0 213.0L145.0 213.0L145.0 194.0L285.0 194.0Z" fill-rule="nonzero"/><path fill="#ea4335" clip-path="url(#id_0)" d="M285.0 213.0L145.0 213.0L145.0 194.0L285.0 194.0Z" fill-rule="nonzero"/><path stroke="#000000" stroke-width="2.0" stroke-linecap="butt" stroke-opacity="0.0" clip-path="url(#id_0)" d="M500.0 194.0L360.0 194.0L360.0 176.0L500.0 176.0Z" fill-rule="nonzero"/><path fill="#ea4335" clip-path="url(#id_0)" d="M500.0 194.0L360.0 194.0L360.0 176.0L500.0 176.0Z" fill-rule="nonzero"/><path stroke="#000000" stroke-width="2.0" stroke-linecap="butt" stroke-opacity="0.0" clip-path="url(#id_0)" d="M715.0 179.0L575.0 179.0L575.0 162.0L715.0 162.0Z" fill-rule="nonzero"/><path fill="#ea4335" clip-path="url(#id_0)" d="M715.0 179.0L575.0 179.0L575.0 162.0L715.0 162.0Z" fill-rule="nonzero"/><path stroke="#000000" stroke-width="2.0" stroke-linecap="butt" stroke-opacity="0.0" clip-path="url(#id_0)" d="M285.0 194.0L145.0 194.0L145.0 157.0L285.0 157.0Z" fill-rule="nonzero"/><path fill="#6fa8dc" clip-path="url(#id_0)" d="M285.0 194.0L145.0 194.0L145.0 157.0L285.0 157.0Z" fill-rule="nonzero"/><path stroke="#000000" stroke-width="2.0" stroke-linecap="butt" stroke-opacity="0.0" clip-path="url(#id_0)" d="M500.0 176.0L360.0 176.0L360.0 147.0L500.0 147.0Z" fill-rule="nonzero"/><path fill="#6fa8dc" clip-path="url(#id_0)" d="M500.0 176.0L360.0 176.0L360.0 147.0L500.0 147.0Z" fill-rule="nonzero"/><path stroke="#000000" stroke-width="2.0" stroke-linecap="butt" stroke-opacity="0.0" clip-path="url(#id_0)" d="M715.0 162.0L575.0 162.0L575.0 137.0L715.0 137.0Z" fill-rule="nonzero"/><path fill="#6fa8dc" clip-path="url(#id_0)" d="M715.0 162.0L575.0 162.0L575.0 137.0L715.0 137.0Z" fill-rule="nonzero"/><path stroke="#000000" stroke-width="2.0" stroke-linecap="butt" stroke-opacity="0.0" clip-path="url(#id_0)" d="M285.0 157.0L145.0 157.0L145.0 131.0L285.0 131.0Z" fill-rule="nonzero"/><path fill="#6d9eeb" clip-path="url(#id_0)" d="M285.0 157.0L145.0 157.0L145.0 131.0L285.0 131.0Z" fill-rule="nonzero"/><path stroke="#000000" stroke-width="2.0" stroke-linecap="butt" stroke-opacity="0.0" clip-path="url(#id_0)" d="M500.0 147.0L360.0 147.0L360.0 122.0L500.0 122.0Z" fill-rule="nonzero"/><path fill="#6d9eeb" clip-path="url(#id_0)" d="M500.0 147.0L360.0 147.0L360.0 122.0L500.0 122.0Z" fill-rule="nonzero"/><path stroke="#000000" stroke-width="2.0" stroke-linecap="butt" stroke-opacity="0.0" clip-path="url(#id_0)" d="M715.0 137.0L575.0 137.0L575.0 116.0L715.0 116.0Z" fill-rule="nonzero"/><path fill="#6d9eeb" clip-path="url(#id_0)" d="M715.0 137.0L575.0 137.0L575.0 116.0L715.0 116.0Z" fill-rule="nonzero"/><path stroke="#000000" stroke-width="2.0" stroke-linecap="butt" stroke-opacity="0.0" clip-path="url(#id_0)" d="M285.0 131.0L145.0 131.0L145.0 106.0L285.0 106.0Z" fill-rule="nonzero"/><path fill="#4285f4" clip-path="url(#id_0)" d="M285.0 131.0L145.0 131.0L145.0 106.0L285.0 106.0Z" fill-rule="nonzero"/><path stroke="#000000" stroke-width="2.0" stroke-linecap="butt" stroke-opacity="0.0" clip-path="url(#id_0)" d="M500.0 122.0L360.0 122.0L360.0 96.0L500.0 96.0Z" fill-rule="nonzero"/><path fill="#4285f4" clip-path="url(#id_0)" d="M500.0 122.0L360.0 122.0L360.0 96.0L500.0 96.0Z" fill-rule="nonzero"/><path stroke="#000000" stroke-width="2.0" stroke-linecap="butt" stroke-opacity="0.0" clip-path="url(#id_0)" d="M715.0 116.0L575.0 116.0L575.0 92.0L715.0 92.0Z" fill-rule="nonzero"/><path fill="#4285f4" clip-path="url(#id_0)" d="M715.0 116.0L575.0 116.0L575.0 92.0L715.0 92.0Z" fill-rule="nonzero"/><path stroke="#000000" stroke-width="2.0" stroke-linecap="butt" stroke-opacity="0.0" clip-path="url(#id_0)" d="M285.0 106.0L145.0 106.0L145.0 48.0L285.0 48.0Z" fill-rule="nonzero"/><path fill="#a4c2f4" clip-path="url(#id_0)" d="M285.0 106.0L145.0 106.0L145.0 48.0L285.0 48.0Z" fill-rule="nonzero"/><path stroke="#000000" stroke-width="2.0" stroke-linecap="butt" stroke-opacity="0.0" clip-path="url(#id_0)" d="M500.0 96.0L360.0 96.0L360.0 46.0L500.0 46.0Z" fill-rule="nonzero"/><path fill="#a4c2f4" clip-path="url(#id_0)" d="M500.0 96.0L360.0 96.0L360.0 46.0L500.0 46.0Z" fill-rule="nonzero"/><path stroke="#000000" stroke-width="2.0" stroke-linecap="butt" stroke-opacity="0.0" clip-path="url(#id_0)" d="M715.0 92.0L575.0 92.0L575.0 46.0L715.0 46.0Z" fill-rule="nonzero"/><path fill="#a4c2f4" clip-path="url(#id_0)" d="M715.0 92.0L575.0 92.0L575.0 46.0L715.0 46.0Z" fill-rule="nonzero"/><path stroke="#000000" stroke-width="2.0" stroke-linecap="butt" stroke-opacity="0.0" clip-path="url(#id_0)" d="M285.0 48.0L145.0 48.0L145.0 41.0L285.0 41.0Z" fill-rule="nonzero"/><path fill="#cfe2f3" clip-path="url(#id_0)" d="M285.0 48.0L145.0 48.0L145.0 41.0L285.0 41.0Z" fill-rule="nonzero"/><path stroke="#000000" stroke-width="2.0" stroke-linecap="butt" stroke-opacity="0.0" clip-path="url(#id_0)" d="M500.0 46.0L360.0 46.0L360.0 40.0L500.0 40.0Z" fill-rule="nonzero"/><path fill="#cfe2f3" clip-path="url(#id_0)" d="M500.0 46.0L360.0 46.0L360.0 40.0L500.0 40.0Z" fill-rule="nonzero"/><path stroke="#000000" stroke-width="2.0" stroke-linecap="butt" stroke-opacity="0.0" clip-path="url(#id_0)" d="M715.0 46.0L575.0 46.0L575.0 40.0L715.0 40.0Z" fill-rule="nonzero"/><path fill="#cfe2f3" clip-path="url(#id_0)" d="M715.0 46.0L575.0 46.0L575.0 40.0L715.0 40.0Z" fill-rule="nonzero"/><path stroke="#000000" stroke-width="2.0" stroke-linecap="butt" stroke-opacity="0.0" clip-path="url(#id_0)" d="M285.0 41.0L145.0 41.0L145.0 40.0C145.0 39.447716 145.44771 39.0 146.0 39.0L284.0 39.0C284.55228 39.0 285.0 39.447716 285.0 40.0Z" fill-rule="nonzero"/><path fill="#b3cefb" clip-path="url(#id_0)" d="M285.0 41.0L145.0 41.0L145.0 40.0C145.0 39.447716 145.44771 39.0 146.0 39.0L284.0 39.0C284.55228 39.0 285.0 39.447716 285.0 40.0Z" fill-rule="nonzero"/><path stroke="#000000" stroke-width="2.0" stroke-linecap="butt" stroke-opacity="0.0" clip-path="url(#id_0)" d="M500.0 40.0L360.0 40.0L360.0 39.5C360.0 39.223858 360.22385 39.0 360.5 39.0L499.5 39.0C499.77615 39.0 500.0 39.223858 500.0 39.5Z" fill-rule="nonzero"/><path fill="#b3cefb" clip-path="url(#id_0)" d="M500.0 40.0L360.0 40.0L360.0 39.5C360.0 39.223858 360.22385 39.0 360.5 39.0L499.5 39.0C499.77615 39.0 500.0 39.223858 500.0 39.5Z" fill-rule="nonzero"/><path stroke="#000000" stroke-width="2.0" stroke-linecap="butt" stroke-opacity="0.0" clip-path="url(#id_0)" d="M715.0 40.0L575.0 40.0L575.0 39.5C575.0 39.223858 575.2239 39.0 575.5 39.0L714.5 39.0C714.7761 39.0 715.0 39.223858 715.0 39.5Z" fill-rule="nonzero"/><path fill="#b3cefb" clip-path="url(#id_0)" d="M715.0 40.0L575.0 40.0L575.0 39.5C575.0 39.223858 575.2239 39.0 575.5 39.0L714.5 39.0C714.7761 39.0 715.0 39.223858 715.0 39.5Z" fill-rule="nonzero"/><path fill="#000000" d="M46.8 593.46564Q46.8 591.9344 47.1125 591.0125Q47.425 590.075 48.034374 589.575Q48.659374 589.075 49.596874 589.075Q50.284374 589.075 50.8 589.35626Q51.33125 589.6375 51.675 590.16876Q52.01875 590.6844 52.20625 591.4344Q52.39375 592.1844 52.39375 593.46564Q52.39375 594.98126 52.08125 595.90314Q51.784374 596.825 51.159374 597.34064Q50.55 597.84064 49.596874 597.84064Q48.3625 597.84064 47.64375 596.95Q46.8 595.8875 46.8 593.46564ZM47.878124 593.46564Q47.878124 595.575 48.378124 596.27814Q48.878124 596.98126 49.596874 596.98126Q50.33125 596.98126 50.815624 596.27814Q51.315624 595.575 51.315624 593.46564Q51.315624 591.34064 50.815624 590.65314Q50.33125 589.95 49.58125 589.95Q48.8625 589.95 48.425 590.5594Q47.878124 591.34064 47.878124 593.46564ZM54.003124 591.16876Q54.003124 590.2469 54.45625 589.60626Q54.925 588.96564 55.8 588.96564Q56.6125 588.96564 57.14375 589.54376Q57.675 590.1219 57.675 591.23126Q57.675 592.325 57.128124 592.91876Q56.596874 593.4969 55.815624 593.4969Q55.034374 593.4969 54.51875 592.91876Q54.003124 592.34064 54.003124 591.16876ZM55.83125 589.6844Q55.440624 589.6844 55.175 590.02814Q54.925 590.3719 54.925 591.27814Q54.925 592.10626 55.175 592.45Q55.440624 592.77814 55.83125 592.77814Q56.2375 592.77814 56.4875 592.4344Q56.753124 592.09064 56.753124 591.2Q56.753124 590.35626 56.4875 590.02814Q56.221874 589.6844 55.83125 589.6844ZM55.83125 598.0125L60.534374 588.96564L61.39375 588.96564L56.70625 598.0125L55.83125 598.0125ZM59.55 595.6844Q59.55 594.7625 60.003124 594.1219Q60.471874 593.48126 61.3625 593.48126Q62.175 593.48126 62.70625 594.0594Q63.2375 594.6219 63.2375 595.7469Q63.2375 596.84064 62.690624 597.4344Q62.159374 598.0125 61.3625 598.0125Q60.596874 598.0125 60.065624 597.4344Q59.55 596.85626 59.55 595.6844ZM61.39375 594.2Q60.9875 594.2 60.721874 594.54376Q60.471874 594.8875 60.471874 595.79376Q60.471874 596.60626 60.7375 596.95Q61.003124 597.29376 61.39375 597.29376Q61.784374 597.29376 62.05 596.95Q62.315624 596.60626 62.315624 595.7Q62.315624 594.8719 62.05 594.54376Q61.784374 594.2 61.39375 594.2Z" fill-rule="nonzero"/><path fill="#000000" d="M45.346874 458.08438L45.346874 459.1L39.659374 459.1Q39.659374 458.725 39.784374 458.36563Q40.003124 457.7875 40.471874 457.225Q40.95625 456.6625 41.8625 455.92813Q43.26875 454.77188 43.753124 454.1Q44.253124 453.42813 44.253124 452.83438Q44.253124 452.20938 43.8 451.7875Q43.346874 451.35 42.628124 451.35Q41.8625 451.35 41.409374 451.80313Q40.95625 452.25626 40.940624 453.06876L39.8625 452.95938Q39.971874 451.74063 40.690624 451.11563Q41.425 450.475 42.659374 450.475Q43.89375 450.475 44.6125 451.1625Q45.33125 451.85 45.33125 452.86563Q45.33125 453.38126 45.1125 453.88126Q44.909374 454.36563 44.409374 454.92813Q43.925 455.475 42.8 456.42813Q41.846874 457.225 41.565624 457.52188Q41.3 457.80313 41.128124 458.08438L45.346874 458.08438ZM46.8 456.85L47.909374 456.75626Q48.034374 457.56876 48.471874 457.975Q48.925 458.38126 49.565624 458.38126Q50.315624 458.38126 50.846874 457.80313Q51.378124 457.225 51.378124 456.2875Q51.378124 455.38126 50.8625 454.86563Q50.3625 454.33438 49.534374 454.33438Q49.034374 454.33438 48.6125 454.56876Q48.20625 454.80313 47.971874 455.1625L46.9875 455.0375L47.815624 450.63126L52.096874 450.63126L52.096874 451.63126L48.659374 451.63126L48.20625 453.94376Q48.971874 453.39688 49.815624 453.39688Q50.940624 453.39688 51.70625 454.17813Q52.4875 454.95938 52.4875 456.19376Q52.4875 457.35 51.815624 458.20938Q50.9875 459.24063 49.565624 459.24063Q48.39375 459.24063 47.64375 458.58438Q46.909374 457.92813 46.8 456.85ZM54.003124 452.56876Q54.003124 451.64688 54.45625 451.00626Q54.925 450.36563 55.8 450.36563Q56.6125 450.36563 57.14375 450.94376Q57.675 451.52188 57.675 452.63126Q57.675 453.725 57.128124 454.31876Q56.596874 454.89688 55.815624 454.89688Q55.034374 454.89688 54.51875 454.31876Q54.003124 453.74063 54.003124 452.56876ZM55.83125 451.08438Q55.440624 451.08438 55.175 451.42813Q54.925 451.77188 54.925 452.67813Q54.925 453.50626 55.175 453.85Q55.440624 454.17813 55.83125 454.17813Q56.2375 454.17813 56.4875 453.83438Q56.753124 453.49063 56.753124 452.6Q56.753124 451.75626 56.4875 451.42813Q56.221874 451.08438 55.83125 451.08438ZM55.83125 459.4125L60.534374 450.36563L61.39375 450.36563L56.70625 459.4125L55.83125 459.4125ZM59.55 457.08438Q59.55 456.1625 60.003124 455.52188Q60.471874 454.88126 61.3625 454.88126Q62.175 454.88126 62.70625 455.45938Q63.2375 456.02188 63.2375 457.14688Q63.2375 458.24063 62.690624 458.83438Q62.159374 459.4125 61.3625 459.4125Q60.596874 459.4125 60.065624 458.83438Q59.55 458.25626 59.55 457.08438ZM61.39375 455.6Q60.9875 455.6 60.721874 455.94376Q60.471874 456.2875 60.471874 457.19376Q60.471874 458.00626 60.7375 458.35Q61.003124 458.69376 61.39375 458.69376Q61.784374 458.69376 62.05 458.35Q62.315624 458.00626 62.315624 457.1Q62.315624 456.27188 62.05 455.94376Q61.784374 455.6 61.39375 455.6Z" fill-rule="nonzero"/><path fill="#000000" d="M39.8 318.25L40.909374 318.15625Q41.034374 318.96875 41.471874 319.375Q41.925 319.78125 42.565624 319.78125Q43.315624 319.78125 43.846874 319.20312Q44.378124 318.625 44.378124 317.6875Q44.378124 316.78125 43.8625 316.26562Q43.3625 315.73438 42.534374 315.73438Q42.034374 315.73438 41.6125 315.96875Q41.20625 316.20312 40.971874 316.5625L39.9875 316.4375L40.815624 312.03125L45.096874 312.03125L45.096874 313.03125L41.659374 313.03125L41.20625 315.34375Q41.971874 314.79688 42.815624 314.79688Q43.940624 314.79688 44.70625 315.57812Q45.4875 316.35938 45.4875 317.59375Q45.4875 318.75 44.815624 319.60938Q43.9875 320.64062 42.565624 320.64062Q41.39375 320.64062 40.64375 319.98438Q39.909374 319.32812 39.8 318.25ZM46.8 316.26562Q46.8 314.73438 47.1125 313.8125Q47.425 312.875 48.034374 312.375Q48.659374 311.875 49.596874 311.875Q50.284374 311.875 50.8 312.15625Q51.33125 312.4375 51.675 312.96875Q52.01875 313.48438 52.20625 314.23438Q52.39375 314.98438 52.39375 316.26562Q52.39375 317.78125 52.08125 318.70312Q51.784374 319.625 51.159374 320.14062Q50.55 320.64062 49.596874 320.64062Q48.3625 320.64062 47.64375 319.75Q46.8 318.6875 46.8 316.26562ZM47.878124 316.26562Q47.878124 318.375 48.378124 319.07812Q48.878124 319.78125 49.596874 319.78125Q50.33125 319.78125 50.815624 319.07812Q51.315624 318.375 51.315624 316.26562Q51.315624 314.14062 50.815624 313.45312Q50.33125 312.75 49.58125 312.75Q48.8625 312.75 48.425 313.35938Q47.878124 314.14062 47.878124 316.26562ZM54.003124 313.96875Q54.003124 313.04688 54.45625 312.40625Q54.925 311.76562 55.8 311.76562Q56.6125 311.76562 57.14375 312.34375Q57.675 312.92188 57.675 314.03125Q57.675 315.125 57.128124 315.71875Q56.596874 316.29688 55.815624 316.29688Q55.034374 316.29688 54.51875 315.71875Q54.003124 315.14062 54.003124 313.96875ZM55.83125 312.48438Q55.440624 312.48438 55.175 312.82812Q54.925 313.17188 54.925 314.07812Q54.925 314.90625 55.175 315.25Q55.440624 315.57812 55.83125 315.57812Q56.2375 315.57812 56.4875 315.23438Q56.753124 314.89062 56.753124 314.0Q56.753124 313.15625 56.4875 312.82812Q56.221874 312.48438 55.83125 312.48438ZM55.83125 320.8125L60.534374 311.76562L61.39375 311.76562L56.70625 320.8125L55.83125 320.8125ZM59.55 318.48438Q59.55 317.5625 60.003124 316.92188Q60.471874 316.28125 61.3625 316.28125Q62.175 316.28125 62.70625 316.85938Q63.2375 317.42188 63.2375 318.54688Q63.2375 319.64062 62.690624 320.23438Q62.159374 320.8125 61.3625 320.8125Q60.596874 320.8125 60.065624 320.23438Q59.55 319.65625 59.55 318.48438ZM61.39375 317.0Q60.9875 317.0 60.721874 317.34375Q60.471874 317.6875 60.471874 318.59375Q60.471874 319.40625 60.7375 319.75Q61.003124 320.09375 61.39375 320.09375Q61.784374 320.09375 62.05 319.75Q62.315624 319.40625 62.315624 318.5Q62.315624 317.67188 62.05 317.34375Q61.784374 317.0 61.39375 317.0Z" fill-rule="nonzero"/><path fill="#000000" d="M39.8625 174.43124L39.8625 173.41562L45.425 173.41562L45.425 174.24374Q44.6125 175.11874 43.8 176.57187Q43.003124 178.00937 42.565624 179.54062Q42.2375 180.61874 42.159374 181.9L41.065624 181.9Q41.08125 180.88437 41.45625 179.44687Q41.846874 178.00937 42.55 176.68124Q43.26875 175.35312 44.08125 174.43124L39.8625 174.43124ZM46.8 179.65L47.909374 179.55624Q48.034374 180.36874 48.471874 180.775Q48.925 181.18124 49.565624 181.18124Q50.315624 181.18124 50.846874 180.60312Q51.378124 180.025 51.378124 179.0875Q51.378124 178.18124 50.8625 177.66562Q50.3625 177.13437 49.534374 177.13437Q49.034374 177.13437 48.6125 177.36874Q48.20625 177.60312 47.971874 177.9625L46.9875 177.8375L47.815624 173.43124L52.096874 173.43124L52.096874 174.43124L48.659374 174.43124L48.20625 176.74374Q48.971874 176.19687 49.815624 176.19687Q50.940624 176.19687 51.70625 176.97812Q52.4875 177.75937 52.4875 178.99374Q52.4875 180.15 51.815624 181.00937Q50.9875 182.04062 49.565624 182.04062Q48.39375 182.04062 47.64375 181.38437Q46.909374 180.72812 46.8 179.65ZM54.003124 175.36874Q54.003124 174.44687 54.45625 173.80624Q54.925 173.16562 55.8 173.16562Q56.6125 173.16562 57.14375 173.74374Q57.675 174.32187 57.675 175.43124Q57.675 176.525 57.128124 177.11874Q56.596874 177.69687 55.815624 177.69687Q55.034374 177.69687 54.51875 177.11874Q54.003124 176.54062 54.003124 175.36874ZM55.83125 173.88437Q55.440624 173.88437 55.175 174.22812Q54.925 174.57187 54.925 175.47812Q54.925 176.30624 55.175 176.65Q55.440624 176.97812 55.83125 176.97812Q56.2375 176.97812 56.4875 176.63437Q56.753124 176.29062 56.753124 175.4Q56.753124 174.55624 56.4875 174.22812Q56.221874 173.88437 55.83125 173.88437ZM55.83125 182.2125L60.534374 173.16562L61.39375 173.16562L56.70625 182.2125L55.83125 182.2125ZM59.55 179.88437Q59.55 178.9625 60.003124 178.32187Q60.471874 177.68124 61.3625 177.68124Q62.175 177.68124 62.70625 178.25937Q63.2375 178.82187 63.2375 179.94687Q63.2375 181.04062 62.690624 181.63437Q62.159374 182.2125 61.3625 182.2125Q60.596874 182.2125 60.065624 181.63437Q59.55 181.05624 59.55 179.88437ZM61.39375 178.4Q60.9875 178.4 60.721874 178.74374Q60.471874 179.0875 60.471874 179.99374Q60.471874 180.80624 60.7375 181.15Q61.003124 181.49374 61.39375 181.49374Q61.784374 181.49374 62.05 181.15Q62.315624 180.80624 62.315624 179.9Q62.315624 179.07187 62.05 178.74374Q61.784374 178.4 61.39375 178.4Z" fill-rule="nonzero"/><path fill="#000000" d="M36.76875 43.3L35.721874 43.3L35.721874 36.58125Q35.33125 36.940624 34.70625 37.315624Q34.096874 37.675 33.6125 37.846874L33.6125 36.83125Q34.4875 36.409374 35.14375 35.83125Q35.815624 35.2375 36.096874 34.675L36.76875 34.675L36.76875 43.3ZM39.8 39.065624Q39.8 37.534374 40.1125 36.6125Q40.425 35.675 41.034374 35.175Q41.659374 34.675 42.596874 34.675Q43.284374 34.675 43.8 34.95625Q44.33125 35.2375 44.675 35.76875Q45.01875 36.284374 45.20625 37.034374Q45.39375 37.784374 45.39375 39.065624Q45.39375 40.58125 45.08125 41.503124Q44.784374 42.425 44.159374 42.940624Q43.55 43.440624 42.596874 43.440624Q41.3625 43.440624 40.64375 42.55Q39.8 41.4875 39.8 39.065624ZM40.878124 39.065624Q40.878124 41.175 41.378124 41.878124Q41.878124 42.58125 42.596874 42.58125Q43.33125 42.58125 43.815624 41.878124Q44.315624 41.175 44.315624 39.065624Q44.315624 36.940624 43.815624 36.253124Q43.33125 35.55 42.58125 35.55Q41.8625 35.55 41.425 36.159374Q40.878124 36.940624 40.878124 39.065624ZM46.8 39.065624Q46.8 37.534374 47.1125 36.6125Q47.425 35.675 48.034374 35.175Q48.659374 34.675 49.596874 34.675Q50.284374 34.675 50.8 34.95625Q51.33125 35.2375 51.675 35.76875Q52.01875 36.284374 52.20625 37.034374Q52.39375 37.784374 52.39375 39.065624Q52.39375 40.58125 52.08125 41.503124Q51.784374 42.425 51.159374 42.940624Q50.55 43.440624 49.596874 43.440624Q48.3625 43.440624 47.64375 42.55Q46.8 41.4875 46.8 39.065624ZM47.878124 39.065624Q47.878124 41.175 48.378124 41.878124Q48.878124 42.58125 49.596874 42.58125Q50.33125 42.58125 50.815624 41.878124Q51.315624 41.175 51.315624 39.065624Q51.315624 36.940624 50.815624 36.253124Q50.33125 35.55 49.58125 35.55Q48.8625 35.55 48.425 36.159374Q47.878124 36.940624 47.878124 39.065624ZM54.003124 36.76875Q54.003124 35.846874 54.45625 35.20625Q54.925 34.565624 55.8 34.565624Q56.6125 34.565624 57.14375 35.14375Q57.675 35.721874 57.675 36.83125Q57.675 37.925 57.128124 38.51875Q56.596874 39.096874 55.815624 39.096874Q55.034374 39.096874 54.51875 38.51875Q54.003124 37.940624 54.003124 36.76875ZM55.83125 35.284374Q55.440624 35.284374 55.175 35.628124Q54.925 35.971874 54.925 36.878124Q54.925 37.70625 55.175 38.05Q55.440624 38.378124 55.83125 38.378124Q56.2375 38.378124 56.4875 38.034374Q56.753124 37.690624 56.753124 36.8Q56.753124 35.95625 56.4875 35.628124Q56.221874 35.284374 55.83125 35.284374ZM55.83125 43.6125L60.534374 34.565624L61.39375 34.565624L56.70625 43.6125L55.83125 43.6125ZM59.55 41.284374Q59.55 40.3625 60.003124 39.721874Q60.471874 39.08125 61.3625 39.08125Q62.175 39.08125 62.70625 39.659374Q63.2375 40.221874 63.2375 41.346874Q63.2375 42.440624 62.690624 43.034374Q62.159374 43.6125 61.3625 43.6125Q60.596874 43.6125 60.065624 43.034374Q59.55 42.45625 59.55 41.284374ZM61.39375 39.8Q60.9875 39.8 60.721874 40.14375Q60.471874 40.4875 60.471874 41.39375Q60.471874 42.20625 60.7375 42.55Q61.003124 42.89375 61.39375 42.89375Q61.784374 42.89375 62.05 42.55Q62.315624 42.20625 62.315624 41.3Q62.315624 40.471874 62.05 40.14375Q61.784374 39.8 61.39375 39.8Z" fill-rule="nonzero"/><path fill="#000000" d="M188.06927 608.2625L189.10052 608.1219Q189.13177 609.10626 189.4599 609.46564Q189.78802 609.825 190.38177 609.825Q190.80365 609.825 191.11615 609.6375Q191.42865 609.4344 191.53802 609.10626Q191.66302 608.7625 191.66302 608.02814L191.66302 602.10626L192.78802 602.10626L192.78802 607.96564Q192.78802 609.04376 192.5224 609.6375Q192.2724 610.23126 191.7099 610.54376Q191.1474 610.84064 190.38177 610.84064Q189.25677 610.84064 188.6474 610.2Q188.05365 609.54376 188.06927 608.2625ZM198.60052 610.7L198.60052 609.77814Q197.86615 610.84064 196.61615 610.84064Q196.06927 610.84064 195.5849 610.6375Q195.11615 610.41876 194.88177 610.10626Q194.6474 609.77814 194.55365 609.3094Q194.49115 609.0125 194.49115 608.325L194.49115 604.48126L195.55365 604.48126L195.55365 607.9344Q195.55365 608.7469 195.61615 609.04376Q195.7099 609.45 196.0224 609.7Q196.35052 609.9344 196.8349 609.9344Q197.30365 609.9344 197.7099 609.7Q198.13177 609.45 198.30365 609.02814Q198.49115 608.60626 198.49115 607.8094L198.49115 604.48126L199.53802 604.48126L199.53802 610.7L198.60052 610.7ZM201.49115 610.7L201.49115 602.10626L202.55365 602.10626L202.55365 610.7L201.49115 610.7ZM204.47552 613.09064L204.35052 612.10626Q204.69427 612.2 204.9599 612.2Q205.30365 612.2 205.50677 612.075Q205.72552 611.96564 205.86615 611.7625Q205.9599 611.59064 206.19427 610.96564Q206.2099 610.8875 206.28802 610.71564L203.91302 604.48126L205.05365 604.48126L206.35052 608.075Q206.60052 608.7625 206.80365 609.52814Q206.99115 608.79376 207.24115 608.10626L208.56927 604.48126L209.61615 604.48126L207.25677 610.8094Q206.86615 611.825 206.66302 612.21564Q206.38177 612.7469 206.00677 612.98126Q205.6474 613.23126 205.1474 613.23126Q204.85052 613.23126 204.47552 613.09064ZM209.78802 610.7L209.78802 609.4969L210.99115 609.4969L210.99115 610.7Q210.99115 611.35626 210.75677 611.7625Q210.5224 612.1844 210.0224 612.40314L209.72552 611.95Q210.05365 611.8094 210.2099 611.5125Q210.36615 611.23126 210.3974 610.7L209.78802 610.7ZM220.7724 609.6844L220.7724 610.7L215.0849 610.7Q215.0849 610.325 215.2099 609.96564Q215.42865 609.3875 215.8974 608.825Q216.38177 608.2625 217.28802 607.52814Q218.69427 606.3719 219.17865 605.7Q219.67865 605.02814 219.67865 604.4344Q219.67865 603.8094 219.22552 603.3875Q218.7724 602.95 218.05365 602.95Q217.28802 602.95 216.8349 603.40314Q216.38177 603.85626 216.36615 604.66876L215.28802 604.5594Q215.3974 603.34064 216.11615 602.71564Q216.85052 602.075 218.0849 602.075Q219.31927 602.075 220.03802 602.7625Q220.75677 603.45 220.75677 604.46564Q220.75677 604.98126 220.53802 605.48126Q220.3349 605.96564 219.8349 606.52814Q219.35052 607.075 218.22552 608.02814Q217.2724 608.825 216.99115 609.1219Q216.72552 609.40314 216.55365 609.6844L220.7724 609.6844ZM222.22552 606.46564Q222.22552 604.9344 222.53802 604.0125Q222.85052 603.075 223.4599 602.575Q224.0849 602.075 225.0224 602.075Q225.7099 602.075 226.22552 602.35626Q226.75677 602.6375 227.10052 603.16876Q227.44427 603.6844 227.63177 604.4344Q227.81927 605.1844 227.81927 606.46564Q227.81927 607.98126 227.50677 608.90314Q227.2099 609.825 226.5849 610.34064Q225.97552 610.84064 225.0224 610.84064Q223.78802 610.84064 223.06927 609.95Q222.22552 608.8875 222.22552 606.46564ZM223.30365 606.46564Q223.30365 608.575 223.80365 609.27814Q224.30365 609.98126 225.0224 609.98126Q225.75677 609.98126 226.24115 609.27814Q226.74115 608.575 226.74115 606.46564Q226.74115 604.34064 226.24115 603.65314Q225.75677 602.95 225.00677 602.95Q224.28802 602.95 223.85052 603.5594Q223.30365 604.34064 223.30365 606.46564ZM234.7724 609.6844L234.7724 610.7L229.0849 610.7Q229.0849 610.325 229.2099 609.96564Q229.42865 609.3875 229.8974 608.825Q230.38177 608.2625 231.28802 607.52814Q232.69427 606.3719 233.17865 605.7Q233.67865 605.02814 233.67865 604.4344Q233.67865 603.8094 233.22552 603.3875Q232.7724 602.95 232.05365 602.95Q231.28802 602.95 230.8349 603.40314Q230.38177 603.85626 230.36615 604.66876L229.28802 604.5594Q229.3974 603.34064 230.11615 602.71564Q230.85052 602.075 232.0849 602.075Q233.31927 602.075 234.03802 602.7625Q234.75677 603.45 234.75677 604.46564Q234.75677 604.98126 234.53802 605.48126Q234.3349 605.96564 233.8349 606.52814Q233.35052 607.075 232.22552 608.02814Q231.2724 608.825 230.99115 609.1219Q230.72552 609.40314 230.55365 609.6844L234.7724 609.6844ZM240.19427 610.7L239.1474 610.7L239.1474 603.98126Q238.75677 604.34064 238.13177 604.71564Q237.5224 605.075 237.03802 605.2469L237.03802 604.23126Q237.91302 603.8094 238.56927 603.23126Q239.24115 602.6375 239.5224 602.075L240.19427 602.075L240.19427 610.7Z" fill-rule="nonzero"/><path fill="#000000" d="M391.77374 608.2625L392.805 608.1219Q392.83624 609.10626 393.16437 609.46564Q393.4925 609.825 394.08624 609.825Q394.50812 609.825 394.82062 609.6375Q395.13312 609.4344 395.2425 609.10626Q395.3675 608.7625 395.3675 608.02814L395.3675 602.10626L396.4925 602.10626L396.4925 607.96564Q396.4925 609.04376 396.22687 609.6375Q395.97687 610.23126 395.41437 610.54376Q394.85187 610.84064 394.08624 610.84064Q392.96124 610.84064 392.35187 610.2Q391.75812 609.54376 391.77374 608.2625ZM402.28937 609.9344Q401.69562 610.4344 401.14874 610.6375Q400.6175 610.84064 399.9925 610.84064Q398.96124 610.84064 398.41437 610.34064Q397.8675 609.84064 397.8675 609.0594Q397.8675 608.60626 398.07062 608.23126Q398.27374 607.84064 398.6175 607.6219Q398.96124 607.3875 399.38312 607.27814Q399.68 607.1844 400.32062 607.10626Q401.58624 606.96564 402.19562 606.7469Q402.19562 606.52814 402.19562 606.48126Q402.19562 605.825 401.89874 605.5594Q401.4925 605.21564 400.69562 605.21564Q399.96124 605.21564 399.60187 605.48126Q399.2425 605.73126 399.07062 606.3875L398.03937 606.2469Q398.18 605.59064 398.50812 605.1844Q398.83624 604.77814 399.44562 604.5594Q400.055 604.34064 400.85187 604.34064Q401.64874 604.34064 402.14874 604.52814Q402.64874 604.71564 402.88312 604.9969Q403.1175 605.27814 403.21124 605.71564Q403.25812 605.98126 403.25812 606.6844L403.25812 608.09064Q403.25812 609.5594 403.32062 609.95Q403.39874 610.34064 403.60187 610.7L402.4925 610.7Q402.33624 610.3719 402.28937 609.9344ZM402.19562 607.575Q401.6175 607.8094 400.47687 607.98126Q399.82062 608.075 399.555 608.2Q399.28937 608.3094 399.13312 608.52814Q398.9925 608.7469 398.9925 609.02814Q398.9925 609.45 399.305 609.73126Q399.63312 610.0125 400.2425 610.0125Q400.85187 610.0125 401.32062 609.7469Q401.805 609.48126 402.02374 609.0125Q402.19562 608.65314 402.19562 607.96564L402.19562 607.575ZM405.22687 610.7L405.22687 604.48126L406.16437 604.48126L406.16437 605.35626Q406.85187 604.34064 408.14874 604.34064Q408.71124 604.34064 409.18 604.54376Q409.66437 604.7469 409.89874 605.075Q410.13312 605.40314 410.22687 605.84064Q410.27374 606.1375 410.27374 606.8719L410.27374 610.7L409.22687 610.7L409.22687 606.91876Q409.22687 606.2625 409.10187 605.95Q408.97687 605.6375 408.66437 605.45Q408.35187 605.2469 407.93 605.2469Q407.25812 605.2469 406.75812 605.6844Q406.27374 606.10626 406.27374 607.29376L406.27374 610.7L405.22687 610.7ZM416.305 610.7L416.305 609.77814Q415.57062 610.84064 414.32062 610.84064Q413.77374 610.84064 413.28937 610.6375Q412.82062 610.41876 412.58624 610.10626Q412.35187 609.77814 412.25812 609.3094Q412.19562 609.0125 412.19562 608.325L412.19562 604.48126L413.25812 604.48126L413.25812 607.9344Q413.25812 608.7469 413.32062 609.04376Q413.41437 609.45 413.72687 609.7Q414.055 609.9344 414.53937 609.9344Q415.00812 609.9344 415.41437 609.7Q415.83624 609.45 416.00812 609.02814Q416.19562 608.60626 416.19562 607.8094L416.19562 604.48126L417.2425 604.48126L417.2425 610.7L416.305 610.7ZM423.28937 609.9344Q422.69562 610.4344 422.14874 610.6375Q421.6175 610.84064 420.9925 610.84064Q419.96124 610.84064 419.41437 610.34064Q418.8675 609.84064 418.8675 609.0594Q418.8675 608.60626 419.07062 608.23126Q419.27374 607.84064 419.6175 607.6219Q419.96124 607.3875 420.38312 607.27814Q420.68 607.1844 421.32062 607.10626Q422.58624 606.96564 423.19562 606.7469Q423.19562 606.52814 423.19562 606.48126Q423.19562 605.825 422.89874 605.5594Q422.4925 605.21564 421.69562 605.21564Q420.96124 605.21564 420.60187 605.48126Q420.2425 605.73126 420.07062 606.3875L419.03937 606.2469Q419.18 605.59064 419.50812 605.1844Q419.83624 604.77814 420.44562 604.5594Q421.055 604.34064 421.85187 604.34064Q422.64874 604.34064 423.14874 604.52814Q423.64874 604.71564 423.88312 604.9969Q424.1175 605.27814 424.21124 605.71564Q424.25812 605.98126 424.25812 606.6844L424.25812 608.09064Q424.25812 609.5594 424.32062 609.95Q424.39874 610.34064 424.60187 610.7L423.4925 610.7Q423.33624 610.3719 423.28937 609.9344ZM423.19562 607.575Q422.6175 607.8094 421.47687 607.98126Q420.82062 608.075 420.555 608.2Q420.28937 608.3094 420.13312 608.52814Q419.9925 608.7469 419.9925 609.02814Q419.9925 609.45 420.305 609.73126Q420.63312 610.0125 421.2425 610.0125Q421.85187 610.0125 422.32062 609.7469Q422.805 609.48126 423.02374 609.0125Q423.19562 608.65314 423.19562 607.96564L423.19562 607.575ZM426.21124 610.7L426.21124 604.48126L427.16437 604.48126L427.16437 605.41876Q427.52374 604.7625 427.82062 604.5594Q428.13312 604.34064 428.50812 604.34064Q429.03937 604.34064 429.58624 604.66876L429.22687 605.65314Q428.83624 605.41876 428.46124 605.41876Q428.10187 605.41876 427.82062 605.6375Q427.555 605.84064 427.44562 606.21564Q427.25812 606.77814 427.25812 607.4344L427.25812 610.7L426.21124 610.7ZM430.18 613.09064L430.055 612.10626Q430.39874 612.2 430.66437 612.2Q431.00812 612.2 431.21124 612.075Q431.43 611.96564 431.57062 611.7625Q431.66437 611.59064 431.89874 610.96564Q431.91437 610.8875 431.9925 610.71564L429.6175 604.48126L430.75812 604.48126L432.055 608.075Q432.305 608.7625 432.50812 609.52814Q432.69562 608.79376 432.94562 608.10626L434.27374 604.48126L435.32062 604.48126L432.96124 610.8094Q432.57062 611.825 432.3675 612.21564Q432.08624 612.7469 431.71124 612.98126Q431.35187 613.23126 430.85187 613.23126Q430.555 613.23126 430.18 613.09064ZM435.4925 610.7L435.4925 609.4969L436.69562 609.4969L436.69562 610.7Q436.69562 611.35626 436.46124 611.7625Q436.22687 612.1844 435.72687 612.40314L435.43 611.95Q435.75812 611.8094 435.91437 611.5125Q436.07062 611.23126 436.10187 610.7L435.4925 610.7ZM446.47687 609.6844L446.47687 610.7L440.78937 610.7Q440.78937 610.325 440.91437 609.96564Q441.13312 609.3875 441.60187 608.825Q442.08624 608.2625 442.9925 607.52814Q444.39874 606.3719 444.88312 605.7Q445.38312 605.02814 445.38312 604.4344Q445.38312 603.8094 444.93 603.3875Q444.47687 602.95 443.75812 602.95Q442.9925 602.95 442.53937 603.40314Q442.08624 603.85626 442.07062 604.66876L440.9925 604.5594Q441.10187 603.34064 441.82062 602.71564Q442.555 602.075 443.78937 602.075Q445.02374 602.075 445.7425 602.7625Q446.46124 603.45 446.46124 604.46564Q446.46124 604.98126 446.2425 605.48126Q446.03937 605.96564 445.53937 606.52814Q445.055 607.075 443.93 608.02814Q442.97687 608.825 442.69562 609.1219Q442.43 609.40314 442.25812 609.6844L446.47687 609.6844ZM447.93 606.46564Q447.93 604.9344 448.2425 604.0125Q448.555 603.075 449.16437 602.575Q449.78937 602.075 450.72687 602.075Q451.41437 602.075 451.93 602.35626Q452.46124 602.6375 452.805 603.16876Q453.14874 603.6844 453.33624 604.4344Q453.52374 605.1844 453.52374 606.46564Q453.52374 607.98126 453.21124 608.90314Q452.91437 609.825 452.28937 610.34064Q451.68 610.84064 450.72687 610.84064Q449.4925 610.84064 448.77374 609.95Q447.93 608.8875 447.93 606.46564ZM449.00812 606.46564Q449.00812 608.575 449.50812 609.27814Q450.00812 609.98126 450.72687 609.98126Q451.46124 609.98126 451.94562 609.27814Q452.44562 608.575 452.44562 606.46564Q452.44562 604.34064 451.94562 603.65314Q451.46124 602.95 450.71124 602.95Q449.9925 602.95 449.555 603.5594Q449.00812 604.34064 449.00812 606.46564ZM460.47687 609.6844L460.47687 610.7L454.78937 610.7Q454.78937 610.325 454.91437 609.96564Q455.13312 609.3875 455.60187 608.825Q456.08624 608.2625 456.9925 607.52814Q458.39874 606.3719 458.88312 605.7Q459.38312 605.02814 459.38312 604.4344Q459.38312 603.8094 458.93 603.3875Q458.47687 602.95 457.75812 602.95Q456.9925 602.95 456.53937 603.40314Q456.08624 603.85626 456.07062 604.66876L454.9925 604.5594Q455.10187 603.34064 455.82062 602.71564Q456.555 602.075 457.78937 602.075Q459.02374 602.075 459.7425 602.7625Q460.46124 603.45 460.46124 604.46564Q460.46124 604.98126 460.2425 605.48126Q460.03937 605.96564 459.53937 606.52814Q459.055 607.075 457.93 608.02814Q456.97687 608.825 456.69562 609.1219Q456.43 609.40314 456.25812 609.6844L460.47687 609.6844ZM467.47687 609.6844L467.47687 610.7L461.78937 610.7Q461.78937 610.325 461.91437 609.96564Q462.13312 609.3875 462.60187 608.825Q463.08624 608.2625 463.9925 607.52814Q465.39874 606.3719 465.88312 605.7Q466.38312 605.02814 466.38312 604.4344Q466.38312 603.8094 465.93 603.3875Q465.47687 602.95 464.75812 602.95Q463.9925 602.95 463.53937 603.40314Q463.08624 603.85626 463.07062 604.66876L461.9925 604.5594Q462.10187 603.34064 462.82062 602.71564Q463.555 602.075 464.78937 602.075Q466.02374 602.075 466.7425 602.7625Q467.46124 603.45 467.46124 604.46564Q467.46124 604.98126 467.2425 605.48126Q467.03937 605.96564 466.53937 606.52814Q466.055 607.075 464.93 608.02814Q463.97687 608.825 463.69562 609.1219Q463.43 609.40314 463.25812 609.6844L467.47687 609.6844Z" fill-rule="nonzero"/><path fill="#000000" d="M617.4782 608.2625L618.50946 608.1219Q618.5407 609.10626 618.86884 609.46564Q619.19696 609.825 619.7907 609.825Q620.2126 609.825 620.5251 609.6375Q620.8376 609.4344 620.94696 609.10626Q621.07196 608.7625 621.07196 608.02814L621.07196 602.10626L622.19696 602.10626L622.19696 607.96564Q622.19696 609.04376 621.93134 609.6375Q621.68134 610.23126 621.11884 610.54376Q620.55634 610.84064 619.7907 610.84064Q618.6657 610.84064 618.05634 610.2Q617.4626 609.54376 617.4782 608.2625ZM628.00946 610.7L628.00946 609.77814Q627.2751 610.84064 626.0251 610.84064Q625.4782 610.84064 624.99384 610.6375Q624.5251 610.41876 624.2907 610.10626Q624.05634 609.77814 623.9626 609.3094Q623.9001 609.0125 623.9001 608.325L623.9001 604.48126L624.9626 604.48126L624.9626 607.9344Q624.9626 608.7469 625.0251 609.04376Q625.11884 609.45 625.43134 609.7Q625.75946 609.9344 626.24384 609.9344Q626.7126 609.9344 627.11884 609.7Q627.5407 609.45 627.7126 609.02814Q627.9001 608.60626 627.9001 607.8094L627.9001 604.48126L628.94696 604.48126L628.94696 610.7L628.00946 610.7ZM630.9001 610.7L630.9001 602.10626L631.9626 602.10626L631.9626 610.7L630.9001 610.7ZM633.88446 613.09064L633.75946 612.10626Q634.1032 612.2 634.36884 612.2Q634.7126 612.2 634.9157 612.075Q635.13446 611.96564 635.2751 611.7625Q635.36884 611.59064 635.6032 610.96564Q635.61884 610.8875 635.69696 610.71564L633.32196 604.48126L634.4626 604.48126L635.75946 608.075Q636.00946 608.7625 636.2126 609.52814Q636.4001 608.79376 636.6501 608.10626L637.9782 604.48126L639.0251 604.48126L636.6657 610.8094Q636.2751 611.825 636.07196 612.21564Q635.7907 612.7469 635.4157 612.98126Q635.05634 613.23126 634.55634 613.23126Q634.25946 613.23126 633.88446 613.09064ZM639.19696 610.7L639.19696 609.4969L640.4001 609.4969L640.4001 610.7Q640.4001 611.35626 640.1657 611.7625Q639.93134 612.1844 639.43134 612.40314L639.13446 611.95Q639.4626 611.8094 639.61884 611.5125Q639.7751 611.23126 639.80634 610.7L639.19696 610.7ZM650.18134 609.6844L650.18134 610.7L644.49384 610.7Q644.49384 610.325 644.61884 609.96564Q644.8376 609.3875 645.30634 608.825Q645.7907 608.2625 646.69696 607.52814Q648.1032 606.3719 648.5876 605.7Q649.0876 605.02814 649.0876 604.4344Q649.0876 603.8094 648.63446 603.3875Q648.18134 602.95 647.4626 602.95Q646.69696 602.95 646.24384 603.40314Q645.7907 603.85626 645.7751 604.66876L644.69696 604.5594Q644.80634 603.34064 645.5251 602.71564Q646.25946 602.075 647.49384 602.075Q648.7282 602.075 649.44696 602.7625Q650.1657 603.45 650.1657 604.46564Q650.1657 604.98126 649.94696 605.48126Q649.74384 605.96564 649.24384 606.52814Q648.75946 607.075 647.63446 608.02814Q646.68134 608.825 646.4001 609.1219Q646.13446 609.40314 645.9626 609.6844L650.18134 609.6844ZM651.63446 606.46564Q651.63446 604.9344 651.94696 604.0125Q652.25946 603.075 652.86884 602.575Q653.49384 602.075 654.43134 602.075Q655.11884 602.075 655.63446 602.35626Q656.1657 602.6375 656.50946 603.16876Q656.8532 603.6844 657.0407 604.4344Q657.2282 605.1844 657.2282 606.46564Q657.2282 607.98126 656.9157 608.90314Q656.61884 609.825 655.99384 610.34064Q655.38446 610.84064 654.43134 610.84064Q653.19696 610.84064 652.4782 609.95Q651.63446 608.8875 651.63446 606.46564ZM652.7126 606.46564Q652.7126 608.575 653.2126 609.27814Q653.7126 609.98126 654.43134 609.98126Q655.1657 609.98126 655.6501 609.27814Q656.1501 608.575 656.1501 606.46564Q656.1501 604.34064 655.6501 603.65314Q655.1657 602.95 654.4157 602.95Q653.69696 602.95 653.25946 603.5594Q652.7126 604.34064 652.7126 606.46564ZM664.18134 609.6844L664.18134 610.7L658.49384 610.7Q658.49384 610.325 658.61884 609.96564Q658.8376 609.3875 659.30634 608.825Q659.7907 608.2625 660.69696 607.52814Q662.1032 606.3719 662.5876 605.7Q663.0876 605.02814 663.0876 604.4344Q663.0876 603.8094 662.63446 603.3875Q662.18134 602.95 661.4626 602.95Q660.69696 602.95 660.24384 603.40314Q659.7907 603.85626 659.7751 604.66876L658.69696 604.5594Q658.80634 603.34064 659.5251 602.71564Q660.25946 602.075 661.49384 602.075Q662.7282 602.075 663.44696 602.7625Q664.1657 603.45 664.1657 604.46564Q664.1657 604.98126 663.94696 605.48126Q663.74384 605.96564 663.24384 606.52814Q662.75946 607.075 661.63446 608.02814Q660.68134 608.825 660.4001 609.1219Q660.13446 609.40314 659.9626 609.6844L664.18134 609.6844ZM671.18134 609.6844L671.18134 610.7L665.49384 610.7Q665.49384 610.325 665.61884 609.96564Q665.8376 609.3875 666.30634 608.825Q666.7907 608.2625 667.69696 607.52814Q669.1032 606.3719 669.5876 605.7Q670.0876 605.02814 670.0876 604.4344Q670.0876 603.8094 669.63446 603.3875Q669.18134 602.95 668.4626 602.95Q667.69696 602.95 667.24384 603.40314Q666.7907 603.85626 666.7751 604.66876L665.69696 604.5594Q665.80634 603.34064 666.5251 602.71564Q667.25946 602.075 668.49384 602.075Q669.7282 602.075 670.44696 602.7625Q671.1657 603.45 671.1657 604.46564Q671.1657 604.98126 670.94696 605.48126Q670.74384 605.96564 670.24384 606.52814Q669.75946 607.075 668.63446 608.02814Q667.68134 608.825 667.4001 609.1219Q667.13446 609.40314 666.9626 609.6844L671.18134 609.6844Z" fill-rule="nonzero"/><path fill="#b3cefb" d="M828.32 34.3C828.32 33.747715 828.7677 33.3 829.32 33.3L839.32 33.3C839.8723 33.3 840.32 33.747715 840.32 34.3L840.32 44.3C840.32 44.852283 839.8723 45.3 839.32 45.3L829.32 45.3C828.7677 45.3 828.32 44.852283 828.32 44.3Z" fill-rule="nonzero"/><path fill="#1a1a1a" d="M848.82 41.05L849.9294 40.95625Q850.0544 41.76875 850.4919 42.175Q850.945 42.58125 851.58563 42.58125Q852.33563 42.58125 852.8669 42.003124Q853.39813 41.425 853.39813 40.4875Q853.39813 39.58125 852.8825 39.065624Q852.3825 38.534374 851.5544 38.534374Q851.0544 38.534374 850.6325 38.76875Q850.22626 39.003124 849.9919 39.3625L849.0075 39.2375L849.83563 34.83125L854.1169 34.83125L854.1169 35.83125L850.6794 35.83125L850.22626 38.14375Q850.9919 37.596874 851.83563 37.596874Q852.96063 37.596874 853.72626 38.378124Q854.5075 39.159374 854.5075 40.39375Q854.5075 41.55 853.83563 42.409374Q853.0075 43.440624 851.58563 43.440624Q850.41376 43.440624 849.66376 42.784374Q848.9294 42.128124 848.82 41.05ZM856.41376 43.3L856.41376 42.096874L857.6169 42.096874L857.6169 43.3L856.41376 43.3ZM858.82 39.065624Q858.82 37.534374 859.1325 36.6125Q859.445 35.675 860.0544 35.175Q860.6794 34.675 861.6169 34.675Q862.3044 34.675 862.82 34.95625Q863.35126 35.2375 863.695 35.76875Q864.03876 36.284374 864.22626 37.034374Q864.41376 37.784374 864.41376 39.065624Q864.41376 40.58125 864.10126 41.503124Q863.8044 42.425 863.1794 42.940624Q862.57 43.440624 861.6169 43.440624Q860.3825 43.440624 859.66376 42.55Q858.82 41.4875 858.82 39.065624ZM859.89813 39.065624Q859.89813 41.175 860.39813 41.878124Q860.89813 42.58125 861.6169 42.58125Q862.35126 42.58125 862.83563 41.878124Q863.33563 41.175 863.33563 39.065624Q863.33563 36.940624 862.83563 36.253124Q862.35126 35.55 861.60126 35.55Q860.8825 35.55 860.445 36.159374Q859.89813 36.940624 859.89813 39.065624Z" fill-rule="nonzero"/><path fill="#cfe2f3" d="M828.32 58.3C828.32 57.747715 828.7677 57.3 829.32 57.3L839.32 57.3C839.8723 57.3 840.32 57.747715 840.32 58.3L840.32 68.3C840.32 68.85229 839.8723 69.3 839.32 69.3L829.32 69.3C828.7677 69.3 828.32 68.85229 828.32 68.3Z" fill-rule="nonzero"/><path fill="#1a1a1a" d="M848.82 65.05L849.9294 64.95625Q850.0544 65.76875 850.4919 66.175Q850.945 66.58125 851.58563 66.58125Q852.33563 66.58125 852.8669 66.00313Q853.39813 65.425 853.39813 64.4875Q853.39813 63.581253 852.8825 63.065628Q852.3825 62.534378 851.5544 62.534378Q851.0544 62.534378 850.6325 62.768753Q850.22626 63.003128 849.9919 63.362503L849.0075 63.237503L849.83563 58.831253L854.1169 58.831253L854.1169 59.831253L850.6794 59.831253L850.22626 62.143753Q850.9919 61.596878 851.83563 61.596878Q852.96063 61.596878 853.72626 62.378128Q854.5075 63.159378 854.5075 64.39375Q854.5075 65.55 853.83563 66.40938Q853.0075 67.44063 851.58563 67.44063Q850.41376 67.44063 849.66376 66.78438Q848.9294 66.12813 848.82 65.05ZM856.41376 67.3L856.41376 66.09688L857.6169 66.09688L857.6169 67.3L856.41376 67.3ZM864.3669 66.28438L864.3669 67.3L858.6794 67.3Q858.6794 66.925 858.8044 66.56563Q859.02313 65.9875 859.4919 65.425Q859.97626 64.8625 860.8825 64.12813Q862.28876 62.971878 862.77313 62.300003Q863.27313 61.628128 863.27313 61.034378Q863.27313 60.409378 862.82 59.987503Q862.3669 59.550003 861.64813 59.550003Q860.8825 59.550003 860.4294 60.003128Q859.97626 60.456253 859.96063 61.268753L858.8825 61.159378Q858.9919 59.940628 859.71063 59.315628Q860.445 58.675003 861.6794 58.675003Q862.91376 58.675003 863.6325 59.362503Q864.35126 60.050003 864.35126 61.065628Q864.35126 61.581253 864.1325 62.081253Q863.9294 62.565628 863.4294 63.128128Q862.945 63.675003 861.82 64.62813Q860.8669 65.425 860.58563 65.72188Q860.32 66.00313 860.14813 66.28438L864.3669 66.28438Z" fill-rule="nonzero"/><path fill="#a4c2f4" d="M828.32 82.3C828.32 81.74772 828.7677 81.3 829.32 81.3L839.32 81.3C839.8723 81.3 840.32 81.74772 840.32 82.3L840.32 92.3C840.32 92.85229 839.8723 93.3 839.32 93.3L829.32 93.3C828.7677 93.3 828.32 92.85229 828.32 92.3Z" fill-rule="nonzero"/><path fill="#1a1a1a" d="M848.82 89.05L849.9294 88.95625Q850.0544 89.76875 850.4919 90.175Q850.945 90.58125 851.58563 90.58125Q852.33563 90.58125 852.8669 90.00313Q853.39813 89.425 853.39813 88.4875Q853.39813 87.58125 852.8825 87.06563Q852.3825 86.53438 851.5544 86.53438Q851.0544 86.53438 850.6325 86.76875Q850.22626 87.00313 849.9919 87.3625L849.0075 87.2375L849.83563 82.83125L854.1169 82.83125L854.1169 83.83125L850.6794 83.83125L850.22626 86.14375Q850.9919 85.59688 851.83563 85.59688Q852.96063 85.59688 853.72626 86.37813Q854.5075 87.15938 854.5075 88.39375Q854.5075 89.55 853.83563 90.40938Q853.0075 91.44063 851.58563 91.44063Q850.41376 91.44063 849.66376 90.78438Q848.9294 90.12813 848.82 89.05ZM856.41376 91.3L856.41376 90.09688L857.6169 90.09688L857.6169 91.3L856.41376 91.3ZM858.82 89.03438L859.8825 88.89375Q860.0544 89.78438 860.4919 90.19063Q860.9294 90.58125 861.5544 90.58125Q862.3044 90.58125 862.82 90.06563Q863.33563 89.55 863.33563 88.78438Q863.33563 88.06563 862.85126 87.59688Q862.3825 87.1125 861.64813 87.1125Q861.35126 87.1125 860.89813 87.2375L861.02313 86.3Q861.1325 86.31563 861.195 86.31563Q861.8669 86.31563 862.39813 85.97188Q862.945 85.6125 862.945 84.87813Q862.945 84.3 862.5544 83.925Q862.16376 83.53438 861.53876 83.53438Q860.9294 83.53438 860.5075 83.925Q860.10126 84.31563 859.9919 85.08125L858.9294 84.89375Q859.1169 83.84688 859.8044 83.26875Q860.4919 82.675 861.5075 82.675Q862.21063 82.675 862.8044 82.9875Q863.39813 83.28438 863.71063 83.8Q864.02313 84.31563 864.02313 84.90938Q864.02313 85.45625 863.72626 85.925Q863.4294 86.37813 862.85126 86.64375Q863.60126 86.81563 864.02313 87.37813Q864.445 87.925 864.445 88.76875Q864.445 89.89375 863.6169 90.675Q862.8044 91.45625 861.5544 91.45625Q860.4294 91.45625 859.6794 90.78438Q858.9294 90.09688 858.82 89.03438Z" fill-rule="nonzero"/><path fill="#4285f4" d="M828.32 106.3C828.32 105.74772 828.7677 105.3 829.32 105.3L839.32 105.3C839.8723 105.3 840.32 105.74772 840.32 106.3L840.32 116.3C840.32 116.85229 839.8723 117.3 839.32 117.3L829.32 117.3C828.7677 117.3 828.32 116.85229 828.32 116.3Z" fill-rule="nonzero"/><path fill="#1a1a1a" d="M848.82 113.05L849.9294 112.95625Q850.0544 113.76875 850.4919 114.175Q850.945 114.58125 851.58563 114.58125Q852.33563 114.58125 852.8669 114.00313Q853.39813 113.425 853.39813 112.4875Q853.39813 111.58125 852.8825 111.06563Q852.3825 110.53438 851.5544 110.53438Q851.0544 110.53438 850.6325 110.76875Q850.22626 111.00313 849.9919 111.3625L849.0075 111.2375L849.83563 106.83125L854.1169 106.83125L854.1169 107.83125L850.6794 107.83125L850.22626 110.14375Q850.9919 109.59688 851.83563 109.59688Q852.96063 109.59688 853.72626 110.37813Q854.5075 111.15938 854.5075 112.39375Q854.5075 113.55 853.83563 114.40938Q853.0075 115.44063 851.58563 115.44063Q850.41376 115.44063 849.66376 114.78438Q848.9294 114.12813 848.82 113.05ZM856.41376 115.3L856.41376 114.09688L857.6169 114.09688L857.6169 115.3L856.41376 115.3ZM862.195 115.3L862.195 113.2375L858.47626 113.2375L858.47626 112.26875L862.39813 106.70625L863.2575 106.70625L863.2575 112.26875L864.41376 112.26875L864.41376 113.2375L863.2575 113.2375L863.2575 115.3L862.195 115.3ZM862.195 112.26875L862.195 108.40938L859.5075 112.26875L862.195 112.26875Z" fill-rule="nonzero"/><path fill="#6d9eeb" d="M828.32 130.3C828.32 129.74771 828.7677 129.3 829.32 129.3L839.32 129.3C839.8723 129.3 840.32 129.74771 840.32 130.3L840.32 140.3C840.32 140.85228 839.8723 141.3 839.32 141.3L829.32 141.3C828.7677 141.3 828.32 140.85228 828.32 140.3Z" fill-rule="nonzero"/><path fill="#1a1a1a" d="M848.82 137.05L849.9294 136.95625Q850.0544 137.76875 850.4919 138.175Q850.945 138.58125 851.58563 138.58125Q852.33563 138.58125 852.8669 138.00313Q853.39813 137.425 853.39813 136.4875Q853.39813 135.58125 852.8825 135.06563Q852.3825 134.53438 851.5544 134.53438Q851.0544 134.53438 850.6325 134.76875Q850.22626 135.00313 849.9919 135.3625L849.0075 135.2375L849.83563 130.83125L854.1169 130.83125L854.1169 131.83125L850.6794 131.83125L850.22626 134.14375Q850.9919 133.59688 851.83563 133.59688Q852.96063 133.59688 853.72626 134.37813Q854.5075 135.15938 854.5075 136.39375Q854.5075 137.55 853.83563 138.40938Q853.0075 139.44063 851.58563 139.44063Q850.41376 139.44063 849.66376 138.78438Q848.9294 138.12813 848.82 137.05ZM856.41376 139.3L856.41376 138.09688L857.6169 138.09688L857.6169 139.3L856.41376 139.3ZM858.82 137.05L859.9294 136.95625Q860.0544 137.76875 860.4919 138.175Q860.945 138.58125 861.58563 138.58125Q862.33563 138.58125 862.8669 138.00313Q863.39813 137.425 863.39813 136.4875Q863.39813 135.58125 862.8825 135.06563Q862.3825 134.53438 861.5544 134.53438Q861.0544 134.53438 860.6325 134.76875Q860.22626 135.00313 859.9919 135.3625L859.0075 135.2375L859.83563 130.83125L864.1169 130.83125L864.1169 131.83125L860.6794 131.83125L860.22626 134.14375Q860.9919 133.59688 861.83563 133.59688Q862.96063 133.59688 863.72626 134.37813Q864.5075 135.15938 864.5075 136.39375Q864.5075 137.55 863.83563 138.40938Q863.0075 139.44063 861.58563 139.44063Q860.41376 139.44063 859.66376 138.78438Q858.9294 138.12813 858.82 137.05Z" fill-rule="nonzero"/><path fill="#6fa8dc" d="M828.32 154.3C828.32 153.74771 828.7677 153.3 829.32 153.3L839.32 153.3C839.8723 153.3 840.32 153.74771 840.32 154.3L840.32 164.3C840.32 164.85228 839.8723 165.3 839.32 165.3L829.32 165.3C828.7677 165.3 828.32 164.85228 828.32 164.3Z" fill-rule="nonzero"/><path fill="#1a1a1a" d="M848.82 161.05L849.9294 160.95625Q850.0544 161.76875 850.4919 162.175Q850.945 162.58125 851.58563 162.58125Q852.33563 162.58125 852.8669 162.00313Q853.39813 161.425 853.39813 160.4875Q853.39813 159.58125 852.8825 159.06563Q852.3825 158.53438 851.5544 158.53438Q851.0544 158.53438 850.6325 158.76875Q850.22626 159.00313 849.9919 159.3625L849.0075 159.2375L849.83563 154.83125L854.1169 154.83125L854.1169 155.83125L850.6794 155.83125L850.22626 158.14375Q850.9919 157.59688 851.83563 157.59688Q852.96063 157.59688 853.72626 158.37813Q854.5075 159.15938 854.5075 160.39375Q854.5075 161.55 853.83563 162.40938Q853.0075 163.44063 851.58563 163.44063Q850.41376 163.44063 849.66376 162.78438Q848.9294 162.12813 848.82 161.05ZM856.41376 163.3L856.41376 162.09688L857.6169 162.09688L857.6169 163.3L856.41376 163.3ZM864.28876 156.81563L863.2419 156.89375Q863.10126 156.26875 862.85126 155.9875Q862.41376 155.53438 861.78876 155.53438Q861.28876 155.53438 860.89813 155.81563Q860.41376 156.19063 860.1169 156.89375Q859.83563 157.58125 859.82 158.8625Q860.195 158.28438 860.7419 158.00313Q861.3044 157.72188 861.91376 157.72188Q862.96063 157.72188 863.695 158.50313Q864.445 159.28438 864.445 160.50313Q864.445 161.31563 864.08563 162.01875Q863.7419 162.70625 863.1325 163.08125Q862.52313 163.44063 861.7575 163.44063Q860.4294 163.44063 859.60126 162.47188Q858.77313 161.50313 858.77313 159.28438Q858.77313 156.78438 859.695 155.65938Q860.4919 154.675 861.85126 154.675Q862.8669 154.675 863.5075 155.25313Q864.16376 155.81563 864.28876 156.81563ZM859.9919 160.51875Q859.9919 161.06563 860.21063 161.56563Q860.445 162.05 860.85126 162.31563Q861.27313 162.58125 861.7419 162.58125Q862.39813 162.58125 862.8825 162.05Q863.3669 161.50313 863.3669 160.58125Q863.3669 159.69063 862.8825 159.175Q862.41376 158.65938 861.695 158.65938Q860.97626 158.65938 860.47626 159.175Q859.9919 159.69063 859.9919 160.51875Z" fill-rule="nonzero"/><path fill="#ea4335" d="M828.32 178.3C828.32 177.74771 828.7677 177.3 829.32 177.3L839.32 177.3C839.8723 177.3 840.32 177.74771 840.32 178.3L840.32 188.3C840.32 188.85228 839.8723 189.3 839.32 189.3L829.32 189.3C828.7677 189.3 828.32 188.85228 828.32 188.3Z" fill-rule="nonzero"/><path fill="#1a1a1a" d="M848.8825 179.83125L848.8825 178.81563L854.445 178.81563L854.445 179.64375Q853.6325 180.51875 852.82 181.97188Q852.02313 183.40938 851.58563 184.94063Q851.2575 186.01875 851.1794 187.3L850.08563 187.3Q850.10126 186.28438 850.47626 184.84688Q850.8669 183.40938 851.57 182.08125Q852.28876 180.75313 853.10126 179.83125L848.8825 179.83125ZM856.41376 187.3L856.41376 186.09688L857.6169 186.09688L857.6169 187.3L856.41376 187.3ZM858.82 183.06563Q858.82 181.53438 859.1325 180.6125Q859.445 179.675 860.0544 179.175Q860.6794 178.675 861.6169 178.675Q862.3044 178.675 862.82 178.95625Q863.35126 179.2375 863.695 179.76875Q864.03876 180.28438 864.22626 181.03438Q864.41376 181.78438 864.41376 183.06563Q864.41376 184.58125 864.10126 185.50313Q863.8044 186.425 863.1794 186.94063Q862.57 187.44063 861.6169 187.44063Q860.3825 187.44063 859.66376 186.55Q858.82 185.4875 858.82 183.06563ZM859.89813 183.06563Q859.89813 185.175 860.39813 185.87813Q860.89813 186.58125 861.6169 186.58125Q862.35126 186.58125 862.83563 185.87813Q863.33563 185.175 863.33563 183.06563Q863.33563 180.94063 862.83563 180.25313Q862.35126 179.55 861.60126 179.55Q860.8825 179.55 860.445 180.15938Q859.89813 180.94063 859.89813 183.06563Z" fill-rule="nonzero"/><path fill="#f6b26b" d="M828.32 202.3C828.32 201.74771 828.7677 201.3 829.32 201.3L839.32 201.3C839.8723 201.3 840.32 201.74771 840.32 202.3L840.32 212.3C840.32 212.85228 839.8723 213.3 839.32 213.3L829.32 213.3C828.7677 213.3 828.32 212.85228 828.32 212.3Z" fill-rule="nonzero"/><path fill="#1a1a1a" d="M848.8825 203.83125L848.8825 202.81563L854.445 202.81563L854.445 203.64375Q853.6325 204.51875 852.82 205.97188Q852.02313 207.40938 851.58563 208.94063Q851.2575 210.01875 851.1794 211.3L850.08563 211.3Q850.10126 210.28438 850.47626 208.84688Q850.8669 207.40938 851.57 206.08125Q852.28876 204.75313 853.10126 203.83125L848.8825 203.83125ZM856.41376 211.3L856.41376 210.09688L857.6169 210.09688L857.6169 211.3L856.41376 211.3ZM862.78876 211.3L861.7419 211.3L861.7419 204.58125Q861.35126 204.94063 860.72626 205.31563Q860.1169 205.675 859.6325 205.84688L859.6325 204.83125Q860.5075 204.40938 861.16376 203.83125Q861.83563 203.2375 862.1169 202.675L862.78876 202.675L862.78876 211.3Z" fill-rule="nonzero"/><path fill="#cc0000" d="M828.32 226.3C828.32 225.74771 828.7677 225.3 829.32 225.3L839.32 225.3C839.8723 225.3 840.32 225.74771 840.32 226.3L840.32 236.3C840.32 236.85228 839.8723 237.3 839.32 237.3L829.32 237.3C828.7677 237.3 828.32 236.85228 828.32 236.3Z" fill-rule="nonzero"/><path fill="#1a1a1a" d="M848.8825 227.83125L848.8825 226.81563L854.445 226.81563L854.445 227.64375Q853.6325 228.51875 852.82 229.97188Q852.02313 231.40938 851.58563 232.94063Q851.2575 234.01875 851.1794 235.3L850.08563 235.3Q850.10126 234.28438 850.47626 232.84688Q850.8669 231.40938 851.57 230.08125Q852.28876 228.75313 853.10126 227.83125L848.8825 227.83125ZM856.41376 235.3L856.41376 234.09688L857.6169 234.09688L857.6169 235.3L856.41376 235.3ZM864.3669 234.28438L864.3669 235.3L858.6794 235.3Q858.6794 234.925 858.8044 234.56563Q859.02313 233.9875 859.4919 233.425Q859.97626 232.8625 860.8825 232.12813Q862.28876 230.97188 862.77313 230.3Q863.27313 229.62813 863.27313 229.03438Q863.27313 228.40938 862.82 227.9875Q862.3669 227.55 861.64813 227.55Q860.8825 227.55 860.4294 228.00313Q859.97626 228.45625 859.96063 229.26875L858.8825 229.15938Q858.9919 227.94063 859.71063 227.31563Q860.445 226.675 861.6794 226.675Q862.91376 226.675 863.6325 227.3625Q864.35126 228.05 864.35126 229.06563Q864.35126 229.58125 864.1325 230.08125Q863.9294 230.56563 863.4294 231.12813Q862.945 231.675 861.82 232.62813Q860.8669 233.425 860.58563 233.72188Q860.32 234.00313 860.14813 234.28438L864.3669 234.28438Z" fill-rule="nonzero"/><path fill="#e06666" d="M828.32 250.3C828.32 249.74771 828.7677 249.3 829.32 249.3L839.32 249.3C839.8723 249.3 840.32 249.74771 840.32 250.3L840.32 260.3C840.32 260.8523 839.8723 261.3 839.32 261.3L829.32 261.3C828.7677 261.3 828.32 260.8523 828.32 260.3Z" fill-rule="nonzero"/><path fill="#1a1a1a" d="M848.8825 251.83124L848.8825 250.81561L854.445 250.81561L854.445 251.64374Q853.6325 252.51874 852.82 253.97186Q852.02313 255.40936 851.58563 256.9406Q851.2575 258.01874 851.1794 259.3L850.08563 259.3Q850.10126 258.28436 850.47626 256.84686Q850.8669 255.40936 851.57 254.08124Q852.28876 252.75311 853.10126 251.83124L848.8825 251.83124ZM856.41376 259.3L856.41376 258.09686L857.6169 258.09686L857.6169 259.3L856.41376 259.3ZM858.82 257.03436L859.8825 256.89374Q860.0544 257.78436 860.4919 258.1906Q860.9294 258.58124 861.5544 258.58124Q862.3044 258.58124 862.82 258.0656Q863.33563 257.55 863.33563 256.78436Q863.33563 256.0656 862.85126 255.59686Q862.3825 255.11249 861.64813 255.11249Q861.35126 255.11249 860.89813 255.23749L861.02313 254.29999Q861.1325 254.31561 861.195 254.31561Q861.8669 254.31561 862.39813 253.97186Q862.945 253.61249 862.945 252.87811Q862.945 252.29999 862.5544 251.92499Q862.16376 251.53436 861.53876 251.53436Q860.9294 251.53436 860.5075 251.92499Q860.10126 252.31561 859.9919 253.08124L858.9294 252.89374Q859.1169 251.84686 859.8044 251.26874Q860.4919 250.67499 861.5075 250.67499Q862.21063 250.67499 862.8044 250.98749Q863.39813 251.28436 863.71063 251.79999Q864.02313 252.31561 864.02313 252.90936Q864.02313 253.45624 863.72626 253.92499Q863.4294 254.37811 862.85126 254.64374Q863.60126 254.81561 864.02313 255.37811Q864.445 255.92499 864.445 256.76874Q864.445 257.89374 863.6169 258.675Q862.8044 259.45624 861.5544 259.45624Q860.4294 259.45624 859.6794 258.78436Q858.9294 258.09686 858.82 257.03436Z" fill-rule="nonzero"/><path fill="#ff9900" d="M828.32 274.3C828.32 273.7477 828.7677 273.3 829.32 273.3L839.32 273.3C839.8723 273.3 840.32 273.7477 840.32 274.3L840.32 284.3C840.32 284.8523 839.8723 285.3 839.32 285.3L829.32 285.3C828.7677 285.3 828.32 284.8523 828.32 284.3Z" fill-rule="nonzero"/><path fill="#1a1a1a" d="M848.8825 275.83124L848.8825 274.8156L854.445 274.8156L854.445 275.64374Q853.6325 276.51874 852.82 277.97186Q852.02313 279.40936 851.58563 280.9406Q851.2575 282.01874 851.1794 283.3L850.08563 283.3Q850.10126 282.28436 850.47626 280.84686Q850.8669 279.40936 851.57 278.08124Q852.28876 276.7531 853.10126 275.83124L848.8825 275.83124ZM856.41376 283.3L856.41376 282.09686L857.6169 282.09686L857.6169 283.3L856.41376 283.3ZM862.195 283.3L862.195 281.2375L858.47626 281.2375L858.47626 280.26874L862.39813 274.70624L863.2575 274.70624L863.2575 280.26874L864.41376 280.26874L864.41376 281.2375L863.2575 281.2375L863.2575 283.3L862.195 283.3ZM862.195 280.26874L862.195 276.40936L859.5075 280.26874L862.195 280.26874Z" fill-rule="nonzero"/><path fill="#34a853" d="M828.32 298.3C828.32 297.7477 828.7677 297.3 829.32 297.3L839.32 297.3C839.8723 297.3 840.32 297.7477 840.32 298.3L840.32 308.3C840.32 308.8523 839.8723 309.3 839.32 309.3L829.32 309.3C828.7677 309.3 828.32 308.8523 828.32 308.3Z" fill-rule="nonzero"/><path fill="#1a1a1a" d="M850.445 302.64374Q849.78876 302.39374 849.46063 301.95624Q849.14813 301.5031 849.14813 300.89374Q849.14813 299.95624 849.82 299.3156Q850.5075 298.675 851.6169 298.675Q852.7419 298.675 853.4294 299.33124Q854.1169 299.9875 854.1169 300.925Q854.1169 301.51874 853.8044 301.95624Q853.4919 302.39374 852.85126 302.64374Q853.64813 302.89374 854.0544 303.47186Q854.46063 304.05 854.46063 304.84686Q854.46063 305.9406 853.6794 306.6906Q852.91376 307.4406 851.6325 307.4406Q850.3669 307.4406 849.58563 306.6906Q848.8044 305.9406 848.8044 304.8156Q848.8044 303.97186 849.22626 303.40936Q849.66376 302.84686 850.445 302.64374ZM850.22626 300.84686Q850.22626 301.45624 850.6169 301.84686Q851.02313 302.2375 851.64813 302.2375Q852.2575 302.2375 852.64813 301.8625Q853.03876 301.47186 853.03876 300.90936Q853.03876 300.33124 852.6325 299.9406Q852.22626 299.53436 851.6325 299.53436Q851.02313 299.53436 850.6169 299.925Q850.22626 300.3156 850.22626 300.84686ZM849.89813 304.8156Q849.89813 305.26874 850.10126 305.6906Q850.32 306.1125 850.7419 306.34686Q851.16376 306.58124 851.64813 306.58124Q852.39813 306.58124 852.8825 306.09686Q853.3825 305.6125 853.3825 304.8625Q853.3825 304.09686 852.8825 303.59686Q852.3825 303.09686 851.6169 303.09686Q850.8669 303.09686 850.3825 303.59686Q849.89813 304.08124 849.89813 304.8156ZM856.41376 307.3L856.41376 306.09686L857.6169 306.09686L857.6169 307.3L856.41376 307.3ZM858.82 303.0656Q858.82 301.53436 859.1325 300.6125Q859.445 299.675 860.0544 299.175Q860.6794 298.675 861.6169 298.675Q862.3044 298.675 862.82 298.95624Q863.35126 299.2375 863.695 299.76874Q864.03876 300.28436 864.22626 301.03436Q864.41376 301.78436 864.41376 303.0656Q864.41376 304.58124 864.10126 305.5031Q863.8044 306.425 863.1794 306.9406Q862.57 307.4406 861.6169 307.4406Q860.3825 307.4406 859.66376 306.55Q858.82 305.4875 858.82 303.0656ZM859.89813 303.0656Q859.89813 305.175 860.39813 305.8781Q860.89813 306.58124 861.6169 306.58124Q862.35126 306.58124 862.83563 305.8781Q863.33563 305.175 863.33563 303.0656Q863.33563 300.9406 862.83563 300.2531Q862.35126 299.55 861.60126 299.55Q860.8825 299.55 860.445 300.15936Q859.89813 300.9406 859.89813 303.0656Z" fill-rule="nonzero"/><path fill="#b6d7a8" d="M828.32 322.3C828.32 321.7477 828.7677 321.3 829.32 321.3L839.32 321.3C839.8723 321.3 840.32 321.7477 840.32 322.3L840.32 332.3C840.32 332.8523 839.8723 333.3 839.32 333.3L829.32 333.3C828.7677 333.3 828.32 332.8523 828.32 332.3Z" fill-rule="nonzero"/><path fill="#1a1a1a" d="M850.445 326.64374Q849.78876 326.39374 849.46063 325.95624Q849.14813 325.5031 849.14813 324.89374Q849.14813 323.95624 849.82 323.3156Q850.5075 322.675 851.6169 322.675Q852.7419 322.675 853.4294 323.33124Q854.1169 323.9875 854.1169 324.925Q854.1169 325.51874 853.8044 325.95624Q853.4919 326.39374 852.85126 326.64374Q853.64813 326.89374 854.0544 327.47186Q854.46063 328.05 854.46063 328.84686Q854.46063 329.9406 853.6794 330.6906Q852.91376 331.4406 851.6325 331.4406Q850.3669 331.4406 849.58563 330.6906Q848.8044 329.9406 848.8044 328.8156Q848.8044 327.97186 849.22626 327.40936Q849.66376 326.84686 850.445 326.64374ZM850.22626 324.84686Q850.22626 325.45624 850.6169 325.84686Q851.02313 326.2375 851.64813 326.2375Q852.2575 326.2375 852.64813 325.8625Q853.03876 325.47186 853.03876 324.90936Q853.03876 324.33124 852.6325 323.9406Q852.22626 323.53436 851.6325 323.53436Q851.02313 323.53436 850.6169 323.925Q850.22626 324.3156 850.22626 324.84686ZM849.89813 328.8156Q849.89813 329.26874 850.10126 329.6906Q850.32 330.1125 850.7419 330.34686Q851.16376 330.58124 851.64813 330.58124Q852.39813 330.58124 852.8825 330.09686Q853.3825 329.6125 853.3825 328.8625Q853.3825 328.09686 852.8825 327.59686Q852.3825 327.09686 851.6169 327.09686Q850.8669 327.09686 850.3825 327.59686Q849.89813 328.08124 849.89813 328.8156ZM856.41376 331.3L856.41376 330.09686L857.6169 330.09686L857.6169 331.3L856.41376 331.3ZM862.78876 331.3L861.7419 331.3L861.7419 324.58124Q861.35126 324.9406 860.72626 325.3156Q860.1169 325.675 859.6325 325.84686L859.6325 324.83124Q860.5075 324.40936 861.16376 323.83124Q861.83563 323.2375 862.1169 322.675L862.78876 322.675L862.78876 331.3Z" fill-rule="nonzero"/></svg>