<svg version="1.1" viewBox="0.0 0.0 892.0 551.0" fill="none" stroke="none" stroke-linecap="square" stroke-miterlimit="10" width="892" height="551" xmlns:xlink="http://www.w3.org/1999/xlink" xmlns="http://www.w3.org/2000/svg"><path fill="#ffffff" d="M0 0L892.0 0L892.0 551.0L0 551.0L0 0Z" fill-rule="nonzero"/><path stroke="#333333" stroke-width="1.0" stroke-linecap="butt" d="M65.5 503.5L780.5 503.5" fill-rule="nonzero"/><path stroke="#cccccc" stroke-width="1.0" stroke-linecap="butt" d="M65.5 386.5L780.5 386.5" fill-rule="nonzero"/><path stroke="#cccccc" stroke-width="1.0" stroke-linecap="butt" d="M65.5 269.5L780.5 269.5" fill-rule="nonzero"/><path stroke="#cccccc" stroke-width="1.0" stroke-linecap="butt" d="M65.5 151.5L780.5 151.5" fill-rule="nonzero"/><path stroke="#cccccc" stroke-width="1.0" stroke-linecap="butt" d="M65.5 34.5L780.5 34.5" fill-rule="nonzero"/><clipPath id="id_0"><path d="M65.55 34.55L780.76 34.55L780.76 503.45L65.55 503.45L65.55 34.55Z" clip-rule="nonzero"/></clipPath><path stroke="#000000" stroke-width="2.0" stroke-linecap="butt" stroke-opacity="0.0" clip-path="url(#id_0)" d="M370.0 503.0L172.0 503.0L172.0 503.0L370.0 503.0Z" fill-rule="nonzero"/><path fill="#b6d7a8" clip-path="url(#id_0)" d="M370.0 503.0L172.0 503.0L172.0 503.0L370.0 503.0Z" fill-rule="nonzero"/><path stroke="#000000" stroke-width="2.0" stroke-linecap="butt" stroke-opacity="0.0" clip-path="url(#id_0)" d="M674.0 503.0L476.0 503.0L476.0 460.0L674.0 460.0Z" fill-rule="nonzero"/><path fill="#b6d7a8" clip-path="url(#id_0)" d="M674.0 503.0L476.0 503.0L476.0 460.0L674.0 460.0Z" fill-rule="nonzero"/><path stroke="#000000" stroke-width="2.0" stroke-linecap="butt" stroke-opacity="0.0" clip-path="url(#id_0)" d="M370.0 503.0L172.0 503.0L172.0 432.0L370.0 432.0Z" fill-rule="nonzero"/><path fill="#34a853" clip-path="url(#id_0)" d="M370.0 503.0L172.0 503.0L172.0 432.0L370.0 432.0Z" fill-rule="nonzero"/><path stroke="#000000" stroke-width="2.0" stroke-linecap="butt" stroke-opacity="0.0" clip-path="url(#id_0)" d="M674.0 460.0L476.0 460.0L476.0 347.0L674.0 347.0Z" fill-rule="nonzero"/><path fill="#34a853" clip-path="url(#id_0)" d="M674.0 460.0L476.0 460.0L476.0 347.0L674.0 347.0Z" fill-rule="nonzero"/><path stroke="#000000" stroke-width="2.0" stroke-linecap="butt" stroke-opacity="0.0" clip-path="url(#id_0)" d="M370.0 432.0L172.0 432.0L172.0 204.0L370.0 204.0Z" fill-rule="nonzero"/><path fill="#ff6d01" clip-path="url(#id_0)" d="M370.0 432.0L172.0 432.0L172.0 204.0L370.0 204.0Z" fill-rule="nonzero"/><path stroke="#000000" stroke-width="2.0" stroke-linecap="butt" stroke-opacity="0.0" clip-path="url(#id_0)" d="M674.0 347.0L476.0 347.0L476.0 138.0L674.0 138.0Z" fill-rule="nonzero"/><path fill="#ff6d01" clip-path="url(#id_0)" d="M674.0 347.0L476.0 347.0L476.0 138.0L674.0 138.0Z" fill-rule="nonzero"/><path stroke="#000000" stroke-width="2.0" stroke-linecap="butt" stroke-opacity="0.0" clip-path="url(#id_0)" d="M370.0 204.0L172.0 204.0L172.0 110.0L370.0 110.0Z" fill-rule="nonzero"/><path fill="#ea9999" clip-path="url(#id_0)" d="M370.0 204.0L172.0 204.0L172.0 110.0L370.0 110.0Z" fill-rule="nonzero"/><path stroke="#000000" stroke-width="2.0" stroke-linecap="butt" stroke-opacity="0.0" clip-path="url(#id_0)" d="M674.0 138.0L476.0 138.0L476.0 81.0L674.0 81.0Z" fill-rule="nonzero"/><path fill="#ea9999" clip-path="url(#id_0)" d="M674.0 138.0L476.0 138.0L476.0 81.0L674.0 81.0Z" fill-rule="nonzero"/><path stroke="#000000" stroke-width="2.0" stroke-linecap="butt" stroke-opacity="0.0" clip-path="url(#id_0)" d="M370.0 110.0L172.0 110.0L172.0 59.0L370.0 59.0Z" fill-rule="nonzero"/><path fill="#cc0000" clip-path="url(#id_0)" d="M370.0 110.0L172.0 110.0L172.0 59.0L370.0 59.0Z" fill-rule="nonzero"/><path stroke="#000000" stroke-width="2.0" stroke-linecap="butt" stroke-opacity="0.0" clip-path="url(#id_0)" d="M674.0 81.0L476.0 81.0L476.0 50.0L674.0 50.0Z" fill-rule="nonzero"/><path fill="#cc0000" clip-path="url(#id_0)" d="M674.0 81.0L476.0 81.0L476.0 50.0L674.0 50.0Z" fill-rule="nonzero"/><path stroke="#000000" stroke-width="2.0" stroke-linecap="butt" stroke-opacity="0.0" clip-path="url(#id_0)" d="M370.0 59.0L172.0 59.0L172.0 41.0L370.0 41.0Z" fill-rule="nonzero"/><path fill="#f9cb9c" clip-path="url(#id_0)" d="M370.0 59.0L172.0 59.0L172.0 41.0L370.0 41.0Z" fill-rule="nonzero"/><path stroke="#000000" stroke-width="2.0" stroke-linecap="butt" stroke-opacity="0.0" clip-path="url(#id_0)" d="M674.0 50.0L476.0 50.0L476.0 38.0L674.0 38.0Z" fill-rule="nonzero"/><path fill="#f9cb9c" clip-path="url(#id_0)" d="M674.0 50.0L476.0 50.0L476.0 38.0L674.0 38.0Z" fill-rule="nonzero"/><path stroke="#000000" stroke-width="2.0" stroke-linecap="butt" stroke-opacity="0.0" clip-path="url(#id_0)" d="M370.0 41.0L172.0 41.0L172.0 37.0C172.0 35.89543 172.89543 35.0 174.0 35.0L368.0 35.0C369.10458 35.0 370.0 35.89543 370.0 37.0Z" fill-rule="nonzero"/><path fill="#ea4335" clip-path="url(#id_0)" d="M370.0 41.0L172.0 41.0L172.0 37.0C172.0 35.89543 172.89543 35.0 174.0 35.0L368.0 35.0C369.10458 35.0 370.0 35.89543 370.0 37.0Z" fill-rule="nonzero"/><path stroke="#000000" stroke-width="2.0" stroke-linecap="butt" stroke-opacity="0.0" clip-path="url(#id_0)" d="M674.0 38.0L476.0 38.0L476.0 36.5C476.0 35.671574 476.67157 35.0 477.5 35.0L672.5 35.0C673.3284 35.0 674.0 35.671574 674.0 36.5Z" fill-rule="nonzero"/><path fill="#ea4335" clip-path="url(#id_0)" d="M674.0 38.0L476.0 38.0L476.0 36.5C476.0 35.671574 476.67157 35.0 477.5 35.0L672.5 35.0C673.3284 35.0 674.0 35.671574 674.0 36.5Z" fill-rule="nonzero"/><path fill="#000000" d="M42.05 503.21564Q42.05 501.6844 42.3625 500.7625Q42.675 499.825 43.284374 499.325Q43.909374 498.825 44.846874 498.825Q45.534374 498.825 46.05 499.10626Q46.58125 499.3875 46.925 499.91876Q47.26875 500.4344 47.45625 501.1844Q47.64375 501.9344 47.64375 503.21564Q47.64375 504.73126 47.33125 505.65314Q47.034374 506.575 46.409374 507.09064Q45.8 507.59064 44.846874 507.59064Q43.6125 507.59064 42.89375 506.7Q42.05 505.6375 42.05 503.21564ZM43.128124 503.21564Q43.128124 505.325 43.628124 506.02814Q44.128124 506.73126 44.846874 506.73126Q45.58125 506.73126 46.065624 506.02814Q46.565624 505.325 46.565624 503.21564Q46.565624 501.09064 46.065624 500.40314Q45.58125 499.7 44.83125 499.7Q44.1125 499.7 43.675 500.3094Q43.128124 501.09064 43.128124 503.21564ZM49.253124 500.91876Q49.253124 499.9969 49.70625 499.35626Q50.175 498.71564 51.05 498.71564Q51.8625 498.71564 52.39375 499.29376Q52.925 499.8719 52.925 500.98126Q52.925 502.075 52.378124 502.66876Q51.846874 503.2469 51.065624 503.2469Q50.284374 503.2469 49.76875 502.66876Q49.253124 502.09064 49.253124 500.91876ZM51.08125 499.4344Q50.690624 499.4344 50.425 499.77814Q50.175 500.1219 50.175 501.02814Q50.175 501.85626 50.425 502.2Q50.690624 502.52814 51.08125 502.52814Q51.4875 502.52814 51.7375 502.1844Q52.003124 501.84064 52.003124 500.95Q52.003124 500.10626 51.7375 499.77814Q51.471874 499.4344 51.08125 499.4344ZM51.08125 507.7625L55.784374 498.71564L56.64375 498.71564L51.95625 507.7625L51.08125 507.7625ZM54.8 505.4344Q54.8 504.5125 55.253124 503.8719Q55.721874 503.23126 56.6125 503.23126Q57.425 503.23126 57.95625 503.8094Q58.4875 504.3719 58.4875 505.4969Q58.4875 506.59064 57.940624 507.1844Q57.409374 507.7625 56.6125 507.7625Q55.846874 507.7625 55.315624 507.1844Q54.8 506.60626 54.8 505.4344ZM56.64375 503.95Q56.2375 503.95 55.971874 504.29376Q55.721874 504.6375 55.721874 505.54376Q55.721874 506.35626 55.9875 506.7Q56.253124 507.04376 56.64375 507.04376Q57.034374 507.04376 57.3 506.7Q57.565624 506.35626 57.565624 505.45Q57.565624 504.6219 57.3 504.29376Q57.034374 503.95 56.64375 503.95Z" fill-rule="nonzero"/><path fill="#000000" d="M40.596874 389.20938L40.596874 390.225L34.909374 390.225Q34.909374 389.85 35.034374 389.49063Q35.253124 388.9125 35.721874 388.35Q36.20625 387.7875 37.1125 387.05313Q38.51875 385.89688 39.003124 385.225Q39.503124 384.55313 39.503124 383.95938Q39.503124 383.33438 39.05 382.9125Q38.596874 382.475 37.878124 382.475Q37.1125 382.475 36.659374 382.92813Q36.20625 383.38126 36.190624 384.19376L35.1125 384.08438Q35.221874 382.86563 35.940624 382.24063Q36.675 381.6 37.909374 381.6Q39.14375 381.6 39.8625 382.2875Q40.58125 382.975 40.58125 383.99063Q40.58125 384.50626 40.3625 385.00626Q40.159374 385.49063 39.659374 386.05313Q39.175 386.6 38.05 387.55313Q37.096874 388.35 36.815624 388.64688Q36.55 388.92813 36.378124 389.20938L40.596874 389.20938ZM42.05 387.975L43.159374 387.88126Q43.284374 388.69376 43.721874 389.1Q44.175 389.50626 44.815624 389.50626Q45.565624 389.50626 46.096874 388.92813Q46.628124 388.35 46.628124 387.4125Q46.628124 386.50626 46.1125 385.99063Q45.6125 385.45938 44.784374 385.45938Q44.284374 385.45938 43.8625 385.69376Q43.45625 385.92813 43.221874 386.2875L42.2375 386.1625L43.065624 381.75626L47.346874 381.75626L47.346874 382.75626L43.909374 382.75626L43.45625 385.06876Q44.221874 384.52188 45.065624 384.52188Q46.190624 384.52188 46.95625 385.30313Q47.7375 386.08438 47.7375 387.31876Q47.7375 388.475 47.065624 389.33438Q46.2375 390.36563 44.815624 390.36563Q43.64375 390.36563 42.89375 389.70938Q42.159374 389.05313 42.05 387.975ZM49.253124 383.69376Q49.253124 382.77188 49.70625 382.13126Q50.175 381.49063 51.05 381.49063Q51.8625 381.49063 52.39375 382.06876Q52.925 382.64688 52.925 383.75626Q52.925 384.85 52.378124 385.44376Q51.846874 386.02188 51.065624 386.02188Q50.284374 386.02188 49.76875 385.44376Q49.253124 384.86563 49.253124 383.69376ZM51.08125 382.20938Q50.690624 382.20938 50.425 382.55313Q50.175 382.89688 50.175 383.80313Q50.175 384.63126 50.425 384.975Q50.690624 385.30313 51.08125 385.30313Q51.4875 385.30313 51.7375 384.95938Q52.003124 384.61563 52.003124 383.725Q52.003124 382.88126 51.7375 382.55313Q51.471874 382.20938 51.08125 382.20938ZM51.08125 390.5375L55.784374 381.49063L56.64375 381.49063L51.95625 390.5375L51.08125 390.5375ZM54.8 388.20938Q54.8 387.2875 55.253124 386.64688Q55.721874 386.00626 56.6125 386.00626Q57.425 386.00626 57.95625 386.58438Q58.4875 387.14688 58.4875 388.27188Q58.4875 389.36563 57.940624 389.95938Q57.409374 390.5375 56.6125 390.5375Q55.846874 390.5375 55.315624 389.95938Q54.8 389.38126 54.8 388.20938ZM56.64375 386.725Q56.2375 386.725 55.971874 387.06876Q55.721874 387.4125 55.721874 388.31876Q55.721874 389.13126 55.9875 389.475Q56.253124 389.81876 56.64375 389.81876Q57.034374 389.81876 57.3 389.475Q57.565624 389.13126 57.565624 388.225Q57.565624 387.39688 57.3 387.06876Q57.034374 386.725 56.64375 386.725Z" fill-rule="nonzero"/><path fill="#000000" d="M35.05 270.75L36.159374 270.65625Q36.284374 271.46875 36.721874 271.875Q37.175 272.28125 37.815624 272.28125Q38.565624 272.28125 39.096874 271.70312Q39.628124 271.125 39.628124 270.1875Q39.628124 269.28125 39.1125 268.76562Q38.6125 268.23438 37.784374 268.23438Q37.284374 268.23438 36.8625 268.46875Q36.45625 268.70312 36.221874 269.0625L35.2375 268.9375L36.065624 264.53125L40.346874 264.53125L40.346874 265.53125L36.909374 265.53125L36.45625 267.84375Q37.221874 267.29688 38.065624 267.29688Q39.190624 267.29688 39.95625 268.07812Q40.7375 268.85938 40.7375 270.09375Q40.7375 271.25 40.065624 272.10938Q39.2375 273.14062 37.815624 273.14062Q36.64375 273.14062 35.89375 272.48438Q35.159374 271.82812 35.05 270.75ZM42.05 268.76562Q42.05 267.23438 42.3625 266.3125Q42.675 265.375 43.284374 264.875Q43.909374 264.375 44.846874 264.375Q45.534374 264.375 46.05 264.65625Q46.58125 264.9375 46.925 265.46875Q47.26875 265.98438 47.45625 266.73438Q47.64375 267.48438 47.64375 268.76562Q47.64375 270.28125 47.33125 271.20312Q47.034374 272.125 46.409374 272.64062Q45.8 273.14062 44.846874 273.14062Q43.6125 273.14062 42.89375 272.25Q42.05 271.1875 42.05 268.76562ZM43.128124 268.76562Q43.128124 270.875 43.628124 271.57812Q44.128124 272.28125 44.846874 272.28125Q45.58125 272.28125 46.065624 271.57812Q46.565624 270.875 46.565624 268.76562Q46.565624 266.64062 46.065624 265.95312Q45.58125 265.25 44.83125 265.25Q44.1125 265.25 43.675 265.85938Q43.128124 266.64062 43.128124 268.76562ZM49.253124 266.46875Q49.253124 265.54688 49.70625 264.90625Q50.175 264.26562 51.05 264.26562Q51.8625 264.26562 52.39375 264.84375Q52.925 265.42188 52.925 266.53125Q52.925 267.625 52.378124 268.21875Q51.846874 268.79688 51.065624 268.79688Q50.284374 268.79688 49.76875 268.21875Q49.253124 267.64062 49.253124 266.46875ZM51.08125 264.98438Q50.690624 264.98438 50.425 265.32812Q50.175 265.67188 50.175 266.57812Q50.175 267.40625 50.425 267.75Q50.690624 268.07812 51.08125 268.07812Q51.4875 268.07812 51.7375 267.73438Q52.003124 267.39062 52.003124 266.5Q52.003124 265.65625 51.7375 265.32812Q51.471874 264.98438 51.08125 264.98438ZM51.08125 273.3125L55.784374 264.26562L56.64375 264.26562L51.95625 273.3125L51.08125 273.3125ZM54.8 270.98438Q54.8 270.0625 55.253124 269.42188Q55.721874 268.78125 56.6125 268.78125Q57.425 268.78125 57.95625 269.35938Q58.4875 269.92188 58.4875 271.04688Q58.4875 272.14062 57.940624 272.73438Q57.409374 273.3125 56.6125 273.3125Q55.846874 273.3125 55.315624 272.73438Q54.8 272.15625 54.8 270.98438ZM56.64375 269.5Q56.2375 269.5 55.971874 269.84375Q55.721874 270.1875 55.721874 271.09375Q55.721874 271.90625 55.9875 272.25Q56.253124 272.59375 56.64375 272.59375Q57.034374 272.59375 57.3 272.25Q57.565624 271.90625 57.565624 271.0Q57.565624 270.17188 57.3 269.84375Q57.034374 269.5 56.64375 269.5Z" fill-rule="nonzero"/><path fill="#000000" d="M35.1125 148.30624L35.1125 147.29062L40.675 147.29062L40.675 148.11874Q39.8625 148.99374 39.05 150.44687Q38.253124 151.88437 37.815624 153.41562Q37.4875 154.49374 37.409374 155.775L36.315624 155.775Q36.33125 154.75937 36.70625 153.32187Q37.096874 151.88437 37.8 150.55624Q38.51875 149.22812 39.33125 148.30624L35.1125 148.30624ZM42.05 153.525L43.159374 153.43124Q43.284374 154.24374 43.721874 154.65Q44.175 155.05624 44.815624 155.05624Q45.565624 155.05624 46.096874 154.47812Q46.628124 153.9 46.628124 152.9625Q46.628124 152.05624 46.1125 151.54062Q45.6125 151.00937 44.784374 151.00937Q44.284374 151.00937 43.8625 151.24374Q43.45625 151.47812 43.221874 151.8375L42.2375 151.7125L43.065624 147.30624L47.346874 147.30624L47.346874 148.30624L43.909374 148.30624L43.45625 150.61874Q44.221874 150.07187 45.065624 150.07187Q46.190624 150.07187 46.95625 150.85312Q47.7375 151.63437 47.7375 152.86874Q47.7375 154.025 47.065624 154.88437Q46.2375 155.91562 44.815624 155.91562Q43.64375 155.91562 42.89375 155.25937Q42.159374 154.60312 42.05 153.525ZM49.253124 149.24374Q49.253124 148.32187 49.70625 147.68124Q50.175 147.04062 51.05 147.04062Q51.8625 147.04062 52.39375 147.61874Q52.925 148.19687 52.925 149.30624Q52.925 150.4 52.378124 150.99374Q51.846874 151.57187 51.065624 151.57187Q50.284374 151.57187 49.76875 150.99374Q49.253124 150.41562 49.253124 149.24374ZM51.08125 147.75937Q50.690624 147.75937 50.425 148.10312Q50.175 148.44687 50.175 149.35312Q50.175 150.18124 50.425 150.525Q50.690624 150.85312 51.08125 150.85312Q51.4875 150.85312 51.7375 150.50937Q52.003124 150.16562 52.003124 149.275Q52.003124 148.43124 51.7375 148.10312Q51.471874 147.75937 51.08125 147.75937ZM51.08125 156.0875L55.784374 147.04062L56.64375 147.04062L51.95625 156.0875L51.08125 156.0875ZM54.8 153.75937Q54.8 152.8375 55.253124 152.19687Q55.721874 151.55624 56.6125 151.55624Q57.425 151.55624 57.95625 152.13437Q58.4875 152.69687 58.4875 153.82187Q58.4875 154.91562 57.940624 155.50937Q57.409374 156.0875 56.6125 156.0875Q55.846874 156.0875 55.315624 155.50937Q54.8 154.93124 54.8 153.75937ZM56.64375 152.275Q56.2375 152.275 55.971874 152.61874Q55.721874 152.9625 55.721874 153.86874Q55.721874 154.68124 55.9875 155.025Q56.253124 155.36874 56.64375 155.36874Q57.034374 155.36874 57.3 155.025Q57.565624 154.68124 57.565624 153.775Q57.565624 152.94687 57.3 152.61874Q57.034374 152.275 56.64375 152.275Z" fill-rule="nonzero"/><path fill="#000000" d="M32.01875 38.55L30.971874 38.55L30.971874 31.83125Q30.58125 32.190624 29.95625 32.565624Q29.346874 32.925 28.8625 33.096874L28.8625 32.08125Q29.7375 31.659374 30.39375 31.08125Q31.065624 30.4875 31.346874 29.925L32.01875 29.925L32.01875 38.55ZM35.05 34.315624Q35.05 32.784374 35.3625 31.8625Q35.675 30.925 36.284374 30.425Q36.909374 29.925 37.846874 29.925Q38.534374 29.925 39.05 30.20625Q39.58125 30.4875 39.925 31.01875Q40.26875 31.534374 40.45625 32.284374Q40.64375 33.034374 40.64375 34.315624Q40.64375 35.83125 40.33125 36.753124Q40.034374 37.675 39.409374 38.190624Q38.8 38.690624 37.846874 38.690624Q36.6125 38.690624 35.89375 37.8Q35.05 36.7375 35.05 34.315624ZM36.128124 34.315624Q36.128124 36.425 36.628124 37.128124Q37.128124 37.83125 37.846874 37.83125Q38.58125 37.83125 39.065624 37.128124Q39.565624 36.425 39.565624 34.315624Q39.565624 32.190624 39.065624 31.503124Q38.58125 30.8 37.83125 30.8Q37.1125 30.8 36.675 31.409374Q36.128124 32.190624 36.128124 34.315624ZM42.05 34.315624Q42.05 32.784374 42.3625 31.8625Q42.675 30.925 43.284374 30.425Q43.909374 29.925 44.846874 29.925Q45.534374 29.925 46.05 30.20625Q46.58125 30.4875 46.925 31.01875Q47.26875 31.534374 47.45625 32.284374Q47.64375 33.034374 47.64375 34.315624Q47.64375 35.83125 47.33125 36.753124Q47.034374 37.675 46.409374 38.190624Q45.8 38.690624 44.846874 38.690624Q43.6125 38.690624 42.89375 37.8Q42.05 36.7375 42.05 34.315624ZM43.128124 34.315624Q43.128124 36.425 43.628124 37.128124Q44.128124 37.83125 44.846874 37.83125Q45.58125 37.83125 46.065624 37.128124Q46.565624 36.425 46.565624 34.315624Q46.565624 32.190624 46.065624 31.503124Q45.58125 30.8 44.83125 30.8Q44.1125 30.8 43.675 31.409374Q43.128124 32.190624 43.128124 34.315624ZM49.253124 32.01875Q49.253124 31.096874 49.70625 30.45625Q50.175 29.815624 51.05 29.815624Q51.8625 29.815624 52.39375 30.39375Q52.925 30.971874 52.925 32.08125Q52.925 33.175 52.378124 33.76875Q51.846874 34.346874 51.065624 34.346874Q50.284374 34.346874 49.76875 33.76875Q49.253124 33.190624 49.253124 32.01875ZM51.08125 30.534374Q50.690624 30.534374 50.425 30.878124Q50.175 31.221874 50.175 32.128124Q50.175 32.95625 50.425 33.3Q50.690624 33.628124 51.08125 33.628124Q51.4875 33.628124 51.7375 33.284374Q52.003124 32.940624 52.003124 32.05Q52.003124 31.20625 51.7375 30.878124Q51.471874 30.534374 51.08125 30.534374ZM51.08125 38.8625L55.784374 29.815624L56.64375 29.815624L51.95625 38.8625L51.08125 38.8625ZM54.8 36.534374Q54.8 35.6125 55.253124 34.971874Q55.721874 34.33125 56.6125 34.33125Q57.425 34.33125 57.95625 34.909374Q58.4875 35.471874 58.4875 36.596874Q58.4875 37.690624 57.940624 38.284374Q57.409374 38.8625 56.6125 38.8625Q55.846874 38.8625 55.315624 38.284374Q54.8 37.70625 54.8 36.534374ZM56.64375 35.05Q56.2375 35.05 55.971874 35.39375Q55.721874 35.7375 55.721874 36.64375Q55.721874 37.45625 55.9875 37.8Q56.253124 38.14375 56.64375 38.14375Q57.034374 38.14375 57.3 37.8Q57.565624 37.45625 57.565624 36.55Q57.565624 35.721874 57.3 35.39375Q57.034374 35.05 56.64375 35.05Z" fill-rule="nonzero"/><path fill="#000000" d="M243.82642 518.0125L244.85767 517.8719Q244.88892 518.85626 245.21704 519.21564Q245.54517 519.575 246.13892 519.575Q246.56079 519.575 246.87329 519.3875Q247.18579 519.1844 247.29517 518.85626Q247.42017 518.5125 247.42017 517.77814L247.42017 511.85626L248.54517 511.85626L248.54517 517.71564Q248.54517 518.79376 248.27954 519.3875Q248.02954 519.98126 247.46704 520.29376Q246.90454 520.59064 246.13892 520.59064Q245.01392 520.59064 244.40454 519.95Q243.81079 519.29376 243.82642 518.0125ZM254.35767 520.45L254.35767 519.52814Q253.62329 520.59064 252.37329 520.59064Q251.82642 520.59064 251.34204 520.3875Q250.87329 520.16876 250.63892 519.85626Q250.40454 519.52814 250.31079 519.0594Q250.24829 518.7625 250.24829 518.075L250.24829 514.23126L251.31079 514.23126L251.31079 517.6844Q251.31079 518.4969 251.37329 518.79376Q251.46704 519.2 251.77954 519.45Q252.10767 519.6844 252.59204 519.6844Q253.06079 519.6844 253.46704 519.45Q253.88892 519.2 254.06079 518.77814Q254.24829 518.35626 254.24829 517.5594L254.24829 514.23126L255.29517 514.23126L255.29517 520.45L254.35767 520.45ZM257.2483 520.45L257.2483 511.85626L258.3108 511.85626L258.3108 520.45L257.2483 520.45ZM260.23267 522.84064L260.10767 521.85626Q260.45142 521.95 260.71704 521.95Q261.0608 521.95 261.26392 521.825Q261.48267 521.71564 261.6233 521.5125Q261.71704 521.34064 261.95142 520.71564Q261.96704 520.6375 262.04517 520.46564L259.67017 514.23126L260.8108 514.23126L262.10767 517.825Q262.35767 518.5125 262.5608 519.27814Q262.7483 518.54376 262.9983 517.85626L264.32642 514.23126L265.3733 514.23126L263.01392 520.5594Q262.6233 521.575 262.42017 521.96564Q262.13892 522.4969 261.76392 522.73126Q261.40454 522.98126 260.90454 522.98126Q260.60767 522.98126 260.23267 522.84064ZM265.54517 520.45L265.54517 519.2469L266.7483 519.2469L266.7483 520.45Q266.7483 521.10626 266.51392 521.5125Q266.27954 521.9344 265.77954 522.15314L265.48267 521.7Q265.8108 521.5594 265.96704 521.2625Q266.1233 520.98126 266.15454 520.45L265.54517 520.45ZM276.52954 519.4344L276.52954 520.45L270.84204 520.45Q270.84204 520.075 270.96704 519.71564Q271.1858 519.1375 271.65454 518.575Q272.13892 518.0125 273.04517 517.27814Q274.45142 516.1219 274.9358 515.45Q275.4358 514.77814 275.4358 514.1844Q275.4358 513.5594 274.98267 513.1375Q274.52954 512.7 273.8108 512.7Q273.04517 512.7 272.59204 513.15314Q272.13892 513.60626 272.1233 514.41876L271.04517 514.3094Q271.15454 513.09064 271.8733 512.46564Q272.60767 511.825 273.84204 511.825Q275.07642 511.825 275.79517 512.5125Q276.51392 513.2 276.51392 514.21564Q276.51392 514.73126 276.29517 515.23126Q276.09204 515.71564 275.59204 516.27814Q275.10767 516.825 273.98267 517.77814Q273.02954 518.575 272.7483 518.8719Q272.48267 519.15314 272.3108 519.4344L276.52954 519.4344ZM277.98267 516.21564Q277.98267 514.6844 278.29517 513.7625Q278.60767 512.825 279.21704 512.325Q279.84204 511.825 280.77954 511.825Q281.46704 511.825 281.98267 512.10626Q282.51392 512.3875 282.85767 512.91876Q283.20142 513.4344 283.38892 514.1844Q283.57642 514.9344 283.57642 516.21564Q283.57642 517.73126 283.26392 518.65314Q282.96704 519.575 282.34204 520.09064Q281.73267 520.59064 280.77954 520.59064Q279.54517 520.59064 278.82642 519.7Q277.98267 518.6375 277.98267 516.21564ZM279.0608 516.21564Q279.0608 518.325 279.5608 519.02814Q280.0608 519.73126 280.77954 519.73126Q281.51392 519.73126 281.9983 519.02814Q282.4983 518.325 282.4983 516.21564Q282.4983 514.09064 281.9983 513.40314Q281.51392 512.7 280.76392 512.7Q280.04517 512.7 279.60767 513.3094Q279.0608 514.09064 279.0608 516.21564ZM290.52954 519.4344L290.52954 520.45L284.84204 520.45Q284.84204 520.075 284.96704 519.71564Q285.1858 519.1375 285.65454 518.575Q286.13892 518.0125 287.04517 517.27814Q288.45142 516.1219 288.9358 515.45Q289.4358 514.77814 289.4358 514.1844Q289.4358 513.5594 288.98267 513.1375Q288.52954 512.7 287.8108 512.7Q287.04517 512.7 286.59204 513.15314Q286.13892 513.60626 286.1233 514.41876L285.04517 514.3094Q285.15454 513.09064 285.8733 512.46564Q286.60767 511.825 287.84204 511.825Q289.07642 511.825 289.79517 512.5125Q290.51392 513.2 290.51392 514.21564Q290.51392 514.73126 290.29517 515.23126Q290.09204 515.71564 289.59204 516.27814Q289.10767 516.825 287.98267 517.77814Q287.02954 518.575 286.7483 518.8719Q286.48267 519.15314 286.3108 519.4344L290.52954 519.4344ZM295.95142 520.45L294.90454 520.45L294.90454 513.73126Q294.51392 514.09064 293.88892 514.46564Q293.27954 514.825 292.79517 514.9969L292.79517 513.98126Q293.67017 513.5594 294.32642 512.98126Q294.9983 512.3875 295.27954 511.825L295.95142 511.825L295.95142 520.45Z" fill-rule="nonzero"/><path fill="#000000" d="M537.1711 518.0125L538.20233 517.8719Q538.2336 518.85626 538.5617 519.21564Q538.88983 519.575 539.4836 519.575Q539.90546 519.575 540.21796 519.3875Q540.53046 519.1844 540.63983 518.85626Q540.76483 518.5125 540.76483 517.77814L540.76483 511.85626L541.88983 511.85626L541.88983 517.71564Q541.88983 518.79376 541.6242 519.3875Q541.3742 519.98126 540.8117 520.29376Q540.2492 520.59064 539.4836 520.59064Q538.3586 520.59064 537.7492 519.95Q537.15546 519.29376 537.1711 518.0125ZM547.6867 519.6844Q547.09296 520.1844 546.5461 520.3875Q546.01483 520.59064 545.38983 520.59064Q544.3586 520.59064 543.8117 520.09064Q543.26483 519.59064 543.26483 518.8094Q543.26483 518.35626 543.46796 517.98126Q543.6711 517.59064 544.01483 517.3719Q544.3586 517.1375 544.78046 517.02814Q545.07733 516.9344 545.71796 516.85626Q546.9836 516.71564 547.59296 516.4969Q547.59296 516.27814 547.59296 516.23126Q547.59296 515.575 547.2961 515.3094Q546.88983 514.96564 546.09296 514.96564Q545.3586 514.96564 544.9992 515.23126Q544.63983 515.48126 544.46796 516.1375L543.4367 515.9969Q543.57733 515.34064 543.90546 514.9344Q544.2336 514.52814 544.84296 514.3094Q545.45233 514.09064 546.2492 514.09064Q547.0461 514.09064 547.5461 514.27814Q548.0461 514.46564 548.28046 514.7469Q548.51483 515.02814 548.6086 515.46564Q548.65546 515.73126 548.65546 516.4344L548.65546 517.84064Q548.65546 519.3094 548.71796 519.7Q548.7961 520.09064 548.9992 520.45L547.88983 520.45Q547.7336 520.1219 547.6867 519.6844ZM547.59296 517.325Q547.01483 517.5594 545.8742 517.73126Q545.21796 517.825 544.95233 517.95Q544.6867 518.0594 544.53046 518.27814Q544.38983 518.4969 544.38983 518.77814Q544.38983 519.2 544.70233 519.48126Q545.03046 519.7625 545.63983 519.7625Q546.2492 519.7625 546.71796 519.4969Q547.20233 519.23126 547.4211 518.7625Q547.59296 518.40314 547.59296 517.71564L547.59296 517.325ZM550.6242 520.45L550.6242 514.23126L551.5617 514.23126L551.5617 515.10626Q552.2492 514.09064 553.5461 514.09064Q554.1086 514.09064 554.57733 514.29376Q555.0617 514.4969 555.2961 514.825Q555.53046 515.15314 555.6242 515.59064Q555.6711 515.8875 555.6711 516.6219L555.6711 520.45L554.6242 520.45L554.6242 516.66876Q554.6242 516.0125 554.4992 515.7Q554.3742 515.3875 554.0617 515.2Q553.7492 514.9969 553.32733 514.9969Q552.65546 514.9969 552.15546 515.4344Q551.6711 515.85626 551.6711 517.04376L551.6711 520.45L550.6242 520.45ZM561.70233 520.45L561.70233 519.52814Q560.96796 520.59064 559.71796 520.59064Q559.1711 520.59064 558.6867 520.3875Q558.21796 520.16876 557.9836 519.85626Q557.7492 519.52814 557.65546 519.0594Q557.59296 518.7625 557.59296 518.075L557.59296 514.23126L558.65546 514.23126L558.65546 517.6844Q558.65546 518.4969 558.71796 518.79376Q558.8117 519.2 559.1242 519.45Q559.45233 519.6844 559.9367 519.6844Q560.40546 519.6844 560.8117 519.45Q561.2336 519.2 561.40546 518.77814Q561.59296 518.35626 561.59296 517.5594L561.59296 514.23126L562.63983 514.23126L562.63983 520.45L561.70233 520.45ZM568.6867 519.6844Q568.09296 520.1844 567.5461 520.3875Q567.01483 520.59064 566.38983 520.59064Q565.3586 520.59064 564.8117 520.09064Q564.26483 519.59064 564.26483 518.8094Q564.26483 518.35626 564.46796 517.98126Q564.6711 517.59064 565.01483 517.3719Q565.3586 517.1375 565.78046 517.02814Q566.07733 516.9344 566.71796 516.85626Q567.9836 516.71564 568.59296 516.4969Q568.59296 516.27814 568.59296 516.23126Q568.59296 515.575 568.2961 515.3094Q567.88983 514.96564 567.09296 514.96564Q566.3586 514.96564 565.9992 515.23126Q565.63983 515.48126 565.46796 516.1375L564.4367 515.9969Q564.57733 515.34064 564.90546 514.9344Q565.2336 514.52814 565.84296 514.3094Q566.45233 514.09064 567.2492 514.09064Q568.0461 514.09064 568.5461 514.27814Q569.0461 514.46564 569.28046 514.7469Q569.51483 515.02814 569.6086 515.46564Q569.65546 515.73126 569.65546 516.4344L569.65546 517.84064Q569.65546 519.3094 569.71796 519.7Q569.7961 520.09064 569.9992 520.45L568.88983 520.45Q568.7336 520.1219 568.6867 519.6844ZM568.59296 517.325Q568.01483 517.5594 566.8742 517.73126Q566.21796 517.825 565.95233 517.95Q565.6867 518.0594 565.53046 518.27814Q565.38983 518.4969 565.38983 518.77814Q565.38983 519.2 565.70233 519.48126Q566.03046 519.7625 566.63983 519.7625Q567.2492 519.7625 567.71796 519.4969Q568.20233 519.23126 568.4211 518.7625Q568.59296 518.40314 568.59296 517.71564L568.59296 517.325ZM571.6086 520.45L571.6086 514.23126L572.5617 514.23126L572.5617 515.16876Q572.9211 514.5125 573.21796 514.3094Q573.53046 514.09064 573.90546 514.09064Q574.4367 514.09064 574.9836 514.41876L574.6242 515.40314Q574.2336 515.16876 573.8586 515.16876Q573.4992 515.16876 573.21796 515.3875Q572.95233 515.59064 572.84296 515.96564Q572.65546 516.52814 572.65546 517.1844L572.65546 520.45L571.6086 520.45ZM575.57733 522.84064L575.45233 521.85626Q575.7961 521.95 576.0617 521.95Q576.40546 521.95 576.6086 521.825Q576.82733 521.71564 576.96796 521.5125Q577.0617 521.34064 577.2961 520.71564Q577.3117 520.6375 577.38983 520.46564L575.01483 514.23126L576.15546 514.23126L577.45233 517.825Q577.70233 518.5125 577.90546 519.27814Q578.09296 518.54376 578.34296 517.85626L579.6711 514.23126L580.71796 514.23126L578.3586 520.5594Q577.96796 521.575 577.76483 521.96564Q577.4836 522.4969 577.1086 522.73126Q576.7492 522.98126 576.2492 522.98126Q575.95233 522.98126 575.57733 522.84064ZM580.88983 520.45L580.88983 519.2469L582.09296 519.2469L582.09296 520.45Q582.09296 521.10626 581.8586 521.5125Q581.6242 521.9344 581.1242 522.15314L580.82733 521.7Q581.15546 521.5594 581.3117 521.2625Q581.46796 520.98126 581.4992 520.45L580.88983 520.45ZM591.8742 519.4344L591.8742 520.45L586.1867 520.45Q586.1867 520.075 586.3117 519.71564Q586.53046 519.1375 586.9992 518.575Q587.4836 518.0125 588.38983 517.27814Q589.7961 516.1219 590.28046 515.45Q590.78046 514.77814 590.78046 514.1844Q590.78046 513.5594 590.32733 513.1375Q589.8742 512.7 589.15546 512.7Q588.38983 512.7 587.9367 513.15314Q587.4836 513.60626 587.46796 514.41876L586.38983 514.3094Q586.4992 513.09064 587.21796 512.46564Q587.95233 511.825 589.1867 511.825Q590.4211 511.825 591.13983 512.5125Q591.8586 513.2 591.8586 514.21564Q591.8586 514.73126 591.63983 515.23126Q591.4367 515.71564 590.9367 516.27814Q590.45233 516.825 589.32733 517.77814Q588.3742 518.575 588.09296 518.8719Q587.82733 519.15314 587.65546 519.4344L591.8742 519.4344ZM593.32733 516.21564Q593.32733 514.6844 593.63983 513.7625Q593.95233 512.825 594.5617 512.325Q595.1867 511.825 596.1242 511.825Q596.8117 511.825 597.32733 512.10626Q597.8586 512.3875 598.20233 512.91876Q598.5461 513.4344 598.7336 514.1844Q598.9211 514.9344 598.9211 516.21564Q598.9211 517.73126 598.6086 518.65314Q598.3117 519.575 597.6867 520.09064Q597.07733 520.59064 596.1242 520.59064Q594.88983 520.59064 594.1711 519.7Q593.32733 518.6375 593.32733 516.21564ZM594.40546 516.21564Q594.40546 518.325 594.90546 519.02814Q595.40546 519.73126 596.1242 519.73126Q596.8586 519.73126 597.34296 519.02814Q597.84296 518.325 597.84296 516.21564Q597.84296 514.09064 597.34296 513.40314Q596.8586 512.7 596.1086 512.7Q595.38983 512.7 594.95233 513.3094Q594.40546 514.09064 594.40546 516.21564ZM605.8742 519.4344L605.8742 520.45L600.1867 520.45Q600.1867 520.075 600.3117 519.71564Q600.53046 519.1375 600.9992 518.575Q601.4836 518.0125 602.38983 517.27814Q603.7961 516.1219 604.28046 515.45Q604.78046 514.77814 604.78046 514.1844Q604.78046 513.5594 604.32733 513.1375Q603.8742 512.7 603.15546 512.7Q602.38983 512.7 601.9367 513.15314Q601.4836 513.60626 601.46796 514.41876L600.38983 514.3094Q600.4992 513.09064 601.21796 512.46564Q601.95233 511.825 603.1867 511.825Q604.4211 511.825 605.13983 512.5125Q605.8586 513.2 605.8586 514.21564Q605.8586 514.73126 605.63983 515.23126Q605.4367 515.71564 604.9367 516.27814Q604.45233 516.825 603.32733 517.77814Q602.3742 518.575 602.09296 518.8719Q601.82733 519.15314 601.65546 519.4344L605.8742 519.4344ZM612.8742 519.4344L612.8742 520.45L607.1867 520.45Q607.1867 520.075 607.3117 519.71564Q607.53046 519.1375 607.9992 518.575Q608.4836 518.0125 609.38983 517.27814Q610.7961 516.1219 611.28046 515.45Q611.78046 514.77814 611.78046 514.1844Q611.78046 513.5594 611.32733 513.1375Q610.8742 512.7 610.15546 512.7Q609.38983 512.7 608.9367 513.15314Q608.4836 513.60626 608.46796 514.41876L607.38983 514.3094Q607.4992 513.09064 608.21796 512.46564Q608.95233 511.825 610.1867 511.825Q611.4211 511.825 612.13983 512.5125Q612.8586 513.2 612.8586 514.21564Q612.8586 514.73126 612.63983 515.23126Q612.4367 515.71564 611.9367 516.27814Q611.45233 516.825 610.32733 517.77814Q609.3742 518.575 609.09296 518.8719Q608.82733 519.15314 608.65546 519.4344L612.8742 519.4344Z" fill-rule="nonzero"/><path fill="#ea4335" d="M813.82 29.55C813.82 28.997715 814.2677 28.55 814.82 28.55L824.82 28.55C825.3723 28.55 825.82 28.997715 825.82 29.55L825.82 39.55C825.82 40.102283 825.3723 40.55 824.82 40.55L814.82 40.55C814.2677 40.55 813.82 40.102283 813.82 39.55Z" fill-rule="nonzero"/><path fill="#1a1a1a" d="M834.3825 31.08125L834.3825 30.065624L839.945 30.065624L839.945 30.89375Q839.1325 31.76875 838.32 33.221874Q837.52313 34.659374 837.08563 36.190624Q836.7575 37.26875 836.6794 38.55L835.58563 38.55Q835.60126 37.534374 835.97626 36.096874Q836.3669 34.659374 837.07 33.33125Q837.78876 32.003124 838.60126 31.08125L834.3825 31.08125ZM841.91376 38.55L841.91376 37.346874L843.1169 37.346874L843.1169 38.55L841.91376 38.55ZM844.32 34.315624Q844.32 32.784374 844.6325 31.8625Q844.945 30.925 845.5544 30.425Q846.1794 29.925 847.1169 29.925Q847.8044 29.925 848.32 30.20625Q848.85126 30.4875 849.195 31.01875Q849.53876 31.534374 849.72626 32.284374Q849.91376 33.034374 849.91376 34.315624Q849.91376 35.83125 849.60126 36.753124Q849.3044 37.675 848.6794 38.190624Q848.07 38.690624 847.1169 38.690624Q845.8825 38.690624 845.16376 37.8Q844.32 36.7375 844.32 34.315624ZM845.39813 34.315624Q845.39813 36.425 845.89813 37.128124Q846.39813 37.83125 847.1169 37.83125Q847.85126 37.83125 848.33563 37.128124Q848.83563 36.425 848.83563 34.315624Q848.83563 32.190624 848.33563 31.503124Q847.85126 30.8 847.10126 30.8Q846.3825 30.8 845.945 31.409374Q845.39813 32.190624 845.39813 34.315624Z" fill-rule="nonzero"/><path fill="#f9cb9c" d="M813.82 53.55C813.82 52.997715 814.2677 52.55 814.82 52.55L824.82 52.55C825.3723 52.55 825.82 52.997715 825.82 53.55L825.82 63.55C825.82 64.10229 825.3723 64.55 824.82 64.55L814.82 64.55C814.2677 64.55 813.82 64.10229 813.82 63.55Z" fill-rule="nonzero"/><path fill="#1a1a1a" d="M834.3825 55.08125L834.3825 54.065624L839.945 54.065624L839.945 54.89375Q839.1325 55.76875 838.32 57.221874Q837.52313 58.659374 837.08563 60.190624Q836.7575 61.26875 836.6794 62.55L835.58563 62.55Q835.60126 61.534374 835.97626 60.096874Q836.3669 58.659374 837.07 57.33125Q837.78876 56.003124 838.60126 55.08125L834.3825 55.08125ZM841.91376 62.55L841.91376 61.346874L843.1169 61.346874L843.1169 62.55L841.91376 62.55ZM848.28876 62.55L847.2419 62.55L847.2419 55.83125Q846.85126 56.190624 846.22626 56.565624Q845.6169 56.925 845.1325 57.096874L845.1325 56.08125Q846.0075 55.659374 846.66376 55.08125Q847.33563 54.4875 847.6169 53.925L848.28876 53.925L848.28876 62.55Z" fill-rule="nonzero"/><path fill="#cc0000" d="M813.82 77.55C813.82 76.99772 814.2677 76.55 814.82 76.55L824.82 76.55C825.3723 76.55 825.82 76.99772 825.82 77.55L825.82 87.55C825.82 88.10229 825.3723 88.55 824.82 88.55L814.82 88.55C814.2677 88.55 813.82 88.10229 813.82 87.55Z" fill-rule="nonzero"/><path fill="#1a1a1a" d="M834.3825 79.08125L834.3825 78.06563L839.945 78.06563L839.945 78.89375Q839.1325 79.76875 838.32 81.22188Q837.52313 82.65938 837.08563 84.19063Q836.7575 85.26875 836.6794 86.55L835.58563 86.55Q835.60126 85.53438 835.97626 84.09688Q836.3669 82.65938 837.07 81.33125Q837.78876 80.00313 838.60126 79.08125L834.3825 79.08125ZM841.91376 86.55L841.91376 85.34688L843.1169 85.34688L843.1169 86.55L841.91376 86.55ZM849.8669 85.53438L849.8669 86.55L844.1794 86.55Q844.1794 86.175 844.3044 85.81563Q844.52313 85.2375 844.9919 84.675Q845.47626 84.1125 846.3825 83.37813Q847.78876 82.22188 848.27313 81.55Q848.77313 80.87813 848.77313 80.28438Q848.77313 79.65938 848.32 79.2375Q847.8669 78.8 847.14813 78.8Q846.3825 78.8 845.9294 79.25313Q845.47626 79.70625 845.46063 80.51875L844.3825 80.40938Q844.4919 79.19063 845.21063 78.56563Q845.945 77.925 847.1794 77.925Q848.41376 77.925 849.1325 78.6125Q849.85126 79.3 849.85126 80.31563Q849.85126 80.83125 849.6325 81.33125Q849.4294 81.81563 848.9294 82.37813Q848.445 82.925 847.32 83.87813Q846.3669 84.675 846.08563 84.97188Q845.82 85.25313 845.64813 85.53438L849.8669 85.53438Z" fill-rule="nonzero"/><path fill="#ea9999" d="M813.82 101.55C813.82 100.99772 814.2677 100.55 814.82 100.55L824.82 100.55C825.3723 100.55 825.82 100.99772 825.82 101.55L825.82 111.55C825.82 112.10229 825.3723 112.55 824.82 112.55L814.82 112.55C814.2677 112.55 813.82 112.10229 813.82 111.55Z" fill-rule="nonzero"/><path fill="#1a1a1a" d="M834.3825 103.08125L834.3825 102.06563L839.945 102.06563L839.945 102.89375Q839.1325 103.76875 838.32 105.22188Q837.52313 106.65938 837.08563 108.19063Q836.7575 109.26875 836.6794 110.55L835.58563 110.55Q835.60126 109.53438 835.97626 108.09688Q836.3669 106.65938 837.07 105.33125Q837.78876 104.00313 838.60126 103.08125L834.3825 103.08125ZM841.91376 110.55L841.91376 109.34688L843.1169 109.34688L843.1169 110.55L841.91376 110.55ZM844.32 108.28438L845.3825 108.14375Q845.5544 109.03438 845.9919 109.44063Q846.4294 109.83125 847.0544 109.83125Q847.8044 109.83125 848.32 109.31563Q848.83563 108.8 848.83563 108.03438Q848.83563 107.31563 848.35126 106.84688Q847.8825 106.3625 847.14813 106.3625Q846.85126 106.3625 846.39813 106.4875L846.52313 105.55Q846.6325 105.56563 846.695 105.56563Q847.3669 105.56563 847.89813 105.22188Q848.445 104.8625 848.445 104.12813Q848.445 103.55 848.0544 103.175Q847.66376 102.78438 847.03876 102.78438Q846.4294 102.78438 846.0075 103.175Q845.60126 103.56563 845.4919 104.33125L844.4294 104.14375Q844.6169 103.09688 845.3044 102.51875Q845.9919 101.925 847.0075 101.925Q847.71063 101.925 848.3044 102.2375Q848.89813 102.53438 849.21063 103.05Q849.52313 103.56563 849.52313 104.15938Q849.52313 104.70625 849.22626 105.175Q848.9294 105.62813 848.35126 105.89375Q849.10126 106.06563 849.52313 106.62813Q849.945 107.175 849.945 108.01875Q849.945 109.14375 849.1169 109.925Q848.3044 110.70625 847.0544 110.70625Q845.9294 110.70625 845.1794 110.03438Q844.4294 109.34688 844.32 108.28438Z" fill-rule="nonzero"/><path fill="#ff6d01" d="M813.82 125.55C813.82 124.99772 814.2677 124.55 814.82 124.55L824.82 124.55C825.3723 124.55 825.82 124.99772 825.82 125.55L825.82 135.55C825.82 136.10228 825.3723 136.55 824.82 136.55L814.82 136.55C814.2677 136.55 813.82 136.10228 813.82 135.55Z" fill-rule="nonzero"/><path fill="#1a1a1a" d="M834.3825 127.08125L834.3825 126.06563L839.945 126.06563L839.945 126.89375Q839.1325 127.76875 838.32 129.22188Q837.52313 130.65938 837.08563 132.19063Q836.7575 133.26875 836.6794 134.55L835.58563 134.55Q835.60126 133.53438 835.97626 132.09688Q836.3669 130.65938 837.07 129.33125Q837.78876 128.00313 838.60126 127.08125L834.3825 127.08125ZM841.91376 134.55L841.91376 133.34688L843.1169 133.34688L843.1169 134.55L841.91376 134.55ZM847.695 134.55L847.695 132.4875L843.97626 132.4875L843.97626 131.51875L847.89813 125.95625L848.7575 125.95625L848.7575 131.51875L849.91376 131.51875L849.91376 132.4875L848.7575 132.4875L848.7575 134.55L847.695 134.55ZM847.695 131.51875L847.695 127.65938L845.0075 131.51875L847.695 131.51875Z" fill-rule="nonzero"/><path fill="#34a853" d="M813.82 149.55C813.82 148.99771 814.2677 148.55 814.82 148.55L824.82 148.55C825.3723 148.55 825.82 148.99771 825.82 149.55L825.82 159.55C825.82 160.10228 825.3723 160.55 824.82 160.55L814.82 160.55C814.2677 160.55 813.82 160.10228 813.82 159.55Z" fill-rule="nonzero"/><path fill="#1a1a1a" d="M835.945 153.89375Q835.28876 153.64375 834.96063 153.20625Q834.64813 152.75313 834.64813 152.14375Q834.64813 151.20625 835.32 150.56563Q836.0075 149.925 837.1169 149.925Q838.2419 149.925 838.9294 150.58125Q839.6169 151.2375 839.6169 152.175Q839.6169 152.76875 839.3044 153.20625Q838.9919 153.64375 838.35126 153.89375Q839.14813 154.14375 839.5544 154.72188Q839.96063 155.3 839.96063 156.09688Q839.96063 157.19063 839.1794 157.94063Q838.41376 158.69063 837.1325 158.69063Q835.8669 158.69063 835.08563 157.94063Q834.3044 157.19063 834.3044 156.06563Q834.3044 155.22188 834.72626 154.65938Q835.16376 154.09688 835.945 153.89375ZM835.72626 152.09688Q835.72626 152.70625 836.1169 153.09688Q836.52313 153.4875 837.14813 153.4875Q837.7575 153.4875 838.14813 153.1125Q838.53876 152.72188 838.53876 152.15938Q838.53876 151.58125 838.1325 151.19063Q837.72626 150.78438 837.1325 150.78438Q836.52313 150.78438 836.1169 151.175Q835.72626 151.56563 835.72626 152.09688ZM835.39813 156.06563Q835.39813 156.51875 835.60126 156.94063Q835.82 157.3625 836.2419 157.59688Q836.66376 157.83125 837.14813 157.83125Q837.89813 157.83125 838.3825 157.34688Q838.8825 156.8625 838.8825 156.1125Q838.8825 155.34688 838.3825 154.84688Q837.8825 154.34688 837.1169 154.34688Q836.3669 154.34688 835.8825 154.84688Q835.39813 155.33125 835.39813 156.06563ZM841.91376 158.55L841.91376 157.34688L843.1169 157.34688L843.1169 158.55L841.91376 158.55ZM844.32 154.31563Q844.32 152.78438 844.6325 151.8625Q844.945 150.925 845.5544 150.425Q846.1794 149.925 847.1169 149.925Q847.8044 149.925 848.32 150.20625Q848.85126 150.4875 849.195 151.01875Q849.53876 151.53438 849.72626 152.28438Q849.91376 153.03438 849.91376 154.31563Q849.91376 155.83125 849.60126 156.75313Q849.3044 157.675 848.6794 158.19063Q848.07 158.69063 847.1169 158.69063Q845.8825 158.69063 845.16376 157.8Q844.32 156.7375 844.32 154.31563ZM845.39813 154.31563Q845.39813 156.425 845.89813 157.12813Q846.39813 157.83125 847.1169 157.83125Q847.85126 157.83125 848.33563 157.12813Q848.83563 156.425 848.83563 154.31563Q848.83563 152.19063 848.33563 151.50313Q847.85126 150.8 847.10126 150.8Q846.3825 150.8 845.945 151.40938Q845.39813 152.19063 845.39813 154.31563Z" fill-rule="nonzero"/><path fill="#b6d7a8" d="M813.82 173.55C813.82 172.99771 814.2677 172.55 814.82 172.55L824.82 172.55C825.3723 172.55 825.82 172.99771 825.82 173.55L825.82 183.55C825.82 184.10228 825.3723 184.55 824.82 184.55L814.82 184.55C814.2677 184.55 813.82 184.10228 813.82 183.55Z" fill-rule="nonzero"/><path fill="#1a1a1a" d="M835.945 177.89375Q835.28876 177.64375 834.96063 177.20625Q834.64813 176.75313 834.64813 176.14375Q834.64813 175.20625 835.32 174.56563Q836.0075 173.925 837.1169 173.925Q838.2419 173.925 838.9294 174.58125Q839.6169 175.2375 839.6169 176.175Q839.6169 176.76875 839.3044 177.20625Q838.9919 177.64375 838.35126 177.89375Q839.14813 178.14375 839.5544 178.72188Q839.96063 179.3 839.96063 180.09688Q839.96063 181.19063 839.1794 181.94063Q838.41376 182.69063 837.1325 182.69063Q835.8669 182.69063 835.08563 181.94063Q834.3044 181.19063 834.3044 180.06563Q834.3044 179.22188 834.72626 178.65938Q835.16376 178.09688 835.945 177.89375ZM835.72626 176.09688Q835.72626 176.70625 836.1169 177.09688Q836.52313 177.4875 837.14813 177.4875Q837.7575 177.4875 838.14813 177.1125Q838.53876 176.72188 838.53876 176.15938Q838.53876 175.58125 838.1325 175.19063Q837.72626 174.78438 837.1325 174.78438Q836.52313 174.78438 836.1169 175.175Q835.72626 175.56563 835.72626 176.09688ZM835.39813 180.06563Q835.39813 180.51875 835.60126 180.94063Q835.82 181.3625 836.2419 181.59688Q836.66376 181.83125 837.14813 181.83125Q837.89813 181.83125 838.3825 181.34688Q838.8825 180.8625 838.8825 180.1125Q838.8825 179.34688 838.3825 178.84688Q837.8825 178.34688 837.1169 178.34688Q836.3669 178.34688 835.8825 178.84688Q835.39813 179.33125 835.39813 180.06563ZM841.91376 182.55L841.91376 181.34688L843.1169 181.34688L843.1169 182.55L841.91376 182.55ZM848.28876 182.55L847.2419 182.55L847.2419 175.83125Q846.85126 176.19063 846.22626 176.56563Q845.6169 176.925 845.1325 177.09688L845.1325 176.08125Q846.0075 175.65938 846.66376 175.08125Q847.33563 174.4875 847.6169 173.925L848.28876 173.925L848.28876 182.55Z" fill-rule="nonzero"/></svg>