<svg version="1.1" viewBox="0.0 0.0 892.0 551.0" fill="none" stroke="none" stroke-linecap="square" stroke-miterlimit="10" width="892" height="551" xmlns:xlink="http://www.w3.org/1999/xlink" xmlns="http://www.w3.org/2000/svg"><path fill="#ffffff" d="M0 0L892.0 0L892.0 551.0L0 551.0L0 0Z" fill-rule="nonzero"/><path stroke="#333333" stroke-width="1.0" stroke-linecap="butt" d="M65.5 503.5L780.5 503.5" fill-rule="nonzero"/><path stroke="#cccccc" stroke-width="1.0" stroke-linecap="butt" d="M65.5 386.5L780.5 386.5" fill-rule="nonzero"/><path stroke="#cccccc" stroke-width="1.0" stroke-linecap="butt" d="M65.5 269.5L780.5 269.5" fill-rule="nonzero"/><path stroke="#cccccc" stroke-width="1.0" stroke-linecap="butt" d="M65.5 151.5L780.5 151.5" fill-rule="nonzero"/><path stroke="#cccccc" stroke-width="1.0" stroke-linecap="butt" d="M65.5 34.5L780.5 34.5" fill-rule="nonzero"/><clipPath id="id_0"><path d="M65.55 34.55L780.76 34.55L780.76 503.45L65.55 503.45L65.55 34.55Z" clip-rule="nonzero"/></clipPath><path stroke="#000000" stroke-width="2.0" stroke-linecap="butt" stroke-opacity="0.0" clip-path="url(#id_0)" d="M280.0 503.0L141.0 503.0L141.0 503.0L280.0 503.0Z" fill-rule="nonzero"/><path fill="#b6d7a8" clip-path="url(#id_0)" d="M280.0 503.0L141.0 503.0L141.0 503.0L280.0 503.0Z" fill-rule="nonzero"/><path stroke="#000000" stroke-width="2.0" stroke-linecap="butt" stroke-opacity="0.0" clip-path="url(#id_0)" d="M493.0 503.0L354.0 503.0L354.0 460.0L493.0 460.0Z" fill-rule="nonzero"/><path fill="#b6d7a8" clip-path="url(#id_0)" d="M493.0 503.0L354.0 503.0L354.0 460.0L493.0 460.0Z" fill-rule="nonzero"/><path stroke="#000000" stroke-width="2.0" stroke-linecap="butt" stroke-opacity="0.0" clip-path="url(#id_0)" d="M707.0 503.0L568.0 503.0L568.0 387.0L707.0 387.0Z" fill-rule="nonzero"/><path fill="#b6d7a8" clip-path="url(#id_0)" d="M707.0 503.0L568.0 503.0L568.0 387.0L707.0 387.0Z" fill-rule="nonzero"/><path stroke="#000000" stroke-width="2.0" stroke-linecap="butt" stroke-opacity="0.0" clip-path="url(#id_0)" d="M280.0 503.0L141.0 503.0L141.0 431.0L280.0 431.0Z" fill-rule="nonzero"/><path fill="#34a853" clip-path="url(#id_0)" d="M280.0 503.0L141.0 503.0L141.0 431.0L280.0 431.0Z" fill-rule="nonzero"/><path stroke="#000000" stroke-width="2.0" stroke-linecap="butt" stroke-opacity="0.0" clip-path="url(#id_0)" d="M493.0 460.0L354.0 460.0L354.0 345.0L493.0 345.0Z" fill-rule="nonzero"/><path fill="#34a853" clip-path="url(#id_0)" d="M493.0 460.0L354.0 460.0L354.0 345.0L493.0 345.0Z" fill-rule="nonzero"/><path stroke="#000000" stroke-width="2.0" stroke-linecap="butt" stroke-opacity="0.0" clip-path="url(#id_0)" d="M707.0 387.0L568.0 387.0L568.0 289.0L707.0 289.0Z" fill-rule="nonzero"/><path fill="#34a853" clip-path="url(#id_0)" d="M707.0 387.0L568.0 387.0L568.0 289.0L707.0 289.0Z" fill-rule="nonzero"/><path stroke="#000000" stroke-width="2.0" stroke-linecap="butt" stroke-opacity="0.0" clip-path="url(#id_0)" d="M280.0 431.0L141.0 431.0L141.0 200.0L280.0 200.0Z" fill-rule="nonzero"/><path fill="#ff6d01" clip-path="url(#id_0)" d="M280.0 431.0L141.0 431.0L141.0 200.0L280.0 200.0Z" fill-rule="nonzero"/><path stroke="#000000" stroke-width="2.0" stroke-linecap="butt" stroke-opacity="0.0" clip-path="url(#id_0)" d="M493.0 345.0L354.0 345.0L354.0 135.0L493.0 135.0Z" fill-rule="nonzero"/><path fill="#ff6d01" clip-path="url(#id_0)" d="M493.0 345.0L354.0 345.0L354.0 135.0L493.0 135.0Z" fill-rule="nonzero"/><path stroke="#000000" stroke-width="2.0" stroke-linecap="butt" stroke-opacity="0.0" clip-path="url(#id_0)" d="M707.0 289.0L568.0 289.0L568.0 106.0L707.0 106.0Z" fill-rule="nonzero"/><path fill="#ff6d01" clip-path="url(#id_0)" d="M707.0 289.0L568.0 289.0L568.0 106.0L707.0 106.0Z" fill-rule="nonzero"/><path stroke="#000000" stroke-width="2.0" stroke-linecap="butt" stroke-opacity="0.0" clip-path="url(#id_0)" d="M280.0 200.0L141.0 200.0L141.0 105.0L280.0 105.0Z" fill-rule="nonzero"/><path fill="#ea9999" clip-path="url(#id_0)" d="M280.0 200.0L141.0 200.0L141.0 105.0L280.0 105.0Z" fill-rule="nonzero"/><path stroke="#000000" stroke-width="2.0" stroke-linecap="butt" stroke-opacity="0.0" clip-path="url(#id_0)" d="M493.0 135.0L354.0 135.0L354.0 78.0L493.0 78.0Z" fill-rule="nonzero"/><path fill="#ea9999" clip-path="url(#id_0)" d="M493.0 135.0L354.0 135.0L354.0 78.0L493.0 78.0Z" fill-rule="nonzero"/><path stroke="#000000" stroke-width="2.0" stroke-linecap="butt" stroke-opacity="0.0" clip-path="url(#id_0)" d="M707.0 106.0L568.0 106.0L568.0 68.0L707.0 68.0Z" fill-rule="nonzero"/><path fill="#ea9999" clip-path="url(#id_0)" d="M707.0 106.0L568.0 106.0L568.0 68.0L707.0 68.0Z" fill-rule="nonzero"/><path stroke="#000000" stroke-width="2.0" stroke-linecap="butt" stroke-opacity="0.0" clip-path="url(#id_0)" d="M280.0 105.0L141.0 105.0L141.0 53.0L280.0 53.0Z" fill-rule="nonzero"/><path fill="#cc0000" clip-path="url(#id_0)" d="M280.0 105.0L141.0 105.0L141.0 53.0L280.0 53.0Z" fill-rule="nonzero"/><path stroke="#000000" stroke-width="2.0" stroke-linecap="butt" stroke-opacity="0.0" clip-path="url(#id_0)" d="M493.0 78.0L354.0 78.0L354.0 46.0L493.0 46.0Z" fill-rule="nonzero"/><path fill="#cc0000" clip-path="url(#id_0)" d="M493.0 78.0L354.0 78.0L354.0 46.0L493.0 46.0Z" fill-rule="nonzero"/><path stroke="#000000" stroke-width="2.0" stroke-linecap="butt" stroke-opacity="0.0" clip-path="url(#id_0)" d="M707.0 68.0L568.0 68.0L568.0 44.0L707.0 44.0Z" fill-rule="nonzero"/><path fill="#cc0000" clip-path="url(#id_0)" d="M707.0 68.0L568.0 68.0L568.0 44.0L707.0 44.0Z" fill-rule="nonzero"/><path stroke="#000000" stroke-width="2.0" stroke-linecap="butt" stroke-opacity="0.0" clip-path="url(#id_0)" d="M280.0 53.0L141.0 53.0L141.0 37.0C141.0 35.89543 141.89543 35.0 143.0 35.0L278.0 35.0C279.10458 35.0 280.0 35.89543 280.0 37.0Z" fill-rule="nonzero"/><path fill="#f9cb9c" clip-path="url(#id_0)" d="M280.0 53.0L141.0 53.0L141.0 37.0C141.0 35.89543 141.89543 35.0 143.0 35.0L278.0 35.0C279.10458 35.0 280.0 35.89543 280.0 37.0Z" fill-rule="nonzero"/><path stroke="#000000" stroke-width="2.0" stroke-linecap="butt" stroke-opacity="0.0" clip-path="url(#id_0)" d="M493.0 46.0L354.0 46.0L354.0 37.0C354.0 35.89543 354.89542 35.0 356.0 35.0L491.0 35.0C492.10458 35.0 493.0 35.89543 493.0 37.0Z" fill-rule="nonzero"/><path fill="#f9cb9c" clip-path="url(#id_0)" d="M493.0 46.0L354.0 46.0L354.0 37.0C354.0 35.89543 354.89542 35.0 356.0 35.0L491.0 35.0C492.10458 35.0 493.0 35.89543 493.0 37.0Z" fill-rule="nonzero"/><path stroke="#000000" stroke-width="2.0" stroke-linecap="butt" stroke-opacity="0.0" clip-path="url(#id_0)" d="M707.0 44.0L568.0 44.0L568.0 37.0C568.0 35.89543 568.89545 35.0 570.0 35.0L705.0 35.0C706.10455 35.0 707.0 35.89543 707.0 37.0Z" fill-rule="nonzero"/><path fill="#f9cb9c" clip-path="url(#id_0)" d="M707.0 44.0L568.0 44.0L568.0 37.0C568.0 35.89543 568.89545 35.0 570.0 35.0L705.0 35.0C706.10455 35.0 707.0 35.89543 707.0 37.0Z" fill-rule="nonzero"/><path fill="#000000" d="M42.05 503.21564Q42.05 501.6844 42.3625 500.7625Q42.675 499.825 43.284374 499.325Q43.909374 498.825 44.846874 498.825Q45.534374 498.825 46.05 499.10626Q46.58125 499.3875 46.925 499.91876Q47.26875 500.4344 47.45625 501.1844Q47.64375 501.9344 47.64375 503.21564Q47.64375 504.73126 47.33125 505.65314Q47.034374 506.575 46.409374 507.09064Q45.8 507.59064 44.846874 507.59064Q43.6125 507.59064 42.89375 506.7Q42.05 505.6375 42.05 503.21564ZM43.128124 503.21564Q43.128124 505.325 43.628124 506.02814Q44.128124 506.73126 44.846874 506.73126Q45.58125 506.73126 46.065624 506.02814Q46.565624 505.325 46.565624 503.21564Q46.565624 501.09064 46.065624 500.40314Q45.58125 499.7 44.83125 499.7Q44.1125 499.7 43.675 500.3094Q43.128124 501.09064 43.128124 503.21564ZM49.253124 500.91876Q49.253124 499.9969 49.70625 499.35626Q50.175 498.71564 51.05 498.71564Q51.8625 498.71564 52.39375 499.29376Q52.925 499.8719 52.925 500.98126Q52.925 502.075 52.378124 502.66876Q51.846874 503.2469 51.065624 503.2469Q50.284374 503.2469 49.76875 502.66876Q49.253124 502.09064 49.253124 500.91876ZM51.08125 499.4344Q50.690624 499.4344 50.425 499.77814Q50.175 500.1219 50.175 501.02814Q50.175 501.85626 50.425 502.2Q50.690624 502.52814 51.08125 502.52814Q51.4875 502.52814 51.7375 502.1844Q52.003124 501.84064 52.003124 500.95Q52.003124 500.10626 51.7375 499.77814Q51.471874 499.4344 51.08125 499.4344ZM51.08125 507.7625L55.784374 498.71564L56.64375 498.71564L51.95625 507.7625L51.08125 507.7625ZM54.8 505.4344Q54.8 504.5125 55.253124 503.8719Q55.721874 503.23126 56.6125 503.23126Q57.425 503.23126 57.95625 503.8094Q58.4875 504.3719 58.4875 505.4969Q58.4875 506.59064 57.940624 507.1844Q57.409374 507.7625 56.6125 507.7625Q55.846874 507.7625 55.315624 507.1844Q54.8 506.60626 54.8 505.4344ZM56.64375 503.95Q56.2375 503.95 55.971874 504.29376Q55.721874 504.6375 55.721874 505.54376Q55.721874 506.35626 55.9875 506.7Q56.253124 507.04376 56.64375 507.04376Q57.034374 507.04376 57.3 506.7Q57.565624 506.35626 57.565624 505.45Q57.565624 504.6219 57.3 504.29376Q57.034374 503.95 56.64375 503.95Z" fill-rule="nonzero"/><path fill="#000000" d="M40.596874 389.20938L40.596874 390.225L34.909374 390.225Q34.909374 389.85 35.034374 389.49063Q35.253124 388.9125 35.721874 388.35Q36.20625 387.7875 37.1125 387.05313Q38.51875 385.89688 39.003124 385.225Q39.503124 384.55313 39.503124 383.95938Q39.503124 383.33438 39.05 382.9125Q38.596874 382.475 37.878124 382.475Q37.1125 382.475 36.659374 382.92813Q36.20625 383.38126 36.190624 384.19376L35.1125 384.08438Q35.221874 382.86563 35.940624 382.24063Q36.675 381.6 37.909374 381.6Q39.14375 381.6 39.8625 382.2875Q40.58125 382.975 40.58125 383.99063Q40.58125 384.50626 40.3625 385.00626Q40.159374 385.49063 39.659374 386.05313Q39.175 386.6 38.05 387.55313Q37.096874 388.35 36.815624 388.64688Q36.55 388.92813 36.378124 389.20938L40.596874 389.20938ZM42.05 387.975L43.159374 387.88126Q43.284374 388.69376 43.721874 389.1Q44.175 389.50626 44.815624 389.50626Q45.565624 389.50626 46.096874 388.92813Q46.628124 388.35 46.628124 387.4125Q46.628124 386.50626 46.1125 385.99063Q45.6125 385.45938 44.784374 385.45938Q44.284374 385.45938 43.8625 385.69376Q43.45625 385.92813 43.221874 386.2875L42.2375 386.1625L43.065624 381.75626L47.346874 381.75626L47.346874 382.75626L43.909374 382.75626L43.45625 385.06876Q44.221874 384.52188 45.065624 384.52188Q46.190624 384.52188 46.95625 385.30313Q47.7375 386.08438 47.7375 387.31876Q47.7375 388.475 47.065624 389.33438Q46.2375 390.36563 44.815624 390.36563Q43.64375 390.36563 42.89375 389.70938Q42.159374 389.05313 42.05 387.975ZM49.253124 383.69376Q49.253124 382.77188 49.70625 382.13126Q50.175 381.49063 51.05 381.49063Q51.8625 381.49063 52.39375 382.06876Q52.925 382.64688 52.925 383.75626Q52.925 384.85 52.378124 385.44376Q51.846874 386.02188 51.065624 386.02188Q50.284374 386.02188 49.76875 385.44376Q49.253124 384.86563 49.253124 383.69376ZM51.08125 382.20938Q50.690624 382.20938 50.425 382.55313Q50.175 382.89688 50.175 383.80313Q50.175 384.63126 50.425 384.975Q50.690624 385.30313 51.08125 385.30313Q51.4875 385.30313 51.7375 384.95938Q52.003124 384.61563 52.003124 383.725Q52.003124 382.88126 51.7375 382.55313Q51.471874 382.20938 51.08125 382.20938ZM51.08125 390.5375L55.784374 381.49063L56.64375 381.49063L51.95625 390.5375L51.08125 390.5375ZM54.8 388.20938Q54.8 387.2875 55.253124 386.64688Q55.721874 386.00626 56.6125 386.00626Q57.425 386.00626 57.95625 386.58438Q58.4875 387.14688 58.4875 388.27188Q58.4875 389.36563 57.940624 389.95938Q57.409374 390.5375 56.6125 390.5375Q55.846874 390.5375 55.315624 389.95938Q54.8 389.38126 54.8 388.20938ZM56.64375 386.725Q56.2375 386.725 55.971874 387.06876Q55.721874 387.4125 55.721874 388.31876Q55.721874 389.13126 55.9875 389.475Q56.253124 389.81876 56.64375 389.81876Q57.034374 389.81876 57.3 389.475Q57.565624 389.13126 57.565624 388.225Q57.565624 387.39688 57.3 387.06876Q57.034374 386.725 56.64375 386.725Z" fill-rule="nonzero"/><path fill="#000000" d="M35.05 270.75L36.159374 270.65625Q36.284374 271.46875 36.721874 271.875Q37.175 272.28125 37.815624 272.28125Q38.565624 272.28125 39.096874 271.70312Q39.628124 271.125 39.628124 270.1875Q39.628124 269.28125 39.1125 268.76562Q38.6125 268.23438 37.784374 268.23438Q37.284374 268.23438 36.8625 268.46875Q36.45625 268.70312 36.221874 269.0625L35.2375 268.9375L36.065624 264.53125L40.346874 264.53125L40.346874 265.53125L36.909374 265.53125L36.45625 267.84375Q37.221874 267.29688 38.065624 267.29688Q39.190624 267.29688 39.95625 268.07812Q40.7375 268.85938 40.7375 270.09375Q40.7375 271.25 40.065624 272.10938Q39.2375 273.14062 37.815624 273.14062Q36.64375 273.14062 35.89375 272.48438Q35.159374 271.82812 35.05 270.75ZM42.05 268.76562Q42.05 267.23438 42.3625 266.3125Q42.675 265.375 43.284374 264.875Q43.909374 264.375 44.846874 264.375Q45.534374 264.375 46.05 264.65625Q46.58125 264.9375 46.925 265.46875Q47.26875 265.98438 47.45625 266.73438Q47.64375 267.48438 47.64375 268.76562Q47.64375 270.28125 47.33125 271.20312Q47.034374 272.125 46.409374 272.64062Q45.8 273.14062 44.846874 273.14062Q43.6125 273.14062 42.89375 272.25Q42.05 271.1875 42.05 268.76562ZM43.128124 268.76562Q43.128124 270.875 43.628124 271.57812Q44.128124 272.28125 44.846874 272.28125Q45.58125 272.28125 46.065624 271.57812Q46.565624 270.875 46.565624 268.76562Q46.565624 266.64062 46.065624 265.95312Q45.58125 265.25 44.83125 265.25Q44.1125 265.25 43.675 265.85938Q43.128124 266.64062 43.128124 268.76562ZM49.253124 266.46875Q49.253124 265.54688 49.70625 264.90625Q50.175 264.26562 51.05 264.26562Q51.8625 264.26562 52.39375 264.84375Q52.925 265.42188 52.925 266.53125Q52.925 267.625 52.378124 268.21875Q51.846874 268.79688 51.065624 268.79688Q50.284374 268.79688 49.76875 268.21875Q49.253124 267.64062 49.253124 266.46875ZM51.08125 264.98438Q50.690624 264.98438 50.425 265.32812Q50.175 265.67188 50.175 266.57812Q50.175 267.40625 50.425 267.75Q50.690624 268.07812 51.08125 268.07812Q51.4875 268.07812 51.7375 267.73438Q52.003124 267.39062 52.003124 266.5Q52.003124 265.65625 51.7375 265.32812Q51.471874 264.98438 51.08125 264.98438ZM51.08125 273.3125L55.784374 264.26562L56.64375 264.26562L51.95625 273.3125L51.08125 273.3125ZM54.8 270.98438Q54.8 270.0625 55.253124 269.42188Q55.721874 268.78125 56.6125 268.78125Q57.425 268.78125 57.95625 269.35938Q58.4875 269.92188 58.4875 271.04688Q58.4875 272.14062 57.940624 272.73438Q57.409374 273.3125 56.6125 273.3125Q55.846874 273.3125 55.315624 272.73438Q54.8 272.15625 54.8 270.98438ZM56.64375 269.5Q56.2375 269.5 55.971874 269.84375Q55.721874 270.1875 55.721874 271.09375Q55.721874 271.90625 55.9875 272.25Q56.253124 272.59375 56.64375 272.59375Q57.034374 272.59375 57.3 272.25Q57.565624 271.90625 57.565624 271.0Q57.565624 270.17188 57.3 269.84375Q57.034374 269.5 56.64375 269.5Z" fill-rule="nonzero"/><path fill="#000000" d="M35.1125 148.30624L35.1125 147.29062L40.675 147.29062L40.675 148.11874Q39.8625 148.99374 39.05 150.44687Q38.253124 151.88437 37.815624 153.41562Q37.4875 154.49374 37.409374 155.775L36.315624 155.775Q36.33125 154.75937 36.70625 153.32187Q37.096874 151.88437 37.8 150.55624Q38.51875 149.22812 39.33125 148.30624L35.1125 148.30624ZM42.05 153.525L43.159374 153.43124Q43.284374 154.24374 43.721874 154.65Q44.175 155.05624 44.815624 155.05624Q45.565624 155.05624 46.096874 154.47812Q46.628124 153.9 46.628124 152.9625Q46.628124 152.05624 46.1125 151.54062Q45.6125 151.00937 44.784374 151.00937Q44.284374 151.00937 43.8625 151.24374Q43.45625 151.47812 43.221874 151.8375L42.2375 151.7125L43.065624 147.30624L47.346874 147.30624L47.346874 148.30624L43.909374 148.30624L43.45625 150.61874Q44.221874 150.07187 45.065624 150.07187Q46.190624 150.07187 46.95625 150.85312Q47.7375 151.63437 47.7375 152.86874Q47.7375 154.025 47.065624 154.88437Q46.2375 155.91562 44.815624 155.91562Q43.64375 155.91562 42.89375 155.25937Q42.159374 154.60312 42.05 153.525ZM49.253124 149.24374Q49.253124 148.32187 49.70625 147.68124Q50.175 147.04062 51.05 147.04062Q51.8625 147.04062 52.39375 147.61874Q52.925 148.19687 52.925 149.30624Q52.925 150.4 52.378124 150.99374Q51.846874 151.57187 51.065624 151.57187Q50.284374 151.57187 49.76875 150.99374Q49.253124 150.41562 49.253124 149.24374ZM51.08125 147.75937Q50.690624 147.75937 50.425 148.10312Q50.175 148.44687 50.175 149.35312Q50.175 150.18124 50.425 150.525Q50.690624 150.85312 51.08125 150.85312Q51.4875 150.85312 51.7375 150.50937Q52.003124 150.16562 52.003124 149.275Q52.003124 148.43124 51.7375 148.10312Q51.471874 147.75937 51.08125 147.75937ZM51.08125 156.0875L55.784374 147.04062L56.64375 147.04062L51.95625 156.0875L51.08125 156.0875ZM54.8 153.75937Q54.8 152.8375 55.253124 152.19687Q55.721874 151.55624 56.6125 151.55624Q57.425 151.55624 57.95625 152.13437Q58.4875 152.69687 58.4875 153.82187Q58.4875 154.91562 57.940624 155.50937Q57.409374 156.0875 56.6125 156.0875Q55.846874 156.0875 55.315624 155.50937Q54.8 154.93124 54.8 153.75937ZM56.64375 152.275Q56.2375 152.275 55.971874 152.61874Q55.721874 152.9625 55.721874 153.86874Q55.721874 154.68124 55.9875 155.025Q56.253124 155.36874 56.64375 155.36874Q57.034374 155.36874 57.3 155.025Q57.565624 154.68124 57.565624 153.775Q57.565624 152.94687 57.3 152.61874Q57.034374 152.275 56.64375 152.275Z" fill-rule="nonzero"/><path fill="#000000" d="M32.01875 38.55L30.971874 38.55L30.971874 31.83125Q30.58125 32.190624 29.95625 32.565624Q29.346874 32.925 28.8625 33.096874L28.8625 32.08125Q29.7375 31.659374 30.39375 31.08125Q31.065624 30.4875 31.346874 29.925L32.01875 29.925L32.01875 38.55ZM35.05 34.315624Q35.05 32.784374 35.3625 31.8625Q35.675 30.925 36.284374 30.425Q36.909374 29.925 37.846874 29.925Q38.534374 29.925 39.05 30.20625Q39.58125 30.4875 39.925 31.01875Q40.26875 31.534374 40.45625 32.284374Q40.64375 33.034374 40.64375 34.315624Q40.64375 35.83125 40.33125 36.753124Q40.034374 37.675 39.409374 38.190624Q38.8 38.690624 37.846874 38.690624Q36.6125 38.690624 35.89375 37.8Q35.05 36.7375 35.05 34.315624ZM36.128124 34.315624Q36.128124 36.425 36.628124 37.128124Q37.128124 37.83125 37.846874 37.83125Q38.58125 37.83125 39.065624 37.128124Q39.565624 36.425 39.565624 34.315624Q39.565624 32.190624 39.065624 31.503124Q38.58125 30.8 37.83125 30.8Q37.1125 30.8 36.675 31.409374Q36.128124 32.190624 36.128124 34.315624ZM42.05 34.315624Q42.05 32.784374 42.3625 31.8625Q42.675 30.925 43.284374 30.425Q43.909374 29.925 44.846874 29.925Q45.534374 29.925 46.05 30.20625Q46.58125 30.4875 46.925 31.01875Q47.26875 31.534374 47.45625 32.284374Q47.64375 33.034374 47.64375 34.315624Q47.64375 35.83125 47.33125 36.753124Q47.034374 37.675 46.409374 38.190624Q45.8 38.690624 44.846874 38.690624Q43.6125 38.690624 42.89375 37.8Q42.05 36.7375 42.05 34.315624ZM43.128124 34.315624Q43.128124 36.425 43.628124 37.128124Q44.128124 37.83125 44.846874 37.83125Q45.58125 37.83125 46.065624 37.128124Q46.565624 36.425 46.565624 34.315624Q46.565624 32.190624 46.065624 31.503124Q45.58125 30.8 44.83125 30.8Q44.1125 30.8 43.675 31.409374Q43.128124 32.190624 43.128124 34.315624ZM49.253124 32.01875Q49.253124 31.096874 49.70625 30.45625Q50.175 29.815624 51.05 29.815624Q51.8625 29.815624 52.39375 30.39375Q52.925 30.971874 52.925 32.08125Q52.925 33.175 52.378124 33.76875Q51.846874 34.346874 51.065624 34.346874Q50.284374 34.346874 49.76875 33.76875Q49.253124 33.190624 49.253124 32.01875ZM51.08125 30.534374Q50.690624 30.534374 50.425 30.878124Q50.175 31.221874 50.175 32.128124Q50.175 32.95625 50.425 33.3Q50.690624 33.628124 51.08125 33.628124Q51.4875 33.628124 51.7375 33.284374Q52.003124 32.940624 52.003124 32.05Q52.003124 31.20625 51.7375 30.878124Q51.471874 30.534374 51.08125 30.534374ZM51.08125 38.8625L55.784374 29.815624L56.64375 29.815624L51.95625 38.8625L51.08125 38.8625ZM54.8 36.534374Q54.8 35.6125 55.253124 34.971874Q55.721874 34.33125 56.6125 34.33125Q57.425 34.33125 57.95625 34.909374Q58.4875 35.471874 58.4875 36.596874Q58.4875 37.690624 57.940624 38.284374Q57.409374 38.8625 56.6125 38.8625Q55.846874 38.8625 55.315624 38.284374Q54.8 37.70625 54.8 36.534374ZM56.64375 35.05Q56.2375 35.05 55.971874 35.39375Q55.721874 35.7375 55.721874 36.64375Q55.721874 37.45625 55.9875 37.8Q56.253124 38.14375 56.64375 38.14375Q57.034374 38.14375 57.3 37.8Q57.565624 37.45625 57.565624 36.55Q57.565624 35.721874 57.3 35.39375Q57.034374 35.05 56.64375 35.05Z" fill-rule="nonzero"/><path fill="#000000" d="M182.50323 518.0125L183.53448 517.8719Q183.56573 518.85626 183.89386 519.21564Q184.22198 519.575 184.81573 519.575Q185.23761 519.575 185.55011 519.3875Q185.86261 519.1844 185.97198 518.85626Q186.09698 518.5125 186.09698 517.77814L186.09698 511.85626L187.22198 511.85626L187.22198 517.71564Q187.22198 518.79376 186.95636 519.3875Q186.70636 519.98126 186.14386 520.29376Q185.58136 520.59064 184.81573 520.59064Q183.69073 520.59064 183.08136 519.95Q182.48761 519.29376 182.50323 518.0125ZM193.03448 520.45L193.03448 519.52814Q192.30011 520.59064 191.05011 520.59064Q190.50323 520.59064 190.01886 520.3875Q189.55011 520.16876 189.31573 519.85626Q189.08136 519.52814 188.98761 519.0594Q188.92511 518.7625 188.92511 518.075L188.92511 514.23126L189.98761 514.23126L189.98761 517.6844Q189.98761 518.4969 190.05011 518.79376Q190.14386 519.2 190.45636 519.45Q190.78448 519.6844 191.26886 519.6844Q191.73761 519.6844 192.14386 519.45Q192.56573 519.2 192.73761 518.77814Q192.92511 518.35626 192.92511 517.5594L192.92511 514.23126L193.97198 514.23126L193.97198 520.45L193.03448 520.45ZM195.92511 520.45L195.92511 511.85626L196.98761 511.85626L196.98761 520.45L195.92511 520.45ZM198.90948 522.84064L198.78448 521.85626Q199.12823 521.95 199.39386 521.95Q199.73761 521.95 199.94073 521.825Q200.15948 521.71564 200.30011 521.5125Q200.39386 521.34064 200.62823 520.71564Q200.64386 520.6375 200.72198 520.46564L198.34698 514.23126L199.48761 514.23126L200.78448 517.825Q201.03448 518.5125 201.23761 519.27814Q201.42511 518.54376 201.67511 517.85626L203.00323 514.23126L204.05011 514.23126L201.69073 520.5594Q201.30011 521.575 201.09698 521.96564Q200.81573 522.4969 200.44073 522.73126Q200.08136 522.98126 199.58136 522.98126Q199.28448 522.98126 198.90948 522.84064ZM204.22198 520.45L204.22198 519.2469L205.42511 519.2469L205.42511 520.45Q205.42511 521.10626 205.19073 521.5125Q204.95636 521.9344 204.45636 522.15314L204.15948 521.7Q204.48761 521.5594 204.64386 521.2625Q204.80011 520.98126 204.83136 520.45L204.22198 520.45ZM215.20636 519.4344L215.20636 520.45L209.51886 520.45Q209.51886 520.075 209.64386 519.71564Q209.86261 519.1375 210.33136 518.575Q210.81573 518.0125 211.72198 517.27814Q213.12823 516.1219 213.61261 515.45Q214.11261 514.77814 214.11261 514.1844Q214.11261 513.5594 213.65948 513.1375Q213.20636 512.7 212.48761 512.7Q211.72198 512.7 211.26886 513.15314Q210.81573 513.60626 210.80011 514.41876L209.72198 514.3094Q209.83136 513.09064 210.55011 512.46564Q211.28448 511.825 212.51886 511.825Q213.75323 511.825 214.47198 512.5125Q215.19073 513.2 215.19073 514.21564Q215.19073 514.73126 214.97198 515.23126Q214.76886 515.71564 214.26886 516.27814Q213.78448 516.825 212.65948 517.77814Q211.70636 518.575 211.42511 518.8719Q211.15948 519.15314 210.98761 519.4344L215.20636 519.4344ZM216.65948 516.21564Q216.65948 514.6844 216.97198 513.7625Q217.28448 512.825 217.89386 512.325Q218.51886 511.825 219.45636 511.825Q220.14386 511.825 220.65948 512.10626Q221.19073 512.3875 221.53448 512.91876Q221.87823 513.4344 222.06573 514.1844Q222.25323 514.9344 222.25323 516.21564Q222.25323 517.73126 221.94073 518.65314Q221.64386 519.575 221.01886 520.09064Q220.40948 520.59064 219.45636 520.59064Q218.22198 520.59064 217.50323 519.7Q216.65948 518.6375 216.65948 516.21564ZM217.73761 516.21564Q217.73761 518.325 218.23761 519.02814Q218.73761 519.73126 219.45636 519.73126Q220.19073 519.73126 220.67511 519.02814Q221.17511 518.325 221.17511 516.21564Q221.17511 514.09064 220.67511 513.40314Q220.19073 512.7 219.44073 512.7Q218.72198 512.7 218.28448 513.3094Q217.73761 514.09064 217.73761 516.21564ZM229.20636 519.4344L229.20636 520.45L223.51886 520.45Q223.51886 520.075 223.64386 519.71564Q223.86261 519.1375 224.33136 518.575Q224.81573 518.0125 225.72198 517.27814Q227.12823 516.1219 227.61261 515.45Q228.11261 514.77814 228.11261 514.1844Q228.11261 513.5594 227.65948 513.1375Q227.20636 512.7 226.48761 512.7Q225.72198 512.7 225.26886 513.15314Q224.81573 513.60626 224.80011 514.41876L223.72198 514.3094Q223.83136 513.09064 224.55011 512.46564Q225.28448 511.825 226.51886 511.825Q227.75323 511.825 228.47198 512.5125Q229.19073 513.2 229.19073 514.21564Q229.19073 514.73126 228.97198 515.23126Q228.76886 515.71564 228.26886 516.27814Q227.78448 516.825 226.65948 517.77814Q225.70636 518.575 225.42511 518.8719Q225.15948 519.15314 224.98761 519.4344L229.20636 519.4344ZM234.62823 520.45L233.58136 520.45L233.58136 513.73126Q233.19073 514.09064 232.56573 514.46564Q231.95636 514.825 231.47198 514.9969L231.47198 513.98126Q232.34698 513.5594 233.00323 512.98126Q233.67511 512.3875 233.95636 511.825L234.62823 511.825L234.62823 520.45Z" fill-rule="nonzero"/><path fill="#000000" d="M384.99875 518.0125L386.03 517.8719Q386.06125 518.85626 386.38937 519.21564Q386.7175 519.575 387.31125 519.575Q387.73312 519.575 388.04562 519.3875Q388.35812 519.1844 388.4675 518.85626Q388.5925 518.5125 388.5925 517.77814L388.5925 511.85626L389.7175 511.85626L389.7175 517.71564Q389.7175 518.79376 389.45187 519.3875Q389.20187 519.98126 388.63937 520.29376Q388.07687 520.59064 387.31125 520.59064Q386.18625 520.59064 385.57687 519.95Q384.98312 519.29376 384.99875 518.0125ZM395.51437 519.6844Q394.92062 520.1844 394.37375 520.3875Q393.8425 520.59064 393.2175 520.59064Q392.18625 520.59064 391.63937 520.09064Q391.0925 519.59064 391.0925 518.8094Q391.0925 518.35626 391.29562 517.98126Q391.49875 517.59064 391.8425 517.3719Q392.18625 517.1375 392.60812 517.02814Q392.905 516.9344 393.54562 516.85626Q394.81125 516.71564 395.42062 516.4969Q395.42062 516.27814 395.42062 516.23126Q395.42062 515.575 395.12375 515.3094Q394.7175 514.96564 393.92062 514.96564Q393.18625 514.96564 392.82687 515.23126Q392.4675 515.48126 392.29562 516.1375L391.26437 515.9969Q391.405 515.34064 391.73312 514.9344Q392.06125 514.52814 392.67062 514.3094Q393.28 514.09064 394.07687 514.09064Q394.87375 514.09064 395.37375 514.27814Q395.87375 514.46564 396.10812 514.7469Q396.3425 515.02814 396.43625 515.46564Q396.48312 515.73126 396.48312 516.4344L396.48312 517.84064Q396.48312 519.3094 396.54562 519.7Q396.62375 520.09064 396.82687 520.45L395.7175 520.45Q395.56125 520.1219 395.51437 519.6844ZM395.42062 517.325Q394.8425 517.5594 393.70187 517.73126Q393.04562 517.825 392.78 517.95Q392.51437 518.0594 392.35812 518.27814Q392.2175 518.4969 392.2175 518.77814Q392.2175 519.2 392.53 519.48126Q392.85812 519.7625 393.4675 519.7625Q394.07687 519.7625 394.54562 519.4969Q395.03 519.23126 395.24875 518.7625Q395.42062 518.40314 395.42062 517.71564L395.42062 517.325ZM398.45187 520.45L398.45187 514.23126L399.38937 514.23126L399.38937 515.10626Q400.07687 514.09064 401.37375 514.09064Q401.93625 514.09064 402.405 514.29376Q402.88937 514.4969 403.12375 514.825Q403.35812 515.15314 403.45187 515.59064Q403.49875 515.8875 403.49875 516.6219L403.49875 520.45L402.45187 520.45L402.45187 516.66876Q402.45187 516.0125 402.32687 515.7Q402.20187 515.3875 401.88937 515.2Q401.57687 514.9969 401.155 514.9969Q400.48312 514.9969 399.98312 515.4344Q399.49875 515.85626 399.49875 517.04376L399.49875 520.45L398.45187 520.45ZM409.53 520.45L409.53 519.52814Q408.79562 520.59064 407.54562 520.59064Q406.99875 520.59064 406.51437 520.3875Q406.04562 520.16876 405.81125 519.85626Q405.57687 519.52814 405.48312 519.0594Q405.42062 518.7625 405.42062 518.075L405.42062 514.23126L406.48312 514.23126L406.48312 517.6844Q406.48312 518.4969 406.54562 518.79376Q406.63937 519.2 406.95187 519.45Q407.28 519.6844 407.76437 519.6844Q408.23312 519.6844 408.63937 519.45Q409.06125 519.2 409.23312 518.77814Q409.42062 518.35626 409.42062 517.5594L409.42062 514.23126L410.4675 514.23126L410.4675 520.45L409.53 520.45ZM416.51437 519.6844Q415.92062 520.1844 415.37375 520.3875Q414.8425 520.59064 414.2175 520.59064Q413.18625 520.59064 412.63937 520.09064Q412.0925 519.59064 412.0925 518.8094Q412.0925 518.35626 412.29562 517.98126Q412.49875 517.59064 412.8425 517.3719Q413.18625 517.1375 413.60812 517.02814Q413.905 516.9344 414.54562 516.85626Q415.81125 516.71564 416.42062 516.4969Q416.42062 516.27814 416.42062 516.23126Q416.42062 515.575 416.12375 515.3094Q415.7175 514.96564 414.92062 514.96564Q414.18625 514.96564 413.82687 515.23126Q413.4675 515.48126 413.29562 516.1375L412.26437 515.9969Q412.405 515.34064 412.73312 514.9344Q413.06125 514.52814 413.67062 514.3094Q414.28 514.09064 415.07687 514.09064Q415.87375 514.09064 416.37375 514.27814Q416.87375 514.46564 417.10812 514.7469Q417.3425 515.02814 417.43625 515.46564Q417.48312 515.73126 417.48312 516.4344L417.48312 517.84064Q417.48312 519.3094 417.54562 519.7Q417.62375 520.09064 417.82687 520.45L416.7175 520.45Q416.56125 520.1219 416.51437 519.6844ZM416.42062 517.325Q415.8425 517.5594 414.70187 517.73126Q414.04562 517.825 413.78 517.95Q413.51437 518.0594 413.35812 518.27814Q413.2175 518.4969 413.2175 518.77814Q413.2175 519.2 413.53 519.48126Q413.85812 519.7625 414.4675 519.7625Q415.07687 519.7625 415.54562 519.4969Q416.03 519.23126 416.24875 518.7625Q416.42062 518.40314 416.42062 517.71564L416.42062 517.325ZM419.43625 520.45L419.43625 514.23126L420.38937 514.23126L420.38937 515.16876Q420.74875 514.5125 421.04562 514.3094Q421.35812 514.09064 421.73312 514.09064Q422.26437 514.09064 422.81125 514.41876L422.45187 515.40314Q422.06125 515.16876 421.68625 515.16876Q421.32687 515.16876 421.04562 515.3875Q420.78 515.59064 420.67062 515.96564Q420.48312 516.52814 420.48312 517.1844L420.48312 520.45L419.43625 520.45ZM423.405 522.84064L423.28 521.85626Q423.62375 521.95 423.88937 521.95Q424.23312 521.95 424.43625 521.825Q424.655 521.71564 424.79562 521.5125Q424.88937 521.34064 425.12375 520.71564Q425.13937 520.6375 425.2175 520.46564L422.8425 514.23126L423.98312 514.23126L425.28 517.825Q425.53 518.5125 425.73312 519.27814Q425.92062 518.54376 426.17062 517.85626L427.49875 514.23126L428.54562 514.23126L426.18625 520.5594Q425.79562 521.575 425.5925 521.96564Q425.31125 522.4969 424.93625 522.73126Q424.57687 522.98126 424.07687 522.98126Q423.78 522.98126 423.405 522.84064ZM428.7175 520.45L428.7175 519.2469L429.92062 519.2469L429.92062 520.45Q429.92062 521.10626 429.68625 521.5125Q429.45187 521.9344 428.95187 522.15314L428.655 521.7Q428.98312 521.5594 429.13937 521.2625Q429.29562 520.98126 429.32687 520.45L428.7175 520.45ZM439.70187 519.4344L439.70187 520.45L434.01437 520.45Q434.01437 520.075 434.13937 519.71564Q434.35812 519.1375 434.82687 518.575Q435.31125 518.0125 436.2175 517.27814Q437.62375 516.1219 438.10812 515.45Q438.60812 514.77814 438.60812 514.1844Q438.60812 513.5594 438.155 513.1375Q437.70187 512.7 436.98312 512.7Q436.2175 512.7 435.76437 513.15314Q435.31125 513.60626 435.29562 514.41876L434.2175 514.3094Q434.32687 513.09064 435.04562 512.46564Q435.78 511.825 437.01437 511.825Q438.24875 511.825 438.9675 512.5125Q439.68625 513.2 439.68625 514.21564Q439.68625 514.73126 439.4675 515.23126Q439.26437 515.71564 438.76437 516.27814Q438.28 516.825 437.155 517.77814Q436.20187 518.575 435.92062 518.8719Q435.655 519.15314 435.48312 519.4344L439.70187 519.4344ZM441.155 516.21564Q441.155 514.6844 441.4675 513.7625Q441.78 512.825 442.38937 512.325Q443.01437 511.825 443.95187 511.825Q444.63937 511.825 445.155 512.10626Q445.68625 512.3875 446.03 512.91876Q446.37375 513.4344 446.56125 514.1844Q446.74875 514.9344 446.74875 516.21564Q446.74875 517.73126 446.43625 518.65314Q446.13937 519.575 445.51437 520.09064Q444.905 520.59064 443.95187 520.59064Q442.7175 520.59064 441.99875 519.7Q441.155 518.6375 441.155 516.21564ZM442.23312 516.21564Q442.23312 518.325 442.73312 519.02814Q443.23312 519.73126 443.95187 519.73126Q444.68625 519.73126 445.17062 519.02814Q445.67062 518.325 445.67062 516.21564Q445.67062 514.09064 445.17062 513.40314Q444.68625 512.7 443.93625 512.7Q443.2175 512.7 442.78 513.3094Q442.23312 514.09064 442.23312 516.21564ZM453.70187 519.4344L453.70187 520.45L448.01437 520.45Q448.01437 520.075 448.13937 519.71564Q448.35812 519.1375 448.82687 518.575Q449.31125 518.0125 450.2175 517.27814Q451.62375 516.1219 452.10812 515.45Q452.60812 514.77814 452.60812 514.1844Q452.60812 513.5594 452.155 513.1375Q451.70187 512.7 450.98312 512.7Q450.2175 512.7 449.76437 513.15314Q449.31125 513.60626 449.29562 514.41876L448.2175 514.3094Q448.32687 513.09064 449.04562 512.46564Q449.78 511.825 451.01437 511.825Q452.24875 511.825 452.9675 512.5125Q453.68625 513.2 453.68625 514.21564Q453.68625 514.73126 453.4675 515.23126Q453.26437 515.71564 452.76437 516.27814Q452.28 516.825 451.155 517.77814Q450.20187 518.575 449.92062 518.8719Q449.655 519.15314 449.48312 519.4344L453.70187 519.4344ZM460.70187 519.4344L460.70187 520.45L455.01437 520.45Q455.01437 520.075 455.13937 519.71564Q455.35812 519.1375 455.82687 518.575Q456.31125 518.0125 457.2175 517.27814Q458.62375 516.1219 459.10812 515.45Q459.60812 514.77814 459.60812 514.1844Q459.60812 513.5594 459.155 513.1375Q458.70187 512.7 457.98312 512.7Q457.2175 512.7 456.76437 513.15314Q456.31125 513.60626 456.29562 514.41876L455.2175 514.3094Q455.32687 513.09064 456.04562 512.46564Q456.78 511.825 458.01437 511.825Q459.24875 511.825 459.9675 512.5125Q460.68625 513.2 460.68625 514.21564Q460.68625 514.73126 460.4675 515.23126Q460.26437 515.71564 459.76437 516.27814Q459.28 516.825 458.155 517.77814Q457.20187 518.575 456.92062 518.8719Q456.655 519.15314 456.48312 519.4344L460.70187 519.4344Z" fill-rule="nonzero"/><path fill="#000000" d="M609.49426 518.0125L610.5255 517.8719Q610.55676 518.85626 610.8849 519.21564Q611.213 519.575 611.80676 519.575Q612.22864 519.575 612.54114 519.3875Q612.85364 519.1844 612.963 518.85626Q613.088 518.5125 613.088 517.77814L613.088 511.85626L614.213 511.85626L614.213 517.71564Q614.213 518.79376 613.9474 519.3875Q613.6974 519.98126 613.1349 520.29376Q612.5724 520.59064 611.80676 520.59064Q610.68176 520.59064 610.0724 519.95Q609.47864 519.29376 609.49426 518.0125ZM620.0255 520.45L620.0255 519.52814Q619.29114 520.59064 618.04114 520.59064Q617.49426 520.59064 617.0099 520.3875Q616.54114 520.16876 616.30676 519.85626Q616.0724 519.52814 615.97864 519.0594Q615.91614 518.7625 615.91614 518.075L615.91614 514.23126L616.97864 514.23126L616.97864 517.6844Q616.97864 518.4969 617.04114 518.79376Q617.1349 519.2 617.4474 519.45Q617.7755 519.6844 618.2599 519.6844Q618.72864 519.6844 619.1349 519.45Q619.55676 519.2 619.72864 518.77814Q619.91614 518.35626 619.91614 517.5594L619.91614 514.23126L620.963 514.23126L620.963 520.45L620.0255 520.45ZM622.91614 520.45L622.91614 511.85626L623.97864 511.85626L623.97864 520.45L622.91614 520.45ZM625.9005 522.84064L625.7755 521.85626Q626.11926 521.95 626.3849 521.95Q626.72864 521.95 626.93176 521.825Q627.1505 521.71564 627.29114 521.5125Q627.3849 521.34064 627.61926 520.71564Q627.6349 520.6375 627.713 520.46564L625.338 514.23126L626.47864 514.23126L627.7755 517.825Q628.0255 518.5125 628.22864 519.27814Q628.41614 518.54376 628.66614 517.85626L629.99426 514.23126L631.04114 514.23126L628.68176 520.5594Q628.29114 521.575 628.088 521.96564Q627.80676 522.4969 627.43176 522.73126Q627.0724 522.98126 626.5724 522.98126Q626.2755 522.98126 625.9005 522.84064ZM631.213 520.45L631.213 519.2469L632.41614 519.2469L632.41614 520.45Q632.41614 521.10626 632.18176 521.5125Q631.9474 521.9344 631.4474 522.15314L631.1505 521.7Q631.47864 521.5594 631.6349 521.2625Q631.79114 520.98126 631.8224 520.45L631.213 520.45ZM642.1974 519.4344L642.1974 520.45L636.5099 520.45Q636.5099 520.075 636.6349 519.71564Q636.85364 519.1375 637.3224 518.575Q637.80676 518.0125 638.713 517.27814Q640.11926 516.1219 640.60364 515.45Q641.10364 514.77814 641.10364 514.1844Q641.10364 513.5594 640.6505 513.1375Q640.1974 512.7 639.47864 512.7Q638.713 512.7 638.2599 513.15314Q637.80676 513.60626 637.79114 514.41876L636.713 514.3094Q636.8224 513.09064 637.54114 512.46564Q638.2755 511.825 639.5099 511.825Q640.74426 511.825 641.463 512.5125Q642.18176 513.2 642.18176 514.21564Q642.18176 514.73126 641.963 515.23126Q641.7599 515.71564 641.2599 516.27814Q640.7755 516.825 639.6505 517.77814Q638.6974 518.575 638.41614 518.8719Q638.1505 519.15314 637.97864 519.4344L642.1974 519.4344ZM643.6505 516.21564Q643.6505 514.6844 643.963 513.7625Q644.2755 512.825 644.8849 512.325Q645.5099 511.825 646.4474 511.825Q647.1349 511.825 647.6505 512.10626Q648.18176 512.3875 648.5255 512.91876Q648.86926 513.4344 649.05676 514.1844Q649.24426 514.9344 649.24426 516.21564Q649.24426 517.73126 648.93176 518.65314Q648.6349 519.575 648.0099 520.09064Q647.4005 520.59064 646.4474 520.59064Q645.213 520.59064 644.49426 519.7Q643.6505 518.6375 643.6505 516.21564ZM644.72864 516.21564Q644.72864 518.325 645.22864 519.02814Q645.72864 519.73126 646.4474 519.73126Q647.18176 519.73126 647.66614 519.02814Q648.16614 518.325 648.16614 516.21564Q648.16614 514.09064 647.66614 513.40314Q647.18176 512.7 646.43176 512.7Q645.713 512.7 645.2755 513.3094Q644.72864 514.09064 644.72864 516.21564ZM656.1974 519.4344L656.1974 520.45L650.5099 520.45Q650.5099 520.075 650.6349 519.71564Q650.85364 519.1375 651.3224 518.575Q651.80676 518.0125 652.713 517.27814Q654.11926 516.1219 654.60364 515.45Q655.10364 514.77814 655.10364 514.1844Q655.10364 513.5594 654.6505 513.1375Q654.1974 512.7 653.47864 512.7Q652.713 512.7 652.2599 513.15314Q651.80676 513.60626 651.79114 514.41876L650.713 514.3094Q650.8224 513.09064 651.54114 512.46564Q652.2755 511.825 653.5099 511.825Q654.74426 511.825 655.463 512.5125Q656.18176 513.2 656.18176 514.21564Q656.18176 514.73126 655.963 515.23126Q655.7599 515.71564 655.2599 516.27814Q654.7755 516.825 653.6505 517.77814Q652.6974 518.575 652.41614 518.8719Q652.1505 519.15314 651.97864 519.4344L656.1974 519.4344ZM663.1974 519.4344L663.1974 520.45L657.5099 520.45Q657.5099 520.075 657.6349 519.71564Q657.85364 519.1375 658.3224 518.575Q658.80676 518.0125 659.713 517.27814Q661.11926 516.1219 661.60364 515.45Q662.10364 514.77814 662.10364 514.1844Q662.10364 513.5594 661.6505 513.1375Q661.1974 512.7 660.47864 512.7Q659.713 512.7 659.2599 513.15314Q658.80676 513.60626 658.79114 514.41876L657.713 514.3094Q657.8224 513.09064 658.54114 512.46564Q659.2755 511.825 660.5099 511.825Q661.74426 511.825 662.463 512.5125Q663.18176 513.2 663.18176 514.21564Q663.18176 514.73126 662.963 515.23126Q662.7599 515.71564 662.2599 516.27814Q661.7755 516.825 660.6505 517.77814Q659.6974 518.575 659.41614 518.8719Q659.1505 519.15314 658.97864 519.4344L663.1974 519.4344Z" fill-rule="nonzero"/><path fill="#f9cb9c" d="M813.82 29.55C813.82 28.997715 814.2677 28.55 814.82 28.55L824.82 28.55C825.3723 28.55 825.82 28.997715 825.82 29.55L825.82 39.55C825.82 40.102283 825.3723 40.55 824.82 40.55L814.82 40.55C814.2677 40.55 813.82 40.102283 813.82 39.55Z" fill-rule="nonzero"/><path fill="#1a1a1a" d="M834.3825 31.08125L834.3825 30.065624L839.945 30.065624L839.945 30.89375Q839.1325 31.76875 838.32 33.221874Q837.52313 34.659374 837.08563 36.190624Q836.7575 37.26875 836.6794 38.55L835.58563 38.55Q835.60126 37.534374 835.97626 36.096874Q836.3669 34.659374 837.07 33.33125Q837.78876 32.003124 838.60126 31.08125L834.3825 31.08125ZM841.91376 38.55L841.91376 37.346874L843.1169 37.346874L843.1169 38.55L841.91376 38.55ZM848.28876 38.55L847.2419 38.55L847.2419 31.83125Q846.85126 32.190624 846.22626 32.565624Q845.6169 32.925 845.1325 33.096874L845.1325 32.08125Q846.0075 31.659374 846.66376 31.08125Q847.33563 30.4875 847.6169 29.925L848.28876 29.925L848.28876 38.55Z" fill-rule="nonzero"/><path fill="#cc0000" d="M813.82 53.55C813.82 52.997715 814.2677 52.55 814.82 52.55L824.82 52.55C825.3723 52.55 825.82 52.997715 825.82 53.55L825.82 63.55C825.82 64.10229 825.3723 64.55 824.82 64.55L814.82 64.55C814.2677 64.55 813.82 64.10229 813.82 63.55Z" fill-rule="nonzero"/><path fill="#1a1a1a" d="M834.3825 55.08125L834.3825 54.065624L839.945 54.065624L839.945 54.89375Q839.1325 55.76875 838.32 57.221874Q837.52313 58.659374 837.08563 60.190624Q836.7575 61.26875 836.6794 62.55L835.58563 62.55Q835.60126 61.534374 835.97626 60.096874Q836.3669 58.659374 837.07 57.33125Q837.78876 56.003124 838.60126 55.08125L834.3825 55.08125ZM841.91376 62.55L841.91376 61.346874L843.1169 61.346874L843.1169 62.55L841.91376 62.55ZM849.8669 61.534374L849.8669 62.55L844.1794 62.55Q844.1794 62.175 844.3044 61.815624Q844.52313 61.2375 844.9919 60.675Q845.47626 60.1125 846.3825 59.378124Q847.78876 58.221874 848.27313 57.55Q848.77313 56.878124 848.77313 56.284374Q848.77313 55.659374 848.32 55.2375Q847.8669 54.8 847.14813 54.8Q846.3825 54.8 845.9294 55.253124Q845.47626 55.70625 845.46063 56.51875L844.3825 56.409374Q844.4919 55.190624 845.21063 54.565624Q845.945 53.925 847.1794 53.925Q848.41376 53.925 849.1325 54.6125Q849.85126 55.3 849.85126 56.315624Q849.85126 56.83125 849.6325 57.33125Q849.4294 57.815624 848.9294 58.378124Q848.445 58.925 847.32 59.878124Q846.3669 60.675 846.08563 60.971874Q845.82 61.253124 845.64813 61.534374L849.8669 61.534374Z" fill-rule="nonzero"/><path fill="#ea9999" d="M813.82 77.55C813.82 76.99772 814.2677 76.55 814.82 76.55L824.82 76.55C825.3723 76.55 825.82 76.99772 825.82 77.55L825.82 87.55C825.82 88.10229 825.3723 88.55 824.82 88.55L814.82 88.55C814.2677 88.55 813.82 88.10229 813.82 87.55Z" fill-rule="nonzero"/><path fill="#1a1a1a" d="M834.3825 79.08125L834.3825 78.06563L839.945 78.06563L839.945 78.89375Q839.1325 79.76875 838.32 81.22188Q837.52313 82.65938 837.08563 84.19063Q836.7575 85.26875 836.6794 86.55L835.58563 86.55Q835.60126 85.53438 835.97626 84.09688Q836.3669 82.65938 837.07 81.33125Q837.78876 80.00313 838.60126 79.08125L834.3825 79.08125ZM841.91376 86.55L841.91376 85.34688L843.1169 85.34688L843.1169 86.55L841.91376 86.55ZM844.32 84.28438L845.3825 84.14375Q845.5544 85.03438 845.9919 85.44063Q846.4294 85.83125 847.0544 85.83125Q847.8044 85.83125 848.32 85.31563Q848.83563 84.8 848.83563 84.03438Q848.83563 83.31563 848.35126 82.84688Q847.8825 82.3625 847.14813 82.3625Q846.85126 82.3625 846.39813 82.4875L846.52313 81.55Q846.6325 81.56563 846.695 81.56563Q847.3669 81.56563 847.89813 81.22188Q848.445 80.8625 848.445 80.12813Q848.445 79.55 848.0544 79.175Q847.66376 78.78438 847.03876 78.78438Q846.4294 78.78438 846.0075 79.175Q845.60126 79.56563 845.4919 80.33125L844.4294 80.14375Q844.6169 79.09688 845.3044 78.51875Q845.9919 77.925 847.0075 77.925Q847.71063 77.925 848.3044 78.2375Q848.89813 78.53438 849.21063 79.05Q849.52313 79.56563 849.52313 80.15938Q849.52313 80.70625 849.22626 81.175Q848.9294 81.62813 848.35126 81.89375Q849.10126 82.06563 849.52313 82.62813Q849.945 83.175 849.945 84.01875Q849.945 85.14375 849.1169 85.925Q848.3044 86.70625 847.0544 86.70625Q845.9294 86.70625 845.1794 86.03438Q844.4294 85.34688 844.32 84.28438Z" fill-rule="nonzero"/><path fill="#ff6d01" d="M813.82 101.55C813.82 100.99772 814.2677 100.55 814.82 100.55L824.82 100.55C825.3723 100.55 825.82 100.99772 825.82 101.55L825.82 111.55C825.82 112.10229 825.3723 112.55 824.82 112.55L814.82 112.55C814.2677 112.55 813.82 112.10229 813.82 111.55Z" fill-rule="nonzero"/><path fill="#1a1a1a" d="M834.3825 103.08125L834.3825 102.06563L839.945 102.06563L839.945 102.89375Q839.1325 103.76875 838.32 105.22188Q837.52313 106.65938 837.08563 108.19063Q836.7575 109.26875 836.6794 110.55L835.58563 110.55Q835.60126 109.53438 835.97626 108.09688Q836.3669 106.65938 837.07 105.33125Q837.78876 104.00313 838.60126 103.08125L834.3825 103.08125ZM841.91376 110.55L841.91376 109.34688L843.1169 109.34688L843.1169 110.55L841.91376 110.55ZM847.695 110.55L847.695 108.4875L843.97626 108.4875L843.97626 107.51875L847.89813 101.95625L848.7575 101.95625L848.7575 107.51875L849.91376 107.51875L849.91376 108.4875L848.7575 108.4875L848.7575 110.55L847.695 110.55ZM847.695 107.51875L847.695 103.65938L845.0075 107.51875L847.695 107.51875Z" fill-rule="nonzero"/><path fill="#34a853" d="M813.82 125.55C813.82 124.99772 814.2677 124.55 814.82 124.55L824.82 124.55C825.3723 124.55 825.82 124.99772 825.82 125.55L825.82 135.55C825.82 136.10228 825.3723 136.55 824.82 136.55L814.82 136.55C814.2677 136.55 813.82 136.10228 813.82 135.55Z" fill-rule="nonzero"/><path fill="#1a1a1a" d="M835.945 129.89375Q835.28876 129.64375 834.96063 129.20625Q834.64813 128.75313 834.64813 128.14375Q834.64813 127.20625 835.32 126.56563Q836.0075 125.925 837.1169 125.925Q838.2419 125.925 838.9294 126.58125Q839.6169 127.2375 839.6169 128.175Q839.6169 128.76875 839.3044 129.20625Q838.9919 129.64375 838.35126 129.89375Q839.14813 130.14375 839.5544 130.72188Q839.96063 131.3 839.96063 132.09688Q839.96063 133.19063 839.1794 133.94063Q838.41376 134.69063 837.1325 134.69063Q835.8669 134.69063 835.08563 133.94063Q834.3044 133.19063 834.3044 132.06563Q834.3044 131.22188 834.72626 130.65938Q835.16376 130.09688 835.945 129.89375ZM835.72626 128.09688Q835.72626 128.70625 836.1169 129.09688Q836.52313 129.4875 837.14813 129.4875Q837.7575 129.4875 838.14813 129.1125Q838.53876 128.72188 838.53876 128.15938Q838.53876 127.58125 838.1325 127.19063Q837.72626 126.78438 837.1325 126.78438Q836.52313 126.78438 836.1169 127.175Q835.72626 127.56563 835.72626 128.09688ZM835.39813 132.06563Q835.39813 132.51875 835.60126 132.94063Q835.82 133.3625 836.2419 133.59688Q836.66376 133.83125 837.14813 133.83125Q837.89813 133.83125 838.3825 133.34688Q838.8825 132.8625 838.8825 132.1125Q838.8825 131.34688 838.3825 130.84688Q837.8825 130.34688 837.1169 130.34688Q836.3669 130.34688 835.8825 130.84688Q835.39813 131.33125 835.39813 132.06563ZM841.91376 134.55L841.91376 133.34688L843.1169 133.34688L843.1169 134.55L841.91376 134.55ZM844.32 130.31563Q844.32 128.78438 844.6325 127.8625Q844.945 126.925 845.5544 126.425Q846.1794 125.925 847.1169 125.925Q847.8044 125.925 848.32 126.20625Q848.85126 126.4875 849.195 127.01875Q849.53876 127.53438 849.72626 128.28438Q849.91376 129.03438 849.91376 130.31563Q849.91376 131.83125 849.60126 132.75313Q849.3044 133.675 848.6794 134.19063Q848.07 134.69063 847.1169 134.69063Q845.8825 134.69063 845.16376 133.8Q844.32 132.7375 844.32 130.31563ZM845.39813 130.31563Q845.39813 132.425 845.89813 133.12813Q846.39813 133.83125 847.1169 133.83125Q847.85126 133.83125 848.33563 133.12813Q848.83563 132.425 848.83563 130.31563Q848.83563 128.19063 848.33563 127.50313Q847.85126 126.8 847.10126 126.8Q846.3825 126.8 845.945 127.40938Q845.39813 128.19063 845.39813 130.31563Z" fill-rule="nonzero"/><path fill="#b6d7a8" d="M813.82 149.55C813.82 148.99771 814.2677 148.55 814.82 148.55L824.82 148.55C825.3723 148.55 825.82 148.99771 825.82 149.55L825.82 159.55C825.82 160.10228 825.3723 160.55 824.82 160.55L814.82 160.55C814.2677 160.55 813.82 160.10228 813.82 159.55Z" fill-rule="nonzero"/><path fill="#1a1a1a" d="M835.945 153.89375Q835.28876 153.64375 834.96063 153.20625Q834.64813 152.75313 834.64813 152.14375Q834.64813 151.20625 835.32 150.56563Q836.0075 149.925 837.1169 149.925Q838.2419 149.925 838.9294 150.58125Q839.6169 151.2375 839.6169 152.175Q839.6169 152.76875 839.3044 153.20625Q838.9919 153.64375 838.35126 153.89375Q839.14813 154.14375 839.5544 154.72188Q839.96063 155.3 839.96063 156.09688Q839.96063 157.19063 839.1794 157.94063Q838.41376 158.69063 837.1325 158.69063Q835.8669 158.69063 835.08563 157.94063Q834.3044 157.19063 834.3044 156.06563Q834.3044 155.22188 834.72626 154.65938Q835.16376 154.09688 835.945 153.89375ZM835.72626 152.09688Q835.72626 152.70625 836.1169 153.09688Q836.52313 153.4875 837.14813 153.4875Q837.7575 153.4875 838.14813 153.1125Q838.53876 152.72188 838.53876 152.15938Q838.53876 151.58125 838.1325 151.19063Q837.72626 150.78438 837.1325 150.78438Q836.52313 150.78438 836.1169 151.175Q835.72626 151.56563 835.72626 152.09688ZM835.39813 156.06563Q835.39813 156.51875 835.60126 156.94063Q835.82 157.3625 836.2419 157.59688Q836.66376 157.83125 837.14813 157.83125Q837.89813 157.83125 838.3825 157.34688Q838.8825 156.8625 838.8825 156.1125Q838.8825 155.34688 838.3825 154.84688Q837.8825 154.34688 837.1169 154.34688Q836.3669 154.34688 835.8825 154.84688Q835.39813 155.33125 835.39813 156.06563ZM841.91376 158.55L841.91376 157.34688L843.1169 157.34688L843.1169 158.55L841.91376 158.55ZM848.28876 158.55L847.2419 158.55L847.2419 151.83125Q846.85126 152.19063 846.22626 152.56563Q845.6169 152.925 845.1325 153.09688L845.1325 152.08125Q846.0075 151.65938 846.66376 151.08125Q847.33563 150.4875 847.6169 149.925L848.28876 149.925L848.28876 158.55Z" fill-rule="nonzero"/></svg>