<svg version="1.1" viewBox="0.0 0.0 804.0 498.0" fill="none" stroke="none" stroke-linecap="square" stroke-miterlimit="10" width="804" height="498" xmlns:xlink="http://www.w3.org/1999/xlink" xmlns="http://www.w3.org/2000/svg"><path fill="#ffffff" d="M0 0L804.0 0L804.0 498.0L0 498.0L0 0Z" fill-rule="nonzero"/><path stroke="#333333" stroke-width="1.0" stroke-linecap="butt" d="M62.5 453.5L703.5 453.5" fill-rule="nonzero"/><path stroke="#cccccc" stroke-width="1.0" stroke-linecap="butt" d="M62.5 347.5L703.5 347.5" fill-rule="nonzero"/><path stroke="#cccccc" stroke-width="1.0" stroke-linecap="butt" d="M62.5 242.5L703.5 242.5" fill-rule="nonzero"/><path stroke="#cccccc" stroke-width="1.0" stroke-linecap="butt" d="M62.5 137.5L703.5 137.5" fill-rule="nonzero"/><path stroke="#cccccc" stroke-width="1.0" stroke-linecap="butt" d="M62.5 31.5L703.5 31.5" fill-rule="nonzero"/><clipPath id="id_0"><path d="M62.9 31.9L703.68 31.9L703.68 453.1L62.9 453.1L62.9 31.9Z" clip-rule="nonzero"/></clipPath><path stroke="#000000" stroke-width="2.0" stroke-linecap="butt" stroke-opacity="0.0" clip-path="url(#id_0)" d="M210.0 453.0L114.0 453.0L114.0 453.0L210.0 453.0Z" fill-rule="nonzero"/><path fill="#38761d" clip-path="url(#id_0)" d="M210.0 453.0L114.0 453.0L114.0 453.0L210.0 453.0Z" fill-rule="nonzero"/><path stroke="#000000" stroke-width="2.0" stroke-linecap="butt" stroke-opacity="0.0" clip-path="url(#id_0)" d="M358.0 453.0L262.0 453.0L262.0 453.0L358.0 453.0Z" fill-rule="nonzero"/><path fill="#38761d" clip-path="url(#id_0)" d="M358.0 453.0L262.0 453.0L262.0 453.0L358.0 453.0Z" fill-rule="nonzero"/><path stroke="#000000" stroke-width="2.0" stroke-linecap="butt" stroke-opacity="0.0" clip-path="url(#id_0)" d="M505.0 453.0L409.0 453.0L409.0 453.0L505.0 453.0Z" fill-rule="nonzero"/><path fill="#38761d" clip-path="url(#id_0)" d="M505.0 453.0L409.0 453.0L409.0 453.0L505.0 453.0Z" fill-rule="nonzero"/><path stroke="#000000" stroke-width="2.0" stroke-linecap="butt" stroke-opacity="0.0" clip-path="url(#id_0)" d="M652.0 453.0L556.0 453.0L556.0 411.0L652.0 411.0Z" fill-rule="nonzero"/><path fill="#38761d" clip-path="url(#id_0)" d="M652.0 453.0L556.0 453.0L556.0 411.0L652.0 411.0Z" fill-rule="nonzero"/><path stroke="#000000" stroke-width="2.0" stroke-linecap="butt" stroke-opacity="0.0" clip-path="url(#id_0)" d="M210.0 453.0L114.0 453.0L114.0 453.0L210.0 453.0Z" fill-rule="nonzero"/><path fill="#6aa84f" clip-path="url(#id_0)" d="M210.0 453.0L114.0 453.0L114.0 453.0L210.0 453.0Z" fill-rule="nonzero"/><path stroke="#000000" stroke-width="2.0" stroke-linecap="butt" stroke-opacity="0.0" clip-path="url(#id_0)" d="M358.0 453.0L262.0 453.0L262.0 396.0L358.0 396.0Z" fill-rule="nonzero"/><path fill="#6aa84f" clip-path="url(#id_0)" d="M358.0 453.0L262.0 453.0L262.0 396.0L358.0 396.0Z" fill-rule="nonzero"/><path stroke="#000000" stroke-width="2.0" stroke-linecap="butt" stroke-opacity="0.0" clip-path="url(#id_0)" d="M505.0 453.0L409.0 453.0L409.0 396.0L505.0 396.0Z" fill-rule="nonzero"/><path fill="#6aa84f" clip-path="url(#id_0)" d="M505.0 453.0L409.0 453.0L409.0 396.0L505.0 396.0Z" fill-rule="nonzero"/><path stroke="#000000" stroke-width="2.0" stroke-linecap="butt" stroke-opacity="0.0" clip-path="url(#id_0)" d="M652.0 411.0L556.0 411.0L556.0 363.0L652.0 363.0Z" fill-rule="nonzero"/><path fill="#6aa84f" clip-path="url(#id_0)" d="M652.0 411.0L556.0 411.0L556.0 363.0L652.0 363.0Z" fill-rule="nonzero"/><path stroke="#000000" stroke-width="2.0" stroke-linecap="butt" stroke-opacity="0.0" clip-path="url(#id_0)" d="M210.0 453.0L114.0 453.0L114.0 380.0L210.0 380.0Z" fill-rule="nonzero"/><path fill="#93c47d" clip-path="url(#id_0)" d="M210.0 453.0L114.0 453.0L114.0 380.0L210.0 380.0Z" fill-rule="nonzero"/><path stroke="#000000" stroke-width="2.0" stroke-linecap="butt" stroke-opacity="0.0" clip-path="url(#id_0)" d="M358.0 396.0L262.0 396.0L262.0 353.0L358.0 353.0Z" fill-rule="nonzero"/><path fill="#93c47d" clip-path="url(#id_0)" d="M358.0 396.0L262.0 396.0L262.0 353.0L358.0 353.0Z" fill-rule="nonzero"/><path stroke="#000000" stroke-width="2.0" stroke-linecap="butt" stroke-opacity="0.0" clip-path="url(#id_0)" d="M505.0 396.0L409.0 396.0L409.0 353.0L505.0 353.0Z" fill-rule="nonzero"/><path fill="#93c47d" clip-path="url(#id_0)" d="M505.0 396.0L409.0 396.0L409.0 353.0L505.0 353.0Z" fill-rule="nonzero"/><path stroke="#000000" stroke-width="2.0" stroke-linecap="butt" stroke-opacity="0.0" clip-path="url(#id_0)" d="M652.0 363.0L556.0 363.0L556.0 298.0L652.0 298.0Z" fill-rule="nonzero"/><path fill="#93c47d" clip-path="url(#id_0)" d="M652.0 363.0L556.0 363.0L556.0 298.0L652.0 298.0Z" fill-rule="nonzero"/><path stroke="#000000" stroke-width="2.0" stroke-linecap="butt" stroke-opacity="0.0" clip-path="url(#id_0)" d="M210.0 380.0L114.0 380.0L114.0 349.0L210.0 349.0Z" fill-rule="nonzero"/><path fill="#0b5394" clip-path="url(#id_0)" d="M210.0 380.0L114.0 380.0L114.0 349.0L210.0 349.0Z" fill-rule="nonzero"/><path stroke="#000000" stroke-width="2.0" stroke-linecap="butt" stroke-opacity="0.0" clip-path="url(#id_0)" d="M358.0 353.0L262.0 353.0L262.0 314.0L358.0 314.0Z" fill-rule="nonzero"/><path fill="#0b5394" clip-path="url(#id_0)" d="M358.0 353.0L262.0 353.0L262.0 314.0L358.0 314.0Z" fill-rule="nonzero"/><path stroke="#000000" stroke-width="2.0" stroke-linecap="butt" stroke-opacity="0.0" clip-path="url(#id_0)" d="M505.0 353.0L409.0 353.0L409.0 314.0L505.0 314.0Z" fill-rule="nonzero"/><path fill="#0b5394" clip-path="url(#id_0)" d="M505.0 353.0L409.0 353.0L409.0 314.0L505.0 314.0Z" fill-rule="nonzero"/><path stroke="#000000" stroke-width="2.0" stroke-linecap="butt" stroke-opacity="0.0" clip-path="url(#id_0)" d="M652.0 298.0L556.0 298.0L556.0 254.0L652.0 254.0Z" fill-rule="nonzero"/><path fill="#0b5394" clip-path="url(#id_0)" d="M652.0 298.0L556.0 298.0L556.0 254.0L652.0 254.0Z" fill-rule="nonzero"/><path stroke="#000000" stroke-width="2.0" stroke-linecap="butt" stroke-opacity="0.0" clip-path="url(#id_0)" d="M210.0 349.0L114.0 349.0L114.0 296.0L210.0 296.0Z" fill-rule="nonzero"/><path fill="#3d85c6" clip-path="url(#id_0)" d="M210.0 349.0L114.0 349.0L114.0 296.0L210.0 296.0Z" fill-rule="nonzero"/><path stroke="#000000" stroke-width="2.0" stroke-linecap="butt" stroke-opacity="0.0" clip-path="url(#id_0)" d="M358.0 314.0L262.0 314.0L262.0 267.0L358.0 267.0Z" fill-rule="nonzero"/><path fill="#3d85c6" clip-path="url(#id_0)" d="M358.0 314.0L262.0 314.0L262.0 267.0L358.0 267.0Z" fill-rule="nonzero"/><path stroke="#000000" stroke-width="2.0" stroke-linecap="butt" stroke-opacity="0.0" clip-path="url(#id_0)" d="M505.0 314.0L409.0 314.0L409.0 267.0L505.0 267.0Z" fill-rule="nonzero"/><path fill="#3d85c6" clip-path="url(#id_0)" d="M505.0 314.0L409.0 314.0L409.0 267.0L505.0 267.0Z" fill-rule="nonzero"/><path stroke="#000000" stroke-width="2.0" stroke-linecap="butt" stroke-opacity="0.0" clip-path="url(#id_0)" d="M652.0 254.0L556.0 254.0L556.0 229.0L652.0 229.0Z" fill-rule="nonzero"/><path fill="#3d85c6" clip-path="url(#id_0)" d="M652.0 254.0L556.0 254.0L556.0 229.0L652.0 229.0Z" fill-rule="nonzero"/><path stroke="#000000" stroke-width="2.0" stroke-linecap="butt" stroke-opacity="0.0" clip-path="url(#id_0)" d="M210.0 296.0L114.0 296.0L114.0 235.0L210.0 235.0Z" fill-rule="nonzero"/><path fill="#6fa8dc" clip-path="url(#id_0)" d="M210.0 296.0L114.0 296.0L114.0 235.0L210.0 235.0Z" fill-rule="nonzero"/><path stroke="#000000" stroke-width="2.0" stroke-linecap="butt" stroke-opacity="0.0" clip-path="url(#id_0)" d="M358.0 267.0L262.0 267.0L262.0 208.0L358.0 208.0Z" fill-rule="nonzero"/><path fill="#6fa8dc" clip-path="url(#id_0)" d="M358.0 267.0L262.0 267.0L262.0 208.0L358.0 208.0Z" fill-rule="nonzero"/><path stroke="#000000" stroke-width="2.0" stroke-linecap="butt" stroke-opacity="0.0" clip-path="url(#id_0)" d="M505.0 267.0L409.0 267.0L409.0 208.0L505.0 208.0Z" fill-rule="nonzero"/><path fill="#6fa8dc" clip-path="url(#id_0)" d="M505.0 267.0L409.0 267.0L409.0 208.0L505.0 208.0Z" fill-rule="nonzero"/><path stroke="#000000" stroke-width="2.0" stroke-linecap="butt" stroke-opacity="0.0" clip-path="url(#id_0)" d="M652.0 229.0L556.0 229.0L556.0 169.0L652.0 169.0Z" fill-rule="nonzero"/><path fill="#6fa8dc" clip-path="url(#id_0)" d="M652.0 229.0L556.0 229.0L556.0 169.0L652.0 169.0Z" fill-rule="nonzero"/><path stroke="#000000" stroke-width="2.0" stroke-linecap="butt" stroke-opacity="0.0" clip-path="url(#id_0)" d="M210.0 235.0L114.0 235.0L114.0 149.0L210.0 149.0Z" fill-rule="nonzero"/><path fill="#9fc5e8" clip-path="url(#id_0)" d="M210.0 235.0L114.0 235.0L114.0 149.0L210.0 149.0Z" fill-rule="nonzero"/><path stroke="#000000" stroke-width="2.0" stroke-linecap="butt" stroke-opacity="0.0" clip-path="url(#id_0)" d="M358.0 208.0L262.0 208.0L262.0 138.0L358.0 138.0Z" fill-rule="nonzero"/><path fill="#9fc5e8" clip-path="url(#id_0)" d="M358.0 208.0L262.0 208.0L262.0 138.0L358.0 138.0Z" fill-rule="nonzero"/><path stroke="#000000" stroke-width="2.0" stroke-linecap="butt" stroke-opacity="0.0" clip-path="url(#id_0)" d="M505.0 208.0L409.0 208.0L409.0 138.0L505.0 138.0Z" fill-rule="nonzero"/><path fill="#9fc5e8" clip-path="url(#id_0)" d="M505.0 208.0L409.0 208.0L409.0 138.0L505.0 138.0Z" fill-rule="nonzero"/><path stroke="#000000" stroke-width="2.0" stroke-linecap="butt" stroke-opacity="0.0" clip-path="url(#id_0)" d="M652.0 169.0L556.0 169.0L556.0 113.0L652.0 113.0Z" fill-rule="nonzero"/><path fill="#9fc5e8" clip-path="url(#id_0)" d="M652.0 169.0L556.0 169.0L556.0 113.0L652.0 113.0Z" fill-rule="nonzero"/><path stroke="#000000" stroke-width="2.0" stroke-linecap="butt" stroke-opacity="0.0" clip-path="url(#id_0)" d="M210.0 149.0L114.0 149.0L114.0 135.0L210.0 135.0Z" fill-rule="nonzero"/><path fill="#cfe2f3" clip-path="url(#id_0)" d="M210.0 149.0L114.0 149.0L114.0 135.0L210.0 135.0Z" fill-rule="nonzero"/><path stroke="#000000" stroke-width="2.0" stroke-linecap="butt" stroke-opacity="0.0" clip-path="url(#id_0)" d="M358.0 138.0L262.0 138.0L262.0 125.0L358.0 125.0Z" fill-rule="nonzero"/><path fill="#cfe2f3" clip-path="url(#id_0)" d="M358.0 138.0L262.0 138.0L262.0 125.0L358.0 125.0Z" fill-rule="nonzero"/><path stroke="#000000" stroke-width="2.0" stroke-linecap="butt" stroke-opacity="0.0" clip-path="url(#id_0)" d="M505.0 138.0L409.0 138.0L409.0 125.0L505.0 125.0Z" fill-rule="nonzero"/><path fill="#cfe2f3" clip-path="url(#id_0)" d="M505.0 138.0L409.0 138.0L409.0 125.0L505.0 125.0Z" fill-rule="nonzero"/><path stroke="#000000" stroke-width="2.0" stroke-linecap="butt" stroke-opacity="0.0" clip-path="url(#id_0)" d="M652.0 113.0L556.0 113.0L556.0 102.0L652.0 102.0Z" fill-rule="nonzero"/><path fill="#cfe2f3" clip-path="url(#id_0)" d="M652.0 113.0L556.0 113.0L556.0 102.0L652.0 102.0Z" fill-rule="nonzero"/><path stroke="#000000" stroke-width="2.0" stroke-linecap="butt" stroke-opacity="0.0" clip-path="url(#id_0)" d="M210.0 135.0L114.0 135.0L114.0 113.0L210.0 113.0Z" fill-rule="nonzero"/><path fill="#990000" clip-path="url(#id_0)" d="M210.0 135.0L114.0 135.0L114.0 113.0L210.0 113.0Z" fill-rule="nonzero"/><path stroke="#000000" stroke-width="2.0" stroke-linecap="butt" stroke-opacity="0.0" clip-path="url(#id_0)" d="M358.0 125.0L262.0 125.0L262.0 106.0L358.0 106.0Z" fill-rule="nonzero"/><path fill="#990000" clip-path="url(#id_0)" d="M358.0 125.0L262.0 125.0L262.0 106.0L358.0 106.0Z" fill-rule="nonzero"/><path stroke="#000000" stroke-width="2.0" stroke-linecap="butt" stroke-opacity="0.0" clip-path="url(#id_0)" d="M505.0 125.0L409.0 125.0L409.0 106.0L505.0 106.0Z" fill-rule="nonzero"/><path fill="#990000" clip-path="url(#id_0)" d="M505.0 125.0L409.0 125.0L409.0 106.0L505.0 106.0Z" fill-rule="nonzero"/><path stroke="#000000" stroke-width="2.0" stroke-linecap="butt" stroke-opacity="0.0" clip-path="url(#id_0)" d="M652.0 102.0L556.0 102.0L556.0 88.0L652.0 88.0Z" fill-rule="nonzero"/><path fill="#990000" clip-path="url(#id_0)" d="M652.0 102.0L556.0 102.0L556.0 88.0L652.0 88.0Z" fill-rule="nonzero"/><path stroke="#000000" stroke-width="2.0" stroke-linecap="butt" stroke-opacity="0.0" clip-path="url(#id_0)" d="M210.0 113.0L114.0 113.0L114.0 94.0L210.0 94.0Z" fill-rule="nonzero"/><path fill="#cc0000" clip-path="url(#id_0)" d="M210.0 113.0L114.0 113.0L114.0 94.0L210.0 94.0Z" fill-rule="nonzero"/><path stroke="#000000" stroke-width="2.0" stroke-linecap="butt" stroke-opacity="0.0" clip-path="url(#id_0)" d="M358.0 106.0L262.0 106.0L262.0 90.0L358.0 90.0Z" fill-rule="nonzero"/><path fill="#cc0000" clip-path="url(#id_0)" d="M358.0 106.0L262.0 106.0L262.0 90.0L358.0 90.0Z" fill-rule="nonzero"/><path stroke="#000000" stroke-width="2.0" stroke-linecap="butt" stroke-opacity="0.0" clip-path="url(#id_0)" d="M505.0 106.0L409.0 106.0L409.0 90.0L505.0 90.0Z" fill-rule="nonzero"/><path fill="#cc0000" clip-path="url(#id_0)" d="M505.0 106.0L409.0 106.0L409.0 90.0L505.0 90.0Z" fill-rule="nonzero"/><path stroke="#000000" stroke-width="2.0" stroke-linecap="butt" stroke-opacity="0.0" clip-path="url(#id_0)" d="M652.0 88.0L556.0 88.0L556.0 78.0L652.0 78.0Z" fill-rule="nonzero"/><path fill="#cc0000" clip-path="url(#id_0)" d="M652.0 88.0L556.0 88.0L556.0 78.0L652.0 78.0Z" fill-rule="nonzero"/><path stroke="#000000" stroke-width="2.0" stroke-linecap="butt" stroke-opacity="0.0" clip-path="url(#id_0)" d="M210.0 94.0L114.0 94.0L114.0 74.0L210.0 74.0Z" fill-rule="nonzero"/><path fill="#e06666" clip-path="url(#id_0)" d="M210.0 94.0L114.0 94.0L114.0 74.0L210.0 74.0Z" fill-rule="nonzero"/><path stroke="#000000" stroke-width="2.0" stroke-linecap="butt" stroke-opacity="0.0" clip-path="url(#id_0)" d="M358.0 90.0L262.0 90.0L262.0 72.0L358.0 72.0Z" fill-rule="nonzero"/><path fill="#e06666" clip-path="url(#id_0)" d="M358.0 90.0L262.0 90.0L262.0 72.0L358.0 72.0Z" fill-rule="nonzero"/><path stroke="#000000" stroke-width="2.0" stroke-linecap="butt" stroke-opacity="0.0" clip-path="url(#id_0)" d="M505.0 90.0L409.0 90.0L409.0 72.0L505.0 72.0Z" fill-rule="nonzero"/><path fill="#e06666" clip-path="url(#id_0)" d="M505.0 90.0L409.0 90.0L409.0 72.0L505.0 72.0Z" fill-rule="nonzero"/><path stroke="#000000" stroke-width="2.0" stroke-linecap="butt" stroke-opacity="0.0" clip-path="url(#id_0)" d="M652.0 78.0L556.0 78.0L556.0 64.0L652.0 64.0Z" fill-rule="nonzero"/><path fill="#e06666" clip-path="url(#id_0)" d="M652.0 78.0L556.0 78.0L556.0 64.0L652.0 64.0Z" fill-rule="nonzero"/><path stroke="#000000" stroke-width="2.0" stroke-linecap="butt" stroke-opacity="0.0" clip-path="url(#id_0)" d="M210.0 74.0L114.0 74.0L114.0 36.0L210.0 36.0Z" fill-rule="nonzero"/><path fill="#ea9999" clip-path="url(#id_0)" d="M210.0 74.0L114.0 74.0L114.0 36.0L210.0 36.0Z" fill-rule="nonzero"/><path stroke="#000000" stroke-width="2.0" stroke-linecap="butt" stroke-opacity="0.0" clip-path="url(#id_0)" d="M358.0 72.0L262.0 72.0L262.0 36.0L358.0 36.0Z" fill-rule="nonzero"/><path fill="#ea9999" clip-path="url(#id_0)" d="M358.0 72.0L262.0 72.0L262.0 36.0L358.0 36.0Z" fill-rule="nonzero"/><path stroke="#000000" stroke-width="2.0" stroke-linecap="butt" stroke-opacity="0.0" clip-path="url(#id_0)" d="M505.0 72.0L409.0 72.0L409.0 36.0L505.0 36.0Z" fill-rule="nonzero"/><path fill="#ea9999" clip-path="url(#id_0)" d="M505.0 72.0L409.0 72.0L409.0 36.0L505.0 36.0Z" fill-rule="nonzero"/><path stroke="#000000" stroke-width="2.0" stroke-linecap="butt" stroke-opacity="0.0" clip-path="url(#id_0)" d="M652.0 64.0L556.0 64.0L556.0 35.0L652.0 35.0Z" fill-rule="nonzero"/><path fill="#ea9999" clip-path="url(#id_0)" d="M652.0 64.0L556.0 64.0L556.0 35.0L652.0 35.0Z" fill-rule="nonzero"/><path stroke="#000000" stroke-width="2.0" stroke-linecap="butt" stroke-opacity="0.0" clip-path="url(#id_0)" d="M210.0 36.0L114.0 36.0L114.0 34.0C114.0 32.89543 114.89543 32.0 116.0 32.0L208.0 32.0C209.10457 32.0 210.0 32.89543 210.0 34.0Z" fill-rule="nonzero"/><path fill="#f4cccc" clip-path="url(#id_0)" d="M210.0 36.0L114.0 36.0L114.0 34.0C114.0 32.89543 114.89543 32.0 116.0 32.0L208.0 32.0C209.10457 32.0 210.0 32.89543 210.0 34.0Z" fill-rule="nonzero"/><path stroke="#000000" stroke-width="2.0" stroke-linecap="butt" stroke-opacity="0.0" clip-path="url(#id_0)" d="M358.0 36.0L262.0 36.0L262.0 34.0C262.0 32.89543 262.89542 32.0 264.0 32.0L356.0 32.0C357.10458 32.0 358.0 32.89543 358.0 34.0Z" fill-rule="nonzero"/><path fill="#f4cccc" clip-path="url(#id_0)" d="M358.0 36.0L262.0 36.0L262.0 34.0C262.0 32.89543 262.89542 32.0 264.0 32.0L356.0 32.0C357.10458 32.0 358.0 32.89543 358.0 34.0Z" fill-rule="nonzero"/><path stroke="#000000" stroke-width="2.0" stroke-linecap="butt" stroke-opacity="0.0" clip-path="url(#id_0)" d="M505.0 36.0L409.0 36.0L409.0 34.0C409.0 32.89543 409.89542 32.0 411.0 32.0L503.0 32.0C504.10458 32.0 505.0 32.89543 505.0 34.0Z" fill-rule="nonzero"/><path fill="#f4cccc" clip-path="url(#id_0)" d="M505.0 36.0L409.0 36.0L409.0 34.0C409.0 32.89543 409.89542 32.0 411.0 32.0L503.0 32.0C504.10458 32.0 505.0 32.89543 505.0 34.0Z" fill-rule="nonzero"/><path stroke="#000000" stroke-width="2.0" stroke-linecap="butt" stroke-opacity="0.0" clip-path="url(#id_0)" d="M652.0 35.0L556.0 35.0L556.0 33.5C556.0 32.671574 556.6716 32.0 557.5 32.0L650.5 32.0C651.3284 32.0 652.0 32.671574 652.0 33.5Z" fill-rule="nonzero"/><path fill="#f4cccc" clip-path="url(#id_0)" d="M652.0 35.0L556.0 35.0L556.0 33.5C556.0 32.671574 556.6716 32.0 557.5 32.0L650.5 32.0C651.3284 32.0 652.0 32.671574 652.0 33.5Z" fill-rule="nonzero"/><path fill="#000000" d="M39.4 452.86563Q39.4 451.33438 39.7125 450.4125Q40.025 449.475 40.634377 448.975Q41.259377 448.475 42.196877 448.475Q42.884377 448.475 43.4 448.75626Q43.93125 449.0375 44.275 449.56876Q44.61875 450.08438 44.80625 450.83438Q44.99375 451.58438 44.99375 452.86563Q44.99375 454.38126 44.68125 455.30313Q44.384377 456.225 43.759377 456.74063Q43.15 457.24063 42.196877 457.24063Q40.9625 457.24063 40.24375 456.35Q39.4 455.2875 39.4 452.86563ZM40.478127 452.86563Q40.478127 454.975 40.978127 455.67813Q41.478127 456.38126 42.196877 456.38126Q42.93125 456.38126 43.415627 455.67813Q43.915627 454.975 43.915627 452.86563Q43.915627 450.74063 43.415627 450.05313Q42.93125 449.35 42.18125 449.35Q41.4625 449.35 41.025 449.95938Q40.478127 450.74063 40.478127 452.86563ZM46.603127 450.56876Q46.603127 449.64688 47.05625 449.00626Q47.525 448.36563 48.4 448.36563Q49.2125 448.36563 49.74375 448.94376Q50.275 449.52188 50.275 450.63126Q50.275 451.725 49.728127 452.31876Q49.196877 452.89688 48.415627 452.89688Q47.634377 452.89688 47.11875 452.31876Q46.603127 451.74063 46.603127 450.56876ZM48.43125 449.08438Q48.040627 449.08438 47.775 449.42813Q47.525 449.77188 47.525 450.67813Q47.525 451.50626 47.775 451.85Q48.040627 452.17813 48.43125 452.17813Q48.8375 452.17813 49.0875 451.83438Q49.353127 451.49063 49.353127 450.6Q49.353127 449.75626 49.0875 449.42813Q48.821877 449.08438 48.43125 449.08438ZM48.43125 457.4125L53.134377 448.36563L53.99375 448.36563L49.30625 457.4125L48.43125 457.4125ZM52.15 455.08438Q52.15 454.1625 52.603127 453.52188Q53.071877 452.88126 53.9625 452.88126Q54.775 452.88126 55.30625 453.45938Q55.8375 454.02188 55.8375 455.14688Q55.8375 456.24063 55.290627 456.83438Q54.759377 457.4125 53.9625 457.4125Q53.196877 457.4125 52.665627 456.83438Q52.15 456.25626 52.15 455.08438ZM53.99375 453.6Q53.5875 453.6 53.321877 453.94376Q53.071877 454.2875 53.071877 455.19376Q53.071877 456.00626 53.3375 456.35Q53.603127 456.69376 53.99375 456.69376Q54.384377 456.69376 54.65 456.35Q54.915627 456.00626 54.915627 455.1Q54.915627 454.27188 54.65 453.94376Q54.384377 453.6 53.99375 453.6Z" fill-rule="nonzero"/><path fill="#000000" d="M37.946877 350.78436L37.946877 351.8L32.259377 351.8Q32.259377 351.425 32.384377 351.0656Q32.603127 350.4875 33.071877 349.925Q33.55625 349.3625 34.4625 348.6281Q35.86875 347.47186 36.353127 346.8Q36.853127 346.1281 36.853127 345.53436Q36.853127 344.90936 36.4 344.4875Q35.946877 344.05 35.228127 344.05Q34.4625 344.05 34.009377 344.5031Q33.55625 344.95624 33.540627 345.76874L32.4625 345.65936Q32.571877 344.4406 33.290627 343.8156Q34.025 343.175 35.259377 343.175Q36.49375 343.175 37.2125 343.8625Q37.93125 344.55 37.93125 345.5656Q37.93125 346.08124 37.7125 346.58124Q37.509377 347.0656 37.009377 347.6281Q36.525 348.175 35.4 349.1281Q34.446877 349.925 34.165627 350.22186Q33.9 350.5031 33.728127 350.78436L37.946877 350.78436ZM39.4 349.55L40.509377 349.45624Q40.634377 350.26874 41.071877 350.675Q41.525 351.08124 42.165627 351.08124Q42.915627 351.08124 43.446877 350.5031Q43.978127 349.925 43.978127 348.9875Q43.978127 348.08124 43.4625 347.5656Q42.9625 347.03436 42.134377 347.03436Q41.634377 347.03436 41.2125 347.26874Q40.80625 347.5031 40.571877 347.8625L39.5875 347.7375L40.415627 343.33124L44.696877 343.33124L44.696877 344.33124L41.259377 344.33124L40.80625 346.64374Q41.571877 346.09686 42.415627 346.09686Q43.540627 346.09686 44.30625 346.8781Q45.0875 347.65936 45.0875 348.89374Q45.0875 350.05 44.415627 350.90936Q43.5875 351.9406 42.165627 351.9406Q40.99375 351.9406 40.24375 351.28436Q39.509377 350.6281 39.4 349.55ZM46.603127 345.26874Q46.603127 344.34686 47.05625 343.70624Q47.525 343.0656 48.4 343.0656Q49.2125 343.0656 49.74375 343.64374Q50.275 344.22186 50.275 345.33124Q50.275 346.425 49.728127 347.01874Q49.196877 347.59686 48.415627 347.59686Q47.634377 347.59686 47.11875 347.01874Q46.603127 346.4406 46.603127 345.26874ZM48.43125 343.78436Q48.040627 343.78436 47.775 344.1281Q47.525 344.47186 47.525 345.3781Q47.525 346.20624 47.775 346.55Q48.040627 346.8781 48.43125 346.8781Q48.8375 346.8781 49.0875 346.53436Q49.353127 346.1906 49.353127 345.3Q49.353127 344.45624 49.0875 344.1281Q48.821877 343.78436 48.43125 343.78436ZM48.43125 352.1125L53.134377 343.0656L53.99375 343.0656L49.30625 352.1125L48.43125 352.1125ZM52.15 349.78436Q52.15 348.8625 52.603127 348.22186Q53.071877 347.58124 53.9625 347.58124Q54.775 347.58124 55.30625 348.15936Q55.8375 348.72186 55.8375 349.84686Q55.8375 350.9406 55.290627 351.53436Q54.759377 352.1125 53.9625 352.1125Q53.196877 352.1125 52.665627 351.53436Q52.15 350.95624 52.15 349.78436ZM53.99375 348.3Q53.5875 348.3 53.321877 348.64374Q53.071877 348.9875 53.071877 349.89374Q53.071877 350.70624 53.3375 351.05Q53.603127 351.39374 53.99375 351.39374Q54.384377 351.39374 54.65 351.05Q54.915627 350.70624 54.915627 349.8Q54.915627 348.97186 54.65 348.64374Q54.384377 348.3 53.99375 348.3Z" fill-rule="nonzero"/><path fill="#000000" d="M32.4 244.25L33.509377 244.15625Q33.634377 244.96875 34.071877 245.375Q34.525 245.78125 35.165627 245.78125Q35.915627 245.78125 36.446877 245.20312Q36.978127 244.625 36.978127 243.6875Q36.978127 242.78125 36.4625 242.26562Q35.9625 241.73438 35.134377 241.73438Q34.634377 241.73438 34.2125 241.96875Q33.80625 242.20312 33.571877 242.5625L32.5875 242.4375L33.415627 238.03125L37.696877 238.03125L37.696877 239.03125L34.259377 239.03125L33.80625 241.34375Q34.571877 240.79688 35.415627 240.79688Q36.540627 240.79688 37.30625 241.57812Q38.0875 242.35938 38.0875 243.59375Q38.0875 244.75 37.415627 245.60938Q36.5875 246.64062 35.165627 246.64062Q33.99375 246.64062 33.24375 245.98438Q32.509377 245.32812 32.4 244.25ZM39.4 242.26562Q39.4 240.73438 39.7125 239.8125Q40.025 238.875 40.634377 238.375Q41.259377 237.875 42.196877 237.875Q42.884377 237.875 43.4 238.15625Q43.93125 238.4375 44.275 238.96875Q44.61875 239.48438 44.80625 240.23438Q44.99375 240.98438 44.99375 242.26562Q44.99375 243.78125 44.68125 244.70312Q44.384377 245.625 43.759377 246.14062Q43.15 246.64062 42.196877 246.64062Q40.9625 246.64062 40.24375 245.75Q39.4 244.6875 39.4 242.26562ZM40.478127 242.26562Q40.478127 244.375 40.978127 245.07812Q41.478127 245.78125 42.196877 245.78125Q42.93125 245.78125 43.415627 245.07812Q43.915627 244.375 43.915627 242.26562Q43.915627 240.14062 43.415627 239.45312Q42.93125 238.75 42.18125 238.75Q41.4625 238.75 41.025 239.35938Q40.478127 240.14062 40.478127 242.26562ZM46.603127 239.96875Q46.603127 239.04688 47.05625 238.40625Q47.525 237.76562 48.4 237.76562Q49.2125 237.76562 49.74375 238.34375Q50.275 238.92188 50.275 240.03125Q50.275 241.125 49.728127 241.71875Q49.196877 242.29688 48.415627 242.29688Q47.634377 242.29688 47.11875 241.71875Q46.603127 241.14062 46.603127 239.96875ZM48.43125 238.48438Q48.040627 238.48438 47.775 238.82812Q47.525 239.17188 47.525 240.07812Q47.525 240.90625 47.775 241.25Q48.040627 241.57812 48.43125 241.57812Q48.8375 241.57812 49.0875 241.23438Q49.353127 240.89062 49.353127 240.0Q49.353127 239.15625 49.0875 238.82812Q48.821877 238.48438 48.43125 238.48438ZM48.43125 246.8125L53.134377 237.76562L53.99375 237.76562L49.30625 246.8125L48.43125 246.8125ZM52.15 244.48438Q52.15 243.5625 52.603127 242.92188Q53.071877 242.28125 53.9625 242.28125Q54.775 242.28125 55.30625 242.85938Q55.8375 243.42188 55.8375 244.54688Q55.8375 245.64062 55.290627 246.23438Q54.759377 246.8125 53.9625 246.8125Q53.196877 246.8125 52.665627 246.23438Q52.15 245.65625 52.15 244.48438ZM53.99375 243.0Q53.5875 243.0 53.321877 243.34375Q53.071877 243.6875 53.071877 244.59375Q53.071877 245.40625 53.3375 245.75Q53.603127 246.09375 53.99375 246.09375Q54.384377 246.09375 54.65 245.75Q54.915627 245.40625 54.915627 244.5Q54.915627 243.67188 54.65 243.34375Q54.384377 243.0 53.99375 243.0Z" fill-rule="nonzero"/><path fill="#000000" d="M32.4625 133.73125L32.4625 132.71562L38.025 132.71562L38.025 133.54375Q37.2125 134.41875 36.4 135.87187Q35.603127 137.30937 35.165627 138.84062Q34.8375 139.91875 34.759377 141.2L33.665627 141.2Q33.68125 140.18437 34.05625 138.74687Q34.446877 137.30937 35.15 135.98125Q35.86875 134.65312 36.68125 133.73125L32.4625 133.73125ZM39.4 138.95L40.509377 138.85625Q40.634377 139.66875 41.071877 140.075Q41.525 140.48125 42.165627 140.48125Q42.915627 140.48125 43.446877 139.90312Q43.978127 139.325 43.978127 138.3875Q43.978127 137.48125 43.4625 136.96562Q42.9625 136.43437 42.134377 136.43437Q41.634377 136.43437 41.2125 136.66875Q40.80625 136.90312 40.571877 137.2625L39.5875 137.1375L40.415627 132.73125L44.696877 132.73125L44.696877 133.73125L41.259377 133.73125L40.80625 136.04375Q41.571877 135.49687 42.415627 135.49687Q43.540627 135.49687 44.30625 136.27812Q45.0875 137.05937 45.0875 138.29375Q45.0875 139.45 44.415627 140.30937Q43.5875 141.34062 42.165627 141.34062Q40.99375 141.34062 40.24375 140.68437Q39.509377 140.02812 39.4 138.95ZM46.603127 134.66875Q46.603127 133.74687 47.05625 133.10625Q47.525 132.46562 48.4 132.46562Q49.2125 132.46562 49.74375 133.04375Q50.275 133.62187 50.275 134.73125Q50.275 135.825 49.728127 136.41875Q49.196877 136.99687 48.415627 136.99687Q47.634377 136.99687 47.11875 136.41875Q46.603127 135.84062 46.603127 134.66875ZM48.43125 133.18437Q48.040627 133.18437 47.775 133.52812Q47.525 133.87187 47.525 134.77812Q47.525 135.60625 47.775 135.95Q48.040627 136.27812 48.43125 136.27812Q48.8375 136.27812 49.0875 135.93437Q49.353127 135.59062 49.353127 134.7Q49.353127 133.85625 49.0875 133.52812Q48.821877 133.18437 48.43125 133.18437ZM48.43125 141.5125L53.134377 132.46562L53.99375 132.46562L49.30625 141.5125L48.43125 141.5125ZM52.15 139.18437Q52.15 138.2625 52.603127 137.62187Q53.071877 136.98125 53.9625 136.98125Q54.775 136.98125 55.30625 137.55937Q55.8375 138.12187 55.8375 139.24687Q55.8375 140.34062 55.290627 140.93437Q54.759377 141.5125 53.9625 141.5125Q53.196877 141.5125 52.665627 140.93437Q52.15 140.35625 52.15 139.18437ZM53.99375 137.7Q53.5875 137.7 53.321877 138.04375Q53.071877 138.3875 53.071877 139.29375Q53.071877 140.10625 53.3375 140.45Q53.603127 140.79375 53.99375 140.79375Q54.384377 140.79375 54.65 140.45Q54.915627 140.10625 54.915627 139.2Q54.915627 138.37187 54.65 138.04375Q54.384377 137.7 53.99375 137.7Z" fill-rule="nonzero"/><path fill="#000000" d="M29.36875 35.9L28.321875 35.9L28.321875 29.181252Q27.93125 29.540627 27.30625 29.915627Q26.696875 30.275002 26.2125 30.446877L26.2125 29.431252Q27.0875 29.009377 27.74375 28.431252Q28.415625 27.837502 28.696875 27.275002L29.36875 27.275002L29.36875 35.9ZM32.4 31.665627Q32.4 30.134377 32.7125 29.212502Q33.025 28.275002 33.634377 27.775002Q34.259377 27.275002 35.196877 27.275002Q35.884377 27.275002 36.4 27.556252Q36.93125 27.837502 37.275 28.368752Q37.61875 28.884377 37.80625 29.634377Q37.99375 30.384377 37.99375 31.665627Q37.99375 33.18125 37.68125 34.103127Q37.384377 35.025 36.759377 35.540627Q36.15 36.040627 35.196877 36.040627Q33.9625 36.040627 33.24375 35.15Q32.4 34.0875 32.4 31.665627ZM33.478127 31.665627Q33.478127 33.775 33.978127 34.478127Q34.478127 35.18125 35.196877 35.18125Q35.93125 35.18125 36.415627 34.478127Q36.915627 33.775 36.915627 31.665627Q36.915627 29.540627 36.415627 28.853127Q35.93125 28.150002 35.18125 28.150002Q34.4625 28.150002 34.025 28.759377Q33.478127 29.540627 33.478127 31.665627ZM39.4 31.665627Q39.4 30.134377 39.7125 29.212502Q40.025 28.275002 40.634377 27.775002Q41.259377 27.275002 42.196877 27.275002Q42.884377 27.275002 43.4 27.556252Q43.93125 27.837502 44.275 28.368752Q44.61875 28.884377 44.80625 29.634377Q44.99375 30.384377 44.99375 31.665627Q44.99375 33.18125 44.68125 34.103127Q44.384377 35.025 43.759377 35.540627Q43.15 36.040627 42.196877 36.040627Q40.9625 36.040627 40.24375 35.15Q39.4 34.0875 39.4 31.665627ZM40.478127 31.665627Q40.478127 33.775 40.978127 34.478127Q41.478127 35.18125 42.196877 35.18125Q42.93125 35.18125 43.415627 34.478127Q43.915627 33.775 43.915627 31.665627Q43.915627 29.540627 43.415627 28.853127Q42.93125 28.150002 42.18125 28.150002Q41.4625 28.150002 41.025 28.759377Q40.478127 29.540627 40.478127 31.665627ZM46.603127 29.368752Q46.603127 28.446877 47.05625 27.806252Q47.525 27.165627 48.4 27.165627Q49.2125 27.165627 49.74375 27.743752Q50.275 28.321877 50.275 29.431252Q50.275 30.525002 49.728127 31.118752Q49.196877 31.696877 48.415627 31.696877Q47.634377 31.696877 47.11875 31.118752Q46.603127 30.540627 46.603127 29.368752ZM48.43125 27.884377Q48.040627 27.884377 47.775 28.228127Q47.525 28.571877 47.525 29.478127Q47.525 30.306252 47.775 30.650002Q48.040627 30.978127 48.43125 30.978127Q48.8375 30.978127 49.0875 30.634377Q49.353127 30.290627 49.353127 29.400002Q49.353127 28.556252 49.0875 28.228127Q48.821877 27.884377 48.43125 27.884377ZM48.43125 36.2125L53.134377 27.165627L53.99375 27.165627L49.30625 36.2125L48.43125 36.2125ZM52.15 33.884377Q52.15 32.9625 52.603127 32.321877Q53.071877 31.681252 53.9625 31.681252Q54.775 31.681252 55.30625 32.259377Q55.8375 32.821877 55.8375 33.946877Q55.8375 35.040627 55.290627 35.634377Q54.759377 36.2125 53.9625 36.2125Q53.196877 36.2125 52.665627 35.634377Q52.15 35.05625 52.15 33.884377ZM53.99375 32.4Q53.5875 32.4 53.321877 32.74375Q53.071877 33.0875 53.071877 33.99375Q53.071877 34.80625 53.3375 35.15Q53.603127 35.49375 53.99375 35.49375Q54.384377 35.49375 54.65 35.15Q54.915627 34.80625 54.915627 33.9Q54.915627 33.071877 54.65 32.74375Q54.384377 32.4 53.99375 32.4Z" fill-rule="nonzero"/><path fill="#000000" d="M124.17513 467.6625L125.20638 467.52188Q125.23763 468.50626 125.56576 468.86563Q125.89388 469.225 126.48763 469.225Q126.90951 469.225 127.22201 469.0375Q127.53451 468.83438 127.64388 468.50626Q127.76888 468.1625 127.76888 467.42813L127.76888 461.50626L128.89389 461.50626L128.89389 467.36563Q128.89389 468.44376 128.62827 469.0375Q128.37827 469.63126 127.81576 469.94376Q127.25326 470.24063 126.48763 470.24063Q125.36263 470.24063 124.75326 469.6Q124.15951 468.94376 124.17513 467.6625ZM134.69077 469.33438Q134.09702 469.83438 133.55014 470.0375Q133.01889 470.24063 132.39389 470.24063Q131.36264 470.24063 130.81577 469.74063Q130.26889 469.24063 130.26889 468.45938Q130.26889 468.00626 130.47202 467.63126Q130.67514 467.24063 131.01889 467.02188Q131.36264 466.7875 131.78452 466.67813Q132.08139 466.58438 132.72202 466.50626Q133.98764 466.36563 134.59702 466.14688Q134.59702 465.92813 134.59702 465.88126Q134.59702 465.225 134.30014 464.95938Q133.89389 464.61563 133.09702 464.61563Q132.36264 464.61563 132.00327 464.88126Q131.64389 465.13126 131.47202 465.7875L130.44077 465.64688Q130.58139 464.99063 130.90952 464.58438Q131.23764 464.17813 131.84702 463.95938Q132.45639 463.74063 133.25327 463.74063Q134.05014 463.74063 134.55014 463.92813Q135.05014 464.11563 135.28452 464.39688Q135.51889 464.67813 135.61264 465.11563Q135.65952 465.38126 135.65952 466.08438L135.65952 467.49063Q135.65952 468.95938 135.72202 469.35Q135.80014 469.74063 136.00327 470.1L134.89389 470.1Q134.73764 469.77188 134.69077 469.33438ZM134.59702 466.975Q134.01889 467.20938 132.87827 467.38126Q132.22202 467.475 131.95639 467.6Q131.69077 467.70938 131.53452 467.92813Q131.39389 468.14688 131.39389 468.42813Q131.39389 468.85 131.70639 469.13126Q132.03452 469.4125 132.64389 469.4125Q133.25327 469.4125 133.72202 469.14688Q134.20639 468.88126 134.42514 468.4125Q134.59702 468.05313 134.59702 467.36563L134.59702 466.975ZM137.62827 470.1L137.62827 463.88126L138.56577 463.88126L138.56577 464.75626Q139.25327 463.74063 140.55014 463.74063Q141.11264 463.74063 141.58139 463.94376Q142.06577 464.14688 142.30014 464.475Q142.53452 464.80313 142.62827 465.24063Q142.67514 465.5375 142.67514 466.27188L142.67514 470.1L141.62827 470.1L141.62827 466.31876Q141.62827 465.6625 141.50327 465.35Q141.37827 465.0375 141.06577 464.85Q140.75327 464.64688 140.33139 464.64688Q139.65952 464.64688 139.15952 465.08438Q138.67514 465.50626 138.67514 466.69376L138.67514 470.1L137.62827 470.1ZM148.70639 470.1L148.70639 469.17813Q147.97202 470.24063 146.72202 470.24063Q146.17514 470.24063 145.69077 470.0375Q145.22202 469.81876 144.98764 469.50626Q144.75327 469.17813 144.65952 468.70938Q144.59702 468.4125 144.59702 467.725L144.59702 463.88126L145.65952 463.88126L145.65952 467.33438Q145.65952 468.14688 145.72202 468.44376Q145.81577 468.85 146.12827 469.1Q146.45639 469.33438 146.94077 469.33438Q147.40952 469.33438 147.81577 469.1Q148.23764 468.85 148.40952 468.42813Q148.59702 468.00626 148.59702 467.20938L148.59702 463.88126L149.64389 463.88126L149.64389 470.1L148.70639 470.1ZM155.69077 469.33438Q155.09702 469.83438 154.55014 470.0375Q154.01889 470.24063 153.39389 470.24063Q152.36264 470.24063 151.81577 469.74063Q151.26889 469.24063 151.26889 468.45938Q151.26889 468.00626 151.47202 467.63126Q151.67514 467.24063 152.01889 467.02188Q152.36264 466.7875 152.78452 466.67813Q153.08139 466.58438 153.72202 466.50626Q154.98764 466.36563 155.59702 466.14688Q155.59702 465.92813 155.59702 465.88126Q155.59702 465.225 155.30014 464.95938Q154.89389 464.61563 154.09702 464.61563Q153.36264 464.61563 153.00327 464.88126Q152.64389 465.13126 152.47202 465.7875L151.44077 465.64688Q151.58139 464.99063 151.90952 464.58438Q152.23764 464.17813 152.84702 463.95938Q153.45639 463.74063 154.25327 463.74063Q155.05014 463.74063 155.55014 463.92813Q156.05014 464.11563 156.28452 464.39688Q156.51889 464.67813 156.61264 465.11563Q156.65952 465.38126 156.65952 466.08438L156.65952 467.49063Q156.65952 468.95938 156.72202 469.35Q156.80014 469.74063 157.00327 470.1L155.89389 470.1Q155.73764 469.77188 155.69077 469.33438ZM155.59702 466.975Q155.01889 467.20938 153.87827 467.38126Q153.22202 467.475 152.95639 467.6Q152.69077 467.70938 152.53452 467.92813Q152.39389 468.14688 152.39389 468.42813Q152.39389 468.85 152.70639 469.13126Q153.03452 469.4125 153.64389 469.4125Q154.25327 469.4125 154.72202 469.14688Q155.20639 468.88126 155.42514 468.4125Q155.59702 468.05313 155.59702 467.36563L155.59702 466.975ZM158.61264 470.1L158.61264 463.88126L159.56577 463.88126L159.56577 464.81876Q159.92514 464.1625 160.22202 463.95938Q160.53452 463.74063 160.90952 463.74063Q161.44077 463.74063 161.98764 464.06876L161.62827 465.05313Q161.23764 464.81876 160.86264 464.81876Q160.50327 464.81876 160.22202 465.0375Q159.95639 465.24063 159.84702 465.61563Q159.65952 466.17813 159.65952 466.83438L159.65952 470.1L158.61264 470.1ZM162.58139 472.49063L162.45639 471.50626Q162.80014 471.6 163.06577 471.6Q163.40952 471.6 163.61264 471.475Q163.83139 471.36563 163.97202 471.1625Q164.06577 470.99063 164.30014 470.36563Q164.31577 470.2875 164.39389 470.11563L162.01889 463.88126L163.15952 463.88126L164.45639 467.475Q164.70639 468.1625 164.90952 468.92813Q165.09702 468.19376 165.34702 467.50626L166.67514 463.88126L167.72202 463.88126L165.36264 470.20938Q164.97202 471.225 164.76889 471.61563Q164.48764 472.14688 164.11264 472.38126Q163.75327 472.63126 163.25327 472.63126Q162.95639 472.63126 162.58139 472.49063ZM167.89389 470.1L167.89389 468.89688L169.09702 468.89688L169.09702 470.1Q169.09702 470.75626 168.86264 471.1625Q168.62827 471.58438 168.12827 471.80313L167.83139 471.35Q168.15952 471.20938 168.31577 470.9125Q168.47202 470.63126 168.50327 470.1L167.89389 470.1ZM178.87827 469.08438L178.87827 470.1L173.19077 470.1Q173.19077 469.725 173.31577 469.36563Q173.53452 468.7875 174.00327 468.225Q174.48764 467.6625 175.39389 466.92813Q176.80014 465.77188 177.28452 465.1Q177.78452 464.42813 177.78452 463.83438Q177.78452 463.20938 177.33139 462.7875Q176.87827 462.35 176.15952 462.35Q175.39389 462.35 174.94077 462.80313Q174.48764 463.25626 174.47202 464.06876L173.39389 463.95938Q173.50327 462.74063 174.22202 462.11563Q174.95639 461.475 176.19077 461.475Q177.42514 461.475 178.14389 462.1625Q178.86264 462.85 178.86264 463.86563Q178.86264 464.38126 178.64389 464.88126Q178.44077 465.36563 177.94077 465.92813Q177.45639 466.475 176.33139 467.42813Q175.37827 468.225 175.09702 468.52188Q174.83139 468.80313 174.65952 469.08438L178.87827 469.08438ZM180.33139 465.86563Q180.33139 464.33438 180.64389 463.4125Q180.95639 462.475 181.56577 461.975Q182.19077 461.475 183.12827 461.475Q183.81577 461.475 184.33139 461.75626Q184.86264 462.0375 185.20639 462.56876Q185.55014 463.08438 185.73764 463.83438Q185.92514 464.58438 185.92514 465.86563Q185.92514 467.38126 185.61264 468.30313Q185.31577 469.225 184.69077 469.74063Q184.08139 470.24063 183.12827 470.24063Q181.89389 470.24063 181.17514 469.35Q180.33139 468.2875 180.33139 465.86563ZM181.40952 465.86563Q181.40952 467.975 181.90952 468.67813Q182.40952 469.38126 183.12827 469.38126Q183.86264 469.38126 184.34702 468.67813Q184.84702 467.975 184.84702 465.86563Q184.84702 463.74063 184.34702 463.05313Q183.86264 462.35 183.11264 462.35Q182.39389 462.35 181.95639 462.95938Q181.40952 463.74063 181.40952 465.86563ZM192.87827 469.08438L192.87827 470.1L187.19077 470.1Q187.19077 469.725 187.31577 469.36563Q187.53452 468.7875 188.00327 468.225Q188.48764 467.6625 189.39389 466.92813Q190.80014 465.77188 191.28452 465.1Q191.78452 464.42813 191.78452 463.83438Q191.78452 463.20938 191.33139 462.7875Q190.87827 462.35 190.15952 462.35Q189.39389 462.35 188.94077 462.80313Q188.48764 463.25626 188.47202 464.06876L187.39389 463.95938Q187.50327 462.74063 188.22202 462.11563Q188.95639 461.475 190.19077 461.475Q191.42514 461.475 192.14389 462.1625Q192.86264 462.85 192.86264 463.86563Q192.86264 464.38126 192.64389 464.88126Q192.44077 465.36563 191.94077 465.92813Q191.45639 466.475 190.33139 467.42813Q189.37827 468.225 189.09702 468.52188Q188.83139 468.80313 188.65952 469.08438L192.87827 469.08438ZM199.87827 469.08438L199.87827 470.1L194.19077 470.1Q194.19077 469.725 194.31577 469.36563Q194.53452 468.7875 195.00327 468.225Q195.48764 467.6625 196.39389 466.92813Q197.80014 465.77188 198.28452 465.1Q198.78452 464.42813 198.78452 463.83438Q198.78452 463.20938 198.33139 462.7875Q197.87827 462.35 197.15952 462.35Q196.39389 462.35 195.94077 462.80313Q195.48764 463.25626 195.47202 464.06876L194.39389 463.95938Q194.50327 462.74063 195.22202 462.11563Q195.95639 461.475 197.19077 461.475Q198.42514 461.475 199.14389 462.1625Q199.86264 462.85 199.86264 463.86563Q199.86264 464.38126 199.64389 464.88126Q199.44077 465.36563 198.94077 465.92813Q198.45639 466.475 197.33139 467.42813Q196.37827 468.225 196.09702 468.52188Q195.83139 468.80313 195.65952 469.08438L199.87827 469.08438Z" fill-rule="nonzero"/><path fill="#000000" d="M282.48087 467.6625L283.51212 467.52188Q283.54337 468.50626 283.8715 468.86563Q284.19962 469.225 284.79337 469.225Q285.21524 469.225 285.52774 469.0375Q285.84024 468.83438 285.94962 468.50626Q286.07462 468.1625 286.07462 467.42813L286.07462 461.50626L287.19962 461.50626L287.19962 467.36563Q287.19962 468.44376 286.934 469.0375Q286.684 469.63126 286.1215 469.94376Q285.559 470.24063 284.79337 470.24063Q283.66837 470.24063 283.059 469.6Q282.46524 468.94376 282.48087 467.6625ZM293.01212 470.1L293.01212 469.17813Q292.27774 470.24063 291.02774 470.24063Q290.48087 470.24063 289.9965 470.0375Q289.52774 469.81876 289.29337 469.50626Q289.059 469.17813 288.96524 468.70938Q288.90274 468.4125 288.90274 467.725L288.90274 463.88126L289.96524 463.88126L289.96524 467.33438Q289.96524 468.14688 290.02774 468.44376Q290.1215 468.85 290.434 469.1Q290.76212 469.33438 291.2465 469.33438Q291.71524 469.33438 292.1215 469.1Q292.54337 468.85 292.71524 468.42813Q292.90274 468.00626 292.90274 467.20938L292.90274 463.88126L293.94962 463.88126L293.94962 470.1L293.01212 470.1ZM295.90274 470.1L295.90274 461.50626L296.96524 461.50626L296.96524 470.1L295.90274 470.1ZM298.88712 472.49063L298.76212 471.50626Q299.10587 471.6 299.3715 471.6Q299.71524 471.6 299.91837 471.475Q300.13712 471.36563 300.27774 471.1625Q300.3715 470.99063 300.60587 470.36563Q300.6215 470.2875 300.69962 470.11563L298.32462 463.88126L299.46524 463.88126L300.76212 467.475Q301.01212 468.1625 301.21524 468.92813Q301.40274 468.19376 301.65274 467.50626L302.98087 463.88126L304.02774 463.88126L301.66837 470.20938Q301.27774 471.225 301.07462 471.61563Q300.79337 472.14688 300.41837 472.38126Q300.059 472.63126 299.559 472.63126Q299.26212 472.63126 298.88712 472.49063ZM304.19962 470.1L304.19962 468.89688L305.40274 468.89688L305.40274 470.1Q305.40274 470.75626 305.16837 471.1625Q304.934 471.58438 304.434 471.80313L304.13712 471.35Q304.46524 471.20938 304.6215 470.9125Q304.77774 470.63126 304.809 470.1L304.19962 470.1ZM315.184 469.08438L315.184 470.1L309.4965 470.1Q309.4965 469.725 309.6215 469.36563Q309.84024 468.7875 310.309 468.225Q310.79337 467.6625 311.69962 466.92813Q313.10587 465.77188 313.59024 465.1Q314.09024 464.42813 314.09024 463.83438Q314.09024 463.20938 313.63712 462.7875Q313.184 462.35 312.46524 462.35Q311.69962 462.35 311.2465 462.80313Q310.79337 463.25626 310.77774 464.06876L309.69962 463.95938Q309.809 462.74063 310.52774 462.11563Q311.26212 461.475 312.4965 461.475Q313.73087 461.475 314.44962 462.1625Q315.16837 462.85 315.16837 463.86563Q315.16837 464.38126 314.94962 464.88126Q314.7465 465.36563 314.2465 465.92813Q313.76212 466.475 312.63712 467.42813Q311.684 468.225 311.40274 468.52188Q311.13712 468.80313 310.96524 469.08438L315.184 469.08438ZM316.63712 465.86563Q316.63712 464.33438 316.94962 463.4125Q317.26212 462.475 317.8715 461.975Q318.4965 461.475 319.434 461.475Q320.1215 461.475 320.63712 461.75626Q321.16837 462.0375 321.51212 462.56876Q321.85587 463.08438 322.04337 463.83438Q322.23087 464.58438 322.23087 465.86563Q322.23087 467.38126 321.91837 468.30313Q321.6215 469.225 320.9965 469.74063Q320.38712 470.24063 319.434 470.24063Q318.19962 470.24063 317.48087 469.35Q316.63712 468.2875 316.63712 465.86563ZM317.71524 465.86563Q317.71524 467.975 318.21524 468.67813Q318.71524 469.38126 319.434 469.38126Q320.16837 469.38126 320.65274 468.67813Q321.15274 467.975 321.15274 465.86563Q321.15274 463.74063 320.65274 463.05313Q320.16837 462.35 319.41837 462.35Q318.69962 462.35 318.26212 462.95938Q317.71524 463.74063 317.71524 465.86563ZM329.184 469.08438L329.184 470.1L323.4965 470.1Q323.4965 469.725 323.6215 469.36563Q323.84024 468.7875 324.309 468.225Q324.79337 467.6625 325.69962 466.92813Q327.10587 465.77188 327.59024 465.1Q328.09024 464.42813 328.09024 463.83438Q328.09024 463.20938 327.63712 462.7875Q327.184 462.35 326.46524 462.35Q325.69962 462.35 325.2465 462.80313Q324.79337 463.25626 324.77774 464.06876L323.69962 463.95938Q323.809 462.74063 324.52774 462.11563Q325.26212 461.475 326.4965 461.475Q327.73087 461.475 328.44962 462.1625Q329.16837 462.85 329.16837 463.86563Q329.16837 464.38126 328.94962 464.88126Q328.7465 465.36563 328.2465 465.92813Q327.76212 466.475 326.63712 467.42813Q325.684 468.225 325.40274 468.52188Q325.13712 468.80313 324.96524 469.08438L329.184 469.08438ZM336.184 469.08438L336.184 470.1L330.4965 470.1Q330.4965 469.725 330.6215 469.36563Q330.84024 468.7875 331.309 468.225Q331.79337 467.6625 332.69962 466.92813Q334.10587 465.77188 334.59024 465.1Q335.09024 464.42813 335.09024 463.83438Q335.09024 463.20938 334.63712 462.7875Q334.184 462.35 333.46524 462.35Q332.69962 462.35 332.2465 462.80313Q331.79337 463.25626 331.77774 464.06876L330.69962 463.95938Q330.809 462.74063 331.52774 462.11563Q332.26212 461.475 333.4965 461.475Q334.73087 461.475 335.44962 462.1625Q336.16837 462.85 336.16837 463.86563Q336.16837 464.38126 335.94962 464.88126Q335.7465 465.36563 335.2465 465.92813Q334.76212 466.475 333.63712 467.42813Q332.684 468.225 332.40274 468.52188Q332.13712 468.80313 331.96524 469.08438L336.184 469.08438Z" fill-rule="nonzero"/><path fill="#000000" d="M418.78662 467.6625L419.81787 467.52188Q419.84912 468.50626 420.17725 468.86563Q420.50537 469.225 421.09912 469.225Q421.521 469.225 421.8335 469.0375Q422.146 468.83438 422.25537 468.50626Q422.38037 468.1625 422.38037 467.42813L422.38037 461.50626L423.50537 461.50626L423.50537 467.36563Q423.50537 468.44376 423.23975 469.0375Q422.98975 469.63126 422.42725 469.94376Q421.86475 470.24063 421.09912 470.24063Q419.97412 470.24063 419.36475 469.6Q418.771 468.94376 418.78662 467.6625ZM429.30225 469.33438Q428.7085 469.83438 428.16162 470.0375Q427.63037 470.24063 427.00537 470.24063Q425.97412 470.24063 425.42725 469.74063Q424.88037 469.24063 424.88037 468.45938Q424.88037 468.00626 425.0835 467.63126Q425.28662 467.24063 425.63037 467.02188Q425.97412 466.7875 426.396 466.67813Q426.69287 466.58438 427.3335 466.50626Q428.59912 466.36563 429.2085 466.14688Q429.2085 465.92813 429.2085 465.88126Q429.2085 465.225 428.91162 464.95938Q428.50537 464.61563 427.7085 464.61563Q426.97412 464.61563 426.61475 464.88126Q426.25537 465.13126 426.0835 465.7875L425.05225 465.64688Q425.19287 464.99063 425.521 464.58438Q425.84912 464.17813 426.4585 463.95938Q427.06787 463.74063 427.86475 463.74063Q428.66162 463.74063 429.16162 463.92813Q429.66162 464.11563 429.896 464.39688Q430.13037 464.67813 430.22412 465.11563Q430.271 465.38126 430.271 466.08438L430.271 467.49063Q430.271 468.95938 430.3335 469.35Q430.41162 469.74063 430.61475 470.1L429.50537 470.1Q429.34912 469.77188 429.30225 469.33438ZM429.2085 466.975Q428.63037 467.20938 427.48975 467.38126Q426.8335 467.475 426.56787 467.6Q426.30225 467.70938 426.146 467.92813Q426.00537 468.14688 426.00537 468.42813Q426.00537 468.85 426.31787 469.13126Q426.646 469.4125 427.25537 469.4125Q427.86475 469.4125 428.3335 469.14688Q428.81787 468.88126 429.03662 468.4125Q429.2085 468.05313 429.2085 467.36563L429.2085 466.975ZM432.23975 470.1L432.23975 463.88126L433.17725 463.88126L433.17725 464.75626Q433.86475 463.74063 435.16162 463.74063Q435.72412 463.74063 436.19287 463.94376Q436.67725 464.14688 436.91162 464.475Q437.146 464.80313 437.23975 465.24063Q437.28662 465.5375 437.28662 466.27188L437.28662 470.1L436.23975 470.1L436.23975 466.31876Q436.23975 465.6625 436.11475 465.35Q435.98975 465.0375 435.67725 464.85Q435.36475 464.64688 434.94287 464.64688Q434.271 464.64688 433.771 465.08438Q433.28662 465.50626 433.28662 466.69376L433.28662 470.1L432.23975 470.1ZM443.31787 470.1L443.31787 469.17813Q442.5835 470.24063 441.3335 470.24063Q440.78662 470.24063 440.30225 470.0375Q439.8335 469.81876 439.59912 469.50626Q439.36475 469.17813 439.271 468.70938Q439.2085 468.4125 439.2085 467.725L439.2085 463.88126L440.271 463.88126L440.271 467.33438Q440.271 468.14688 440.3335 468.44376Q440.42725 468.85 440.73975 469.1Q441.06787 469.33438 441.55225 469.33438Q442.021 469.33438 442.42725 469.1Q442.84912 468.85 443.021 468.42813Q443.2085 468.00626 443.2085 467.20938L443.2085 463.88126L444.25537 463.88126L444.25537 470.1L443.31787 470.1ZM450.30225 469.33438Q449.7085 469.83438 449.16162 470.0375Q448.63037 470.24063 448.00537 470.24063Q446.97412 470.24063 446.42725 469.74063Q445.88037 469.24063 445.88037 468.45938Q445.88037 468.00626 446.0835 467.63126Q446.28662 467.24063 446.63037 467.02188Q446.97412 466.7875 447.396 466.67813Q447.69287 466.58438 448.3335 466.50626Q449.59912 466.36563 450.2085 466.14688Q450.2085 465.92813 450.2085 465.88126Q450.2085 465.225 449.91162 464.95938Q449.50537 464.61563 448.7085 464.61563Q447.97412 464.61563 447.61475 464.88126Q447.25537 465.13126 447.0835 465.7875L446.05225 465.64688Q446.19287 464.99063 446.521 464.58438Q446.84912 464.17813 447.4585 463.95938Q448.06787 463.74063 448.86475 463.74063Q449.66162 463.74063 450.16162 463.92813Q450.66162 464.11563 450.896 464.39688Q451.13037 464.67813 451.22412 465.11563Q451.271 465.38126 451.271 466.08438L451.271 467.49063Q451.271 468.95938 451.3335 469.35Q451.41162 469.74063 451.61475 470.1L450.50537 470.1Q450.34912 469.77188 450.30225 469.33438ZM450.2085 466.975Q449.63037 467.20938 448.48975 467.38126Q447.8335 467.475 447.56787 467.6Q447.30225 467.70938 447.146 467.92813Q447.00537 468.14688 447.00537 468.42813Q447.00537 468.85 447.31787 469.13126Q447.646 469.4125 448.25537 469.4125Q448.86475 469.4125 449.3335 469.14688Q449.81787 468.88126 450.03662 468.4125Q450.2085 468.05313 450.2085 467.36563L450.2085 466.975ZM453.22412 470.1L453.22412 463.88126L454.17725 463.88126L454.17725 464.81876Q454.53662 464.1625 454.8335 463.95938Q455.146 463.74063 455.521 463.74063Q456.05225 463.74063 456.59912 464.06876L456.23975 465.05313Q455.84912 464.81876 455.47412 464.81876Q455.11475 464.81876 454.8335 465.0375Q454.56787 465.24063 454.4585 465.61563Q454.271 466.17813 454.271 466.83438L454.271 470.1L453.22412 470.1ZM457.19287 472.49063L457.06787 471.50626Q457.41162 471.6 457.67725 471.6Q458.021 471.6 458.22412 471.475Q458.44287 471.36563 458.5835 471.1625Q458.67725 470.99063 458.91162 470.36563Q458.92725 470.2875 459.00537 470.11563L456.63037 463.88126L457.771 463.88126L459.06787 467.475Q459.31787 468.1625 459.521 468.92813Q459.7085 468.19376 459.9585 467.50626L461.28662 463.88126L462.3335 463.88126L459.97412 470.20938Q459.5835 471.225 459.38037 471.61563Q459.09912 472.14688 458.72412 472.38126Q458.36475 472.63126 457.86475 472.63126Q457.56787 472.63126 457.19287 472.49063ZM462.50537 470.1L462.50537 468.89688L463.7085 468.89688L463.7085 470.1Q463.7085 470.75626 463.47412 471.1625Q463.23975 471.58438 462.73975 471.80313L462.44287 471.35Q462.771 471.20938 462.92725 470.9125Q463.0835 470.63126 463.11475 470.1L462.50537 470.1ZM473.48975 469.08438L473.48975 470.1L467.80225 470.1Q467.80225 469.725 467.92725 469.36563Q468.146 468.7875 468.61475 468.225Q469.09912 467.6625 470.00537 466.92813Q471.41162 465.77188 471.896 465.1Q472.396 464.42813 472.396 463.83438Q472.396 463.20938 471.94287 462.7875Q471.48975 462.35 470.771 462.35Q470.00537 462.35 469.55225 462.80313Q469.09912 463.25626 469.0835 464.06876L468.00537 463.95938Q468.11475 462.74063 468.8335 462.11563Q469.56787 461.475 470.80225 461.475Q472.03662 461.475 472.75537 462.1625Q473.47412 462.85 473.47412 463.86563Q473.47412 464.38126 473.25537 464.88126Q473.05225 465.36563 472.55225 465.92813Q472.06787 466.475 470.94287 467.42813Q469.98975 468.225 469.7085 468.52188Q469.44287 468.80313 469.271 469.08438L473.48975 469.08438ZM474.94287 465.86563Q474.94287 464.33438 475.25537 463.4125Q475.56787 462.475 476.17725 461.975Q476.80225 461.475 477.73975 461.475Q478.42725 461.475 478.94287 461.75626Q479.47412 462.0375 479.81787 462.56876Q480.16162 463.08438 480.34912 463.83438Q480.53662 464.58438 480.53662 465.86563Q480.53662 467.38126 480.22412 468.30313Q479.92725 469.225 479.30225 469.74063Q478.69287 470.24063 477.73975 470.24063Q476.50537 470.24063 475.78662 469.35Q474.94287 468.2875 474.94287 465.86563ZM476.021 465.86563Q476.021 467.975 476.521 468.67813Q477.021 469.38126 477.73975 469.38126Q478.47412 469.38126 478.9585 468.67813Q479.4585 467.975 479.4585 465.86563Q479.4585 463.74063 478.9585 463.05313Q478.47412 462.35 477.72412 462.35Q477.00537 462.35 476.56787 462.95938Q476.021 463.74063 476.021 465.86563ZM487.48975 469.08438L487.48975 470.1L481.80225 470.1Q481.80225 469.725 481.92725 469.36563Q482.146 468.7875 482.61475 468.225Q483.09912 467.6625 484.00537 466.92813Q485.41162 465.77188 485.896 465.1Q486.396 464.42813 486.396 463.83438Q486.396 463.20938 485.94287 462.7875Q485.48975 462.35 484.771 462.35Q484.00537 462.35 483.55225 462.80313Q483.09912 463.25626 483.0835 464.06876L482.00537 463.95938Q482.11475 462.74063 482.8335 462.11563Q483.56787 461.475 484.80225 461.475Q486.03662 461.475 486.75537 462.1625Q487.47412 462.85 487.47412 463.86563Q487.47412 464.38126 487.25537 464.88126Q487.05225 465.36563 486.55225 465.92813Q486.06787 466.475 484.94287 467.42813Q483.98975 468.225 483.7085 468.52188Q483.44287 468.80313 483.271 469.08438L487.48975 469.08438ZM488.94287 467.83438L490.00537 467.69376Q490.17725 468.58438 490.61475 468.99063Q491.05225 469.38126 491.67725 469.38126Q492.42725 469.38126 492.94287 468.86563Q493.4585 468.35 493.4585 467.58438Q493.4585 466.86563 492.97412 466.39688Q492.50537 465.9125 491.771 465.9125Q491.47412 465.9125 491.021 466.0375L491.146 465.1Q491.25537 465.11563 491.31787 465.11563Q491.98975 465.11563 492.521 464.77188Q493.06787 464.4125 493.06787 463.67813Q493.06787 463.1 492.67725 462.725Q492.28662 462.33438 491.66162 462.33438Q491.05225 462.33438 490.63037 462.725Q490.22412 463.11563 490.11475 463.88126L489.05225 463.69376Q489.23975 462.64688 489.92725 462.06876Q490.61475 461.475 491.63037 461.475Q492.3335 461.475 492.92725 461.7875Q493.521 462.08438 493.8335 462.6Q494.146 463.11563 494.146 463.70938Q494.146 464.25626 493.84912 464.725Q493.55225 465.17813 492.97412 465.44376Q493.72412 465.61563 494.146 466.17813Q494.56787 466.725 494.56787 467.56876Q494.56787 468.69376 493.73975 469.475Q492.92725 470.25626 491.67725 470.25626Q490.55225 470.25626 489.80225 469.58438Q489.05225 468.89688 488.94287 467.83438Z" fill-rule="nonzero"/><path fill="#000000" d="M577.09235 467.6625L578.1236 467.52188Q578.15485 468.50626 578.483 468.86563Q578.8111 469.225 579.40485 469.225Q579.8267 469.225 580.1392 469.0375Q580.4517 468.83438 580.5611 468.50626Q580.6861 468.1625 580.6861 467.42813L580.6861 461.50626L581.8111 461.50626L581.8111 467.36563Q581.8111 468.44376 581.5455 469.0375Q581.2955 469.63126 580.733 469.94376Q580.1705 470.24063 579.40485 470.24063Q578.27985 470.24063 577.6705 469.6Q577.0767 468.94376 577.09235 467.6625ZM587.6236 470.1L587.6236 469.17813Q586.8892 470.24063 585.6392 470.24063Q585.09235 470.24063 584.608 470.0375Q584.1392 469.81876 583.90485 469.50626Q583.6705 469.17813 583.5767 468.70938Q583.5142 468.4125 583.5142 467.725L583.5142 463.88126L584.5767 463.88126L584.5767 467.33438Q584.5767 468.14688 584.6392 468.44376Q584.733 468.85 585.0455 469.1Q585.3736 469.33438 585.858 469.33438Q586.3267 469.33438 586.733 469.1Q587.15485 468.85 587.3267 468.42813Q587.5142 468.00626 587.5142 467.20938L587.5142 463.88126L588.5611 463.88126L588.5611 470.1L587.6236 470.1ZM590.5142 470.1L590.5142 461.50626L591.5767 461.50626L591.5767 470.1L590.5142 470.1ZM593.4986 472.49063L593.3736 471.50626Q593.71735 471.6 593.983 471.6Q594.3267 471.6 594.52985 471.475Q594.7486 471.36563 594.8892 471.1625Q594.983 470.99063 595.21735 470.36563Q595.233 470.2875 595.3111 470.11563L592.9361 463.88126L594.0767 463.88126L595.3736 467.475Q595.6236 468.1625 595.8267 468.92813Q596.0142 468.19376 596.2642 467.50626L597.59235 463.88126L598.6392 463.88126L596.27985 470.20938Q595.8892 471.225 595.6861 471.61563Q595.40485 472.14688 595.02985 472.38126Q594.6705 472.63126 594.1705 472.63126Q593.8736 472.63126 593.4986 472.49063ZM598.8111 470.1L598.8111 468.89688L600.0142 468.89688L600.0142 470.1Q600.0142 470.75626 599.77985 471.1625Q599.5455 471.58438 599.0455 471.80313L598.7486 471.35Q599.0767 471.20938 599.233 470.9125Q599.3892 470.63126 599.4205 470.1L598.8111 470.1ZM609.7955 469.08438L609.7955 470.1L604.108 470.1Q604.108 469.725 604.233 469.36563Q604.4517 468.7875 604.9205 468.225Q605.40485 467.6625 606.3111 466.92813Q607.71735 465.77188 608.2017 465.1Q608.7017 464.42813 608.7017 463.83438Q608.7017 463.20938 608.2486 462.7875Q607.7955 462.35 607.0767 462.35Q606.3111 462.35 605.858 462.80313Q605.40485 463.25626 605.3892 464.06876L604.3111 463.95938Q604.4205 462.74063 605.1392 462.11563Q605.8736 461.475 607.108 461.475Q608.34235 461.475 609.0611 462.1625Q609.77985 462.85 609.77985 463.86563Q609.77985 464.38126 609.5611 464.88126Q609.358 465.36563 608.858 465.92813Q608.3736 466.475 607.2486 467.42813Q606.2955 468.225 606.0142 468.52188Q605.7486 468.80313 605.5767 469.08438L609.7955 469.08438ZM611.2486 465.86563Q611.2486 464.33438 611.5611 463.4125Q611.8736 462.475 612.483 461.975Q613.108 461.475 614.0455 461.475Q614.733 461.475 615.2486 461.75626Q615.77985 462.0375 616.1236 462.56876Q616.46735 463.08438 616.65485 463.83438Q616.84235 464.58438 616.84235 465.86563Q616.84235 467.38126 616.52985 468.30313Q616.233 469.225 615.608 469.74063Q614.9986 470.24063 614.0455 470.24063Q612.8111 470.24063 612.09235 469.35Q611.2486 468.2875 611.2486 465.86563ZM612.3267 465.86563Q612.3267 467.975 612.8267 468.67813Q613.3267 469.38126 614.0455 469.38126Q614.77985 469.38126 615.2642 468.67813Q615.7642 467.975 615.7642 465.86563Q615.7642 463.74063 615.2642 463.05313Q614.77985 462.35 614.02985 462.35Q613.3111 462.35 612.8736 462.95938Q612.3267 463.74063 612.3267 465.86563ZM623.7955 469.08438L623.7955 470.1L618.108 470.1Q618.108 469.725 618.233 469.36563Q618.4517 468.7875 618.9205 468.225Q619.40485 467.6625 620.3111 466.92813Q621.71735 465.77188 622.2017 465.1Q622.7017 464.42813 622.7017 463.83438Q622.7017 463.20938 622.2486 462.7875Q621.7955 462.35 621.0767 462.35Q620.3111 462.35 619.858 462.80313Q619.40485 463.25626 619.3892 464.06876L618.3111 463.95938Q618.4205 462.74063 619.1392 462.11563Q619.8736 461.475 621.108 461.475Q622.34235 461.475 623.0611 462.1625Q623.77985 462.85 623.77985 463.86563Q623.77985 464.38126 623.5611 464.88126Q623.358 465.36563 622.858 465.92813Q622.3736 466.475 621.2486 467.42813Q620.2955 468.225 620.0142 468.52188Q619.7486 468.80313 619.5767 469.08438L623.7955 469.08438ZM625.2486 467.83438L626.3111 467.69376Q626.483 468.58438 626.9205 468.99063Q627.358 469.38126 627.983 469.38126Q628.733 469.38126 629.2486 468.86563Q629.7642 468.35 629.7642 467.58438Q629.7642 466.86563 629.27985 466.39688Q628.8111 465.9125 628.0767 465.9125Q627.77985 465.9125 627.3267 466.0375L627.4517 465.1Q627.5611 465.11563 627.6236 465.11563Q628.2955 465.11563 628.8267 464.77188Q629.3736 464.4125 629.3736 463.67813Q629.3736 463.1 628.983 462.725Q628.59235 462.33438 627.96735 462.33438Q627.358 462.33438 626.9361 462.725Q626.52985 463.11563 626.4205 463.88126L625.358 463.69376Q625.5455 462.64688 626.233 462.06876Q626.9205 461.475 627.9361 461.475Q628.6392 461.475 629.233 461.7875Q629.8267 462.08438 630.1392 462.6Q630.4517 463.11563 630.4517 463.70938Q630.4517 464.25626 630.15485 464.725Q629.858 465.17813 629.27985 465.44376Q630.02985 465.61563 630.4517 466.17813Q630.8736 466.725 630.8736 467.56876Q630.8736 468.69376 630.0455 469.475Q629.233 470.25626 627.983 470.25626Q626.858 470.25626 626.108 469.58438Q625.358 468.89688 625.2486 467.83438Z" fill-rule="nonzero"/><path fill="#f4cccc" d="M733.56 26.9C733.56 26.347715 734.0077 25.9 734.56 25.9L744.56 25.9C745.1123 25.9 745.56 26.347715 745.56 26.9L745.56 36.9C745.56 37.452286 745.1123 37.9 744.56 37.9L734.56 37.9C734.0077 37.9 733.56 37.452286 733.56 36.9Z" fill-rule="nonzero"/><path fill="#1a1a1a" d="M754.06 33.65L755.1694 33.55625Q755.2944 34.36875 755.7319 34.775Q756.185 35.18125 756.8256 35.18125Q757.5756 35.18125 758.1069 34.603127Q758.6381 34.025 758.6381 33.0875Q758.6381 32.18125 758.1225 31.665627Q757.6225 31.134377 756.7944 31.134377Q756.2944 31.134377 755.8725 31.368752Q755.46625 31.603127 755.2319 31.962502L754.2475 31.837502L755.0756 27.431252L759.3569 27.431252L759.3569 28.431252L755.9194 28.431252L755.46625 30.743752Q756.2319 30.196877 757.0756 30.196877Q758.2006 30.196877 758.96625 30.978127Q759.7475 31.759377 759.7475 32.99375Q759.7475 34.15 759.0756 35.009377Q758.2475 36.040627 756.8256 36.040627Q755.65375 36.040627 754.90375 35.384377Q754.1694 34.728127 754.06 33.65ZM761.65375 35.9L761.65375 34.696877L762.8569 34.696877L762.8569 35.9L761.65375 35.9ZM769.6069 34.884377L769.6069 35.9L763.9194 35.9Q763.9194 35.525 764.0444 35.165627Q764.2631 34.5875 764.7319 34.025Q765.21625 33.4625 766.1225 32.728127Q767.52875 31.571877 768.0131 30.900002Q768.5131 30.228127 768.5131 29.634377Q768.5131 29.009377 768.06 28.587502Q767.6069 28.150002 766.8881 28.150002Q766.1225 28.150002 765.6694 28.603127Q765.21625 29.056252 765.2006 29.868752L764.1225 29.759377Q764.2319 28.540627 764.9506 27.915627Q765.685 27.275002 766.9194 27.275002Q768.15375 27.275002 768.8725 27.962502Q769.59125 28.650002 769.59125 29.665627Q769.59125 30.181252 769.3725 30.681252Q769.1694 31.165627 768.6694 31.728127Q768.185 32.275 767.06 33.228127Q766.1069 34.025 765.8256 34.321877Q765.56 34.603127 765.3881 34.884377L769.6069 34.884377Z" fill-rule="nonzero"/><path fill="#ea9999" d="M733.56 50.9C733.56 50.347713 734.0077 49.9 734.56 49.9L744.56 49.9C745.1123 49.9 745.56 50.347713 745.56 50.9L745.56 60.9C745.56 61.452286 745.1123 61.9 744.56 61.9L734.56 61.9C734.0077 61.9 733.56 61.452286 733.56 60.9Z" fill-rule="nonzero"/><path fill="#1a1a1a" d="M754.06 57.65L755.1694 57.55625Q755.2944 58.36875 755.7319 58.775Q756.185 59.18125 756.8256 59.18125Q757.5756 59.18125 758.1069 58.603127Q758.6381 58.025 758.6381 57.0875Q758.6381 56.18125 758.1225 55.665627Q757.6225 55.134377 756.7944 55.134377Q756.2944 55.134377 755.8725 55.36875Q755.46625 55.603127 755.2319 55.9625L754.2475 55.8375L755.0756 51.43125L759.3569 51.43125L759.3569 52.43125L755.9194 52.43125L755.46625 54.74375Q756.2319 54.196877 757.0756 54.196877Q758.2006 54.196877 758.96625 54.978127Q759.7475 55.759377 759.7475 56.99375Q759.7475 58.15 759.0756 59.009377Q758.2475 60.040627 756.8256 60.040627Q755.65375 60.040627 754.90375 59.384377Q754.1694 58.728127 754.06 57.65ZM761.65375 59.9L761.65375 58.696877L762.8569 58.696877L762.8569 59.9L761.65375 59.9ZM764.06 57.634377L765.1225 57.49375Q765.2944 58.384377 765.7319 58.790627Q766.1694 59.18125 766.7944 59.18125Q767.5444 59.18125 768.06 58.665627Q768.5756 58.15 768.5756 57.384377Q768.5756 56.665627 768.09125 56.196877Q767.6225 55.7125 766.8881 55.7125Q766.59125 55.7125 766.1381 55.8375L766.2631 54.9Q766.3725 54.915627 766.435 54.915627Q767.1069 54.915627 767.6381 54.571877Q768.185 54.2125 768.185 53.478127Q768.185 52.9 767.7944 52.525Q767.40375 52.134377 766.77875 52.134377Q766.1694 52.134377 765.7475 52.525Q765.34125 52.915627 765.2319 53.68125L764.1694 53.49375Q764.3569 52.446877 765.0444 51.86875Q765.7319 51.275 766.7475 51.275Q767.4506 51.275 768.0444 51.5875Q768.6381 51.884377 768.9506 52.4Q769.2631 52.915627 769.2631 53.509377Q769.2631 54.05625 768.96625 54.525Q768.6694 54.978127 768.09125 55.24375Q768.84125 55.415627 769.2631 55.978127Q769.685 56.525 769.685 57.36875Q769.685 58.49375 768.8569 59.275Q768.0444 60.05625 766.7944 60.05625Q765.6694 60.05625 764.9194 59.384377Q764.1694 58.696877 764.06 57.634377Z" fill-rule="nonzero"/><path fill="#e06666" d="M733.56 74.9C733.56 74.34772 734.0077 73.9 734.56 73.9L744.56 73.9C745.1123 73.9 745.56 74.34772 745.56 74.9L745.56 84.9C745.56 85.452286 745.1123 85.9 744.56 85.9L734.56 85.9C734.0077 85.9 733.56 85.452286 733.56 84.9Z" fill-rule="nonzero"/><path fill="#1a1a1a" d="M754.06 81.65L755.1694 81.55625Q755.2944 82.36875 755.7319 82.775Q756.185 83.18125 756.8256 83.18125Q757.5756 83.18125 758.1069 82.60313Q758.6381 82.025 758.6381 81.0875Q758.6381 80.18125 758.1225 79.66563Q757.6225 79.13438 756.7944 79.13438Q756.2944 79.13438 755.8725 79.36875Q755.46625 79.60313 755.2319 79.9625L754.2475 79.8375L755.0756 75.43125L759.3569 75.43125L759.3569 76.43125L755.9194 76.43125L755.46625 78.74375Q756.2319 78.19688 757.0756 78.19688Q758.2006 78.19688 758.96625 78.97813Q759.7475 79.75938 759.7475 80.99375Q759.7475 82.15 759.0756 83.00938Q758.2475 84.04063 756.8256 84.04063Q755.65375 84.04063 754.90375 83.38438Q754.1694 82.72813 754.06 81.65ZM761.65375 83.9L761.65375 82.69688L762.8569 82.69688L762.8569 83.9L761.65375 83.9ZM767.435 83.9L767.435 81.8375L763.71625 81.8375L763.71625 80.86875L767.6381 75.30625L768.4975 75.30625L768.4975 80.86875L769.65375 80.86875L769.65375 81.8375L768.4975 81.8375L768.4975 83.9L767.435 83.9ZM767.435 80.86875L767.435 77.00938L764.7475 80.86875L767.435 80.86875Z" fill-rule="nonzero"/><path fill="#cc0000" d="M733.56 98.9C733.56 98.34772 734.0077 97.9 734.56 97.9L744.56 97.9C745.1123 97.9 745.56 98.34772 745.56 98.9L745.56 108.9C745.56 109.452286 745.1123 109.9 744.56 109.9L734.56 109.9C734.0077 109.9 733.56 109.452286 733.56 108.9Z" fill-rule="nonzero"/><path fill="#1a1a1a" d="M754.06 105.65L755.1694 105.55625Q755.2944 106.36875 755.7319 106.775Q756.185 107.18125 756.8256 107.18125Q757.5756 107.18125 758.1069 106.60313Q758.6381 106.025 758.6381 105.0875Q758.6381 104.18125 758.1225 103.66563Q757.6225 103.13438 756.7944 103.13438Q756.2944 103.13438 755.8725 103.36875Q755.46625 103.60313 755.2319 103.9625L754.2475 103.8375L755.0756 99.43125L759.3569 99.43125L759.3569 100.43125L755.9194 100.43125L755.46625 102.74375Q756.2319 102.19688 757.0756 102.19688Q758.2006 102.19688 758.96625 102.97813Q759.7475 103.75938 759.7475 104.99375Q759.7475 106.15 759.0756 107.00938Q758.2475 108.04063 756.8256 108.04063Q755.65375 108.04063 754.90375 107.38438Q754.1694 106.72813 754.06 105.65ZM761.65375 107.9L761.65375 106.69688L762.8569 106.69688L762.8569 107.9L761.65375 107.9ZM764.06 105.65L765.1694 105.55625Q765.2944 106.36875 765.7319 106.775Q766.185 107.18125 766.8256 107.18125Q767.5756 107.18125 768.1069 106.60313Q768.6381 106.025 768.6381 105.0875Q768.6381 104.18125 768.1225 103.66563Q767.6225 103.13438 766.7944 103.13438Q766.2944 103.13438 765.8725 103.36875Q765.46625 103.60313 765.2319 103.9625L764.2475 103.8375L765.0756 99.43125L769.3569 99.43125L769.3569 100.43125L765.9194 100.43125L765.46625 102.74375Q766.2319 102.19688 767.0756 102.19688Q768.2006 102.19688 768.96625 102.97813Q769.7475 103.75938 769.7475 104.99375Q769.7475 106.15 769.0756 107.00938Q768.2475 108.04063 766.8256 108.04063Q765.65375 108.04063 764.90375 107.38438Q764.1694 106.72813 764.06 105.65Z" fill-rule="nonzero"/><path fill="#990000" d="M733.56 122.9C733.56 122.34772 734.0077 121.9 734.56 121.9L744.56 121.9C745.1123 121.9 745.56 122.34772 745.56 122.9L745.56 132.9C745.56 133.45229 745.1123 133.9 744.56 133.9L734.56 133.9C734.0077 133.9 733.56 133.45229 733.56 132.9Z" fill-rule="nonzero"/><path fill="#1a1a1a" d="M754.06 129.65L755.1694 129.55624Q755.2944 130.36874 755.7319 130.775Q756.185 131.18124 756.8256 131.18124Q757.5756 131.18124 758.1069 130.60312Q758.6381 130.025 758.6381 129.0875Q758.6381 128.18124 758.1225 127.66562Q757.6225 127.13437 756.7944 127.13437Q756.2944 127.13437 755.8725 127.368744Q755.46625 127.60312 755.2319 127.962494L754.2475 127.837494L755.0756 123.431244L759.3569 123.431244L759.3569 124.431244L755.9194 124.431244L755.46625 126.743744Q756.2319 126.19687 757.0756 126.19687Q758.2006 126.19687 758.96625 126.97812Q759.7475 127.75937 759.7475 128.99374Q759.7475 130.15 759.0756 131.00937Q758.2475 132.04062 756.8256 132.04062Q755.65375 132.04062 754.90375 131.38437Q754.1694 130.72812 754.06 129.65ZM761.65375 131.9L761.65375 130.69687L762.8569 130.69687L762.8569 131.9L761.65375 131.9ZM769.52875 125.41562L768.4819 125.493744Q768.34125 124.868744 768.09125 124.587494Q767.65375 124.13437 767.02875 124.13437Q766.52875 124.13437 766.1381 124.41562Q765.65375 124.79062 765.3569 125.493744Q765.0756 126.181244 765.06 127.462494Q765.435 126.88437 765.9819 126.60312Q766.5444 126.32187 767.15375 126.32187Q768.2006 126.32187 768.935 127.10312Q769.685 127.88437 769.685 129.10312Q769.685 129.91562 769.3256 130.61874Q768.9819 131.30624 768.3725 131.68124Q767.7631 132.04062 766.9975 132.04062Q765.6694 132.04062 764.84125 131.07187Q764.0131 130.10312 764.0131 127.88437Q764.0131 125.38437 764.935 124.25937Q765.7319 123.274994 767.09125 123.274994Q768.1069 123.274994 768.7475 123.85312Q769.40375 124.41562 769.52875 125.41562ZM765.2319 129.11874Q765.2319 129.66562 765.4506 130.16562Q765.685 130.65 766.09125 130.91562Q766.5131 131.18124 766.9819 131.18124Q767.6381 131.18124 768.1225 130.65Q768.6069 130.10312 768.6069 129.18124Q768.6069 128.29062 768.1225 127.774994Q767.65375 127.25937 766.935 127.25937Q766.21625 127.25937 765.71625 127.774994Q765.2319 128.29062 765.2319 129.11874Z" fill-rule="nonzero"/><path fill="#cfe2f3" d="M733.56 146.9C733.56 146.34772 734.0077 145.9 734.56 145.9L744.56 145.9C745.1123 145.9 745.56 146.34772 745.56 146.9L745.56 156.9C745.56 157.45229 745.1123 157.9 744.56 157.9L734.56 157.9C734.0077 157.9 733.56 157.45229 733.56 156.9Z" fill-rule="nonzero"/><path fill="#1a1a1a" d="M754.1225 148.43124L754.1225 147.41562L759.685 147.41562L759.685 148.24374Q758.8725 149.11874 758.06 150.57187Q757.2631 152.00937 756.8256 153.54062Q756.4975 154.61874 756.4194 155.9L755.3256 155.9Q755.34125 154.88437 755.71625 153.44687Q756.1069 152.00937 756.81 150.68124Q757.52875 149.35312 758.34125 148.43124L754.1225 148.43124ZM761.65375 155.9L761.65375 154.69687L762.8569 154.69687L762.8569 155.9L761.65375 155.9ZM764.06 151.66562Q764.06 150.13437 764.3725 149.2125Q764.685 148.275 765.2944 147.775Q765.9194 147.275 766.8569 147.275Q767.5444 147.275 768.06 147.55624Q768.59125 147.8375 768.935 148.36874Q769.27875 148.88437 769.46625 149.63437Q769.65375 150.38437 769.65375 151.66562Q769.65375 153.18124 769.34125 154.10312Q769.0444 155.025 768.4194 155.54062Q767.81 156.04062 766.8569 156.04062Q765.6225 156.04062 764.90375 155.15Q764.06 154.0875 764.06 151.66562ZM765.1381 151.66562Q765.1381 153.775 765.6381 154.47812Q766.1381 155.18124 766.8569 155.18124Q767.59125 155.18124 768.0756 154.47812Q768.5756 153.775 768.5756 151.66562Q768.5756 149.54062 768.0756 148.85312Q767.59125 148.15 766.84125 148.15Q766.1225 148.15 765.685 148.75937Q765.1381 149.54062 765.1381 151.66562Z" fill-rule="nonzero"/><path fill="#9fc5e8" d="M733.56 170.9C733.56 170.34772 734.0077 169.9 734.56 169.9L744.56 169.9C745.1123 169.9 745.56 170.34772 745.56 170.9L745.56 180.9C745.56 181.45229 745.1123 181.9 744.56 181.9L734.56 181.9C734.0077 181.9 733.56 181.45229 733.56 180.9Z" fill-rule="nonzero"/><path fill="#1a1a1a" d="M754.1225 172.43124L754.1225 171.41562L759.685 171.41562L759.685 172.24374Q758.8725 173.11874 758.06 174.57187Q757.2631 176.00937 756.8256 177.54062Q756.4975 178.61874 756.4194 179.9L755.3256 179.9Q755.34125 178.88437 755.71625 177.44687Q756.1069 176.00937 756.81 174.68124Q757.52875 173.35312 758.34125 172.43124L754.1225 172.43124ZM761.65375 179.9L761.65375 178.69687L762.8569 178.69687L762.8569 179.9L761.65375 179.9ZM768.02875 179.9L766.9819 179.9L766.9819 173.18124Q766.59125 173.54062 765.96625 173.91562Q765.3569 174.275 764.8725 174.44687L764.8725 173.43124Q765.7475 173.00937 766.40375 172.43124Q767.0756 171.8375 767.3569 171.275L768.02875 171.275L768.02875 179.9Z" fill-rule="nonzero"/><path fill="#6fa8dc" d="M733.56 194.9C733.56 194.34772 734.0077 193.9 734.56 193.9L744.56 193.9C745.1123 193.9 745.56 194.34772 745.56 194.9L745.56 204.9C745.56 205.45229 745.1123 205.9 744.56 205.9L734.56 205.9C734.0077 205.9 733.56 205.45229 733.56 204.9Z" fill-rule="nonzero"/><path fill="#1a1a1a" d="M754.1225 196.43124L754.1225 195.41562L759.685 195.41562L759.685 196.24374Q758.8725 197.11874 758.06 198.57187Q757.2631 200.00937 756.8256 201.54062Q756.4975 202.61874 756.4194 203.9L755.3256 203.9Q755.34125 202.88437 755.71625 201.44687Q756.1069 200.00937 756.81 198.68124Q757.52875 197.35312 758.34125 196.43124L754.1225 196.43124ZM761.65375 203.9L761.65375 202.69687L762.8569 202.69687L762.8569 203.9L761.65375 203.9ZM769.6069 202.88437L769.6069 203.9L763.9194 203.9Q763.9194 203.525 764.0444 203.16562Q764.2631 202.5875 764.7319 202.025Q765.21625 201.4625 766.1225 200.72812Q767.52875 199.57187 768.0131 198.9Q768.5131 198.22812 768.5131 197.63437Q768.5131 197.00937 768.06 196.5875Q767.6069 196.15 766.8881 196.15Q766.1225 196.15 765.6694 196.60312Q765.21625 197.05624 765.2006 197.86874L764.1225 197.75937Q764.2319 196.54062 764.9506 195.91562Q765.685 195.275 766.9194 195.275Q768.15375 195.275 768.8725 195.9625Q769.59125 196.65 769.59125 197.66562Q769.59125 198.18124 769.3725 198.68124Q769.1694 199.16562 768.6694 199.72812Q768.185 200.275 767.06 201.22812Q766.1069 202.025 765.8256 202.32187Q765.56 202.60312 765.3881 202.88437L769.6069 202.88437Z" fill-rule="nonzero"/><path fill="#3d85c6" d="M733.56 218.9C733.56 218.34772 734.0077 217.9 734.56 217.9L744.56 217.9C745.1123 217.9 745.56 218.34772 745.56 218.9L745.56 228.9C745.56 229.45229 745.1123 229.9 744.56 229.9L734.56 229.9C734.0077 229.9 733.56 229.45229 733.56 228.9Z" fill-rule="nonzero"/><path fill="#1a1a1a" d="M754.1225 220.43124L754.1225 219.41562L759.685 219.41562L759.685 220.24374Q758.8725 221.11874 758.06 222.57187Q757.2631 224.00937 756.8256 225.54062Q756.4975 226.61874 756.4194 227.9L755.3256 227.9Q755.34125 226.88437 755.71625 225.44687Q756.1069 224.00937 756.81 222.68124Q757.52875 221.35312 758.34125 220.43124L754.1225 220.43124ZM761.65375 227.9L761.65375 226.69687L762.8569 226.69687L762.8569 227.9L761.65375 227.9ZM764.06 225.63437L765.1225 225.49374Q765.2944 226.38437 765.7319 226.79062Q766.1694 227.18124 766.7944 227.18124Q767.5444 227.18124 768.06 226.66562Q768.5756 226.15 768.5756 225.38437Q768.5756 224.66562 768.09125 224.19687Q767.6225 223.7125 766.8881 223.7125Q766.59125 223.7125 766.1381 223.8375L766.2631 222.9Q766.3725 222.91562 766.435 222.91562Q767.1069 222.91562 767.6381 222.57187Q768.185 222.2125 768.185 221.47812Q768.185 220.9 767.7944 220.525Q767.40375 220.13437 766.77875 220.13437Q766.1694 220.13437 765.7475 220.525Q765.34125 220.91562 765.2319 221.68124L764.1694 221.49374Q764.3569 220.44687 765.0444 219.86874Q765.7319 219.275 766.7475 219.275Q767.4506 219.275 768.0444 219.5875Q768.6381 219.88437 768.9506 220.4Q769.2631 220.91562 769.2631 221.50937Q769.2631 222.05624 768.96625 222.525Q768.6694 222.97812 768.09125 223.24374Q768.84125 223.41562 769.2631 223.97812Q769.685 224.525 769.685 225.36874Q769.685 226.49374 768.8569 227.275Q768.0444 228.05624 766.7944 228.05624Q765.6694 228.05624 764.9194 227.38437Q764.1694 226.69687 764.06 225.63437Z" fill-rule="nonzero"/><path fill="#0b5394" d="M733.56 242.9C733.56 242.34772 734.0077 241.9 734.56 241.9L744.56 241.9C745.1123 241.9 745.56 242.34772 745.56 242.9L745.56 252.9C745.56 253.45229 745.1123 253.9 744.56 253.9L734.56 253.9C734.0077 253.9 733.56 253.45229 733.56 252.9Z" fill-rule="nonzero"/><path fill="#1a1a1a" d="M754.1225 244.43124L754.1225 243.41562L759.685 243.41562L759.685 244.24374Q758.8725 245.11874 758.06 246.57187Q757.2631 248.00937 756.8256 249.54062Q756.4975 250.61874 756.4194 251.9L755.3256 251.9Q755.34125 250.88437 755.71625 249.44687Q756.1069 248.00937 756.81 246.68124Q757.52875 245.35312 758.34125 244.43124L754.1225 244.43124ZM761.65375 251.9L761.65375 250.69687L762.8569 250.69687L762.8569 251.9L761.65375 251.9ZM767.435 251.9L767.435 249.8375L763.71625 249.8375L763.71625 248.86874L767.6381 243.30624L768.4975 243.30624L768.4975 248.86874L769.65375 248.86874L769.65375 249.8375L768.4975 249.8375L768.4975 251.9L767.435 251.9ZM767.435 248.86874L767.435 245.00937L764.7475 248.86874L767.435 248.86874Z" fill-rule="nonzero"/><path fill="#93c47d" d="M733.56 266.9C733.56 266.34772 734.0077 265.9 734.56 265.9L744.56 265.9C745.1123 265.9 745.56 266.34772 745.56 266.9L745.56 276.9C745.56 277.45227 745.1123 277.9 744.56 277.9L734.56 277.9C734.0077 277.9 733.56 277.45227 733.56 276.9Z" fill-rule="nonzero"/><path fill="#1a1a1a" d="M755.685 271.24374Q755.02875 270.99374 754.7006 270.55624Q754.3881 270.10312 754.3881 269.49374Q754.3881 268.55624 755.06 267.91562Q755.7475 267.275 756.8569 267.275Q757.9819 267.275 758.6694 267.93124Q759.3569 268.5875 759.3569 269.525Q759.3569 270.11874 759.0444 270.55624Q758.7319 270.99374 758.09125 271.24374Q758.8881 271.49374 759.2944 272.07187Q759.7006 272.65 759.7006 273.44687Q759.7006 274.54062 758.9194 275.29062Q758.15375 276.04062 756.8725 276.04062Q755.6069 276.04062 754.8256 275.29062Q754.0444 274.54062 754.0444 273.41562Q754.0444 272.57187 754.46625 272.00937Q754.90375 271.44687 755.685 271.24374ZM755.46625 269.44687Q755.46625 270.05624 755.8569 270.44687Q756.2631 270.8375 756.8881 270.8375Q757.4975 270.8375 757.8881 270.4625Q758.27875 270.07187 758.27875 269.50937Q758.27875 268.93124 757.8725 268.54062Q757.46625 268.13437 756.8725 268.13437Q756.2631 268.13437 755.8569 268.525Q755.46625 268.91562 755.46625 269.44687ZM755.1381 273.41562Q755.1381 273.86874 755.34125 274.29062Q755.56 274.7125 755.9819 274.94687Q756.40375 275.18124 756.8881 275.18124Q757.6381 275.18124 758.1225 274.69687Q758.6225 274.2125 758.6225 273.4625Q758.6225 272.69687 758.1225 272.19687Q757.6225 271.69687 756.8569 271.69687Q756.1069 271.69687 755.6225 272.19687Q755.1381 272.68124 755.1381 273.41562ZM761.65375 275.9L761.65375 274.69687L762.8569 274.69687L762.8569 275.9L761.65375 275.9ZM764.06 271.66562Q764.06 270.13437 764.3725 269.2125Q764.685 268.275 765.2944 267.775Q765.9194 267.275 766.8569 267.275Q767.5444 267.275 768.06 267.55624Q768.59125 267.8375 768.935 268.36874Q769.27875 268.88437 769.46625 269.63437Q769.65375 270.38437 769.65375 271.66562Q769.65375 273.18124 769.34125 274.10312Q769.0444 275.025 768.4194 275.54062Q767.81 276.04062 766.8569 276.04062Q765.6225 276.04062 764.90375 275.15Q764.06 274.0875 764.06 271.66562ZM765.1381 271.66562Q765.1381 273.775 765.6381 274.47812Q766.1381 275.18124 766.8569 275.18124Q767.59125 275.18124 768.0756 274.47812Q768.5756 273.775 768.5756 271.66562Q768.5756 269.54062 768.0756 268.85312Q767.59125 268.15 766.84125 268.15Q766.1225 268.15 765.685 268.75937Q765.1381 269.54062 765.1381 271.66562Z" fill-rule="nonzero"/><path fill="#6aa84f" d="M733.56 290.9C733.56 290.34772 734.0077 289.9 734.56 289.9L744.56 289.9C745.1123 289.9 745.56 290.34772 745.56 290.9L745.56 300.9C745.56 301.45227 745.1123 301.9 744.56 301.9L734.56 301.9C734.0077 301.9 733.56 301.45227 733.56 300.9Z" fill-rule="nonzero"/><path fill="#1a1a1a" d="M755.685 295.24374Q755.02875 294.99374 754.7006 294.55624Q754.3881 294.10312 754.3881 293.49374Q754.3881 292.55624 755.06 291.91562Q755.7475 291.275 756.8569 291.275Q757.9819 291.275 758.6694 291.93124Q759.3569 292.5875 759.3569 293.525Q759.3569 294.11874 759.0444 294.55624Q758.7319 294.99374 758.09125 295.24374Q758.8881 295.49374 759.2944 296.07187Q759.7006 296.65 759.7006 297.44687Q759.7006 298.54062 758.9194 299.29062Q758.15375 300.04062 756.8725 300.04062Q755.6069 300.04062 754.8256 299.29062Q754.0444 298.54062 754.0444 297.41562Q754.0444 296.57187 754.46625 296.00937Q754.90375 295.44687 755.685 295.24374ZM755.46625 293.44687Q755.46625 294.05624 755.8569 294.44687Q756.2631 294.8375 756.8881 294.8375Q757.4975 294.8375 757.8881 294.4625Q758.27875 294.07187 758.27875 293.50937Q758.27875 292.93124 757.8725 292.54062Q757.46625 292.13437 756.8725 292.13437Q756.2631 292.13437 755.8569 292.525Q755.46625 292.91562 755.46625 293.44687ZM755.1381 297.41562Q755.1381 297.86874 755.34125 298.29062Q755.56 298.7125 755.9819 298.94687Q756.40375 299.18124 756.8881 299.18124Q757.6381 299.18124 758.1225 298.69687Q758.6225 298.2125 758.6225 297.4625Q758.6225 296.69687 758.1225 296.19687Q757.6225 295.69687 756.8569 295.69687Q756.1069 295.69687 755.6225 296.19687Q755.1381 296.68124 755.1381 297.41562ZM761.65375 299.9L761.65375 298.69687L762.8569 298.69687L762.8569 299.9L761.65375 299.9ZM768.02875 299.9L766.9819 299.9L766.9819 293.18124Q766.59125 293.54062 765.96625 293.91562Q765.3569 294.275 764.8725 294.44687L764.8725 293.43124Q765.7475 293.00937 766.40375 292.43124Q767.0756 291.8375 767.3569 291.275L768.02875 291.275L768.02875 299.9Z" fill-rule="nonzero"/><path fill="#38761d" d="M733.56 314.9C733.56 314.34772 734.0077 313.9 734.56 313.9L744.56 313.9C745.1123 313.9 745.56 314.34772 745.56 314.9L745.56 324.9C745.56 325.45227 745.1123 325.9 744.56 325.9L734.56 325.9C734.0077 325.9 733.56 325.45227 733.56 324.9Z" fill-rule="nonzero"/><path fill="#1a1a1a" d="M755.685 319.24374Q755.02875 318.99374 754.7006 318.55624Q754.3881 318.10312 754.3881 317.49374Q754.3881 316.55624 755.06 315.91562Q755.7475 315.275 756.8569 315.275Q757.9819 315.275 758.6694 315.93124Q759.3569 316.5875 759.3569 317.525Q759.3569 318.11874 759.0444 318.55624Q758.7319 318.99374 758.09125 319.24374Q758.8881 319.49374 759.2944 320.07187Q759.7006 320.65 759.7006 321.44687Q759.7006 322.54062 758.9194 323.29062Q758.15375 324.04062 756.8725 324.04062Q755.6069 324.04062 754.8256 323.29062Q754.0444 322.54062 754.0444 321.41562Q754.0444 320.57187 754.46625 320.00937Q754.90375 319.44687 755.685 319.24374ZM755.46625 317.44687Q755.46625 318.05624 755.8569 318.44687Q756.2631 318.8375 756.8881 318.8375Q757.4975 318.8375 757.8881 318.4625Q758.27875 318.07187 758.27875 317.50937Q758.27875 316.93124 757.8725 316.54062Q757.46625 316.13437 756.8725 316.13437Q756.2631 316.13437 755.8569 316.525Q755.46625 316.91562 755.46625 317.44687ZM755.1381 321.41562Q755.1381 321.86874 755.34125 322.29062Q755.56 322.7125 755.9819 322.94687Q756.40375 323.18124 756.8881 323.18124Q757.6381 323.18124 758.1225 322.69687Q758.6225 322.2125 758.6225 321.4625Q758.6225 320.69687 758.1225 320.19687Q757.6225 319.69687 756.8569 319.69687Q756.1069 319.69687 755.6225 320.19687Q755.1381 320.68124 755.1381 321.41562ZM761.65375 323.9L761.65375 322.69687L762.8569 322.69687L762.8569 323.9L761.65375 323.9ZM769.6069 322.88437L769.6069 323.9L763.9194 323.9Q763.9194 323.525 764.0444 323.16562Q764.2631 322.5875 764.7319 322.025Q765.21625 321.4625 766.1225 320.72812Q767.52875 319.57187 768.0131 318.9Q768.5131 318.22812 768.5131 317.63437Q768.5131 317.00937 768.06 316.5875Q767.6069 316.15 766.8881 316.15Q766.1225 316.15 765.6694 316.60312Q765.21625 317.05624 765.2006 317.86874L764.1225 317.75937Q764.2319 316.54062 764.9506 315.91562Q765.685 315.275 766.9194 315.275Q768.15375 315.275 768.8725 315.9625Q769.59125 316.65 769.59125 317.66562Q769.59125 318.18124 769.3725 318.68124Q769.1694 319.16562 768.6694 319.72812Q768.185 320.275 767.06 321.22812Q766.1069 322.025 765.8256 322.32187Q765.56 322.60312 765.3881 322.88437L769.6069 322.88437Z" fill-rule="nonzero"/></svg>