<svg version="1.1" viewBox="0.0 0.0 746.0 461.0" fill="none" stroke="none" stroke-linecap="square" stroke-miterlimit="10" width="746" height="461" xmlns:xlink="http://www.w3.org/1999/xlink" xmlns="http://www.w3.org/2000/svg"><path fill="#ffffff" d="M0 0L746.0 0L746.0 461.0L0 461.0L0 0Z" fill-rule="nonzero"/><path stroke="#333333" stroke-width="1.0" stroke-linecap="butt" d="M61.5 417.5L652.5 417.5" fill-rule="nonzero"/><path stroke="#cccccc" stroke-width="1.0" stroke-linecap="butt" d="M61.5 320.5L652.5 320.5" fill-rule="nonzero"/><path stroke="#cccccc" stroke-width="1.0" stroke-linecap="butt" d="M61.5 224.5L652.5 224.5" fill-rule="nonzero"/><path stroke="#cccccc" stroke-width="1.0" stroke-linecap="butt" d="M61.5 127.5L652.5 127.5" fill-rule="nonzero"/><path stroke="#cccccc" stroke-width="1.0" stroke-linecap="butt" d="M61.5 30.5L652.5 30.5" fill-rule="nonzero"/><clipPath id="id_0"><path d="M61.05 30.05L652.96 30.05L652.96 417.95L61.05 417.95L61.05 30.05Z" clip-rule="nonzero"/></clipPath><path stroke="#000000" stroke-width="2.0" stroke-linecap="butt" stroke-opacity="0.0" clip-path="url(#id_0)" d="M197.0 418.0L109.0 418.0L109.0 418.0L197.0 418.0Z" fill-rule="nonzero"/><path fill="#38761d" clip-path="url(#id_0)" d="M197.0 418.0L109.0 418.0L109.0 418.0L197.0 418.0Z" fill-rule="nonzero"/><path stroke="#000000" stroke-width="2.0" stroke-linecap="butt" stroke-opacity="0.0" clip-path="url(#id_0)" d="M333.0 418.0L245.0 418.0L245.0 417.0L333.0 417.0Z" fill-rule="nonzero"/><path fill="#38761d" clip-path="url(#id_0)" d="M333.0 418.0L245.0 418.0L245.0 417.0L333.0 417.0Z" fill-rule="nonzero"/><path stroke="#000000" stroke-width="2.0" stroke-linecap="butt" stroke-opacity="0.0" clip-path="url(#id_0)" d="M469.0 418.0L381.0 418.0L381.0 392.0L469.0 392.0Z" fill-rule="nonzero"/><path fill="#38761d" clip-path="url(#id_0)" d="M469.0 418.0L381.0 418.0L381.0 392.0L469.0 392.0Z" fill-rule="nonzero"/><path stroke="#000000" stroke-width="2.0" stroke-linecap="butt" stroke-opacity="0.0" clip-path="url(#id_0)" d="M605.0 418.0L517.0 418.0L517.0 339.0L605.0 339.0Z" fill-rule="nonzero"/><path fill="#38761d" clip-path="url(#id_0)" d="M605.0 418.0L517.0 418.0L517.0 339.0L605.0 339.0Z" fill-rule="nonzero"/><path stroke="#000000" stroke-width="2.0" stroke-linecap="butt" stroke-opacity="0.0" clip-path="url(#id_0)" d="M197.0 418.0L109.0 418.0L109.0 399.0L197.0 399.0Z" fill-rule="nonzero"/><path fill="#6aa84f" clip-path="url(#id_0)" d="M197.0 418.0L109.0 418.0L109.0 399.0L197.0 399.0Z" fill-rule="nonzero"/><path stroke="#000000" stroke-width="2.0" stroke-linecap="butt" stroke-opacity="0.0" clip-path="url(#id_0)" d="M333.0 417.0L245.0 417.0L245.0 349.0L333.0 349.0Z" fill-rule="nonzero"/><path fill="#6aa84f" clip-path="url(#id_0)" d="M333.0 417.0L245.0 417.0L245.0 349.0L333.0 349.0Z" fill-rule="nonzero"/><path stroke="#000000" stroke-width="2.0" stroke-linecap="butt" stroke-opacity="0.0" clip-path="url(#id_0)" d="M469.0 392.0L381.0 392.0L381.0 276.0L469.0 276.0Z" fill-rule="nonzero"/><path fill="#6aa84f" clip-path="url(#id_0)" d="M469.0 392.0L381.0 392.0L381.0 276.0L469.0 276.0Z" fill-rule="nonzero"/><path stroke="#000000" stroke-width="2.0" stroke-linecap="butt" stroke-opacity="0.0" clip-path="url(#id_0)" d="M605.0 339.0L517.0 339.0L517.0 211.0L605.0 211.0Z" fill-rule="nonzero"/><path fill="#6aa84f" clip-path="url(#id_0)" d="M605.0 339.0L517.0 339.0L517.0 211.0L605.0 211.0Z" fill-rule="nonzero"/><path stroke="#000000" stroke-width="2.0" stroke-linecap="butt" stroke-opacity="0.0" clip-path="url(#id_0)" d="M197.0 399.0L109.0 399.0L109.0 244.0L197.0 244.0Z" fill-rule="nonzero"/><path fill="#93c47d" clip-path="url(#id_0)" d="M197.0 399.0L109.0 399.0L109.0 244.0L197.0 244.0Z" fill-rule="nonzero"/><path stroke="#000000" stroke-width="2.0" stroke-linecap="butt" stroke-opacity="0.0" clip-path="url(#id_0)" d="M333.0 349.0L245.0 349.0L245.0 192.0L333.0 192.0Z" fill-rule="nonzero"/><path fill="#93c47d" clip-path="url(#id_0)" d="M333.0 349.0L245.0 349.0L245.0 192.0L333.0 192.0Z" fill-rule="nonzero"/><path stroke="#000000" stroke-width="2.0" stroke-linecap="butt" stroke-opacity="0.0" clip-path="url(#id_0)" d="M469.0 276.0L381.0 276.0L381.0 135.0L469.0 135.0Z" fill-rule="nonzero"/><path fill="#93c47d" clip-path="url(#id_0)" d="M469.0 276.0L381.0 276.0L381.0 135.0L469.0 135.0Z" fill-rule="nonzero"/><path stroke="#000000" stroke-width="2.0" stroke-linecap="butt" stroke-opacity="0.0" clip-path="url(#id_0)" d="M605.0 211.0L517.0 211.0L517.0 108.0L605.0 108.0Z" fill-rule="nonzero"/><path fill="#93c47d" clip-path="url(#id_0)" d="M605.0 211.0L517.0 211.0L517.0 108.0L605.0 108.0Z" fill-rule="nonzero"/><path stroke="#000000" stroke-width="2.0" stroke-linecap="butt" stroke-opacity="0.0" clip-path="url(#id_0)" d="M197.0 244.0L109.0 244.0L109.0 179.0L197.0 179.0Z" fill-rule="nonzero"/><path fill="#b6d7a8" clip-path="url(#id_0)" d="M197.0 244.0L109.0 244.0L109.0 179.0L197.0 179.0Z" fill-rule="nonzero"/><path stroke="#000000" stroke-width="2.0" stroke-linecap="butt" stroke-opacity="0.0" clip-path="url(#id_0)" d="M333.0 192.0L245.0 192.0L245.0 143.0L333.0 143.0Z" fill-rule="nonzero"/><path fill="#b6d7a8" clip-path="url(#id_0)" d="M333.0 192.0L245.0 192.0L245.0 143.0L333.0 143.0Z" fill-rule="nonzero"/><path stroke="#000000" stroke-width="2.0" stroke-linecap="butt" stroke-opacity="0.0" clip-path="url(#id_0)" d="M469.0 135.0L381.0 135.0L381.0 107.0L469.0 107.0Z" fill-rule="nonzero"/><path fill="#b6d7a8" clip-path="url(#id_0)" d="M469.0 135.0L381.0 135.0L381.0 107.0L469.0 107.0Z" fill-rule="nonzero"/><path stroke="#000000" stroke-width="2.0" stroke-linecap="butt" stroke-opacity="0.0" clip-path="url(#id_0)" d="M605.0 108.0L517.0 108.0L517.0 87.0L605.0 87.0Z" fill-rule="nonzero"/><path fill="#b6d7a8" clip-path="url(#id_0)" d="M605.0 108.0L517.0 108.0L517.0 87.0L605.0 87.0Z" fill-rule="nonzero"/><path stroke="#000000" stroke-width="2.0" stroke-linecap="butt" stroke-opacity="0.0" clip-path="url(#id_0)" d="M197.0 179.0L109.0 179.0L109.0 68.0L197.0 68.0Z" fill-rule="nonzero"/><path fill="#3d85c6" clip-path="url(#id_0)" d="M197.0 179.0L109.0 179.0L109.0 68.0L197.0 68.0Z" fill-rule="nonzero"/><path stroke="#000000" stroke-width="2.0" stroke-linecap="butt" stroke-opacity="0.0" clip-path="url(#id_0)" d="M333.0 143.0L245.0 143.0L245.0 64.0L333.0 64.0Z" fill-rule="nonzero"/><path fill="#3d85c6" clip-path="url(#id_0)" d="M333.0 143.0L245.0 143.0L245.0 64.0L333.0 64.0Z" fill-rule="nonzero"/><path stroke="#000000" stroke-width="2.0" stroke-linecap="butt" stroke-opacity="0.0" clip-path="url(#id_0)" d="M469.0 107.0L381.0 107.0L381.0 53.0L469.0 53.0Z" fill-rule="nonzero"/><path fill="#3d85c6" clip-path="url(#id_0)" d="M469.0 107.0L381.0 107.0L381.0 53.0L469.0 53.0Z" fill-rule="nonzero"/><path stroke="#000000" stroke-width="2.0" stroke-linecap="butt" stroke-opacity="0.0" clip-path="url(#id_0)" d="M605.0 87.0L517.0 87.0L517.0 46.0L605.0 46.0Z" fill-rule="nonzero"/><path fill="#3d85c6" clip-path="url(#id_0)" d="M605.0 87.0L517.0 87.0L517.0 46.0L605.0 46.0Z" fill-rule="nonzero"/><path stroke="#000000" stroke-width="2.0" stroke-linecap="butt" stroke-opacity="0.0" clip-path="url(#id_0)" d="M197.0 68.0L109.0 68.0L109.0 47.0L197.0 47.0Z" fill-rule="nonzero"/><path fill="#6fa8dc" clip-path="url(#id_0)" d="M197.0 68.0L109.0 68.0L109.0 47.0L197.0 47.0Z" fill-rule="nonzero"/><path stroke="#000000" stroke-width="2.0" stroke-linecap="butt" stroke-opacity="0.0" clip-path="url(#id_0)" d="M333.0 64.0L245.0 64.0L245.0 47.0L333.0 47.0Z" fill-rule="nonzero"/><path fill="#6fa8dc" clip-path="url(#id_0)" d="M333.0 64.0L245.0 64.0L245.0 47.0L333.0 47.0Z" fill-rule="nonzero"/><path stroke="#000000" stroke-width="2.0" stroke-linecap="butt" stroke-opacity="0.0" clip-path="url(#id_0)" d="M469.0 53.0L381.0 53.0L381.0 40.0L469.0 40.0Z" fill-rule="nonzero"/><path fill="#6fa8dc" clip-path="url(#id_0)" d="M469.0 53.0L381.0 53.0L381.0 40.0L469.0 40.0Z" fill-rule="nonzero"/><path stroke="#000000" stroke-width="2.0" stroke-linecap="butt" stroke-opacity="0.0" clip-path="url(#id_0)" d="M605.0 46.0L517.0 46.0L517.0 39.0L605.0 39.0Z" fill-rule="nonzero"/><path fill="#6fa8dc" clip-path="url(#id_0)" d="M605.0 46.0L517.0 46.0L517.0 39.0L605.0 39.0Z" fill-rule="nonzero"/><path stroke="#000000" stroke-width="2.0" stroke-linecap="butt" stroke-opacity="0.0" clip-path="url(#id_0)" d="M197.0 47.0L109.0 47.0L109.0 32.0C109.0 30.89543 109.89543 30.0 111.0 30.0L195.0 30.0C196.10457 30.0 197.0 30.89543 197.0 32.0Z" fill-rule="nonzero"/><path fill="#9fc5e8" clip-path="url(#id_0)" d="M197.0 47.0L109.0 47.0L109.0 32.0C109.0 30.89543 109.89543 30.0 111.0 30.0L195.0 30.0C196.10457 30.0 197.0 30.89543 197.0 32.0Z" fill-rule="nonzero"/><path stroke="#000000" stroke-width="2.0" stroke-linecap="butt" stroke-opacity="0.0" clip-path="url(#id_0)" d="M333.0 47.0L245.0 47.0L245.0 32.0C245.0 30.89543 245.89543 30.0 247.0 30.0L331.0 30.0C332.10458 30.0 333.0 30.89543 333.0 32.0Z" fill-rule="nonzero"/><path fill="#9fc5e8" clip-path="url(#id_0)" d="M333.0 47.0L245.0 47.0L245.0 32.0C245.0 30.89543 245.89543 30.0 247.0 30.0L331.0 30.0C332.10458 30.0 333.0 30.89543 333.0 32.0Z" fill-rule="nonzero"/><path stroke="#000000" stroke-width="2.0" stroke-linecap="butt" stroke-opacity="0.0" clip-path="url(#id_0)" d="M469.0 40.0L381.0 40.0L381.0 32.0C381.0 30.89543 381.89542 30.0 383.0 30.0L467.0 30.0C468.10458 30.0 469.0 30.89543 469.0 32.0Z" fill-rule="nonzero"/><path fill="#9fc5e8" clip-path="url(#id_0)" d="M469.0 40.0L381.0 40.0L381.0 32.0C381.0 30.89543 381.89542 30.0 383.0 30.0L467.0 30.0C468.10458 30.0 469.0 30.89543 469.0 32.0Z" fill-rule="nonzero"/><path stroke="#000000" stroke-width="2.0" stroke-linecap="butt" stroke-opacity="0.0" clip-path="url(#id_0)" d="M605.0 39.0L517.0 39.0L517.0 32.0C517.0 30.89543 517.89545 30.0 519.0 30.0L603.0 30.0C604.10455 30.0 605.0 30.89543 605.0 32.0Z" fill-rule="nonzero"/><path fill="#9fc5e8" clip-path="url(#id_0)" d="M605.0 39.0L517.0 39.0L517.0 32.0C517.0 30.89543 517.89545 30.0 519.0 30.0L603.0 30.0C604.10455 30.0 605.0 30.89543 605.0 32.0Z" fill-rule="nonzero"/><path fill="#000000" d="M37.55 417.71564Q37.55 416.1844 37.8625 415.2625Q38.175 414.325 38.784374 413.825Q39.409374 413.325 40.346874 413.325Q41.034374 413.325 41.55 413.60626Q42.08125 413.8875 42.425 414.41876Q42.76875 414.9344 42.95625 415.6844Q43.14375 416.4344 43.14375 417.71564Q43.14375 419.23126 42.83125 420.15314Q42.534374 421.075 41.909374 421.59064Q41.3 422.09064 40.346874 422.09064Q39.1125 422.09064 38.39375 421.2Q37.55 420.1375 37.55 417.71564ZM38.628124 417.71564Q38.628124 419.825 39.128124 420.52814Q39.628124 421.23126 40.346874 421.23126Q41.08125 421.23126 41.565624 420.52814Q42.065624 419.825 42.065624 417.71564Q42.065624 415.59064 41.565624 414.90314Q41.08125 414.2 40.33125 414.2Q39.6125 414.2 39.175 414.8094Q38.628124 415.59064 38.628124 417.71564ZM44.753124 415.41876Q44.753124 414.4969 45.20625 413.85626Q45.675 413.21564 46.55 413.21564Q47.3625 413.21564 47.89375 413.79376Q48.425 414.3719 48.425 415.48126Q48.425 416.575 47.878124 417.16876Q47.346874 417.7469 46.565624 417.7469Q45.784374 417.7469 45.26875 417.16876Q44.753124 416.59064 44.753124 415.41876ZM46.58125 413.9344Q46.190624 413.9344 45.925 414.27814Q45.675 414.6219 45.675 415.52814Q45.675 416.35626 45.925 416.7Q46.190624 417.02814 46.58125 417.02814Q46.9875 417.02814 47.2375 416.6844Q47.503124 416.34064 47.503124 415.45Q47.503124 414.60626 47.2375 414.27814Q46.971874 413.9344 46.58125 413.9344ZM46.58125 422.2625L51.284374 413.21564L52.14375 413.21564L47.45625 422.2625L46.58125 422.2625ZM50.3 419.9344Q50.3 419.0125 50.753124 418.3719Q51.221874 417.73126 52.1125 417.73126Q52.925 417.73126 53.45625 418.3094Q53.9875 418.8719 53.9875 419.9969Q53.9875 421.09064 53.440624 421.6844Q52.909374 422.2625 52.1125 422.2625Q51.346874 422.2625 50.815624 421.6844Q50.3 421.10626 50.3 419.9344ZM52.14375 418.45Q51.7375 418.45 51.471874 418.79376Q51.221874 419.1375 51.221874 420.04376Q51.221874 420.85626 51.4875 421.2Q51.753124 421.54376 52.14375 421.54376Q52.534374 421.54376 52.8 421.2Q53.065624 420.85626 53.065624 419.95Q53.065624 419.1219 52.8 418.79376Q52.534374 418.45 52.14375 418.45Z" fill-rule="nonzero"/><path fill="#000000" d="M36.096874 323.95938L36.096874 324.975L30.409374 324.975Q30.409374 324.6 30.534374 324.24063Q30.753124 323.6625 31.221874 323.1Q31.70625 322.5375 32.6125 321.80313Q34.01875 320.64688 34.503124 319.975Q35.003124 319.30313 35.003124 318.70938Q35.003124 318.08438 34.55 317.6625Q34.096874 317.225 33.378124 317.225Q32.6125 317.225 32.159374 317.67813Q31.70625 318.13126 31.690624 318.94376L30.6125 318.83438Q30.721874 317.61563 31.440624 316.99063Q32.175 316.35 33.409374 316.35Q34.64375 316.35 35.3625 317.0375Q36.08125 317.725 36.08125 318.74063Q36.08125 319.25626 35.8625 319.75626Q35.659374 320.24063 35.159374 320.80313Q34.675 321.35 33.55 322.30313Q32.596874 323.1 32.315624 323.39688Q32.05 323.67813 31.878124 323.95938L36.096874 323.95938ZM37.55 322.725L38.659374 322.63126Q38.784374 323.44376 39.221874 323.85Q39.675 324.25626 40.315624 324.25626Q41.065624 324.25626 41.596874 323.67813Q42.128124 323.1 42.128124 322.1625Q42.128124 321.25626 41.6125 320.74063Q41.1125 320.20938 40.284374 320.20938Q39.784374 320.20938 39.3625 320.44376Q38.95625 320.67813 38.721874 321.0375L37.7375 320.9125L38.565624 316.50626L42.846874 316.50626L42.846874 317.50626L39.409374 317.50626L38.95625 319.81876Q39.721874 319.27188 40.565624 319.27188Q41.690624 319.27188 42.45625 320.05313Q43.2375 320.83438 43.2375 322.06876Q43.2375 323.225 42.565624 324.08438Q41.7375 325.11563 40.315624 325.11563Q39.14375 325.11563 38.39375 324.45938Q37.659374 323.80313 37.55 322.725ZM44.753124 318.44376Q44.753124 317.52188 45.20625 316.88126Q45.675 316.24063 46.55 316.24063Q47.3625 316.24063 47.89375 316.81876Q48.425 317.39688 48.425 318.50626Q48.425 319.6 47.878124 320.19376Q47.346874 320.77188 46.565624 320.77188Q45.784374 320.77188 45.26875 320.19376Q44.753124 319.61563 44.753124 318.44376ZM46.58125 316.95938Q46.190624 316.95938 45.925 317.30313Q45.675 317.64688 45.675 318.55313Q45.675 319.38126 45.925 319.725Q46.190624 320.05313 46.58125 320.05313Q46.9875 320.05313 47.2375 319.70938Q47.503124 319.36563 47.503124 318.475Q47.503124 317.63126 47.2375 317.30313Q46.971874 316.95938 46.58125 316.95938ZM46.58125 325.2875L51.284374 316.24063L52.14375 316.24063L47.45625 325.2875L46.58125 325.2875ZM50.3 322.95938Q50.3 322.0375 50.753124 321.39688Q51.221874 320.75626 52.1125 320.75626Q52.925 320.75626 53.45625 321.33438Q53.9875 321.89688 53.9875 323.02188Q53.9875 324.11563 53.440624 324.70938Q52.909374 325.2875 52.1125 325.2875Q51.346874 325.2875 50.815624 324.70938Q50.3 324.13126 50.3 322.95938ZM52.14375 321.475Q51.7375 321.475 51.471874 321.81876Q51.221874 322.1625 51.221874 323.06876Q51.221874 323.88126 51.4875 324.225Q51.753124 324.56876 52.14375 324.56876Q52.534374 324.56876 52.8 324.225Q53.065624 323.88126 53.065624 322.975Q53.065624 322.14688 52.8 321.81876Q52.534374 321.475 52.14375 321.475Z" fill-rule="nonzero"/><path fill="#000000" d="M30.55 225.75L31.659374 225.65625Q31.784374 226.46875 32.221874 226.875Q32.675 227.28125 33.315624 227.28125Q34.065624 227.28125 34.596874 226.70312Q35.128124 226.125 35.128124 225.1875Q35.128124 224.28125 34.6125 223.76562Q34.1125 223.23438 33.284374 223.23438Q32.784374 223.23438 32.3625 223.46875Q31.95625 223.70312 31.721874 224.0625L30.7375 223.9375L31.565624 219.53125L35.846874 219.53125L35.846874 220.53125L32.409374 220.53125L31.95625 222.84375Q32.721874 222.29688 33.565624 222.29688Q34.690624 222.29688 35.45625 223.07812Q36.2375 223.85938 36.2375 225.09375Q36.2375 226.25 35.565624 227.10938Q34.7375 228.14062 33.315624 228.14062Q32.14375 228.14062 31.39375 227.48438Q30.659374 226.82812 30.55 225.75ZM37.55 223.76562Q37.55 222.23438 37.8625 221.3125Q38.175 220.375 38.784374 219.875Q39.409374 219.375 40.346874 219.375Q41.034374 219.375 41.55 219.65625Q42.08125 219.9375 42.425 220.46875Q42.76875 220.98438 42.95625 221.73438Q43.14375 222.48438 43.14375 223.76562Q43.14375 225.28125 42.83125 226.20312Q42.534374 227.125 41.909374 227.64062Q41.3 228.14062 40.346874 228.14062Q39.1125 228.14062 38.39375 227.25Q37.55 226.1875 37.55 223.76562ZM38.628124 223.76562Q38.628124 225.875 39.128124 226.57812Q39.628124 227.28125 40.346874 227.28125Q41.08125 227.28125 41.565624 226.57812Q42.065624 225.875 42.065624 223.76562Q42.065624 221.64062 41.565624 220.95312Q41.08125 220.25 40.33125 220.25Q39.6125 220.25 39.175 220.85938Q38.628124 221.64062 38.628124 223.76562ZM44.753124 221.46875Q44.753124 220.54688 45.20625 219.90625Q45.675 219.26562 46.55 219.26562Q47.3625 219.26562 47.89375 219.84375Q48.425 220.42188 48.425 221.53125Q48.425 222.625 47.878124 223.21875Q47.346874 223.79688 46.565624 223.79688Q45.784374 223.79688 45.26875 223.21875Q44.753124 222.64062 44.753124 221.46875ZM46.58125 219.98438Q46.190624 219.98438 45.925 220.32812Q45.675 220.67188 45.675 221.57812Q45.675 222.40625 45.925 222.75Q46.190624 223.07812 46.58125 223.07812Q46.9875 223.07812 47.2375 222.73438Q47.503124 222.39062 47.503124 221.5Q47.503124 220.65625 47.2375 220.32812Q46.971874 219.98438 46.58125 219.98438ZM46.58125 228.3125L51.284374 219.26562L52.14375 219.26562L47.45625 228.3125L46.58125 228.3125ZM50.3 225.98438Q50.3 225.0625 50.753124 224.42188Q51.221874 223.78125 52.1125 223.78125Q52.925 223.78125 53.45625 224.35938Q53.9875 224.92188 53.9875 226.04688Q53.9875 227.14062 53.440624 227.73438Q52.909374 228.3125 52.1125 228.3125Q51.346874 228.3125 50.815624 227.73438Q50.3 227.15625 50.3 225.98438ZM52.14375 224.5Q51.7375 224.5 51.471874 224.84375Q51.221874 225.1875 51.221874 226.09375Q51.221874 226.90625 51.4875 227.25Q51.753124 227.59375 52.14375 227.59375Q52.534374 227.59375 52.8 227.25Q53.065624 226.90625 53.065624 226.0Q53.065624 225.17188 52.8 224.84375Q52.534374 224.5 52.14375 224.5Z" fill-rule="nonzero"/><path fill="#000000" d="M30.6125 123.556244L30.6125 122.54062L36.175 122.54062L36.175 123.368744Q35.3625 124.243744 34.55 125.69687Q33.753124 127.13437 33.315624 128.66562Q32.9875 129.74374 32.909374 131.025L31.815624 131.025Q31.83125 130.00937 32.20625 128.57187Q32.596874 127.13437 33.3 125.806244Q34.01875 124.47812 34.83125 123.556244L30.6125 123.556244ZM37.55 128.775L38.659374 128.68124Q38.784374 129.49374 39.221874 129.9Q39.675 130.30624 40.315624 130.30624Q41.065624 130.30624 41.596874 129.72812Q42.128124 129.15 42.128124 128.2125Q42.128124 127.306244 41.6125 126.79062Q41.1125 126.25937 40.284374 126.25937Q39.784374 126.25937 39.3625 126.493744Q38.95625 126.72812 38.721874 127.087494L37.7375 126.962494L38.565624 122.556244L42.846874 122.556244L42.846874 123.556244L39.409374 123.556244L38.95625 125.868744Q39.721874 125.32187 40.565624 125.32187Q41.690624 125.32187 42.45625 126.10312Q43.2375 126.88437 43.2375 128.11874Q43.2375 129.275 42.565624 130.13437Q41.7375 131.16562 40.315624 131.16562Q39.14375 131.16562 38.39375 130.50937Q37.659374 129.85312 37.55 128.775ZM44.753124 124.493744Q44.753124 123.57187 45.20625 122.931244Q45.675 122.29062 46.55 122.29062Q47.3625 122.29062 47.89375 122.868744Q48.425 123.44687 48.425 124.556244Q48.425 125.649994 47.878124 126.243744Q47.346874 126.82187 46.565624 126.82187Q45.784374 126.82187 45.26875 126.243744Q44.753124 125.66562 44.753124 124.493744ZM46.58125 123.00937Q46.190624 123.00937 45.925 123.35312Q45.675 123.69687 45.675 124.60312Q45.675 125.431244 45.925 125.774994Q46.190624 126.10312 46.58125 126.10312Q46.9875 126.10312 47.2375 125.75937Q47.503124 125.41562 47.503124 124.524994Q47.503124 123.681244 47.2375 123.35312Q46.971874 123.00937 46.58125 123.00937ZM46.58125 131.3375L51.284374 122.29062L52.14375 122.29062L47.45625 131.3375L46.58125 131.3375ZM50.3 129.00937Q50.3 128.0875 50.753124 127.44687Q51.221874 126.806244 52.1125 126.806244Q52.925 126.806244 53.45625 127.38437Q53.9875 127.94687 53.9875 129.07187Q53.9875 130.16562 53.440624 130.75937Q52.909374 131.3375 52.1125 131.3375Q51.346874 131.3375 50.815624 130.75937Q50.3 130.18124 50.3 129.00937ZM52.14375 127.524994Q51.7375 127.524994 51.471874 127.868744Q51.221874 128.2125 51.221874 129.11874Q51.221874 129.93124 51.4875 130.275Q51.753124 130.61874 52.14375 130.61874Q52.534374 130.61874 52.8 130.275Q53.065624 129.93124 53.065624 129.025Q53.065624 128.19687 52.8 127.868744Q52.534374 127.524994 52.14375 127.524994Z" fill-rule="nonzero"/><path fill="#000000" d="M27.51875 34.05L26.471874 34.05L26.471874 27.33125Q26.08125 27.690624 25.45625 28.065624Q24.846874 28.425 24.3625 28.596874L24.3625 27.58125Q25.2375 27.159374 25.89375 26.58125Q26.565624 25.9875 26.846874 25.425L27.51875 25.425L27.51875 34.05ZM30.55 29.815624Q30.55 28.284374 30.8625 27.3625Q31.175 26.425 31.784374 25.925Q32.409374 25.425 33.346874 25.425Q34.034374 25.425 34.55 25.70625Q35.08125 25.9875 35.425 26.51875Q35.76875 27.034374 35.95625 27.784374Q36.14375 28.534374 36.14375 29.815624Q36.14375 31.33125 35.83125 32.253124Q35.534374 33.175 34.909374 33.690624Q34.3 34.190624 33.346874 34.190624Q32.1125 34.190624 31.39375 33.3Q30.55 32.2375 30.55 29.815624ZM31.628124 29.815624Q31.628124 31.925 32.128124 32.628124Q32.628124 33.33125 33.346874 33.33125Q34.08125 33.33125 34.565624 32.628124Q35.065624 31.925 35.065624 29.815624Q35.065624 27.690624 34.565624 27.003124Q34.08125 26.3 33.33125 26.3Q32.6125 26.3 32.175 26.909374Q31.628124 27.690624 31.628124 29.815624ZM37.55 29.815624Q37.55 28.284374 37.8625 27.3625Q38.175 26.425 38.784374 25.925Q39.409374 25.425 40.346874 25.425Q41.034374 25.425 41.55 25.70625Q42.08125 25.9875 42.425 26.51875Q42.76875 27.034374 42.95625 27.784374Q43.14375 28.534374 43.14375 29.815624Q43.14375 31.33125 42.83125 32.253124Q42.534374 33.175 41.909374 33.690624Q41.3 34.190624 40.346874 34.190624Q39.1125 34.190624 38.39375 33.3Q37.55 32.2375 37.55 29.815624ZM38.628124 29.815624Q38.628124 31.925 39.128124 32.628124Q39.628124 33.33125 40.346874 33.33125Q41.08125 33.33125 41.565624 32.628124Q42.065624 31.925 42.065624 29.815624Q42.065624 27.690624 41.565624 27.003124Q41.08125 26.3 40.33125 26.3Q39.6125 26.3 39.175 26.909374Q38.628124 27.690624 38.628124 29.815624ZM44.753124 27.51875Q44.753124 26.596874 45.20625 25.95625Q45.675 25.315624 46.55 25.315624Q47.3625 25.315624 47.89375 25.89375Q48.425 26.471874 48.425 27.58125Q48.425 28.675 47.878124 29.26875Q47.346874 29.846874 46.565624 29.846874Q45.784374 29.846874 45.26875 29.26875Q44.753124 28.690624 44.753124 27.51875ZM46.58125 26.034374Q46.190624 26.034374 45.925 26.378124Q45.675 26.721874 45.675 27.628124Q45.675 28.45625 45.925 28.8Q46.190624 29.128124 46.58125 29.128124Q46.9875 29.128124 47.2375 28.784374Q47.503124 28.440624 47.503124 27.55Q47.503124 26.70625 47.2375 26.378124Q46.971874 26.034374 46.58125 26.034374ZM46.58125 34.3625L51.284374 25.315624L52.14375 25.315624L47.45625 34.3625L46.58125 34.3625ZM50.3 32.034374Q50.3 31.1125 50.753124 30.471874Q51.221874 29.83125 52.1125 29.83125Q52.925 29.83125 53.45625 30.409374Q53.9875 30.971874 53.9875 32.096874Q53.9875 33.190624 53.440624 33.784374Q52.909374 34.3625 52.1125 34.3625Q51.346874 34.3625 50.815624 33.784374Q50.3 33.20625 50.3 32.034374ZM52.14375 30.55Q51.7375 30.55 51.471874 30.89375Q51.221874 31.2375 51.221874 32.14375Q51.221874 32.95625 51.4875 33.3Q51.753124 33.64375 52.14375 33.64375Q52.534374 33.64375 52.8 33.3Q53.065624 32.95625 53.065624 32.05Q53.065624 31.221874 52.8 30.89375Q52.534374 30.55 52.14375 30.55Z" fill-rule="nonzero"/><path fill="#000000" d="M114.74185 432.5125L115.7731 432.3719Q115.80435 433.35626 116.13248 433.71564Q116.4606 434.075 117.05435 434.075Q117.47623 434.075 117.78873 433.8875Q118.10123 433.6844 118.2106 433.35626Q118.3356 433.0125 118.3356 432.27814L118.3356 426.35626L119.4606 426.35626L119.4606 432.21564Q119.4606 433.29376 119.19498 433.8875Q118.94498 434.48126 118.38248 434.79376Q117.81998 435.09064 117.05435 435.09064Q115.92935 435.09064 115.31998 434.45Q114.72623 433.79376 114.74185 432.5125ZM125.25748 434.1844Q124.66373 434.6844 124.11685 434.8875Q123.5856 435.09064 122.9606 435.09064Q121.92935 435.09064 121.38248 434.59064Q120.8356 434.09064 120.8356 433.3094Q120.8356 432.85626 121.03873 432.48126Q121.24185 432.09064 121.5856 431.8719Q121.92935 431.6375 122.35123 431.52814Q122.6481 431.4344 123.28873 431.35626Q124.55435 431.21564 125.16373 430.9969Q125.16373 430.77814 125.16373 430.73126Q125.16373 430.075 124.86685 429.8094Q124.4606 429.46564 123.66373 429.46564Q122.92935 429.46564 122.56998 429.73126Q122.2106 429.98126 122.03873 430.6375L121.00748 430.4969Q121.1481 429.84064 121.47623 429.4344Q121.80435 429.02814 122.41373 428.8094Q123.0231 428.59064 123.81998 428.59064Q124.61685 428.59064 125.11685 428.77814Q125.61685 428.96564 125.85123 429.2469Q126.0856 429.52814 126.17935 429.96564Q126.22623 430.23126 126.22623 430.9344L126.22623 432.34064Q126.22623 433.8094 126.28873 434.2Q126.36685 434.59064 126.56998 434.95L125.4606 434.95Q125.30435 434.6219 125.25748 434.1844ZM125.16373 431.825Q124.5856 432.0594 123.44498 432.23126Q122.78873 432.325 122.5231 432.45Q122.25748 432.5594 122.10123 432.77814Q121.9606 432.9969 121.9606 433.27814Q121.9606 433.7 122.2731 433.98126Q122.60123 434.2625 123.2106 434.2625Q123.81998 434.2625 124.28873 433.9969Q124.7731 433.73126 124.99185 433.2625Q125.16373 432.90314 125.16373 432.21564L125.16373 431.825ZM128.19498 434.95L128.19498 428.73126L129.13248 428.73126L129.13248 429.60626Q129.81998 428.59064 131.11685 428.59064Q131.67935 428.59064 132.1481 428.79376Q132.63248 428.9969 132.86685 429.325Q133.10123 429.65314 133.19498 430.09064Q133.24185 430.3875 133.24185 431.1219L133.24185 434.95L132.19498 434.95L132.19498 431.16876Q132.19498 430.5125 132.06998 430.2Q131.94498 429.8875 131.63248 429.7Q131.31998 429.4969 130.8981 429.4969Q130.22623 429.4969 129.72623 429.9344Q129.24185 430.35626 129.24185 431.54376L129.24185 434.95L128.19498 434.95ZM139.2731 434.95L139.2731 434.02814Q138.53873 435.09064 137.28873 435.09064Q136.74185 435.09064 136.25748 434.8875Q135.78873 434.66876 135.55435 434.35626Q135.31998 434.02814 135.22623 433.5594Q135.16373 433.2625 135.16373 432.575L135.16373 428.73126L136.22623 428.73126L136.22623 432.1844Q136.22623 432.9969 136.28873 433.29376Q136.38248 433.7 136.69498 433.95Q137.0231 434.1844 137.50748 434.1844Q137.97623 434.1844 138.38248 433.95Q138.80435 433.7 138.97623 433.27814Q139.16373 432.85626 139.16373 432.0594L139.16373 428.73126L140.2106 428.73126L140.2106 434.95L139.2731 434.95ZM146.25748 434.1844Q145.66373 434.6844 145.11685 434.8875Q144.5856 435.09064 143.9606 435.09064Q142.92935 435.09064 142.38248 434.59064Q141.8356 434.09064 141.8356 433.3094Q141.8356 432.85626 142.03873 432.48126Q142.24185 432.09064 142.5856 431.8719Q142.92935 431.6375 143.35123 431.52814Q143.6481 431.4344 144.28873 431.35626Q145.55435 431.21564 146.16373 430.9969Q146.16373 430.77814 146.16373 430.73126Q146.16373 430.075 145.86685 429.8094Q145.4606 429.46564 144.66373 429.46564Q143.92935 429.46564 143.56998 429.73126Q143.2106 429.98126 143.03873 430.6375L142.00748 430.4969Q142.1481 429.84064 142.47623 429.4344Q142.80435 429.02814 143.41373 428.8094Q144.0231 428.59064 144.81998 428.59064Q145.61685 428.59064 146.11685 428.77814Q146.61685 428.96564 146.85123 429.2469Q147.0856 429.52814 147.17935 429.96564Q147.22623 430.23126 147.22623 430.9344L147.22623 432.34064Q147.22623 433.8094 147.28873 434.2Q147.36685 434.59064 147.56998 434.95L146.4606 434.95Q146.30435 434.6219 146.25748 434.1844ZM146.16373 431.825Q145.5856 432.0594 144.44498 432.23126Q143.78873 432.325 143.5231 432.45Q143.25748 432.5594 143.10123 432.77814Q142.9606 432.9969 142.9606 433.27814Q142.9606 433.7 143.2731 433.98126Q143.60123 434.2625 144.2106 434.2625Q144.81998 434.2625 145.28873 433.9969Q145.7731 433.73126 145.99185 433.2625Q146.16373 432.90314 146.16373 432.21564L146.16373 431.825ZM149.17935 434.95L149.17935 428.73126L150.13248 428.73126L150.13248 429.66876Q150.49185 429.0125 150.78873 428.8094Q151.10123 428.59064 151.47623 428.59064Q152.00748 428.59064 152.55435 428.91876L152.19498 429.90314Q151.80435 429.66876 151.42935 429.66876Q151.06998 429.66876 150.78873 429.8875Q150.5231 430.09064 150.41373 430.46564Q150.22623 431.02814 150.22623 431.6844L150.22623 434.95L149.17935 434.95ZM153.1481 437.34064L153.0231 436.35626Q153.36685 436.45 153.63248 436.45Q153.97623 436.45 154.17935 436.325Q154.3981 436.21564 154.53873 436.0125Q154.63248 435.84064 154.86685 435.21564Q154.88248 435.1375 154.9606 434.96564L152.5856 428.73126L153.72623 428.73126L155.0231 432.325Q155.2731 433.0125 155.47623 433.77814Q155.66373 433.04376 155.91373 432.35626L157.24185 428.73126L158.28873 428.73126L155.92935 435.0594Q155.53873 436.075 155.3356 436.46564Q155.05435 436.9969 154.67935 437.23126Q154.31998 437.48126 153.81998 437.48126Q153.5231 437.48126 153.1481 437.34064ZM158.4606 434.95L158.4606 433.7469L159.66373 433.7469L159.66373 434.95Q159.66373 435.60626 159.42935 436.0125Q159.19498 436.4344 158.69498 436.65314L158.3981 436.2Q158.72623 436.0594 158.88248 435.7625Q159.03873 435.48126 159.06998 434.95L158.4606 434.95ZM169.44498 433.9344L169.44498 434.95L163.75748 434.95Q163.75748 434.575 163.88248 434.21564Q164.10123 433.6375 164.56998 433.075Q165.05435 432.5125 165.9606 431.77814Q167.36685 430.6219 167.85123 429.95Q168.35123 429.27814 168.35123 428.6844Q168.35123 428.0594 167.8981 427.6375Q167.44498 427.2 166.72623 427.2Q165.9606 427.2 165.50748 427.65314Q165.05435 428.10626 165.03873 428.91876L163.9606 428.8094Q164.06998 427.59064 164.78873 426.96564Q165.5231 426.325 166.75748 426.325Q167.99185 426.325 168.7106 427.0125Q169.42935 427.7 169.42935 428.71564Q169.42935 429.23126 169.2106 429.73126Q169.00748 430.21564 168.50748 430.77814Q168.0231 431.325 166.8981 432.27814Q165.94498 433.075 165.66373 433.3719Q165.3981 433.65314 165.22623 433.9344L169.44498 433.9344ZM170.8981 430.71564Q170.8981 429.1844 171.2106 428.2625Q171.5231 427.325 172.13248 426.825Q172.75748 426.325 173.69498 426.325Q174.38248 426.325 174.8981 426.60626Q175.42935 426.8875 175.7731 427.41876Q176.11685 427.9344 176.30435 428.6844Q176.49185 429.4344 176.49185 430.71564Q176.49185 432.23126 176.17935 433.15314Q175.88248 434.075 175.25748 434.59064Q174.6481 435.09064 173.69498 435.09064Q172.4606 435.09064 171.74185 434.2Q170.8981 433.1375 170.8981 430.71564ZM171.97623 430.71564Q171.97623 432.825 172.47623 433.52814Q172.97623 434.23126 173.69498 434.23126Q174.42935 434.23126 174.91373 433.52814Q175.41373 432.825 175.41373 430.71564Q175.41373 428.59064 174.91373 427.90314Q174.42935 427.2 173.67935 427.2Q172.9606 427.2 172.5231 427.8094Q171.97623 428.59064 171.97623 430.71564ZM183.44498 433.9344L183.44498 434.95L177.75748 434.95Q177.75748 434.575 177.88248 434.21564Q178.10123 433.6375 178.56998 433.075Q179.05435 432.5125 179.9606 431.77814Q181.36685 430.6219 181.85123 429.95Q182.35123 429.27814 182.35123 428.6844Q182.35123 428.0594 181.8981 427.6375Q181.44498 427.2 180.72623 427.2Q179.9606 427.2 179.50748 427.65314Q179.05435 428.10626 179.03873 428.91876L177.9606 428.8094Q178.06998 427.59064 178.78873 426.96564Q179.5231 426.325 180.75748 426.325Q181.99185 426.325 182.7106 427.0125Q183.42935 427.7 183.42935 428.71564Q183.42935 429.23126 183.2106 429.73126Q183.00748 430.21564 182.50748 430.77814Q182.0231 431.325 180.8981 432.27814Q179.94498 433.075 179.66373 433.3719Q179.3981 433.65314 179.22623 433.9344L183.44498 433.9344ZM184.8981 432.6844L185.9606 432.54376Q186.13248 433.4344 186.56998 433.84064Q187.00748 434.23126 187.63248 434.23126Q188.38248 434.23126 188.8981 433.71564Q189.41373 433.2 189.41373 432.4344Q189.41373 431.71564 188.92935 431.2469Q188.4606 430.7625 187.72623 430.7625Q187.42935 430.7625 186.97623 430.8875L187.10123 429.95Q187.2106 429.96564 187.2731 429.96564Q187.94498 429.96564 188.47623 429.6219Q189.0231 429.2625 189.0231 428.52814Q189.0231 427.95 188.63248 427.575Q188.24185 427.1844 187.61685 427.1844Q187.00748 427.1844 186.5856 427.575Q186.17935 427.96564 186.06998 428.73126L185.00748 428.54376Q185.19498 427.4969 185.88248 426.91876Q186.56998 426.325 187.5856 426.325Q188.28873 426.325 188.88248 426.6375Q189.47623 426.9344 189.78873 427.45Q190.10123 427.96564 190.10123 428.5594Q190.10123 429.10626 189.80435 429.575Q189.50748 430.02814 188.92935 430.29376Q189.67935 430.46564 190.10123 431.02814Q190.5231 431.575 190.5231 432.41876Q190.5231 433.54376 189.69498 434.325Q188.88248 435.10626 187.63248 435.10626Q186.50748 435.10626 185.75748 434.4344Q185.00748 433.7469 184.8981 432.6844Z" fill-rule="nonzero"/><path fill="#000000" d="M261.8131 432.5125L262.84436 432.3719Q262.8756 433.35626 263.20374 433.71564Q263.53186 434.075 264.1256 434.075Q264.5475 434.075 264.86 433.8875Q265.1725 433.6844 265.28186 433.35626Q265.40686 433.0125 265.40686 432.27814L265.40686 426.35626L266.53186 426.35626L266.53186 432.21564Q266.53186 433.29376 266.26624 433.8875Q266.01624 434.48126 265.45374 434.79376Q264.89124 435.09064 264.1256 435.09064Q263.0006 435.09064 262.39124 434.45Q261.7975 433.79376 261.8131 432.5125ZM272.34436 434.95L272.34436 434.02814Q271.61 435.09064 270.36 435.09064Q269.8131 435.09064 269.32874 434.8875Q268.86 434.66876 268.6256 434.35626Q268.39124 434.02814 268.2975 433.5594Q268.235 433.2625 268.235 432.575L268.235 428.73126L269.2975 428.73126L269.2975 432.1844Q269.2975 432.9969 269.36 433.29376Q269.45374 433.7 269.76624 433.95Q270.09436 434.1844 270.57874 434.1844Q271.0475 434.1844 271.45374 433.95Q271.8756 433.7 272.0475 433.27814Q272.235 432.85626 272.235 432.0594L272.235 428.73126L273.28186 428.73126L273.28186 434.95L272.34436 434.95ZM275.235 434.95L275.235 426.35626L276.2975 426.35626L276.2975 434.95L275.235 434.95ZM278.21936 437.34064L278.09436 436.35626Q278.4381 436.45 278.70374 436.45Q279.0475 436.45 279.2506 436.325Q279.46936 436.21564 279.61 436.0125Q279.70374 435.84064 279.9381 435.21564Q279.95374 435.1375 280.03186 434.96564L277.65686 428.73126L278.7975 428.73126L280.09436 432.325Q280.34436 433.0125 280.5475 433.77814Q280.735 433.04376 280.985 432.35626L282.3131 428.73126L283.36 428.73126L281.0006 435.0594Q280.61 436.075 280.40686 436.46564Q280.1256 436.9969 279.7506 437.23126Q279.39124 437.48126 278.89124 437.48126Q278.59436 437.48126 278.21936 437.34064ZM283.53186 434.95L283.53186 433.7469L284.735 433.7469L284.735 434.95Q284.735 435.60626 284.5006 436.0125Q284.26624 436.4344 283.76624 436.65314L283.46936 436.2Q283.7975 436.0594 283.95374 435.7625Q284.11 435.48126 284.14124 434.95L283.53186 434.95ZM294.51624 433.9344L294.51624 434.95L288.82874 434.95Q288.82874 434.575 288.95374 434.21564Q289.1725 433.6375 289.64124 433.075Q290.1256 432.5125 291.03186 431.77814Q292.4381 430.6219 292.9225 429.95Q293.4225 429.27814 293.4225 428.6844Q293.4225 428.0594 292.96936 427.6375Q292.51624 427.2 291.7975 427.2Q291.03186 427.2 290.57874 427.65314Q290.1256 428.10626 290.11 428.91876L289.03186 428.8094Q289.14124 427.59064 289.86 426.96564Q290.59436 426.325 291.82874 426.325Q293.0631 426.325 293.78186 427.0125Q294.5006 427.7 294.5006 428.71564Q294.5006 429.23126 294.28186 429.73126Q294.07874 430.21564 293.57874 430.77814Q293.09436 431.325 291.96936 432.27814Q291.01624 433.075 290.735 433.3719Q290.46936 433.65314 290.2975 433.9344L294.51624 433.9344ZM295.96936 430.71564Q295.96936 429.1844 296.28186 428.2625Q296.59436 427.325 297.20374 426.825Q297.82874 426.325 298.76624 426.325Q299.45374 426.325 299.96936 426.60626Q300.5006 426.8875 300.84436 427.41876Q301.1881 427.9344 301.3756 428.6844Q301.5631 429.4344 301.5631 430.71564Q301.5631 432.23126 301.2506 433.15314Q300.95374 434.075 300.32874 434.59064Q299.71936 435.09064 298.76624 435.09064Q297.53186 435.09064 296.8131 434.2Q295.96936 433.1375 295.96936 430.71564ZM297.0475 430.71564Q297.0475 432.825 297.5475 433.52814Q298.0475 434.23126 298.76624 434.23126Q299.5006 434.23126 299.985 433.52814Q300.485 432.825 300.485 430.71564Q300.485 428.59064 299.985 427.90314Q299.5006 427.2 298.7506 427.2Q298.03186 427.2 297.59436 427.8094Q297.0475 428.59064 297.0475 430.71564ZM308.51624 433.9344L308.51624 434.95L302.82874 434.95Q302.82874 434.575 302.95374 434.21564Q303.1725 433.6375 303.64124 433.075Q304.1256 432.5125 305.03186 431.77814Q306.4381 430.6219 306.9225 429.95Q307.4225 429.27814 307.4225 428.6844Q307.4225 428.0594 306.96936 427.6375Q306.51624 427.2 305.7975 427.2Q305.03186 427.2 304.57874 427.65314Q304.1256 428.10626 304.11 428.91876L303.03186 428.8094Q303.14124 427.59064 303.86 426.96564Q304.59436 426.325 305.82874 426.325Q307.0631 426.325 307.78186 427.0125Q308.5006 427.7 308.5006 428.71564Q308.5006 429.23126 308.28186 429.73126Q308.07874 430.21564 307.57874 430.77814Q307.09436 431.325 305.96936 432.27814Q305.01624 433.075 304.735 433.3719Q304.46936 433.65314 304.2975 433.9344L308.51624 433.9344ZM309.96936 432.6844L311.03186 432.54376Q311.20374 433.4344 311.64124 433.84064Q312.07874 434.23126 312.70374 434.23126Q313.45374 434.23126 313.96936 433.71564Q314.485 433.2 314.485 432.4344Q314.485 431.71564 314.0006 431.2469Q313.53186 430.7625 312.7975 430.7625Q312.5006 430.7625 312.0475 430.8875L312.1725 429.95Q312.28186 429.96564 312.34436 429.96564Q313.01624 429.96564 313.5475 429.6219Q314.09436 429.2625 314.09436 428.52814Q314.09436 427.95 313.70374 427.575Q313.3131 427.1844 312.6881 427.1844Q312.07874 427.1844 311.65686 427.575Q311.2506 427.96564 311.14124 428.73126L310.07874 428.54376Q310.26624 427.4969 310.95374 426.91876Q311.64124 426.325 312.65686 426.325Q313.36 426.325 313.95374 426.6375Q314.5475 426.9344 314.86 427.45Q315.1725 427.96564 315.1725 428.5594Q315.1725 429.10626 314.8756 429.575Q314.57874 430.02814 314.0006 430.29376Q314.7506 430.46564 315.1725 431.02814Q315.59436 431.575 315.59436 432.41876Q315.59436 433.54376 314.76624 434.325Q313.95374 435.10626 312.70374 435.10626Q311.57874 435.10626 310.82874 434.4344Q310.07874 433.7469 309.96936 432.6844Z" fill-rule="nonzero"/><path fill="#000000" d="M386.88437 432.5125L387.91562 432.3719Q387.94687 433.35626 388.275 433.71564Q388.60312 434.075 389.19687 434.075Q389.61874 434.075 389.93124 433.8875Q390.24374 433.6844 390.35312 433.35626Q390.47812 433.0125 390.47812 432.27814L390.47812 426.35626L391.60312 426.35626L391.60312 432.21564Q391.60312 433.29376 391.3375 433.8875Q391.0875 434.48126 390.525 434.79376Q389.9625 435.09064 389.19687 435.09064Q388.07187 435.09064 387.4625 434.45Q386.86874 433.79376 386.88437 432.5125ZM397.4 434.1844Q396.80624 434.6844 396.25937 434.8875Q395.72812 435.09064 395.10312 435.09064Q394.07187 435.09064 393.525 434.59064Q392.97812 434.09064 392.97812 433.3094Q392.97812 432.85626 393.18124 432.48126Q393.38437 432.09064 393.72812 431.8719Q394.07187 431.6375 394.49374 431.52814Q394.79062 431.4344 395.43124 431.35626Q396.69687 431.21564 397.30624 430.9969Q397.30624 430.77814 397.30624 430.73126Q397.30624 430.075 397.00937 429.8094Q396.60312 429.46564 395.80624 429.46564Q395.07187 429.46564 394.7125 429.73126Q394.35312 429.98126 394.18124 430.6375L393.15 430.4969Q393.29062 429.84064 393.61874 429.4344Q393.94687 429.02814 394.55624 428.8094Q395.16562 428.59064 395.9625 428.59064Q396.75937 428.59064 397.25937 428.77814Q397.75937 428.96564 397.99374 429.2469Q398.22812 429.52814 398.32187 429.96564Q398.36874 430.23126 398.36874 430.9344L398.36874 432.34064Q398.36874 433.8094 398.43124 434.2Q398.50937 434.59064 398.7125 434.95L397.60312 434.95Q397.44687 434.6219 397.4 434.1844ZM397.30624 431.825Q396.72812 432.0594 395.5875 432.23126Q394.93124 432.325 394.66562 432.45Q394.4 432.5594 394.24374 432.77814Q394.10312 432.9969 394.10312 433.27814Q394.10312 433.7 394.41562 433.98126Q394.74374 434.2625 395.35312 434.2625Q395.9625 434.2625 396.43124 433.9969Q396.91562 433.73126 397.13437 433.2625Q397.30624 432.90314 397.30624 432.21564L397.30624 431.825ZM400.3375 434.95L400.3375 428.73126L401.275 428.73126L401.275 429.60626Q401.9625 428.59064 403.25937 428.59064Q403.82187 428.59064 404.29062 428.79376Q404.775 428.9969 405.00937 429.325Q405.24374 429.65314 405.3375 430.09064Q405.38437 430.3875 405.38437 431.1219L405.38437 434.95L404.3375 434.95L404.3375 431.16876Q404.3375 430.5125 404.2125 430.2Q404.0875 429.8875 403.775 429.7Q403.4625 429.4969 403.04062 429.4969Q402.36874 429.4969 401.86874 429.9344Q401.38437 430.35626 401.38437 431.54376L401.38437 434.95L400.3375 434.95ZM411.41562 434.95L411.41562 434.02814Q410.68124 435.09064 409.43124 435.09064Q408.88437 435.09064 408.4 434.8875Q407.93124 434.66876 407.69687 434.35626Q407.4625 434.02814 407.36874 433.5594Q407.30624 433.2625 407.30624 432.575L407.30624 428.73126L408.36874 428.73126L408.36874 432.1844Q408.36874 432.9969 408.43124 433.29376Q408.525 433.7 408.8375 433.95Q409.16562 434.1844 409.65 434.1844Q410.11874 434.1844 410.525 433.95Q410.94687 433.7 411.11874 433.27814Q411.30624 432.85626 411.30624 432.0594L411.30624 428.73126L412.35312 428.73126L412.35312 434.95L411.41562 434.95ZM418.4 434.1844Q417.80624 434.6844 417.25937 434.8875Q416.72812 435.09064 416.10312 435.09064Q415.07187 435.09064 414.525 434.59064Q413.97812 434.09064 413.97812 433.3094Q413.97812 432.85626 414.18124 432.48126Q414.38437 432.09064 414.72812 431.8719Q415.07187 431.6375 415.49374 431.52814Q415.79062 431.4344 416.43124 431.35626Q417.69687 431.21564 418.30624 430.9969Q418.30624 430.77814 418.30624 430.73126Q418.30624 430.075 418.00937 429.8094Q417.60312 429.46564 416.80624 429.46564Q416.07187 429.46564 415.7125 429.73126Q415.35312 429.98126 415.18124 430.6375L414.15 430.4969Q414.29062 429.84064 414.61874 429.4344Q414.94687 429.02814 415.55624 428.8094Q416.16562 428.59064 416.9625 428.59064Q417.75937 428.59064 418.25937 428.77814Q418.75937 428.96564 418.99374 429.2469Q419.22812 429.52814 419.32187 429.96564Q419.36874 430.23126 419.36874 430.9344L419.36874 432.34064Q419.36874 433.8094 419.43124 434.2Q419.50937 434.59064 419.7125 434.95L418.60312 434.95Q418.44687 434.6219 418.4 434.1844ZM418.30624 431.825Q417.72812 432.0594 416.5875 432.23126Q415.93124 432.325 415.66562 432.45Q415.4 432.5594 415.24374 432.77814Q415.10312 432.9969 415.10312 433.27814Q415.10312 433.7 415.41562 433.98126Q415.74374 434.2625 416.35312 434.2625Q416.9625 434.2625 417.43124 433.9969Q417.91562 433.73126 418.13437 433.2625Q418.30624 432.90314 418.30624 432.21564L418.30624 431.825ZM421.32187 434.95L421.32187 428.73126L422.275 428.73126L422.275 429.66876Q422.63437 429.0125 422.93124 428.8094Q423.24374 428.59064 423.61874 428.59064Q424.15 428.59064 424.69687 428.91876L424.3375 429.90314Q423.94687 429.66876 423.57187 429.66876Q423.2125 429.66876 422.93124 429.8875Q422.66562 430.09064 422.55624 430.46564Q422.36874 431.02814 422.36874 431.6844L422.36874 434.95L421.32187 434.95ZM425.29062 437.34064L425.16562 436.35626Q425.50937 436.45 425.775 436.45Q426.11874 436.45 426.32187 436.325Q426.54062 436.21564 426.68124 436.0125Q426.775 435.84064 427.00937 435.21564Q427.025 435.1375 427.10312 434.96564L424.72812 428.73126L425.86874 428.73126L427.16562 432.325Q427.41562 433.0125 427.61874 433.77814Q427.80624 433.04376 428.05624 432.35626L429.38437 428.73126L430.43124 428.73126L428.07187 435.0594Q427.68124 436.075 427.47812 436.46564Q427.19687 436.9969 426.82187 437.23126Q426.4625 437.48126 425.9625 437.48126Q425.66562 437.48126 425.29062 437.34064ZM430.60312 434.95L430.60312 433.7469L431.80624 433.7469L431.80624 434.95Q431.80624 435.60626 431.57187 436.0125Q431.3375 436.4344 430.8375 436.65314L430.54062 436.2Q430.86874 436.0594 431.025 435.7625Q431.18124 435.48126 431.2125 434.95L430.60312 434.95ZM441.5875 433.9344L441.5875 434.95L435.9 434.95Q435.9 434.575 436.025 434.21564Q436.24374 433.6375 436.7125 433.075Q437.19687 432.5125 438.10312 431.77814Q439.50937 430.6219 439.99374 429.95Q440.49374 429.27814 440.49374 428.6844Q440.49374 428.0594 440.04062 427.6375Q439.5875 427.2 438.86874 427.2Q438.10312 427.2 437.65 427.65314Q437.19687 428.10626 437.18124 428.91876L436.10312 428.8094Q436.2125 427.59064 436.93124 426.96564Q437.66562 426.325 438.9 426.325Q440.13437 426.325 440.85312 427.0125Q441.57187 427.7 441.57187 428.71564Q441.57187 429.23126 441.35312 429.73126Q441.15 430.21564 440.65 430.77814Q440.16562 431.325 439.04062 432.27814Q438.0875 433.075 437.80624 433.3719Q437.54062 433.65314 437.36874 433.9344L441.5875 433.9344ZM443.04062 430.71564Q443.04062 429.1844 443.35312 428.2625Q443.66562 427.325 444.275 426.825Q444.9 426.325 445.8375 426.325Q446.525 426.325 447.04062 426.60626Q447.57187 426.8875 447.91562 427.41876Q448.25937 427.9344 448.44687 428.6844Q448.63437 429.4344 448.63437 430.71564Q448.63437 432.23126 448.32187 433.15314Q448.025 434.075 447.4 434.59064Q446.79062 435.09064 445.8375 435.09064Q444.60312 435.09064 443.88437 434.2Q443.04062 433.1375 443.04062 430.71564ZM444.11874 430.71564Q444.11874 432.825 444.61874 433.52814Q445.11874 434.23126 445.8375 434.23126Q446.57187 434.23126 447.05624 433.52814Q447.55624 432.825 447.55624 430.71564Q447.55624 428.59064 447.05624 427.90314Q446.57187 427.2 445.82187 427.2Q445.10312 427.2 444.66562 427.8094Q444.11874 428.59064 444.11874 430.71564ZM455.5875 433.9344L455.5875 434.95L449.9 434.95Q449.9 434.575 450.025 434.21564Q450.24374 433.6375 450.7125 433.075Q451.19687 432.5125 452.10312 431.77814Q453.50937 430.6219 453.99374 429.95Q454.49374 429.27814 454.49374 428.6844Q454.49374 428.0594 454.04062 427.6375Q453.5875 427.2 452.86874 427.2Q452.10312 427.2 451.65 427.65314Q451.19687 428.10626 451.18124 428.91876L450.10312 428.8094Q450.2125 427.59064 450.93124 426.96564Q451.66562 426.325 452.9 426.325Q454.13437 426.325 454.85312 427.0125Q455.57187 427.7 455.57187 428.71564Q455.57187 429.23126 455.35312 429.73126Q455.15 430.21564 454.65 430.77814Q454.16562 431.325 453.04062 432.27814Q452.0875 433.075 451.80624 433.3719Q451.54062 433.65314 451.36874 433.9344L455.5875 433.9344ZM460.41562 434.95L460.41562 432.8875L456.69687 432.8875L456.69687 431.91876L460.61874 426.35626L461.47812 426.35626L461.47812 431.91876L462.63437 431.91876L462.63437 432.8875L461.47812 432.8875L461.47812 434.95L460.41562 434.95ZM460.41562 431.91876L460.41562 428.0594L457.72812 431.91876L460.41562 431.91876Z" fill-rule="nonzero"/><path fill="#000000" d="M533.9556 432.5125L534.9869 432.3719Q535.0181 433.35626 535.34625 433.71564Q535.6744 434.075 536.2681 434.075Q536.69 434.075 537.0025 433.8875Q537.315 433.6844 537.4244 433.35626Q537.5494 433.0125 537.5494 432.27814L537.5494 426.35626L538.6744 426.35626L538.6744 432.21564Q538.6744 433.29376 538.40875 433.8875Q538.15875 434.48126 537.59625 434.79376Q537.03375 435.09064 536.2681 435.09064Q535.1431 435.09064 534.53375 434.45Q533.94 433.79376 533.9556 432.5125ZM544.4869 434.95L544.4869 434.02814Q543.7525 435.09064 542.5025 435.09064Q541.9556 435.09064 541.47125 434.8875Q541.0025 434.66876 540.7681 434.35626Q540.53375 434.02814 540.44 433.5594Q540.3775 433.2625 540.3775 432.575L540.3775 428.73126L541.44 428.73126L541.44 432.1844Q541.44 432.9969 541.5025 433.29376Q541.59625 433.7 541.90875 433.95Q542.2369 434.1844 542.72125 434.1844Q543.19 434.1844 543.59625 433.95Q544.0181 433.7 544.19 433.27814Q544.3775 432.85626 544.3775 432.0594L544.3775 428.73126L545.4244 428.73126L545.4244 434.95L544.4869 434.95ZM547.3775 434.95L547.3775 426.35626L548.44 426.35626L548.44 434.95L547.3775 434.95ZM550.3619 437.34064L550.2369 436.35626Q550.5806 436.45 550.84625 436.45Q551.19 436.45 551.3931 436.325Q551.6119 436.21564 551.7525 436.0125Q551.84625 435.84064 552.0806 435.21564Q552.09625 435.1375 552.1744 434.96564L549.7994 428.73126L550.94 428.73126L552.2369 432.325Q552.4869 433.0125 552.69 433.77814Q552.8775 433.04376 553.1275 432.35626L554.4556 428.73126L555.5025 428.73126L553.1431 435.0594Q552.7525 436.075 552.5494 436.46564Q552.2681 436.9969 551.8931 437.23126Q551.53375 437.48126 551.03375 437.48126Q550.7369 437.48126 550.3619 437.34064ZM555.6744 434.95L555.6744 433.7469L556.8775 433.7469L556.8775 434.95Q556.8775 435.60626 556.6431 436.0125Q556.40875 436.4344 555.90875 436.65314L555.6119 436.2Q555.94 436.0594 556.09625 435.7625Q556.2525 435.48126 556.28375 434.95L555.6744 434.95ZM566.65875 433.9344L566.65875 434.95L560.97125 434.95Q560.97125 434.575 561.09625 434.21564Q561.315 433.6375 561.78375 433.075Q562.2681 432.5125 563.1744 431.77814Q564.5806 430.6219 565.065 429.95Q565.565 429.27814 565.565 428.6844Q565.565 428.0594 565.1119 427.6375Q564.65875 427.2 563.94 427.2Q563.1744 427.2 562.72125 427.65314Q562.2681 428.10626 562.2525 428.91876L561.1744 428.8094Q561.28375 427.59064 562.0025 426.96564Q562.7369 426.325 563.97125 426.325Q565.2056 426.325 565.9244 427.0125Q566.6431 427.7 566.6431 428.71564Q566.6431 429.23126 566.4244 429.73126Q566.22125 430.21564 565.72125 430.77814Q565.2369 431.325 564.1119 432.27814Q563.15875 433.075 562.8775 433.3719Q562.6119 433.65314 562.44 433.9344L566.65875 433.9344ZM568.1119 430.71564Q568.1119 429.1844 568.4244 428.2625Q568.7369 427.325 569.34625 426.825Q569.97125 426.325 570.90875 426.325Q571.59625 426.325 572.1119 426.60626Q572.6431 426.8875 572.9869 427.41876Q573.3306 427.9344 573.5181 428.6844Q573.7056 429.4344 573.7056 430.71564Q573.7056 432.23126 573.3931 433.15314Q573.09625 434.075 572.47125 434.59064Q571.8619 435.09064 570.90875 435.09064Q569.6744 435.09064 568.9556 434.2Q568.1119 433.1375 568.1119 430.71564ZM569.19 430.71564Q569.19 432.825 569.69 433.52814Q570.19 434.23126 570.90875 434.23126Q571.6431 434.23126 572.1275 433.52814Q572.6275 432.825 572.6275 430.71564Q572.6275 428.59064 572.1275 427.90314Q571.6431 427.2 570.8931 427.2Q570.1744 427.2 569.7369 427.8094Q569.19 428.59064 569.19 430.71564ZM580.65875 433.9344L580.65875 434.95L574.97125 434.95Q574.97125 434.575 575.09625 434.21564Q575.315 433.6375 575.78375 433.075Q576.2681 432.5125 577.1744 431.77814Q578.5806 430.6219 579.065 429.95Q579.565 429.27814 579.565 428.6844Q579.565 428.0594 579.1119 427.6375Q578.65875 427.2 577.94 427.2Q577.1744 427.2 576.72125 427.65314Q576.2681 428.10626 576.2525 428.91876L575.1744 428.8094Q575.28375 427.59064 576.0025 426.96564Q576.7369 426.325 577.97125 426.325Q579.2056 426.325 579.9244 427.0125Q580.6431 427.7 580.6431 428.71564Q580.6431 429.23126 580.4244 429.73126Q580.22125 430.21564 579.72125 430.77814Q579.2369 431.325 578.1119 432.27814Q577.15875 433.075 576.8775 433.3719Q576.6119 433.65314 576.44 433.9344L580.65875 433.9344ZM585.4869 434.95L585.4869 432.8875L581.7681 432.8875L581.7681 431.91876L585.69 426.35626L586.5494 426.35626L586.5494 431.91876L587.7056 431.91876L587.7056 432.8875L586.5494 432.8875L586.5494 434.95L585.4869 434.95ZM585.4869 431.91876L585.4869 428.0594L582.7994 431.91876L585.4869 431.91876Z" fill-rule="nonzero"/><path fill="#9fc5e8" d="M680.62 25.05C680.62 24.497715 681.0677 24.05 681.62 24.05L691.62 24.05C692.1723 24.05 692.62 24.497715 692.62 25.05L692.62 35.05C692.62 35.602283 692.1723 36.05 691.62 36.05L681.62 36.05C681.0677 36.05 680.62 35.602283 680.62 35.05Z" fill-rule="nonzero"/><path fill="#1a1a1a" d="M701.1825 26.58125L701.1825 25.565624L706.745 25.565624L706.745 26.39375Q705.9325 27.26875 705.12 28.721874Q704.3231 30.159374 703.8856 31.690624Q703.5575 32.76875 703.4794 34.05L702.3856 34.05Q702.40125 33.034374 702.77625 31.596874Q703.1669 30.159374 703.87 28.83125Q704.58875 27.503124 705.40125 26.58125L701.1825 26.58125ZM708.71375 34.05L708.71375 32.846874L709.9169 32.846874L709.9169 34.05L708.71375 34.05ZM716.6669 33.034374L716.6669 34.05L710.9794 34.05Q710.9794 33.675 711.1044 33.315624Q711.3231 32.7375 711.7919 32.175Q712.27625 31.6125 713.1825 30.878124Q714.58875 29.721874 715.0731 29.05Q715.5731 28.378124 715.5731 27.784374Q715.5731 27.159374 715.12 26.7375Q714.6669 26.3 713.9481 26.3Q713.1825 26.3 712.7294 26.753124Q712.27625 27.20625 712.2606 28.01875L711.1825 27.909374Q711.2919 26.690624 712.0106 26.065624Q712.745 25.425 713.9794 25.425Q715.21375 25.425 715.9325 26.1125Q716.65125 26.8 716.65125 27.815624Q716.65125 28.33125 716.4325 28.83125Q716.2294 29.315624 715.7294 29.878124Q715.245 30.425 714.12 31.378124Q713.1669 32.175 712.8856 32.471874Q712.62 32.753124 712.4481 33.034374L716.6669 33.034374Z" fill-rule="nonzero"/><path fill="#6fa8dc" d="M680.62 49.05C680.62 48.497715 681.0677 48.05 681.62 48.05L691.62 48.05C692.1723 48.05 692.62 48.497715 692.62 49.05L692.62 59.05C692.62 59.602283 692.1723 60.05 691.62 60.05L681.62 60.05C681.0677 60.05 680.62 59.602283 680.62 59.05Z" fill-rule="nonzero"/><path fill="#1a1a1a" d="M701.1825 50.58125L701.1825 49.565624L706.745 49.565624L706.745 50.39375Q705.9325 51.26875 705.12 52.721874Q704.3231 54.159374 703.8856 55.690624Q703.5575 56.76875 703.4794 58.05L702.3856 58.05Q702.40125 57.034374 702.77625 55.596874Q703.1669 54.159374 703.87 52.83125Q704.58875 51.503124 705.40125 50.58125L701.1825 50.58125ZM708.71375 58.05L708.71375 56.846874L709.9169 56.846874L709.9169 58.05L708.71375 58.05ZM711.12 55.784374L712.1825 55.64375Q712.3544 56.534374 712.7919 56.940624Q713.2294 57.33125 713.8544 57.33125Q714.6044 57.33125 715.12 56.815624Q715.6356 56.3 715.6356 55.534374Q715.6356 54.815624 715.15125 54.346874Q714.6825 53.8625 713.9481 53.8625Q713.65125 53.8625 713.1981 53.9875L713.3231 53.05Q713.4325 53.065624 713.495 53.065624Q714.1669 53.065624 714.6981 52.721874Q715.245 52.3625 715.245 51.628124Q715.245 51.05 714.8544 50.675Q714.46375 50.284374 713.83875 50.284374Q713.2294 50.284374 712.8075 50.675Q712.40125 51.065624 712.2919 51.83125L711.2294 51.64375Q711.4169 50.596874 712.1044 50.01875Q712.7919 49.425 713.8075 49.425Q714.5106 49.425 715.1044 49.7375Q715.6981 50.034374 716.0106 50.55Q716.3231 51.065624 716.3231 51.659374Q716.3231 52.20625 716.02625 52.675Q715.7294 53.128124 715.15125 53.39375Q715.90125 53.565624 716.3231 54.128124Q716.745 54.675 716.745 55.51875Q716.745 56.64375 715.9169 57.425Q715.1044 58.20625 713.8544 58.20625Q712.7294 58.20625 711.9794 57.534374Q711.2294 56.846874 711.12 55.784374Z" fill-rule="nonzero"/><path fill="#3d85c6" d="M680.62 73.05C680.62 72.49772 681.0677 72.05 681.62 72.05L691.62 72.05C692.1723 72.05 692.62 72.49772 692.62 73.05L692.62 83.05C692.62 83.60229 692.1723 84.05 691.62 84.05L681.62 84.05C681.0677 84.05 680.62 83.60229 680.62 83.05Z" fill-rule="nonzero"/><path fill="#1a1a1a" d="M701.1825 74.58125L701.1825 73.56563L706.745 73.56563L706.745 74.39375Q705.9325 75.26875 705.12 76.72188Q704.3231 78.15938 703.8856 79.69063Q703.5575 80.76875 703.4794 82.05L702.3856 82.05Q702.40125 81.03438 702.77625 79.59688Q703.1669 78.15938 703.87 76.83125Q704.58875 75.50313 705.40125 74.58125L701.1825 74.58125ZM708.71375 82.05L708.71375 80.84688L709.9169 80.84688L709.9169 82.05L708.71375 82.05ZM714.495 82.05L714.495 79.9875L710.77625 79.9875L710.77625 79.01875L714.6981 73.45625L715.5575 73.45625L715.5575 79.01875L716.71375 79.01875L716.71375 79.9875L715.5575 79.9875L715.5575 82.05L714.495 82.05ZM714.495 79.01875L714.495 75.15938L711.8075 79.01875L714.495 79.01875Z" fill-rule="nonzero"/><path fill="#b6d7a8" d="M680.62 97.05C680.62 96.49772 681.0677 96.05 681.62 96.05L691.62 96.05C692.1723 96.05 692.62 96.49772 692.62 97.05L692.62 107.05C692.62 107.60229 692.1723 108.05 691.62 108.05L681.62 108.05C681.0677 108.05 680.62 107.60229 680.62 107.05Z" fill-rule="nonzero"/><path fill="#1a1a1a" d="M702.745 101.39375Q702.08875 101.14375 701.7606 100.70625Q701.4481 100.25313 701.4481 99.64375Q701.4481 98.70625 702.12 98.06563Q702.8075 97.425 703.9169 97.425Q705.0419 97.425 705.7294 98.08125Q706.4169 98.7375 706.4169 99.675Q706.4169 100.26875 706.1044 100.70625Q705.7919 101.14375 705.15125 101.39375Q705.9481 101.64375 706.3544 102.22188Q706.7606 102.8 706.7606 103.59688Q706.7606 104.69063 705.9794 105.44063Q705.21375 106.19063 703.9325 106.19063Q702.6669 106.19063 701.8856 105.44063Q701.1044 104.69063 701.1044 103.56563Q701.1044 102.72188 701.52625 102.15938Q701.96375 101.59688 702.745 101.39375ZM702.52625 99.59688Q702.52625 100.20625 702.9169 100.59688Q703.3231 100.9875 703.9481 100.9875Q704.5575 100.9875 704.9481 100.6125Q705.33875 100.22188 705.33875 99.65938Q705.33875 99.08125 704.9325 98.69063Q704.52625 98.28438 703.9325 98.28438Q703.3231 98.28438 702.9169 98.675Q702.52625 99.06563 702.52625 99.59688ZM702.1981 103.56563Q702.1981 104.01875 702.40125 104.44063Q702.62 104.8625 703.0419 105.09688Q703.46375 105.33125 703.9481 105.33125Q704.6981 105.33125 705.1825 104.84688Q705.6825 104.3625 705.6825 103.6125Q705.6825 102.84688 705.1825 102.34688Q704.6825 101.84688 703.9169 101.84688Q703.1669 101.84688 702.6825 102.34688Q702.1981 102.83125 702.1981 103.56563ZM708.71375 106.05L708.71375 104.84688L709.9169 104.84688L709.9169 106.05L708.71375 106.05ZM711.12 101.81563Q711.12 100.28438 711.4325 99.3625Q711.745 98.425 712.3544 97.925Q712.9794 97.425 713.9169 97.425Q714.6044 97.425 715.12 97.70625Q715.65125 97.9875 715.995 98.51875Q716.33875 99.03438 716.52625 99.78438Q716.71375 100.53438 716.71375 101.81563Q716.71375 103.33125 716.40125 104.25313Q716.1044 105.175 715.4794 105.69063Q714.87 106.19063 713.9169 106.19063Q712.6825 106.19063 711.96375 105.3Q711.12 104.2375 711.12 101.81563ZM712.1981 101.81563Q712.1981 103.925 712.6981 104.62813Q713.1981 105.33125 713.9169 105.33125Q714.65125 105.33125 715.1356 104.62813Q715.6356 103.925 715.6356 101.81563Q715.6356 99.69063 715.1356 99.00313Q714.65125 98.3 713.90125 98.3Q713.1825 98.3 712.745 98.90938Q712.1981 99.69063 712.1981 101.81563Z" fill-rule="nonzero"/><path fill="#93c47d" d="M680.62 121.05C680.62 120.49772 681.0677 120.05 681.62 120.05L691.62 120.05C692.1723 120.05 692.62 120.49772 692.62 121.05L692.62 131.05C692.62 131.60228 692.1723 132.05 691.62 132.05L681.62 132.05C681.0677 132.05 680.62 131.60228 680.62 131.05Z" fill-rule="nonzero"/><path fill="#1a1a1a" d="M702.745 125.39375Q702.08875 125.14375 701.7606 124.70625Q701.4481 124.25313 701.4481 123.64375Q701.4481 122.70625 702.12 122.06563Q702.8075 121.425 703.9169 121.425Q705.0419 121.425 705.7294 122.08125Q706.4169 122.7375 706.4169 123.675Q706.4169 124.26875 706.1044 124.70625Q705.7919 125.14375 705.15125 125.39375Q705.9481 125.64375 706.3544 126.22188Q706.7606 126.8 706.7606 127.59688Q706.7606 128.69063 705.9794 129.44063Q705.21375 130.19063 703.9325 130.19063Q702.6669 130.19063 701.8856 129.44063Q701.1044 128.69063 701.1044 127.56563Q701.1044 126.72188 701.52625 126.15938Q701.96375 125.59688 702.745 125.39375ZM702.52625 123.59688Q702.52625 124.20625 702.9169 124.59688Q703.3231 124.9875 703.9481 124.9875Q704.5575 124.9875 704.9481 124.6125Q705.33875 124.22188 705.33875 123.65938Q705.33875 123.08125 704.9325 122.69063Q704.52625 122.28438 703.9325 122.28438Q703.3231 122.28438 702.9169 122.675Q702.52625 123.06563 702.52625 123.59688ZM702.1981 127.56563Q702.1981 128.01875 702.40125 128.44063Q702.62 128.8625 703.0419 129.09688Q703.46375 129.33125 703.9481 129.33125Q704.6981 129.33125 705.1825 128.84688Q705.6825 128.3625 705.6825 127.6125Q705.6825 126.84688 705.1825 126.34688Q704.6825 125.84688 703.9169 125.84688Q703.1669 125.84688 702.6825 126.34688Q702.1981 126.83125 702.1981 127.56563ZM708.71375 130.05L708.71375 128.84688L709.9169 128.84688L709.9169 130.05L708.71375 130.05ZM715.08875 130.05L714.0419 130.05L714.0419 123.33125Q713.65125 123.69063 713.02625 124.06563Q712.4169 124.425 711.9325 124.59688L711.9325 123.58125Q712.8075 123.15938 713.46375 122.58125Q714.1356 121.9875 714.4169 121.425L715.08875 121.425L715.08875 130.05Z" fill-rule="nonzero"/><path fill="#6aa84f" d="M680.62 145.05C680.62 144.49771 681.0677 144.05 681.62 144.05L691.62 144.05C692.1723 144.05 692.62 144.49771 692.62 145.05L692.62 155.05C692.62 155.60228 692.1723 156.05 691.62 156.05L681.62 156.05C681.0677 156.05 680.62 155.60228 680.62 155.05Z" fill-rule="nonzero"/><path fill="#1a1a1a" d="M702.745 149.39375Q702.08875 149.14375 701.7606 148.70625Q701.4481 148.25313 701.4481 147.64375Q701.4481 146.70625 702.12 146.06563Q702.8075 145.425 703.9169 145.425Q705.0419 145.425 705.7294 146.08125Q706.4169 146.7375 706.4169 147.675Q706.4169 148.26875 706.1044 148.70625Q705.7919 149.14375 705.15125 149.39375Q705.9481 149.64375 706.3544 150.22188Q706.7606 150.8 706.7606 151.59688Q706.7606 152.69063 705.9794 153.44063Q705.21375 154.19063 703.9325 154.19063Q702.6669 154.19063 701.8856 153.44063Q701.1044 152.69063 701.1044 151.56563Q701.1044 150.72188 701.52625 150.15938Q701.96375 149.59688 702.745 149.39375ZM702.52625 147.59688Q702.52625 148.20625 702.9169 148.59688Q703.3231 148.9875 703.9481 148.9875Q704.5575 148.9875 704.9481 148.6125Q705.33875 148.22188 705.33875 147.65938Q705.33875 147.08125 704.9325 146.69063Q704.52625 146.28438 703.9325 146.28438Q703.3231 146.28438 702.9169 146.675Q702.52625 147.06563 702.52625 147.59688ZM702.1981 151.56563Q702.1981 152.01875 702.40125 152.44063Q702.62 152.8625 703.0419 153.09688Q703.46375 153.33125 703.9481 153.33125Q704.6981 153.33125 705.1825 152.84688Q705.6825 152.3625 705.6825 151.6125Q705.6825 150.84688 705.1825 150.34688Q704.6825 149.84688 703.9169 149.84688Q703.1669 149.84688 702.6825 150.34688Q702.1981 150.83125 702.1981 151.56563ZM708.71375 154.05L708.71375 152.84688L709.9169 152.84688L709.9169 154.05L708.71375 154.05ZM716.6669 153.03438L716.6669 154.05L710.9794 154.05Q710.9794 153.675 711.1044 153.31563Q711.3231 152.7375 711.7919 152.175Q712.27625 151.6125 713.1825 150.87813Q714.58875 149.72188 715.0731 149.05Q715.5731 148.37813 715.5731 147.78438Q715.5731 147.15938 715.12 146.7375Q714.6669 146.3 713.9481 146.3Q713.1825 146.3 712.7294 146.75313Q712.27625 147.20625 712.2606 148.01875L711.1825 147.90938Q711.2919 146.69063 712.0106 146.06563Q712.745 145.425 713.9794 145.425Q715.21375 145.425 715.9325 146.1125Q716.65125 146.8 716.65125 147.81563Q716.65125 148.33125 716.4325 148.83125Q716.2294 149.31563 715.7294 149.87813Q715.245 150.425 714.12 151.37813Q713.1669 152.175 712.8856 152.47188Q712.62 152.75313 712.4481 153.03438L716.6669 153.03438Z" fill-rule="nonzero"/><path fill="#38761d" d="M680.62 169.05C680.62 168.49771 681.0677 168.05 681.62 168.05L691.62 168.05C692.1723 168.05 692.62 168.49771 692.62 169.05L692.62 179.05C692.62 179.60228 692.1723 180.05 691.62 180.05L681.62 180.05C681.0677 180.05 680.62 179.60228 680.62 179.05Z" fill-rule="nonzero"/><path fill="#1a1a1a" d="M702.745 173.39375Q702.08875 173.14375 701.7606 172.70625Q701.4481 172.25313 701.4481 171.64375Q701.4481 170.70625 702.12 170.06563Q702.8075 169.425 703.9169 169.425Q705.0419 169.425 705.7294 170.08125Q706.4169 170.7375 706.4169 171.675Q706.4169 172.26875 706.1044 172.70625Q705.7919 173.14375 705.15125 173.39375Q705.9481 173.64375 706.3544 174.22188Q706.7606 174.8 706.7606 175.59688Q706.7606 176.69063 705.9794 177.44063Q705.21375 178.19063 703.9325 178.19063Q702.6669 178.19063 701.8856 177.44063Q701.1044 176.69063 701.1044 175.56563Q701.1044 174.72188 701.52625 174.15938Q701.96375 173.59688 702.745 173.39375ZM702.52625 171.59688Q702.52625 172.20625 702.9169 172.59688Q703.3231 172.9875 703.9481 172.9875Q704.5575 172.9875 704.9481 172.6125Q705.33875 172.22188 705.33875 171.65938Q705.33875 171.08125 704.9325 170.69063Q704.52625 170.28438 703.9325 170.28438Q703.3231 170.28438 702.9169 170.675Q702.52625 171.06563 702.52625 171.59688ZM702.1981 175.56563Q702.1981 176.01875 702.40125 176.44063Q702.62 176.8625 703.0419 177.09688Q703.46375 177.33125 703.9481 177.33125Q704.6981 177.33125 705.1825 176.84688Q705.6825 176.3625 705.6825 175.6125Q705.6825 174.84688 705.1825 174.34688Q704.6825 173.84688 703.9169 173.84688Q703.1669 173.84688 702.6825 174.34688Q702.1981 174.83125 702.1981 175.56563ZM708.71375 178.05L708.71375 176.84688L709.9169 176.84688L709.9169 178.05L708.71375 178.05ZM711.12 175.78438L712.1825 175.64375Q712.3544 176.53438 712.7919 176.94063Q713.2294 177.33125 713.8544 177.33125Q714.6044 177.33125 715.12 176.81563Q715.6356 176.3 715.6356 175.53438Q715.6356 174.81563 715.15125 174.34688Q714.6825 173.8625 713.9481 173.8625Q713.65125 173.8625 713.1981 173.9875L713.3231 173.05Q713.4325 173.06563 713.495 173.06563Q714.1669 173.06563 714.6981 172.72188Q715.245 172.3625 715.245 171.62813Q715.245 171.05 714.8544 170.675Q714.46375 170.28438 713.83875 170.28438Q713.2294 170.28438 712.8075 170.675Q712.40125 171.06563 712.2919 171.83125L711.2294 171.64375Q711.4169 170.59688 712.1044 170.01875Q712.7919 169.425 713.8075 169.425Q714.5106 169.425 715.1044 169.7375Q715.6981 170.03438 716.0106 170.55Q716.3231 171.06563 716.3231 171.65938Q716.3231 172.20625 716.02625 172.675Q715.7294 173.12813 715.15125 173.39375Q715.90125 173.56563 716.3231 174.12813Q716.745 174.675 716.745 175.51875Q716.745 176.64375 715.9169 177.425Q715.1044 178.20625 713.8544 178.20625Q712.7294 178.20625 711.9794 177.53438Q711.2294 176.84688 711.12 175.78438Z" fill-rule="nonzero"/></svg>