<svg version="1.1" viewBox="0.0 0.0 804.0 498.0" fill="none" stroke="none" stroke-linecap="square" stroke-miterlimit="10" width="804" height="498" xmlns:xlink="http://www.w3.org/1999/xlink" xmlns="http://www.w3.org/2000/svg"><path fill="#ffffff" d="M0 0L804.0 0L804.0 498.0L0 498.0L0 0Z" fill-rule="nonzero"/><path stroke="#333333" stroke-width="1.0" stroke-linecap="butt" d="M62.5 453.5L703.5 453.5" fill-rule="nonzero"/><path stroke="#cccccc" stroke-width="1.0" stroke-linecap="butt" d="M62.5 347.5L703.5 347.5" fill-rule="nonzero"/><path stroke="#cccccc" stroke-width="1.0" stroke-linecap="butt" d="M62.5 242.5L703.5 242.5" fill-rule="nonzero"/><path stroke="#cccccc" stroke-width="1.0" stroke-linecap="butt" d="M62.5 137.5L703.5 137.5" fill-rule="nonzero"/><path stroke="#cccccc" stroke-width="1.0" stroke-linecap="butt" d="M62.5 31.5L703.5 31.5" fill-rule="nonzero"/><clipPath id="id_0"><path d="M62.9 31.9L703.68 31.9L703.68 453.1L62.9 453.1L62.9 31.9Z" clip-rule="nonzero"/></clipPath><path stroke="#000000" stroke-width="2.0" stroke-linecap="butt" stroke-opacity="0.0" clip-path="url(#id_0)" d="M183.0 453.0L105.0 453.0L105.0 453.0L183.0 453.0Z" fill-rule="nonzero"/><path fill="#38761d" clip-path="url(#id_0)" d="M183.0 453.0L105.0 453.0L105.0 453.0L183.0 453.0Z" fill-rule="nonzero"/><path stroke="#000000" stroke-width="2.0" stroke-linecap="butt" stroke-opacity="0.0" clip-path="url(#id_0)" d="M303.0 453.0L225.0 453.0L225.0 453.0L303.0 453.0Z" fill-rule="nonzero"/><path fill="#38761d" clip-path="url(#id_0)" d="M303.0 453.0L225.0 453.0L225.0 453.0L303.0 453.0Z" fill-rule="nonzero"/><path stroke="#000000" stroke-width="2.0" stroke-linecap="butt" stroke-opacity="0.0" clip-path="url(#id_0)" d="M422.0 453.0L344.0 453.0L344.0 453.0L422.0 453.0Z" fill-rule="nonzero"/><path fill="#38761d" clip-path="url(#id_0)" d="M422.0 453.0L344.0 453.0L344.0 453.0L422.0 453.0Z" fill-rule="nonzero"/><path stroke="#000000" stroke-width="2.0" stroke-linecap="butt" stroke-opacity="0.0" clip-path="url(#id_0)" d="M542.0 453.0L464.0 453.0L464.0 453.0L542.0 453.0Z" fill-rule="nonzero"/><path fill="#38761d" clip-path="url(#id_0)" d="M542.0 453.0L464.0 453.0L464.0 453.0L542.0 453.0Z" fill-rule="nonzero"/><path stroke="#000000" stroke-width="2.0" stroke-linecap="butt" stroke-opacity="0.0" clip-path="url(#id_0)" d="M662.0 453.0L584.0 453.0L584.0 453.0L662.0 453.0Z" fill-rule="nonzero"/><path fill="#38761d" clip-path="url(#id_0)" d="M662.0 453.0L584.0 453.0L584.0 453.0L662.0 453.0Z" fill-rule="nonzero"/><path stroke="#000000" stroke-width="2.0" stroke-linecap="butt" stroke-opacity="0.0" clip-path="url(#id_0)" d="M183.0 453.0L105.0 453.0L105.0 453.0L183.0 453.0Z" fill-rule="nonzero"/><path fill="#6aa84f" clip-path="url(#id_0)" d="M183.0 453.0L105.0 453.0L105.0 453.0L183.0 453.0Z" fill-rule="nonzero"/><path stroke="#000000" stroke-width="2.0" stroke-linecap="butt" stroke-opacity="0.0" clip-path="url(#id_0)" d="M303.0 453.0L225.0 453.0L225.0 453.0L303.0 453.0Z" fill-rule="nonzero"/><path fill="#6aa84f" clip-path="url(#id_0)" d="M303.0 453.0L225.0 453.0L225.0 453.0L303.0 453.0Z" fill-rule="nonzero"/><path stroke="#000000" stroke-width="2.0" stroke-linecap="butt" stroke-opacity="0.0" clip-path="url(#id_0)" d="M422.0 453.0L344.0 453.0L344.0 453.0L422.0 453.0Z" fill-rule="nonzero"/><path fill="#6aa84f" clip-path="url(#id_0)" d="M422.0 453.0L344.0 453.0L344.0 453.0L422.0 453.0Z" fill-rule="nonzero"/><path stroke="#000000" stroke-width="2.0" stroke-linecap="butt" stroke-opacity="0.0" clip-path="url(#id_0)" d="M542.0 453.0L464.0 453.0L464.0 411.0L542.0 411.0Z" fill-rule="nonzero"/><path fill="#6aa84f" clip-path="url(#id_0)" d="M542.0 453.0L464.0 453.0L464.0 411.0L542.0 411.0Z" fill-rule="nonzero"/><path stroke="#000000" stroke-width="2.0" stroke-linecap="butt" stroke-opacity="0.0" clip-path="url(#id_0)" d="M662.0 453.0L584.0 453.0L584.0 392.0L662.0 392.0Z" fill-rule="nonzero"/><path fill="#6aa84f" clip-path="url(#id_0)" d="M662.0 453.0L584.0 453.0L584.0 392.0L662.0 392.0Z" fill-rule="nonzero"/><path stroke="#000000" stroke-width="2.0" stroke-linecap="butt" stroke-opacity="0.0" clip-path="url(#id_0)" d="M183.0 453.0L105.0 453.0L105.0 453.0L183.0 453.0Z" fill-rule="nonzero"/><path fill="#93c47d" clip-path="url(#id_0)" d="M183.0 453.0L105.0 453.0L105.0 453.0L183.0 453.0Z" fill-rule="nonzero"/><path stroke="#000000" stroke-width="2.0" stroke-linecap="butt" stroke-opacity="0.0" clip-path="url(#id_0)" d="M303.0 453.0L225.0 453.0L225.0 396.0L303.0 396.0Z" fill-rule="nonzero"/><path fill="#93c47d" clip-path="url(#id_0)" d="M303.0 453.0L225.0 453.0L225.0 396.0L303.0 396.0Z" fill-rule="nonzero"/><path stroke="#000000" stroke-width="2.0" stroke-linecap="butt" stroke-opacity="0.0" clip-path="url(#id_0)" d="M422.0 453.0L344.0 453.0L344.0 396.0L422.0 396.0Z" fill-rule="nonzero"/><path fill="#93c47d" clip-path="url(#id_0)" d="M422.0 453.0L344.0 453.0L344.0 396.0L422.0 396.0Z" fill-rule="nonzero"/><path stroke="#000000" stroke-width="2.0" stroke-linecap="butt" stroke-opacity="0.0" clip-path="url(#id_0)" d="M542.0 411.0L464.0 411.0L464.0 363.0L542.0 363.0Z" fill-rule="nonzero"/><path fill="#93c47d" clip-path="url(#id_0)" d="M542.0 411.0L464.0 411.0L464.0 363.0L542.0 363.0Z" fill-rule="nonzero"/><path stroke="#000000" stroke-width="2.0" stroke-linecap="butt" stroke-opacity="0.0" clip-path="url(#id_0)" d="M662.0 392.0L584.0 392.0L584.0 323.0L662.0 323.0Z" fill-rule="nonzero"/><path fill="#93c47d" clip-path="url(#id_0)" d="M662.0 392.0L584.0 392.0L584.0 323.0L662.0 323.0Z" fill-rule="nonzero"/><path stroke="#000000" stroke-width="2.0" stroke-linecap="butt" stroke-opacity="0.0" clip-path="url(#id_0)" d="M183.0 453.0L105.0 453.0L105.0 380.0L183.0 380.0Z" fill-rule="nonzero"/><path fill="#b6d7a8" clip-path="url(#id_0)" d="M183.0 453.0L105.0 453.0L105.0 380.0L183.0 380.0Z" fill-rule="nonzero"/><path stroke="#000000" stroke-width="2.0" stroke-linecap="butt" stroke-opacity="0.0" clip-path="url(#id_0)" d="M303.0 396.0L225.0 396.0L225.0 353.0L303.0 353.0Z" fill-rule="nonzero"/><path fill="#b6d7a8" clip-path="url(#id_0)" d="M303.0 396.0L225.0 396.0L225.0 353.0L303.0 353.0Z" fill-rule="nonzero"/><path stroke="#000000" stroke-width="2.0" stroke-linecap="butt" stroke-opacity="0.0" clip-path="url(#id_0)" d="M422.0 396.0L344.0 396.0L344.0 353.0L422.0 353.0Z" fill-rule="nonzero"/><path fill="#b6d7a8" clip-path="url(#id_0)" d="M422.0 396.0L344.0 396.0L344.0 353.0L422.0 353.0Z" fill-rule="nonzero"/><path stroke="#000000" stroke-width="2.0" stroke-linecap="butt" stroke-opacity="0.0" clip-path="url(#id_0)" d="M542.0 363.0L464.0 363.0L464.0 298.0L542.0 298.0Z" fill-rule="nonzero"/><path fill="#b6d7a8" clip-path="url(#id_0)" d="M542.0 363.0L464.0 363.0L464.0 298.0L542.0 298.0Z" fill-rule="nonzero"/><path stroke="#000000" stroke-width="2.0" stroke-linecap="butt" stroke-opacity="0.0" clip-path="url(#id_0)" d="M662.0 323.0L584.0 323.0L584.0 267.0L662.0 267.0Z" fill-rule="nonzero"/><path fill="#b6d7a8" clip-path="url(#id_0)" d="M662.0 323.0L584.0 323.0L584.0 267.0L662.0 267.0Z" fill-rule="nonzero"/><path stroke="#000000" stroke-width="2.0" stroke-linecap="butt" stroke-opacity="0.0" clip-path="url(#id_0)" d="M183.0 380.0L105.0 380.0L105.0 349.0L183.0 349.0Z" fill-rule="nonzero"/><path fill="#0b5394" clip-path="url(#id_0)" d="M183.0 380.0L105.0 380.0L105.0 349.0L183.0 349.0Z" fill-rule="nonzero"/><path stroke="#000000" stroke-width="2.0" stroke-linecap="butt" stroke-opacity="0.0" clip-path="url(#id_0)" d="M303.0 353.0L225.0 353.0L225.0 314.0L303.0 314.0Z" fill-rule="nonzero"/><path fill="#0b5394" clip-path="url(#id_0)" d="M303.0 353.0L225.0 353.0L225.0 314.0L303.0 314.0Z" fill-rule="nonzero"/><path stroke="#000000" stroke-width="2.0" stroke-linecap="butt" stroke-opacity="0.0" clip-path="url(#id_0)" d="M422.0 353.0L344.0 353.0L344.0 314.0L422.0 314.0Z" fill-rule="nonzero"/><path fill="#0b5394" clip-path="url(#id_0)" d="M422.0 353.0L344.0 353.0L344.0 314.0L422.0 314.0Z" fill-rule="nonzero"/><path stroke="#000000" stroke-width="2.0" stroke-linecap="butt" stroke-opacity="0.0" clip-path="url(#id_0)" d="M542.0 298.0L464.0 298.0L464.0 254.0L542.0 254.0Z" fill-rule="nonzero"/><path fill="#0b5394" clip-path="url(#id_0)" d="M542.0 298.0L464.0 298.0L464.0 254.0L542.0 254.0Z" fill-rule="nonzero"/><path stroke="#000000" stroke-width="2.0" stroke-linecap="butt" stroke-opacity="0.0" clip-path="url(#id_0)" d="M662.0 267.0L584.0 267.0L584.0 227.0L662.0 227.0Z" fill-rule="nonzero"/><path fill="#0b5394" clip-path="url(#id_0)" d="M662.0 267.0L584.0 267.0L584.0 227.0L662.0 227.0Z" fill-rule="nonzero"/><path stroke="#000000" stroke-width="2.0" stroke-linecap="butt" stroke-opacity="0.0" clip-path="url(#id_0)" d="M183.0 349.0L105.0 349.0L105.0 296.0L183.0 296.0Z" fill-rule="nonzero"/><path fill="#3d85c6" clip-path="url(#id_0)" d="M183.0 349.0L105.0 349.0L105.0 296.0L183.0 296.0Z" fill-rule="nonzero"/><path stroke="#000000" stroke-width="2.0" stroke-linecap="butt" stroke-opacity="0.0" clip-path="url(#id_0)" d="M303.0 314.0L225.0 314.0L225.0 267.0L303.0 267.0Z" fill-rule="nonzero"/><path fill="#3d85c6" clip-path="url(#id_0)" d="M303.0 314.0L225.0 314.0L225.0 267.0L303.0 267.0Z" fill-rule="nonzero"/><path stroke="#000000" stroke-width="2.0" stroke-linecap="butt" stroke-opacity="0.0" clip-path="url(#id_0)" d="M422.0 314.0L344.0 314.0L344.0 267.0L422.0 267.0Z" fill-rule="nonzero"/><path fill="#3d85c6" clip-path="url(#id_0)" d="M422.0 314.0L344.0 314.0L344.0 267.0L422.0 267.0Z" fill-rule="nonzero"/><path stroke="#000000" stroke-width="2.0" stroke-linecap="butt" stroke-opacity="0.0" clip-path="url(#id_0)" d="M542.0 254.0L464.0 254.0L464.0 229.0L542.0 229.0Z" fill-rule="nonzero"/><path fill="#3d85c6" clip-path="url(#id_0)" d="M542.0 254.0L464.0 254.0L464.0 229.0L542.0 229.0Z" fill-rule="nonzero"/><path stroke="#000000" stroke-width="2.0" stroke-linecap="butt" stroke-opacity="0.0" clip-path="url(#id_0)" d="M662.0 227.0L584.0 227.0L584.0 205.0L662.0 205.0Z" fill-rule="nonzero"/><path fill="#3d85c6" clip-path="url(#id_0)" d="M662.0 227.0L584.0 227.0L584.0 205.0L662.0 205.0Z" fill-rule="nonzero"/><path stroke="#000000" stroke-width="2.0" stroke-linecap="butt" stroke-opacity="0.0" clip-path="url(#id_0)" d="M183.0 296.0L105.0 296.0L105.0 235.0L183.0 235.0Z" fill-rule="nonzero"/><path fill="#6fa8dc" clip-path="url(#id_0)" d="M183.0 296.0L105.0 296.0L105.0 235.0L183.0 235.0Z" fill-rule="nonzero"/><path stroke="#000000" stroke-width="2.0" stroke-linecap="butt" stroke-opacity="0.0" clip-path="url(#id_0)" d="M303.0 267.0L225.0 267.0L225.0 208.0L303.0 208.0Z" fill-rule="nonzero"/><path fill="#6fa8dc" clip-path="url(#id_0)" d="M303.0 267.0L225.0 267.0L225.0 208.0L303.0 208.0Z" fill-rule="nonzero"/><path stroke="#000000" stroke-width="2.0" stroke-linecap="butt" stroke-opacity="0.0" clip-path="url(#id_0)" d="M422.0 267.0L344.0 267.0L344.0 208.0L422.0 208.0Z" fill-rule="nonzero"/><path fill="#6fa8dc" clip-path="url(#id_0)" d="M422.0 267.0L344.0 267.0L344.0 208.0L422.0 208.0Z" fill-rule="nonzero"/><path stroke="#000000" stroke-width="2.0" stroke-linecap="butt" stroke-opacity="0.0" clip-path="url(#id_0)" d="M542.0 229.0L464.0 229.0L464.0 169.0L542.0 169.0Z" fill-rule="nonzero"/><path fill="#6fa8dc" clip-path="url(#id_0)" d="M542.0 229.0L464.0 229.0L464.0 169.0L542.0 169.0Z" fill-rule="nonzero"/><path stroke="#000000" stroke-width="2.0" stroke-linecap="butt" stroke-opacity="0.0" clip-path="url(#id_0)" d="M662.0 205.0L584.0 205.0L584.0 150.0L662.0 150.0Z" fill-rule="nonzero"/><path fill="#6fa8dc" clip-path="url(#id_0)" d="M662.0 205.0L584.0 205.0L584.0 150.0L662.0 150.0Z" fill-rule="nonzero"/><path stroke="#000000" stroke-width="2.0" stroke-linecap="butt" stroke-opacity="0.0" clip-path="url(#id_0)" d="M183.0 235.0L105.0 235.0L105.0 149.0L183.0 149.0Z" fill-rule="nonzero"/><path fill="#9fc5e8" clip-path="url(#id_0)" d="M183.0 235.0L105.0 235.0L105.0 149.0L183.0 149.0Z" fill-rule="nonzero"/><path stroke="#000000" stroke-width="2.0" stroke-linecap="butt" stroke-opacity="0.0" clip-path="url(#id_0)" d="M303.0 208.0L225.0 208.0L225.0 138.0L303.0 138.0Z" fill-rule="nonzero"/><path fill="#9fc5e8" clip-path="url(#id_0)" d="M303.0 208.0L225.0 208.0L225.0 138.0L303.0 138.0Z" fill-rule="nonzero"/><path stroke="#000000" stroke-width="2.0" stroke-linecap="butt" stroke-opacity="0.0" clip-path="url(#id_0)" d="M422.0 208.0L344.0 208.0L344.0 138.0L422.0 138.0Z" fill-rule="nonzero"/><path fill="#9fc5e8" clip-path="url(#id_0)" d="M422.0 208.0L344.0 208.0L344.0 138.0L422.0 138.0Z" fill-rule="nonzero"/><path stroke="#000000" stroke-width="2.0" stroke-linecap="butt" stroke-opacity="0.0" clip-path="url(#id_0)" d="M542.0 169.0L464.0 169.0L464.0 113.0L542.0 113.0Z" fill-rule="nonzero"/><path fill="#9fc5e8" clip-path="url(#id_0)" d="M542.0 169.0L464.0 169.0L464.0 113.0L542.0 113.0Z" fill-rule="nonzero"/><path stroke="#000000" stroke-width="2.0" stroke-linecap="butt" stroke-opacity="0.0" clip-path="url(#id_0)" d="M662.0 150.0L584.0 150.0L584.0 105.0L662.0 105.0Z" fill-rule="nonzero"/><path fill="#9fc5e8" clip-path="url(#id_0)" d="M662.0 150.0L584.0 150.0L584.0 105.0L662.0 105.0Z" fill-rule="nonzero"/><path stroke="#000000" stroke-width="2.0" stroke-linecap="butt" stroke-opacity="0.0" clip-path="url(#id_0)" d="M183.0 149.0L105.0 149.0L105.0 135.0L183.0 135.0Z" fill-rule="nonzero"/><path fill="#c9daf8" clip-path="url(#id_0)" d="M183.0 149.0L105.0 149.0L105.0 135.0L183.0 135.0Z" fill-rule="nonzero"/><path stroke="#000000" stroke-width="2.0" stroke-linecap="butt" stroke-opacity="0.0" clip-path="url(#id_0)" d="M303.0 138.0L225.0 138.0L225.0 125.0L303.0 125.0Z" fill-rule="nonzero"/><path fill="#c9daf8" clip-path="url(#id_0)" d="M303.0 138.0L225.0 138.0L225.0 125.0L303.0 125.0Z" fill-rule="nonzero"/><path stroke="#000000" stroke-width="2.0" stroke-linecap="butt" stroke-opacity="0.0" clip-path="url(#id_0)" d="M422.0 138.0L344.0 138.0L344.0 125.0L422.0 125.0Z" fill-rule="nonzero"/><path fill="#c9daf8" clip-path="url(#id_0)" d="M422.0 138.0L344.0 138.0L344.0 125.0L422.0 125.0Z" fill-rule="nonzero"/><path stroke="#000000" stroke-width="2.0" stroke-linecap="butt" stroke-opacity="0.0" clip-path="url(#id_0)" d="M542.0 113.0L464.0 113.0L464.0 102.0L542.0 102.0Z" fill-rule="nonzero"/><path fill="#c9daf8" clip-path="url(#id_0)" d="M542.0 113.0L464.0 113.0L464.0 102.0L542.0 102.0Z" fill-rule="nonzero"/><path stroke="#000000" stroke-width="2.0" stroke-linecap="butt" stroke-opacity="0.0" clip-path="url(#id_0)" d="M662.0 105.0L584.0 105.0L584.0 94.0L662.0 94.0Z" fill-rule="nonzero"/><path fill="#c9daf8" clip-path="url(#id_0)" d="M662.0 105.0L584.0 105.0L584.0 94.0L662.0 94.0Z" fill-rule="nonzero"/><path stroke="#000000" stroke-width="2.0" stroke-linecap="butt" stroke-opacity="0.0" clip-path="url(#id_0)" d="M183.0 135.0L105.0 135.0L105.0 113.0L183.0 113.0Z" fill-rule="nonzero"/><path fill="#990000" clip-path="url(#id_0)" d="M183.0 135.0L105.0 135.0L105.0 113.0L183.0 113.0Z" fill-rule="nonzero"/><path stroke="#000000" stroke-width="2.0" stroke-linecap="butt" stroke-opacity="0.0" clip-path="url(#id_0)" d="M303.0 125.0L225.0 125.0L225.0 106.0L303.0 106.0Z" fill-rule="nonzero"/><path fill="#990000" clip-path="url(#id_0)" d="M303.0 125.0L225.0 125.0L225.0 106.0L303.0 106.0Z" fill-rule="nonzero"/><path stroke="#000000" stroke-width="2.0" stroke-linecap="butt" stroke-opacity="0.0" clip-path="url(#id_0)" d="M422.0 125.0L344.0 125.0L344.0 106.0L422.0 106.0Z" fill-rule="nonzero"/><path fill="#990000" clip-path="url(#id_0)" d="M422.0 125.0L344.0 125.0L344.0 106.0L422.0 106.0Z" fill-rule="nonzero"/><path stroke="#000000" stroke-width="2.0" stroke-linecap="butt" stroke-opacity="0.0" clip-path="url(#id_0)" d="M542.0 102.0L464.0 102.0L464.0 88.0L542.0 88.0Z" fill-rule="nonzero"/><path fill="#990000" clip-path="url(#id_0)" d="M542.0 102.0L464.0 102.0L464.0 88.0L542.0 88.0Z" fill-rule="nonzero"/><path stroke="#000000" stroke-width="2.0" stroke-linecap="butt" stroke-opacity="0.0" clip-path="url(#id_0)" d="M662.0 94.0L584.0 94.0L584.0 81.0L662.0 81.0Z" fill-rule="nonzero"/><path fill="#990000" clip-path="url(#id_0)" d="M662.0 94.0L584.0 94.0L584.0 81.0L662.0 81.0Z" fill-rule="nonzero"/><path stroke="#000000" stroke-width="2.0" stroke-linecap="butt" stroke-opacity="0.0" clip-path="url(#id_0)" d="M183.0 113.0L105.0 113.0L105.0 94.0L183.0 94.0Z" fill-rule="nonzero"/><path fill="#cc0000" clip-path="url(#id_0)" d="M183.0 113.0L105.0 113.0L105.0 94.0L183.0 94.0Z" fill-rule="nonzero"/><path stroke="#000000" stroke-width="2.0" stroke-linecap="butt" stroke-opacity="0.0" clip-path="url(#id_0)" d="M303.0 106.0L225.0 106.0L225.0 90.0L303.0 90.0Z" fill-rule="nonzero"/><path fill="#cc0000" clip-path="url(#id_0)" d="M303.0 106.0L225.0 106.0L225.0 90.0L303.0 90.0Z" fill-rule="nonzero"/><path stroke="#000000" stroke-width="2.0" stroke-linecap="butt" stroke-opacity="0.0" clip-path="url(#id_0)" d="M422.0 106.0L344.0 106.0L344.0 90.0L422.0 90.0Z" fill-rule="nonzero"/><path fill="#cc0000" clip-path="url(#id_0)" d="M422.0 106.0L344.0 106.0L344.0 90.0L422.0 90.0Z" fill-rule="nonzero"/><path stroke="#000000" stroke-width="2.0" stroke-linecap="butt" stroke-opacity="0.0" clip-path="url(#id_0)" d="M542.0 88.0L464.0 88.0L464.0 78.0L542.0 78.0Z" fill-rule="nonzero"/><path fill="#cc0000" clip-path="url(#id_0)" d="M542.0 88.0L464.0 88.0L464.0 78.0L542.0 78.0Z" fill-rule="nonzero"/><path stroke="#000000" stroke-width="2.0" stroke-linecap="butt" stroke-opacity="0.0" clip-path="url(#id_0)" d="M662.0 81.0L584.0 81.0L584.0 74.0L662.0 74.0Z" fill-rule="nonzero"/><path fill="#cc0000" clip-path="url(#id_0)" d="M662.0 81.0L584.0 81.0L584.0 74.0L662.0 74.0Z" fill-rule="nonzero"/><path stroke="#000000" stroke-width="2.0" stroke-linecap="butt" stroke-opacity="0.0" clip-path="url(#id_0)" d="M183.0 94.0L105.0 94.0L105.0 74.0L183.0 74.0Z" fill-rule="nonzero"/><path fill="#e06666" clip-path="url(#id_0)" d="M183.0 94.0L105.0 94.0L105.0 74.0L183.0 74.0Z" fill-rule="nonzero"/><path stroke="#000000" stroke-width="2.0" stroke-linecap="butt" stroke-opacity="0.0" clip-path="url(#id_0)" d="M303.0 90.0L225.0 90.0L225.0 72.0L303.0 72.0Z" fill-rule="nonzero"/><path fill="#e06666" clip-path="url(#id_0)" d="M303.0 90.0L225.0 90.0L225.0 72.0L303.0 72.0Z" fill-rule="nonzero"/><path stroke="#000000" stroke-width="2.0" stroke-linecap="butt" stroke-opacity="0.0" clip-path="url(#id_0)" d="M422.0 90.0L344.0 90.0L344.0 72.0L422.0 72.0Z" fill-rule="nonzero"/><path fill="#e06666" clip-path="url(#id_0)" d="M422.0 90.0L344.0 90.0L344.0 72.0L422.0 72.0Z" fill-rule="nonzero"/><path stroke="#000000" stroke-width="2.0" stroke-linecap="butt" stroke-opacity="0.0" clip-path="url(#id_0)" d="M542.0 78.0L464.0 78.0L464.0 64.0L542.0 64.0Z" fill-rule="nonzero"/><path fill="#e06666" clip-path="url(#id_0)" d="M542.0 78.0L464.0 78.0L464.0 64.0L542.0 64.0Z" fill-rule="nonzero"/><path stroke="#000000" stroke-width="2.0" stroke-linecap="butt" stroke-opacity="0.0" clip-path="url(#id_0)" d="M662.0 74.0L584.0 74.0L584.0 61.0L662.0 61.0Z" fill-rule="nonzero"/><path fill="#e06666" clip-path="url(#id_0)" d="M662.0 74.0L584.0 74.0L584.0 61.0L662.0 61.0Z" fill-rule="nonzero"/><path stroke="#000000" stroke-width="2.0" stroke-linecap="butt" stroke-opacity="0.0" clip-path="url(#id_0)" d="M183.0 74.0L105.0 74.0L105.0 36.0L183.0 36.0Z" fill-rule="nonzero"/><path fill="#ea9999" clip-path="url(#id_0)" d="M183.0 74.0L105.0 74.0L105.0 36.0L183.0 36.0Z" fill-rule="nonzero"/><path stroke="#000000" stroke-width="2.0" stroke-linecap="butt" stroke-opacity="0.0" clip-path="url(#id_0)" d="M303.0 72.0L225.0 72.0L225.0 36.0L303.0 36.0Z" fill-rule="nonzero"/><path fill="#ea9999" clip-path="url(#id_0)" d="M303.0 72.0L225.0 72.0L225.0 36.0L303.0 36.0Z" fill-rule="nonzero"/><path stroke="#000000" stroke-width="2.0" stroke-linecap="butt" stroke-opacity="0.0" clip-path="url(#id_0)" d="M422.0 72.0L344.0 72.0L344.0 36.0L422.0 36.0Z" fill-rule="nonzero"/><path fill="#ea9999" clip-path="url(#id_0)" d="M422.0 72.0L344.0 72.0L344.0 36.0L422.0 36.0Z" fill-rule="nonzero"/><path stroke="#000000" stroke-width="2.0" stroke-linecap="butt" stroke-opacity="0.0" clip-path="url(#id_0)" d="M542.0 64.0L464.0 64.0L464.0 35.0L542.0 35.0Z" fill-rule="nonzero"/><path fill="#ea9999" clip-path="url(#id_0)" d="M542.0 64.0L464.0 64.0L464.0 35.0L542.0 35.0Z" fill-rule="nonzero"/><path stroke="#000000" stroke-width="2.0" stroke-linecap="butt" stroke-opacity="0.0" clip-path="url(#id_0)" d="M662.0 61.0L584.0 61.0L584.0 35.0L662.0 35.0Z" fill-rule="nonzero"/><path fill="#ea9999" clip-path="url(#id_0)" d="M662.0 61.0L584.0 61.0L584.0 35.0L662.0 35.0Z" fill-rule="nonzero"/><path stroke="#000000" stroke-width="2.0" stroke-linecap="butt" stroke-opacity="0.0" clip-path="url(#id_0)" d="M183.0 36.0L105.0 36.0L105.0 34.0C105.0 32.89543 105.89543 32.0 107.0 32.0L181.0 32.0C182.10457 32.0 183.0 32.89543 183.0 34.0Z" fill-rule="nonzero"/><path fill="#f4cccc" clip-path="url(#id_0)" d="M183.0 36.0L105.0 36.0L105.0 34.0C105.0 32.89543 105.89543 32.0 107.0 32.0L181.0 32.0C182.10457 32.0 183.0 32.89543 183.0 34.0Z" fill-rule="nonzero"/><path stroke="#000000" stroke-width="2.0" stroke-linecap="butt" stroke-opacity="0.0" clip-path="url(#id_0)" d="M303.0 36.0L225.0 36.0L225.0 34.0C225.0 32.89543 225.89543 32.0 227.0 32.0L301.0 32.0C302.10458 32.0 303.0 32.89543 303.0 34.0Z" fill-rule="nonzero"/><path fill="#f4cccc" clip-path="url(#id_0)" d="M303.0 36.0L225.0 36.0L225.0 34.0C225.0 32.89543 225.89543 32.0 227.0 32.0L301.0 32.0C302.10458 32.0 303.0 32.89543 303.0 34.0Z" fill-rule="nonzero"/><path stroke="#000000" stroke-width="2.0" stroke-linecap="butt" stroke-opacity="0.0" clip-path="url(#id_0)" d="M422.0 36.0L344.0 36.0L344.0 34.0C344.0 32.89543 344.89542 32.0 346.0 32.0L420.0 32.0C421.10458 32.0 422.0 32.89543 422.0 34.0Z" fill-rule="nonzero"/><path fill="#f4cccc" clip-path="url(#id_0)" d="M422.0 36.0L344.0 36.0L344.0 34.0C344.0 32.89543 344.89542 32.0 346.0 32.0L420.0 32.0C421.10458 32.0 422.0 32.89543 422.0 34.0Z" fill-rule="nonzero"/><path stroke="#000000" stroke-width="2.0" stroke-linecap="butt" stroke-opacity="0.0" clip-path="url(#id_0)" d="M542.0 35.0L464.0 35.0L464.0 33.5C464.0 32.671574 464.67157 32.0 465.5 32.0L540.5 32.0C541.3284 32.0 542.0 32.671574 542.0 33.5Z" fill-rule="nonzero"/><path fill="#f4cccc" clip-path="url(#id_0)" d="M542.0 35.0L464.0 35.0L464.0 33.5C464.0 32.671574 464.67157 32.0 465.5 32.0L540.5 32.0C541.3284 32.0 542.0 32.671574 542.0 33.5Z" fill-rule="nonzero"/><path stroke="#000000" stroke-width="2.0" stroke-linecap="butt" stroke-opacity="0.0" clip-path="url(#id_0)" d="M662.0 35.0L584.0 35.0L584.0 33.5C584.0 32.671574 584.6716 32.0 585.5 32.0L660.5 32.0C661.3284 32.0 662.0 32.671574 662.0 33.5Z" fill-rule="nonzero"/><path fill="#f4cccc" clip-path="url(#id_0)" d="M662.0 35.0L584.0 35.0L584.0 33.5C584.0 32.671574 584.6716 32.0 585.5 32.0L660.5 32.0C661.3284 32.0 662.0 32.671574 662.0 33.5Z" fill-rule="nonzero"/><path fill="#000000" d="M39.4 452.86563Q39.4 451.33438 39.7125 450.4125Q40.025 449.475 40.634377 448.975Q41.259377 448.475 42.196877 448.475Q42.884377 448.475 43.4 448.75626Q43.93125 449.0375 44.275 449.56876Q44.61875 450.08438 44.80625 450.83438Q44.99375 451.58438 44.99375 452.86563Q44.99375 454.38126 44.68125 455.30313Q44.384377 456.225 43.759377 456.74063Q43.15 457.24063 42.196877 457.24063Q40.9625 457.24063 40.24375 456.35Q39.4 455.2875 39.4 452.86563ZM40.478127 452.86563Q40.478127 454.975 40.978127 455.67813Q41.478127 456.38126 42.196877 456.38126Q42.93125 456.38126 43.415627 455.67813Q43.915627 454.975 43.915627 452.86563Q43.915627 450.74063 43.415627 450.05313Q42.93125 449.35 42.18125 449.35Q41.4625 449.35 41.025 449.95938Q40.478127 450.74063 40.478127 452.86563ZM46.603127 450.56876Q46.603127 449.64688 47.05625 449.00626Q47.525 448.36563 48.4 448.36563Q49.2125 448.36563 49.74375 448.94376Q50.275 449.52188 50.275 450.63126Q50.275 451.725 49.728127 452.31876Q49.196877 452.89688 48.415627 452.89688Q47.634377 452.89688 47.11875 452.31876Q46.603127 451.74063 46.603127 450.56876ZM48.43125 449.08438Q48.040627 449.08438 47.775 449.42813Q47.525 449.77188 47.525 450.67813Q47.525 451.50626 47.775 451.85Q48.040627 452.17813 48.43125 452.17813Q48.8375 452.17813 49.0875 451.83438Q49.353127 451.49063 49.353127 450.6Q49.353127 449.75626 49.0875 449.42813Q48.821877 449.08438 48.43125 449.08438ZM48.43125 457.4125L53.134377 448.36563L53.99375 448.36563L49.30625 457.4125L48.43125 457.4125ZM52.15 455.08438Q52.15 454.1625 52.603127 453.52188Q53.071877 452.88126 53.9625 452.88126Q54.775 452.88126 55.30625 453.45938Q55.8375 454.02188 55.8375 455.14688Q55.8375 456.24063 55.290627 456.83438Q54.759377 457.4125 53.9625 457.4125Q53.196877 457.4125 52.665627 456.83438Q52.15 456.25626 52.15 455.08438ZM53.99375 453.6Q53.5875 453.6 53.321877 453.94376Q53.071877 454.2875 53.071877 455.19376Q53.071877 456.00626 53.3375 456.35Q53.603127 456.69376 53.99375 456.69376Q54.384377 456.69376 54.65 456.35Q54.915627 456.00626 54.915627 455.1Q54.915627 454.27188 54.65 453.94376Q54.384377 453.6 53.99375 453.6Z" fill-rule="nonzero"/><path fill="#000000" d="M37.946877 350.78436L37.946877 351.8L32.259377 351.8Q32.259377 351.425 32.384377 351.0656Q32.603127 350.4875 33.071877 349.925Q33.55625 349.3625 34.4625 348.6281Q35.86875 347.47186 36.353127 346.8Q36.853127 346.1281 36.853127 345.53436Q36.853127 344.90936 36.4 344.4875Q35.946877 344.05 35.228127 344.05Q34.4625 344.05 34.009377 344.5031Q33.55625 344.95624 33.540627 345.76874L32.4625 345.65936Q32.571877 344.4406 33.290627 343.8156Q34.025 343.175 35.259377 343.175Q36.49375 343.175 37.2125 343.8625Q37.93125 344.55 37.93125 345.5656Q37.93125 346.08124 37.7125 346.58124Q37.509377 347.0656 37.009377 347.6281Q36.525 348.175 35.4 349.1281Q34.446877 349.925 34.165627 350.22186Q33.9 350.5031 33.728127 350.78436L37.946877 350.78436ZM39.4 349.55L40.509377 349.45624Q40.634377 350.26874 41.071877 350.675Q41.525 351.08124 42.165627 351.08124Q42.915627 351.08124 43.446877 350.5031Q43.978127 349.925 43.978127 348.9875Q43.978127 348.08124 43.4625 347.5656Q42.9625 347.03436 42.134377 347.03436Q41.634377 347.03436 41.2125 347.26874Q40.80625 347.5031 40.571877 347.8625L39.5875 347.7375L40.415627 343.33124L44.696877 343.33124L44.696877 344.33124L41.259377 344.33124L40.80625 346.64374Q41.571877 346.09686 42.415627 346.09686Q43.540627 346.09686 44.30625 346.8781Q45.0875 347.65936 45.0875 348.89374Q45.0875 350.05 44.415627 350.90936Q43.5875 351.9406 42.165627 351.9406Q40.99375 351.9406 40.24375 351.28436Q39.509377 350.6281 39.4 349.55ZM46.603127 345.26874Q46.603127 344.34686 47.05625 343.70624Q47.525 343.0656 48.4 343.0656Q49.2125 343.0656 49.74375 343.64374Q50.275 344.22186 50.275 345.33124Q50.275 346.425 49.728127 347.01874Q49.196877 347.59686 48.415627 347.59686Q47.634377 347.59686 47.11875 347.01874Q46.603127 346.4406 46.603127 345.26874ZM48.43125 343.78436Q48.040627 343.78436 47.775 344.1281Q47.525 344.47186 47.525 345.3781Q47.525 346.20624 47.775 346.55Q48.040627 346.8781 48.43125 346.8781Q48.8375 346.8781 49.0875 346.53436Q49.353127 346.1906 49.353127 345.3Q49.353127 344.45624 49.0875 344.1281Q48.821877 343.78436 48.43125 343.78436ZM48.43125 352.1125L53.134377 343.0656L53.99375 343.0656L49.30625 352.1125L48.43125 352.1125ZM52.15 349.78436Q52.15 348.8625 52.603127 348.22186Q53.071877 347.58124 53.9625 347.58124Q54.775 347.58124 55.30625 348.15936Q55.8375 348.72186 55.8375 349.84686Q55.8375 350.9406 55.290627 351.53436Q54.759377 352.1125 53.9625 352.1125Q53.196877 352.1125 52.665627 351.53436Q52.15 350.95624 52.15 349.78436ZM53.99375 348.3Q53.5875 348.3 53.321877 348.64374Q53.071877 348.9875 53.071877 349.89374Q53.071877 350.70624 53.3375 351.05Q53.603127 351.39374 53.99375 351.39374Q54.384377 351.39374 54.65 351.05Q54.915627 350.70624 54.915627 349.8Q54.915627 348.97186 54.65 348.64374Q54.384377 348.3 53.99375 348.3Z" fill-rule="nonzero"/><path fill="#000000" d="M32.4 244.25L33.509377 244.15625Q33.634377 244.96875 34.071877 245.375Q34.525 245.78125 35.165627 245.78125Q35.915627 245.78125 36.446877 245.20312Q36.978127 244.625 36.978127 243.6875Q36.978127 242.78125 36.4625 242.26562Q35.9625 241.73438 35.134377 241.73438Q34.634377 241.73438 34.2125 241.96875Q33.80625 242.20312 33.571877 242.5625L32.5875 242.4375L33.415627 238.03125L37.696877 238.03125L37.696877 239.03125L34.259377 239.03125L33.80625 241.34375Q34.571877 240.79688 35.415627 240.79688Q36.540627 240.79688 37.30625 241.57812Q38.0875 242.35938 38.0875 243.59375Q38.0875 244.75 37.415627 245.60938Q36.5875 246.64062 35.165627 246.64062Q33.99375 246.64062 33.24375 245.98438Q32.509377 245.32812 32.4 244.25ZM39.4 242.26562Q39.4 240.73438 39.7125 239.8125Q40.025 238.875 40.634377 238.375Q41.259377 237.875 42.196877 237.875Q42.884377 237.875 43.4 238.15625Q43.93125 238.4375 44.275 238.96875Q44.61875 239.48438 44.80625 240.23438Q44.99375 240.98438 44.99375 242.26562Q44.99375 243.78125 44.68125 244.70312Q44.384377 245.625 43.759377 246.14062Q43.15 246.64062 42.196877 246.64062Q40.9625 246.64062 40.24375 245.75Q39.4 244.6875 39.4 242.26562ZM40.478127 242.26562Q40.478127 244.375 40.978127 245.07812Q41.478127 245.78125 42.196877 245.78125Q42.93125 245.78125 43.415627 245.07812Q43.915627 244.375 43.915627 242.26562Q43.915627 240.14062 43.415627 239.45312Q42.93125 238.75 42.18125 238.75Q41.4625 238.75 41.025 239.35938Q40.478127 240.14062 40.478127 242.26562ZM46.603127 239.96875Q46.603127 239.04688 47.05625 238.40625Q47.525 237.76562 48.4 237.76562Q49.2125 237.76562 49.74375 238.34375Q50.275 238.92188 50.275 240.03125Q50.275 241.125 49.728127 241.71875Q49.196877 242.29688 48.415627 242.29688Q47.634377 242.29688 47.11875 241.71875Q46.603127 241.14062 46.603127 239.96875ZM48.43125 238.48438Q48.040627 238.48438 47.775 238.82812Q47.525 239.17188 47.525 240.07812Q47.525 240.90625 47.775 241.25Q48.040627 241.57812 48.43125 241.57812Q48.8375 241.57812 49.0875 241.23438Q49.353127 240.89062 49.353127 240.0Q49.353127 239.15625 49.0875 238.82812Q48.821877 238.48438 48.43125 238.48438ZM48.43125 246.8125L53.134377 237.76562L53.99375 237.76562L49.30625 246.8125L48.43125 246.8125ZM52.15 244.48438Q52.15 243.5625 52.603127 242.92188Q53.071877 242.28125 53.9625 242.28125Q54.775 242.28125 55.30625 242.85938Q55.8375 243.42188 55.8375 244.54688Q55.8375 245.64062 55.290627 246.23438Q54.759377 246.8125 53.9625 246.8125Q53.196877 246.8125 52.665627 246.23438Q52.15 245.65625 52.15 244.48438ZM53.99375 243.0Q53.5875 243.0 53.321877 243.34375Q53.071877 243.6875 53.071877 244.59375Q53.071877 245.40625 53.3375 245.75Q53.603127 246.09375 53.99375 246.09375Q54.384377 246.09375 54.65 245.75Q54.915627 245.40625 54.915627 244.5Q54.915627 243.67188 54.65 243.34375Q54.384377 243.0 53.99375 243.0Z" fill-rule="nonzero"/><path fill="#000000" d="M32.4625 133.73125L32.4625 132.71562L38.025 132.71562L38.025 133.54375Q37.2125 134.41875 36.4 135.87187Q35.603127 137.30937 35.165627 138.84062Q34.8375 139.91875 34.759377 141.2L33.665627 141.2Q33.68125 140.18437 34.05625 138.74687Q34.446877 137.30937 35.15 135.98125Q35.86875 134.65312 36.68125 133.73125L32.4625 133.73125ZM39.4 138.95L40.509377 138.85625Q40.634377 139.66875 41.071877 140.075Q41.525 140.48125 42.165627 140.48125Q42.915627 140.48125 43.446877 139.90312Q43.978127 139.325 43.978127 138.3875Q43.978127 137.48125 43.4625 136.96562Q42.9625 136.43437 42.134377 136.43437Q41.634377 136.43437 41.2125 136.66875Q40.80625 136.90312 40.571877 137.2625L39.5875 137.1375L40.415627 132.73125L44.696877 132.73125L44.696877 133.73125L41.259377 133.73125L40.80625 136.04375Q41.571877 135.49687 42.415627 135.49687Q43.540627 135.49687 44.30625 136.27812Q45.0875 137.05937 45.0875 138.29375Q45.0875 139.45 44.415627 140.30937Q43.5875 141.34062 42.165627 141.34062Q40.99375 141.34062 40.24375 140.68437Q39.509377 140.02812 39.4 138.95ZM46.603127 134.66875Q46.603127 133.74687 47.05625 133.10625Q47.525 132.46562 48.4 132.46562Q49.2125 132.46562 49.74375 133.04375Q50.275 133.62187 50.275 134.73125Q50.275 135.825 49.728127 136.41875Q49.196877 136.99687 48.415627 136.99687Q47.634377 136.99687 47.11875 136.41875Q46.603127 135.84062 46.603127 134.66875ZM48.43125 133.18437Q48.040627 133.18437 47.775 133.52812Q47.525 133.87187 47.525 134.77812Q47.525 135.60625 47.775 135.95Q48.040627 136.27812 48.43125 136.27812Q48.8375 136.27812 49.0875 135.93437Q49.353127 135.59062 49.353127 134.7Q49.353127 133.85625 49.0875 133.52812Q48.821877 133.18437 48.43125 133.18437ZM48.43125 141.5125L53.134377 132.46562L53.99375 132.46562L49.30625 141.5125L48.43125 141.5125ZM52.15 139.18437Q52.15 138.2625 52.603127 137.62187Q53.071877 136.98125 53.9625 136.98125Q54.775 136.98125 55.30625 137.55937Q55.8375 138.12187 55.8375 139.24687Q55.8375 140.34062 55.290627 140.93437Q54.759377 141.5125 53.9625 141.5125Q53.196877 141.5125 52.665627 140.93437Q52.15 140.35625 52.15 139.18437ZM53.99375 137.7Q53.5875 137.7 53.321877 138.04375Q53.071877 138.3875 53.071877 139.29375Q53.071877 140.10625 53.3375 140.45Q53.603127 140.79375 53.99375 140.79375Q54.384377 140.79375 54.65 140.45Q54.915627 140.10625 54.915627 139.2Q54.915627 138.37187 54.65 138.04375Q54.384377 137.7 53.99375 137.7Z" fill-rule="nonzero"/><path fill="#000000" d="M29.36875 35.9L28.321875 35.9L28.321875 29.181252Q27.93125 29.540627 27.30625 29.915627Q26.696875 30.275002 26.2125 30.446877L26.2125 29.431252Q27.0875 29.009377 27.74375 28.431252Q28.415625 27.837502 28.696875 27.275002L29.36875 27.275002L29.36875 35.9ZM32.4 31.665627Q32.4 30.134377 32.7125 29.212502Q33.025 28.275002 33.634377 27.775002Q34.259377 27.275002 35.196877 27.275002Q35.884377 27.275002 36.4 27.556252Q36.93125 27.837502 37.275 28.368752Q37.61875 28.884377 37.80625 29.634377Q37.99375 30.384377 37.99375 31.665627Q37.99375 33.18125 37.68125 34.103127Q37.384377 35.025 36.759377 35.540627Q36.15 36.040627 35.196877 36.040627Q33.9625 36.040627 33.24375 35.15Q32.4 34.0875 32.4 31.665627ZM33.478127 31.665627Q33.478127 33.775 33.978127 34.478127Q34.478127 35.18125 35.196877 35.18125Q35.93125 35.18125 36.415627 34.478127Q36.915627 33.775 36.915627 31.665627Q36.915627 29.540627 36.415627 28.853127Q35.93125 28.150002 35.18125 28.150002Q34.4625 28.150002 34.025 28.759377Q33.478127 29.540627 33.478127 31.665627ZM39.4 31.665627Q39.4 30.134377 39.7125 29.212502Q40.025 28.275002 40.634377 27.775002Q41.259377 27.275002 42.196877 27.275002Q42.884377 27.275002 43.4 27.556252Q43.93125 27.837502 44.275 28.368752Q44.61875 28.884377 44.80625 29.634377Q44.99375 30.384377 44.99375 31.665627Q44.99375 33.18125 44.68125 34.103127Q44.384377 35.025 43.759377 35.540627Q43.15 36.040627 42.196877 36.040627Q40.9625 36.040627 40.24375 35.15Q39.4 34.0875 39.4 31.665627ZM40.478127 31.665627Q40.478127 33.775 40.978127 34.478127Q41.478127 35.18125 42.196877 35.18125Q42.93125 35.18125 43.415627 34.478127Q43.915627 33.775 43.915627 31.665627Q43.915627 29.540627 43.415627 28.853127Q42.93125 28.150002 42.18125 28.150002Q41.4625 28.150002 41.025 28.759377Q40.478127 29.540627 40.478127 31.665627ZM46.603127 29.368752Q46.603127 28.446877 47.05625 27.806252Q47.525 27.165627 48.4 27.165627Q49.2125 27.165627 49.74375 27.743752Q50.275 28.321877 50.275 29.431252Q50.275 30.525002 49.728127 31.118752Q49.196877 31.696877 48.415627 31.696877Q47.634377 31.696877 47.11875 31.118752Q46.603127 30.540627 46.603127 29.368752ZM48.43125 27.884377Q48.040627 27.884377 47.775 28.228127Q47.525 28.571877 47.525 29.478127Q47.525 30.306252 47.775 30.650002Q48.040627 30.978127 48.43125 30.978127Q48.8375 30.978127 49.0875 30.634377Q49.353127 30.290627 49.353127 29.400002Q49.353127 28.556252 49.0875 28.228127Q48.821877 27.884377 48.43125 27.884377ZM48.43125 36.2125L53.134377 27.165627L53.99375 27.165627L49.30625 36.2125L48.43125 36.2125ZM52.15 33.884377Q52.15 32.9625 52.603127 32.321877Q53.071877 31.681252 53.9625 31.681252Q54.775 31.681252 55.30625 32.259377Q55.8375 32.821877 55.8375 33.946877Q55.8375 35.040627 55.290627 35.634377Q54.759377 36.2125 53.9625 36.2125Q53.196877 36.2125 52.665627 35.634377Q52.15 35.05625 52.15 33.884377ZM53.99375 32.4Q53.5875 32.4 53.321877 32.74375Q53.071877 33.0875 53.071877 33.99375Q53.071877 34.80625 53.3375 35.15Q53.603127 35.49375 53.99375 35.49375Q54.384377 35.49375 54.65 35.15Q54.915627 34.80625 54.915627 33.9Q54.915627 33.071877 54.65 32.74375Q54.384377 32.4 53.99375 32.4Z" fill-rule="nonzero"/><path fill="#000000" d="M105.58983 467.6625L106.62108 467.52188Q106.65233 468.50626 106.98045 468.86563Q107.30858 469.225 107.90233 469.225Q108.3242 469.225 108.6367 469.0375Q108.9492 468.83438 109.05858 468.50626Q109.18358 468.1625 109.18358 467.42813L109.18358 461.50626L110.30858 461.50626L110.30858 467.36563Q110.30858 468.44376 110.04295 469.0375Q109.79295 469.63126 109.23045 469.94376Q108.66795 470.24063 107.90233 470.24063Q106.77733 470.24063 106.16795 469.6Q105.5742 468.94376 105.58983 467.6625ZM116.10545 469.33438Q115.5117 469.83438 114.96483 470.0375Q114.43358 470.24063 113.80858 470.24063Q112.77733 470.24063 112.23045 469.74063Q111.68358 469.24063 111.68358 468.45938Q111.68358 468.00626 111.8867 467.63126Q112.08983 467.24063 112.43358 467.02188Q112.77733 466.7875 113.1992 466.67813Q113.49608 466.58438 114.1367 466.50626Q115.40233 466.36563 116.0117 466.14688Q116.0117 465.92813 116.0117 465.88126Q116.0117 465.225 115.71483 464.95938Q115.30858 464.61563 114.5117 464.61563Q113.77733 464.61563 113.41795 464.88126Q113.05858 465.13126 112.8867 465.7875L111.85545 465.64688Q111.99608 464.99063 112.3242 464.58438Q112.65233 464.17813 113.2617 463.95938Q113.87108 463.74063 114.66795 463.74063Q115.46483 463.74063 115.96483 463.92813Q116.46483 464.11563 116.6992 464.39688Q116.93358 464.67813 117.02733 465.11563Q117.0742 465.38126 117.0742 466.08438L117.0742 467.49063Q117.0742 468.95938 117.1367 469.35Q117.21483 469.74063 117.41795 470.1L116.30858 470.1Q116.15233 469.77188 116.10545 469.33438ZM116.0117 466.975Q115.43358 467.20938 114.29295 467.38126Q113.6367 467.475 113.37108 467.6Q113.10545 467.70938 112.9492 467.92813Q112.80858 468.14688 112.80858 468.42813Q112.80858 468.85 113.12108 469.13126Q113.4492 469.4125 114.05858 469.4125Q114.66795 469.4125 115.1367 469.14688Q115.62108 468.88126 115.83983 468.4125Q116.0117 468.05313 116.0117 467.36563L116.0117 466.975ZM119.04295 470.1L119.04295 463.88126L119.98045 463.88126L119.98045 464.75626Q120.66795 463.74063 121.96483 463.74063Q122.52733 463.74063 122.99608 463.94376Q123.48045 464.14688 123.71483 464.475Q123.9492 464.80313 124.04295 465.24063Q124.08983 465.5375 124.08983 466.27188L124.08983 470.1L123.04295 470.1L123.04295 466.31876Q123.04295 465.6625 122.91795 465.35Q122.79295 465.0375 122.48045 464.85Q122.16795 464.64688 121.74608 464.64688Q121.0742 464.64688 120.5742 465.08438Q120.08983 465.50626 120.08983 466.69376L120.08983 470.1L119.04295 470.1ZM130.12108 470.1L130.12108 469.17813Q129.3867 470.24063 128.1367 470.24063Q127.58983 470.24063 127.10545 470.0375Q126.6367 469.81876 126.40233 469.50626Q126.16795 469.17813 126.0742 468.70938Q126.0117 468.4125 126.0117 467.725L126.0117 463.88126L127.0742 463.88126L127.0742 467.33438Q127.0742 468.14688 127.1367 468.44376Q127.23045 468.85 127.54295 469.1Q127.87108 469.33438 128.35545 469.33438Q128.8242 469.33438 129.23045 469.1Q129.65233 468.85 129.8242 468.42813Q130.0117 468.00626 130.0117 467.20938L130.0117 463.88126L131.05858 463.88126L131.05858 470.1L130.12108 470.1ZM137.10545 469.33438Q136.5117 469.83438 135.96483 470.0375Q135.43358 470.24063 134.80858 470.24063Q133.77733 470.24063 133.23045 469.74063Q132.68358 469.24063 132.68358 468.45938Q132.68358 468.00626 132.8867 467.63126Q133.08983 467.24063 133.43358 467.02188Q133.77733 466.7875 134.1992 466.67813Q134.49608 466.58438 135.1367 466.50626Q136.40233 466.36563 137.0117 466.14688Q137.0117 465.92813 137.0117 465.88126Q137.0117 465.225 136.71483 464.95938Q136.30858 464.61563 135.5117 464.61563Q134.77733 464.61563 134.41795 464.88126Q134.05858 465.13126 133.8867 465.7875L132.85545 465.64688Q132.99608 464.99063 133.3242 464.58438Q133.65233 464.17813 134.2617 463.95938Q134.87108 463.74063 135.66795 463.74063Q136.46483 463.74063 136.96483 463.92813Q137.46483 464.11563 137.6992 464.39688Q137.93358 464.67813 138.02733 465.11563Q138.0742 465.38126 138.0742 466.08438L138.0742 467.49063Q138.0742 468.95938 138.1367 469.35Q138.21483 469.74063 138.41795 470.1L137.30858 470.1Q137.15233 469.77188 137.10545 469.33438ZM137.0117 466.975Q136.43358 467.20938 135.29295 467.38126Q134.6367 467.475 134.37108 467.6Q134.10545 467.70938 133.9492 467.92813Q133.80858 468.14688 133.80858 468.42813Q133.80858 468.85 134.12108 469.13126Q134.4492 469.4125 135.05858 469.4125Q135.66795 469.4125 136.1367 469.14688Q136.62108 468.88126 136.83983 468.4125Q137.0117 468.05313 137.0117 467.36563L137.0117 466.975ZM140.02733 470.1L140.02733 463.88126L140.98045 463.88126L140.98045 464.81876Q141.33983 464.1625 141.6367 463.95938Q141.9492 463.74063 142.3242 463.74063Q142.85545 463.74063 143.40233 464.06876L143.04295 465.05313Q142.65233 464.81876 142.27733 464.81876Q141.91795 464.81876 141.6367 465.0375Q141.37108 465.24063 141.2617 465.61563Q141.0742 466.17813 141.0742 466.83438L141.0742 470.1L140.02733 470.1ZM143.99608 472.49063L143.87108 471.50626Q144.21483 471.6 144.48045 471.6Q144.8242 471.6 145.02733 471.475Q145.24608 471.36563 145.3867 471.1625Q145.48045 470.99063 145.71483 470.36563Q145.73045 470.2875 145.80858 470.11563L143.43358 463.88126L144.5742 463.88126L145.87108 467.475Q146.12108 468.1625 146.3242 468.92813Q146.5117 468.19376 146.7617 467.50626L148.08983 463.88126L149.1367 463.88126L146.77733 470.20938Q146.3867 471.225 146.18358 471.61563Q145.90233 472.14688 145.52733 472.38126Q145.16795 472.63126 144.66795 472.63126Q144.37108 472.63126 143.99608 472.49063ZM149.30858 470.1L149.30858 468.89688L150.5117 468.89688L150.5117 470.1Q150.5117 470.75626 150.27733 471.1625Q150.04295 471.58438 149.54295 471.80313L149.24608 471.35Q149.5742 471.20938 149.73045 470.9125Q149.8867 470.63126 149.91795 470.1L149.30858 470.1ZM160.29295 469.08438L160.29295 470.1L154.60545 470.1Q154.60545 469.725 154.73045 469.36563Q154.9492 468.7875 155.41795 468.225Q155.90233 467.6625 156.80858 466.92813Q158.21483 465.77188 158.6992 465.1Q159.1992 464.42813 159.1992 463.83438Q159.1992 463.20938 158.74608 462.7875Q158.29295 462.35 157.5742 462.35Q156.80858 462.35 156.35545 462.80313Q155.90233 463.25626 155.8867 464.06876L154.80858 463.95938Q154.91795 462.74063 155.6367 462.11563Q156.37108 461.475 157.60545 461.475Q158.83983 461.475 159.55858 462.1625Q160.27733 462.85 160.27733 463.86563Q160.27733 464.38126 160.05858 464.88126Q159.85545 465.36563 159.35545 465.92813Q158.87108 466.475 157.74608 467.42813Q156.79295 468.225 156.5117 468.52188Q156.24608 468.80313 156.0742 469.08438L160.29295 469.08438ZM161.74608 465.86563Q161.74608 464.33438 162.05858 463.4125Q162.37108 462.475 162.98045 461.975Q163.60545 461.475 164.54295 461.475Q165.23045 461.475 165.74608 461.75626Q166.27733 462.0375 166.62108 462.56876Q166.96483 463.08438 167.15233 463.83438Q167.33983 464.58438 167.33983 465.86563Q167.33983 467.38126 167.02733 468.30313Q166.73045 469.225 166.10545 469.74063Q165.49608 470.24063 164.54295 470.24063Q163.30858 470.24063 162.58983 469.35Q161.74608 468.2875 161.74608 465.86563ZM162.8242 465.86563Q162.8242 467.975 163.3242 468.67813Q163.8242 469.38126 164.54295 469.38126Q165.27733 469.38126 165.7617 468.67813Q166.2617 467.975 166.2617 465.86563Q166.2617 463.74063 165.7617 463.05313Q165.27733 462.35 164.52733 462.35Q163.80858 462.35 163.37108 462.95938Q162.8242 463.74063 162.8242 465.86563ZM174.29295 469.08438L174.29295 470.1L168.60545 470.1Q168.60545 469.725 168.73045 469.36563Q168.9492 468.7875 169.41795 468.225Q169.90233 467.6625 170.80858 466.92813Q172.21483 465.77188 172.6992 465.1Q173.1992 464.42813 173.1992 463.83438Q173.1992 463.20938 172.74608 462.7875Q172.29295 462.35 171.5742 462.35Q170.80858 462.35 170.35545 462.80313Q169.90233 463.25626 169.8867 464.06876L168.80858 463.95938Q168.91795 462.74063 169.6367 462.11563Q170.37108 461.475 171.60545 461.475Q172.83983 461.475 173.55858 462.1625Q174.27733 462.85 174.27733 463.86563Q174.27733 464.38126 174.05858 464.88126Q173.85545 465.36563 173.35545 465.92813Q172.87108 466.475 171.74608 467.42813Q170.79295 468.225 170.5117 468.52188Q170.24608 468.80313 170.0742 469.08438L174.29295 469.08438ZM181.29295 469.08438L181.29295 470.1L175.60545 470.1Q175.60545 469.725 175.73045 469.36563Q175.9492 468.7875 176.41795 468.225Q176.90233 467.6625 177.80858 466.92813Q179.21483 465.77188 179.6992 465.1Q180.1992 464.42813 180.1992 463.83438Q180.1992 463.20938 179.74608 462.7875Q179.29295 462.35 178.5742 462.35Q177.80858 462.35 177.35545 462.80313Q176.90233 463.25626 176.8867 464.06876L175.80858 463.95938Q175.91795 462.74063 176.6367 462.11563Q177.37108 461.475 178.60545 461.475Q179.83983 461.475 180.55858 462.1625Q181.27733 462.85 181.27733 463.86563Q181.27733 464.38126 181.05858 464.88126Q180.85545 465.36563 180.35545 465.92813Q179.87108 466.475 178.74608 467.42813Q177.79295 468.225 177.5117 468.52188Q177.24608 468.80313 177.0742 469.08438L181.29295 469.08438Z" fill-rule="nonzero"/><path fill="#000000" d="M236.36179 467.6625L237.39304 467.52188Q237.42429 468.50626 237.75241 468.86563Q238.08054 469.225 238.67429 469.225Q239.09616 469.225 239.40866 469.0375Q239.72116 468.83438 239.83054 468.50626Q239.95554 468.1625 239.95554 467.42813L239.95554 461.50626L241.08054 461.50626L241.08054 467.36563Q241.08054 468.44376 240.81491 469.0375Q240.56491 469.63126 240.00241 469.94376Q239.43991 470.24063 238.67429 470.24063Q237.54929 470.24063 236.93991 469.6Q236.34616 468.94376 236.36179 467.6625ZM246.89304 470.1L246.89304 469.17813Q246.15866 470.24063 244.90866 470.24063Q244.36179 470.24063 243.87741 470.0375Q243.40866 469.81876 243.17429 469.50626Q242.93991 469.17813 242.84616 468.70938Q242.78366 468.4125 242.78366 467.725L242.78366 463.88126L243.84616 463.88126L243.84616 467.33438Q243.84616 468.14688 243.90866 468.44376Q244.00241 468.85 244.31491 469.1Q244.64304 469.33438 245.12741 469.33438Q245.59616 469.33438 246.00241 469.1Q246.42429 468.85 246.59616 468.42813Q246.78366 468.00626 246.78366 467.20938L246.78366 463.88126L247.83054 463.88126L247.83054 470.1L246.89304 470.1ZM249.78366 470.1L249.78366 461.50626L250.84616 461.50626L250.84616 470.1L249.78366 470.1ZM252.76804 472.49063L252.64304 471.50626Q252.98679 471.6 253.25241 471.6Q253.59616 471.6 253.79929 471.475Q254.01804 471.36563 254.15866 471.1625Q254.25241 470.99063 254.48679 470.36563Q254.50241 470.2875 254.58054 470.11563L252.20554 463.88126L253.34616 463.88126L254.64304 467.475Q254.89304 468.1625 255.09616 468.92813Q255.28366 468.19376 255.53366 467.50626L256.8618 463.88126L257.90866 463.88126L255.54929 470.20938Q255.15866 471.225 254.95554 471.61563Q254.67429 472.14688 254.29929 472.38126Q253.93991 472.63126 253.43991 472.63126Q253.14304 472.63126 252.76804 472.49063ZM258.08054 470.1L258.08054 468.89688L259.28366 468.89688L259.28366 470.1Q259.28366 470.75626 259.0493 471.1625Q258.8149 471.58438 258.3149 471.80313L258.01804 471.35Q258.34616 471.20938 258.5024 470.9125Q258.65866 470.63126 258.6899 470.1L258.08054 470.1ZM269.0649 469.08438L269.0649 470.1L263.3774 470.1Q263.3774 469.725 263.5024 469.36563Q263.72116 468.7875 264.1899 468.225Q264.6743 467.6625 265.58054 466.92813Q266.9868 465.77188 267.47116 465.1Q267.97116 464.42813 267.97116 463.83438Q267.97116 463.20938 267.51804 462.7875Q267.0649 462.35 266.34616 462.35Q265.58054 462.35 265.1274 462.80313Q264.6743 463.25626 264.65866 464.06876L263.58054 463.95938Q263.6899 462.74063 264.40866 462.11563Q265.14304 461.475 266.3774 461.475Q267.6118 461.475 268.33054 462.1625Q269.0493 462.85 269.0493 463.86563Q269.0493 464.38126 268.83054 464.88126Q268.6274 465.36563 268.1274 465.92813Q267.64304 466.475 266.51804 467.42813Q265.5649 468.225 265.28366 468.52188Q265.01804 468.80313 264.84616 469.08438L269.0649 469.08438ZM270.51804 465.86563Q270.51804 464.33438 270.83054 463.4125Q271.14304 462.475 271.7524 461.975Q272.3774 461.475 273.3149 461.475Q274.0024 461.475 274.51804 461.75626Q275.0493 462.0375 275.39304 462.56876Q275.7368 463.08438 275.9243 463.83438Q276.1118 464.58438 276.1118 465.86563Q276.1118 467.38126 275.7993 468.30313Q275.5024 469.225 274.8774 469.74063Q274.26804 470.24063 273.3149 470.24063Q272.08054 470.24063 271.3618 469.35Q270.51804 468.2875 270.51804 465.86563ZM271.59616 465.86563Q271.59616 467.975 272.09616 468.67813Q272.59616 469.38126 273.3149 469.38126Q274.0493 469.38126 274.53366 468.67813Q275.03366 467.975 275.03366 465.86563Q275.03366 463.74063 274.53366 463.05313Q274.0493 462.35 273.2993 462.35Q272.58054 462.35 272.14304 462.95938Q271.59616 463.74063 271.59616 465.86563ZM283.0649 469.08438L283.0649 470.1L277.3774 470.1Q277.3774 469.725 277.5024 469.36563Q277.72116 468.7875 278.1899 468.225Q278.6743 467.6625 279.58054 466.92813Q280.9868 465.77188 281.47116 465.1Q281.97116 464.42813 281.97116 463.83438Q281.97116 463.20938 281.51804 462.7875Q281.0649 462.35 280.34616 462.35Q279.58054 462.35 279.1274 462.80313Q278.6743 463.25626 278.65866 464.06876L277.58054 463.95938Q277.6899 462.74063 278.40866 462.11563Q279.14304 461.475 280.3774 461.475Q281.6118 461.475 282.33054 462.1625Q283.0493 462.85 283.0493 463.86563Q283.0493 464.38126 282.83054 464.88126Q282.6274 465.36563 282.1274 465.92813Q281.64304 466.475 280.51804 467.42813Q279.5649 468.225 279.28366 468.52188Q279.01804 468.80313 278.84616 469.08438L283.0649 469.08438ZM290.0649 469.08438L290.0649 470.1L284.3774 470.1Q284.3774 469.725 284.5024 469.36563Q284.72116 468.7875 285.1899 468.225Q285.6743 467.6625 286.58054 466.92813Q287.9868 465.77188 288.47116 465.1Q288.97116 464.42813 288.97116 463.83438Q288.97116 463.20938 288.51804 462.7875Q288.0649 462.35 287.34616 462.35Q286.58054 462.35 286.1274 462.80313Q285.6743 463.25626 285.65866 464.06876L284.58054 463.95938Q284.6899 462.74063 285.40866 462.11563Q286.14304 461.475 287.3774 461.475Q288.6118 461.475 289.33054 462.1625Q290.0493 462.85 290.0493 463.86563Q290.0493 464.38126 289.83054 464.88126Q289.6274 465.36563 289.1274 465.92813Q288.64304 466.475 287.51804 467.42813Q286.5649 468.225 286.28366 468.52188Q286.01804 468.80313 285.84616 469.08438L290.0649 469.08438Z" fill-rule="nonzero"/><path fill="#000000" d="M345.13376 467.6625L346.165 467.52188Q346.19626 468.50626 346.52438 468.86563Q346.8525 469.225 347.44626 469.225Q347.86813 469.225 348.18063 469.0375Q348.49313 468.83438 348.6025 468.50626Q348.7275 468.1625 348.7275 467.42813L348.7275 461.50626L349.8525 461.50626L349.8525 467.36563Q349.8525 468.44376 349.58688 469.0375Q349.33688 469.63126 348.77438 469.94376Q348.21188 470.24063 347.44626 470.24063Q346.32126 470.24063 345.71188 469.6Q345.11813 468.94376 345.13376 467.6625ZM355.64938 469.33438Q355.05563 469.83438 354.50876 470.0375Q353.9775 470.24063 353.3525 470.24063Q352.32126 470.24063 351.77438 469.74063Q351.2275 469.24063 351.2275 468.45938Q351.2275 468.00626 351.43063 467.63126Q351.63376 467.24063 351.9775 467.02188Q352.32126 466.7875 352.74313 466.67813Q353.04 466.58438 353.68063 466.50626Q354.94626 466.36563 355.55563 466.14688Q355.55563 465.92813 355.55563 465.88126Q355.55563 465.225 355.25876 464.95938Q354.8525 464.61563 354.05563 464.61563Q353.32126 464.61563 352.96188 464.88126Q352.6025 465.13126 352.43063 465.7875L351.39938 465.64688Q351.54 464.99063 351.86813 464.58438Q352.19626 464.17813 352.80563 463.95938Q353.415 463.74063 354.21188 463.74063Q355.00876 463.74063 355.50876 463.92813Q356.00876 464.11563 356.24313 464.39688Q356.4775 464.67813 356.57126 465.11563Q356.61813 465.38126 356.61813 466.08438L356.61813 467.49063Q356.61813 468.95938 356.68063 469.35Q356.75876 469.74063 356.96188 470.1L355.8525 470.1Q355.69626 469.77188 355.64938 469.33438ZM355.55563 466.975Q354.9775 467.20938 353.83688 467.38126Q353.18063 467.475 352.915 467.6Q352.64938 467.70938 352.49313 467.92813Q352.3525 468.14688 352.3525 468.42813Q352.3525 468.85 352.665 469.13126Q352.99313 469.4125 353.6025 469.4125Q354.21188 469.4125 354.68063 469.14688Q355.165 468.88126 355.38376 468.4125Q355.55563 468.05313 355.55563 467.36563L355.55563 466.975ZM358.58688 470.1L358.58688 463.88126L359.52438 463.88126L359.52438 464.75626Q360.21188 463.74063 361.50876 463.74063Q362.07126 463.74063 362.54 463.94376Q363.02438 464.14688 363.25876 464.475Q363.49313 464.80313 363.58688 465.24063Q363.63376 465.5375 363.63376 466.27188L363.63376 470.1L362.58688 470.1L362.58688 466.31876Q362.58688 465.6625 362.46188 465.35Q362.33688 465.0375 362.02438 464.85Q361.71188 464.64688 361.29 464.64688Q360.61813 464.64688 360.11813 465.08438Q359.63376 465.50626 359.63376 466.69376L359.63376 470.1L358.58688 470.1ZM369.665 470.1L369.665 469.17813Q368.93063 470.24063 367.68063 470.24063Q367.13376 470.24063 366.64938 470.0375Q366.18063 469.81876 365.94626 469.50626Q365.71188 469.17813 365.61813 468.70938Q365.55563 468.4125 365.55563 467.725L365.55563 463.88126L366.61813 463.88126L366.61813 467.33438Q366.61813 468.14688 366.68063 468.44376Q366.77438 468.85 367.08688 469.1Q367.415 469.33438 367.89938 469.33438Q368.36813 469.33438 368.77438 469.1Q369.19626 468.85 369.36813 468.42813Q369.55563 468.00626 369.55563 467.20938L369.55563 463.88126L370.6025 463.88126L370.6025 470.1L369.665 470.1ZM376.64938 469.33438Q376.05563 469.83438 375.50876 470.0375Q374.9775 470.24063 374.3525 470.24063Q373.32126 470.24063 372.77438 469.74063Q372.2275 469.24063 372.2275 468.45938Q372.2275 468.00626 372.43063 467.63126Q372.63376 467.24063 372.9775 467.02188Q373.32126 466.7875 373.74313 466.67813Q374.04 466.58438 374.68063 466.50626Q375.94626 466.36563 376.55563 466.14688Q376.55563 465.92813 376.55563 465.88126Q376.55563 465.225 376.25876 464.95938Q375.8525 464.61563 375.05563 464.61563Q374.32126 464.61563 373.96188 464.88126Q373.6025 465.13126 373.43063 465.7875L372.39938 465.64688Q372.54 464.99063 372.86813 464.58438Q373.19626 464.17813 373.80563 463.95938Q374.415 463.74063 375.21188 463.74063Q376.00876 463.74063 376.50876 463.92813Q377.00876 464.11563 377.24313 464.39688Q377.4775 464.67813 377.57126 465.11563Q377.61813 465.38126 377.61813 466.08438L377.61813 467.49063Q377.61813 468.95938 377.68063 469.35Q377.75876 469.74063 377.96188 470.1L376.8525 470.1Q376.69626 469.77188 376.64938 469.33438ZM376.55563 466.975Q375.9775 467.20938 374.83688 467.38126Q374.18063 467.475 373.915 467.6Q373.64938 467.70938 373.49313 467.92813Q373.3525 468.14688 373.3525 468.42813Q373.3525 468.85 373.665 469.13126Q373.99313 469.4125 374.6025 469.4125Q375.21188 469.4125 375.68063 469.14688Q376.165 468.88126 376.38376 468.4125Q376.55563 468.05313 376.55563 467.36563L376.55563 466.975ZM379.57126 470.1L379.57126 463.88126L380.52438 463.88126L380.52438 464.81876Q380.88376 464.1625 381.18063 463.95938Q381.49313 463.74063 381.86813 463.74063Q382.39938 463.74063 382.94626 464.06876L382.58688 465.05313Q382.19626 464.81876 381.82126 464.81876Q381.46188 464.81876 381.18063 465.0375Q380.915 465.24063 380.80563 465.61563Q380.61813 466.17813 380.61813 466.83438L380.61813 470.1L379.57126 470.1ZM383.54 472.49063L383.415 471.50626Q383.75876 471.6 384.02438 471.6Q384.36813 471.6 384.57126 471.475Q384.79 471.36563 384.93063 471.1625Q385.02438 470.99063 385.25876 470.36563Q385.27438 470.2875 385.3525 470.11563L382.9775 463.88126L384.11813 463.88126L385.415 467.475Q385.665 468.1625 385.86813 468.92813Q386.05563 468.19376 386.30563 467.50626L387.63376 463.88126L388.68063 463.88126L386.32126 470.20938Q385.93063 471.225 385.7275 471.61563Q385.44626 472.14688 385.07126 472.38126Q384.71188 472.63126 384.21188 472.63126Q383.915 472.63126 383.54 472.49063ZM388.8525 470.1L388.8525 468.89688L390.05563 468.89688L390.05563 470.1Q390.05563 470.75626 389.82126 471.1625Q389.58688 471.58438 389.08688 471.80313L388.79 471.35Q389.11813 471.20938 389.27438 470.9125Q389.43063 470.63126 389.46188 470.1L388.8525 470.1ZM399.83688 469.08438L399.83688 470.1L394.14938 470.1Q394.14938 469.725 394.27438 469.36563Q394.49313 468.7875 394.96188 468.225Q395.44626 467.6625 396.3525 466.92813Q397.75876 465.77188 398.24313 465.1Q398.74313 464.42813 398.74313 463.83438Q398.74313 463.20938 398.29 462.7875Q397.83688 462.35 397.11813 462.35Q396.3525 462.35 395.89938 462.80313Q395.44626 463.25626 395.43063 464.06876L394.3525 463.95938Q394.46188 462.74063 395.18063 462.11563Q395.915 461.475 397.14938 461.475Q398.38376 461.475 399.1025 462.1625Q399.82126 462.85 399.82126 463.86563Q399.82126 464.38126 399.6025 464.88126Q399.39938 465.36563 398.89938 465.92813Q398.415 466.475 397.29 467.42813Q396.33688 468.225 396.05563 468.52188Q395.79 468.80313 395.61813 469.08438L399.83688 469.08438ZM401.29 465.86563Q401.29 464.33438 401.6025 463.4125Q401.915 462.475 402.52438 461.975Q403.14938 461.475 404.08688 461.475Q404.77438 461.475 405.29 461.75626Q405.82126 462.0375 406.165 462.56876Q406.50876 463.08438 406.69626 463.83438Q406.88376 464.58438 406.88376 465.86563Q406.88376 467.38126 406.57126 468.30313Q406.27438 469.225 405.64938 469.74063Q405.04 470.24063 404.08688 470.24063Q402.8525 470.24063 402.13376 469.35Q401.29 468.2875 401.29 465.86563ZM402.36813 465.86563Q402.36813 467.975 402.86813 468.67813Q403.36813 469.38126 404.08688 469.38126Q404.82126 469.38126 405.30563 468.67813Q405.80563 467.975 405.80563 465.86563Q405.80563 463.74063 405.30563 463.05313Q404.82126 462.35 404.07126 462.35Q403.3525 462.35 402.915 462.95938Q402.36813 463.74063 402.36813 465.86563ZM413.83688 469.08438L413.83688 470.1L408.14938 470.1Q408.14938 469.725 408.27438 469.36563Q408.49313 468.7875 408.96188 468.225Q409.44626 467.6625 410.3525 466.92813Q411.75876 465.77188 412.24313 465.1Q412.74313 464.42813 412.74313 463.83438Q412.74313 463.20938 412.29 462.7875Q411.83688 462.35 411.11813 462.35Q410.3525 462.35 409.89938 462.80313Q409.44626 463.25626 409.43063 464.06876L408.3525 463.95938Q408.46188 462.74063 409.18063 462.11563Q409.915 461.475 411.14938 461.475Q412.38376 461.475 413.1025 462.1625Q413.82126 462.85 413.82126 463.86563Q413.82126 464.38126 413.6025 464.88126Q413.39938 465.36563 412.89938 465.92813Q412.415 466.475 411.29 467.42813Q410.33688 468.225 410.05563 468.52188Q409.79 468.80313 409.61813 469.08438L413.83688 469.08438ZM415.29 467.83438L416.3525 467.69376Q416.52438 468.58438 416.96188 468.99063Q417.39938 469.38126 418.02438 469.38126Q418.77438 469.38126 419.29 468.86563Q419.80563 468.35 419.80563 467.58438Q419.80563 466.86563 419.32126 466.39688Q418.8525 465.9125 418.11813 465.9125Q417.82126 465.9125 417.36813 466.0375L417.49313 465.1Q417.6025 465.11563 417.665 465.11563Q418.33688 465.11563 418.86813 464.77188Q419.415 464.4125 419.415 463.67813Q419.415 463.1 419.02438 462.725Q418.63376 462.33438 418.00876 462.33438Q417.39938 462.33438 416.9775 462.725Q416.57126 463.11563 416.46188 463.88126L415.39938 463.69376Q415.58688 462.64688 416.27438 462.06876Q416.96188 461.475 417.9775 461.475Q418.68063 461.475 419.27438 461.7875Q419.86813 462.08438 420.18063 462.6Q420.49313 463.11563 420.49313 463.70938Q420.49313 464.25626 420.19626 464.725Q419.89938 465.17813 419.32126 465.44376Q420.07126 465.61563 420.49313 466.17813Q420.915 466.725 420.915 467.56876Q420.915 468.69376 420.08688 469.475Q419.27438 470.25626 418.02438 470.25626Q416.89938 470.25626 416.14938 469.58438Q415.39938 468.89688 415.29 467.83438Z" fill-rule="nonzero"/><path fill="#000000" d="M475.9057 467.6625L476.93695 467.52188Q476.9682 468.50626 477.29633 468.86563Q477.62445 469.225 478.2182 469.225Q478.64008 469.225 478.95258 469.0375Q479.26508 468.83438 479.37445 468.50626Q479.49945 468.1625 479.49945 467.42813L479.49945 461.50626L480.62445 461.50626L480.62445 467.36563Q480.62445 468.44376 480.35883 469.0375Q480.10883 469.63126 479.54633 469.94376Q478.98383 470.24063 478.2182 470.24063Q477.0932 470.24063 476.48383 469.6Q475.89008 468.94376 475.9057 467.6625ZM486.43695 470.1L486.43695 469.17813Q485.70258 470.24063 484.45258 470.24063Q483.9057 470.24063 483.42133 470.0375Q482.95258 469.81876 482.7182 469.50626Q482.48383 469.17813 482.39008 468.70938Q482.32758 468.4125 482.32758 467.725L482.32758 463.88126L483.39008 463.88126L483.39008 467.33438Q483.39008 468.14688 483.45258 468.44376Q483.54633 468.85 483.85883 469.1Q484.18695 469.33438 484.67133 469.33438Q485.14008 469.33438 485.54633 469.1Q485.9682 468.85 486.14008 468.42813Q486.32758 468.00626 486.32758 467.20938L486.32758 463.88126L487.37445 463.88126L487.37445 470.1L486.43695 470.1ZM489.32758 470.1L489.32758 461.50626L490.39008 461.50626L490.39008 470.1L489.32758 470.1ZM492.31195 472.49063L492.18695 471.50626Q492.5307 471.6 492.79633 471.6Q493.14008 471.6 493.3432 471.475Q493.56195 471.36563 493.70258 471.1625Q493.79633 470.99063 494.0307 470.36563Q494.04633 470.2875 494.12445 470.11563L491.74945 463.88126L492.89008 463.88126L494.18695 467.475Q494.43695 468.1625 494.64008 468.92813Q494.82758 468.19376 495.07758 467.50626L496.4057 463.88126L497.45258 463.88126L495.0932 470.20938Q494.70258 471.225 494.49945 471.61563Q494.2182 472.14688 493.8432 472.38126Q493.48383 472.63126 492.98383 472.63126Q492.68695 472.63126 492.31195 472.49063ZM497.62445 470.1L497.62445 468.89688L498.82758 468.89688L498.82758 470.1Q498.82758 470.75626 498.5932 471.1625Q498.35883 471.58438 497.85883 471.80313L497.56195 471.35Q497.89008 471.20938 498.04633 470.9125Q498.20258 470.63126 498.23383 470.1L497.62445 470.1ZM508.60883 469.08438L508.60883 470.1L502.92133 470.1Q502.92133 469.725 503.04633 469.36563Q503.26508 468.7875 503.73383 468.225Q504.2182 467.6625 505.12445 466.92813Q506.5307 465.77188 507.01508 465.1Q507.51508 464.42813 507.51508 463.83438Q507.51508 463.20938 507.06195 462.7875Q506.60883 462.35 505.89008 462.35Q505.12445 462.35 504.67133 462.80313Q504.2182 463.25626 504.20258 464.06876L503.12445 463.95938Q503.23383 462.74063 503.95258 462.11563Q504.68695 461.475 505.92133 461.475Q507.1557 461.475 507.87445 462.1625Q508.5932 462.85 508.5932 463.86563Q508.5932 464.38126 508.37445 464.88126Q508.17133 465.36563 507.67133 465.92813Q507.18695 466.475 506.06195 467.42813Q505.10883 468.225 504.82758 468.52188Q504.56195 468.80313 504.39008 469.08438L508.60883 469.08438ZM510.06195 465.86563Q510.06195 464.33438 510.37445 463.4125Q510.68695 462.475 511.29633 461.975Q511.92133 461.475 512.8588 461.475Q513.5463 461.475 514.06195 461.75626Q514.5932 462.0375 514.93695 462.56876Q515.2807 463.08438 515.4682 463.83438Q515.6557 464.58438 515.6557 465.86563Q515.6557 467.38126 515.3432 468.30313Q515.0463 469.225 514.4213 469.74063Q513.81195 470.24063 512.8588 470.24063Q511.62445 470.24063 510.9057 469.35Q510.06195 468.2875 510.06195 465.86563ZM511.14008 465.86563Q511.14008 467.975 511.64008 468.67813Q512.1401 469.38126 512.8588 469.38126Q513.5932 469.38126 514.0776 468.67813Q514.5776 467.975 514.5776 465.86563Q514.5776 463.74063 514.0776 463.05313Q513.5932 462.35 512.8432 462.35Q512.12445 462.35 511.68695 462.95938Q511.14008 463.74063 511.14008 465.86563ZM522.6088 469.08438L522.6088 470.1L516.9213 470.1Q516.9213 469.725 517.0463 469.36563Q517.2651 468.7875 517.7338 468.225Q518.2182 467.6625 519.12445 466.92813Q520.5307 465.77188 521.0151 465.1Q521.5151 464.42813 521.5151 463.83438Q521.5151 463.20938 521.06195 462.7875Q520.6088 462.35 519.8901 462.35Q519.12445 462.35 518.6713 462.80313Q518.2182 463.25626 518.2026 464.06876L517.12445 463.95938Q517.2338 462.74063 517.9526 462.11563Q518.68695 461.475 519.9213 461.475Q521.1557 461.475 521.87445 462.1625Q522.5932 462.85 522.5932 463.86563Q522.5932 464.38126 522.37445 464.88126Q522.1713 465.36563 521.6713 465.92813Q521.18695 466.475 520.06195 467.42813Q519.1088 468.225 518.8276 468.52188Q518.56195 468.80313 518.3901 469.08438L522.6088 469.08438ZM524.06195 467.83438L525.12445 467.69376Q525.2963 468.58438 525.7338 468.99063Q526.1713 469.38126 526.7963 469.38126Q527.5463 469.38126 528.06195 468.86563Q528.5776 468.35 528.5776 467.58438Q528.5776 466.86563 528.0932 466.39688Q527.62445 465.9125 526.8901 465.9125Q526.5932 465.9125 526.1401 466.0375L526.2651 465.1Q526.37445 465.11563 526.43695 465.11563Q527.1088 465.11563 527.6401 464.77188Q528.18695 464.4125 528.18695 463.67813Q528.18695 463.1 527.7963 462.725Q527.4057 462.33438 526.7807 462.33438Q526.1713 462.33438 525.74945 462.725Q525.3432 463.11563 525.2338 463.88126L524.1713 463.69376Q524.3588 462.64688 525.0463 462.06876Q525.7338 461.475 526.74945 461.475Q527.4526 461.475 528.0463 461.7875Q528.6401 462.08438 528.9526 462.6Q529.2651 463.11563 529.2651 463.70938Q529.2651 464.25626 528.9682 464.725Q528.6713 465.17813 528.0932 465.44376Q528.8432 465.61563 529.2651 466.17813Q529.68695 466.725 529.68695 467.56876Q529.68695 468.69376 528.8588 469.475Q528.0463 470.25626 526.7963 470.25626Q525.6713 470.25626 524.9213 469.58438Q524.1713 468.89688 524.06195 467.83438Z" fill-rule="nonzero"/><path fill="#000000" d="M584.6777 467.6625L585.7089 467.52188Q585.7402 468.50626 586.0683 468.86563Q586.3964 469.225 586.9902 469.225Q587.41205 469.225 587.72455 469.0375Q588.03705 468.83438 588.1464 468.50626Q588.2714 468.1625 588.2714 467.42813L588.2714 461.50626L589.3964 461.50626L589.3964 467.36563Q589.3964 468.44376 589.1308 469.0375Q588.8808 469.63126 588.3183 469.94376Q587.7558 470.24063 586.9902 470.24063Q585.8652 470.24063 585.2558 469.6Q584.66205 468.94376 584.6777 467.6625ZM595.1933 469.33438Q594.59955 469.83438 594.0527 470.0375Q593.5214 470.24063 592.8964 470.24063Q591.8652 470.24063 591.3183 469.74063Q590.7714 469.24063 590.7714 468.45938Q590.7714 468.00626 590.97455 467.63126Q591.1777 467.24063 591.5214 467.02188Q591.8652 466.7875 592.28705 466.67813Q592.5839 466.58438 593.22455 466.50626Q594.4902 466.36563 595.09955 466.14688Q595.09955 465.92813 595.09955 465.88126Q595.09955 465.225 594.8027 464.95938Q594.3964 464.61563 593.59955 464.61563Q592.8652 464.61563 592.5058 464.88126Q592.1464 465.13126 591.97455 465.7875L590.9433 465.64688Q591.0839 464.99063 591.41205 464.58438Q591.7402 464.17813 592.34955 463.95938Q592.9589 463.74063 593.7558 463.74063Q594.5527 463.74063 595.0527 463.92813Q595.5527 464.11563 595.78705 464.39688Q596.0214 464.67813 596.1152 465.11563Q596.16205 465.38126 596.16205 466.08438L596.16205 467.49063Q596.16205 468.95938 596.22455 469.35Q596.3027 469.74063 596.5058 470.1L595.3964 470.1Q595.2402 469.77188 595.1933 469.33438ZM595.09955 466.975Q594.5214 467.20938 593.3808 467.38126Q592.72455 467.475 592.4589 467.6Q592.1933 467.70938 592.03705 467.92813Q591.8964 468.14688 591.8964 468.42813Q591.8964 468.85 592.2089 469.13126Q592.53705 469.4125 593.1464 469.4125Q593.7558 469.4125 594.22455 469.14688Q594.7089 468.88126 594.9277 468.4125Q595.09955 468.05313 595.09955 467.36563L595.09955 466.975ZM598.1308 470.1L598.1308 463.88126L599.0683 463.88126L599.0683 464.75626Q599.7558 463.74063 601.0527 463.74063Q601.6152 463.74063 602.0839 463.94376Q602.5683 464.14688 602.8027 464.475Q603.03705 464.80313 603.1308 465.24063Q603.1777 465.5375 603.1777 466.27188L603.1777 470.1L602.1308 470.1L602.1308 466.31876Q602.1308 465.6625 602.0058 465.35Q601.8808 465.0375 601.5683 464.85Q601.2558 464.64688 600.8339 464.64688Q600.16205 464.64688 599.66205 465.08438Q599.1777 465.50626 599.1777 466.69376L599.1777 470.1L598.1308 470.1ZM609.2089 470.1L609.2089 469.17813Q608.47455 470.24063 607.22455 470.24063Q606.6777 470.24063 606.1933 470.0375Q605.72455 469.81876 605.4902 469.50626Q605.2558 469.17813 605.16205 468.70938Q605.09955 468.4125 605.09955 467.725L605.09955 463.88126L606.16205 463.88126L606.16205 467.33438Q606.16205 468.14688 606.22455 468.44376Q606.3183 468.85 606.6308 469.1Q606.9589 469.33438 607.4433 469.33438Q607.91205 469.33438 608.3183 469.1Q608.7402 468.85 608.91205 468.42813Q609.09955 468.00626 609.09955 467.20938L609.09955 463.88126L610.1464 463.88126L610.1464 470.1L609.2089 470.1ZM616.1933 469.33438Q615.59955 469.83438 615.0527 470.0375Q614.5214 470.24063 613.8964 470.24063Q612.8652 470.24063 612.3183 469.74063Q611.7714 469.24063 611.7714 468.45938Q611.7714 468.00626 611.97455 467.63126Q612.1777 467.24063 612.5214 467.02188Q612.8652 466.7875 613.28705 466.67813Q613.5839 466.58438 614.22455 466.50626Q615.4902 466.36563 616.09955 466.14688Q616.09955 465.92813 616.09955 465.88126Q616.09955 465.225 615.8027 464.95938Q615.3964 464.61563 614.59955 464.61563Q613.8652 464.61563 613.5058 464.88126Q613.1464 465.13126 612.97455 465.7875L611.9433 465.64688Q612.0839 464.99063 612.41205 464.58438Q612.7402 464.17813 613.34955 463.95938Q613.9589 463.74063 614.7558 463.74063Q615.5527 463.74063 616.0527 463.92813Q616.5527 464.11563 616.78705 464.39688Q617.0214 464.67813 617.1152 465.11563Q617.16205 465.38126 617.16205 466.08438L617.16205 467.49063Q617.16205 468.95938 617.22455 469.35Q617.3027 469.74063 617.5058 470.1L616.3964 470.1Q616.2402 469.77188 616.1933 469.33438ZM616.09955 466.975Q615.5214 467.20938 614.3808 467.38126Q613.72455 467.475 613.4589 467.6Q613.1933 467.70938 613.03705 467.92813Q612.8964 468.14688 612.8964 468.42813Q612.8964 468.85 613.2089 469.13126Q613.53705 469.4125 614.1464 469.4125Q614.7558 469.4125 615.22455 469.14688Q615.7089 468.88126 615.9277 468.4125Q616.09955 468.05313 616.09955 467.36563L616.09955 466.975ZM619.1152 470.1L619.1152 463.88126L620.0683 463.88126L620.0683 464.81876Q620.4277 464.1625 620.72455 463.95938Q621.03705 463.74063 621.41205 463.74063Q621.9433 463.74063 622.4902 464.06876L622.1308 465.05313Q621.7402 464.81876 621.3652 464.81876Q621.0058 464.81876 620.72455 465.0375Q620.4589 465.24063 620.34955 465.61563Q620.16205 466.17813 620.16205 466.83438L620.16205 470.1L619.1152 470.1ZM623.0839 472.49063L622.9589 471.50626Q623.3027 471.6 623.5683 471.6Q623.91205 471.6 624.1152 471.475Q624.3339 471.36563 624.47455 471.1625Q624.5683 470.99063 624.8027 470.36563Q624.8183 470.2875 624.8964 470.11563L622.5214 463.88126L623.66205 463.88126L624.9589 467.475Q625.2089 468.1625 625.41205 468.92813Q625.59955 468.19376 625.84955 467.50626L627.1777 463.88126L628.22455 463.88126L625.8652 470.20938Q625.47455 471.225 625.2714 471.61563Q624.9902 472.14688 624.6152 472.38126Q624.2558 472.63126 623.7558 472.63126Q623.4589 472.63126 623.0839 472.49063ZM628.3964 470.1L628.3964 468.89688L629.59955 468.89688L629.59955 470.1Q629.59955 470.75626 629.3652 471.1625Q629.1308 471.58438 628.6308 471.80313L628.3339 471.35Q628.66205 471.20938 628.8183 470.9125Q628.97455 470.63126 629.0058 470.1L628.3964 470.1ZM639.3808 469.08438L639.3808 470.1L633.6933 470.1Q633.6933 469.725 633.8183 469.36563Q634.03705 468.7875 634.5058 468.225Q634.9902 467.6625 635.8964 466.92813Q637.3027 465.77188 637.78705 465.1Q638.28705 464.42813 638.28705 463.83438Q638.28705 463.20938 637.8339 462.7875Q637.3808 462.35 636.66205 462.35Q635.8964 462.35 635.4433 462.80313Q634.9902 463.25626 634.97455 464.06876L633.8964 463.95938Q634.0058 462.74063 634.72455 462.11563Q635.4589 461.475 636.6933 461.475Q637.9277 461.475 638.6464 462.1625Q639.3652 462.85 639.3652 463.86563Q639.3652 464.38126 639.1464 464.88126Q638.9433 465.36563 638.4433 465.92813Q637.9589 466.475 636.8339 467.42813Q635.8808 468.225 635.59955 468.52188Q635.3339 468.80313 635.16205 469.08438L639.3808 469.08438ZM640.8339 465.86563Q640.8339 464.33438 641.1464 463.4125Q641.4589 462.475 642.0683 461.975Q642.6933 461.475 643.6308 461.475Q644.3183 461.475 644.8339 461.75626Q645.3652 462.0375 645.7089 462.56876Q646.0527 463.08438 646.2402 463.83438Q646.4277 464.58438 646.4277 465.86563Q646.4277 467.38126 646.1152 468.30313Q645.8183 469.225 645.1933 469.74063Q644.5839 470.24063 643.6308 470.24063Q642.3964 470.24063 641.6777 469.35Q640.8339 468.2875 640.8339 465.86563ZM641.91205 465.86563Q641.91205 467.975 642.41205 468.67813Q642.91205 469.38126 643.6308 469.38126Q644.3652 469.38126 644.84955 468.67813Q645.34955 467.975 645.34955 465.86563Q645.34955 463.74063 644.84955 463.05313Q644.3652 462.35 643.6152 462.35Q642.8964 462.35 642.4589 462.95938Q641.91205 463.74063 641.91205 465.86563ZM653.3808 469.08438L653.3808 470.1L647.6933 470.1Q647.6933 469.725 647.8183 469.36563Q648.03705 468.7875 648.5058 468.225Q648.9902 467.6625 649.8964 466.92813Q651.3027 465.77188 651.78705 465.1Q652.28705 464.42813 652.28705 463.83438Q652.28705 463.20938 651.8339 462.7875Q651.3808 462.35 650.66205 462.35Q649.8964 462.35 649.4433 462.80313Q648.9902 463.25626 648.97455 464.06876L647.8964 463.95938Q648.0058 462.74063 648.72455 462.11563Q649.4589 461.475 650.6933 461.475Q651.9277 461.475 652.6464 462.1625Q653.3652 462.85 653.3652 463.86563Q653.3652 464.38126 653.1464 464.88126Q652.9433 465.36563 652.4433 465.92813Q651.9589 466.475 650.8339 467.42813Q649.8808 468.225 649.59955 468.52188Q649.3339 468.80313 649.16205 469.08438L653.3808 469.08438ZM658.2089 470.1L658.2089 468.0375L654.4902 468.0375L654.4902 467.06876L658.41205 461.50626L659.2714 461.50626L659.2714 467.06876L660.4277 467.06876L660.4277 468.0375L659.2714 468.0375L659.2714 470.1L658.2089 470.1ZM658.2089 467.06876L658.2089 463.20938L655.5214 467.06876L658.2089 467.06876Z" fill-rule="nonzero"/><path fill="#f4cccc" d="M733.56 26.9C733.56 26.347715 734.0077 25.9 734.56 25.9L744.56 25.9C745.1123 25.9 745.56 26.347715 745.56 26.9L745.56 36.9C745.56 37.452286 745.1123 37.9 744.56 37.9L734.56 37.9C734.0077 37.9 733.56 37.452286 733.56 36.9Z" fill-rule="nonzero"/><path fill="#1a1a1a" d="M754.06 33.65L755.1694 33.55625Q755.2944 34.36875 755.7319 34.775Q756.185 35.18125 756.8256 35.18125Q757.5756 35.18125 758.1069 34.603127Q758.6381 34.025 758.6381 33.0875Q758.6381 32.18125 758.1225 31.665627Q757.6225 31.134377 756.7944 31.134377Q756.2944 31.134377 755.8725 31.368752Q755.46625 31.603127 755.2319 31.962502L754.2475 31.837502L755.0756 27.431252L759.3569 27.431252L759.3569 28.431252L755.9194 28.431252L755.46625 30.743752Q756.2319 30.196877 757.0756 30.196877Q758.2006 30.196877 758.96625 30.978127Q759.7475 31.759377 759.7475 32.99375Q759.7475 34.15 759.0756 35.009377Q758.2475 36.040627 756.8256 36.040627Q755.65375 36.040627 754.90375 35.384377Q754.1694 34.728127 754.06 33.65ZM761.65375 35.9L761.65375 34.696877L762.8569 34.696877L762.8569 35.9L761.65375 35.9ZM769.6069 34.884377L769.6069 35.9L763.9194 35.9Q763.9194 35.525 764.0444 35.165627Q764.2631 34.5875 764.7319 34.025Q765.21625 33.4625 766.1225 32.728127Q767.52875 31.571877 768.0131 30.900002Q768.5131 30.228127 768.5131 29.634377Q768.5131 29.009377 768.06 28.587502Q767.6069 28.150002 766.8881 28.150002Q766.1225 28.150002 765.6694 28.603127Q765.21625 29.056252 765.2006 29.868752L764.1225 29.759377Q764.2319 28.540627 764.9506 27.915627Q765.685 27.275002 766.9194 27.275002Q768.15375 27.275002 768.8725 27.962502Q769.59125 28.650002 769.59125 29.665627Q769.59125 30.181252 769.3725 30.681252Q769.1694 31.165627 768.6694 31.728127Q768.185 32.275 767.06 33.228127Q766.1069 34.025 765.8256 34.321877Q765.56 34.603127 765.3881 34.884377L769.6069 34.884377Z" fill-rule="nonzero"/><path fill="#ea9999" d="M733.56 50.9C733.56 50.347713 734.0077 49.9 734.56 49.9L744.56 49.9C745.1123 49.9 745.56 50.347713 745.56 50.9L745.56 60.9C745.56 61.452286 745.1123 61.9 744.56 61.9L734.56 61.9C734.0077 61.9 733.56 61.452286 733.56 60.9Z" fill-rule="nonzero"/><path fill="#1a1a1a" d="M754.06 57.65L755.1694 57.55625Q755.2944 58.36875 755.7319 58.775Q756.185 59.18125 756.8256 59.18125Q757.5756 59.18125 758.1069 58.603127Q758.6381 58.025 758.6381 57.0875Q758.6381 56.18125 758.1225 55.665627Q757.6225 55.134377 756.7944 55.134377Q756.2944 55.134377 755.8725 55.36875Q755.46625 55.603127 755.2319 55.9625L754.2475 55.8375L755.0756 51.43125L759.3569 51.43125L759.3569 52.43125L755.9194 52.43125L755.46625 54.74375Q756.2319 54.196877 757.0756 54.196877Q758.2006 54.196877 758.96625 54.978127Q759.7475 55.759377 759.7475 56.99375Q759.7475 58.15 759.0756 59.009377Q758.2475 60.040627 756.8256 60.040627Q755.65375 60.040627 754.90375 59.384377Q754.1694 58.728127 754.06 57.65ZM761.65375 59.9L761.65375 58.696877L762.8569 58.696877L762.8569 59.9L761.65375 59.9ZM764.06 57.634377L765.1225 57.49375Q765.2944 58.384377 765.7319 58.790627Q766.1694 59.18125 766.7944 59.18125Q767.5444 59.18125 768.06 58.665627Q768.5756 58.15 768.5756 57.384377Q768.5756 56.665627 768.09125 56.196877Q767.6225 55.7125 766.8881 55.7125Q766.59125 55.7125 766.1381 55.8375L766.2631 54.9Q766.3725 54.915627 766.435 54.915627Q767.1069 54.915627 767.6381 54.571877Q768.185 54.2125 768.185 53.478127Q768.185 52.9 767.7944 52.525Q767.40375 52.134377 766.77875 52.134377Q766.1694 52.134377 765.7475 52.525Q765.34125 52.915627 765.2319 53.68125L764.1694 53.49375Q764.3569 52.446877 765.0444 51.86875Q765.7319 51.275 766.7475 51.275Q767.4506 51.275 768.0444 51.5875Q768.6381 51.884377 768.9506 52.4Q769.2631 52.915627 769.2631 53.509377Q769.2631 54.05625 768.96625 54.525Q768.6694 54.978127 768.09125 55.24375Q768.84125 55.415627 769.2631 55.978127Q769.685 56.525 769.685 57.36875Q769.685 58.49375 768.8569 59.275Q768.0444 60.05625 766.7944 60.05625Q765.6694 60.05625 764.9194 59.384377Q764.1694 58.696877 764.06 57.634377Z" fill-rule="nonzero"/><path fill="#e06666" d="M733.56 74.9C733.56 74.34772 734.0077 73.9 734.56 73.9L744.56 73.9C745.1123 73.9 745.56 74.34772 745.56 74.9L745.56 84.9C745.56 85.452286 745.1123 85.9 744.56 85.9L734.56 85.9C734.0077 85.9 733.56 85.452286 733.56 84.9Z" fill-rule="nonzero"/><path fill="#1a1a1a" d="M754.06 81.65L755.1694 81.55625Q755.2944 82.36875 755.7319 82.775Q756.185 83.18125 756.8256 83.18125Q757.5756 83.18125 758.1069 82.60313Q758.6381 82.025 758.6381 81.0875Q758.6381 80.18125 758.1225 79.66563Q757.6225 79.13438 756.7944 79.13438Q756.2944 79.13438 755.8725 79.36875Q755.46625 79.60313 755.2319 79.9625L754.2475 79.8375L755.0756 75.43125L759.3569 75.43125L759.3569 76.43125L755.9194 76.43125L755.46625 78.74375Q756.2319 78.19688 757.0756 78.19688Q758.2006 78.19688 758.96625 78.97813Q759.7475 79.75938 759.7475 80.99375Q759.7475 82.15 759.0756 83.00938Q758.2475 84.04063 756.8256 84.04063Q755.65375 84.04063 754.90375 83.38438Q754.1694 82.72813 754.06 81.65ZM761.65375 83.9L761.65375 82.69688L762.8569 82.69688L762.8569 83.9L761.65375 83.9ZM767.435 83.9L767.435 81.8375L763.71625 81.8375L763.71625 80.86875L767.6381 75.30625L768.4975 75.30625L768.4975 80.86875L769.65375 80.86875L769.65375 81.8375L768.4975 81.8375L768.4975 83.9L767.435 83.9ZM767.435 80.86875L767.435 77.00938L764.7475 80.86875L767.435 80.86875Z" fill-rule="nonzero"/><path fill="#cc0000" d="M733.56 98.9C733.56 98.34772 734.0077 97.9 734.56 97.9L744.56 97.9C745.1123 97.9 745.56 98.34772 745.56 98.9L745.56 108.9C745.56 109.452286 745.1123 109.9 744.56 109.9L734.56 109.9C734.0077 109.9 733.56 109.452286 733.56 108.9Z" fill-rule="nonzero"/><path fill="#1a1a1a" d="M754.06 105.65L755.1694 105.55625Q755.2944 106.36875 755.7319 106.775Q756.185 107.18125 756.8256 107.18125Q757.5756 107.18125 758.1069 106.60313Q758.6381 106.025 758.6381 105.0875Q758.6381 104.18125 758.1225 103.66563Q757.6225 103.13438 756.7944 103.13438Q756.2944 103.13438 755.8725 103.36875Q755.46625 103.60313 755.2319 103.9625L754.2475 103.8375L755.0756 99.43125L759.3569 99.43125L759.3569 100.43125L755.9194 100.43125L755.46625 102.74375Q756.2319 102.19688 757.0756 102.19688Q758.2006 102.19688 758.96625 102.97813Q759.7475 103.75938 759.7475 104.99375Q759.7475 106.15 759.0756 107.00938Q758.2475 108.04063 756.8256 108.04063Q755.65375 108.04063 754.90375 107.38438Q754.1694 106.72813 754.06 105.65ZM761.65375 107.9L761.65375 106.69688L762.8569 106.69688L762.8569 107.9L761.65375 107.9ZM764.06 105.65L765.1694 105.55625Q765.2944 106.36875 765.7319 106.775Q766.185 107.18125 766.8256 107.18125Q767.5756 107.18125 768.1069 106.60313Q768.6381 106.025 768.6381 105.0875Q768.6381 104.18125 768.1225 103.66563Q767.6225 103.13438 766.7944 103.13438Q766.2944 103.13438 765.8725 103.36875Q765.46625 103.60313 765.2319 103.9625L764.2475 103.8375L765.0756 99.43125L769.3569 99.43125L769.3569 100.43125L765.9194 100.43125L765.46625 102.74375Q766.2319 102.19688 767.0756 102.19688Q768.2006 102.19688 768.96625 102.97813Q769.7475 103.75938 769.7475 104.99375Q769.7475 106.15 769.0756 107.00938Q768.2475 108.04063 766.8256 108.04063Q765.65375 108.04063 764.90375 107.38438Q764.1694 106.72813 764.06 105.65Z" fill-rule="nonzero"/><path fill="#990000" d="M733.56 122.9C733.56 122.34772 734.0077 121.9 734.56 121.9L744.56 121.9C745.1123 121.9 745.56 122.34772 745.56 122.9L745.56 132.9C745.56 133.45229 745.1123 133.9 744.56 133.9L734.56 133.9C734.0077 133.9 733.56 133.45229 733.56 132.9Z" fill-rule="nonzero"/><path fill="#1a1a1a" d="M754.06 129.65L755.1694 129.55624Q755.2944 130.36874 755.7319 130.775Q756.185 131.18124 756.8256 131.18124Q757.5756 131.18124 758.1069 130.60312Q758.6381 130.025 758.6381 129.0875Q758.6381 128.18124 758.1225 127.66562Q757.6225 127.13437 756.7944 127.13437Q756.2944 127.13437 755.8725 127.368744Q755.46625 127.60312 755.2319 127.962494L754.2475 127.837494L755.0756 123.431244L759.3569 123.431244L759.3569 124.431244L755.9194 124.431244L755.46625 126.743744Q756.2319 126.19687 757.0756 126.19687Q758.2006 126.19687 758.96625 126.97812Q759.7475 127.75937 759.7475 128.99374Q759.7475 130.15 759.0756 131.00937Q758.2475 132.04062 756.8256 132.04062Q755.65375 132.04062 754.90375 131.38437Q754.1694 130.72812 754.06 129.65ZM761.65375 131.9L761.65375 130.69687L762.8569 130.69687L762.8569 131.9L761.65375 131.9ZM769.52875 125.41562L768.4819 125.493744Q768.34125 124.868744 768.09125 124.587494Q767.65375 124.13437 767.02875 124.13437Q766.52875 124.13437 766.1381 124.41562Q765.65375 124.79062 765.3569 125.493744Q765.0756 126.181244 765.06 127.462494Q765.435 126.88437 765.9819 126.60312Q766.5444 126.32187 767.15375 126.32187Q768.2006 126.32187 768.935 127.10312Q769.685 127.88437 769.685 129.10312Q769.685 129.91562 769.3256 130.61874Q768.9819 131.30624 768.3725 131.68124Q767.7631 132.04062 766.9975 132.04062Q765.6694 132.04062 764.84125 131.07187Q764.0131 130.10312 764.0131 127.88437Q764.0131 125.38437 764.935 124.25937Q765.7319 123.274994 767.09125 123.274994Q768.1069 123.274994 768.7475 123.85312Q769.40375 124.41562 769.52875 125.41562ZM765.2319 129.11874Q765.2319 129.66562 765.4506 130.16562Q765.685 130.65 766.09125 130.91562Q766.5131 131.18124 766.9819 131.18124Q767.6381 131.18124 768.1225 130.65Q768.6069 130.10312 768.6069 129.18124Q768.6069 128.29062 768.1225 127.774994Q767.65375 127.25937 766.935 127.25937Q766.21625 127.25937 765.71625 127.774994Q765.2319 128.29062 765.2319 129.11874Z" fill-rule="nonzero"/><path fill="#c9daf8" d="M733.56 146.9C733.56 146.34772 734.0077 145.9 734.56 145.9L744.56 145.9C745.1123 145.9 745.56 146.34772 745.56 146.9L745.56 156.9C745.56 157.45229 745.1123 157.9 744.56 157.9L734.56 157.9C734.0077 157.9 733.56 157.45229 733.56 156.9Z" fill-rule="nonzero"/><path fill="#1a1a1a" d="M754.1225 148.43124L754.1225 147.41562L759.685 147.41562L759.685 148.24374Q758.8725 149.11874 758.06 150.57187Q757.2631 152.00937 756.8256 153.54062Q756.4975 154.61874 756.4194 155.9L755.3256 155.9Q755.34125 154.88437 755.71625 153.44687Q756.1069 152.00937 756.81 150.68124Q757.52875 149.35312 758.34125 148.43124L754.1225 148.43124ZM761.65375 155.9L761.65375 154.69687L762.8569 154.69687L762.8569 155.9L761.65375 155.9ZM764.06 151.66562Q764.06 150.13437 764.3725 149.2125Q764.685 148.275 765.2944 147.775Q765.9194 147.275 766.8569 147.275Q767.5444 147.275 768.06 147.55624Q768.59125 147.8375 768.935 148.36874Q769.27875 148.88437 769.46625 149.63437Q769.65375 150.38437 769.65375 151.66562Q769.65375 153.18124 769.34125 154.10312Q769.0444 155.025 768.4194 155.54062Q767.81 156.04062 766.8569 156.04062Q765.6225 156.04062 764.90375 155.15Q764.06 154.0875 764.06 151.66562ZM765.1381 151.66562Q765.1381 153.775 765.6381 154.47812Q766.1381 155.18124 766.8569 155.18124Q767.59125 155.18124 768.0756 154.47812Q768.5756 153.775 768.5756 151.66562Q768.5756 149.54062 768.0756 148.85312Q767.59125 148.15 766.84125 148.15Q766.1225 148.15 765.685 148.75937Q765.1381 149.54062 765.1381 151.66562Z" fill-rule="nonzero"/><path fill="#9fc5e8" d="M733.56 170.9C733.56 170.34772 734.0077 169.9 734.56 169.9L744.56 169.9C745.1123 169.9 745.56 170.34772 745.56 170.9L745.56 180.9C745.56 181.45229 745.1123 181.9 744.56 181.9L734.56 181.9C734.0077 181.9 733.56 181.45229 733.56 180.9Z" fill-rule="nonzero"/><path fill="#1a1a1a" d="M754.1225 172.43124L754.1225 171.41562L759.685 171.41562L759.685 172.24374Q758.8725 173.11874 758.06 174.57187Q757.2631 176.00937 756.8256 177.54062Q756.4975 178.61874 756.4194 179.9L755.3256 179.9Q755.34125 178.88437 755.71625 177.44687Q756.1069 176.00937 756.81 174.68124Q757.52875 173.35312 758.34125 172.43124L754.1225 172.43124ZM761.65375 179.9L761.65375 178.69687L762.8569 178.69687L762.8569 179.9L761.65375 179.9ZM768.02875 179.9L766.9819 179.9L766.9819 173.18124Q766.59125 173.54062 765.96625 173.91562Q765.3569 174.275 764.8725 174.44687L764.8725 173.43124Q765.7475 173.00937 766.40375 172.43124Q767.0756 171.8375 767.3569 171.275L768.02875 171.275L768.02875 179.9Z" fill-rule="nonzero"/><path fill="#6fa8dc" d="M733.56 194.9C733.56 194.34772 734.0077 193.9 734.56 193.9L744.56 193.9C745.1123 193.9 745.56 194.34772 745.56 194.9L745.56 204.9C745.56 205.45229 745.1123 205.9 744.56 205.9L734.56 205.9C734.0077 205.9 733.56 205.45229 733.56 204.9Z" fill-rule="nonzero"/><path fill="#1a1a1a" d="M754.1225 196.43124L754.1225 195.41562L759.685 195.41562L759.685 196.24374Q758.8725 197.11874 758.06 198.57187Q757.2631 200.00937 756.8256 201.54062Q756.4975 202.61874 756.4194 203.9L755.3256 203.9Q755.34125 202.88437 755.71625 201.44687Q756.1069 200.00937 756.81 198.68124Q757.52875 197.35312 758.34125 196.43124L754.1225 196.43124ZM761.65375 203.9L761.65375 202.69687L762.8569 202.69687L762.8569 203.9L761.65375 203.9ZM769.6069 202.88437L769.6069 203.9L763.9194 203.9Q763.9194 203.525 764.0444 203.16562Q764.2631 202.5875 764.7319 202.025Q765.21625 201.4625 766.1225 200.72812Q767.52875 199.57187 768.0131 198.9Q768.5131 198.22812 768.5131 197.63437Q768.5131 197.00937 768.06 196.5875Q767.6069 196.15 766.8881 196.15Q766.1225 196.15 765.6694 196.60312Q765.21625 197.05624 765.2006 197.86874L764.1225 197.75937Q764.2319 196.54062 764.9506 195.91562Q765.685 195.275 766.9194 195.275Q768.15375 195.275 768.8725 195.9625Q769.59125 196.65 769.59125 197.66562Q769.59125 198.18124 769.3725 198.68124Q769.1694 199.16562 768.6694 199.72812Q768.185 200.275 767.06 201.22812Q766.1069 202.025 765.8256 202.32187Q765.56 202.60312 765.3881 202.88437L769.6069 202.88437Z" fill-rule="nonzero"/><path fill="#3d85c6" d="M733.56 218.9C733.56 218.34772 734.0077 217.9 734.56 217.9L744.56 217.9C745.1123 217.9 745.56 218.34772 745.56 218.9L745.56 228.9C745.56 229.45229 745.1123 229.9 744.56 229.9L734.56 229.9C734.0077 229.9 733.56 229.45229 733.56 228.9Z" fill-rule="nonzero"/><path fill="#1a1a1a" d="M754.1225 220.43124L754.1225 219.41562L759.685 219.41562L759.685 220.24374Q758.8725 221.11874 758.06 222.57187Q757.2631 224.00937 756.8256 225.54062Q756.4975 226.61874 756.4194 227.9L755.3256 227.9Q755.34125 226.88437 755.71625 225.44687Q756.1069 224.00937 756.81 222.68124Q757.52875 221.35312 758.34125 220.43124L754.1225 220.43124ZM761.65375 227.9L761.65375 226.69687L762.8569 226.69687L762.8569 227.9L761.65375 227.9ZM764.06 225.63437L765.1225 225.49374Q765.2944 226.38437 765.7319 226.79062Q766.1694 227.18124 766.7944 227.18124Q767.5444 227.18124 768.06 226.66562Q768.5756 226.15 768.5756 225.38437Q768.5756 224.66562 768.09125 224.19687Q767.6225 223.7125 766.8881 223.7125Q766.59125 223.7125 766.1381 223.8375L766.2631 222.9Q766.3725 222.91562 766.435 222.91562Q767.1069 222.91562 767.6381 222.57187Q768.185 222.2125 768.185 221.47812Q768.185 220.9 767.7944 220.525Q767.40375 220.13437 766.77875 220.13437Q766.1694 220.13437 765.7475 220.525Q765.34125 220.91562 765.2319 221.68124L764.1694 221.49374Q764.3569 220.44687 765.0444 219.86874Q765.7319 219.275 766.7475 219.275Q767.4506 219.275 768.0444 219.5875Q768.6381 219.88437 768.9506 220.4Q769.2631 220.91562 769.2631 221.50937Q769.2631 222.05624 768.96625 222.525Q768.6694 222.97812 768.09125 223.24374Q768.84125 223.41562 769.2631 223.97812Q769.685 224.525 769.685 225.36874Q769.685 226.49374 768.8569 227.275Q768.0444 228.05624 766.7944 228.05624Q765.6694 228.05624 764.9194 227.38437Q764.1694 226.69687 764.06 225.63437Z" fill-rule="nonzero"/><path fill="#0b5394" d="M733.56 242.9C733.56 242.34772 734.0077 241.9 734.56 241.9L744.56 241.9C745.1123 241.9 745.56 242.34772 745.56 242.9L745.56 252.9C745.56 253.45229 745.1123 253.9 744.56 253.9L734.56 253.9C734.0077 253.9 733.56 253.45229 733.56 252.9Z" fill-rule="nonzero"/><path fill="#1a1a1a" d="M754.1225 244.43124L754.1225 243.41562L759.685 243.41562L759.685 244.24374Q758.8725 245.11874 758.06 246.57187Q757.2631 248.00937 756.8256 249.54062Q756.4975 250.61874 756.4194 251.9L755.3256 251.9Q755.34125 250.88437 755.71625 249.44687Q756.1069 248.00937 756.81 246.68124Q757.52875 245.35312 758.34125 244.43124L754.1225 244.43124ZM761.65375 251.9L761.65375 250.69687L762.8569 250.69687L762.8569 251.9L761.65375 251.9ZM767.435 251.9L767.435 249.8375L763.71625 249.8375L763.71625 248.86874L767.6381 243.30624L768.4975 243.30624L768.4975 248.86874L769.65375 248.86874L769.65375 249.8375L768.4975 249.8375L768.4975 251.9L767.435 251.9ZM767.435 248.86874L767.435 245.00937L764.7475 248.86874L767.435 248.86874Z" fill-rule="nonzero"/><path fill="#b6d7a8" d="M733.56 266.9C733.56 266.34772 734.0077 265.9 734.56 265.9L744.56 265.9C745.1123 265.9 745.56 266.34772 745.56 266.9L745.56 276.9C745.56 277.45227 745.1123 277.9 744.56 277.9L734.56 277.9C734.0077 277.9 733.56 277.45227 733.56 276.9Z" fill-rule="nonzero"/><path fill="#1a1a1a" d="M755.685 271.24374Q755.02875 270.99374 754.7006 270.55624Q754.3881 270.10312 754.3881 269.49374Q754.3881 268.55624 755.06 267.91562Q755.7475 267.275 756.8569 267.275Q757.9819 267.275 758.6694 267.93124Q759.3569 268.5875 759.3569 269.525Q759.3569 270.11874 759.0444 270.55624Q758.7319 270.99374 758.09125 271.24374Q758.8881 271.49374 759.2944 272.07187Q759.7006 272.65 759.7006 273.44687Q759.7006 274.54062 758.9194 275.29062Q758.15375 276.04062 756.8725 276.04062Q755.6069 276.04062 754.8256 275.29062Q754.0444 274.54062 754.0444 273.41562Q754.0444 272.57187 754.46625 272.00937Q754.90375 271.44687 755.685 271.24374ZM755.46625 269.44687Q755.46625 270.05624 755.8569 270.44687Q756.2631 270.8375 756.8881 270.8375Q757.4975 270.8375 757.8881 270.4625Q758.27875 270.07187 758.27875 269.50937Q758.27875 268.93124 757.8725 268.54062Q757.46625 268.13437 756.8725 268.13437Q756.2631 268.13437 755.8569 268.525Q755.46625 268.91562 755.46625 269.44687ZM755.1381 273.41562Q755.1381 273.86874 755.34125 274.29062Q755.56 274.7125 755.9819 274.94687Q756.40375 275.18124 756.8881 275.18124Q757.6381 275.18124 758.1225 274.69687Q758.6225 274.2125 758.6225 273.4625Q758.6225 272.69687 758.1225 272.19687Q757.6225 271.69687 756.8569 271.69687Q756.1069 271.69687 755.6225 272.19687Q755.1381 272.68124 755.1381 273.41562ZM761.65375 275.9L761.65375 274.69687L762.8569 274.69687L762.8569 275.9L761.65375 275.9ZM764.06 271.66562Q764.06 270.13437 764.3725 269.2125Q764.685 268.275 765.2944 267.775Q765.9194 267.275 766.8569 267.275Q767.5444 267.275 768.06 267.55624Q768.59125 267.8375 768.935 268.36874Q769.27875 268.88437 769.46625 269.63437Q769.65375 270.38437 769.65375 271.66562Q769.65375 273.18124 769.34125 274.10312Q769.0444 275.025 768.4194 275.54062Q767.81 276.04062 766.8569 276.04062Q765.6225 276.04062 764.90375 275.15Q764.06 274.0875 764.06 271.66562ZM765.1381 271.66562Q765.1381 273.775 765.6381 274.47812Q766.1381 275.18124 766.8569 275.18124Q767.59125 275.18124 768.0756 274.47812Q768.5756 273.775 768.5756 271.66562Q768.5756 269.54062 768.0756 268.85312Q767.59125 268.15 766.84125 268.15Q766.1225 268.15 765.685 268.75937Q765.1381 269.54062 765.1381 271.66562Z" fill-rule="nonzero"/><path fill="#93c47d" d="M733.56 290.9C733.56 290.34772 734.0077 289.9 734.56 289.9L744.56 289.9C745.1123 289.9 745.56 290.34772 745.56 290.9L745.56 300.9C745.56 301.45227 745.1123 301.9 744.56 301.9L734.56 301.9C734.0077 301.9 733.56 301.45227 733.56 300.9Z" fill-rule="nonzero"/><path fill="#1a1a1a" d="M755.685 295.24374Q755.02875 294.99374 754.7006 294.55624Q754.3881 294.10312 754.3881 293.49374Q754.3881 292.55624 755.06 291.91562Q755.7475 291.275 756.8569 291.275Q757.9819 291.275 758.6694 291.93124Q759.3569 292.5875 759.3569 293.525Q759.3569 294.11874 759.0444 294.55624Q758.7319 294.99374 758.09125 295.24374Q758.8881 295.49374 759.2944 296.07187Q759.7006 296.65 759.7006 297.44687Q759.7006 298.54062 758.9194 299.29062Q758.15375 300.04062 756.8725 300.04062Q755.6069 300.04062 754.8256 299.29062Q754.0444 298.54062 754.0444 297.41562Q754.0444 296.57187 754.46625 296.00937Q754.90375 295.44687 755.685 295.24374ZM755.46625 293.44687Q755.46625 294.05624 755.8569 294.44687Q756.2631 294.8375 756.8881 294.8375Q757.4975 294.8375 757.8881 294.4625Q758.27875 294.07187 758.27875 293.50937Q758.27875 292.93124 757.8725 292.54062Q757.46625 292.13437 756.8725 292.13437Q756.2631 292.13437 755.8569 292.525Q755.46625 292.91562 755.46625 293.44687ZM755.1381 297.41562Q755.1381 297.86874 755.34125 298.29062Q755.56 298.7125 755.9819 298.94687Q756.40375 299.18124 756.8881 299.18124Q757.6381 299.18124 758.1225 298.69687Q758.6225 298.2125 758.6225 297.4625Q758.6225 296.69687 758.1225 296.19687Q757.6225 295.69687 756.8569 295.69687Q756.1069 295.69687 755.6225 296.19687Q755.1381 296.68124 755.1381 297.41562ZM761.65375 299.9L761.65375 298.69687L762.8569 298.69687L762.8569 299.9L761.65375 299.9ZM768.02875 299.9L766.9819 299.9L766.9819 293.18124Q766.59125 293.54062 765.96625 293.91562Q765.3569 294.275 764.8725 294.44687L764.8725 293.43124Q765.7475 293.00937 766.40375 292.43124Q767.0756 291.8375 767.3569 291.275L768.02875 291.275L768.02875 299.9Z" fill-rule="nonzero"/><path fill="#6aa84f" d="M733.56 314.9C733.56 314.34772 734.0077 313.9 734.56 313.9L744.56 313.9C745.1123 313.9 745.56 314.34772 745.56 314.9L745.56 324.9C745.56 325.45227 745.1123 325.9 744.56 325.9L734.56 325.9C734.0077 325.9 733.56 325.45227 733.56 324.9Z" fill-rule="nonzero"/><path fill="#1a1a1a" d="M755.685 319.24374Q755.02875 318.99374 754.7006 318.55624Q754.3881 318.10312 754.3881 317.49374Q754.3881 316.55624 755.06 315.91562Q755.7475 315.275 756.8569 315.275Q757.9819 315.275 758.6694 315.93124Q759.3569 316.5875 759.3569 317.525Q759.3569 318.11874 759.0444 318.55624Q758.7319 318.99374 758.09125 319.24374Q758.8881 319.49374 759.2944 320.07187Q759.7006 320.65 759.7006 321.44687Q759.7006 322.54062 758.9194 323.29062Q758.15375 324.04062 756.8725 324.04062Q755.6069 324.04062 754.8256 323.29062Q754.0444 322.54062 754.0444 321.41562Q754.0444 320.57187 754.46625 320.00937Q754.90375 319.44687 755.685 319.24374ZM755.46625 317.44687Q755.46625 318.05624 755.8569 318.44687Q756.2631 318.8375 756.8881 318.8375Q757.4975 318.8375 757.8881 318.4625Q758.27875 318.07187 758.27875 317.50937Q758.27875 316.93124 757.8725 316.54062Q757.46625 316.13437 756.8725 316.13437Q756.2631 316.13437 755.8569 316.525Q755.46625 316.91562 755.46625 317.44687ZM755.1381 321.41562Q755.1381 321.86874 755.34125 322.29062Q755.56 322.7125 755.9819 322.94687Q756.40375 323.18124 756.8881 323.18124Q757.6381 323.18124 758.1225 322.69687Q758.6225 322.2125 758.6225 321.4625Q758.6225 320.69687 758.1225 320.19687Q757.6225 319.69687 756.8569 319.69687Q756.1069 319.69687 755.6225 320.19687Q755.1381 320.68124 755.1381 321.41562ZM761.65375 323.9L761.65375 322.69687L762.8569 322.69687L762.8569 323.9L761.65375 323.9ZM769.6069 322.88437L769.6069 323.9L763.9194 323.9Q763.9194 323.525 764.0444 323.16562Q764.2631 322.5875 764.7319 322.025Q765.21625 321.4625 766.1225 320.72812Q767.52875 319.57187 768.0131 318.9Q768.5131 318.22812 768.5131 317.63437Q768.5131 317.00937 768.06 316.5875Q767.6069 316.15 766.8881 316.15Q766.1225 316.15 765.6694 316.60312Q765.21625 317.05624 765.2006 317.86874L764.1225 317.75937Q764.2319 316.54062 764.9506 315.91562Q765.685 315.275 766.9194 315.275Q768.15375 315.275 768.8725 315.9625Q769.59125 316.65 769.59125 317.66562Q769.59125 318.18124 769.3725 318.68124Q769.1694 319.16562 768.6694 319.72812Q768.185 320.275 767.06 321.22812Q766.1069 322.025 765.8256 322.32187Q765.56 322.60312 765.3881 322.88437L769.6069 322.88437Z" fill-rule="nonzero"/><path fill="#38761d" d="M733.56 338.9C733.56 338.34772 734.0077 337.9 734.56 337.9L744.56 337.9C745.1123 337.9 745.56 338.34772 745.56 338.9L745.56 348.9C745.56 349.45227 745.1123 349.9 744.56 349.9L734.56 349.9C734.0077 349.9 733.56 349.45227 733.56 348.9Z" fill-rule="nonzero"/><path fill="#1a1a1a" d="M755.685 343.24374Q755.02875 342.99374 754.7006 342.55624Q754.3881 342.10312 754.3881 341.49374Q754.3881 340.55624 755.06 339.91562Q755.7475 339.275 756.8569 339.275Q757.9819 339.275 758.6694 339.93124Q759.3569 340.5875 759.3569 341.525Q759.3569 342.11874 759.0444 342.55624Q758.7319 342.99374 758.09125 343.24374Q758.8881 343.49374 759.2944 344.07187Q759.7006 344.65 759.7006 345.44687Q759.7006 346.54062 758.9194 347.29062Q758.15375 348.04062 756.8725 348.04062Q755.6069 348.04062 754.8256 347.29062Q754.0444 346.54062 754.0444 345.41562Q754.0444 344.57187 754.46625 344.00937Q754.90375 343.44687 755.685 343.24374ZM755.46625 341.44687Q755.46625 342.05624 755.8569 342.44687Q756.2631 342.8375 756.8881 342.8375Q757.4975 342.8375 757.8881 342.4625Q758.27875 342.07187 758.27875 341.50937Q758.27875 340.93124 757.8725 340.54062Q757.46625 340.13437 756.8725 340.13437Q756.2631 340.13437 755.8569 340.525Q755.46625 340.91562 755.46625 341.44687ZM755.1381 345.41562Q755.1381 345.86874 755.34125 346.29062Q755.56 346.7125 755.9819 346.94687Q756.40375 347.18124 756.8881 347.18124Q757.6381 347.18124 758.1225 346.69687Q758.6225 346.2125 758.6225 345.4625Q758.6225 344.69687 758.1225 344.19687Q757.6225 343.69687 756.8569 343.69687Q756.1069 343.69687 755.6225 344.19687Q755.1381 344.68124 755.1381 345.41562ZM761.65375 347.9L761.65375 346.69687L762.8569 346.69687L762.8569 347.9L761.65375 347.9ZM764.06 345.63437L765.1225 345.49374Q765.2944 346.38437 765.7319 346.79062Q766.1694 347.18124 766.7944 347.18124Q767.5444 347.18124 768.06 346.66562Q768.5756 346.15 768.5756 345.38437Q768.5756 344.66562 768.09125 344.19687Q767.6225 343.7125 766.8881 343.7125Q766.59125 343.7125 766.1381 343.8375L766.2631 342.9Q766.3725 342.91562 766.435 342.91562Q767.1069 342.91562 767.6381 342.57187Q768.185 342.2125 768.185 341.47812Q768.185 340.9 767.7944 340.525Q767.40375 340.13437 766.77875 340.13437Q766.1694 340.13437 765.7475 340.525Q765.34125 340.91562 765.2319 341.68124L764.1694 341.49374Q764.3569 340.44687 765.0444 339.86874Q765.7319 339.275 766.7475 339.275Q767.4506 339.275 768.0444 339.5875Q768.6381 339.88437 768.9506 340.4Q769.2631 340.91562 769.2631 341.50937Q769.2631 342.05624 768.96625 342.525Q768.6694 342.97812 768.09125 343.24374Q768.84125 343.41562 769.2631 343.97812Q769.685 344.525 769.685 345.36874Q769.685 346.49374 768.8569 347.275Q768.0444 348.05624 766.7944 348.05624Q765.6694 348.05624 764.9194 347.38437Q764.1694 346.69687 764.06 345.63437Z" fill-rule="nonzero"/></svg>