<svg version="1.1" viewBox="0.0 0.0 746.0 461.0" fill="none" stroke="none" stroke-linecap="square" stroke-miterlimit="10" width="746" height="461" xmlns:xlink="http://www.w3.org/1999/xlink" xmlns="http://www.w3.org/2000/svg"><path fill="#ffffff" d="M0 0L746.0 0L746.0 461.0L0 461.0L0 0Z" fill-rule="nonzero"/><path stroke="#333333" stroke-width="1.0" stroke-linecap="butt" d="M61.5 417.5L652.5 417.5" fill-rule="nonzero"/><path stroke="#cccccc" stroke-width="1.0" stroke-linecap="butt" d="M61.5 320.5L652.5 320.5" fill-rule="nonzero"/><path stroke="#cccccc" stroke-width="1.0" stroke-linecap="butt" d="M61.5 224.5L652.5 224.5" fill-rule="nonzero"/><path stroke="#cccccc" stroke-width="1.0" stroke-linecap="butt" d="M61.5 127.5L652.5 127.5" fill-rule="nonzero"/><path stroke="#cccccc" stroke-width="1.0" stroke-linecap="butt" d="M61.5 30.5L652.5 30.5" fill-rule="nonzero"/><clipPath id="id_0"><path d="M61.05 30.05L652.96 30.05L652.96 417.95L61.05 417.95L61.05 30.05Z" clip-rule="nonzero"/></clipPath><path stroke="#000000" stroke-width="2.0" stroke-linecap="butt" stroke-opacity="0.0" clip-path="url(#id_0)" d="M155.0 418.0L94.0 418.0L94.0 418.0L155.0 418.0Z" fill-rule="nonzero"/><path fill="#38761d" clip-path="url(#id_0)" d="M155.0 418.0L94.0 418.0L94.0 418.0L155.0 418.0Z" fill-rule="nonzero"/><path stroke="#000000" stroke-width="2.0" stroke-linecap="butt" stroke-opacity="0.0" clip-path="url(#id_0)" d="M248.0 418.0L187.0 418.0L187.0 418.0L248.0 418.0Z" fill-rule="nonzero"/><path fill="#38761d" clip-path="url(#id_0)" d="M248.0 418.0L187.0 418.0L187.0 418.0L248.0 418.0Z" fill-rule="nonzero"/><path stroke="#000000" stroke-width="2.0" stroke-linecap="butt" stroke-opacity="0.0" clip-path="url(#id_0)" d="M341.0 418.0L280.0 418.0L280.0 418.0L341.0 418.0Z" fill-rule="nonzero"/><path fill="#38761d" clip-path="url(#id_0)" d="M341.0 418.0L280.0 418.0L280.0 418.0L341.0 418.0Z" fill-rule="nonzero"/><path stroke="#000000" stroke-width="2.0" stroke-linecap="butt" stroke-opacity="0.0" clip-path="url(#id_0)" d="M435.0 418.0L374.0 418.0L374.0 418.0L435.0 418.0Z" fill-rule="nonzero"/><path fill="#38761d" clip-path="url(#id_0)" d="M435.0 418.0L374.0 418.0L374.0 418.0L435.0 418.0Z" fill-rule="nonzero"/><path stroke="#000000" stroke-width="2.0" stroke-linecap="butt" stroke-opacity="0.0" clip-path="url(#id_0)" d="M528.0 418.0L467.0 418.0L467.0 398.0L528.0 398.0Z" fill-rule="nonzero"/><path fill="#38761d" clip-path="url(#id_0)" d="M528.0 418.0L467.0 418.0L467.0 398.0L528.0 398.0Z" fill-rule="nonzero"/><path stroke="#000000" stroke-width="2.0" stroke-linecap="butt" stroke-opacity="0.0" clip-path="url(#id_0)" d="M621.0 418.0L560.0 418.0L560.0 365.0L621.0 365.0Z" fill-rule="nonzero"/><path fill="#38761d" clip-path="url(#id_0)" d="M621.0 418.0L560.0 418.0L560.0 365.0L621.0 365.0Z" fill-rule="nonzero"/><path stroke="#000000" stroke-width="2.0" stroke-linecap="butt" stroke-opacity="0.0" clip-path="url(#id_0)" d="M155.0 418.0L94.0 418.0L94.0 418.0L155.0 418.0Z" fill-rule="nonzero"/><path fill="#6aa84f" clip-path="url(#id_0)" d="M155.0 418.0L94.0 418.0L94.0 418.0L155.0 418.0Z" fill-rule="nonzero"/><path stroke="#000000" stroke-width="2.0" stroke-linecap="butt" stroke-opacity="0.0" clip-path="url(#id_0)" d="M248.0 418.0L187.0 418.0L187.0 417.0L248.0 417.0Z" fill-rule="nonzero"/><path fill="#6aa84f" clip-path="url(#id_0)" d="M248.0 418.0L187.0 418.0L187.0 417.0L248.0 417.0Z" fill-rule="nonzero"/><path stroke="#000000" stroke-width="2.0" stroke-linecap="butt" stroke-opacity="0.0" clip-path="url(#id_0)" d="M341.0 418.0L280.0 418.0L280.0 392.0L341.0 392.0Z" fill-rule="nonzero"/><path fill="#6aa84f" clip-path="url(#id_0)" d="M341.0 418.0L280.0 418.0L280.0 392.0L341.0 392.0Z" fill-rule="nonzero"/><path stroke="#000000" stroke-width="2.0" stroke-linecap="butt" stroke-opacity="0.0" clip-path="url(#id_0)" d="M435.0 418.0L374.0 418.0L374.0 339.0L435.0 339.0Z" fill-rule="nonzero"/><path fill="#6aa84f" clip-path="url(#id_0)" d="M435.0 418.0L374.0 418.0L374.0 339.0L435.0 339.0Z" fill-rule="nonzero"/><path stroke="#000000" stroke-width="2.0" stroke-linecap="butt" stroke-opacity="0.0" clip-path="url(#id_0)" d="M528.0 398.0L467.0 398.0L467.0 269.0L528.0 269.0Z" fill-rule="nonzero"/><path fill="#6aa84f" clip-path="url(#id_0)" d="M528.0 398.0L467.0 398.0L467.0 269.0L528.0 269.0Z" fill-rule="nonzero"/><path stroke="#000000" stroke-width="2.0" stroke-linecap="butt" stroke-opacity="0.0" clip-path="url(#id_0)" d="M621.0 365.0L560.0 365.0L560.0 231.0L621.0 231.0Z" fill-rule="nonzero"/><path fill="#6aa84f" clip-path="url(#id_0)" d="M621.0 365.0L560.0 365.0L560.0 231.0L621.0 231.0Z" fill-rule="nonzero"/><path stroke="#000000" stroke-width="2.0" stroke-linecap="butt" stroke-opacity="0.0" clip-path="url(#id_0)" d="M155.0 418.0L94.0 418.0L94.0 399.0L155.0 399.0Z" fill-rule="nonzero"/><path fill="#93c47d" clip-path="url(#id_0)" d="M155.0 418.0L94.0 418.0L94.0 399.0L155.0 399.0Z" fill-rule="nonzero"/><path stroke="#000000" stroke-width="2.0" stroke-linecap="butt" stroke-opacity="0.0" clip-path="url(#id_0)" d="M248.0 417.0L187.0 417.0L187.0 349.0L248.0 349.0Z" fill-rule="nonzero"/><path fill="#93c47d" clip-path="url(#id_0)" d="M248.0 417.0L187.0 417.0L187.0 349.0L248.0 349.0Z" fill-rule="nonzero"/><path stroke="#000000" stroke-width="2.0" stroke-linecap="butt" stroke-opacity="0.0" clip-path="url(#id_0)" d="M341.0 392.0L280.0 392.0L280.0 276.0L341.0 276.0Z" fill-rule="nonzero"/><path fill="#93c47d" clip-path="url(#id_0)" d="M341.0 392.0L280.0 392.0L280.0 276.0L341.0 276.0Z" fill-rule="nonzero"/><path stroke="#000000" stroke-width="2.0" stroke-linecap="butt" stroke-opacity="0.0" clip-path="url(#id_0)" d="M435.0 339.0L374.0 339.0L374.0 211.0L435.0 211.0Z" fill-rule="nonzero"/><path fill="#93c47d" clip-path="url(#id_0)" d="M435.0 339.0L374.0 339.0L374.0 211.0L435.0 211.0Z" fill-rule="nonzero"/><path stroke="#000000" stroke-width="2.0" stroke-linecap="butt" stroke-opacity="0.0" clip-path="url(#id_0)" d="M528.0 269.0L467.0 269.0L467.0 157.0L528.0 157.0Z" fill-rule="nonzero"/><path fill="#93c47d" clip-path="url(#id_0)" d="M528.0 269.0L467.0 269.0L467.0 157.0L528.0 157.0Z" fill-rule="nonzero"/><path stroke="#000000" stroke-width="2.0" stroke-linecap="butt" stroke-opacity="0.0" clip-path="url(#id_0)" d="M621.0 231.0L560.0 231.0L560.0 134.0L621.0 134.0Z" fill-rule="nonzero"/><path fill="#93c47d" clip-path="url(#id_0)" d="M621.0 231.0L560.0 231.0L560.0 134.0L621.0 134.0Z" fill-rule="nonzero"/><path stroke="#000000" stroke-width="2.0" stroke-linecap="butt" stroke-opacity="0.0" clip-path="url(#id_0)" d="M155.0 399.0L94.0 399.0L94.0 244.0L155.0 244.0Z" fill-rule="nonzero"/><path fill="#b6d7a8" clip-path="url(#id_0)" d="M155.0 399.0L94.0 399.0L94.0 244.0L155.0 244.0Z" fill-rule="nonzero"/><path stroke="#000000" stroke-width="2.0" stroke-linecap="butt" stroke-opacity="0.0" clip-path="url(#id_0)" d="M248.0 349.0L187.0 349.0L187.0 192.0L248.0 192.0Z" fill-rule="nonzero"/><path fill="#b6d7a8" clip-path="url(#id_0)" d="M248.0 349.0L187.0 349.0L187.0 192.0L248.0 192.0Z" fill-rule="nonzero"/><path stroke="#000000" stroke-width="2.0" stroke-linecap="butt" stroke-opacity="0.0" clip-path="url(#id_0)" d="M341.0 276.0L280.0 276.0L280.0 135.0L341.0 135.0Z" fill-rule="nonzero"/><path fill="#b6d7a8" clip-path="url(#id_0)" d="M341.0 276.0L280.0 276.0L280.0 135.0L341.0 135.0Z" fill-rule="nonzero"/><path stroke="#000000" stroke-width="2.0" stroke-linecap="butt" stroke-opacity="0.0" clip-path="url(#id_0)" d="M435.0 211.0L374.0 211.0L374.0 108.0L435.0 108.0Z" fill-rule="nonzero"/><path fill="#b6d7a8" clip-path="url(#id_0)" d="M435.0 211.0L374.0 211.0L374.0 108.0L435.0 108.0Z" fill-rule="nonzero"/><path stroke="#000000" stroke-width="2.0" stroke-linecap="butt" stroke-opacity="0.0" clip-path="url(#id_0)" d="M528.0 157.0L467.0 157.0L467.0 86.0L528.0 86.0Z" fill-rule="nonzero"/><path fill="#b6d7a8" clip-path="url(#id_0)" d="M528.0 157.0L467.0 157.0L467.0 86.0L528.0 86.0Z" fill-rule="nonzero"/><path stroke="#000000" stroke-width="2.0" stroke-linecap="butt" stroke-opacity="0.0" clip-path="url(#id_0)" d="M621.0 134.0L560.0 134.0L560.0 82.0L621.0 82.0Z" fill-rule="nonzero"/><path fill="#b6d7a8" clip-path="url(#id_0)" d="M621.0 134.0L560.0 134.0L560.0 82.0L621.0 82.0Z" fill-rule="nonzero"/><path stroke="#000000" stroke-width="2.0" stroke-linecap="butt" stroke-opacity="0.0" clip-path="url(#id_0)" d="M155.0 244.0L94.0 244.0L94.0 179.0L155.0 179.0Z" fill-rule="nonzero"/><path fill="#d9ead3" clip-path="url(#id_0)" d="M155.0 244.0L94.0 244.0L94.0 179.0L155.0 179.0Z" fill-rule="nonzero"/><path stroke="#000000" stroke-width="2.0" stroke-linecap="butt" stroke-opacity="0.0" clip-path="url(#id_0)" d="M248.0 192.0L187.0 192.0L187.0 143.0L248.0 143.0Z" fill-rule="nonzero"/><path fill="#d9ead3" clip-path="url(#id_0)" d="M248.0 192.0L187.0 192.0L187.0 143.0L248.0 143.0Z" fill-rule="nonzero"/><path stroke="#000000" stroke-width="2.0" stroke-linecap="butt" stroke-opacity="0.0" clip-path="url(#id_0)" d="M341.0 135.0L280.0 135.0L280.0 107.0L341.0 107.0Z" fill-rule="nonzero"/><path fill="#d9ead3" clip-path="url(#id_0)" d="M341.0 135.0L280.0 135.0L280.0 107.0L341.0 107.0Z" fill-rule="nonzero"/><path stroke="#000000" stroke-width="2.0" stroke-linecap="butt" stroke-opacity="0.0" clip-path="url(#id_0)" d="M435.0 108.0L374.0 108.0L374.0 87.0L435.0 87.0Z" fill-rule="nonzero"/><path fill="#d9ead3" clip-path="url(#id_0)" d="M435.0 108.0L374.0 108.0L374.0 87.0L435.0 87.0Z" fill-rule="nonzero"/><path stroke="#000000" stroke-width="2.0" stroke-linecap="butt" stroke-opacity="0.0" clip-path="url(#id_0)" d="M528.0 86.0L467.0 86.0L467.0 72.0L528.0 72.0Z" fill-rule="nonzero"/><path fill="#d9ead3" clip-path="url(#id_0)" d="M528.0 86.0L467.0 86.0L467.0 72.0L528.0 72.0Z" fill-rule="nonzero"/><path stroke="#000000" stroke-width="2.0" stroke-linecap="butt" stroke-opacity="0.0" clip-path="url(#id_0)" d="M621.0 82.0L560.0 82.0L560.0 69.0L621.0 69.0Z" fill-rule="nonzero"/><path fill="#d9ead3" clip-path="url(#id_0)" d="M621.0 82.0L560.0 82.0L560.0 69.0L621.0 69.0Z" fill-rule="nonzero"/><path stroke="#000000" stroke-width="2.0" stroke-linecap="butt" stroke-opacity="0.0" clip-path="url(#id_0)" d="M155.0 179.0L94.0 179.0L94.0 68.0L155.0 68.0Z" fill-rule="nonzero"/><path fill="#6fa8dc" clip-path="url(#id_0)" d="M155.0 179.0L94.0 179.0L94.0 68.0L155.0 68.0Z" fill-rule="nonzero"/><path stroke="#000000" stroke-width="2.0" stroke-linecap="butt" stroke-opacity="0.0" clip-path="url(#id_0)" d="M248.0 143.0L187.0 143.0L187.0 64.0L248.0 64.0Z" fill-rule="nonzero"/><path fill="#6fa8dc" clip-path="url(#id_0)" d="M248.0 143.0L187.0 143.0L187.0 64.0L248.0 64.0Z" fill-rule="nonzero"/><path stroke="#000000" stroke-width="2.0" stroke-linecap="butt" stroke-opacity="0.0" clip-path="url(#id_0)" d="M341.0 107.0L280.0 107.0L280.0 53.0L341.0 53.0Z" fill-rule="nonzero"/><path fill="#6fa8dc" clip-path="url(#id_0)" d="M341.0 107.0L280.0 107.0L280.0 53.0L341.0 53.0Z" fill-rule="nonzero"/><path stroke="#000000" stroke-width="2.0" stroke-linecap="butt" stroke-opacity="0.0" clip-path="url(#id_0)" d="M435.0 87.0L374.0 87.0L374.0 46.0L435.0 46.0Z" fill-rule="nonzero"/><path fill="#6fa8dc" clip-path="url(#id_0)" d="M435.0 87.0L374.0 87.0L374.0 46.0L435.0 46.0Z" fill-rule="nonzero"/><path stroke="#000000" stroke-width="2.0" stroke-linecap="butt" stroke-opacity="0.0" clip-path="url(#id_0)" d="M528.0 72.0L467.0 72.0L467.0 42.0L528.0 42.0Z" fill-rule="nonzero"/><path fill="#6fa8dc" clip-path="url(#id_0)" d="M528.0 72.0L467.0 72.0L467.0 42.0L528.0 42.0Z" fill-rule="nonzero"/><path stroke="#000000" stroke-width="2.0" stroke-linecap="butt" stroke-opacity="0.0" clip-path="url(#id_0)" d="M621.0 69.0L560.0 69.0L560.0 42.0L621.0 42.0Z" fill-rule="nonzero"/><path fill="#6fa8dc" clip-path="url(#id_0)" d="M621.0 69.0L560.0 69.0L560.0 42.0L621.0 42.0Z" fill-rule="nonzero"/><path stroke="#000000" stroke-width="2.0" stroke-linecap="butt" stroke-opacity="0.0" clip-path="url(#id_0)" d="M155.0 68.0L94.0 68.0L94.0 47.0L155.0 47.0Z" fill-rule="nonzero"/><path fill="#9fc5e8" clip-path="url(#id_0)" d="M155.0 68.0L94.0 68.0L94.0 47.0L155.0 47.0Z" fill-rule="nonzero"/><path stroke="#000000" stroke-width="2.0" stroke-linecap="butt" stroke-opacity="0.0" clip-path="url(#id_0)" d="M248.0 64.0L187.0 64.0L187.0 47.0L248.0 47.0Z" fill-rule="nonzero"/><path fill="#9fc5e8" clip-path="url(#id_0)" d="M248.0 64.0L187.0 64.0L187.0 47.0L248.0 47.0Z" fill-rule="nonzero"/><path stroke="#000000" stroke-width="2.0" stroke-linecap="butt" stroke-opacity="0.0" clip-path="url(#id_0)" d="M341.0 53.0L280.0 53.0L280.0 40.0L341.0 40.0Z" fill-rule="nonzero"/><path fill="#9fc5e8" clip-path="url(#id_0)" d="M341.0 53.0L280.0 53.0L280.0 40.0L341.0 40.0Z" fill-rule="nonzero"/><path stroke="#000000" stroke-width="2.0" stroke-linecap="butt" stroke-opacity="0.0" clip-path="url(#id_0)" d="M435.0 46.0L374.0 46.0L374.0 39.0L435.0 39.0Z" fill-rule="nonzero"/><path fill="#9fc5e8" clip-path="url(#id_0)" d="M435.0 46.0L374.0 46.0L374.0 39.0L435.0 39.0Z" fill-rule="nonzero"/><path stroke="#000000" stroke-width="2.0" stroke-linecap="butt" stroke-opacity="0.0" clip-path="url(#id_0)" d="M528.0 42.0L467.0 42.0L467.0 36.0L528.0 36.0Z" fill-rule="nonzero"/><path fill="#9fc5e8" clip-path="url(#id_0)" d="M528.0 42.0L467.0 42.0L467.0 36.0L528.0 36.0Z" fill-rule="nonzero"/><path stroke="#000000" stroke-width="2.0" stroke-linecap="butt" stroke-opacity="0.0" clip-path="url(#id_0)" d="M621.0 42.0L560.0 42.0L560.0 36.0L621.0 36.0Z" fill-rule="nonzero"/><path fill="#9fc5e8" clip-path="url(#id_0)" d="M621.0 42.0L560.0 42.0L560.0 36.0L621.0 36.0Z" fill-rule="nonzero"/><path stroke="#000000" stroke-width="2.0" stroke-linecap="butt" stroke-opacity="0.0" clip-path="url(#id_0)" d="M155.0 47.0L94.0 47.0L94.0 32.0C94.0 30.89543 94.89543 30.0 96.0 30.0L153.0 30.0C154.10457 30.0 155.0 30.89543 155.0 32.0Z" fill-rule="nonzero"/><path fill="#c9daf8" clip-path="url(#id_0)" d="M155.0 47.0L94.0 47.0L94.0 32.0C94.0 30.89543 94.89543 30.0 96.0 30.0L153.0 30.0C154.10457 30.0 155.0 30.89543 155.0 32.0Z" fill-rule="nonzero"/><path stroke="#000000" stroke-width="2.0" stroke-linecap="butt" stroke-opacity="0.0" clip-path="url(#id_0)" d="M248.0 47.0L187.0 47.0L187.0 32.0C187.0 30.89543 187.89543 30.0 189.0 30.0L246.0 30.0C247.10457 30.0 248.0 30.89543 248.0 32.0Z" fill-rule="nonzero"/><path fill="#c9daf8" clip-path="url(#id_0)" d="M248.0 47.0L187.0 47.0L187.0 32.0C187.0 30.89543 187.89543 30.0 189.0 30.0L246.0 30.0C247.10457 30.0 248.0 30.89543 248.0 32.0Z" fill-rule="nonzero"/><path stroke="#000000" stroke-width="2.0" stroke-linecap="butt" stroke-opacity="0.0" clip-path="url(#id_0)" d="M341.0 40.0L280.0 40.0L280.0 32.0C280.0 30.89543 280.89542 30.0 282.0 30.0L339.0 30.0C340.10458 30.0 341.0 30.89543 341.0 32.0Z" fill-rule="nonzero"/><path fill="#c9daf8" clip-path="url(#id_0)" d="M341.0 40.0L280.0 40.0L280.0 32.0C280.0 30.89543 280.89542 30.0 282.0 30.0L339.0 30.0C340.10458 30.0 341.0 30.89543 341.0 32.0Z" fill-rule="nonzero"/><path stroke="#000000" stroke-width="2.0" stroke-linecap="butt" stroke-opacity="0.0" clip-path="url(#id_0)" d="M435.0 39.0L374.0 39.0L374.0 32.0C374.0 30.89543 374.89542 30.0 376.0 30.0L433.0 30.0C434.10458 30.0 435.0 30.89543 435.0 32.0Z" fill-rule="nonzero"/><path fill="#c9daf8" clip-path="url(#id_0)" d="M435.0 39.0L374.0 39.0L374.0 32.0C374.0 30.89543 374.89542 30.0 376.0 30.0L433.0 30.0C434.10458 30.0 435.0 30.89543 435.0 32.0Z" fill-rule="nonzero"/><path stroke="#000000" stroke-width="2.0" stroke-linecap="butt" stroke-opacity="0.0" clip-path="url(#id_0)" d="M528.0 36.0L467.0 36.0L467.0 32.0C467.0 30.89543 467.89542 30.0 469.0 30.0L526.0 30.0C527.10455 30.0 528.0 30.89543 528.0 32.0Z" fill-rule="nonzero"/><path fill="#c9daf8" clip-path="url(#id_0)" d="M528.0 36.0L467.0 36.0L467.0 32.0C467.0 30.89543 467.89542 30.0 469.0 30.0L526.0 30.0C527.10455 30.0 528.0 30.89543 528.0 32.0Z" fill-rule="nonzero"/><path stroke="#000000" stroke-width="2.0" stroke-linecap="butt" stroke-opacity="0.0" clip-path="url(#id_0)" d="M621.0 36.0L560.0 36.0L560.0 32.0C560.0 30.89543 560.89545 30.0 562.0 30.0L619.0 30.0C620.10455 30.0 621.0 30.89543 621.0 32.0Z" fill-rule="nonzero"/><path fill="#c9daf8" clip-path="url(#id_0)" d="M621.0 36.0L560.0 36.0L560.0 32.0C560.0 30.89543 560.89545 30.0 562.0 30.0L619.0 30.0C620.10455 30.0 621.0 30.89543 621.0 32.0Z" fill-rule="nonzero"/><path fill="#000000" d="M37.55 417.71564Q37.55 416.1844 37.8625 415.2625Q38.175 414.325 38.784374 413.825Q39.409374 413.325 40.346874 413.325Q41.034374 413.325 41.55 413.60626Q42.08125 413.8875 42.425 414.41876Q42.76875 414.9344 42.95625 415.6844Q43.14375 416.4344 43.14375 417.71564Q43.14375 419.23126 42.83125 420.15314Q42.534374 421.075 41.909374 421.59064Q41.3 422.09064 40.346874 422.09064Q39.1125 422.09064 38.39375 421.2Q37.55 420.1375 37.55 417.71564ZM38.628124 417.71564Q38.628124 419.825 39.128124 420.52814Q39.628124 421.23126 40.346874 421.23126Q41.08125 421.23126 41.565624 420.52814Q42.065624 419.825 42.065624 417.71564Q42.065624 415.59064 41.565624 414.90314Q41.08125 414.2 40.33125 414.2Q39.6125 414.2 39.175 414.8094Q38.628124 415.59064 38.628124 417.71564ZM44.753124 415.41876Q44.753124 414.4969 45.20625 413.85626Q45.675 413.21564 46.55 413.21564Q47.3625 413.21564 47.89375 413.79376Q48.425 414.3719 48.425 415.48126Q48.425 416.575 47.878124 417.16876Q47.346874 417.7469 46.565624 417.7469Q45.784374 417.7469 45.26875 417.16876Q44.753124 416.59064 44.753124 415.41876ZM46.58125 413.9344Q46.190624 413.9344 45.925 414.27814Q45.675 414.6219 45.675 415.52814Q45.675 416.35626 45.925 416.7Q46.190624 417.02814 46.58125 417.02814Q46.9875 417.02814 47.2375 416.6844Q47.503124 416.34064 47.503124 415.45Q47.503124 414.60626 47.2375 414.27814Q46.971874 413.9344 46.58125 413.9344ZM46.58125 422.2625L51.284374 413.21564L52.14375 413.21564L47.45625 422.2625L46.58125 422.2625ZM50.3 419.9344Q50.3 419.0125 50.753124 418.3719Q51.221874 417.73126 52.1125 417.73126Q52.925 417.73126 53.45625 418.3094Q53.9875 418.8719 53.9875 419.9969Q53.9875 421.09064 53.440624 421.6844Q52.909374 422.2625 52.1125 422.2625Q51.346874 422.2625 50.815624 421.6844Q50.3 421.10626 50.3 419.9344ZM52.14375 418.45Q51.7375 418.45 51.471874 418.79376Q51.221874 419.1375 51.221874 420.04376Q51.221874 420.85626 51.4875 421.2Q51.753124 421.54376 52.14375 421.54376Q52.534374 421.54376 52.8 421.2Q53.065624 420.85626 53.065624 419.95Q53.065624 419.1219 52.8 418.79376Q52.534374 418.45 52.14375 418.45Z" fill-rule="nonzero"/><path fill="#000000" d="M36.096874 323.95938L36.096874 324.975L30.409374 324.975Q30.409374 324.6 30.534374 324.24063Q30.753124 323.6625 31.221874 323.1Q31.70625 322.5375 32.6125 321.80313Q34.01875 320.64688 34.503124 319.975Q35.003124 319.30313 35.003124 318.70938Q35.003124 318.08438 34.55 317.6625Q34.096874 317.225 33.378124 317.225Q32.6125 317.225 32.159374 317.67813Q31.70625 318.13126 31.690624 318.94376L30.6125 318.83438Q30.721874 317.61563 31.440624 316.99063Q32.175 316.35 33.409374 316.35Q34.64375 316.35 35.3625 317.0375Q36.08125 317.725 36.08125 318.74063Q36.08125 319.25626 35.8625 319.75626Q35.659374 320.24063 35.159374 320.80313Q34.675 321.35 33.55 322.30313Q32.596874 323.1 32.315624 323.39688Q32.05 323.67813 31.878124 323.95938L36.096874 323.95938ZM37.55 322.725L38.659374 322.63126Q38.784374 323.44376 39.221874 323.85Q39.675 324.25626 40.315624 324.25626Q41.065624 324.25626 41.596874 323.67813Q42.128124 323.1 42.128124 322.1625Q42.128124 321.25626 41.6125 320.74063Q41.1125 320.20938 40.284374 320.20938Q39.784374 320.20938 39.3625 320.44376Q38.95625 320.67813 38.721874 321.0375L37.7375 320.9125L38.565624 316.50626L42.846874 316.50626L42.846874 317.50626L39.409374 317.50626L38.95625 319.81876Q39.721874 319.27188 40.565624 319.27188Q41.690624 319.27188 42.45625 320.05313Q43.2375 320.83438 43.2375 322.06876Q43.2375 323.225 42.565624 324.08438Q41.7375 325.11563 40.315624 325.11563Q39.14375 325.11563 38.39375 324.45938Q37.659374 323.80313 37.55 322.725ZM44.753124 318.44376Q44.753124 317.52188 45.20625 316.88126Q45.675 316.24063 46.55 316.24063Q47.3625 316.24063 47.89375 316.81876Q48.425 317.39688 48.425 318.50626Q48.425 319.6 47.878124 320.19376Q47.346874 320.77188 46.565624 320.77188Q45.784374 320.77188 45.26875 320.19376Q44.753124 319.61563 44.753124 318.44376ZM46.58125 316.95938Q46.190624 316.95938 45.925 317.30313Q45.675 317.64688 45.675 318.55313Q45.675 319.38126 45.925 319.725Q46.190624 320.05313 46.58125 320.05313Q46.9875 320.05313 47.2375 319.70938Q47.503124 319.36563 47.503124 318.475Q47.503124 317.63126 47.2375 317.30313Q46.971874 316.95938 46.58125 316.95938ZM46.58125 325.2875L51.284374 316.24063L52.14375 316.24063L47.45625 325.2875L46.58125 325.2875ZM50.3 322.95938Q50.3 322.0375 50.753124 321.39688Q51.221874 320.75626 52.1125 320.75626Q52.925 320.75626 53.45625 321.33438Q53.9875 321.89688 53.9875 323.02188Q53.9875 324.11563 53.440624 324.70938Q52.909374 325.2875 52.1125 325.2875Q51.346874 325.2875 50.815624 324.70938Q50.3 324.13126 50.3 322.95938ZM52.14375 321.475Q51.7375 321.475 51.471874 321.81876Q51.221874 322.1625 51.221874 323.06876Q51.221874 323.88126 51.4875 324.225Q51.753124 324.56876 52.14375 324.56876Q52.534374 324.56876 52.8 324.225Q53.065624 323.88126 53.065624 322.975Q53.065624 322.14688 52.8 321.81876Q52.534374 321.475 52.14375 321.475Z" fill-rule="nonzero"/><path fill="#000000" d="M30.55 225.75L31.659374 225.65625Q31.784374 226.46875 32.221874 226.875Q32.675 227.28125 33.315624 227.28125Q34.065624 227.28125 34.596874 226.70312Q35.128124 226.125 35.128124 225.1875Q35.128124 224.28125 34.6125 223.76562Q34.1125 223.23438 33.284374 223.23438Q32.784374 223.23438 32.3625 223.46875Q31.95625 223.70312 31.721874 224.0625L30.7375 223.9375L31.565624 219.53125L35.846874 219.53125L35.846874 220.53125L32.409374 220.53125L31.95625 222.84375Q32.721874 222.29688 33.565624 222.29688Q34.690624 222.29688 35.45625 223.07812Q36.2375 223.85938 36.2375 225.09375Q36.2375 226.25 35.565624 227.10938Q34.7375 228.14062 33.315624 228.14062Q32.14375 228.14062 31.39375 227.48438Q30.659374 226.82812 30.55 225.75ZM37.55 223.76562Q37.55 222.23438 37.8625 221.3125Q38.175 220.375 38.784374 219.875Q39.409374 219.375 40.346874 219.375Q41.034374 219.375 41.55 219.65625Q42.08125 219.9375 42.425 220.46875Q42.76875 220.98438 42.95625 221.73438Q43.14375 222.48438 43.14375 223.76562Q43.14375 225.28125 42.83125 226.20312Q42.534374 227.125 41.909374 227.64062Q41.3 228.14062 40.346874 228.14062Q39.1125 228.14062 38.39375 227.25Q37.55 226.1875 37.55 223.76562ZM38.628124 223.76562Q38.628124 225.875 39.128124 226.57812Q39.628124 227.28125 40.346874 227.28125Q41.08125 227.28125 41.565624 226.57812Q42.065624 225.875 42.065624 223.76562Q42.065624 221.64062 41.565624 220.95312Q41.08125 220.25 40.33125 220.25Q39.6125 220.25 39.175 220.85938Q38.628124 221.64062 38.628124 223.76562ZM44.753124 221.46875Q44.753124 220.54688 45.20625 219.90625Q45.675 219.26562 46.55 219.26562Q47.3625 219.26562 47.89375 219.84375Q48.425 220.42188 48.425 221.53125Q48.425 222.625 47.878124 223.21875Q47.346874 223.79688 46.565624 223.79688Q45.784374 223.79688 45.26875 223.21875Q44.753124 222.64062 44.753124 221.46875ZM46.58125 219.98438Q46.190624 219.98438 45.925 220.32812Q45.675 220.67188 45.675 221.57812Q45.675 222.40625 45.925 222.75Q46.190624 223.07812 46.58125 223.07812Q46.9875 223.07812 47.2375 222.73438Q47.503124 222.39062 47.503124 221.5Q47.503124 220.65625 47.2375 220.32812Q46.971874 219.98438 46.58125 219.98438ZM46.58125 228.3125L51.284374 219.26562L52.14375 219.26562L47.45625 228.3125L46.58125 228.3125ZM50.3 225.98438Q50.3 225.0625 50.753124 224.42188Q51.221874 223.78125 52.1125 223.78125Q52.925 223.78125 53.45625 224.35938Q53.9875 224.92188 53.9875 226.04688Q53.9875 227.14062 53.440624 227.73438Q52.909374 228.3125 52.1125 228.3125Q51.346874 228.3125 50.815624 227.73438Q50.3 227.15625 50.3 225.98438ZM52.14375 224.5Q51.7375 224.5 51.471874 224.84375Q51.221874 225.1875 51.221874 226.09375Q51.221874 226.90625 51.4875 227.25Q51.753124 227.59375 52.14375 227.59375Q52.534374 227.59375 52.8 227.25Q53.065624 226.90625 53.065624 226.0Q53.065624 225.17188 52.8 224.84375Q52.534374 224.5 52.14375 224.5Z" fill-rule="nonzero"/><path fill="#000000" d="M30.6125 123.556244L30.6125 122.54062L36.175 122.54062L36.175 123.368744Q35.3625 124.243744 34.55 125.69687Q33.753124 127.13437 33.315624 128.66562Q32.9875 129.74374 32.909374 131.025L31.815624 131.025Q31.83125 130.00937 32.20625 128.57187Q32.596874 127.13437 33.3 125.806244Q34.01875 124.47812 34.83125 123.556244L30.6125 123.556244ZM37.55 128.775L38.659374 128.68124Q38.784374 129.49374 39.221874 129.9Q39.675 130.30624 40.315624 130.30624Q41.065624 130.30624 41.596874 129.72812Q42.128124 129.15 42.128124 128.2125Q42.128124 127.306244 41.6125 126.79062Q41.1125 126.25937 40.284374 126.25937Q39.784374 126.25937 39.3625 126.493744Q38.95625 126.72812 38.721874 127.087494L37.7375 126.962494L38.565624 122.556244L42.846874 122.556244L42.846874 123.556244L39.409374 123.556244L38.95625 125.868744Q39.721874 125.32187 40.565624 125.32187Q41.690624 125.32187 42.45625 126.10312Q43.2375 126.88437 43.2375 128.11874Q43.2375 129.275 42.565624 130.13437Q41.7375 131.16562 40.315624 131.16562Q39.14375 131.16562 38.39375 130.50937Q37.659374 129.85312 37.55 128.775ZM44.753124 124.493744Q44.753124 123.57187 45.20625 122.931244Q45.675 122.29062 46.55 122.29062Q47.3625 122.29062 47.89375 122.868744Q48.425 123.44687 48.425 124.556244Q48.425 125.649994 47.878124 126.243744Q47.346874 126.82187 46.565624 126.82187Q45.784374 126.82187 45.26875 126.243744Q44.753124 125.66562 44.753124 124.493744ZM46.58125 123.00937Q46.190624 123.00937 45.925 123.35312Q45.675 123.69687 45.675 124.60312Q45.675 125.431244 45.925 125.774994Q46.190624 126.10312 46.58125 126.10312Q46.9875 126.10312 47.2375 125.75937Q47.503124 125.41562 47.503124 124.524994Q47.503124 123.681244 47.2375 123.35312Q46.971874 123.00937 46.58125 123.00937ZM46.58125 131.3375L51.284374 122.29062L52.14375 122.29062L47.45625 131.3375L46.58125 131.3375ZM50.3 129.00937Q50.3 128.0875 50.753124 127.44687Q51.221874 126.806244 52.1125 126.806244Q52.925 126.806244 53.45625 127.38437Q53.9875 127.94687 53.9875 129.07187Q53.9875 130.16562 53.440624 130.75937Q52.909374 131.3375 52.1125 131.3375Q51.346874 131.3375 50.815624 130.75937Q50.3 130.18124 50.3 129.00937ZM52.14375 127.524994Q51.7375 127.524994 51.471874 127.868744Q51.221874 128.2125 51.221874 129.11874Q51.221874 129.93124 51.4875 130.275Q51.753124 130.61874 52.14375 130.61874Q52.534374 130.61874 52.8 130.275Q53.065624 129.93124 53.065624 129.025Q53.065624 128.19687 52.8 127.868744Q52.534374 127.524994 52.14375 127.524994Z" fill-rule="nonzero"/><path fill="#000000" d="M27.51875 34.05L26.471874 34.05L26.471874 27.33125Q26.08125 27.690624 25.45625 28.065624Q24.846874 28.425 24.3625 28.596874L24.3625 27.58125Q25.2375 27.159374 25.89375 26.58125Q26.565624 25.9875 26.846874 25.425L27.51875 25.425L27.51875 34.05ZM30.55 29.815624Q30.55 28.284374 30.8625 27.3625Q31.175 26.425 31.784374 25.925Q32.409374 25.425 33.346874 25.425Q34.034374 25.425 34.55 25.70625Q35.08125 25.9875 35.425 26.51875Q35.76875 27.034374 35.95625 27.784374Q36.14375 28.534374 36.14375 29.815624Q36.14375 31.33125 35.83125 32.253124Q35.534374 33.175 34.909374 33.690624Q34.3 34.190624 33.346874 34.190624Q32.1125 34.190624 31.39375 33.3Q30.55 32.2375 30.55 29.815624ZM31.628124 29.815624Q31.628124 31.925 32.128124 32.628124Q32.628124 33.33125 33.346874 33.33125Q34.08125 33.33125 34.565624 32.628124Q35.065624 31.925 35.065624 29.815624Q35.065624 27.690624 34.565624 27.003124Q34.08125 26.3 33.33125 26.3Q32.6125 26.3 32.175 26.909374Q31.628124 27.690624 31.628124 29.815624ZM37.55 29.815624Q37.55 28.284374 37.8625 27.3625Q38.175 26.425 38.784374 25.925Q39.409374 25.425 40.346874 25.425Q41.034374 25.425 41.55 25.70625Q42.08125 25.9875 42.425 26.51875Q42.76875 27.034374 42.95625 27.784374Q43.14375 28.534374 43.14375 29.815624Q43.14375 31.33125 42.83125 32.253124Q42.534374 33.175 41.909374 33.690624Q41.3 34.190624 40.346874 34.190624Q39.1125 34.190624 38.39375 33.3Q37.55 32.2375 37.55 29.815624ZM38.628124 29.815624Q38.628124 31.925 39.128124 32.628124Q39.628124 33.33125 40.346874 33.33125Q41.08125 33.33125 41.565624 32.628124Q42.065624 31.925 42.065624 29.815624Q42.065624 27.690624 41.565624 27.003124Q41.08125 26.3 40.33125 26.3Q39.6125 26.3 39.175 26.909374Q38.628124 27.690624 38.628124 29.815624ZM44.753124 27.51875Q44.753124 26.596874 45.20625 25.95625Q45.675 25.315624 46.55 25.315624Q47.3625 25.315624 47.89375 25.89375Q48.425 26.471874 48.425 27.58125Q48.425 28.675 47.878124 29.26875Q47.346874 29.846874 46.565624 29.846874Q45.784374 29.846874 45.26875 29.26875Q44.753124 28.690624 44.753124 27.51875ZM46.58125 26.034374Q46.190624 26.034374 45.925 26.378124Q45.675 26.721874 45.675 27.628124Q45.675 28.45625 45.925 28.8Q46.190624 29.128124 46.58125 29.128124Q46.9875 29.128124 47.2375 28.784374Q47.503124 28.440624 47.503124 27.55Q47.503124 26.70625 47.2375 26.378124Q46.971874 26.034374 46.58125 26.034374ZM46.58125 34.3625L51.284374 25.315624L52.14375 25.315624L47.45625 34.3625L46.58125 34.3625ZM50.3 32.034374Q50.3 31.1125 50.753124 30.471874Q51.221874 29.83125 52.1125 29.83125Q52.925 29.83125 53.45625 30.409374Q53.9875 30.971874 53.9875 32.096874Q53.9875 33.190624 53.440624 33.784374Q52.909374 34.3625 52.1125 34.3625Q51.346874 34.3625 50.815624 33.784374Q50.3 33.20625 50.3 32.034374ZM52.14375 30.55Q51.7375 30.55 51.471874 30.89375Q51.221874 31.2375 51.221874 32.14375Q51.221874 32.95625 51.4875 33.3Q51.753124 33.64375 52.14375 33.64375Q52.534374 33.64375 52.8 33.3Q53.065624 32.95625 53.065624 32.05Q53.065624 31.221874 52.8 30.89375Q52.534374 30.55 52.14375 30.55Z" fill-rule="nonzero"/><path fill="#000000" d="M85.81332 432.5125L86.84457 432.3719Q86.87582 433.35626 87.20394 433.71564Q87.53207 434.075 88.12582 434.075Q88.54769 434.075 88.86019 433.8875Q89.17269 433.6844 89.28207 433.35626Q89.40707 433.0125 89.40707 432.27814L89.40707 426.35626L90.53207 426.35626L90.53207 432.21564Q90.53207 433.29376 90.26644 433.8875Q90.01644 434.48126 89.45394 434.79376Q88.89144 435.09064 88.12582 435.09064Q87.00082 435.09064 86.39144 434.45Q85.79769 433.79376 85.81332 432.5125ZM96.32894 434.1844Q95.73519 434.6844 95.18832 434.8875Q94.65707 435.09064 94.03207 435.09064Q93.00082 435.09064 92.45394 434.59064Q91.90707 434.09064 91.90707 433.3094Q91.90707 432.85626 92.11019 432.48126Q92.31332 432.09064 92.65707 431.8719Q93.00082 431.6375 93.42269 431.52814Q93.71957 431.4344 94.36019 431.35626Q95.62582 431.21564 96.23519 430.9969Q96.23519 430.77814 96.23519 430.73126Q96.23519 430.075 95.93832 429.8094Q95.53207 429.46564 94.73519 429.46564Q94.00082 429.46564 93.64144 429.73126Q93.28207 429.98126 93.11019 430.6375L92.07894 430.4969Q92.21957 429.84064 92.54769 429.4344Q92.87582 429.02814 93.48519 428.8094Q94.09457 428.59064 94.89144 428.59064Q95.68832 428.59064 96.18832 428.77814Q96.68832 428.96564 96.92269 429.2469Q97.15707 429.52814 97.25082 429.96564Q97.29769 430.23126 97.29769 430.9344L97.29769 432.34064Q97.29769 433.8094 97.36019 434.2Q97.43832 434.59064 97.64144 434.95L96.53207 434.95Q96.37582 434.6219 96.32894 434.1844ZM96.23519 431.825Q95.65707 432.0594 94.51644 432.23126Q93.86019 432.325 93.59457 432.45Q93.32894 432.5594 93.17269 432.77814Q93.03207 432.9969 93.03207 433.27814Q93.03207 433.7 93.34457 433.98126Q93.67269 434.2625 94.28207 434.2625Q94.89144 434.2625 95.36019 433.9969Q95.84457 433.73126 96.06332 433.2625Q96.23519 432.90314 96.23519 432.21564L96.23519 431.825ZM99.26644 434.95L99.26644 428.73126L100.20394 428.73126L100.20394 429.60626Q100.89144 428.59064 102.18832 428.59064Q102.75082 428.59064 103.21957 428.79376Q103.70394 428.9969 103.93832 429.325Q104.17269 429.65314 104.26644 430.09064Q104.31332 430.3875 104.31332 431.1219L104.31332 434.95L103.26644 434.95L103.26644 431.16876Q103.26644 430.5125 103.14144 430.2Q103.01644 429.8875 102.70394 429.7Q102.39144 429.4969 101.96957 429.4969Q101.29769 429.4969 100.79769 429.9344Q100.31332 430.35626 100.31332 431.54376L100.31332 434.95L99.26644 434.95ZM110.34457 434.95L110.34457 434.02814Q109.61019 435.09064 108.36019 435.09064Q107.81332 435.09064 107.32894 434.8875Q106.86019 434.66876 106.62582 434.35626Q106.39144 434.02814 106.29769 433.5594Q106.23519 433.2625 106.23519 432.575L106.23519 428.73126L107.29769 428.73126L107.29769 432.1844Q107.29769 432.9969 107.36019 433.29376Q107.45394 433.7 107.76644 433.95Q108.09457 434.1844 108.57894 434.1844Q109.04769 434.1844 109.45394 433.95Q109.87582 433.7 110.04769 433.27814Q110.23519 432.85626 110.23519 432.0594L110.23519 428.73126L111.28207 428.73126L111.28207 434.95L110.34457 434.95ZM117.32894 434.1844Q116.73519 434.6844 116.18832 434.8875Q115.65707 435.09064 115.03207 435.09064Q114.00082 435.09064 113.45394 434.59064Q112.90707 434.09064 112.90707 433.3094Q112.90707 432.85626 113.11019 432.48126Q113.31332 432.09064 113.65707 431.8719Q114.00082 431.6375 114.42269 431.52814Q114.71957 431.4344 115.36019 431.35626Q116.62582 431.21564 117.23519 430.9969Q117.23519 430.77814 117.23519 430.73126Q117.23519 430.075 116.93832 429.8094Q116.53207 429.46564 115.73519 429.46564Q115.00082 429.46564 114.64144 429.73126Q114.28207 429.98126 114.11019 430.6375L113.07894 430.4969Q113.21957 429.84064 113.54769 429.4344Q113.87582 429.02814 114.48519 428.8094Q115.09457 428.59064 115.89144 428.59064Q116.68832 428.59064 117.18832 428.77814Q117.68832 428.96564 117.92269 429.2469Q118.15707 429.52814 118.25082 429.96564Q118.29769 430.23126 118.29769 430.9344L118.29769 432.34064Q118.29769 433.8094 118.36019 434.2Q118.43832 434.59064 118.64144 434.95L117.53207 434.95Q117.37582 434.6219 117.32894 434.1844ZM117.23519 431.825Q116.65707 432.0594 115.51644 432.23126Q114.86019 432.325 114.59457 432.45Q114.32894 432.5594 114.17269 432.77814Q114.03207 432.9969 114.03207 433.27814Q114.03207 433.7 114.34457 433.98126Q114.67269 434.2625 115.28207 434.2625Q115.89144 434.2625 116.36019 433.9969Q116.84457 433.73126 117.06332 433.2625Q117.23519 432.90314 117.23519 432.21564L117.23519 431.825ZM120.25082 434.95L120.25082 428.73126L121.20394 428.73126L121.20394 429.66876Q121.56332 429.0125 121.86019 428.8094Q122.17269 428.59064 122.54769 428.59064Q123.07894 428.59064 123.62582 428.91876L123.26644 429.90314Q122.87582 429.66876 122.50082 429.66876Q122.14144 429.66876 121.86019 429.8875Q121.59457 430.09064 121.48519 430.46564Q121.29769 431.02814 121.29769 431.6844L121.29769 434.95L120.25082 434.95ZM124.21957 437.34064L124.09457 436.35626Q124.43832 436.45 124.70394 436.45Q125.04769 436.45 125.25082 436.325Q125.46957 436.21564 125.61019 436.0125Q125.70394 435.84064 125.93832 435.21564Q125.95394 435.1375 126.03207 434.96564L123.65707 428.73126L124.79769 428.73126L126.09457 432.325Q126.34457 433.0125 126.54769 433.77814Q126.73519 433.04376 126.98519 432.35626L128.31332 428.73126L129.3602 428.73126L127.00082 435.0594Q126.61019 436.075 126.40707 436.46564Q126.12582 436.9969 125.75082 437.23126Q125.39144 437.48126 124.89144 437.48126Q124.59457 437.48126 124.21957 437.34064ZM129.53207 434.95L129.53207 433.7469L130.7352 433.7469L130.7352 434.95Q130.7352 435.60626 130.50082 436.0125Q130.26645 436.4344 129.76645 436.65314L129.46957 436.2Q129.7977 436.0594 129.95395 435.7625Q130.1102 435.48126 130.14145 434.95L129.53207 434.95ZM140.51645 433.9344L140.51645 434.95L134.82895 434.95Q134.82895 434.575 134.95395 434.21564Q135.1727 433.6375 135.64145 433.075Q136.12582 432.5125 137.03207 431.77814Q138.43832 430.6219 138.9227 429.95Q139.4227 429.27814 139.4227 428.6844Q139.4227 428.0594 138.96957 427.6375Q138.51645 427.2 137.7977 427.2Q137.03207 427.2 136.57895 427.65314Q136.12582 428.10626 136.1102 428.91876L135.03207 428.8094Q135.14145 427.59064 135.8602 426.96564Q136.59457 426.325 137.82895 426.325Q139.06332 426.325 139.78207 427.0125Q140.50082 427.7 140.50082 428.71564Q140.50082 429.23126 140.28207 429.73126Q140.07895 430.21564 139.57895 430.77814Q139.09457 431.325 137.96957 432.27814Q137.01645 433.075 136.7352 433.3719Q136.46957 433.65314 136.2977 433.9344L140.51645 433.9344ZM141.96957 430.71564Q141.96957 429.1844 142.28207 428.2625Q142.59457 427.325 143.20395 426.825Q143.82895 426.325 144.76645 426.325Q145.45395 426.325 145.96957 426.60626Q146.50082 426.8875 146.84457 427.41876Q147.18832 427.9344 147.37582 428.6844Q147.56332 429.4344 147.56332 430.71564Q147.56332 432.23126 147.25082 433.15314Q146.95395 434.075 146.32895 434.59064Q145.71957 435.09064 144.76645 435.09064Q143.53207 435.09064 142.81332 434.2Q141.96957 433.1375 141.96957 430.71564ZM143.0477 430.71564Q143.0477 432.825 143.5477 433.52814Q144.0477 434.23126 144.76645 434.23126Q145.50082 434.23126 145.9852 433.52814Q146.4852 432.825 146.4852 430.71564Q146.4852 428.59064 145.9852 427.90314Q145.50082 427.2 144.75082 427.2Q144.03207 427.2 143.59457 427.8094Q143.0477 428.59064 143.0477 430.71564ZM154.51645 433.9344L154.51645 434.95L148.82895 434.95Q148.82895 434.575 148.95395 434.21564Q149.1727 433.6375 149.64145 433.075Q150.12582 432.5125 151.03207 431.77814Q152.43832 430.6219 152.9227 429.95Q153.4227 429.27814 153.4227 428.6844Q153.4227 428.0594 152.96957 427.6375Q152.51645 427.2 151.7977 427.2Q151.03207 427.2 150.57895 427.65314Q150.12582 428.10626 150.1102 428.91876L149.03207 428.8094Q149.14145 427.59064 149.8602 426.96564Q150.59457 426.325 151.82895 426.325Q153.06332 426.325 153.78207 427.0125Q154.50082 427.7 154.50082 428.71564Q154.50082 429.23126 154.28207 429.73126Q154.07895 430.21564 153.57895 430.77814Q153.09457 431.325 151.96957 432.27814Q151.01645 433.075 150.7352 433.3719Q150.46957 433.65314 150.2977 433.9344L154.51645 433.9344ZM155.96957 432.6844L157.03207 432.54376Q157.20395 433.4344 157.64145 433.84064Q158.07895 434.23126 158.70395 434.23126Q159.45395 434.23126 159.96957 433.71564Q160.4852 433.2 160.4852 432.4344Q160.4852 431.71564 160.00082 431.2469Q159.53207 430.7625 158.7977 430.7625Q158.50082 430.7625 158.0477 430.8875L158.1727 429.95Q158.28207 429.96564 158.34457 429.96564Q159.01645 429.96564 159.5477 429.6219Q160.09457 429.2625 160.09457 428.52814Q160.09457 427.95 159.70395 427.575Q159.31332 427.1844 158.68832 427.1844Q158.07895 427.1844 157.65707 427.575Q157.25082 427.96564 157.14145 428.73126L156.07895 428.54376Q156.26645 427.4969 156.95395 426.91876Q157.64145 426.325 158.65707 426.325Q159.3602 426.325 159.95395 426.6375Q160.5477 426.9344 160.8602 427.45Q161.1727 427.96564 161.1727 428.5594Q161.1727 429.10626 160.87582 429.575Q160.57895 430.02814 160.00082 430.29376Q160.75082 430.46564 161.1727 431.02814Q161.59457 431.575 161.59457 432.41876Q161.59457 433.54376 160.76645 434.325Q159.95395 435.10626 158.70395 435.10626Q157.57895 435.10626 156.82895 434.4344Q156.07895 433.7469 155.96957 432.6844Z" fill-rule="nonzero"/><path fill="#000000" d="M190.0275 432.5125L191.05875 432.3719Q191.09 433.35626 191.41812 433.71564Q191.74625 434.075 192.34 434.075Q192.76187 434.075 193.07437 433.8875Q193.38687 433.6844 193.49625 433.35626Q193.62125 433.0125 193.62125 432.27814L193.62125 426.35626L194.74625 426.35626L194.74625 432.21564Q194.74625 433.29376 194.48062 433.8875Q194.23062 434.48126 193.66812 434.79376Q193.10562 435.09064 192.34 435.09064Q191.215 435.09064 190.60562 434.45Q190.01187 433.79376 190.0275 432.5125ZM200.55875 434.95L200.55875 434.02814Q199.82437 435.09064 198.57437 435.09064Q198.0275 435.09064 197.54312 434.8875Q197.07437 434.66876 196.84 434.35626Q196.60562 434.02814 196.51187 433.5594Q196.44937 433.2625 196.44937 432.575L196.44937 428.73126L197.51187 428.73126L197.51187 432.1844Q197.51187 432.9969 197.57437 433.29376Q197.66812 433.7 197.98062 433.95Q198.30875 434.1844 198.79312 434.1844Q199.26187 434.1844 199.66812 433.95Q200.09 433.7 200.26187 433.27814Q200.44937 432.85626 200.44937 432.0594L200.44937 428.73126L201.49625 428.73126L201.49625 434.95L200.55875 434.95ZM203.44937 434.95L203.44937 426.35626L204.51187 426.35626L204.51187 434.95L203.44937 434.95ZM206.43375 437.34064L206.30875 436.35626Q206.6525 436.45 206.91812 436.45Q207.26187 436.45 207.465 436.325Q207.68375 436.21564 207.82437 436.0125Q207.91812 435.84064 208.1525 435.21564Q208.16812 435.1375 208.24625 434.96564L205.87125 428.73126L207.01187 428.73126L208.30875 432.325Q208.55875 433.0125 208.76187 433.77814Q208.94937 433.04376 209.19937 432.35626L210.5275 428.73126L211.57437 428.73126L209.215 435.0594Q208.82437 436.075 208.62125 436.46564Q208.34 436.9969 207.965 437.23126Q207.60562 437.48126 207.10562 437.48126Q206.80875 437.48126 206.43375 437.34064ZM211.74625 434.95L211.74625 433.7469L212.94937 433.7469L212.94937 434.95Q212.94937 435.60626 212.715 436.0125Q212.48062 436.4344 211.98062 436.65314L211.68375 436.2Q212.01187 436.0594 212.16812 435.7625Q212.32437 435.48126 212.35562 434.95L211.74625 434.95ZM222.73062 433.9344L222.73062 434.95L217.04312 434.95Q217.04312 434.575 217.16812 434.21564Q217.38687 433.6375 217.85562 433.075Q218.34 432.5125 219.24625 431.77814Q220.6525 430.6219 221.13687 429.95Q221.63687 429.27814 221.63687 428.6844Q221.63687 428.0594 221.18375 427.6375Q220.73062 427.2 220.01187 427.2Q219.24625 427.2 218.79312 427.65314Q218.34 428.10626 218.32437 428.91876L217.24625 428.8094Q217.35562 427.59064 218.07437 426.96564Q218.80875 426.325 220.04312 426.325Q221.2775 426.325 221.99625 427.0125Q222.715 427.7 222.715 428.71564Q222.715 429.23126 222.49625 429.73126Q222.29312 430.21564 221.79312 430.77814Q221.30875 431.325 220.18375 432.27814Q219.23062 433.075 218.94937 433.3719Q218.68375 433.65314 218.51187 433.9344L222.73062 433.9344ZM224.18375 430.71564Q224.18375 429.1844 224.49625 428.2625Q224.80875 427.325 225.41812 426.825Q226.04312 426.325 226.98062 426.325Q227.66812 426.325 228.18375 426.60626Q228.715 426.8875 229.05875 427.41876Q229.4025 427.9344 229.59 428.6844Q229.7775 429.4344 229.7775 430.71564Q229.7775 432.23126 229.465 433.15314Q229.16812 434.075 228.54312 434.59064Q227.93375 435.09064 226.98062 435.09064Q225.74625 435.09064 225.0275 434.2Q224.18375 433.1375 224.18375 430.71564ZM225.26187 430.71564Q225.26187 432.825 225.76187 433.52814Q226.26187 434.23126 226.98062 434.23126Q227.715 434.23126 228.19937 433.52814Q228.69937 432.825 228.69937 430.71564Q228.69937 428.59064 228.19937 427.90314Q227.715 427.2 226.965 427.2Q226.24625 427.2 225.80875 427.8094Q225.26187 428.59064 225.26187 430.71564ZM236.73062 433.9344L236.73062 434.95L231.04312 434.95Q231.04312 434.575 231.16812 434.21564Q231.38687 433.6375 231.85562 433.075Q232.34 432.5125 233.24625 431.77814Q234.6525 430.6219 235.13687 429.95Q235.63687 429.27814 235.63687 428.6844Q235.63687 428.0594 235.18375 427.6375Q234.73062 427.2 234.01187 427.2Q233.24625 427.2 232.79312 427.65314Q232.34 428.10626 232.32437 428.91876L231.24625 428.8094Q231.35562 427.59064 232.07437 426.96564Q232.80875 426.325 234.04312 426.325Q235.2775 426.325 235.99625 427.0125Q236.715 427.7 236.715 428.71564Q236.715 429.23126 236.49625 429.73126Q236.29312 430.21564 235.79312 430.77814Q235.30875 431.325 234.18375 432.27814Q233.23062 433.075 232.94937 433.3719Q232.68375 433.65314 232.51187 433.9344L236.73062 433.9344ZM238.18375 432.6844L239.24625 432.54376Q239.41812 433.4344 239.85562 433.84064Q240.29312 434.23126 240.91812 434.23126Q241.66812 434.23126 242.18375 433.71564Q242.69937 433.2 242.69937 432.4344Q242.69937 431.71564 242.215 431.2469Q241.74625 430.7625 241.01187 430.7625Q240.715 430.7625 240.26187 430.8875L240.38687 429.95Q240.49625 429.96564 240.55875 429.96564Q241.23062 429.96564 241.76187 429.6219Q242.30875 429.2625 242.30875 428.52814Q242.30875 427.95 241.91812 427.575Q241.5275 427.1844 240.9025 427.1844Q240.29312 427.1844 239.87125 427.575Q239.465 427.96564 239.35562 428.73126L238.29312 428.54376Q238.48062 427.4969 239.16812 426.91876Q239.85562 426.325 240.87125 426.325Q241.57437 426.325 242.16812 426.6375Q242.76187 426.9344 243.07437 427.45Q243.38687 427.96564 243.38687 428.5594Q243.38687 429.10626 243.09 429.575Q242.79312 430.02814 242.215 430.29376Q242.965 430.46564 243.38687 431.02814Q243.80875 431.575 243.80875 432.41876Q243.80875 433.54376 242.98062 434.325Q242.16812 435.10626 240.91812 435.10626Q239.79312 435.10626 239.04312 434.4344Q238.29312 433.7469 238.18375 432.6844Z" fill-rule="nonzero"/><path fill="#000000" d="M272.24167 432.5125L273.27292 432.3719Q273.30417 433.35626 273.6323 433.71564Q273.96042 434.075 274.55417 434.075Q274.97604 434.075 275.28854 433.8875Q275.60104 433.6844 275.71042 433.35626Q275.83542 433.0125 275.83542 432.27814L275.83542 426.35626L276.96042 426.35626L276.96042 432.21564Q276.96042 433.29376 276.6948 433.8875Q276.4448 434.48126 275.8823 434.79376Q275.3198 435.09064 274.55417 435.09064Q273.42917 435.09064 272.8198 434.45Q272.22604 433.79376 272.24167 432.5125ZM282.7573 434.1844Q282.16354 434.6844 281.61667 434.8875Q281.08542 435.09064 280.46042 435.09064Q279.42917 435.09064 278.8823 434.59064Q278.33542 434.09064 278.33542 433.3094Q278.33542 432.85626 278.53854 432.48126Q278.74167 432.09064 279.08542 431.8719Q279.42917 431.6375 279.85104 431.52814Q280.14792 431.4344 280.78854 431.35626Q282.05417 431.21564 282.66354 430.9969Q282.66354 430.77814 282.66354 430.73126Q282.66354 430.075 282.36667 429.8094Q281.96042 429.46564 281.16354 429.46564Q280.42917 429.46564 280.0698 429.73126Q279.71042 429.98126 279.53854 430.6375L278.5073 430.4969Q278.64792 429.84064 278.97604 429.4344Q279.30417 429.02814 279.91354 428.8094Q280.52292 428.59064 281.3198 428.59064Q282.11667 428.59064 282.61667 428.77814Q283.11667 428.96564 283.35104 429.2469Q283.58542 429.52814 283.67917 429.96564Q283.72604 430.23126 283.72604 430.9344L283.72604 432.34064Q283.72604 433.8094 283.78854 434.2Q283.86667 434.59064 284.0698 434.95L282.96042 434.95Q282.80417 434.6219 282.7573 434.1844ZM282.66354 431.825Q282.08542 432.0594 280.9448 432.23126Q280.28854 432.325 280.02292 432.45Q279.7573 432.5594 279.60104 432.77814Q279.46042 432.9969 279.46042 433.27814Q279.46042 433.7 279.77292 433.98126Q280.10104 434.2625 280.71042 434.2625Q281.3198 434.2625 281.78854 433.9969Q282.27292 433.73126 282.49167 433.2625Q282.66354 432.90314 282.66354 432.21564L282.66354 431.825ZM285.6948 434.95L285.6948 428.73126L286.6323 428.73126L286.6323 429.60626Q287.3198 428.59064 288.61667 428.59064Q289.17917 428.59064 289.64792 428.79376Q290.1323 428.9969 290.36667 429.325Q290.60104 429.65314 290.6948 430.09064Q290.74167 430.3875 290.74167 431.1219L290.74167 434.95L289.6948 434.95L289.6948 431.16876Q289.6948 430.5125 289.5698 430.2Q289.4448 429.8875 289.1323 429.7Q288.8198 429.4969 288.39792 429.4969Q287.72604 429.4969 287.22604 429.9344Q286.74167 430.35626 286.74167 431.54376L286.74167 434.95L285.6948 434.95ZM296.77292 434.95L296.77292 434.02814Q296.03854 435.09064 294.78854 435.09064Q294.24167 435.09064 293.7573 434.8875Q293.28854 434.66876 293.05417 434.35626Q292.8198 434.02814 292.72604 433.5594Q292.66354 433.2625 292.66354 432.575L292.66354 428.73126L293.72604 428.73126L293.72604 432.1844Q293.72604 432.9969 293.78854 433.29376Q293.8823 433.7 294.1948 433.95Q294.52292 434.1844 295.0073 434.1844Q295.47604 434.1844 295.8823 433.95Q296.30417 433.7 296.47604 433.27814Q296.66354 432.85626 296.66354 432.0594L296.66354 428.73126L297.71042 428.73126L297.71042 434.95L296.77292 434.95ZM303.7573 434.1844Q303.16354 434.6844 302.61667 434.8875Q302.08542 435.09064 301.46042 435.09064Q300.42917 435.09064 299.8823 434.59064Q299.33542 434.09064 299.33542 433.3094Q299.33542 432.85626 299.53854 432.48126Q299.74167 432.09064 300.08542 431.8719Q300.42917 431.6375 300.85104 431.52814Q301.14792 431.4344 301.78854 431.35626Q303.05417 431.21564 303.66354 430.9969Q303.66354 430.77814 303.66354 430.73126Q303.66354 430.075 303.36667 429.8094Q302.96042 429.46564 302.16354 429.46564Q301.42917 429.46564 301.0698 429.73126Q300.71042 429.98126 300.53854 430.6375L299.5073 430.4969Q299.64792 429.84064 299.97604 429.4344Q300.30417 429.02814 300.91354 428.8094Q301.52292 428.59064 302.3198 428.59064Q303.11667 428.59064 303.61667 428.77814Q304.11667 428.96564 304.35104 429.2469Q304.58542 429.52814 304.67917 429.96564Q304.72604 430.23126 304.72604 430.9344L304.72604 432.34064Q304.72604 433.8094 304.78854 434.2Q304.86667 434.59064 305.0698 434.95L303.96042 434.95Q303.80417 434.6219 303.7573 434.1844ZM303.66354 431.825Q303.08542 432.0594 301.9448 432.23126Q301.28854 432.325 301.02292 432.45Q300.7573 432.5594 300.60104 432.77814Q300.46042 432.9969 300.46042 433.27814Q300.46042 433.7 300.77292 433.98126Q301.10104 434.2625 301.71042 434.2625Q302.3198 434.2625 302.78854 433.9969Q303.27292 433.73126 303.49167 433.2625Q303.66354 432.90314 303.66354 432.21564L303.66354 431.825ZM306.67917 434.95L306.67917 428.73126L307.6323 428.73126L307.6323 429.66876Q307.99167 429.0125 308.28854 428.8094Q308.60104 428.59064 308.97604 428.59064Q309.5073 428.59064 310.05417 428.91876L309.6948 429.90314Q309.30417 429.66876 308.92917 429.66876Q308.5698 429.66876 308.28854 429.8875Q308.02292 430.09064 307.91354 430.46564Q307.72604 431.02814 307.72604 431.6844L307.72604 434.95L306.67917 434.95ZM310.64792 437.34064L310.52292 436.35626Q310.86667 436.45 311.1323 436.45Q311.47604 436.45 311.67917 436.325Q311.89792 436.21564 312.03854 436.0125Q312.1323 435.84064 312.36667 435.21564Q312.3823 435.1375 312.46042 434.96564L310.08542 428.73126L311.22604 428.73126L312.52292 432.325Q312.77292 433.0125 312.97604 433.77814Q313.16354 433.04376 313.41354 432.35626L314.74167 428.73126L315.78854 428.73126L313.42917 435.0594Q313.03854 436.075 312.83542 436.46564Q312.55417 436.9969 312.17917 437.23126Q311.8198 437.48126 311.3198 437.48126Q311.02292 437.48126 310.64792 437.34064ZM315.96042 434.95L315.96042 433.7469L317.16354 433.7469L317.16354 434.95Q317.16354 435.60626 316.92917 436.0125Q316.6948 436.4344 316.1948 436.65314L315.89792 436.2Q316.22604 436.0594 316.3823 435.7625Q316.53854 435.48126 316.5698 434.95L315.96042 434.95ZM326.9448 433.9344L326.9448 434.95L321.2573 434.95Q321.2573 434.575 321.3823 434.21564Q321.60104 433.6375 322.0698 433.075Q322.55417 432.5125 323.46042 431.77814Q324.86667 430.6219 325.35104 429.95Q325.85104 429.27814 325.85104 428.6844Q325.85104 428.0594 325.39792 427.6375Q324.9448 427.2 324.22604 427.2Q323.46042 427.2 323.0073 427.65314Q322.55417 428.10626 322.53854 428.91876L321.46042 428.8094Q321.5698 427.59064 322.28854 426.96564Q323.02292 426.325 324.2573 426.325Q325.49167 426.325 326.21042 427.0125Q326.92917 427.7 326.92917 428.71564Q326.92917 429.23126 326.71042 429.73126Q326.5073 430.21564 326.0073 430.77814Q325.52292 431.325 324.39792 432.27814Q323.4448 433.075 323.16354 433.3719Q322.89792 433.65314 322.72604 433.9344L326.9448 433.9344ZM328.39792 430.71564Q328.39792 429.1844 328.71042 428.2625Q329.02292 427.325 329.6323 426.825Q330.2573 426.325 331.1948 426.325Q331.8823 426.325 332.39792 426.60626Q332.92917 426.8875 333.27292 427.41876Q333.61667 427.9344 333.80417 428.6844Q333.99167 429.4344 333.99167 430.71564Q333.99167 432.23126 333.67917 433.15314Q333.3823 434.075 332.7573 434.59064Q332.14792 435.09064 331.1948 435.09064Q329.96042 435.09064 329.24167 434.2Q328.39792 433.1375 328.39792 430.71564ZM329.47604 430.71564Q329.47604 432.825 329.97604 433.52814Q330.47604 434.23126 331.1948 434.23126Q331.92917 434.23126 332.41354 433.52814Q332.91354 432.825 332.91354 430.71564Q332.91354 428.59064 332.41354 427.90314Q331.92917 427.2 331.17917 427.2Q330.46042 427.2 330.02292 427.8094Q329.47604 428.59064 329.47604 430.71564ZM340.9448 433.9344L340.9448 434.95L335.2573 434.95Q335.2573 434.575 335.3823 434.21564Q335.60104 433.6375 336.0698 433.075Q336.55417 432.5125 337.46042 431.77814Q338.86667 430.6219 339.35104 429.95Q339.85104 429.27814 339.85104 428.6844Q339.85104 428.0594 339.39792 427.6375Q338.9448 427.2 338.22604 427.2Q337.46042 427.2 337.0073 427.65314Q336.55417 428.10626 336.53854 428.91876L335.46042 428.8094Q335.5698 427.59064 336.28854 426.96564Q337.02292 426.325 338.2573 426.325Q339.49167 426.325 340.21042 427.0125Q340.92917 427.7 340.92917 428.71564Q340.92917 429.23126 340.71042 429.73126Q340.5073 430.21564 340.0073 430.77814Q339.52292 431.325 338.39792 432.27814Q337.4448 433.075 337.16354 433.3719Q336.89792 433.65314 336.72604 433.9344L340.9448 433.9344ZM345.77292 434.95L345.77292 432.8875L342.05417 432.8875L342.05417 431.91876L345.97604 426.35626L346.83542 426.35626L346.83542 431.91876L347.99167 431.91876L347.99167 432.8875L346.83542 432.8875L346.83542 434.95L345.77292 434.95ZM345.77292 431.91876L345.77292 428.0594L343.08542 431.91876L345.77292 431.91876Z" fill-rule="nonzero"/><path fill="#000000" d="M376.45584 432.5125L377.4871 432.3719Q377.51834 433.35626 377.84647 433.71564Q378.1746 434.075 378.76834 434.075Q379.19022 434.075 379.50272 433.8875Q379.81522 433.6844 379.9246 433.35626Q380.0496 433.0125 380.0496 432.27814L380.0496 426.35626L381.1746 426.35626L381.1746 432.21564Q381.1746 433.29376 380.90897 433.8875Q380.65897 434.48126 380.09647 434.79376Q379.53397 435.09064 378.76834 435.09064Q377.64334 435.09064 377.03397 434.45Q376.44022 433.79376 376.45584 432.5125ZM386.9871 434.95L386.9871 434.02814Q386.25272 435.09064 385.00272 435.09064Q384.45584 435.09064 383.97147 434.8875Q383.50272 434.66876 383.26834 434.35626Q383.03397 434.02814 382.94022 433.5594Q382.87772 433.2625 382.87772 432.575L382.87772 428.73126L383.94022 428.73126L383.94022 432.1844Q383.94022 432.9969 384.00272 433.29376Q384.09647 433.7 384.40897 433.95Q384.7371 434.1844 385.22147 434.1844Q385.69022 434.1844 386.09647 433.95Q386.51834 433.7 386.69022 433.27814Q386.87772 432.85626 386.87772 432.0594L386.87772 428.73126L387.9246 428.73126L387.9246 434.95L386.9871 434.95ZM389.87772 434.95L389.87772 426.35626L390.94022 426.35626L390.94022 434.95L389.87772 434.95ZM392.8621 437.34064L392.7371 436.35626Q393.08084 436.45 393.34647 436.45Q393.69022 436.45 393.89334 436.325Q394.1121 436.21564 394.25272 436.0125Q394.34647 435.84064 394.58084 435.21564Q394.59647 435.1375 394.6746 434.96564L392.2996 428.73126L393.44022 428.73126L394.7371 432.325Q394.9871 433.0125 395.19022 433.77814Q395.37772 433.04376 395.62772 432.35626L396.95584 428.73126L398.00272 428.73126L395.64334 435.0594Q395.25272 436.075 395.0496 436.46564Q394.76834 436.9969 394.39334 437.23126Q394.03397 437.48126 393.53397 437.48126Q393.2371 437.48126 392.8621 437.34064ZM398.1746 434.95L398.1746 433.7469L399.37772 433.7469L399.37772 434.95Q399.37772 435.60626 399.14334 436.0125Q398.90897 436.4344 398.40897 436.65314L398.1121 436.2Q398.44022 436.0594 398.59647 435.7625Q398.75272 435.48126 398.78397 434.95L398.1746 434.95ZM409.15897 433.9344L409.15897 434.95L403.47147 434.95Q403.47147 434.575 403.59647 434.21564Q403.81522 433.6375 404.28397 433.075Q404.76834 432.5125 405.6746 431.77814Q407.08084 430.6219 407.56522 429.95Q408.06522 429.27814 408.06522 428.6844Q408.06522 428.0594 407.6121 427.6375Q407.15897 427.2 406.44022 427.2Q405.6746 427.2 405.22147 427.65314Q404.76834 428.10626 404.75272 428.91876L403.6746 428.8094Q403.78397 427.59064 404.50272 426.96564Q405.2371 426.325 406.47147 426.325Q407.70584 426.325 408.4246 427.0125Q409.14334 427.7 409.14334 428.71564Q409.14334 429.23126 408.9246 429.73126Q408.72147 430.21564 408.22147 430.77814Q407.7371 431.325 406.6121 432.27814Q405.65897 433.075 405.37772 433.3719Q405.1121 433.65314 404.94022 433.9344L409.15897 433.9344ZM410.6121 430.71564Q410.6121 429.1844 410.9246 428.2625Q411.2371 427.325 411.84647 426.825Q412.47147 426.325 413.40897 426.325Q414.09647 426.325 414.6121 426.60626Q415.14334 426.8875 415.4871 427.41876Q415.83084 427.9344 416.01834 428.6844Q416.20584 429.4344 416.20584 430.71564Q416.20584 432.23126 415.89334 433.15314Q415.59647 434.075 414.97147 434.59064Q414.3621 435.09064 413.40897 435.09064Q412.1746 435.09064 411.45584 434.2Q410.6121 433.1375 410.6121 430.71564ZM411.69022 430.71564Q411.69022 432.825 412.19022 433.52814Q412.69022 434.23126 413.40897 434.23126Q414.14334 434.23126 414.62772 433.52814Q415.12772 432.825 415.12772 430.71564Q415.12772 428.59064 414.62772 427.90314Q414.14334 427.2 413.39334 427.2Q412.6746 427.2 412.2371 427.8094Q411.69022 428.59064 411.69022 430.71564ZM423.15897 433.9344L423.15897 434.95L417.47147 434.95Q417.47147 434.575 417.59647 434.21564Q417.81522 433.6375 418.28397 433.075Q418.76834 432.5125 419.6746 431.77814Q421.08084 430.6219 421.56522 429.95Q422.06522 429.27814 422.06522 428.6844Q422.06522 428.0594 421.6121 427.6375Q421.15897 427.2 420.44022 427.2Q419.6746 427.2 419.22147 427.65314Q418.76834 428.10626 418.75272 428.91876L417.6746 428.8094Q417.78397 427.59064 418.50272 426.96564Q419.2371 426.325 420.47147 426.325Q421.70584 426.325 422.4246 427.0125Q423.14334 427.7 423.14334 428.71564Q423.14334 429.23126 422.9246 429.73126Q422.72147 430.21564 422.22147 430.77814Q421.7371 431.325 420.6121 432.27814Q419.65897 433.075 419.37772 433.3719Q419.1121 433.65314 418.94022 433.9344L423.15897 433.9344ZM427.9871 434.95L427.9871 432.8875L424.26834 432.8875L424.26834 431.91876L428.19022 426.35626L429.0496 426.35626L429.0496 431.91876L430.20584 431.91876L430.20584 432.8875L429.0496 432.8875L429.0496 434.95L427.9871 434.95ZM427.9871 431.91876L427.9871 428.0594L425.2996 431.91876L427.9871 431.91876Z" fill-rule="nonzero"/><path fill="#000000" d="M458.67 432.5125L459.70126 432.3719Q459.7325 433.35626 460.06064 433.71564Q460.38876 434.075 460.9825 434.075Q461.4044 434.075 461.7169 433.8875Q462.0294 433.6844 462.13876 433.35626Q462.26376 433.0125 462.26376 432.27814L462.26376 426.35626L463.38876 426.35626L463.38876 432.21564Q463.38876 433.29376 463.12314 433.8875Q462.87314 434.48126 462.31064 434.79376Q461.74814 435.09064 460.9825 435.09064Q459.8575 435.09064 459.24814 434.45Q458.6544 433.79376 458.67 432.5125ZM469.18564 434.1844Q468.5919 434.6844 468.045 434.8875Q467.51376 435.09064 466.88876 435.09064Q465.8575 435.09064 465.31064 434.59064Q464.76376 434.09064 464.76376 433.3094Q464.76376 432.85626 464.9669 432.48126Q465.17 432.09064 465.51376 431.8719Q465.8575 431.6375 466.2794 431.52814Q466.57626 431.4344 467.2169 431.35626Q468.4825 431.21564 469.0919 430.9969Q469.0919 430.77814 469.0919 430.73126Q469.0919 430.075 468.795 429.8094Q468.38876 429.46564 467.5919 429.46564Q466.8575 429.46564 466.49814 429.73126Q466.13876 429.98126 465.9669 430.6375L464.93564 430.4969Q465.07626 429.84064 465.4044 429.4344Q465.7325 429.02814 466.3419 428.8094Q466.95126 428.59064 467.74814 428.59064Q468.545 428.59064 469.045 428.77814Q469.545 428.96564 469.7794 429.2469Q470.01376 429.52814 470.1075 429.96564Q470.1544 430.23126 470.1544 430.9344L470.1544 432.34064Q470.1544 433.8094 470.2169 434.2Q470.295 434.59064 470.49814 434.95L469.38876 434.95Q469.2325 434.6219 469.18564 434.1844ZM469.0919 431.825Q468.51376 432.0594 467.37314 432.23126Q466.7169 432.325 466.45126 432.45Q466.18564 432.5594 466.0294 432.77814Q465.88876 432.9969 465.88876 433.27814Q465.88876 433.7 466.20126 433.98126Q466.5294 434.2625 467.13876 434.2625Q467.74814 434.2625 468.2169 433.9969Q468.70126 433.73126 468.92 433.2625Q469.0919 432.90314 469.0919 432.21564L469.0919 431.825ZM472.12314 434.95L472.12314 428.73126L473.06064 428.73126L473.06064 429.60626Q473.74814 428.59064 475.045 428.59064Q475.6075 428.59064 476.07626 428.79376Q476.56064 428.9969 476.795 429.325Q477.0294 429.65314 477.12314 430.09064Q477.17 430.3875 477.17 431.1219L477.17 434.95L476.12314 434.95L476.12314 431.16876Q476.12314 430.5125 475.99814 430.2Q475.87314 429.8875 475.56064 429.7Q475.24814 429.4969 474.82626 429.4969Q474.1544 429.4969 473.6544 429.9344Q473.17 430.35626 473.17 431.54376L473.17 434.95L472.12314 434.95ZM483.20126 434.95L483.20126 434.02814Q482.4669 435.09064 481.2169 435.09064Q480.67 435.09064 480.18564 434.8875Q479.7169 434.66876 479.4825 434.35626Q479.24814 434.02814 479.1544 433.5594Q479.0919 433.2625 479.0919 432.575L479.0919 428.73126L480.1544 428.73126L480.1544 432.1844Q480.1544 432.9969 480.2169 433.29376Q480.31064 433.7 480.62314 433.95Q480.95126 434.1844 481.43564 434.1844Q481.9044 434.1844 482.31064 433.95Q482.7325 433.7 482.9044 433.27814Q483.0919 432.85626 483.0919 432.0594L483.0919 428.73126L484.13876 428.73126L484.13876 434.95L483.20126 434.95ZM490.18564 434.1844Q489.5919 434.6844 489.045 434.8875Q488.51376 435.09064 487.88876 435.09064Q486.8575 435.09064 486.31064 434.59064Q485.76376 434.09064 485.76376 433.3094Q485.76376 432.85626 485.9669 432.48126Q486.17 432.09064 486.51376 431.8719Q486.8575 431.6375 487.2794 431.52814Q487.57626 431.4344 488.2169 431.35626Q489.4825 431.21564 490.0919 430.9969Q490.0919 430.77814 490.0919 430.73126Q490.0919 430.075 489.795 429.8094Q489.38876 429.46564 488.5919 429.46564Q487.8575 429.46564 487.49814 429.73126Q487.13876 429.98126 486.9669 430.6375L485.93564 430.4969Q486.07626 429.84064 486.4044 429.4344Q486.7325 429.02814 487.3419 428.8094Q487.95126 428.59064 488.74814 428.59064Q489.545 428.59064 490.045 428.77814Q490.545 428.96564 490.7794 429.2469Q491.01376 429.52814 491.1075 429.96564Q491.1544 430.23126 491.1544 430.9344L491.1544 432.34064Q491.1544 433.8094 491.2169 434.2Q491.295 434.59064 491.49814 434.95L490.38876 434.95Q490.2325 434.6219 490.18564 434.1844ZM490.0919 431.825Q489.51376 432.0594 488.37314 432.23126Q487.7169 432.325 487.45126 432.45Q487.18564 432.5594 487.0294 432.77814Q486.88876 432.9969 486.88876 433.27814Q486.88876 433.7 487.20126 433.98126Q487.5294 434.2625 488.13876 434.2625Q488.74814 434.2625 489.2169 433.9969Q489.70126 433.73126 489.92 433.2625Q490.0919 432.90314 490.0919 432.21564L490.0919 431.825ZM493.1075 434.95L493.1075 428.73126L494.06064 428.73126L494.06064 429.66876Q494.42 429.0125 494.7169 428.8094Q495.0294 428.59064 495.4044 428.59064Q495.93564 428.59064 496.4825 428.91876L496.12314 429.90314Q495.7325 429.66876 495.3575 429.66876Q494.99814 429.66876 494.7169 429.8875Q494.45126 430.09064 494.3419 430.46564Q494.1544 431.02814 494.1544 431.6844L494.1544 434.95L493.1075 434.95ZM497.07626 437.34064L496.95126 436.35626Q497.295 436.45 497.56064 436.45Q497.9044 436.45 498.1075 436.325Q498.32626 436.21564 498.4669 436.0125Q498.56064 435.84064 498.795 435.21564Q498.81064 435.1375 498.88876 434.96564L496.51376 428.73126L497.6544 428.73126L498.95126 432.325Q499.20126 433.0125 499.4044 433.77814Q499.5919 433.04376 499.8419 432.35626L501.17 428.73126L502.2169 428.73126L499.8575 435.0594Q499.4669 436.075 499.26376 436.46564Q498.9825 436.9969 498.6075 437.23126Q498.24814 437.48126 497.74814 437.48126Q497.45126 437.48126 497.07626 437.34064ZM502.38876 434.95L502.38876 433.7469L503.5919 433.7469L503.5919 434.95Q503.5919 435.60626 503.3575 436.0125Q503.12314 436.4344 502.62314 436.65314L502.32626 436.2Q502.6544 436.0594 502.81064 435.7625Q502.9669 435.48126 502.99814 434.95L502.38876 434.95ZM513.37317 433.9344L513.37317 434.95L507.68564 434.95Q507.68564 434.575 507.81064 434.21564Q508.0294 433.6375 508.49814 433.075Q508.9825 432.5125 509.88876 431.77814Q511.295 430.6219 511.7794 429.95Q512.2794 429.27814 512.2794 428.6844Q512.2794 428.0594 511.82626 427.6375Q511.37314 427.2 510.6544 427.2Q509.88876 427.2 509.43564 427.65314Q508.9825 428.10626 508.9669 428.91876L507.88876 428.8094Q507.99814 427.59064 508.7169 426.96564Q509.45126 426.325 510.68564 426.325Q511.92 426.325 512.6388 427.0125Q513.35754 427.7 513.35754 428.71564Q513.35754 429.23126 513.1388 429.73126Q512.93567 430.21564 512.43567 430.77814Q511.95126 431.325 510.82626 432.27814Q509.87314 433.075 509.5919 433.3719Q509.32626 433.65314 509.1544 433.9344L513.37317 433.9344ZM514.8263 430.71564Q514.8263 429.1844 515.1388 428.2625Q515.4513 427.325 516.06067 426.825Q516.68567 426.325 517.62317 426.325Q518.31067 426.325 518.8263 426.60626Q519.35754 426.8875 519.7013 427.41876Q520.04504 427.9344 520.23254 428.6844Q520.42004 429.4344 520.42004 430.71564Q520.42004 432.23126 520.10754 433.15314Q519.81067 434.075 519.18567 434.59064Q518.5763 435.09064 517.62317 435.09064Q516.3888 435.09064 515.67004 434.2Q514.8263 433.1375 514.8263 430.71564ZM515.9044 430.71564Q515.9044 432.825 516.4044 433.52814Q516.9044 434.23126 517.62317 434.23126Q518.35754 434.23126 518.8419 433.52814Q519.3419 432.825 519.3419 430.71564Q519.3419 428.59064 518.8419 427.90314Q518.35754 427.2 517.60754 427.2Q516.8888 427.2 516.4513 427.8094Q515.9044 428.59064 515.9044 430.71564ZM527.37317 433.9344L527.37317 434.95L521.68567 434.95Q521.68567 434.575 521.81067 434.21564Q522.0294 433.6375 522.49817 433.075Q522.98254 432.5125 523.8888 431.77814Q525.29504 430.6219 525.7794 429.95Q526.2794 429.27814 526.2794 428.6844Q526.2794 428.0594 525.8263 427.6375Q525.37317 427.2 524.6544 427.2Q523.8888 427.2 523.43567 427.65314Q522.98254 428.10626 522.9669 428.91876L521.8888 428.8094Q521.99817 427.59064 522.7169 426.96564Q523.4513 426.325 524.68567 426.325Q525.92004 426.325 526.6388 427.0125Q527.35754 427.7 527.35754 428.71564Q527.35754 429.23126 527.1388 429.73126Q526.93567 430.21564 526.43567 430.77814Q525.9513 431.325 524.8263 432.27814Q523.87317 433.075 523.5919 433.3719Q523.3263 433.65314 523.1544 433.9344L527.37317 433.9344ZM528.8263 432.7L529.93567 432.60626Q530.06067 433.41876 530.49817 433.825Q530.9513 434.23126 531.5919 434.23126Q532.3419 434.23126 532.87317 433.65314Q533.4044 433.075 533.4044 432.1375Q533.4044 431.23126 532.8888 430.71564Q532.3888 430.1844 531.56067 430.1844Q531.06067 430.1844 530.6388 430.41876Q530.23254 430.65314 529.99817 431.0125L529.0138 430.8875L529.8419 426.48126L534.12317 426.48126L534.12317 427.48126L530.68567 427.48126L530.23254 429.79376Q530.99817 429.2469 531.8419 429.2469Q532.9669 429.2469 533.73254 430.02814Q534.5138 430.8094 534.5138 432.04376Q534.5138 433.2 533.8419 434.0594Q533.0138 435.09064 531.5919 435.09064Q530.42004 435.09064 529.67004 434.4344Q528.93567 433.77814 528.8263 432.7Z" fill-rule="nonzero"/><path fill="#000000" d="M559.88416 432.5125L560.9154 432.3719Q560.94666 433.35626 561.2748 433.71564Q561.6029 434.075 562.19666 434.075Q562.6185 434.075 562.931 433.8875Q563.2435 433.6844 563.3529 433.35626Q563.4779 433.0125 563.4779 432.27814L563.4779 426.35626L564.6029 426.35626L564.6029 432.21564Q564.6029 433.29376 564.3373 433.8875Q564.0873 434.48126 563.5248 434.79376Q562.9623 435.09064 562.19666 435.09064Q561.07166 435.09064 560.4623 434.45Q559.8685 433.79376 559.88416 432.5125ZM570.4154 434.95L570.4154 434.02814Q569.681 435.09064 568.431 435.09064Q567.88416 435.09064 567.3998 434.8875Q566.931 434.66876 566.69666 434.35626Q566.4623 434.02814 566.3685 433.5594Q566.306 433.2625 566.306 432.575L566.306 428.73126L567.3685 428.73126L567.3685 432.1844Q567.3685 432.9969 567.431 433.29376Q567.5248 433.7 567.8373 433.95Q568.1654 434.1844 568.6498 434.1844Q569.1185 434.1844 569.5248 433.95Q569.94666 433.7 570.1185 433.27814Q570.306 432.85626 570.306 432.0594L570.306 428.73126L571.3529 428.73126L571.3529 434.95L570.4154 434.95ZM573.3373 434.95L573.3373 428.73126L574.2748 428.73126L574.2748 429.60626Q574.9623 428.59064 576.25916 428.59064Q576.82166 428.59064 577.2904 428.79376Q577.7748 428.9969 578.00916 429.325Q578.2435 429.65314 578.3373 430.09064Q578.38416 430.3875 578.38416 431.1219L578.38416 434.95L577.3373 434.95L577.3373 431.16876Q577.3373 430.5125 577.2123 430.2Q577.0873 429.8875 576.7748 429.7Q576.4623 429.4969 576.0404 429.4969Q575.3685 429.4969 574.8685 429.9344Q574.38416 430.35626 574.38416 431.54376L574.38416 434.95L573.3373 434.95ZM584.5873 432.95L585.681 433.075Q585.431 434.02814 584.7279 434.5594Q584.0248 435.09064 582.94666 435.09064Q581.5873 435.09064 580.7748 434.2469Q579.9779 433.40314 579.9779 431.8875Q579.9779 430.325 580.7904 429.46564Q581.6029 428.59064 582.88416 428.59064Q584.13416 428.59064 584.9154 429.4344Q585.7123 430.27814 585.7123 431.825Q585.7123 431.91876 585.7123 432.10626L581.07166 432.10626Q581.13416 433.1375 581.6498 433.6844Q582.1654 434.21564 582.94666 434.21564Q583.5248 434.21564 583.931 433.91876Q584.3529 433.60626 584.5873 432.95ZM581.13416 431.2469L584.6029 431.2469Q584.5404 430.45 584.2123 430.0594Q583.69666 429.45 582.8998 429.45Q582.1654 429.45 581.6654 429.9344Q581.181 430.41876 581.13416 431.2469ZM587.6029 434.95L587.6029 433.7469L588.806 433.7469L588.806 434.95Q588.806 435.60626 588.57166 436.0125Q588.3373 436.4344 587.8373 436.65314L587.5404 436.2Q587.8685 436.0594 588.0248 435.7625Q588.181 435.48126 588.2123 434.95L587.6029 434.95ZM598.5873 433.9344L598.5873 434.95L592.8998 434.95Q592.8998 434.575 593.0248 434.21564Q593.2435 433.6375 593.7123 433.075Q594.19666 432.5125 595.1029 431.77814Q596.50916 430.6219 596.9935 429.95Q597.4935 429.27814 597.4935 428.6844Q597.4935 428.0594 597.0404 427.6375Q596.5873 427.2 595.8685 427.2Q595.1029 427.2 594.6498 427.65314Q594.19666 428.10626 594.181 428.91876L593.1029 428.8094Q593.2123 427.59064 593.931 426.96564Q594.6654 426.325 595.8998 426.325Q597.13416 426.325 597.8529 427.0125Q598.57166 427.7 598.57166 428.71564Q598.57166 429.23126 598.3529 429.73126Q598.1498 430.21564 597.6498 430.77814Q597.1654 431.325 596.0404 432.27814Q595.0873 433.075 594.806 433.3719Q594.5404 433.65314 594.3685 433.9344L598.5873 433.9344ZM600.0404 430.71564Q600.0404 429.1844 600.3529 428.2625Q600.6654 427.325 601.2748 426.825Q601.8998 426.325 602.8373 426.325Q603.5248 426.325 604.0404 426.60626Q604.57166 426.8875 604.9154 427.41876Q605.25916 427.9344 605.44666 428.6844Q605.63416 429.4344 605.63416 430.71564Q605.63416 432.23126 605.32166 433.15314Q605.0248 434.075 604.3998 434.59064Q603.7904 435.09064 602.8373 435.09064Q601.6029 435.09064 600.88416 434.2Q600.0404 433.1375 600.0404 430.71564ZM601.1185 430.71564Q601.1185 432.825 601.6185 433.52814Q602.1185 434.23126 602.8373 434.23126Q603.57166 434.23126 604.056 433.52814Q604.556 432.825 604.556 430.71564Q604.556 428.59064 604.056 427.90314Q603.57166 427.2 602.82166 427.2Q602.1029 427.2 601.6654 427.8094Q601.1185 428.59064 601.1185 430.71564ZM612.5873 433.9344L612.5873 434.95L606.8998 434.95Q606.8998 434.575 607.0248 434.21564Q607.2435 433.6375 607.7123 433.075Q608.19666 432.5125 609.1029 431.77814Q610.50916 430.6219 610.9935 429.95Q611.4935 429.27814 611.4935 428.6844Q611.4935 428.0594 611.0404 427.6375Q610.5873 427.2 609.8685 427.2Q609.1029 427.2 608.6498 427.65314Q608.19666 428.10626 608.181 428.91876L607.1029 428.8094Q607.2123 427.59064 607.931 426.96564Q608.6654 426.325 609.8998 426.325Q611.13416 426.325 611.8529 427.0125Q612.57166 427.7 612.57166 428.71564Q612.57166 429.23126 612.3529 429.73126Q612.1498 430.21564 611.6498 430.77814Q611.1654 431.325 610.0404 432.27814Q609.0873 433.075 608.806 433.3719Q608.5404 433.65314 608.3685 433.9344L612.5873 433.9344ZM614.0404 432.7L615.1498 432.60626Q615.2748 433.41876 615.7123 433.825Q616.1654 434.23126 616.806 434.23126Q617.556 434.23126 618.0873 433.65314Q618.6185 433.075 618.6185 432.1375Q618.6185 431.23126 618.1029 430.71564Q617.6029 430.1844 616.7748 430.1844Q616.2748 430.1844 615.8529 430.41876Q615.44666 430.65314 615.2123 431.0125L614.2279 430.8875L615.056 426.48126L619.3373 426.48126L619.3373 427.48126L615.8998 427.48126L615.44666 429.79376Q616.2123 429.2469 617.056 429.2469Q618.181 429.2469 618.94666 430.02814Q619.7279 430.8094 619.7279 432.04376Q619.7279 433.2 619.056 434.0594Q618.2279 435.09064 616.806 435.09064Q615.63416 435.09064 614.88416 434.4344Q614.1498 433.77814 614.0404 432.7Z" fill-rule="nonzero"/><path fill="#c9daf8" d="M680.62 25.05C680.62 24.497715 681.0677 24.05 681.62 24.05L691.62 24.05C692.1723 24.05 692.62 24.497715 692.62 25.05L692.62 35.05C692.62 35.602283 692.1723 36.05 691.62 36.05L681.62 36.05C681.0677 36.05 680.62 35.602283 680.62 35.05Z" fill-rule="nonzero"/><path fill="#1a1a1a" d="M701.1825 26.58125L701.1825 25.565624L706.745 25.565624L706.745 26.39375Q705.9325 27.26875 705.12 28.721874Q704.3231 30.159374 703.8856 31.690624Q703.5575 32.76875 703.4794 34.05L702.3856 34.05Q702.40125 33.034374 702.77625 31.596874Q703.1669 30.159374 703.87 28.83125Q704.58875 27.503124 705.40125 26.58125L701.1825 26.58125ZM708.71375 34.05L708.71375 32.846874L709.9169 32.846874L709.9169 34.05L708.71375 34.05ZM716.6669 33.034374L716.6669 34.05L710.9794 34.05Q710.9794 33.675 711.1044 33.315624Q711.3231 32.7375 711.7919 32.175Q712.27625 31.6125 713.1825 30.878124Q714.58875 29.721874 715.0731 29.05Q715.5731 28.378124 715.5731 27.784374Q715.5731 27.159374 715.12 26.7375Q714.6669 26.3 713.9481 26.3Q713.1825 26.3 712.7294 26.753124Q712.27625 27.20625 712.2606 28.01875L711.1825 27.909374Q711.2919 26.690624 712.0106 26.065624Q712.745 25.425 713.9794 25.425Q715.21375 25.425 715.9325 26.1125Q716.65125 26.8 716.65125 27.815624Q716.65125 28.33125 716.4325 28.83125Q716.2294 29.315624 715.7294 29.878124Q715.245 30.425 714.12 31.378124Q713.1669 32.175 712.8856 32.471874Q712.62 32.753124 712.4481 33.034374L716.6669 33.034374Z" fill-rule="nonzero"/><path fill="#9fc5e8" d="M680.62 49.05C680.62 48.497715 681.0677 48.05 681.62 48.05L691.62 48.05C692.1723 48.05 692.62 48.497715 692.62 49.05L692.62 59.05C692.62 59.602283 692.1723 60.05 691.62 60.05L681.62 60.05C681.0677 60.05 680.62 59.602283 680.62 59.05Z" fill-rule="nonzero"/><path fill="#1a1a1a" d="M701.1825 50.58125L701.1825 49.565624L706.745 49.565624L706.745 50.39375Q705.9325 51.26875 705.12 52.721874Q704.3231 54.159374 703.8856 55.690624Q703.5575 56.76875 703.4794 58.05L702.3856 58.05Q702.40125 57.034374 702.77625 55.596874Q703.1669 54.159374 703.87 52.83125Q704.58875 51.503124 705.40125 50.58125L701.1825 50.58125ZM708.71375 58.05L708.71375 56.846874L709.9169 56.846874L709.9169 58.05L708.71375 58.05ZM711.12 55.784374L712.1825 55.64375Q712.3544 56.534374 712.7919 56.940624Q713.2294 57.33125 713.8544 57.33125Q714.6044 57.33125 715.12 56.815624Q715.6356 56.3 715.6356 55.534374Q715.6356 54.815624 715.15125 54.346874Q714.6825 53.8625 713.9481 53.8625Q713.65125 53.8625 713.1981 53.9875L713.3231 53.05Q713.4325 53.065624 713.495 53.065624Q714.1669 53.065624 714.6981 52.721874Q715.245 52.3625 715.245 51.628124Q715.245 51.05 714.8544 50.675Q714.46375 50.284374 713.83875 50.284374Q713.2294 50.284374 712.8075 50.675Q712.40125 51.065624 712.2919 51.83125L711.2294 51.64375Q711.4169 50.596874 712.1044 50.01875Q712.7919 49.425 713.8075 49.425Q714.5106 49.425 715.1044 49.7375Q715.6981 50.034374 716.0106 50.55Q716.3231 51.065624 716.3231 51.659374Q716.3231 52.20625 716.02625 52.675Q715.7294 53.128124 715.15125 53.39375Q715.90125 53.565624 716.3231 54.128124Q716.745 54.675 716.745 55.51875Q716.745 56.64375 715.9169 57.425Q715.1044 58.20625 713.8544 58.20625Q712.7294 58.20625 711.9794 57.534374Q711.2294 56.846874 711.12 55.784374Z" fill-rule="nonzero"/><path fill="#6fa8dc" d="M680.62 73.05C680.62 72.49772 681.0677 72.05 681.62 72.05L691.62 72.05C692.1723 72.05 692.62 72.49772 692.62 73.05L692.62 83.05C692.62 83.60229 692.1723 84.05 691.62 84.05L681.62 84.05C681.0677 84.05 680.62 83.60229 680.62 83.05Z" fill-rule="nonzero"/><path fill="#1a1a1a" d="M701.1825 74.58125L701.1825 73.56563L706.745 73.56563L706.745 74.39375Q705.9325 75.26875 705.12 76.72188Q704.3231 78.15938 703.8856 79.69063Q703.5575 80.76875 703.4794 82.05L702.3856 82.05Q702.40125 81.03438 702.77625 79.59688Q703.1669 78.15938 703.87 76.83125Q704.58875 75.50313 705.40125 74.58125L701.1825 74.58125ZM708.71375 82.05L708.71375 80.84688L709.9169 80.84688L709.9169 82.05L708.71375 82.05ZM714.495 82.05L714.495 79.9875L710.77625 79.9875L710.77625 79.01875L714.6981 73.45625L715.5575 73.45625L715.5575 79.01875L716.71375 79.01875L716.71375 79.9875L715.5575 79.9875L715.5575 82.05L714.495 82.05ZM714.495 79.01875L714.495 75.15938L711.8075 79.01875L714.495 79.01875Z" fill-rule="nonzero"/><path fill="#d9ead3" d="M680.62 97.05C680.62 96.49772 681.0677 96.05 681.62 96.05L691.62 96.05C692.1723 96.05 692.62 96.49772 692.62 97.05L692.62 107.05C692.62 107.60229 692.1723 108.05 691.62 108.05L681.62 108.05C681.0677 108.05 680.62 107.60229 680.62 107.05Z" fill-rule="nonzero"/><path fill="#1a1a1a" d="M702.745 101.39375Q702.08875 101.14375 701.7606 100.70625Q701.4481 100.25313 701.4481 99.64375Q701.4481 98.70625 702.12 98.06563Q702.8075 97.425 703.9169 97.425Q705.0419 97.425 705.7294 98.08125Q706.4169 98.7375 706.4169 99.675Q706.4169 100.26875 706.1044 100.70625Q705.7919 101.14375 705.15125 101.39375Q705.9481 101.64375 706.3544 102.22188Q706.7606 102.8 706.7606 103.59688Q706.7606 104.69063 705.9794 105.44063Q705.21375 106.19063 703.9325 106.19063Q702.6669 106.19063 701.8856 105.44063Q701.1044 104.69063 701.1044 103.56563Q701.1044 102.72188 701.52625 102.15938Q701.96375 101.59688 702.745 101.39375ZM702.52625 99.59688Q702.52625 100.20625 702.9169 100.59688Q703.3231 100.9875 703.9481 100.9875Q704.5575 100.9875 704.9481 100.6125Q705.33875 100.22188 705.33875 99.65938Q705.33875 99.08125 704.9325 98.69063Q704.52625 98.28438 703.9325 98.28438Q703.3231 98.28438 702.9169 98.675Q702.52625 99.06563 702.52625 99.59688ZM702.1981 103.56563Q702.1981 104.01875 702.40125 104.44063Q702.62 104.8625 703.0419 105.09688Q703.46375 105.33125 703.9481 105.33125Q704.6981 105.33125 705.1825 104.84688Q705.6825 104.3625 705.6825 103.6125Q705.6825 102.84688 705.1825 102.34688Q704.6825 101.84688 703.9169 101.84688Q703.1669 101.84688 702.6825 102.34688Q702.1981 102.83125 702.1981 103.56563ZM708.71375 106.05L708.71375 104.84688L709.9169 104.84688L709.9169 106.05L708.71375 106.05ZM711.12 101.81563Q711.12 100.28438 711.4325 99.3625Q711.745 98.425 712.3544 97.925Q712.9794 97.425 713.9169 97.425Q714.6044 97.425 715.12 97.70625Q715.65125 97.9875 715.995 98.51875Q716.33875 99.03438 716.52625 99.78438Q716.71375 100.53438 716.71375 101.81563Q716.71375 103.33125 716.40125 104.25313Q716.1044 105.175 715.4794 105.69063Q714.87 106.19063 713.9169 106.19063Q712.6825 106.19063 711.96375 105.3Q711.12 104.2375 711.12 101.81563ZM712.1981 101.81563Q712.1981 103.925 712.6981 104.62813Q713.1981 105.33125 713.9169 105.33125Q714.65125 105.33125 715.1356 104.62813Q715.6356 103.925 715.6356 101.81563Q715.6356 99.69063 715.1356 99.00313Q714.65125 98.3 713.90125 98.3Q713.1825 98.3 712.745 98.90938Q712.1981 99.69063 712.1981 101.81563Z" fill-rule="nonzero"/><path fill="#b6d7a8" d="M680.62 121.05C680.62 120.49772 681.0677 120.05 681.62 120.05L691.62 120.05C692.1723 120.05 692.62 120.49772 692.62 121.05L692.62 131.05C692.62 131.60228 692.1723 132.05 691.62 132.05L681.62 132.05C681.0677 132.05 680.62 131.60228 680.62 131.05Z" fill-rule="nonzero"/><path fill="#1a1a1a" d="M702.745 125.39375Q702.08875 125.14375 701.7606 124.70625Q701.4481 124.25313 701.4481 123.64375Q701.4481 122.70625 702.12 122.06563Q702.8075 121.425 703.9169 121.425Q705.0419 121.425 705.7294 122.08125Q706.4169 122.7375 706.4169 123.675Q706.4169 124.26875 706.1044 124.70625Q705.7919 125.14375 705.15125 125.39375Q705.9481 125.64375 706.3544 126.22188Q706.7606 126.8 706.7606 127.59688Q706.7606 128.69063 705.9794 129.44063Q705.21375 130.19063 703.9325 130.19063Q702.6669 130.19063 701.8856 129.44063Q701.1044 128.69063 701.1044 127.56563Q701.1044 126.72188 701.52625 126.15938Q701.96375 125.59688 702.745 125.39375ZM702.52625 123.59688Q702.52625 124.20625 702.9169 124.59688Q703.3231 124.9875 703.9481 124.9875Q704.5575 124.9875 704.9481 124.6125Q705.33875 124.22188 705.33875 123.65938Q705.33875 123.08125 704.9325 122.69063Q704.52625 122.28438 703.9325 122.28438Q703.3231 122.28438 702.9169 122.675Q702.52625 123.06563 702.52625 123.59688ZM702.1981 127.56563Q702.1981 128.01875 702.40125 128.44063Q702.62 128.8625 703.0419 129.09688Q703.46375 129.33125 703.9481 129.33125Q704.6981 129.33125 705.1825 128.84688Q705.6825 128.3625 705.6825 127.6125Q705.6825 126.84688 705.1825 126.34688Q704.6825 125.84688 703.9169 125.84688Q703.1669 125.84688 702.6825 126.34688Q702.1981 126.83125 702.1981 127.56563ZM708.71375 130.05L708.71375 128.84688L709.9169 128.84688L709.9169 130.05L708.71375 130.05ZM715.08875 130.05L714.0419 130.05L714.0419 123.33125Q713.65125 123.69063 713.02625 124.06563Q712.4169 124.425 711.9325 124.59688L711.9325 123.58125Q712.8075 123.15938 713.46375 122.58125Q714.1356 121.9875 714.4169 121.425L715.08875 121.425L715.08875 130.05Z" fill-rule="nonzero"/><path fill="#93c47d" d="M680.62 145.05C680.62 144.49771 681.0677 144.05 681.62 144.05L691.62 144.05C692.1723 144.05 692.62 144.49771 692.62 145.05L692.62 155.05C692.62 155.60228 692.1723 156.05 691.62 156.05L681.62 156.05C681.0677 156.05 680.62 155.60228 680.62 155.05Z" fill-rule="nonzero"/><path fill="#1a1a1a" d="M702.745 149.39375Q702.08875 149.14375 701.7606 148.70625Q701.4481 148.25313 701.4481 147.64375Q701.4481 146.70625 702.12 146.06563Q702.8075 145.425 703.9169 145.425Q705.0419 145.425 705.7294 146.08125Q706.4169 146.7375 706.4169 147.675Q706.4169 148.26875 706.1044 148.70625Q705.7919 149.14375 705.15125 149.39375Q705.9481 149.64375 706.3544 150.22188Q706.7606 150.8 706.7606 151.59688Q706.7606 152.69063 705.9794 153.44063Q705.21375 154.19063 703.9325 154.19063Q702.6669 154.19063 701.8856 153.44063Q701.1044 152.69063 701.1044 151.56563Q701.1044 150.72188 701.52625 150.15938Q701.96375 149.59688 702.745 149.39375ZM702.52625 147.59688Q702.52625 148.20625 702.9169 148.59688Q703.3231 148.9875 703.9481 148.9875Q704.5575 148.9875 704.9481 148.6125Q705.33875 148.22188 705.33875 147.65938Q705.33875 147.08125 704.9325 146.69063Q704.52625 146.28438 703.9325 146.28438Q703.3231 146.28438 702.9169 146.675Q702.52625 147.06563 702.52625 147.59688ZM702.1981 151.56563Q702.1981 152.01875 702.40125 152.44063Q702.62 152.8625 703.0419 153.09688Q703.46375 153.33125 703.9481 153.33125Q704.6981 153.33125 705.1825 152.84688Q705.6825 152.3625 705.6825 151.6125Q705.6825 150.84688 705.1825 150.34688Q704.6825 149.84688 703.9169 149.84688Q703.1669 149.84688 702.6825 150.34688Q702.1981 150.83125 702.1981 151.56563ZM708.71375 154.05L708.71375 152.84688L709.9169 152.84688L709.9169 154.05L708.71375 154.05ZM716.6669 153.03438L716.6669 154.05L710.9794 154.05Q710.9794 153.675 711.1044 153.31563Q711.3231 152.7375 711.7919 152.175Q712.27625 151.6125 713.1825 150.87813Q714.58875 149.72188 715.0731 149.05Q715.5731 148.37813 715.5731 147.78438Q715.5731 147.15938 715.12 146.7375Q714.6669 146.3 713.9481 146.3Q713.1825 146.3 712.7294 146.75313Q712.27625 147.20625 712.2606 148.01875L711.1825 147.90938Q711.2919 146.69063 712.0106 146.06563Q712.745 145.425 713.9794 145.425Q715.21375 145.425 715.9325 146.1125Q716.65125 146.8 716.65125 147.81563Q716.65125 148.33125 716.4325 148.83125Q716.2294 149.31563 715.7294 149.87813Q715.245 150.425 714.12 151.37813Q713.1669 152.175 712.8856 152.47188Q712.62 152.75313 712.4481 153.03438L716.6669 153.03438Z" fill-rule="nonzero"/><path fill="#6aa84f" d="M680.62 169.05C680.62 168.49771 681.0677 168.05 681.62 168.05L691.62 168.05C692.1723 168.05 692.62 168.49771 692.62 169.05L692.62 179.05C692.62 179.60228 692.1723 180.05 691.62 180.05L681.62 180.05C681.0677 180.05 680.62 179.60228 680.62 179.05Z" fill-rule="nonzero"/><path fill="#1a1a1a" d="M702.745 173.39375Q702.08875 173.14375 701.7606 172.70625Q701.4481 172.25313 701.4481 171.64375Q701.4481 170.70625 702.12 170.06563Q702.8075 169.425 703.9169 169.425Q705.0419 169.425 705.7294 170.08125Q706.4169 170.7375 706.4169 171.675Q706.4169 172.26875 706.1044 172.70625Q705.7919 173.14375 705.15125 173.39375Q705.9481 173.64375 706.3544 174.22188Q706.7606 174.8 706.7606 175.59688Q706.7606 176.69063 705.9794 177.44063Q705.21375 178.19063 703.9325 178.19063Q702.6669 178.19063 701.8856 177.44063Q701.1044 176.69063 701.1044 175.56563Q701.1044 174.72188 701.52625 174.15938Q701.96375 173.59688 702.745 173.39375ZM702.52625 171.59688Q702.52625 172.20625 702.9169 172.59688Q703.3231 172.9875 703.9481 172.9875Q704.5575 172.9875 704.9481 172.6125Q705.33875 172.22188 705.33875 171.65938Q705.33875 171.08125 704.9325 170.69063Q704.52625 170.28438 703.9325 170.28438Q703.3231 170.28438 702.9169 170.675Q702.52625 171.06563 702.52625 171.59688ZM702.1981 175.56563Q702.1981 176.01875 702.40125 176.44063Q702.62 176.8625 703.0419 177.09688Q703.46375 177.33125 703.9481 177.33125Q704.6981 177.33125 705.1825 176.84688Q705.6825 176.3625 705.6825 175.6125Q705.6825 174.84688 705.1825 174.34688Q704.6825 173.84688 703.9169 173.84688Q703.1669 173.84688 702.6825 174.34688Q702.1981 174.83125 702.1981 175.56563ZM708.71375 178.05L708.71375 176.84688L709.9169 176.84688L709.9169 178.05L708.71375 178.05ZM711.12 175.78438L712.1825 175.64375Q712.3544 176.53438 712.7919 176.94063Q713.2294 177.33125 713.8544 177.33125Q714.6044 177.33125 715.12 176.81563Q715.6356 176.3 715.6356 175.53438Q715.6356 174.81563 715.15125 174.34688Q714.6825 173.8625 713.9481 173.8625Q713.65125 173.8625 713.1981 173.9875L713.3231 173.05Q713.4325 173.06563 713.495 173.06563Q714.1669 173.06563 714.6981 172.72188Q715.245 172.3625 715.245 171.62813Q715.245 171.05 714.8544 170.675Q714.46375 170.28438 713.83875 170.28438Q713.2294 170.28438 712.8075 170.675Q712.40125 171.06563 712.2919 171.83125L711.2294 171.64375Q711.4169 170.59688 712.1044 170.01875Q712.7919 169.425 713.8075 169.425Q714.5106 169.425 715.1044 169.7375Q715.6981 170.03438 716.0106 170.55Q716.3231 171.06563 716.3231 171.65938Q716.3231 172.20625 716.02625 172.675Q715.7294 173.12813 715.15125 173.39375Q715.90125 173.56563 716.3231 174.12813Q716.745 174.675 716.745 175.51875Q716.745 176.64375 715.9169 177.425Q715.1044 178.20625 713.8544 178.20625Q712.7294 178.20625 711.9794 177.53438Q711.2294 176.84688 711.12 175.78438Z" fill-rule="nonzero"/><path fill="#38761d" d="M680.62 193.05C680.62 192.49771 681.0677 192.05 681.62 192.05L691.62 192.05C692.1723 192.05 692.62 192.49771 692.62 193.05L692.62 203.05C692.62 203.60228 692.1723 204.05 691.62 204.05L681.62 204.05C681.0677 204.05 680.62 203.60228 680.62 203.05Z" fill-rule="nonzero"/><path fill="#1a1a1a" d="M702.745 197.39375Q702.08875 197.14375 701.7606 196.70625Q701.4481 196.25313 701.4481 195.64375Q701.4481 194.70625 702.12 194.06563Q702.8075 193.425 703.9169 193.425Q705.0419 193.425 705.7294 194.08125Q706.4169 194.7375 706.4169 195.675Q706.4169 196.26875 706.1044 196.70625Q705.7919 197.14375 705.15125 197.39375Q705.9481 197.64375 706.3544 198.22188Q706.7606 198.8 706.7606 199.59688Q706.7606 200.69063 705.9794 201.44063Q705.21375 202.19063 703.9325 202.19063Q702.6669 202.19063 701.8856 201.44063Q701.1044 200.69063 701.1044 199.56563Q701.1044 198.72188 701.52625 198.15938Q701.96375 197.59688 702.745 197.39375ZM702.52625 195.59688Q702.52625 196.20625 702.9169 196.59688Q703.3231 196.9875 703.9481 196.9875Q704.5575 196.9875 704.9481 196.6125Q705.33875 196.22188 705.33875 195.65938Q705.33875 195.08125 704.9325 194.69063Q704.52625 194.28438 703.9325 194.28438Q703.3231 194.28438 702.9169 194.675Q702.52625 195.06563 702.52625 195.59688ZM702.1981 199.56563Q702.1981 200.01875 702.40125 200.44063Q702.62 200.8625 703.0419 201.09688Q703.46375 201.33125 703.9481 201.33125Q704.6981 201.33125 705.1825 200.84688Q705.6825 200.3625 705.6825 199.6125Q705.6825 198.84688 705.1825 198.34688Q704.6825 197.84688 703.9169 197.84688Q703.1669 197.84688 702.6825 198.34688Q702.1981 198.83125 702.1981 199.56563ZM708.71375 202.05L708.71375 200.84688L709.9169 200.84688L709.9169 202.05L708.71375 202.05ZM714.495 202.05L714.495 199.9875L710.77625 199.9875L710.77625 199.01875L714.6981 193.45625L715.5575 193.45625L715.5575 199.01875L716.71375 199.01875L716.71375 199.9875L715.5575 199.9875L715.5575 202.05L714.495 202.05ZM714.495 199.01875L714.495 195.15938L711.8075 199.01875L714.495 199.01875Z" fill-rule="nonzero"/></svg>