<svg version="1.1" viewBox="0.0 0.0 746.0 461.0" fill="none" stroke="none" stroke-linecap="square" stroke-miterlimit="10" width="746" height="461" xmlns:xlink="http://www.w3.org/1999/xlink" xmlns="http://www.w3.org/2000/svg"><path fill="#ffffff" d="M0 0L746.0 0L746.0 461.0L0 461.0L0 0Z" fill-rule="nonzero"/><path stroke="#333333" stroke-width="1.0" stroke-linecap="butt" d="M61.5 417.5L652.5 417.5" fill-rule="nonzero"/><path stroke="#cccccc" stroke-width="1.0" stroke-linecap="butt" d="M61.5 320.5L652.5 320.5" fill-rule="nonzero"/><path stroke="#cccccc" stroke-width="1.0" stroke-linecap="butt" d="M61.5 224.5L652.5 224.5" fill-rule="nonzero"/><path stroke="#cccccc" stroke-width="1.0" stroke-linecap="butt" d="M61.5 127.5L652.5 127.5" fill-rule="nonzero"/><path stroke="#cccccc" stroke-width="1.0" stroke-linecap="butt" d="M61.5 30.5L652.5 30.5" fill-rule="nonzero"/><clipPath id="id_0"><path d="M61.05 30.05L652.96 30.05L652.96 417.95L61.05 417.95L61.05 30.05Z" clip-rule="nonzero"/></clipPath><path stroke="#000000" stroke-width="2.0" stroke-linecap="butt" stroke-opacity="0.0" clip-path="url(#id_0)" d="M172.0 418.0L100.0 418.0L100.0 418.0L172.0 418.0Z" fill-rule="nonzero"/><path fill="#38761d" clip-path="url(#id_0)" d="M172.0 418.0L100.0 418.0L100.0 418.0L172.0 418.0Z" fill-rule="nonzero"/><path stroke="#000000" stroke-width="2.0" stroke-linecap="butt" stroke-opacity="0.0" clip-path="url(#id_0)" d="M282.0 418.0L210.0 418.0L210.0 418.0L282.0 418.0Z" fill-rule="nonzero"/><path fill="#38761d" clip-path="url(#id_0)" d="M282.0 418.0L210.0 418.0L210.0 418.0L282.0 418.0Z" fill-rule="nonzero"/><path stroke="#000000" stroke-width="2.0" stroke-linecap="butt" stroke-opacity="0.0" clip-path="url(#id_0)" d="M393.0 418.0L321.0 418.0L321.0 418.0L393.0 418.0Z" fill-rule="nonzero"/><path fill="#38761d" clip-path="url(#id_0)" d="M393.0 418.0L321.0 418.0L321.0 418.0L393.0 418.0Z" fill-rule="nonzero"/><path stroke="#000000" stroke-width="2.0" stroke-linecap="butt" stroke-opacity="0.0" clip-path="url(#id_0)" d="M504.0 418.0L432.0 418.0L432.0 418.0L504.0 418.0Z" fill-rule="nonzero"/><path fill="#38761d" clip-path="url(#id_0)" d="M504.0 418.0L432.0 418.0L432.0 418.0L504.0 418.0Z" fill-rule="nonzero"/><path stroke="#000000" stroke-width="2.0" stroke-linecap="butt" stroke-opacity="0.0" clip-path="url(#id_0)" d="M614.0 418.0L542.0 418.0L542.0 398.0L614.0 398.0Z" fill-rule="nonzero"/><path fill="#38761d" clip-path="url(#id_0)" d="M614.0 418.0L542.0 418.0L542.0 398.0L614.0 398.0Z" fill-rule="nonzero"/><path stroke="#000000" stroke-width="2.0" stroke-linecap="butt" stroke-opacity="0.0" clip-path="url(#id_0)" d="M172.0 418.0L100.0 418.0L100.0 418.0L172.0 418.0Z" fill-rule="nonzero"/><path fill="#6aa84f" clip-path="url(#id_0)" d="M172.0 418.0L100.0 418.0L100.0 418.0L172.0 418.0Z" fill-rule="nonzero"/><path stroke="#000000" stroke-width="2.0" stroke-linecap="butt" stroke-opacity="0.0" clip-path="url(#id_0)" d="M282.0 418.0L210.0 418.0L210.0 417.0L282.0 417.0Z" fill-rule="nonzero"/><path fill="#6aa84f" clip-path="url(#id_0)" d="M282.0 418.0L210.0 418.0L210.0 417.0L282.0 417.0Z" fill-rule="nonzero"/><path stroke="#000000" stroke-width="2.0" stroke-linecap="butt" stroke-opacity="0.0" clip-path="url(#id_0)" d="M393.0 418.0L321.0 418.0L321.0 392.0L393.0 392.0Z" fill-rule="nonzero"/><path fill="#6aa84f" clip-path="url(#id_0)" d="M393.0 418.0L321.0 418.0L321.0 392.0L393.0 392.0Z" fill-rule="nonzero"/><path stroke="#000000" stroke-width="2.0" stroke-linecap="butt" stroke-opacity="0.0" clip-path="url(#id_0)" d="M504.0 418.0L432.0 418.0L432.0 339.0L504.0 339.0Z" fill-rule="nonzero"/><path fill="#6aa84f" clip-path="url(#id_0)" d="M504.0 418.0L432.0 418.0L432.0 339.0L504.0 339.0Z" fill-rule="nonzero"/><path stroke="#000000" stroke-width="2.0" stroke-linecap="butt" stroke-opacity="0.0" clip-path="url(#id_0)" d="M614.0 398.0L542.0 398.0L542.0 269.0L614.0 269.0Z" fill-rule="nonzero"/><path fill="#6aa84f" clip-path="url(#id_0)" d="M614.0 398.0L542.0 398.0L542.0 269.0L614.0 269.0Z" fill-rule="nonzero"/><path stroke="#000000" stroke-width="2.0" stroke-linecap="butt" stroke-opacity="0.0" clip-path="url(#id_0)" d="M172.0 418.0L100.0 418.0L100.0 399.0L172.0 399.0Z" fill-rule="nonzero"/><path fill="#93c47d" clip-path="url(#id_0)" d="M172.0 418.0L100.0 418.0L100.0 399.0L172.0 399.0Z" fill-rule="nonzero"/><path stroke="#000000" stroke-width="2.0" stroke-linecap="butt" stroke-opacity="0.0" clip-path="url(#id_0)" d="M282.0 417.0L210.0 417.0L210.0 349.0L282.0 349.0Z" fill-rule="nonzero"/><path fill="#93c47d" clip-path="url(#id_0)" d="M282.0 417.0L210.0 417.0L210.0 349.0L282.0 349.0Z" fill-rule="nonzero"/><path stroke="#000000" stroke-width="2.0" stroke-linecap="butt" stroke-opacity="0.0" clip-path="url(#id_0)" d="M393.0 392.0L321.0 392.0L321.0 276.0L393.0 276.0Z" fill-rule="nonzero"/><path fill="#93c47d" clip-path="url(#id_0)" d="M393.0 392.0L321.0 392.0L321.0 276.0L393.0 276.0Z" fill-rule="nonzero"/><path stroke="#000000" stroke-width="2.0" stroke-linecap="butt" stroke-opacity="0.0" clip-path="url(#id_0)" d="M504.0 339.0L432.0 339.0L432.0 211.0L504.0 211.0Z" fill-rule="nonzero"/><path fill="#93c47d" clip-path="url(#id_0)" d="M504.0 339.0L432.0 339.0L432.0 211.0L504.0 211.0Z" fill-rule="nonzero"/><path stroke="#000000" stroke-width="2.0" stroke-linecap="butt" stroke-opacity="0.0" clip-path="url(#id_0)" d="M614.0 269.0L542.0 269.0L542.0 157.0L614.0 157.0Z" fill-rule="nonzero"/><path fill="#93c47d" clip-path="url(#id_0)" d="M614.0 269.0L542.0 269.0L542.0 157.0L614.0 157.0Z" fill-rule="nonzero"/><path stroke="#000000" stroke-width="2.0" stroke-linecap="butt" stroke-opacity="0.0" clip-path="url(#id_0)" d="M172.0 399.0L100.0 399.0L100.0 244.0L172.0 244.0Z" fill-rule="nonzero"/><path fill="#b6d7a8" clip-path="url(#id_0)" d="M172.0 399.0L100.0 399.0L100.0 244.0L172.0 244.0Z" fill-rule="nonzero"/><path stroke="#000000" stroke-width="2.0" stroke-linecap="butt" stroke-opacity="0.0" clip-path="url(#id_0)" d="M282.0 349.0L210.0 349.0L210.0 192.0L282.0 192.0Z" fill-rule="nonzero"/><path fill="#b6d7a8" clip-path="url(#id_0)" d="M282.0 349.0L210.0 349.0L210.0 192.0L282.0 192.0Z" fill-rule="nonzero"/><path stroke="#000000" stroke-width="2.0" stroke-linecap="butt" stroke-opacity="0.0" clip-path="url(#id_0)" d="M393.0 276.0L321.0 276.0L321.0 135.0L393.0 135.0Z" fill-rule="nonzero"/><path fill="#b6d7a8" clip-path="url(#id_0)" d="M393.0 276.0L321.0 276.0L321.0 135.0L393.0 135.0Z" fill-rule="nonzero"/><path stroke="#000000" stroke-width="2.0" stroke-linecap="butt" stroke-opacity="0.0" clip-path="url(#id_0)" d="M504.0 211.0L432.0 211.0L432.0 108.0L504.0 108.0Z" fill-rule="nonzero"/><path fill="#b6d7a8" clip-path="url(#id_0)" d="M504.0 211.0L432.0 211.0L432.0 108.0L504.0 108.0Z" fill-rule="nonzero"/><path stroke="#000000" stroke-width="2.0" stroke-linecap="butt" stroke-opacity="0.0" clip-path="url(#id_0)" d="M614.0 157.0L542.0 157.0L542.0 86.0L614.0 86.0Z" fill-rule="nonzero"/><path fill="#b6d7a8" clip-path="url(#id_0)" d="M614.0 157.0L542.0 157.0L542.0 86.0L614.0 86.0Z" fill-rule="nonzero"/><path stroke="#000000" stroke-width="2.0" stroke-linecap="butt" stroke-opacity="0.0" clip-path="url(#id_0)" d="M172.0 244.0L100.0 244.0L100.0 179.0L172.0 179.0Z" fill-rule="nonzero"/><path fill="#d9ead3" clip-path="url(#id_0)" d="M172.0 244.0L100.0 244.0L100.0 179.0L172.0 179.0Z" fill-rule="nonzero"/><path stroke="#000000" stroke-width="2.0" stroke-linecap="butt" stroke-opacity="0.0" clip-path="url(#id_0)" d="M282.0 192.0L210.0 192.0L210.0 143.0L282.0 143.0Z" fill-rule="nonzero"/><path fill="#d9ead3" clip-path="url(#id_0)" d="M282.0 192.0L210.0 192.0L210.0 143.0L282.0 143.0Z" fill-rule="nonzero"/><path stroke="#000000" stroke-width="2.0" stroke-linecap="butt" stroke-opacity="0.0" clip-path="url(#id_0)" d="M393.0 135.0L321.0 135.0L321.0 107.0L393.0 107.0Z" fill-rule="nonzero"/><path fill="#d9ead3" clip-path="url(#id_0)" d="M393.0 135.0L321.0 135.0L321.0 107.0L393.0 107.0Z" fill-rule="nonzero"/><path stroke="#000000" stroke-width="2.0" stroke-linecap="butt" stroke-opacity="0.0" clip-path="url(#id_0)" d="M504.0 108.0L432.0 108.0L432.0 87.0L504.0 87.0Z" fill-rule="nonzero"/><path fill="#d9ead3" clip-path="url(#id_0)" d="M504.0 108.0L432.0 108.0L432.0 87.0L504.0 87.0Z" fill-rule="nonzero"/><path stroke="#000000" stroke-width="2.0" stroke-linecap="butt" stroke-opacity="0.0" clip-path="url(#id_0)" d="M614.0 86.0L542.0 86.0L542.0 72.0L614.0 72.0Z" fill-rule="nonzero"/><path fill="#d9ead3" clip-path="url(#id_0)" d="M614.0 86.0L542.0 86.0L542.0 72.0L614.0 72.0Z" fill-rule="nonzero"/><path stroke="#000000" stroke-width="2.0" stroke-linecap="butt" stroke-opacity="0.0" clip-path="url(#id_0)" d="M172.0 179.0L100.0 179.0L100.0 68.0L172.0 68.0Z" fill-rule="nonzero"/><path fill="#6fa8dc" clip-path="url(#id_0)" d="M172.0 179.0L100.0 179.0L100.0 68.0L172.0 68.0Z" fill-rule="nonzero"/><path stroke="#000000" stroke-width="2.0" stroke-linecap="butt" stroke-opacity="0.0" clip-path="url(#id_0)" d="M282.0 143.0L210.0 143.0L210.0 64.0L282.0 64.0Z" fill-rule="nonzero"/><path fill="#6fa8dc" clip-path="url(#id_0)" d="M282.0 143.0L210.0 143.0L210.0 64.0L282.0 64.0Z" fill-rule="nonzero"/><path stroke="#000000" stroke-width="2.0" stroke-linecap="butt" stroke-opacity="0.0" clip-path="url(#id_0)" d="M393.0 107.0L321.0 107.0L321.0 53.0L393.0 53.0Z" fill-rule="nonzero"/><path fill="#6fa8dc" clip-path="url(#id_0)" d="M393.0 107.0L321.0 107.0L321.0 53.0L393.0 53.0Z" fill-rule="nonzero"/><path stroke="#000000" stroke-width="2.0" stroke-linecap="butt" stroke-opacity="0.0" clip-path="url(#id_0)" d="M504.0 87.0L432.0 87.0L432.0 46.0L504.0 46.0Z" fill-rule="nonzero"/><path fill="#6fa8dc" clip-path="url(#id_0)" d="M504.0 87.0L432.0 87.0L432.0 46.0L504.0 46.0Z" fill-rule="nonzero"/><path stroke="#000000" stroke-width="2.0" stroke-linecap="butt" stroke-opacity="0.0" clip-path="url(#id_0)" d="M614.0 72.0L542.0 72.0L542.0 42.0L614.0 42.0Z" fill-rule="nonzero"/><path fill="#6fa8dc" clip-path="url(#id_0)" d="M614.0 72.0L542.0 72.0L542.0 42.0L614.0 42.0Z" fill-rule="nonzero"/><path stroke="#000000" stroke-width="2.0" stroke-linecap="butt" stroke-opacity="0.0" clip-path="url(#id_0)" d="M172.0 68.0L100.0 68.0L100.0 47.0L172.0 47.0Z" fill-rule="nonzero"/><path fill="#9fc5e8" clip-path="url(#id_0)" d="M172.0 68.0L100.0 68.0L100.0 47.0L172.0 47.0Z" fill-rule="nonzero"/><path stroke="#000000" stroke-width="2.0" stroke-linecap="butt" stroke-opacity="0.0" clip-path="url(#id_0)" d="M282.0 64.0L210.0 64.0L210.0 47.0L282.0 47.0Z" fill-rule="nonzero"/><path fill="#9fc5e8" clip-path="url(#id_0)" d="M282.0 64.0L210.0 64.0L210.0 47.0L282.0 47.0Z" fill-rule="nonzero"/><path stroke="#000000" stroke-width="2.0" stroke-linecap="butt" stroke-opacity="0.0" clip-path="url(#id_0)" d="M393.0 53.0L321.0 53.0L321.0 40.0L393.0 40.0Z" fill-rule="nonzero"/><path fill="#9fc5e8" clip-path="url(#id_0)" d="M393.0 53.0L321.0 53.0L321.0 40.0L393.0 40.0Z" fill-rule="nonzero"/><path stroke="#000000" stroke-width="2.0" stroke-linecap="butt" stroke-opacity="0.0" clip-path="url(#id_0)" d="M504.0 46.0L432.0 46.0L432.0 39.0L504.0 39.0Z" fill-rule="nonzero"/><path fill="#9fc5e8" clip-path="url(#id_0)" d="M504.0 46.0L432.0 46.0L432.0 39.0L504.0 39.0Z" fill-rule="nonzero"/><path stroke="#000000" stroke-width="2.0" stroke-linecap="butt" stroke-opacity="0.0" clip-path="url(#id_0)" d="M614.0 42.0L542.0 42.0L542.0 36.0L614.0 36.0Z" fill-rule="nonzero"/><path fill="#9fc5e8" clip-path="url(#id_0)" d="M614.0 42.0L542.0 42.0L542.0 36.0L614.0 36.0Z" fill-rule="nonzero"/><path stroke="#000000" stroke-width="2.0" stroke-linecap="butt" stroke-opacity="0.0" clip-path="url(#id_0)" d="M172.0 47.0L100.0 47.0L100.0 32.0C100.0 30.89543 100.89543 30.0 102.0 30.0L170.0 30.0C171.10457 30.0 172.0 30.89543 172.0 32.0Z" fill-rule="nonzero"/><path fill="#c9daf8" clip-path="url(#id_0)" d="M172.0 47.0L100.0 47.0L100.0 32.0C100.0 30.89543 100.89543 30.0 102.0 30.0L170.0 30.0C171.10457 30.0 172.0 30.89543 172.0 32.0Z" fill-rule="nonzero"/><path stroke="#000000" stroke-width="2.0" stroke-linecap="butt" stroke-opacity="0.0" clip-path="url(#id_0)" d="M282.0 47.0L210.0 47.0L210.0 32.0C210.0 30.89543 210.89543 30.0 212.0 30.0L280.0 30.0C281.10458 30.0 282.0 30.89543 282.0 32.0Z" fill-rule="nonzero"/><path fill="#c9daf8" clip-path="url(#id_0)" d="M282.0 47.0L210.0 47.0L210.0 32.0C210.0 30.89543 210.89543 30.0 212.0 30.0L280.0 30.0C281.10458 30.0 282.0 30.89543 282.0 32.0Z" fill-rule="nonzero"/><path stroke="#000000" stroke-width="2.0" stroke-linecap="butt" stroke-opacity="0.0" clip-path="url(#id_0)" d="M393.0 40.0L321.0 40.0L321.0 32.0C321.0 30.89543 321.89542 30.0 323.0 30.0L391.0 30.0C392.10458 30.0 393.0 30.89543 393.0 32.0Z" fill-rule="nonzero"/><path fill="#c9daf8" clip-path="url(#id_0)" d="M393.0 40.0L321.0 40.0L321.0 32.0C321.0 30.89543 321.89542 30.0 323.0 30.0L391.0 30.0C392.10458 30.0 393.0 30.89543 393.0 32.0Z" fill-rule="nonzero"/><path stroke="#000000" stroke-width="2.0" stroke-linecap="butt" stroke-opacity="0.0" clip-path="url(#id_0)" d="M504.0 39.0L432.0 39.0L432.0 32.0C432.0 30.89543 432.89542 30.0 434.0 30.0L502.0 30.0C503.10458 30.0 504.0 30.89543 504.0 32.0Z" fill-rule="nonzero"/><path fill="#c9daf8" clip-path="url(#id_0)" d="M504.0 39.0L432.0 39.0L432.0 32.0C432.0 30.89543 432.89542 30.0 434.0 30.0L502.0 30.0C503.10458 30.0 504.0 30.89543 504.0 32.0Z" fill-rule="nonzero"/><path stroke="#000000" stroke-width="2.0" stroke-linecap="butt" stroke-opacity="0.0" clip-path="url(#id_0)" d="M614.0 36.0L542.0 36.0L542.0 32.0C542.0 30.89543 542.89545 30.0 544.0 30.0L612.0 30.0C613.10455 30.0 614.0 30.89543 614.0 32.0Z" fill-rule="nonzero"/><path fill="#c9daf8" clip-path="url(#id_0)" d="M614.0 36.0L542.0 36.0L542.0 32.0C542.0 30.89543 542.89545 30.0 544.0 30.0L612.0 30.0C613.10455 30.0 614.0 30.89543 614.0 32.0Z" fill-rule="nonzero"/><path fill="#000000" d="M37.55 417.71564Q37.55 416.1844 37.8625 415.2625Q38.175 414.325 38.784374 413.825Q39.409374 413.325 40.346874 413.325Q41.034374 413.325 41.55 413.60626Q42.08125 413.8875 42.425 414.41876Q42.76875 414.9344 42.95625 415.6844Q43.14375 416.4344 43.14375 417.71564Q43.14375 419.23126 42.83125 420.15314Q42.534374 421.075 41.909374 421.59064Q41.3 422.09064 40.346874 422.09064Q39.1125 422.09064 38.39375 421.2Q37.55 420.1375 37.55 417.71564ZM38.628124 417.71564Q38.628124 419.825 39.128124 420.52814Q39.628124 421.23126 40.346874 421.23126Q41.08125 421.23126 41.565624 420.52814Q42.065624 419.825 42.065624 417.71564Q42.065624 415.59064 41.565624 414.90314Q41.08125 414.2 40.33125 414.2Q39.6125 414.2 39.175 414.8094Q38.628124 415.59064 38.628124 417.71564ZM44.753124 415.41876Q44.753124 414.4969 45.20625 413.85626Q45.675 413.21564 46.55 413.21564Q47.3625 413.21564 47.89375 413.79376Q48.425 414.3719 48.425 415.48126Q48.425 416.575 47.878124 417.16876Q47.346874 417.7469 46.565624 417.7469Q45.784374 417.7469 45.26875 417.16876Q44.753124 416.59064 44.753124 415.41876ZM46.58125 413.9344Q46.190624 413.9344 45.925 414.27814Q45.675 414.6219 45.675 415.52814Q45.675 416.35626 45.925 416.7Q46.190624 417.02814 46.58125 417.02814Q46.9875 417.02814 47.2375 416.6844Q47.503124 416.34064 47.503124 415.45Q47.503124 414.60626 47.2375 414.27814Q46.971874 413.9344 46.58125 413.9344ZM46.58125 422.2625L51.284374 413.21564L52.14375 413.21564L47.45625 422.2625L46.58125 422.2625ZM50.3 419.9344Q50.3 419.0125 50.753124 418.3719Q51.221874 417.73126 52.1125 417.73126Q52.925 417.73126 53.45625 418.3094Q53.9875 418.8719 53.9875 419.9969Q53.9875 421.09064 53.440624 421.6844Q52.909374 422.2625 52.1125 422.2625Q51.346874 422.2625 50.815624 421.6844Q50.3 421.10626 50.3 419.9344ZM52.14375 418.45Q51.7375 418.45 51.471874 418.79376Q51.221874 419.1375 51.221874 420.04376Q51.221874 420.85626 51.4875 421.2Q51.753124 421.54376 52.14375 421.54376Q52.534374 421.54376 52.8 421.2Q53.065624 420.85626 53.065624 419.95Q53.065624 419.1219 52.8 418.79376Q52.534374 418.45 52.14375 418.45Z" fill-rule="nonzero"/><path fill="#000000" d="M36.096874 323.95938L36.096874 324.975L30.409374 324.975Q30.409374 324.6 30.534374 324.24063Q30.753124 323.6625 31.221874 323.1Q31.70625 322.5375 32.6125 321.80313Q34.01875 320.64688 34.503124 319.975Q35.003124 319.30313 35.003124 318.70938Q35.003124 318.08438 34.55 317.6625Q34.096874 317.225 33.378124 317.225Q32.6125 317.225 32.159374 317.67813Q31.70625 318.13126 31.690624 318.94376L30.6125 318.83438Q30.721874 317.61563 31.440624 316.99063Q32.175 316.35 33.409374 316.35Q34.64375 316.35 35.3625 317.0375Q36.08125 317.725 36.08125 318.74063Q36.08125 319.25626 35.8625 319.75626Q35.659374 320.24063 35.159374 320.80313Q34.675 321.35 33.55 322.30313Q32.596874 323.1 32.315624 323.39688Q32.05 323.67813 31.878124 323.95938L36.096874 323.95938ZM37.55 322.725L38.659374 322.63126Q38.784374 323.44376 39.221874 323.85Q39.675 324.25626 40.315624 324.25626Q41.065624 324.25626 41.596874 323.67813Q42.128124 323.1 42.128124 322.1625Q42.128124 321.25626 41.6125 320.74063Q41.1125 320.20938 40.284374 320.20938Q39.784374 320.20938 39.3625 320.44376Q38.95625 320.67813 38.721874 321.0375L37.7375 320.9125L38.565624 316.50626L42.846874 316.50626L42.846874 317.50626L39.409374 317.50626L38.95625 319.81876Q39.721874 319.27188 40.565624 319.27188Q41.690624 319.27188 42.45625 320.05313Q43.2375 320.83438 43.2375 322.06876Q43.2375 323.225 42.565624 324.08438Q41.7375 325.11563 40.315624 325.11563Q39.14375 325.11563 38.39375 324.45938Q37.659374 323.80313 37.55 322.725ZM44.753124 318.44376Q44.753124 317.52188 45.20625 316.88126Q45.675 316.24063 46.55 316.24063Q47.3625 316.24063 47.89375 316.81876Q48.425 317.39688 48.425 318.50626Q48.425 319.6 47.878124 320.19376Q47.346874 320.77188 46.565624 320.77188Q45.784374 320.77188 45.26875 320.19376Q44.753124 319.61563 44.753124 318.44376ZM46.58125 316.95938Q46.190624 316.95938 45.925 317.30313Q45.675 317.64688 45.675 318.55313Q45.675 319.38126 45.925 319.725Q46.190624 320.05313 46.58125 320.05313Q46.9875 320.05313 47.2375 319.70938Q47.503124 319.36563 47.503124 318.475Q47.503124 317.63126 47.2375 317.30313Q46.971874 316.95938 46.58125 316.95938ZM46.58125 325.2875L51.284374 316.24063L52.14375 316.24063L47.45625 325.2875L46.58125 325.2875ZM50.3 322.95938Q50.3 322.0375 50.753124 321.39688Q51.221874 320.75626 52.1125 320.75626Q52.925 320.75626 53.45625 321.33438Q53.9875 321.89688 53.9875 323.02188Q53.9875 324.11563 53.440624 324.70938Q52.909374 325.2875 52.1125 325.2875Q51.346874 325.2875 50.815624 324.70938Q50.3 324.13126 50.3 322.95938ZM52.14375 321.475Q51.7375 321.475 51.471874 321.81876Q51.221874 322.1625 51.221874 323.06876Q51.221874 323.88126 51.4875 324.225Q51.753124 324.56876 52.14375 324.56876Q52.534374 324.56876 52.8 324.225Q53.065624 323.88126 53.065624 322.975Q53.065624 322.14688 52.8 321.81876Q52.534374 321.475 52.14375 321.475Z" fill-rule="nonzero"/><path fill="#000000" d="M30.55 225.75L31.659374 225.65625Q31.784374 226.46875 32.221874 226.875Q32.675 227.28125 33.315624 227.28125Q34.065624 227.28125 34.596874 226.70312Q35.128124 226.125 35.128124 225.1875Q35.128124 224.28125 34.6125 223.76562Q34.1125 223.23438 33.284374 223.23438Q32.784374 223.23438 32.3625 223.46875Q31.95625 223.70312 31.721874 224.0625L30.7375 223.9375L31.565624 219.53125L35.846874 219.53125L35.846874 220.53125L32.409374 220.53125L31.95625 222.84375Q32.721874 222.29688 33.565624 222.29688Q34.690624 222.29688 35.45625 223.07812Q36.2375 223.85938 36.2375 225.09375Q36.2375 226.25 35.565624 227.10938Q34.7375 228.14062 33.315624 228.14062Q32.14375 228.14062 31.39375 227.48438Q30.659374 226.82812 30.55 225.75ZM37.55 223.76562Q37.55 222.23438 37.8625 221.3125Q38.175 220.375 38.784374 219.875Q39.409374 219.375 40.346874 219.375Q41.034374 219.375 41.55 219.65625Q42.08125 219.9375 42.425 220.46875Q42.76875 220.98438 42.95625 221.73438Q43.14375 222.48438 43.14375 223.76562Q43.14375 225.28125 42.83125 226.20312Q42.534374 227.125 41.909374 227.64062Q41.3 228.14062 40.346874 228.14062Q39.1125 228.14062 38.39375 227.25Q37.55 226.1875 37.55 223.76562ZM38.628124 223.76562Q38.628124 225.875 39.128124 226.57812Q39.628124 227.28125 40.346874 227.28125Q41.08125 227.28125 41.565624 226.57812Q42.065624 225.875 42.065624 223.76562Q42.065624 221.64062 41.565624 220.95312Q41.08125 220.25 40.33125 220.25Q39.6125 220.25 39.175 220.85938Q38.628124 221.64062 38.628124 223.76562ZM44.753124 221.46875Q44.753124 220.54688 45.20625 219.90625Q45.675 219.26562 46.55 219.26562Q47.3625 219.26562 47.89375 219.84375Q48.425 220.42188 48.425 221.53125Q48.425 222.625 47.878124 223.21875Q47.346874 223.79688 46.565624 223.79688Q45.784374 223.79688 45.26875 223.21875Q44.753124 222.64062 44.753124 221.46875ZM46.58125 219.98438Q46.190624 219.98438 45.925 220.32812Q45.675 220.67188 45.675 221.57812Q45.675 222.40625 45.925 222.75Q46.190624 223.07812 46.58125 223.07812Q46.9875 223.07812 47.2375 222.73438Q47.503124 222.39062 47.503124 221.5Q47.503124 220.65625 47.2375 220.32812Q46.971874 219.98438 46.58125 219.98438ZM46.58125 228.3125L51.284374 219.26562L52.14375 219.26562L47.45625 228.3125L46.58125 228.3125ZM50.3 225.98438Q50.3 225.0625 50.753124 224.42188Q51.221874 223.78125 52.1125 223.78125Q52.925 223.78125 53.45625 224.35938Q53.9875 224.92188 53.9875 226.04688Q53.9875 227.14062 53.440624 227.73438Q52.909374 228.3125 52.1125 228.3125Q51.346874 228.3125 50.815624 227.73438Q50.3 227.15625 50.3 225.98438ZM52.14375 224.5Q51.7375 224.5 51.471874 224.84375Q51.221874 225.1875 51.221874 226.09375Q51.221874 226.90625 51.4875 227.25Q51.753124 227.59375 52.14375 227.59375Q52.534374 227.59375 52.8 227.25Q53.065624 226.90625 53.065624 226.0Q53.065624 225.17188 52.8 224.84375Q52.534374 224.5 52.14375 224.5Z" fill-rule="nonzero"/><path fill="#000000" d="M30.6125 123.556244L30.6125 122.54062L36.175 122.54062L36.175 123.368744Q35.3625 124.243744 34.55 125.69687Q33.753124 127.13437 33.315624 128.66562Q32.9875 129.74374 32.909374 131.025L31.815624 131.025Q31.83125 130.00937 32.20625 128.57187Q32.596874 127.13437 33.3 125.806244Q34.01875 124.47812 34.83125 123.556244L30.6125 123.556244ZM37.55 128.775L38.659374 128.68124Q38.784374 129.49374 39.221874 129.9Q39.675 130.30624 40.315624 130.30624Q41.065624 130.30624 41.596874 129.72812Q42.128124 129.15 42.128124 128.2125Q42.128124 127.306244 41.6125 126.79062Q41.1125 126.25937 40.284374 126.25937Q39.784374 126.25937 39.3625 126.493744Q38.95625 126.72812 38.721874 127.087494L37.7375 126.962494L38.565624 122.556244L42.846874 122.556244L42.846874 123.556244L39.409374 123.556244L38.95625 125.868744Q39.721874 125.32187 40.565624 125.32187Q41.690624 125.32187 42.45625 126.10312Q43.2375 126.88437 43.2375 128.11874Q43.2375 129.275 42.565624 130.13437Q41.7375 131.16562 40.315624 131.16562Q39.14375 131.16562 38.39375 130.50937Q37.659374 129.85312 37.55 128.775ZM44.753124 124.493744Q44.753124 123.57187 45.20625 122.931244Q45.675 122.29062 46.55 122.29062Q47.3625 122.29062 47.89375 122.868744Q48.425 123.44687 48.425 124.556244Q48.425 125.649994 47.878124 126.243744Q47.346874 126.82187 46.565624 126.82187Q45.784374 126.82187 45.26875 126.243744Q44.753124 125.66562 44.753124 124.493744ZM46.58125 123.00937Q46.190624 123.00937 45.925 123.35312Q45.675 123.69687 45.675 124.60312Q45.675 125.431244 45.925 125.774994Q46.190624 126.10312 46.58125 126.10312Q46.9875 126.10312 47.2375 125.75937Q47.503124 125.41562 47.503124 124.524994Q47.503124 123.681244 47.2375 123.35312Q46.971874 123.00937 46.58125 123.00937ZM46.58125 131.3375L51.284374 122.29062L52.14375 122.29062L47.45625 131.3375L46.58125 131.3375ZM50.3 129.00937Q50.3 128.0875 50.753124 127.44687Q51.221874 126.806244 52.1125 126.806244Q52.925 126.806244 53.45625 127.38437Q53.9875 127.94687 53.9875 129.07187Q53.9875 130.16562 53.440624 130.75937Q52.909374 131.3375 52.1125 131.3375Q51.346874 131.3375 50.815624 130.75937Q50.3 130.18124 50.3 129.00937ZM52.14375 127.524994Q51.7375 127.524994 51.471874 127.868744Q51.221874 128.2125 51.221874 129.11874Q51.221874 129.93124 51.4875 130.275Q51.753124 130.61874 52.14375 130.61874Q52.534374 130.61874 52.8 130.275Q53.065624 129.93124 53.065624 129.025Q53.065624 128.19687 52.8 127.868744Q52.534374 127.524994 52.14375 127.524994Z" fill-rule="nonzero"/><path fill="#000000" d="M27.51875 34.05L26.471874 34.05L26.471874 27.33125Q26.08125 27.690624 25.45625 28.065624Q24.846874 28.425 24.3625 28.596874L24.3625 27.58125Q25.2375 27.159374 25.89375 26.58125Q26.565624 25.9875 26.846874 25.425L27.51875 25.425L27.51875 34.05ZM30.55 29.815624Q30.55 28.284374 30.8625 27.3625Q31.175 26.425 31.784374 25.925Q32.409374 25.425 33.346874 25.425Q34.034374 25.425 34.55 25.70625Q35.08125 25.9875 35.425 26.51875Q35.76875 27.034374 35.95625 27.784374Q36.14375 28.534374 36.14375 29.815624Q36.14375 31.33125 35.83125 32.253124Q35.534374 33.175 34.909374 33.690624Q34.3 34.190624 33.346874 34.190624Q32.1125 34.190624 31.39375 33.3Q30.55 32.2375 30.55 29.815624ZM31.628124 29.815624Q31.628124 31.925 32.128124 32.628124Q32.628124 33.33125 33.346874 33.33125Q34.08125 33.33125 34.565624 32.628124Q35.065624 31.925 35.065624 29.815624Q35.065624 27.690624 34.565624 27.003124Q34.08125 26.3 33.33125 26.3Q32.6125 26.3 32.175 26.909374Q31.628124 27.690624 31.628124 29.815624ZM37.55 29.815624Q37.55 28.284374 37.8625 27.3625Q38.175 26.425 38.784374 25.925Q39.409374 25.425 40.346874 25.425Q41.034374 25.425 41.55 25.70625Q42.08125 25.9875 42.425 26.51875Q42.76875 27.034374 42.95625 27.784374Q43.14375 28.534374 43.14375 29.815624Q43.14375 31.33125 42.83125 32.253124Q42.534374 33.175 41.909374 33.690624Q41.3 34.190624 40.346874 34.190624Q39.1125 34.190624 38.39375 33.3Q37.55 32.2375 37.55 29.815624ZM38.628124 29.815624Q38.628124 31.925 39.128124 32.628124Q39.628124 33.33125 40.346874 33.33125Q41.08125 33.33125 41.565624 32.628124Q42.065624 31.925 42.065624 29.815624Q42.065624 27.690624 41.565624 27.003124Q41.08125 26.3 40.33125 26.3Q39.6125 26.3 39.175 26.909374Q38.628124 27.690624 38.628124 29.815624ZM44.753124 27.51875Q44.753124 26.596874 45.20625 25.95625Q45.675 25.315624 46.55 25.315624Q47.3625 25.315624 47.89375 25.89375Q48.425 26.471874 48.425 27.58125Q48.425 28.675 47.878124 29.26875Q47.346874 29.846874 46.565624 29.846874Q45.784374 29.846874 45.26875 29.26875Q44.753124 28.690624 44.753124 27.51875ZM46.58125 26.034374Q46.190624 26.034374 45.925 26.378124Q45.675 26.721874 45.675 27.628124Q45.675 28.45625 45.925 28.8Q46.190624 29.128124 46.58125 29.128124Q46.9875 29.128124 47.2375 28.784374Q47.503124 28.440624 47.503124 27.55Q47.503124 26.70625 47.2375 26.378124Q46.971874 26.034374 46.58125 26.034374ZM46.58125 34.3625L51.284374 25.315624L52.14375 25.315624L47.45625 34.3625L46.58125 34.3625ZM50.3 32.034374Q50.3 31.1125 50.753124 30.471874Q51.221874 29.83125 52.1125 29.83125Q52.925 29.83125 53.45625 30.409374Q53.9875 30.971874 53.9875 32.096874Q53.9875 33.190624 53.440624 33.784374Q52.909374 34.3625 52.1125 34.3625Q51.346874 34.3625 50.815624 33.784374Q50.3 33.20625 50.3 32.034374ZM52.14375 30.55Q51.7375 30.55 51.471874 30.89375Q51.221874 31.2375 51.221874 32.14375Q51.221874 32.95625 51.4875 33.3Q51.753124 33.64375 52.14375 33.64375Q52.534374 33.64375 52.8 33.3Q53.065624 32.95625 53.065624 32.05Q53.065624 31.221874 52.8 30.89375Q52.534374 30.55 52.14375 30.55Z" fill-rule="nonzero"/><path fill="#000000" d="M97.57398 432.5125L98.60523 432.3719Q98.63648 433.35626 98.96461 433.71564Q99.29273 434.075 99.88648 434.075Q100.30836 434.075 100.62086 433.8875Q100.93336 433.6844 101.04273 433.35626Q101.16773 433.0125 101.16773 432.27814L101.16773 426.35626L102.29273 426.35626L102.29273 432.21564Q102.29273 433.29376 102.02711 433.8875Q101.77711 434.48126 101.21461 434.79376Q100.65211 435.09064 99.88648 435.09064Q98.76148 435.09064 98.15211 434.45Q97.55836 433.79376 97.57398 432.5125ZM108.08961 434.1844Q107.49586 434.6844 106.94898 434.8875Q106.41773 435.09064 105.79273 435.09064Q104.76148 435.09064 104.21461 434.59064Q103.66773 434.09064 103.66773 433.3094Q103.66773 432.85626 103.87086 432.48126Q104.07398 432.09064 104.41773 431.8719Q104.76148 431.6375 105.18336 431.52814Q105.48023 431.4344 106.12086 431.35626Q107.38648 431.21564 107.99586 430.9969Q107.99586 430.77814 107.99586 430.73126Q107.99586 430.075 107.69898 429.8094Q107.29273 429.46564 106.49586 429.46564Q105.76148 429.46564 105.40211 429.73126Q105.04273 429.98126 104.87086 430.6375L103.83961 430.4969Q103.98023 429.84064 104.30836 429.4344Q104.63648 429.02814 105.24586 428.8094Q105.85523 428.59064 106.65211 428.59064Q107.44898 428.59064 107.94898 428.77814Q108.44898 428.96564 108.68336 429.2469Q108.91773 429.52814 109.01148 429.96564Q109.05836 430.23126 109.05836 430.9344L109.05836 432.34064Q109.05836 433.8094 109.12086 434.2Q109.19898 434.59064 109.40211 434.95L108.29273 434.95Q108.13648 434.6219 108.08961 434.1844ZM107.99586 431.825Q107.41773 432.0594 106.27711 432.23126Q105.62086 432.325 105.35523 432.45Q105.08961 432.5594 104.93336 432.77814Q104.79273 432.9969 104.79273 433.27814Q104.79273 433.7 105.10523 433.98126Q105.43336 434.2625 106.04273 434.2625Q106.65211 434.2625 107.12086 433.9969Q107.60523 433.73126 107.82398 433.2625Q107.99586 432.90314 107.99586 432.21564L107.99586 431.825ZM111.02711 434.95L111.02711 428.73126L111.96461 428.73126L111.96461 429.60626Q112.65211 428.59064 113.94898 428.59064Q114.51148 428.59064 114.98023 428.79376Q115.46461 428.9969 115.69898 429.325Q115.93336 429.65314 116.02711 430.09064Q116.07398 430.3875 116.07398 431.1219L116.07398 434.95L115.02711 434.95L115.02711 431.16876Q115.02711 430.5125 114.90211 430.2Q114.77711 429.8875 114.46461 429.7Q114.15211 429.4969 113.73023 429.4969Q113.05836 429.4969 112.55836 429.9344Q112.07398 430.35626 112.07398 431.54376L112.07398 434.95L111.02711 434.95ZM122.10523 434.95L122.10523 434.02814Q121.37086 435.09064 120.12086 435.09064Q119.57398 435.09064 119.08961 434.8875Q118.62086 434.66876 118.38648 434.35626Q118.15211 434.02814 118.05836 433.5594Q117.99586 433.2625 117.99586 432.575L117.99586 428.73126L119.05836 428.73126L119.05836 432.1844Q119.05836 432.9969 119.12086 433.29376Q119.21461 433.7 119.52711 433.95Q119.85523 434.1844 120.33961 434.1844Q120.80836 434.1844 121.21461 433.95Q121.63648 433.7 121.80836 433.27814Q121.99586 432.85626 121.99586 432.0594L121.99586 428.73126L123.04273 428.73126L123.04273 434.95L122.10523 434.95ZM129.0896 434.1844Q128.49585 434.6844 127.94898 434.8875Q127.41773 435.09064 126.79273 435.09064Q125.76148 435.09064 125.21461 434.59064Q124.66773 434.09064 124.66773 433.3094Q124.66773 432.85626 124.87086 432.48126Q125.07398 432.09064 125.41773 431.8719Q125.76148 431.6375 126.18336 431.52814Q126.48023 431.4344 127.12086 431.35626Q128.38647 431.21564 128.99585 430.9969Q128.99585 430.77814 128.99585 430.73126Q128.99585 430.075 128.69897 429.8094Q128.29272 429.46564 127.49586 429.46564Q126.76148 429.46564 126.40211 429.73126Q126.04273 429.98126 125.87086 430.6375L124.83961 430.4969Q124.98023 429.84064 125.30836 429.4344Q125.63648 429.02814 126.24586 428.8094Q126.85523 428.59064 127.65211 428.59064Q128.44897 428.59064 128.94897 428.77814Q129.44897 428.96564 129.68335 429.2469Q129.91772 429.52814 130.01147 429.96564Q130.05835 430.23126 130.05835 430.9344L130.05835 432.34064Q130.05835 433.8094 130.12085 434.2Q130.19897 434.59064 130.4021 434.95L129.29272 434.95Q129.13647 434.6219 129.0896 434.1844ZM128.99585 431.825Q128.41772 432.0594 127.27711 432.23126Q126.62086 432.325 126.35523 432.45Q126.08961 432.5594 125.93336 432.77814Q125.79273 432.9969 125.79273 433.27814Q125.79273 433.7 126.10523 433.98126Q126.43336 434.2625 127.04273 434.2625Q127.65211 434.2625 128.12085 433.9969Q128.60522 433.73126 128.82397 433.2625Q128.99585 432.90314 128.99585 432.21564L128.99585 431.825ZM132.01147 434.95L132.01147 428.73126L132.9646 428.73126L132.9646 429.66876Q133.32397 429.0125 133.62085 428.8094Q133.93335 428.59064 134.30835 428.59064Q134.8396 428.59064 135.38647 428.91876L135.0271 429.90314Q134.63647 429.66876 134.26147 429.66876Q133.9021 429.66876 133.62085 429.8875Q133.35522 430.09064 133.24585 430.46564Q133.05835 431.02814 133.05835 431.6844L133.05835 434.95L132.01147 434.95ZM135.98022 437.34064L135.85522 436.35626Q136.19897 436.45 136.4646 436.45Q136.80835 436.45 137.01147 436.325Q137.23022 436.21564 137.37085 436.0125Q137.4646 435.84064 137.69897 435.21564Q137.7146 435.1375 137.79272 434.96564L135.41772 428.73126L136.55835 428.73126L137.85522 432.325Q138.10522 433.0125 138.30835 433.77814Q138.49585 433.04376 138.74585 432.35626L140.07397 428.73126L141.12085 428.73126L138.76147 435.0594Q138.37085 436.075 138.16772 436.46564Q137.88647 436.9969 137.51147 437.23126Q137.1521 437.48126 136.6521 437.48126Q136.35522 437.48126 135.98022 437.34064ZM141.29272 434.95L141.29272 433.7469L142.49585 433.7469L142.49585 434.95Q142.49585 435.60626 142.26147 436.0125Q142.0271 436.4344 141.5271 436.65314L141.23022 436.2Q141.55835 436.0594 141.7146 435.7625Q141.87085 435.48126 141.9021 434.95L141.29272 434.95ZM152.2771 433.9344L152.2771 434.95L146.5896 434.95Q146.5896 434.575 146.7146 434.21564Q146.93335 433.6375 147.4021 433.075Q147.88647 432.5125 148.79272 431.77814Q150.19897 430.6219 150.68335 429.95Q151.18335 429.27814 151.18335 428.6844Q151.18335 428.0594 150.73022 427.6375Q150.2771 427.2 149.55835 427.2Q148.79272 427.2 148.3396 427.65314Q147.88647 428.10626 147.87085 428.91876L146.79272 428.8094Q146.9021 427.59064 147.62085 426.96564Q148.35522 426.325 149.5896 426.325Q150.82397 426.325 151.54272 427.0125Q152.26147 427.7 152.26147 428.71564Q152.26147 429.23126 152.04272 429.73126Q151.8396 430.21564 151.3396 430.77814Q150.85522 431.325 149.73022 432.27814Q148.7771 433.075 148.49585 433.3719Q148.23022 433.65314 148.05835 433.9344L152.2771 433.9344ZM153.73022 430.71564Q153.73022 429.1844 154.04272 428.2625Q154.35522 427.325 154.9646 426.825Q155.5896 426.325 156.5271 426.325Q157.2146 426.325 157.73022 426.60626Q158.26147 426.8875 158.60522 427.41876Q158.94897 427.9344 159.13647 428.6844Q159.32397 429.4344 159.32397 430.71564Q159.32397 432.23126 159.01147 433.15314Q158.7146 434.075 158.0896 434.59064Q157.48022 435.09064 156.5271 435.09064Q155.29272 435.09064 154.57397 434.2Q153.73022 433.1375 153.73022 430.71564ZM154.80835 430.71564Q154.80835 432.825 155.30835 433.52814Q155.80835 434.23126 156.5271 434.23126Q157.26147 434.23126 157.74585 433.52814Q158.24585 432.825 158.24585 430.71564Q158.24585 428.59064 157.74585 427.90314Q157.26147 427.2 156.51147 427.2Q155.79272 427.2 155.35522 427.8094Q154.80835 428.59064 154.80835 430.71564ZM166.2771 433.9344L166.2771 434.95L160.5896 434.95Q160.5896 434.575 160.7146 434.21564Q160.93335 433.6375 161.4021 433.075Q161.88647 432.5125 162.79272 431.77814Q164.19897 430.6219 164.68335 429.95Q165.18335 429.27814 165.18335 428.6844Q165.18335 428.0594 164.73022 427.6375Q164.2771 427.2 163.55835 427.2Q162.79272 427.2 162.3396 427.65314Q161.88647 428.10626 161.87085 428.91876L160.79272 428.8094Q160.9021 427.59064 161.62085 426.96564Q162.35522 426.325 163.5896 426.325Q164.82397 426.325 165.54272 427.0125Q166.26147 427.7 166.26147 428.71564Q166.26147 429.23126 166.04272 429.73126Q165.8396 430.21564 165.3396 430.77814Q164.85522 431.325 163.73022 432.27814Q162.7771 433.075 162.49585 433.3719Q162.23022 433.65314 162.05835 433.9344L166.2771 433.9344ZM167.73022 432.6844L168.79272 432.54376Q168.9646 433.4344 169.4021 433.84064Q169.8396 434.23126 170.4646 434.23126Q171.2146 434.23126 171.73022 433.71564Q172.24585 433.2 172.24585 432.4344Q172.24585 431.71564 171.76147 431.2469Q171.29272 430.7625 170.55835 430.7625Q170.26147 430.7625 169.80835 430.8875L169.93335 429.95Q170.04272 429.96564 170.10522 429.96564Q170.7771 429.96564 171.30835 429.6219Q171.85522 429.2625 171.85522 428.52814Q171.85522 427.95 171.4646 427.575Q171.07397 427.1844 170.44897 427.1844Q169.8396 427.1844 169.41772 427.575Q169.01147 427.96564 168.9021 428.73126L167.8396 428.54376Q168.0271 427.4969 168.7146 426.91876Q169.4021 426.325 170.41772 426.325Q171.12085 426.325 171.7146 426.6375Q172.30835 426.9344 172.62085 427.45Q172.93335 427.96564 172.93335 428.5594Q172.93335 429.10626 172.63647 429.575Q172.3396 430.02814 171.76147 430.29376Q172.51147 430.46564 172.93335 431.02814Q173.35522 431.575 173.35522 432.41876Q173.35522 433.54376 172.5271 434.325Q171.7146 435.10626 170.4646 435.10626Q169.3396 435.10626 168.5896 434.4344Q167.8396 433.7469 167.73022 432.6844Z" fill-rule="nonzero"/><path fill="#000000" d="M219.21136 432.5125L220.24261 432.3719Q220.27386 433.35626 220.60199 433.71564Q220.93011 434.075 221.52386 434.075Q221.94574 434.075 222.25824 433.8875Q222.57074 433.6844 222.68011 433.35626Q222.80511 433.0125 222.80511 432.27814L222.80511 426.35626L223.93011 426.35626L223.93011 432.21564Q223.93011 433.29376 223.66449 433.8875Q223.41449 434.48126 222.85199 434.79376Q222.28949 435.09064 221.52386 435.09064Q220.39886 435.09064 219.78949 434.45Q219.19574 433.79376 219.21136 432.5125ZM229.74261 434.95L229.74261 434.02814Q229.00824 435.09064 227.75824 435.09064Q227.21136 435.09064 226.72699 434.8875Q226.25824 434.66876 226.02386 434.35626Q225.78949 434.02814 225.69574 433.5594Q225.63324 433.2625 225.63324 432.575L225.63324 428.73126L226.69574 428.73126L226.69574 432.1844Q226.69574 432.9969 226.75824 433.29376Q226.85199 433.7 227.16449 433.95Q227.49261 434.1844 227.97699 434.1844Q228.44574 434.1844 228.85199 433.95Q229.27386 433.7 229.44574 433.27814Q229.63324 432.85626 229.63324 432.0594L229.63324 428.73126L230.68011 428.73126L230.68011 434.95L229.74261 434.95ZM232.63324 434.95L232.63324 426.35626L233.69574 426.35626L233.69574 434.95L232.63324 434.95ZM235.61761 437.34064L235.49261 436.35626Q235.83636 436.45 236.10199 436.45Q236.44574 436.45 236.64886 436.325Q236.86761 436.21564 237.00824 436.0125Q237.10199 435.84064 237.33636 435.21564Q237.35199 435.1375 237.43011 434.96564L235.05511 428.73126L236.19574 428.73126L237.49261 432.325Q237.74261 433.0125 237.94574 433.77814Q238.13324 433.04376 238.38324 432.35626L239.71136 428.73126L240.75824 428.73126L238.39886 435.0594Q238.00824 436.075 237.80511 436.46564Q237.52386 436.9969 237.14886 437.23126Q236.78949 437.48126 236.28949 437.48126Q235.99261 437.48126 235.61761 437.34064ZM240.93011 434.95L240.93011 433.7469L242.13324 433.7469L242.13324 434.95Q242.13324 435.60626 241.89886 436.0125Q241.66449 436.4344 241.16449 436.65314L240.86761 436.2Q241.19574 436.0594 241.35199 435.7625Q241.50824 435.48126 241.53949 434.95L240.93011 434.95ZM251.91449 433.9344L251.91449 434.95L246.22699 434.95Q246.22699 434.575 246.35199 434.21564Q246.57074 433.6375 247.03949 433.075Q247.52386 432.5125 248.43011 431.77814Q249.83636 430.6219 250.32074 429.95Q250.82074 429.27814 250.82074 428.6844Q250.82074 428.0594 250.36761 427.6375Q249.91449 427.2 249.19574 427.2Q248.43011 427.2 247.97699 427.65314Q247.52386 428.10626 247.50824 428.91876L246.43011 428.8094Q246.53949 427.59064 247.25824 426.96564Q247.99261 426.325 249.22699 426.325Q250.46136 426.325 251.18011 427.0125Q251.89886 427.7 251.89886 428.71564Q251.89886 429.23126 251.68011 429.73126Q251.47699 430.21564 250.97699 430.77814Q250.49261 431.325 249.36761 432.27814Q248.41449 433.075 248.13324 433.3719Q247.86761 433.65314 247.69574 433.9344L251.91449 433.9344ZM253.36761 430.71564Q253.36761 429.1844 253.68011 428.2625Q253.99261 427.325 254.60199 426.825Q255.22699 426.325 256.1645 426.325Q256.852 426.325 257.3676 426.60626Q257.89886 426.8875 258.2426 427.41876Q258.58636 427.9344 258.77386 428.6844Q258.96136 429.4344 258.96136 430.71564Q258.96136 432.23126 258.64886 433.15314Q258.352 434.075 257.727 434.59064Q257.1176 435.09064 256.1645 435.09064Q254.93011 435.09064 254.21136 434.2Q253.36761 433.1375 253.36761 430.71564ZM254.44574 430.71564Q254.44574 432.825 254.94574 433.52814Q255.44574 434.23126 256.1645 434.23126Q256.89886 434.23126 257.38324 433.52814Q257.88324 432.825 257.88324 430.71564Q257.88324 428.59064 257.38324 427.90314Q256.89886 427.2 256.14886 427.2Q255.43011 427.2 254.99261 427.8094Q254.44574 428.59064 254.44574 430.71564ZM265.9145 433.9344L265.9145 434.95L260.227 434.95Q260.227 434.575 260.352 434.21564Q260.57074 433.6375 261.0395 433.075Q261.52386 432.5125 262.4301 431.77814Q263.83636 430.6219 264.32074 429.95Q264.82074 429.27814 264.82074 428.6844Q264.82074 428.0594 264.3676 427.6375Q263.9145 427.2 263.19574 427.2Q262.4301 427.2 261.977 427.65314Q261.52386 428.10626 261.50824 428.91876L260.4301 428.8094Q260.5395 427.59064 261.25824 426.96564Q261.9926 426.325 263.227 426.325Q264.46136 426.325 265.1801 427.0125Q265.89886 427.7 265.89886 428.71564Q265.89886 429.23126 265.6801 429.73126Q265.477 430.21564 264.977 430.77814Q264.4926 431.325 263.3676 432.27814Q262.4145 433.075 262.13324 433.3719Q261.8676 433.65314 261.69574 433.9344L265.9145 433.9344ZM267.3676 432.6844L268.4301 432.54376Q268.602 433.4344 269.0395 433.84064Q269.477 434.23126 270.102 434.23126Q270.852 434.23126 271.3676 433.71564Q271.88324 433.2 271.88324 432.4344Q271.88324 431.71564 271.39886 431.2469Q270.9301 430.7625 270.19574 430.7625Q269.89886 430.7625 269.44574 430.8875L269.57074 429.95Q269.6801 429.96564 269.7426 429.96564Q270.4145 429.96564 270.94574 429.6219Q271.4926 429.2625 271.4926 428.52814Q271.4926 427.95 271.102 427.575Q270.71136 427.1844 270.08636 427.1844Q269.477 427.1844 269.0551 427.575Q268.64886 427.96564 268.5395 428.73126L267.477 428.54376Q267.6645 427.4969 268.352 426.91876Q269.0395 426.325 270.0551 426.325Q270.75824 426.325 271.352 426.6375Q271.94574 426.9344 272.25824 427.45Q272.57074 427.96564 272.57074 428.5594Q272.57074 429.10626 272.27386 429.575Q271.977 430.02814 271.39886 430.29376Q272.14886 430.46564 272.57074 431.02814Q272.9926 431.575 272.9926 432.41876Q272.9926 433.54376 272.1645 434.325Q271.352 435.10626 270.102 435.10626Q268.977 435.10626 268.227 434.4344Q267.477 433.7469 267.3676 432.6844Z" fill-rule="nonzero"/><path fill="#000000" d="M318.84875 432.5125L319.88 432.3719Q319.91125 433.35626 320.23938 433.71564Q320.5675 434.075 321.16125 434.075Q321.58313 434.075 321.89563 433.8875Q322.20813 433.6844 322.3175 433.35626Q322.4425 433.0125 322.4425 432.27814L322.4425 426.35626L323.5675 426.35626L323.5675 432.21564Q323.5675 433.29376 323.30188 433.8875Q323.05188 434.48126 322.48938 434.79376Q321.92688 435.09064 321.16125 435.09064Q320.03625 435.09064 319.42688 434.45Q318.83313 433.79376 318.84875 432.5125ZM329.36438 434.1844Q328.77063 434.6844 328.22375 434.8875Q327.6925 435.09064 327.0675 435.09064Q326.03625 435.09064 325.48938 434.59064Q324.9425 434.09064 324.9425 433.3094Q324.9425 432.85626 325.14563 432.48126Q325.34875 432.09064 325.6925 431.8719Q326.03625 431.6375 326.45813 431.52814Q326.755 431.4344 327.39563 431.35626Q328.66125 431.21564 329.27063 430.9969Q329.27063 430.77814 329.27063 430.73126Q329.27063 430.075 328.97375 429.8094Q328.5675 429.46564 327.77063 429.46564Q327.03625 429.46564 326.67688 429.73126Q326.3175 429.98126 326.14563 430.6375L325.11438 430.4969Q325.255 429.84064 325.58313 429.4344Q325.91125 429.02814 326.52063 428.8094Q327.13 428.59064 327.92688 428.59064Q328.72375 428.59064 329.22375 428.77814Q329.72375 428.96564 329.95813 429.2469Q330.1925 429.52814 330.28625 429.96564Q330.33313 430.23126 330.33313 430.9344L330.33313 432.34064Q330.33313 433.8094 330.39563 434.2Q330.47375 434.59064 330.67688 434.95L329.5675 434.95Q329.41125 434.6219 329.36438 434.1844ZM329.27063 431.825Q328.6925 432.0594 327.55188 432.23126Q326.89563 432.325 326.63 432.45Q326.36438 432.5594 326.20813 432.77814Q326.0675 432.9969 326.0675 433.27814Q326.0675 433.7 326.38 433.98126Q326.70813 434.2625 327.3175 434.2625Q327.92688 434.2625 328.39563 433.9969Q328.88 433.73126 329.09875 433.2625Q329.27063 432.90314 329.27063 432.21564L329.27063 431.825ZM332.30188 434.95L332.30188 428.73126L333.23938 428.73126L333.23938 429.60626Q333.92688 428.59064 335.22375 428.59064Q335.78625 428.59064 336.255 428.79376Q336.73938 428.9969 336.97375 429.325Q337.20813 429.65314 337.30188 430.09064Q337.34875 430.3875 337.34875 431.1219L337.34875 434.95L336.30188 434.95L336.30188 431.16876Q336.30188 430.5125 336.17688 430.2Q336.05188 429.8875 335.73938 429.7Q335.42688 429.4969 335.005 429.4969Q334.33313 429.4969 333.83313 429.9344Q333.34875 430.35626 333.34875 431.54376L333.34875 434.95L332.30188 434.95ZM343.38 434.95L343.38 434.02814Q342.64563 435.09064 341.39563 435.09064Q340.84875 435.09064 340.36438 434.8875Q339.89563 434.66876 339.66125 434.35626Q339.42688 434.02814 339.33313 433.5594Q339.27063 433.2625 339.27063 432.575L339.27063 428.73126L340.33313 428.73126L340.33313 432.1844Q340.33313 432.9969 340.39563 433.29376Q340.48938 433.7 340.80188 433.95Q341.13 434.1844 341.61438 434.1844Q342.08313 434.1844 342.48938 433.95Q342.91125 433.7 343.08313 433.27814Q343.27063 432.85626 343.27063 432.0594L343.27063 428.73126L344.3175 428.73126L344.3175 434.95L343.38 434.95ZM350.36438 434.1844Q349.77063 434.6844 349.22375 434.8875Q348.6925 435.09064 348.0675 435.09064Q347.03625 435.09064 346.48938 434.59064Q345.9425 434.09064 345.9425 433.3094Q345.9425 432.85626 346.14563 432.48126Q346.34875 432.09064 346.6925 431.8719Q347.03625 431.6375 347.45813 431.52814Q347.755 431.4344 348.39563 431.35626Q349.66125 431.21564 350.27063 430.9969Q350.27063 430.77814 350.27063 430.73126Q350.27063 430.075 349.97375 429.8094Q349.5675 429.46564 348.77063 429.46564Q348.03625 429.46564 347.67688 429.73126Q347.3175 429.98126 347.14563 430.6375L346.11438 430.4969Q346.255 429.84064 346.58313 429.4344Q346.91125 429.02814 347.52063 428.8094Q348.13 428.59064 348.92688 428.59064Q349.72375 428.59064 350.22375 428.77814Q350.72375 428.96564 350.95813 429.2469Q351.1925 429.52814 351.28625 429.96564Q351.33313 430.23126 351.33313 430.9344L351.33313 432.34064Q351.33313 433.8094 351.39563 434.2Q351.47375 434.59064 351.67688 434.95L350.5675 434.95Q350.41125 434.6219 350.36438 434.1844ZM350.27063 431.825Q349.6925 432.0594 348.55188 432.23126Q347.89563 432.325 347.63 432.45Q347.36438 432.5594 347.20813 432.77814Q347.0675 432.9969 347.0675 433.27814Q347.0675 433.7 347.38 433.98126Q347.70813 434.2625 348.3175 434.2625Q348.92688 434.2625 349.39563 433.9969Q349.88 433.73126 350.09875 433.2625Q350.27063 432.90314 350.27063 432.21564L350.27063 431.825ZM353.28625 434.95L353.28625 428.73126L354.23938 428.73126L354.23938 429.66876Q354.59875 429.0125 354.89563 428.8094Q355.20813 428.59064 355.58313 428.59064Q356.11438 428.59064 356.66125 428.91876L356.30188 429.90314Q355.91125 429.66876 355.53625 429.66876Q355.17688 429.66876 354.89563 429.8875Q354.63 430.09064 354.52063 430.46564Q354.33313 431.02814 354.33313 431.6844L354.33313 434.95L353.28625 434.95ZM357.255 437.34064L357.13 436.35626Q357.47375 436.45 357.73938 436.45Q358.08313 436.45 358.28625 436.325Q358.505 436.21564 358.64563 436.0125Q358.73938 435.84064 358.97375 435.21564Q358.98938 435.1375 359.0675 434.96564L356.6925 428.73126L357.83313 428.73126L359.13 432.325Q359.38 433.0125 359.58313 433.77814Q359.77063 433.04376 360.02063 432.35626L361.34875 428.73126L362.39563 428.73126L360.03625 435.0594Q359.64563 436.075 359.4425 436.46564Q359.16125 436.9969 358.78625 437.23126Q358.42688 437.48126 357.92688 437.48126Q357.63 437.48126 357.255 437.34064ZM362.5675 434.95L362.5675 433.7469L363.77063 433.7469L363.77063 434.95Q363.77063 435.60626 363.53625 436.0125Q363.30188 436.4344 362.80188 436.65314L362.505 436.2Q362.83313 436.0594 362.98938 435.7625Q363.14563 435.48126 363.17688 434.95L362.5675 434.95ZM373.55188 433.9344L373.55188 434.95L367.86438 434.95Q367.86438 434.575 367.98938 434.21564Q368.20813 433.6375 368.67688 433.075Q369.16125 432.5125 370.0675 431.77814Q371.47375 430.6219 371.95813 429.95Q372.45813 429.27814 372.45813 428.6844Q372.45813 428.0594 372.005 427.6375Q371.55188 427.2 370.83313 427.2Q370.0675 427.2 369.61438 427.65314Q369.16125 428.10626 369.14563 428.91876L368.0675 428.8094Q368.17688 427.59064 368.89563 426.96564Q369.63 426.325 370.86438 426.325Q372.09875 426.325 372.8175 427.0125Q373.53625 427.7 373.53625 428.71564Q373.53625 429.23126 373.3175 429.73126Q373.11438 430.21564 372.61438 430.77814Q372.13 431.325 371.005 432.27814Q370.05188 433.075 369.77063 433.3719Q369.505 433.65314 369.33313 433.9344L373.55188 433.9344ZM375.005 430.71564Q375.005 429.1844 375.3175 428.2625Q375.63 427.325 376.23938 426.825Q376.86438 426.325 377.80188 426.325Q378.48938 426.325 379.005 426.60626Q379.53625 426.8875 379.88 427.41876Q380.22375 427.9344 380.41125 428.6844Q380.59875 429.4344 380.59875 430.71564Q380.59875 432.23126 380.28625 433.15314Q379.98938 434.075 379.36438 434.59064Q378.755 435.09064 377.80188 435.09064Q376.5675 435.09064 375.84875 434.2Q375.005 433.1375 375.005 430.71564ZM376.08313 430.71564Q376.08313 432.825 376.58313 433.52814Q377.08313 434.23126 377.80188 434.23126Q378.53625 434.23126 379.02063 433.52814Q379.52063 432.825 379.52063 430.71564Q379.52063 428.59064 379.02063 427.90314Q378.53625 427.2 377.78625 427.2Q377.0675 427.2 376.63 427.8094Q376.08313 428.59064 376.08313 430.71564ZM387.55188 433.9344L387.55188 434.95L381.86438 434.95Q381.86438 434.575 381.98938 434.21564Q382.20813 433.6375 382.67688 433.075Q383.16125 432.5125 384.0675 431.77814Q385.47375 430.6219 385.95813 429.95Q386.45813 429.27814 386.45813 428.6844Q386.45813 428.0594 386.005 427.6375Q385.55188 427.2 384.83313 427.2Q384.0675 427.2 383.61438 427.65314Q383.16125 428.10626 383.14563 428.91876L382.0675 428.8094Q382.17688 427.59064 382.89563 426.96564Q383.63 426.325 384.86438 426.325Q386.09875 426.325 386.8175 427.0125Q387.53625 427.7 387.53625 428.71564Q387.53625 429.23126 387.3175 429.73126Q387.11438 430.21564 386.61438 430.77814Q386.13 431.325 385.005 432.27814Q384.05188 433.075 383.77063 433.3719Q383.505 433.65314 383.33313 433.9344L387.55188 433.9344ZM392.38 434.95L392.38 432.8875L388.66125 432.8875L388.66125 431.91876L392.58313 426.35626L393.4425 426.35626L393.4425 431.91876L394.59875 431.91876L394.59875 432.8875L393.4425 432.8875L393.4425 434.95L392.38 434.95ZM392.38 431.91876L392.38 428.0594L389.6925 431.91876L392.38 431.91876Z" fill-rule="nonzero"/><path fill="#000000" d="M440.48615 432.5125L441.5174 432.3719Q441.54865 433.35626 441.87677 433.71564Q442.2049 434.075 442.79865 434.075Q443.22052 434.075 443.53302 433.8875Q443.84552 433.6844 443.9549 433.35626Q444.0799 433.0125 444.0799 432.27814L444.0799 426.35626L445.2049 426.35626L445.2049 432.21564Q445.2049 433.29376 444.93927 433.8875Q444.68927 434.48126 444.12677 434.79376Q443.56427 435.09064 442.79865 435.09064Q441.67365 435.09064 441.06427 434.45Q440.47052 433.79376 440.48615 432.5125ZM451.0174 434.95L451.0174 434.02814Q450.28302 435.09064 449.03302 435.09064Q448.48615 435.09064 448.00177 434.8875Q447.53302 434.66876 447.29865 434.35626Q447.06427 434.02814 446.97052 433.5594Q446.90802 433.2625 446.90802 432.575L446.90802 428.73126L447.97052 428.73126L447.97052 432.1844Q447.97052 432.9969 448.03302 433.29376Q448.12677 433.7 448.43927 433.95Q448.7674 434.1844 449.25177 434.1844Q449.72052 434.1844 450.12677 433.95Q450.54865 433.7 450.72052 433.27814Q450.90802 432.85626 450.90802 432.0594L450.90802 428.73126L451.9549 428.73126L451.9549 434.95L451.0174 434.95ZM453.90802 434.95L453.90802 426.35626L454.97052 426.35626L454.97052 434.95L453.90802 434.95ZM456.8924 437.34064L456.7674 436.35626Q457.11115 436.45 457.37677 436.45Q457.72052 436.45 457.92365 436.325Q458.1424 436.21564 458.28302 436.0125Q458.37677 435.84064 458.61115 435.21564Q458.62677 435.1375 458.7049 434.96564L456.3299 428.73126L457.47052 428.73126L458.7674 432.325Q459.0174 433.0125 459.22052 433.77814Q459.40802 433.04376 459.65802 432.35626L460.98615 428.73126L462.03302 428.73126L459.67365 435.0594Q459.28302 436.075 459.0799 436.46564Q458.79865 436.9969 458.42365 437.23126Q458.06427 437.48126 457.56427 437.48126Q457.2674 437.48126 456.8924 437.34064ZM462.2049 434.95L462.2049 433.7469L463.40802 433.7469L463.40802 434.95Q463.40802 435.60626 463.17365 436.0125Q462.93927 436.4344 462.43927 436.65314L462.1424 436.2Q462.47052 436.0594 462.62677 435.7625Q462.78302 435.48126 462.81427 434.95L462.2049 434.95ZM473.18927 433.9344L473.18927 434.95L467.50177 434.95Q467.50177 434.575 467.62677 434.21564Q467.84552 433.6375 468.31427 433.075Q468.79865 432.5125 469.7049 431.77814Q471.11115 430.6219 471.59552 429.95Q472.09552 429.27814 472.09552 428.6844Q472.09552 428.0594 471.6424 427.6375Q471.18927 427.2 470.47052 427.2Q469.7049 427.2 469.25177 427.65314Q468.79865 428.10626 468.78302 428.91876L467.7049 428.8094Q467.81427 427.59064 468.53302 426.96564Q469.2674 426.325 470.50177 426.325Q471.73615 426.325 472.4549 427.0125Q473.17365 427.7 473.17365 428.71564Q473.17365 429.23126 472.9549 429.73126Q472.75177 430.21564 472.25177 430.77814Q471.7674 431.325 470.6424 432.27814Q469.68927 433.075 469.40802 433.3719Q469.1424 433.65314 468.97052 433.9344L473.18927 433.9344ZM474.6424 430.71564Q474.6424 429.1844 474.9549 428.2625Q475.2674 427.325 475.87677 426.825Q476.50177 426.325 477.43927 426.325Q478.12677 426.325 478.6424 426.60626Q479.17365 426.8875 479.5174 427.41876Q479.86115 427.9344 480.04865 428.6844Q480.23615 429.4344 480.23615 430.71564Q480.23615 432.23126 479.92365 433.15314Q479.62677 434.075 479.00177 434.59064Q478.3924 435.09064 477.43927 435.09064Q476.2049 435.09064 475.48615 434.2Q474.6424 433.1375 474.6424 430.71564ZM475.72052 430.71564Q475.72052 432.825 476.22052 433.52814Q476.72052 434.23126 477.43927 434.23126Q478.17365 434.23126 478.65802 433.52814Q479.15802 432.825 479.15802 430.71564Q479.15802 428.59064 478.65802 427.90314Q478.17365 427.2 477.42365 427.2Q476.7049 427.2 476.2674 427.8094Q475.72052 428.59064 475.72052 430.71564ZM487.18927 433.9344L487.18927 434.95L481.50177 434.95Q481.50177 434.575 481.62677 434.21564Q481.84552 433.6375 482.31427 433.075Q482.79865 432.5125 483.7049 431.77814Q485.11115 430.6219 485.59552 429.95Q486.09552 429.27814 486.09552 428.6844Q486.09552 428.0594 485.6424 427.6375Q485.18927 427.2 484.47052 427.2Q483.7049 427.2 483.25177 427.65314Q482.79865 428.10626 482.78302 428.91876L481.7049 428.8094Q481.81427 427.59064 482.53302 426.96564Q483.2674 426.325 484.50177 426.325Q485.73615 426.325 486.4549 427.0125Q487.17365 427.7 487.17365 428.71564Q487.17365 429.23126 486.9549 429.73126Q486.75177 430.21564 486.25177 430.77814Q485.7674 431.325 484.6424 432.27814Q483.68927 433.075 483.40802 433.3719Q483.1424 433.65314 482.97052 433.9344L487.18927 433.9344ZM492.0174 434.95L492.0174 432.8875L488.29865 432.8875L488.29865 431.91876L492.22052 426.35626L493.0799 426.35626L493.0799 431.91876L494.23615 431.91876L494.23615 432.8875L493.0799 432.8875L493.0799 434.95L492.0174 434.95ZM492.0174 431.91876L492.0174 428.0594L489.3299 431.91876L492.0174 431.91876Z" fill-rule="nonzero"/><path fill="#000000" d="M540.12354 432.5125L541.1548 432.3719Q541.18604 433.35626 541.51416 433.71564Q541.8423 434.075 542.43604 434.075Q542.8579 434.075 543.1704 433.8875Q543.4829 433.6844 543.5923 433.35626Q543.7173 433.0125 543.7173 432.27814L543.7173 426.35626L544.8423 426.35626L544.8423 432.21564Q544.8423 433.29376 544.57666 433.8875Q544.32666 434.48126 543.76416 434.79376Q543.20166 435.09064 542.43604 435.09064Q541.31104 435.09064 540.70166 434.45Q540.1079 433.79376 540.12354 432.5125ZM550.63916 434.1844Q550.0454 434.6844 549.49854 434.8875Q548.9673 435.09064 548.3423 435.09064Q547.31104 435.09064 546.76416 434.59064Q546.2173 434.09064 546.2173 433.3094Q546.2173 432.85626 546.4204 432.48126Q546.62354 432.09064 546.9673 431.8719Q547.31104 431.6375 547.7329 431.52814Q548.0298 431.4344 548.6704 431.35626Q549.93604 431.21564 550.5454 430.9969Q550.5454 430.77814 550.5454 430.73126Q550.5454 430.075 550.24854 429.8094Q549.8423 429.46564 549.0454 429.46564Q548.31104 429.46564 547.95166 429.73126Q547.5923 429.98126 547.4204 430.6375L546.38916 430.4969Q546.5298 429.84064 546.8579 429.4344Q547.18604 429.02814 547.7954 428.8094Q548.4048 428.59064 549.20166 428.59064Q549.99854 428.59064 550.49854 428.77814Q550.99854 428.96564 551.2329 429.2469Q551.4673 429.52814 551.56104 429.96564Q551.6079 430.23126 551.6079 430.9344L551.6079 432.34064Q551.6079 433.8094 551.6704 434.2Q551.74854 434.59064 551.95166 434.95L550.8423 434.95Q550.68604 434.6219 550.63916 434.1844ZM550.5454 431.825Q549.9673 432.0594 548.82666 432.23126Q548.1704 432.325 547.9048 432.45Q547.63916 432.5594 547.4829 432.77814Q547.3423 432.9969 547.3423 433.27814Q547.3423 433.7 547.6548 433.98126Q547.9829 434.2625 548.5923 434.2625Q549.20166 434.2625 549.6704 433.9969Q550.1548 433.73126 550.37354 433.2625Q550.5454 432.90314 550.5454 432.21564L550.5454 431.825ZM553.57666 434.95L553.57666 428.73126L554.51416 428.73126L554.51416 429.60626Q555.20166 428.59064 556.49854 428.59064Q557.06104 428.59064 557.5298 428.79376Q558.01416 428.9969 558.24854 429.325Q558.4829 429.65314 558.57666 430.09064Q558.62354 430.3875 558.62354 431.1219L558.62354 434.95L557.57666 434.95L557.57666 431.16876Q557.57666 430.5125 557.45166 430.2Q557.32666 429.8875 557.01416 429.7Q556.70166 429.4969 556.2798 429.4969Q555.6079 429.4969 555.1079 429.9344Q554.62354 430.35626 554.62354 431.54376L554.62354 434.95L553.57666 434.95ZM564.6548 434.95L564.6548 434.02814Q563.9204 435.09064 562.6704 435.09064Q562.12354 435.09064 561.63916 434.8875Q561.1704 434.66876 560.93604 434.35626Q560.70166 434.02814 560.6079 433.5594Q560.5454 433.2625 560.5454 432.575L560.5454 428.73126L561.6079 428.73126L561.6079 432.1844Q561.6079 432.9969 561.6704 433.29376Q561.76416 433.7 562.07666 433.95Q562.4048 434.1844 562.88916 434.1844Q563.3579 434.1844 563.76416 433.95Q564.18604 433.7 564.3579 433.27814Q564.5454 432.85626 564.5454 432.0594L564.5454 428.73126L565.5923 428.73126L565.5923 434.95L564.6548 434.95ZM571.63916 434.1844Q571.0454 434.6844 570.49854 434.8875Q569.9673 435.09064 569.3423 435.09064Q568.31104 435.09064 567.76416 434.59064Q567.2173 434.09064 567.2173 433.3094Q567.2173 432.85626 567.4204 432.48126Q567.62354 432.09064 567.9673 431.8719Q568.31104 431.6375 568.7329 431.52814Q569.0298 431.4344 569.6704 431.35626Q570.93604 431.21564 571.5454 430.9969Q571.5454 430.77814 571.5454 430.73126Q571.5454 430.075 571.24854 429.8094Q570.8423 429.46564 570.0454 429.46564Q569.31104 429.46564 568.95166 429.73126Q568.5923 429.98126 568.4204 430.6375L567.38916 430.4969Q567.5298 429.84064 567.8579 429.4344Q568.18604 429.02814 568.7954 428.8094Q569.4048 428.59064 570.20166 428.59064Q570.99854 428.59064 571.49854 428.77814Q571.99854 428.96564 572.2329 429.2469Q572.4673 429.52814 572.56104 429.96564Q572.6079 430.23126 572.6079 430.9344L572.6079 432.34064Q572.6079 433.8094 572.6704 434.2Q572.74854 434.59064 572.95166 434.95L571.8423 434.95Q571.68604 434.6219 571.63916 434.1844ZM571.5454 431.825Q570.9673 432.0594 569.82666 432.23126Q569.1704 432.325 568.9048 432.45Q568.63916 432.5594 568.4829 432.77814Q568.3423 432.9969 568.3423 433.27814Q568.3423 433.7 568.6548 433.98126Q568.9829 434.2625 569.5923 434.2625Q570.20166 434.2625 570.6704 433.9969Q571.1548 433.73126 571.37354 433.2625Q571.5454 432.90314 571.5454 432.21564L571.5454 431.825ZM574.56104 434.95L574.56104 428.73126L575.51416 428.73126L575.51416 429.66876Q575.87354 429.0125 576.1704 428.8094Q576.4829 428.59064 576.8579 428.59064Q577.38916 428.59064 577.93604 428.91876L577.57666 429.90314Q577.18604 429.66876 576.81104 429.66876Q576.45166 429.66876 576.1704 429.8875Q575.9048 430.09064 575.7954 430.46564Q575.6079 431.02814 575.6079 431.6844L575.6079 434.95L574.56104 434.95ZM578.5298 437.34064L578.4048 436.35626Q578.74854 436.45 579.01416 436.45Q579.3579 436.45 579.56104 436.325Q579.7798 436.21564 579.9204 436.0125Q580.01416 435.84064 580.24854 435.21564Q580.26416 435.1375 580.3423 434.96564L577.9673 428.73126L579.1079 428.73126L580.4048 432.325Q580.6548 433.0125 580.8579 433.77814Q581.0454 433.04376 581.2954 432.35626L582.62354 428.73126L583.6704 428.73126L581.31104 435.0594Q580.9204 436.075 580.7173 436.46564Q580.43604 436.9969 580.06104 437.23126Q579.70166 437.48126 579.20166 437.48126Q578.9048 437.48126 578.5298 437.34064ZM583.8423 434.95L583.8423 433.7469L585.0454 433.7469L585.0454 434.95Q585.0454 435.60626 584.81104 436.0125Q584.57666 436.4344 584.07666 436.65314L583.7798 436.2Q584.1079 436.0594 584.26416 435.7625Q584.4204 435.48126 584.45166 434.95L583.8423 434.95ZM594.82666 433.9344L594.82666 434.95L589.13916 434.95Q589.13916 434.575 589.26416 434.21564Q589.4829 433.6375 589.95166 433.075Q590.43604 432.5125 591.3423 431.77814Q592.74854 430.6219 593.2329 429.95Q593.7329 429.27814 593.7329 428.6844Q593.7329 428.0594 593.2798 427.6375Q592.82666 427.2 592.1079 427.2Q591.3423 427.2 590.88916 427.65314Q590.43604 428.10626 590.4204 428.91876L589.3423 428.8094Q589.45166 427.59064 590.1704 426.96564Q590.9048 426.325 592.13916 426.325Q593.37354 426.325 594.0923 427.0125Q594.81104 427.7 594.81104 428.71564Q594.81104 429.23126 594.5923 429.73126Q594.38916 430.21564 593.88916 430.77814Q593.4048 431.325 592.2798 432.27814Q591.32666 433.075 591.0454 433.3719Q590.7798 433.65314 590.6079 433.9344L594.82666 433.9344ZM596.2798 430.71564Q596.2798 429.1844 596.5923 428.2625Q596.9048 427.325 597.51416 426.825Q598.13916 426.325 599.07666 426.325Q599.76416 426.325 600.2798 426.60626Q600.81104 426.8875 601.1548 427.41876Q601.49854 427.9344 601.68604 428.6844Q601.87354 429.4344 601.87354 430.71564Q601.87354 432.23126 601.56104 433.15314Q601.26416 434.075 600.63916 434.59064Q600.0298 435.09064 599.07666 435.09064Q597.8423 435.09064 597.12354 434.2Q596.2798 433.1375 596.2798 430.71564ZM597.3579 430.71564Q597.3579 432.825 597.8579 433.52814Q598.3579 434.23126 599.07666 434.23126Q599.81104 434.23126 600.2954 433.52814Q600.7954 432.825 600.7954 430.71564Q600.7954 428.59064 600.2954 427.90314Q599.81104 427.2 599.06104 427.2Q598.3423 427.2 597.9048 427.8094Q597.3579 428.59064 597.3579 430.71564ZM608.82666 433.9344L608.82666 434.95L603.13916 434.95Q603.13916 434.575 603.26416 434.21564Q603.4829 433.6375 603.95166 433.075Q604.43604 432.5125 605.3423 431.77814Q606.74854 430.6219 607.2329 429.95Q607.7329 429.27814 607.7329 428.6844Q607.7329 428.0594 607.2798 427.6375Q606.82666 427.2 606.1079 427.2Q605.3423 427.2 604.88916 427.65314Q604.43604 428.10626 604.4204 428.91876L603.3423 428.8094Q603.45166 427.59064 604.1704 426.96564Q604.9048 426.325 606.13916 426.325Q607.37354 426.325 608.0923 427.0125Q608.81104 427.7 608.81104 428.71564Q608.81104 429.23126 608.5923 429.73126Q608.38916 430.21564 607.88916 430.77814Q607.4048 431.325 606.2798 432.27814Q605.32666 433.075 605.0454 433.3719Q604.7798 433.65314 604.6079 433.9344L608.82666 433.9344ZM610.2798 432.7L611.38916 432.60626Q611.51416 433.41876 611.95166 433.825Q612.4048 434.23126 613.0454 434.23126Q613.7954 434.23126 614.32666 433.65314Q614.8579 433.075 614.8579 432.1375Q614.8579 431.23126 614.3423 430.71564Q613.8423 430.1844 613.01416 430.1844Q612.51416 430.1844 612.0923 430.41876Q611.68604 430.65314 611.45166 431.0125L610.4673 430.8875L611.2954 426.48126L615.57666 426.48126L615.57666 427.48126L612.13916 427.48126L611.68604 429.79376Q612.45166 429.2469 613.2954 429.2469Q614.4204 429.2469 615.18604 430.02814Q615.9673 430.8094 615.9673 432.04376Q615.9673 433.2 615.2954 434.0594Q614.4673 435.09064 613.0454 435.09064Q611.87354 435.09064 611.12354 434.4344Q610.38916 433.77814 610.2798 432.7Z" fill-rule="nonzero"/><path fill="#c9daf8" d="M680.62 25.05C680.62 24.497715 681.0677 24.05 681.62 24.05L691.62 24.05C692.1723 24.05 692.62 24.497715 692.62 25.05L692.62 35.05C692.62 35.602283 692.1723 36.05 691.62 36.05L681.62 36.05C681.0677 36.05 680.62 35.602283 680.62 35.05Z" fill-rule="nonzero"/><path fill="#1a1a1a" d="M701.1825 26.58125L701.1825 25.565624L706.745 25.565624L706.745 26.39375Q705.9325 27.26875 705.12 28.721874Q704.3231 30.159374 703.8856 31.690624Q703.5575 32.76875 703.4794 34.05L702.3856 34.05Q702.40125 33.034374 702.77625 31.596874Q703.1669 30.159374 703.87 28.83125Q704.58875 27.503124 705.40125 26.58125L701.1825 26.58125ZM708.71375 34.05L708.71375 32.846874L709.9169 32.846874L709.9169 34.05L708.71375 34.05ZM716.6669 33.034374L716.6669 34.05L710.9794 34.05Q710.9794 33.675 711.1044 33.315624Q711.3231 32.7375 711.7919 32.175Q712.27625 31.6125 713.1825 30.878124Q714.58875 29.721874 715.0731 29.05Q715.5731 28.378124 715.5731 27.784374Q715.5731 27.159374 715.12 26.7375Q714.6669 26.3 713.9481 26.3Q713.1825 26.3 712.7294 26.753124Q712.27625 27.20625 712.2606 28.01875L711.1825 27.909374Q711.2919 26.690624 712.0106 26.065624Q712.745 25.425 713.9794 25.425Q715.21375 25.425 715.9325 26.1125Q716.65125 26.8 716.65125 27.815624Q716.65125 28.33125 716.4325 28.83125Q716.2294 29.315624 715.7294 29.878124Q715.245 30.425 714.12 31.378124Q713.1669 32.175 712.8856 32.471874Q712.62 32.753124 712.4481 33.034374L716.6669 33.034374Z" fill-rule="nonzero"/><path fill="#9fc5e8" d="M680.62 49.05C680.62 48.497715 681.0677 48.05 681.62 48.05L691.62 48.05C692.1723 48.05 692.62 48.497715 692.62 49.05L692.62 59.05C692.62 59.602283 692.1723 60.05 691.62 60.05L681.62 60.05C681.0677 60.05 680.62 59.602283 680.62 59.05Z" fill-rule="nonzero"/><path fill="#1a1a1a" d="M701.1825 50.58125L701.1825 49.565624L706.745 49.565624L706.745 50.39375Q705.9325 51.26875 705.12 52.721874Q704.3231 54.159374 703.8856 55.690624Q703.5575 56.76875 703.4794 58.05L702.3856 58.05Q702.40125 57.034374 702.77625 55.596874Q703.1669 54.159374 703.87 52.83125Q704.58875 51.503124 705.40125 50.58125L701.1825 50.58125ZM708.71375 58.05L708.71375 56.846874L709.9169 56.846874L709.9169 58.05L708.71375 58.05ZM711.12 55.784374L712.1825 55.64375Q712.3544 56.534374 712.7919 56.940624Q713.2294 57.33125 713.8544 57.33125Q714.6044 57.33125 715.12 56.815624Q715.6356 56.3 715.6356 55.534374Q715.6356 54.815624 715.15125 54.346874Q714.6825 53.8625 713.9481 53.8625Q713.65125 53.8625 713.1981 53.9875L713.3231 53.05Q713.4325 53.065624 713.495 53.065624Q714.1669 53.065624 714.6981 52.721874Q715.245 52.3625 715.245 51.628124Q715.245 51.05 714.8544 50.675Q714.46375 50.284374 713.83875 50.284374Q713.2294 50.284374 712.8075 50.675Q712.40125 51.065624 712.2919 51.83125L711.2294 51.64375Q711.4169 50.596874 712.1044 50.01875Q712.7919 49.425 713.8075 49.425Q714.5106 49.425 715.1044 49.7375Q715.6981 50.034374 716.0106 50.55Q716.3231 51.065624 716.3231 51.659374Q716.3231 52.20625 716.02625 52.675Q715.7294 53.128124 715.15125 53.39375Q715.90125 53.565624 716.3231 54.128124Q716.745 54.675 716.745 55.51875Q716.745 56.64375 715.9169 57.425Q715.1044 58.20625 713.8544 58.20625Q712.7294 58.20625 711.9794 57.534374Q711.2294 56.846874 711.12 55.784374Z" fill-rule="nonzero"/><path fill="#6fa8dc" d="M680.62 73.05C680.62 72.49772 681.0677 72.05 681.62 72.05L691.62 72.05C692.1723 72.05 692.62 72.49772 692.62 73.05L692.62 83.05C692.62 83.60229 692.1723 84.05 691.62 84.05L681.62 84.05C681.0677 84.05 680.62 83.60229 680.62 83.05Z" fill-rule="nonzero"/><path fill="#1a1a1a" d="M701.1825 74.58125L701.1825 73.56563L706.745 73.56563L706.745 74.39375Q705.9325 75.26875 705.12 76.72188Q704.3231 78.15938 703.8856 79.69063Q703.5575 80.76875 703.4794 82.05L702.3856 82.05Q702.40125 81.03438 702.77625 79.59688Q703.1669 78.15938 703.87 76.83125Q704.58875 75.50313 705.40125 74.58125L701.1825 74.58125ZM708.71375 82.05L708.71375 80.84688L709.9169 80.84688L709.9169 82.05L708.71375 82.05ZM714.495 82.05L714.495 79.9875L710.77625 79.9875L710.77625 79.01875L714.6981 73.45625L715.5575 73.45625L715.5575 79.01875L716.71375 79.01875L716.71375 79.9875L715.5575 79.9875L715.5575 82.05L714.495 82.05ZM714.495 79.01875L714.495 75.15938L711.8075 79.01875L714.495 79.01875Z" fill-rule="nonzero"/><path fill="#d9ead3" d="M680.62 97.05C680.62 96.49772 681.0677 96.05 681.62 96.05L691.62 96.05C692.1723 96.05 692.62 96.49772 692.62 97.05L692.62 107.05C692.62 107.60229 692.1723 108.05 691.62 108.05L681.62 108.05C681.0677 108.05 680.62 107.60229 680.62 107.05Z" fill-rule="nonzero"/><path fill="#1a1a1a" d="M702.745 101.39375Q702.08875 101.14375 701.7606 100.70625Q701.4481 100.25313 701.4481 99.64375Q701.4481 98.70625 702.12 98.06563Q702.8075 97.425 703.9169 97.425Q705.0419 97.425 705.7294 98.08125Q706.4169 98.7375 706.4169 99.675Q706.4169 100.26875 706.1044 100.70625Q705.7919 101.14375 705.15125 101.39375Q705.9481 101.64375 706.3544 102.22188Q706.7606 102.8 706.7606 103.59688Q706.7606 104.69063 705.9794 105.44063Q705.21375 106.19063 703.9325 106.19063Q702.6669 106.19063 701.8856 105.44063Q701.1044 104.69063 701.1044 103.56563Q701.1044 102.72188 701.52625 102.15938Q701.96375 101.59688 702.745 101.39375ZM702.52625 99.59688Q702.52625 100.20625 702.9169 100.59688Q703.3231 100.9875 703.9481 100.9875Q704.5575 100.9875 704.9481 100.6125Q705.33875 100.22188 705.33875 99.65938Q705.33875 99.08125 704.9325 98.69063Q704.52625 98.28438 703.9325 98.28438Q703.3231 98.28438 702.9169 98.675Q702.52625 99.06563 702.52625 99.59688ZM702.1981 103.56563Q702.1981 104.01875 702.40125 104.44063Q702.62 104.8625 703.0419 105.09688Q703.46375 105.33125 703.9481 105.33125Q704.6981 105.33125 705.1825 104.84688Q705.6825 104.3625 705.6825 103.6125Q705.6825 102.84688 705.1825 102.34688Q704.6825 101.84688 703.9169 101.84688Q703.1669 101.84688 702.6825 102.34688Q702.1981 102.83125 702.1981 103.56563ZM708.71375 106.05L708.71375 104.84688L709.9169 104.84688L709.9169 106.05L708.71375 106.05ZM711.12 101.81563Q711.12 100.28438 711.4325 99.3625Q711.745 98.425 712.3544 97.925Q712.9794 97.425 713.9169 97.425Q714.6044 97.425 715.12 97.70625Q715.65125 97.9875 715.995 98.51875Q716.33875 99.03438 716.52625 99.78438Q716.71375 100.53438 716.71375 101.81563Q716.71375 103.33125 716.40125 104.25313Q716.1044 105.175 715.4794 105.69063Q714.87 106.19063 713.9169 106.19063Q712.6825 106.19063 711.96375 105.3Q711.12 104.2375 711.12 101.81563ZM712.1981 101.81563Q712.1981 103.925 712.6981 104.62813Q713.1981 105.33125 713.9169 105.33125Q714.65125 105.33125 715.1356 104.62813Q715.6356 103.925 715.6356 101.81563Q715.6356 99.69063 715.1356 99.00313Q714.65125 98.3 713.90125 98.3Q713.1825 98.3 712.745 98.90938Q712.1981 99.69063 712.1981 101.81563Z" fill-rule="nonzero"/><path fill="#b6d7a8" d="M680.62 121.05C680.62 120.49772 681.0677 120.05 681.62 120.05L691.62 120.05C692.1723 120.05 692.62 120.49772 692.62 121.05L692.62 131.05C692.62 131.60228 692.1723 132.05 691.62 132.05L681.62 132.05C681.0677 132.05 680.62 131.60228 680.62 131.05Z" fill-rule="nonzero"/><path fill="#1a1a1a" d="M702.745 125.39375Q702.08875 125.14375 701.7606 124.70625Q701.4481 124.25313 701.4481 123.64375Q701.4481 122.70625 702.12 122.06563Q702.8075 121.425 703.9169 121.425Q705.0419 121.425 705.7294 122.08125Q706.4169 122.7375 706.4169 123.675Q706.4169 124.26875 706.1044 124.70625Q705.7919 125.14375 705.15125 125.39375Q705.9481 125.64375 706.3544 126.22188Q706.7606 126.8 706.7606 127.59688Q706.7606 128.69063 705.9794 129.44063Q705.21375 130.19063 703.9325 130.19063Q702.6669 130.19063 701.8856 129.44063Q701.1044 128.69063 701.1044 127.56563Q701.1044 126.72188 701.52625 126.15938Q701.96375 125.59688 702.745 125.39375ZM702.52625 123.59688Q702.52625 124.20625 702.9169 124.59688Q703.3231 124.9875 703.9481 124.9875Q704.5575 124.9875 704.9481 124.6125Q705.33875 124.22188 705.33875 123.65938Q705.33875 123.08125 704.9325 122.69063Q704.52625 122.28438 703.9325 122.28438Q703.3231 122.28438 702.9169 122.675Q702.52625 123.06563 702.52625 123.59688ZM702.1981 127.56563Q702.1981 128.01875 702.40125 128.44063Q702.62 128.8625 703.0419 129.09688Q703.46375 129.33125 703.9481 129.33125Q704.6981 129.33125 705.1825 128.84688Q705.6825 128.3625 705.6825 127.6125Q705.6825 126.84688 705.1825 126.34688Q704.6825 125.84688 703.9169 125.84688Q703.1669 125.84688 702.6825 126.34688Q702.1981 126.83125 702.1981 127.56563ZM708.71375 130.05L708.71375 128.84688L709.9169 128.84688L709.9169 130.05L708.71375 130.05ZM715.08875 130.05L714.0419 130.05L714.0419 123.33125Q713.65125 123.69063 713.02625 124.06563Q712.4169 124.425 711.9325 124.59688L711.9325 123.58125Q712.8075 123.15938 713.46375 122.58125Q714.1356 121.9875 714.4169 121.425L715.08875 121.425L715.08875 130.05Z" fill-rule="nonzero"/><path fill="#93c47d" d="M680.62 145.05C680.62 144.49771 681.0677 144.05 681.62 144.05L691.62 144.05C692.1723 144.05 692.62 144.49771 692.62 145.05L692.62 155.05C692.62 155.60228 692.1723 156.05 691.62 156.05L681.62 156.05C681.0677 156.05 680.62 155.60228 680.62 155.05Z" fill-rule="nonzero"/><path fill="#1a1a1a" d="M702.745 149.39375Q702.08875 149.14375 701.7606 148.70625Q701.4481 148.25313 701.4481 147.64375Q701.4481 146.70625 702.12 146.06563Q702.8075 145.425 703.9169 145.425Q705.0419 145.425 705.7294 146.08125Q706.4169 146.7375 706.4169 147.675Q706.4169 148.26875 706.1044 148.70625Q705.7919 149.14375 705.15125 149.39375Q705.9481 149.64375 706.3544 150.22188Q706.7606 150.8 706.7606 151.59688Q706.7606 152.69063 705.9794 153.44063Q705.21375 154.19063 703.9325 154.19063Q702.6669 154.19063 701.8856 153.44063Q701.1044 152.69063 701.1044 151.56563Q701.1044 150.72188 701.52625 150.15938Q701.96375 149.59688 702.745 149.39375ZM702.52625 147.59688Q702.52625 148.20625 702.9169 148.59688Q703.3231 148.9875 703.9481 148.9875Q704.5575 148.9875 704.9481 148.6125Q705.33875 148.22188 705.33875 147.65938Q705.33875 147.08125 704.9325 146.69063Q704.52625 146.28438 703.9325 146.28438Q703.3231 146.28438 702.9169 146.675Q702.52625 147.06563 702.52625 147.59688ZM702.1981 151.56563Q702.1981 152.01875 702.40125 152.44063Q702.62 152.8625 703.0419 153.09688Q703.46375 153.33125 703.9481 153.33125Q704.6981 153.33125 705.1825 152.84688Q705.6825 152.3625 705.6825 151.6125Q705.6825 150.84688 705.1825 150.34688Q704.6825 149.84688 703.9169 149.84688Q703.1669 149.84688 702.6825 150.34688Q702.1981 150.83125 702.1981 151.56563ZM708.71375 154.05L708.71375 152.84688L709.9169 152.84688L709.9169 154.05L708.71375 154.05ZM716.6669 153.03438L716.6669 154.05L710.9794 154.05Q710.9794 153.675 711.1044 153.31563Q711.3231 152.7375 711.7919 152.175Q712.27625 151.6125 713.1825 150.87813Q714.58875 149.72188 715.0731 149.05Q715.5731 148.37813 715.5731 147.78438Q715.5731 147.15938 715.12 146.7375Q714.6669 146.3 713.9481 146.3Q713.1825 146.3 712.7294 146.75313Q712.27625 147.20625 712.2606 148.01875L711.1825 147.90938Q711.2919 146.69063 712.0106 146.06563Q712.745 145.425 713.9794 145.425Q715.21375 145.425 715.9325 146.1125Q716.65125 146.8 716.65125 147.81563Q716.65125 148.33125 716.4325 148.83125Q716.2294 149.31563 715.7294 149.87813Q715.245 150.425 714.12 151.37813Q713.1669 152.175 712.8856 152.47188Q712.62 152.75313 712.4481 153.03438L716.6669 153.03438Z" fill-rule="nonzero"/><path fill="#6aa84f" d="M680.62 169.05C680.62 168.49771 681.0677 168.05 681.62 168.05L691.62 168.05C692.1723 168.05 692.62 168.49771 692.62 169.05L692.62 179.05C692.62 179.60228 692.1723 180.05 691.62 180.05L681.62 180.05C681.0677 180.05 680.62 179.60228 680.62 179.05Z" fill-rule="nonzero"/><path fill="#1a1a1a" d="M702.745 173.39375Q702.08875 173.14375 701.7606 172.70625Q701.4481 172.25313 701.4481 171.64375Q701.4481 170.70625 702.12 170.06563Q702.8075 169.425 703.9169 169.425Q705.0419 169.425 705.7294 170.08125Q706.4169 170.7375 706.4169 171.675Q706.4169 172.26875 706.1044 172.70625Q705.7919 173.14375 705.15125 173.39375Q705.9481 173.64375 706.3544 174.22188Q706.7606 174.8 706.7606 175.59688Q706.7606 176.69063 705.9794 177.44063Q705.21375 178.19063 703.9325 178.19063Q702.6669 178.19063 701.8856 177.44063Q701.1044 176.69063 701.1044 175.56563Q701.1044 174.72188 701.52625 174.15938Q701.96375 173.59688 702.745 173.39375ZM702.52625 171.59688Q702.52625 172.20625 702.9169 172.59688Q703.3231 172.9875 703.9481 172.9875Q704.5575 172.9875 704.9481 172.6125Q705.33875 172.22188 705.33875 171.65938Q705.33875 171.08125 704.9325 170.69063Q704.52625 170.28438 703.9325 170.28438Q703.3231 170.28438 702.9169 170.675Q702.52625 171.06563 702.52625 171.59688ZM702.1981 175.56563Q702.1981 176.01875 702.40125 176.44063Q702.62 176.8625 703.0419 177.09688Q703.46375 177.33125 703.9481 177.33125Q704.6981 177.33125 705.1825 176.84688Q705.6825 176.3625 705.6825 175.6125Q705.6825 174.84688 705.1825 174.34688Q704.6825 173.84688 703.9169 173.84688Q703.1669 173.84688 702.6825 174.34688Q702.1981 174.83125 702.1981 175.56563ZM708.71375 178.05L708.71375 176.84688L709.9169 176.84688L709.9169 178.05L708.71375 178.05ZM711.12 175.78438L712.1825 175.64375Q712.3544 176.53438 712.7919 176.94063Q713.2294 177.33125 713.8544 177.33125Q714.6044 177.33125 715.12 176.81563Q715.6356 176.3 715.6356 175.53438Q715.6356 174.81563 715.15125 174.34688Q714.6825 173.8625 713.9481 173.8625Q713.65125 173.8625 713.1981 173.9875L713.3231 173.05Q713.4325 173.06563 713.495 173.06563Q714.1669 173.06563 714.6981 172.72188Q715.245 172.3625 715.245 171.62813Q715.245 171.05 714.8544 170.675Q714.46375 170.28438 713.83875 170.28438Q713.2294 170.28438 712.8075 170.675Q712.40125 171.06563 712.2919 171.83125L711.2294 171.64375Q711.4169 170.59688 712.1044 170.01875Q712.7919 169.425 713.8075 169.425Q714.5106 169.425 715.1044 169.7375Q715.6981 170.03438 716.0106 170.55Q716.3231 171.06563 716.3231 171.65938Q716.3231 172.20625 716.02625 172.675Q715.7294 173.12813 715.15125 173.39375Q715.90125 173.56563 716.3231 174.12813Q716.745 174.675 716.745 175.51875Q716.745 176.64375 715.9169 177.425Q715.1044 178.20625 713.8544 178.20625Q712.7294 178.20625 711.9794 177.53438Q711.2294 176.84688 711.12 175.78438Z" fill-rule="nonzero"/><path fill="#38761d" d="M680.62 193.05C680.62 192.49771 681.0677 192.05 681.62 192.05L691.62 192.05C692.1723 192.05 692.62 192.49771 692.62 193.05L692.62 203.05C692.62 203.60228 692.1723 204.05 691.62 204.05L681.62 204.05C681.0677 204.05 680.62 203.60228 680.62 203.05Z" fill-rule="nonzero"/><path fill="#1a1a1a" d="M702.745 197.39375Q702.08875 197.14375 701.7606 196.70625Q701.4481 196.25313 701.4481 195.64375Q701.4481 194.70625 702.12 194.06563Q702.8075 193.425 703.9169 193.425Q705.0419 193.425 705.7294 194.08125Q706.4169 194.7375 706.4169 195.675Q706.4169 196.26875 706.1044 196.70625Q705.7919 197.14375 705.15125 197.39375Q705.9481 197.64375 706.3544 198.22188Q706.7606 198.8 706.7606 199.59688Q706.7606 200.69063 705.9794 201.44063Q705.21375 202.19063 703.9325 202.19063Q702.6669 202.19063 701.8856 201.44063Q701.1044 200.69063 701.1044 199.56563Q701.1044 198.72188 701.52625 198.15938Q701.96375 197.59688 702.745 197.39375ZM702.52625 195.59688Q702.52625 196.20625 702.9169 196.59688Q703.3231 196.9875 703.9481 196.9875Q704.5575 196.9875 704.9481 196.6125Q705.33875 196.22188 705.33875 195.65938Q705.33875 195.08125 704.9325 194.69063Q704.52625 194.28438 703.9325 194.28438Q703.3231 194.28438 702.9169 194.675Q702.52625 195.06563 702.52625 195.59688ZM702.1981 199.56563Q702.1981 200.01875 702.40125 200.44063Q702.62 200.8625 703.0419 201.09688Q703.46375 201.33125 703.9481 201.33125Q704.6981 201.33125 705.1825 200.84688Q705.6825 200.3625 705.6825 199.6125Q705.6825 198.84688 705.1825 198.34688Q704.6825 197.84688 703.9169 197.84688Q703.1669 197.84688 702.6825 198.34688Q702.1981 198.83125 702.1981 199.56563ZM708.71375 202.05L708.71375 200.84688L709.9169 200.84688L709.9169 202.05L708.71375 202.05ZM714.495 202.05L714.495 199.9875L710.77625 199.9875L710.77625 199.01875L714.6981 193.45625L715.5575 193.45625L715.5575 199.01875L716.71375 199.01875L716.71375 199.9875L715.5575 199.9875L715.5575 202.05L714.495 202.05ZM714.495 199.01875L714.495 195.15938L711.8075 199.01875L714.495 199.01875Z" fill-rule="nonzero"/></svg>