<?xml version="1.0" standalone="no"?>
<!DOCTYPE svg PUBLIC "-//W3C//DTD SVG 20010904//EN"
 "http://www.w3.org/TR/2001/REC-SVG-20010904/DTD/svg10.dtd">
<svg version="1.0" xmlns="http://www.w3.org/2000/svg"
 width="500.000000pt" height="500.000000pt" viewBox="0 0 500.000000 500.000000"
 preserveAspectRatio="xMidYMid meet">
<metadata>
Created by potrace 1.14, written by Peter Selinger 2001-2017
</metadata>
<g transform="translate(0.000000,500.000000) scale(0.100000,-0.100000)"
fill="#000000" stroke="none">
<path d="M0 3706 l0 -1294 58 -43 c76 -57 230 -207 303 -296 47 -57 72 -78
118 -98 42 -19 64 -37 80 -63 25 -42 26 -48 -19 123 -149 562 -49 1172 268
1646 153 228 358 446 537 570 102 71 415 239 446 239 11 0 11 2 2 8 -17 10 42
57 82 65 17 3 44 11 60 18 17 7 35 13 40 14 26 6 111 37 120 44 5 5 50 18 98
30 115 28 263 31 331 7 28 -9 86 -21 130 -27 77 -9 169 -33 191 -49 6 -4 31
-15 57 -25 26 -10 45 -21 42 -26 -3 -5 4 -9 16 -9 36 0 256 -87 381 -151 156
-79 407 -258 394 -279 -3 -5 0 -12 6 -16 8 -4 9 -3 5 4 -4 7 -3 12 2 12 12 0
62 -54 62 -66 0 -6 10 -19 22 -30 22 -19 23 -19 8 1 -11 15 -7 14 13 -4 28
-25 38 -43 12 -21 -36 30 -10 -10 43 -64 31 -33 48 -54 37 -46 -11 8 5 -12 35
-43 55 -58 73 -71 50 -39 -7 9 9 -5 35 -33 25 -27 51 -59 56 -70 6 -11 -10 3
-35 30 l-46 50 26 -50 c14 -27 34 -61 44 -75 26 -38 110 -207 110 -224 0 -8 6
-21 14 -29 32 -31 84 -187 137 -407 10 -41 25 -95 34 -118 42 -115 40 -475 -5
-674 -45 -206 -131 -434 -216 -578 -109 -186 -275 -394 -397 -501 -26 -23 -46
-44 -43 -46 6 -7 346 121 424 159 97 48 177 134 236 254 145 300 310 511 519
667 l77 58 0 1395 0 1394 -2500 0 -2500 0 0 -1294z m4001 147 c13 -16 12 -17
-3 -4 -17 13 -22 21 -14 21 2 0 10 -8 17 -17z"/>
<path d="M2300 3692 c-8 -3 -18 -11 -23 -18 -4 -7 -14 -11 -22 -8 -11 4 -15
-1 -15 -17 0 -18 -3 -20 -12 -11 -17 17 -28 15 -21 -4 4 -10 1 -15 -8 -13 -21
4 -69 -12 -69 -23 0 -5 -4 -6 -10 -3 -5 3 -10 2 -10 -3 0 -6 -8 -8 -19 -5 -19
5 -36 -21 -26 -38 4 -5 -1 -6 -9 -3 -19 7 -21 -7 -3 -25 10 -10 8 -11 -7 -5
-19 7 -19 7 0 -19 10 -14 27 -27 37 -27 17 0 17 -1 2 -16 -12 -13 -13 -19 -4
-24 6 -4 8 -13 4 -20 -4 -7 1 -13 14 -17 12 -3 21 -7 21 -10 0 -12 -34 -53
-44 -53 -6 0 -6 4 3 9 8 5 9 11 3 15 -5 3 -13 -2 -16 -11 -8 -19 12 -35 34
-28 8 3 5 -3 -8 -13 -13 -10 -20 -21 -16 -25 11 -11 26 -8 19 3 -3 6 -2 10 4
10 5 0 11 -4 13 -8 2 -5 21 -15 43 -24 27 -11 39 -21 37 -33 -2 -11 3 -15 15
-13 13 2 18 -4 19 -27 1 -16 0 -24 -3 -17 -7 18 -24 14 -21 -5 2 -10 -2 -18
-9 -18 -6 0 -15 -4 -20 -9 -5 -5 -3 -6 5 -2 6 4 12 3 12 -3 0 -5 9 -8 20 -6
19 4 27 -16 21 -49 -1 -5 4 -4 11 2 19 15 41 -1 44 -32 3 -27 25 -56 42 -56 6
0 13 -6 16 -12 5 -10 7 -10 12 0 7 14 34 16 34 3 0 -6 -4 -13 -10 -16 -5 -3
-10 -16 -10 -27 0 -12 3 -18 7 -15 3 4 12 2 19 -4 9 -8 12 -4 10 15 -2 17 1
23 11 19 9 -4 16 3 20 16 3 11 9 21 14 21 5 0 9 5 9 11 0 5 -6 7 -12 4 -7 -4
-5 0 4 8 10 8 15 17 11 21 -4 4 0 4 10 1 13 -6 14 -11 6 -26 -5 -10 -7 -19 -3
-19 3 0 1 -6 -5 -14 -9 -11 -6 -12 21 -7 22 4 34 14 37 26 2 11 8 31 14 45 6
14 10 28 9 33 -1 4 2 7 8 7 14 0 13 -13 -2 -28 -7 -7 -8 -12 -4 -12 5 0 3 -6
-3 -14 -9 -10 -8 -16 4 -26 13 -11 14 -10 9 3 -3 9 -1 24 5 34 6 10 11 13 11
6 0 -12 10 -12 48 1 17 6 20 11 13 20 -6 7 -8 16 -4 19 3 4 1 7 -6 7 -8 0 -11
-8 -8 -19 4 -16 1 -18 -16 -12 -11 4 -21 15 -23 24 -1 9 3 14 10 11 7 -3 18 2
25 10 9 11 19 12 35 6 21 -8 23 -6 21 33 0 23 4 45 9 49 6 4 10 19 11 35 0 20
5 28 18 27 9 -1 17 4 17 11 0 7 7 15 15 19 10 4 15 -1 15 -15 0 -14 6 -19 18
-17 9 1 24 -2 32 -7 12 -7 13 -6 4 6 -16 20 -14 48 4 42 10 -4 11 -8 1 -13 -8
-6 -4 -12 12 -21 22 -11 23 -11 10 4 -7 10 -10 17 -7 17 4 0 2 8 -3 18 -5 10
-6 24 -2 31 6 9 11 4 16 -16 5 -15 7 -32 6 -36 -1 -5 3 -6 9 -2 6 3 8 9 6 13
-2 4 7 8 20 8 14 1 21 -2 17 -9 -3 -6 -1 -7 5 -3 6 4 9 13 6 21 -4 8 -10 12
-15 9 -9 -5 -14 12 -9 31 1 6 4 21 5 33 2 13 6 26 9 29 3 4 0 13 -7 21 -9 13
-9 14 1 8 6 -4 12 -2 12 3 0 6 -5 11 -11 11 -6 0 -9 9 -6 20 3 11 1 23 -4 26
-5 3 -9 -2 -9 -10 0 -10 -6 -13 -15 -10 -19 8 -19 19 0 37 13 13 13 16 -1 21
-10 4 -13 2 -8 -6 4 -7 3 -8 -4 -4 -6 4 -8 14 -5 23 5 12 2 15 -9 10 -11 -4
-18 1 -21 14 -4 16 -11 18 -31 13 -22 -5 -26 -3 -26 17 -1 22 -2 23 -14 7 -12
-16 -51 -30 -51 -18 0 17 -32 37 -46 29 -9 -4 -20 -5 -25 -1 -5 4 -2 -1 5 -10
17 -22 -1 -24 -23 -3 -8 8 -22 12 -31 8 -14 -5 -16 -2 -10 16 6 21 5 22 -14
12 -18 -10 -21 -9 -21 6 0 15 -1 15 -12 1 -7 -8 -22 -18 -32 -22 -15 -5 -17
-4 -8 7 18 21 1 29 -20 10 -19 -17 -19 -16 -13 9 6 25 -8 47 -19 29 -3 -5 -15
-7 -26 -4 -11 3 -20 0 -20 -6 0 -7 -9 -9 -25 -5 -17 4 -25 2 -26 -7 -1 -8 -4
-2 -8 12 -4 17 -11 24 -21 21z m289 -108 c-17 -21 -31 -17 -17 5 7 11 16 17
20 14 5 -2 4 -11 -3 -19z m-229 -24 c0 -19 -18 -19 -23 -1 -3 14 -1 18 9 14 8
-3 14 -9 14 -13z m-260 0 c0 -5 -5 -10 -11 -10 -5 0 -7 5 -4 10 3 6 8 10 11
10 2 0 4 -4 4 -10z m706 -6 c-3 -23 -13 -26 -18 -6 -3 11 0 19 7 19 7 0 12 -6
11 -13z m-675 -17 c-1 -12 -15 -9 -19 4 -3 6 1 10 8 8 6 -3 11 -8 11 -12z
m609 -7 c0 -5 -4 -10 -10 -10 -5 0 -10 5 -10 10 0 6 5 10 10 10 6 0 10 -4 10
-10z m-367 -40 c-3 -11 -9 -20 -14 -20 -10 0 -12 24 -2 33 13 13 21 7 16 -13z
m477 16 c0 -3 -4 -8 -10 -11 -5 -3 -10 -1 -10 4 0 6 5 11 10 11 6 0 10 -2 10
-4z m-384 -42 c-9 -9 -20 -13 -24 -9 -4 3 2 13 12 21 25 18 33 10 12 -12z
m-226 1 c-7 -9 -15 -13 -17 -11 -7 7 7 26 19 26 6 0 6 -6 -2 -15z m-31 -66
c-24 -15 -29 -10 -11 11 10 12 18 16 21 9 2 -6 -3 -15 -10 -20z m661 5 c0 -8
-5 -12 -10 -9 -6 4 -8 11 -5 16 9 14 15 11 15 -7z m-563 -29 c-4 -8 -14 -15
-23 -15 -8 0 -14 6 -11 13 2 6 10 11 16 10 6 -2 11 2 11 9 0 6 3 9 6 5 4 -3 4
-13 1 -22z m-154 -5 c-3 -11 -9 -17 -15 -14 -5 3 -4 12 3 20 16 19 18 18 12
-6z m67 10 c0 -5 -7 -10 -16 -10 -8 0 -12 5 -9 10 3 6 10 10 16 10 5 0 9 -4 9
-10z m180 -6 c0 -8 -5 -12 -10 -9 -6 4 -8 11 -5 16 9 14 15 11 15 -7z m-144
-35 c1 -16 -3 -29 -10 -29 -9 0 -13 38 -7 69 3 15 16 -16 17 -40z m614 31 c0
-5 -4 -10 -10 -10 -5 0 -10 5 -10 10 0 6 5 10 10 10 6 0 10 -4 10 -10z m-690
-60 c0 -5 -5 -10 -11 -10 -5 0 -7 5 -4 10 3 6 8 10 11 10 2 0 4 -4 4 -10z m60
-19 c-1 -15 -16 -29 -26 -23 -19 12 -13 40 8 34 10 -2 18 -7 18 -11z m240 -2
c0 -5 -4 -9 -10 -9 -5 0 -10 7 -10 16 0 8 5 12 10 9 6 -3 10 -10 10 -16z m307
-9 c1 -11 -2 -18 -8 -15 -11 7 -12 35 -1 35 4 0 8 -9 9 -20z m-597 1 c0 -5 -7
-12 -16 -15 -14 -5 -15 -4 -4 9 14 17 20 19 20 6z m425 -21 c-3 -5 -11 -10
-16 -10 -6 0 -7 5 -4 10 3 6 11 10 16 10 6 0 7 -4 4 -10z m55 -10 c0 -5 -4
-10 -10 -10 -5 0 -10 5 -10 10 0 6 5 10 10 10 6 0 10 -4 10 -10z m-126 -35 c3
-8 1 -15 -4 -15 -6 0 -10 7 -10 15 0 8 2 15 4 15 2 0 6 -7 10 -15z m116 5 c0
-5 -4 -10 -10 -10 -5 0 -10 5 -10 10 0 6 5 10 10 10 6 0 10 -4 10 -10z m-330
-9 c0 -5 -7 -15 -16 -22 -9 -7 -21 -25 -26 -39 -6 -14 -12 -20 -15 -13 -2 7
-12 10 -21 7 -15 -5 -15 -4 1 6 9 6 17 16 17 23 0 8 -3 8 -9 -2 -6 -9 -11 -10
-15 -2 -7 11 5 15 32 12 6 -1 12 6 12 16 0 12 8 19 20 20 11 1 20 -2 20 -6z
m303 -26 c-7 -21 -12 -19 -10 4 0 11 5 18 9 15 4 -3 5 -11 1 -19z m-193 6 c0
-6 -4 -13 -10 -16 -5 -3 -10 1 -10 9 0 9 5 16 10 16 6 0 10 -4 10 -9z m131
-14 c-10 -9 -11 -8 -5 6 3 10 9 15 12 12 3 -3 0 -11 -7 -18z m39 -2 c0 -8 -7
-15 -15 -15 -9 0 -12 6 -9 15 4 8 10 15 15 15 5 0 9 -7 9 -15z m45 -34 c10
-17 -12 -21 -25 -6 -10 12 -10 15 3 15 9 0 18 -4 22 -9z m-232 -51 c3 -13 0
-20 -9 -20 -8 0 -14 9 -14 20 0 11 4 20 9 20 5 0 11 -9 14 -20z m126 2 c-7 -2
-20 -11 -26 -20 -11 -14 -13 -14 -13 -1 0 22 20 38 38 31 13 -5 14 -6 1 -10z
m-139 -56 c0 -2 -7 -6 -15 -10 -8 -3 -15 -1 -15 4 0 6 7 10 15 10 8 0 15 -2
15 -4z m5 -46 c3 -5 1 -10 -4 -10 -6 0 -11 5 -11 10 0 6 2 10 4 10 3 0 8 -4
11 -10z m100 0 c3 -5 -1 -10 -9 -10 -8 0 -18 5 -21 10 -3 6 1 10 9 10 8 0 18
-4 21 -10z"/>
<path d="M2345 3690 c3 -5 8 -10 11 -10 2 0 4 5 4 10 0 6 -5 10 -11 10 -5 0
-7 -4 -4 -10z"/>
<path d="M2775 3600 c-3 -5 -1 -10 4 -10 6 0 11 5 11 10 0 6 -2 10 -4 10 -3 0
-8 -4 -11 -10z"/>
<path d="M2910 3471 c0 -10 19 -25 25 -20 1 2 -3 10 -11 17 -8 7 -14 8 -14 3z"/>
<path d="M2932 3433 c-6 -2 -10 -8 -7 -13 3 -5 -3 -16 -12 -26 -17 -17 -17
-18 0 -11 20 7 22 -3 5 -22 -9 -9 -9 -12 -1 -7 6 3 13 3 16 -1 2 -5 2 -2 0 6
-3 11 -1 12 12 1 12 -10 15 -10 15 4 0 9 -5 16 -11 16 -7 0 -10 12 -7 30 3 17
4 30 4 29 -1 0 -7 -3 -14 -6z"/>
<path d="M2966 3332 c-2 -4 0 -14 6 -22 8 -12 9 -12 5 2 -3 9 -1 19 6 22 9 3
9 5 0 5 -6 1 -14 -3 -17 -7z"/>
<path d="M2933 3295 c0 -8 4 -12 9 -9 4 3 8 9 8 15 0 5 -4 9 -8 9 -5 0 -9 -7
-9 -15z"/>
<path d="M2710 3228 c0 -14 18 -17 28 -5 8 10 6 13 -9 13 -10 0 -19 -4 -19 -8z"/>
<path d="M2158 3172 c4 -12 1 -14 -14 -8 -15 6 -16 5 -7 -5 9 -9 16 -9 26 -1
10 9 17 8 26 -1 11 -10 11 -8 1 9 -15 24 -41 28 -32 6z"/>
<path d="M2172 3068 c5 -15 28 -23 28 -10 0 5 -7 13 -16 16 -10 4 -14 1 -12
-6z"/>
<path d="M2665 3060 c-3 -5 -1 -10 4 -10 6 0 11 5 11 10 0 6 -2 10 -4 10 -3 0
-8 -4 -11 -10z"/>
<path d="M2220 3050 c0 -5 5 -10 11 -10 5 0 7 5 4 10 -3 6 -8 10 -11 10 -2 0
-4 -4 -4 -10z"/>
<path d="M2330 2935 c-10 -12 -10 -15 4 -15 9 0 16 7 16 15 0 8 -2 15 -4 15
-2 0 -9 -7 -16 -15z"/>
<path d="M2833 1773 c-13 -2 -23 -9 -23 -15 0 -5 -6 -8 -12 -5 -7 2 -24 -4
-37 -14 -28 -23 -45 -24 -38 -5 4 10 1 13 -8 9 -8 -3 -12 -10 -8 -17 5 -7 2
-7 -8 1 -8 6 -24 10 -34 8 -11 -2 -22 -4 -24 -4 -3 -1 3 -7 13 -14 11 -8 16
-20 13 -28 -4 -10 -6 -9 -6 4 -1 21 -21 23 -21 2 0 -8 -6 -15 -14 -15 -9 0
-12 -7 -9 -20 4 -16 0 -20 -17 -20 -19 0 -21 2 -9 16 10 13 10 17 -1 24 -19
12 -45 1 -31 -13 16 -16 13 -37 -4 -37 -12 0 -11 -5 3 -30 9 -16 24 -30 32
-31 10 0 8 -3 -5 -9 -16 -7 -13 -9 16 -9 23 -1 39 -7 43 -16 5 -14 9 -14 36 0
26 13 29 13 24 0 -7 -18 -4 -18 31 -5 15 6 30 22 36 40 6 16 15 27 20 24 5 -3
4 -14 -2 -26 -9 -16 -8 -19 3 -13 34 20 38 27 27 47 -8 15 -8 19 0 14 6 -4 11
-1 11 8 0 8 -4 18 -10 21 -5 3 -10 11 -10 16 0 6 7 3 16 -5 22 -23 36 -10 30
27 -5 25 -4 27 3 12 9 -19 10 -19 10 3 1 17 9 24 31 29 17 3 30 11 30 18 0 16
-28 40 -37 32 -3 -4 2 -9 11 -13 23 -9 10 -23 -16 -16 -15 4 -19 2 -13 -8 5
-8 3 -11 -6 -8 -8 3 -13 15 -13 26 1 12 1 21 0 21 0 -1 -11 -4 -23 -6z m-3
-34 c0 -11 -4 -18 -10 -14 -5 3 -7 12 -3 20 7 21 13 19 13 -6z m-30 -19 c0 -5
-4 -10 -10 -10 -5 0 -10 5 -10 10 0 6 5 10 10 10 6 0 10 -4 10 -10z m-49 -14
c-6 -7 -8 -22 -5 -32 6 -17 5 -17 -9 1 -14 17 -18 18 -27 5 -6 -9 -10 -10 -10
-3 0 7 12 18 28 26 35 19 36 19 23 3z m44 -16 c3 -5 -1 -10 -9 -10 -9 0 -16 5
-16 10 0 6 4 10 9 10 6 0 13 -4 16 -10z m-141 -36 c8 -21 8 -21 -8 -27 -10 -4
-13 2 -12 19 1 27 11 31 20 8z m36 -19 c0 -18 -21 -65 -29 -65 -13 0 -9 41 4
46 8 3 11 12 8 20 -3 8 0 14 6 14 6 0 11 -7 11 -15z m-70 -15 c0 -5 -4 -10
-10 -10 -5 0 -10 5 -10 10 0 6 5 10 10 10 6 0 10 -4 10 -10z m145 -30 c3 -5 1
-10 -4 -10 -6 0 -11 5 -11 10 0 6 2 10 4 10 3 0 8 -4 11 -10z"/>
<path d="M2923 1716 c-23 -26 -20 -36 8 -36 9 0 19 -5 21 -12 7 -19 28 1 27
25 0 20 -1 21 -8 3 -7 -19 -8 -19 -15 0 -4 11 -3 20 3 22 12 4 5 22 -8 22 -4
0 -17 -11 -28 -24z"/>
<path d="M2820 1550 c0 -5 5 -10 10 -10 6 0 10 5 10 10 0 6 -4 10 -10 10 -5 0
-10 -4 -10 -10z"/>
<path d="M2590 1531 c0 -5 7 -14 15 -21 12 -10 15 -10 15 3 0 8 -7 17 -15 21
-8 3 -15 2 -15 -3z"/>
<path d="M2766 1525 c-3 -8 -1 -15 4 -15 13 0 22 18 11 24 -5 3 -11 -1 -15 -9z"/>
<path d="M3229 745 c-58 -31 -332 -116 -439 -135 -63 -11 -184 -24 -269 -30
-84 -5 -154 -10 -155 -12 -1 -2 -11 -25 -21 -52 -10 -28 -29 -60 -42 -72 -32
-30 -101 -39 -147 -20 -20 8 -36 12 -36 9 0 -3 -6 -1 -12 4 -14 11 -85 28
-104 25 -6 -1 -28 14 -48 33 -21 19 -75 53 -120 75 -45 23 -96 54 -113 70 -47
44 -48 37 -4 -29 22 -32 62 -104 90 -160 27 -56 54 -108 61 -115 6 -8 33 -22
61 -32 65 -24 135 -82 182 -152 21 -32 42 -60 46 -65 4 -4 44 -12 89 -17 45
-5 114 -20 154 -34 66 -23 74 -24 93 -10 11 8 46 32 79 54 34 23 70 58 87 85
64 101 179 185 319 232 l65 22 60 105 c33 58 76 127 95 153 19 25 41 55 49 65
16 21 14 22 -20 3z"/>
<path d="M0 241 l0 -241 798 0 797 0 -30 25 c-79 65 -174 89 -255 64 -21 -6
-119 -10 -247 -9 -203 1 -214 0 -242 -20 -18 -14 -36 -20 -49 -16 -11 4 -65
49 -121 100 -55 51 -118 105 -139 119 -42 30 -127 62 -182 70 -19 2 -64 12
-100 22 -36 9 -96 20 -134 24 -81 7 -93 22 -41 52 34 20 35 23 18 33 -10 6
-30 12 -45 14 l-28 3 0 -240z"/>
<path d="M4972 390 c-12 -11 -30 -20 -40 -20 -11 0 -25 -7 -32 -15 -7 -8 -16
-13 -20 -10 -5 3 -11 1 -14 -4 -3 -4 -19 -11 -36 -14 -16 -4 -30 -13 -30 -21
0 -19 -22 -26 -84 -26 -30 0 -60 -6 -72 -15 -28 -21 -60 -18 -113 9 -81 43
-210 79 -276 78 -94 -1 -145 -29 -249 -135 -50 -51 -113 -120 -139 -155 l-48
-62 590 0 591 0 0 205 c0 113 -1 205 -3 205 -2 0 -13 -9 -25 -20z"/>
<path d="M3215 81 c-38 -10 -132 -57 -140 -71 -4 -7 111 -10 350 -10 l356 0
-3 23 c-3 25 -1 24 -214 11 -93 -5 -106 -4 -166 20 -72 29 -138 39 -183 27z"/>
</g>
</svg>
